<svg xmlns="http://www.w3.org/2000/svg" width="126.636" height="131.07" viewBox="0 0 126.636 131.07">
  <path id="Path_81" data-name="Path 81" d="M45.72,124.85A45.22,45.22,0,1,1,90.93,79.633,45.222,45.222,0,0,1,45.72,124.85Zm0-3.77A41.45,41.45,0,1,0,4.27,79.63a41.45,41.45,0,0,0,41.45,41.45Zm-.29-98.79a1.885,1.885,0,1,1-3.11-2.13A45.22,45.22,0,1,1,105.19,83a1.881,1.881,0,1,1-2.13-3.1A41.45,41.45,0,1,0,45.43,22.29Zm54.93,31a9.4,9.4,0,1,0,0-.04Zm0-3.76a5.64,5.64,0,1,1,0-.04ZM30.64,77.75a9.42,9.42,0,1,1,6.667-2.756A9.42,9.42,0,0,1,30.64,77.75Zm0-3.77a2.341,2.341,0,1,0,0,.02ZM64.56,89.05A9.42,9.42,0,1,1,71.234,86.3,9.42,9.42,0,0,1,64.56,89.05Zm0-3.77a5.65,5.65,0,1,0-5.65-5.65,5.65,5.65,0,0,0,5.65,5.65ZM88.11,23.11a2.83,2.83,0,1,1,2.82-2.83,2.83,2.83,0,0,1-2.82,2.83Zm-37.68,81a2.832,2.832,0,1,1,0,.01ZM27.82,94.7a2.83,2.83,0,1,1,2.82-2.82,2.83,2.83,0,0,1-2.82,2.82ZM67.38,26.88a2.83,2.83,0,1,1,2.83-2.83A2.83,2.83,0,0,1,67.38,26.88Zm-15.07,32a1.175,1.175,0,1,1,0,.03Z" transform="translate(0.03 0.07)" fill="none" stroke="#fff" stroke-linecap="round" stroke-linejoin="round" stroke-miterlimit="10" stroke-width="1"/>
  <path id="Path_82" data-name="Path 82" d="M30,42h73.8a5.66,5.66,0,0,1,5.43,4l16.62,56.52a5.66,5.66,0,0,1-5.42,7.25H106.62v18.84a1.88,1.88,0,1,1-3.76,0V109.78H23.72v18.84a1.88,1.88,0,1,1-3.76,0V109.78H6.15a5.65,5.65,0,0,1-5.42-7.25L17.35,46a5.66,5.66,0,0,1,5.43-4h3.28l7.5-27a9.43,9.43,0,0,1,9.08-7h5.58V6.15A5.65,5.65,0,0,1,53.87.5H72.71a5.65,5.65,0,0,1,5.65,5.65v7.54a5.65,5.65,0,0,1-5.65,5.65H53.87a5.65,5.65,0,0,1-5.65-5.65V11.8H42.64a5.65,5.65,0,0,0-5.44,4.14Zm-7.19,3.77A1.88,1.88,0,0,0,21,47.07L4.34,103.59A1.91,1.91,0,0,0,6.15,106H120.43a1.9,1.9,0,0,0,1.81-2.42L105.61,47.07a1.88,1.88,0,0,0-1.81-1.35ZM53.87,4.27A1.88,1.88,0,0,0,52,6.15v7.54a1.88,1.88,0,0,0,1.88,1.88H72.71a1.88,1.88,0,0,0,1.88-1.88V6.15a1.88,1.88,0,0,0-1.88-1.88ZM25,88.52l8.87-30.15A1.87,1.87,0,0,1,35.69,57h55.2a1.87,1.87,0,0,1,1.8,1.35l8.87,30.15a1.88,1.88,0,0,1-1.81,2.41H26.83A1.88,1.88,0,0,1,25,88.52ZM61.41,60.79H37.1L29.35,87.17H61.41Zm3.76,0V87.17H97.23L89.48,60.79Z" transform="translate(0.03 0.07)" fill="none" stroke="#fff" stroke-linecap="round" stroke-linejoin="round" stroke-miterlimit="10" stroke-width="1"/>
  <path id="Path_83" data-name="Path 83" d="M97.86,97.89c-14.09,14-33,22.83-52.7,25.88-17,2.63-32.42.45-38.21-5.35S-1,97.19,1.61,80.21c3-19.65,11.83-38.61,25.87-52.7s33-22.89,52.66-25.92C97.12-1,112.6,1.17,118.4,7s8,21.28,5.38,38.26C120.75,64.91,112,83.85,97.86,97.89ZM41.71,120.44c.95-.12,1.91-.25,2.88-.4,18.9-2.93,37.12-11.37,50.61-24.82s21.94-31.63,24.86-50.56c.15-1,.28-1.95.4-2.91A41.48,41.48,0,0,1,83.63,4.91c-1,.12-1.94.26-2.92.41C61.79,8.23,43.58,16.69,30.15,30.17S8.26,61.88,5.33,80.79c-.15,1-.28,1.92-.4,2.87a41.46,41.46,0,0,1,36.78,36.78Zm-37.16-33c-1.07,13.19,1,24.34,5.06,28.35S24.77,121.9,38,120.83A37.68,37.68,0,0,0,4.55,87.41ZM120.84,38c1-13.2-1.1-24.35-5.11-28.36S100.57,3.49,87.38,4.53A37.7,37.7,0,0,0,120.84,38Zm-67,18.5a1.89,1.89,0,0,1,2.67-2.67L71.54,68.9a1.884,1.884,0,0,1-2.66,2.67ZM68.88,41.42a1.881,1.881,0,1,1,2.66-2.66L86.61,53.83A1.88,1.88,0,0,1,84,56.5ZM38.73,71.57A1.89,1.89,0,0,1,41.4,68.9L56.47,84a1.884,1.884,0,1,1-2.67,2.66Z" transform="translate(0.03 0.07)" fill="none" stroke="#fff" stroke-linecap="round" stroke-linejoin="round" stroke-miterlimit="10" stroke-width="1"/>
  <path id="Path_84" data-name="Path 84" d="M23.11,98.47H9.92A9.42,9.42,0,0,1,.5,89.05V43.83A39.551,39.551,0,0,1,16.332,12.178,58.4,58.4,0,0,1,51.37.5H66.44a58.43,58.43,0,0,1,35.05,11.68,39.57,39.57,0,0,1,15.82,31.65V89.05a9.42,9.42,0,0,1-9.42,9.42H94.7v17a9.42,9.42,0,0,1-9.42,9.42H32.53a9.42,9.42,0,0,1-9.42-9.42ZM94.7,70.2V94.7h13.19a5.65,5.65,0,0,0,5.65-5.65V43.83A35.78,35.78,0,0,0,99.22,15.2a54.47,54.47,0,0,0-17.8-8.84,22.61,22.61,0,0,1-45,0,54.57,54.57,0,0,0-17.8,8.84A35.78,35.78,0,0,0,4.27,43.83V89.05A5.65,5.65,0,0,0,9.92,94.7H23.11V47.6a1.89,1.89,0,0,1,3.77,0V66L40.7,53.73a1.87,1.87,0,0,1,2.5,0l15.71,14,15.7-14a1.87,1.87,0,0,1,2.5,0L90.93,66V47.6a1.89,1.89,0,0,1,3.77,0Zm-3.77.86L75.86,57.66l-15.7,14a1.9,1.9,0,0,1-2.51,0L42,57.66,26.88,71.06v44.37a5.65,5.65,0,0,0,5.65,5.65H85.28a5.65,5.65,0,0,0,5.65-5.65ZM40.1,5.44a18.84,18.84,0,0,0,37.61,0A55.06,55.06,0,0,0,66.44,4.27H51.37A55.13,55.13,0,0,0,40.1,5.44Z" transform="translate(0.03 0.07)" fill="none" stroke="#fff" stroke-linecap="round" stroke-linejoin="round" stroke-miterlimit="10" stroke-width="1"/>
</svg>
