<svg xmlns="http://www.w3.org/2000/svg" width="791.828" height="932.917" viewBox="0 0 791.828 932.917">
  <g id="Group_3" data-name="Group 3" transform="translate(-1129.586 1.414)">
    <line id="Line_10" data-name="Line 10" x2="789" y2="789" transform="translate(1131)" fill="none" stroke="#000" stroke-linecap="round" stroke-width="2" opacity="0.503"/>
    <line id="Line_11" data-name="Line 11" x2="690" y2="690" transform="translate(1230)" fill="none" stroke="#000" stroke-linecap="round" stroke-width="2" opacity="0.4"/>
    <path id="Path_114" data-name="Path 114" d="M0,0,625,625" transform="translate(1295)" fill="none" stroke="#000" stroke-linecap="round" stroke-width="2" opacity="0.3"/>
    <line id="Line_12" data-name="Line 12" x2="586" y2="586" transform="translate(1334)" fill="none" stroke="#000" stroke-linecap="round" stroke-width="2" opacity="0.2"/>
    <g id="Layer_2" data-name="Layer 2" transform="translate(1226.501 148.502)">
      <g id="Objects" transform="translate(0.499 0.498)">
        <path id="Path_86" data-name="Path 86" d="M133.73,254.863c-2.362,5.053-16.011,14.009-31.365,12.664a79.368,79.368,0,0,1-22.113-6.89c.722-7.644-4.823-24.672-6.365-29.2l.853-.755s-.525-3.9-1.28-9.843h7.021c16.4,14.075,43.964,5.742,49.968,3.707C131.761,230.814,135.7,250.63,133.73,254.863Z" transform="translate(165.916 502.077)" fill="#fff" stroke="#231f20" stroke-miterlimit="10" stroke-width="2" opacity="0.1"/>
        <path id="Path_87" data-name="Path 87" d="M133.73,254.863c-2.362,5.053-16.011,14.009-31.365,12.664a79.368,79.368,0,0,1-22.113-6.89c.722-7.644-4.823-24.672-6.365-29.2l.853-.755s-.525-3.9-1.28-9.843h7.021c16.4,14.075,43.964,5.742,49.968,3.707C131.761,230.814,135.7,250.63,133.73,254.863Z" transform="translate(165.916 502.077)" fill="#fff" stroke="#231f20" stroke-miterlimit="10" stroke-width="2"/>
        <path id="Path_88" data-name="Path 88" d="M136.921,291.73s13.813,28.675,10.368,45.309-14.37,95.146-12.664,111.78c1.181,11.319,3.281,22.343,4.3,28.248.525,2.789.886,4.429.886,4.429l-1.148.394c-6,2.034-33.728,10.368-49.968-3.707h0l-1.378-8.137-8.563-51.018c3.871-20.538,13.124-72.18-8.891-94.26,0,0,19.39-84.548,23.622-96.327s29.331-53.413,21.982-96.589A92.98,92.98,0,0,0,150.537,108a206.072,206.072,0,0,1,7.021,49.607C158.706,194.878,136.921,291.73,136.921,291.73Z" transform="translate(157.704 244.701)" fill="#231f20" stroke="#231f20" stroke-miterlimit="10" stroke-width="2"/>
        <path id="Path_89" data-name="Path 89" d="M155.825,253.528a8.7,8.7,0,0,1-.2,1.378c-1.87,7.776-10.958,16.7-23.688,17.29s-20.932-7.776-27.527-7.612-55.02,11.91-64.076-26.608c0,0-.755-8.465,9.843-10.236,8.235-1.345,33.6-.623,47.606-3.018l.492,2.067a60.36,60.36,0,0,0,10.138,3.773c10.663,3.281,27.789,5.413,41.044-6.562C151,228.757,156.547,245.785,155.825,253.528Z" transform="translate(90.342 509.284)" fill="#fff" stroke="#231f20" stroke-miterlimit="10" stroke-width="2"/>
        <path id="Path_90" data-name="Path 90" d="M143.808,218.066c-4.232,11.778-23.622,96.327-23.622,96.327,21.982,21.949,12.763,73.722,8.891,94.26-.623,3.281-1.115,5.807-1.312,7.251-.853,6.267,1.378,27.625,3.281,43.472.361,3.281.722,6.07,1.05,8.6.755,5.873,1.28,9.843,1.28,9.843l-.853.755c-13.124,11.877-30.381,9.646-41.044,6.562a60.365,60.365,0,0,1-10.007-4.068L80.979,479c-1.444-5.774-2.756-11.483-4-17.126A841.274,841.274,0,0,1,57.882,312.95c-14.534-137.8-10.072-185.666-7.218-200.43,6.332,9.121,26.8,19.915,62.14,19a177.98,177.98,0,0,0,17.881-1.345,139.273,139.273,0,0,0,35.171-8.694C173.336,164.653,148.139,206.255,143.808,218.066Z" transform="translate(107.182 255.011)" fill="#231f20" stroke="#231f20" stroke-miterlimit="10" stroke-width="2"/>
        <path id="Path_91" data-name="Path 91" d="M84.714,56.542a65.848,65.848,0,0,0-15.748,21.49,18.274,18.274,0,0,0-6.332,4.889L46,65.663h0A68.407,68.407,0,0,1,56.893,48.57a23.327,23.327,0,0,1,5.184-4.2h0Z" transform="translate(103.282 99.569)" fill="#231f20" stroke="#231f20" stroke-miterlimit="10" stroke-width="2"/>
        <path id="Path_92" data-name="Path 92" d="M117.957,15.216a4,4,0,0,0-5.709-2.067L2.5,75.879A3.97,3.97,0,0,0,.8,80.834l27.264,66.208a55.773,55.773,0,0,1,4.331-5.643L7.424,80.571a2.165,2.165,0,0,1,.919-2.658L110.575,18.858a2.133,2.133,0,0,1,3.051,1.116l23.491,64.01h5.84Z" transform="translate(-0.499 27.179)" fill="#231f20" stroke="#231f20" stroke-miterlimit="10" stroke-width="2"/>
        <path id="Path_93" data-name="Path 93" d="M96.388,38.8s-.623,1.772-1.345,4.364a69.161,69.161,0,0,0-2.2,10.827L74.5,65.57,22.864,97.69A44.716,44.716,0,0,0,22.47,92.8L71.913,61.9l21.1-13.124a2.067,2.067,0,0,0,.853-2.526l-1.214-3.281L90.614,37.42C92.419,37.847,94.387,38.339,96.388,38.8Z" transform="translate(49.613 83.716)" fill="#231f20" stroke="#231f20" stroke-miterlimit="10" stroke-width="2"/>
        <path id="Path_94" data-name="Path 94" d="M138.51,101.108l-21.1,13.124L67.873,145.2a21.588,21.588,0,0,0-.82-3.773c-2.789-8.235-8.366-10.433-10.564-16.4s-5.348-33.3-11.155-33.1-2.2,28.38-4.856,31.792c-1.542,1.969-7.841,7.874-12.8,13.55L2.714,76.436a2.165,2.165,0,0,1,.919-2.658L105.865,14.723a2.133,2.133,0,0,1,3.051,1.116l23.491,64.01c-5.184,0-9.843.558-9.843,2.067.23,2.231,5.085,5.315,13.419,7.776l2.034,5.545,1.214,3.281A2.067,2.067,0,0,1,138.51,101.108Z" transform="translate(4.211 31.314)" fill="#fff" stroke="#231f20" stroke-miterlimit="10" stroke-width="2"/>
        <path id="Path_95" data-name="Path 95" d="M79.6,67h0a23.328,23.328,0,0,0-5.184,4.2A68.407,68.407,0,0,0,63.494,88.328h0A51.9,51.9,0,0,1,38.33,72.481L56.933,60.9a69.159,69.159,0,0,1,2.2-10.827c.722-2.592,1.345-4.364,1.345-4.364-2.1-.459-4.068-.951-5.873-1.476-8.333-2.461-13.124-5.545-13.419-7.776-.2-1.509,4.626-2,9.843-2.067h5.84a43.623,43.623,0,0,1,4.856.361c5.249.623,12.566,9.843,12.566,9.843Z" transform="translate(85.788 76.805)" fill="#fff" stroke="#231f20" stroke-miterlimit="10" stroke-width="2"/>
        <path id="Path_96" data-name="Path 96" d="M229.068,107.2c-4.692,30.545-25.328,73.2-24.738,88.289s5.709,73.951.558,79.1c-.886.886-2.133,2.362-3.871,4.232a92.98,92.98,0,0,1-35.2,23.786,139.273,139.273,0,0,1-35.171,8.694,177.976,177.976,0,0,1-17.815,1.345c-35.335.919-55.775-9.843-62.14-19a12.271,12.271,0,0,1-1.739-3.281c-3.74-10.893,2-36.976,5.446-44.718,2.3-5.184,7.284-25.394,8.694-48.524h0a479.791,479.791,0,0,0,30.479-49.213A34.646,34.646,0,0,0,91.5,112.84a34.023,34.023,0,0,0-12.763-9.351,17.389,17.389,0,0,0-13.747.2A65.848,65.848,0,0,1,80.772,82.2,98.428,98.428,0,0,1,97.6,69.893h.23a37.4,37.4,0,0,1,9.843-1.444c3.773.3,55.775,5.151,72.18-22.015l-5.118-7.513c8.662-3.642,17.881-6.562,24.41-5.643C215.223,35.247,233.563,76.521,229.068,107.2Z" transform="translate(107.225 73.881)" fill="#fff" stroke="#231f20" stroke-miterlimit="10" stroke-width="2"/>
        <path id="Path_97" data-name="Path 97" d="M147.172,103.032a7.349,7.349,0,0,1-3.707,2.1,174.313,174.313,0,0,1-39.9,6.135c-4.265,0-8.038-5.184-11.122-11.877a92.564,92.564,0,0,1-3.609-8.858C87.3,86.267,86.016,82,85,78.524c6.857-5.774,10.761-17.782,2.592-20.768-6.562-2.4-9.482,2.362-10.63,5.774-3.445-4.068-6.3-8.5-2.428-13.977,6.562-9.252,4.823-15.781,4.823-15.781a59.549,59.549,0,0,1-13.681-7.644c-9.187-7.251-4.856-12.271-4.856-12.271C79.586-6.254,118.956.275,138.117,8.083a25.493,25.493,0,0,1,17.061,25.689C181.064,49.98,149.272,99.259,147.172,103.032Z" transform="translate(134.757 -0.498)" fill="#231f20" stroke="#231f20" stroke-miterlimit="10" stroke-width="2"/>
        <path id="Path_98" data-name="Path 98" d="M143.716,87.245l-.558,8.268c-4.757,4.528-18.57,13.124-56.923,15.715a55.085,55.085,0,0,0-1.8-10.86,76.807,76.807,0,0,0-4.889-11.122A20.211,20.211,0,0,1,69.4,91.707c-8.137-1.476-10.236-55.775-9.613-68.9A23.229,23.229,0,0,1,65.927,8.34a59.548,59.548,0,0,0,13.681,7.644s1.706,6.562-4.823,15.781c-3.871,5.479-1.017,9.843,2.428,13.977,1.148-3.281,4-8.169,10.63-5.774,8.169,2.986,4.265,14.994-2.592,20.768,1.017,3.478,2.3,7.743,3.839,12.008A92.562,92.562,0,0,0,92.7,81.6c3.084,6.562,6.857,11.877,11.122,11.877A174.315,174.315,0,0,0,143.716,87.245Z" transform="translate(134.505 17.388)" fill="#fff" stroke="#231f20" stroke-miterlimit="10" stroke-width="2"/>
        <path id="Path_99" data-name="Path 99" d="M147.9,44.254c-16.4,27.166-68.242,22.31-72.18,22.015a37.4,37.4,0,0,0-9.843,1.444h-.23s-2.592-6.562-3.773-9.58a4.167,4.167,0,0,1,1.739-4.56c6.562,0,12.467-.427,17.946-.82C119.918,50,133.73,41.563,138.487,37.036a9.842,9.842,0,0,0,2.329-2.986l1.969,2.854Z" transform="translate(139.176 76.03)" fill="#231f20" stroke="#231f20" stroke-miterlimit="10" stroke-width="2"/>
        <path id="Path_100" data-name="Path 100" d="M53.787,114.9h0c-1.247.361-21.424,6.562-23.393,16.4v.2c-3.281-4.265-11.483-14.731-14.731-16.733C11.53,112.275,9.1,99.086,8.38,93.738a8.333,8.333,0,0,1,1.706-4.692A55.773,55.773,0,0,1,14.417,83.4c4.954-5.676,11.253-11.581,12.8-13.55,2.658-3.281-.984-31.562,4.856-31.792S41.025,65,43.223,71.067,51,79.335,53.787,87.471a21.589,21.589,0,0,1,.82,3.773A44.723,44.723,0,0,1,55,96.133,124.835,124.835,0,0,1,53.787,114.9Z" transform="translate(17.475 85.175)" fill="#fff" stroke="#231f20" stroke-miterlimit="10" stroke-width="2"/>
        <path id="Path_101" data-name="Path 101" d="M168.1,99.911a479.789,479.789,0,0,1-30.479,49.213h0a216.835,216.835,0,0,1-27.789,33.662c-19.981,17.946-27.822,12.73-39.371,13.124S13.7,106.112,15.081,94.924h0v-.2c1.969-9.843,22.146-16.142,23.393-16.4h0c19.685,15.355,44.883,63.157,44.883,63.157s42.652-70.67,48.688-79.365a15.193,15.193,0,0,1,1.05-1.378,18.275,18.275,0,0,1,6.463-5.053,17.389,17.389,0,0,1,13.747-.2,34.023,34.023,0,0,1,12.763,9.35A34.646,34.646,0,0,1,168.1,99.911Z" transform="translate(32.69 121.916)" fill="#231f20" stroke="#231f20" stroke-miterlimit="10" stroke-width="2"/>
      </g>
    </g>
  </g>
</svg>
