<svg xmlns="http://www.w3.org/2000/svg" width="791.828" height="947.425" viewBox="0 0 791.828 947.425">
  <g id="Group_2" data-name="Group 2" transform="translate(-1129.586 -133.989)">
    <line id="Line_10" data-name="Line 10" y1="789" x2="789" transform="translate(1131 291)" fill="none" stroke="#000" stroke-linecap="round" stroke-width="2" opacity="0.503"/>
    <line id="Line_11" data-name="Line 11" y1="690" x2="690" transform="translate(1230 390)" fill="none" stroke="#000" stroke-linecap="round" stroke-width="2" opacity="0.4"/>
    <path id="Path_114" data-name="Path 114" d="M0,625,625,0" transform="translate(1295 455)" fill="none" stroke="#000" stroke-linecap="round" stroke-width="2" opacity="0.3"/>
    <line id="Line_12" data-name="Line 12" y1="586" x2="586" transform="translate(1334 494)" fill="none" stroke="#000" stroke-linecap="round" stroke-width="2" opacity="0.2"/>
    <g id="Layer_2" data-name="Layer 2" transform="translate(1246.092 134.498)">
      <g id="Objects" transform="translate(0.499 0.502)">
        <path id="Path_102" data-name="Path 102" d="M78.882,272.775c0,23.529-3.235,58.838,23.712,55.969,28.748-3.052,13.123-66.589,10.59-76.721a83.983,83.983,0,0,0-7.172-17.273c3.387,24.414.61,56.213-9.155,61.188C89.044,299.9,82.544,283.7,78.882,272.775Z" transform="translate(160.075 480.118)" fill="#231f20" stroke="#231f20" stroke-linecap="round" stroke-linejoin="round" stroke-miterlimit="10" stroke-width="2"/>
        <path id="Path_103" data-name="Path 103" d="M172.726,193.053c-5.554,38.483-41.931,117.187-37.323,130.8s22.125,34.821,23.407,51.483,5.829,78.217,11.414,88.318l.4.763c-2.441,9.155-9.155,21.606-23.59,24.963-12.451-49.53-46.57-152.893-46.967-162.475-.488-11.6-7.05-132.233-7.05-132.233s-4.059,90.851-7.568,129.181c0,0,11.078,22.705,11.6,43.915.427,17.944-5.31,63.629-.366,90.424a62.561,62.561,0,0,1-30.212-1.343c5.157-32.043-3.052-76.294-12.817-118.866-15.656-67.139-13.428-196.96,6.409-222.351,0,0,26.794,52.7,103.058,12.512h0S178.28,154.815,172.726,193.053Z" transform="translate(87.41 235.713)" fill="#231f20" stroke="#231f20" stroke-linecap="round" stroke-linejoin="round" stroke-miterlimit="10" stroke-width="2"/>
        <path id="Path_104" data-name="Path 104" d="M34.458,281.676c12.6,5.554,66.589-4.517,80.749-11.078,13.062-6.1,16.6-18.311,8.362-37.018a103.362,103.362,0,0,1-22.614,19.592c-19.44,12.878-31.952,6.714-37.689,1.953l-.549.305C24.357,276.152,34.458,281.676,34.458,281.676Z" transform="translate(66.711 477.718)" fill="#231f20" stroke="#231f20" stroke-linecap="round" stroke-linejoin="round" stroke-miterlimit="10" stroke-width="2"/>
        <path id="Path_105" data-name="Path 105" d="M43.09,267.754c5.737,4.761,18.311,10.925,37.689-1.953a103.362,103.362,0,0,0,22.614-19.623h0c-.7-1.556-1.465-3.052-2.319-4.852A47.27,47.27,0,0,1,97.2,228.813a62.257,62.257,0,0,1-30.212-1.373C64.178,245.751,56.823,260.094,43.09,267.754Z" transform="translate(86.888 465.12)" fill="#fff" stroke="#231f20" stroke-linecap="round" stroke-linejoin="round" stroke-miterlimit="10" stroke-width="2"/>
        <path id="Path_106" data-name="Path 106" d="M77.31,254.9a132.967,132.967,0,0,1,4.517,23.224c0,1.465,0,3.052,0,4.578,3.51,10.925,10.162,27.13,17.944,23.163,9.8-4.974,12.573-36.621,9.155-61.188-2.625-5.1-5.554-10.193-8.057-14.771C98.489,238.913,91.623,251.547,77.31,254.9Z" transform="translate(157.099 470.188)" fill="#fff" stroke="#231f20" stroke-linecap="round" stroke-linejoin="round" stroke-miterlimit="10" stroke-width="2"/>
        <path id="Path_107" data-name="Path 107" d="M257.956,232.424a55.847,55.847,0,0,1-32.806,11.719,80.777,80.777,0,0,0-3.662-11.871,366.7,366.7,0,0,1-13.336-39.795c-18.311,34.454-4.089,78.766-4.089,78.766h0C127.769,311.434,101,258.73,101,258.73s15.625-43.732,5.89-59.357a93.536,93.536,0,0,1-13.977-52.216,104.4,104.4,0,0,1,2.869-19.9l-1.038-.183C64.231,108.767,38.322,82.8,23.49,66.927A91.553,91.553,0,0,0,45.249,45.87c9.4,9.735,31.128,28.2,56.091,33.447a87.434,87.434,0,0,1,14.1,4.059,4.7,4.7,0,0,1,1.4-.244c4.578,0,13.824.427,23.987,1.251.458.793.977,1.587,1.5,2.38A40.893,40.893,0,0,0,154.532,87.8c2.686,9.7,5.371,19.775,5.371,19.775a38.666,38.666,0,0,0,4.73.61,32.257,32.257,0,0,0,24.9-10.284v-.214c7.629,5.035,17.7,11.841,24.994,17.4,2.533,1.923,4.73,3.693,6.409,5.188a23.59,23.59,0,0,1,7.05,12.573,38.635,38.635,0,0,1,6.836,13.123C239.8,162.05,251.731,205.538,257.956,232.424Z" transform="translate(46.674 92.583)" fill="#fff" stroke="#231f20" stroke-linecap="round" stroke-linejoin="round" stroke-miterlimit="10" stroke-width="2"/>
        <path id="Path_108" data-name="Path 108" d="M121.27,261.022c-15.9,13.336-28.076-11.6-31.464-21.912-3.052-9.43,10.1-77.82.244-120.27A55.847,55.847,0,0,0,122.857,107c.641,2.747,1.221,5.371,1.74,7.721,5.463,25.574-10.925,94.6-10.071,106.476S137.139,247.717,121.27,261.022Z" transform="translate(181.773 218.006)" fill="#fff" stroke="#231f20" stroke-linecap="round" stroke-linejoin="round" stroke-miterlimit="10" stroke-width="2"/>
        <path id="Path_109" data-name="Path 109" d="M92.208,138.985a91.552,91.552,0,0,1-21.759,21.057c-6.1-6.592-10.376-11.444-12.36-13.245-6.744-6.226-37.75-77.637-37.75-77.637S14.785,59.7,4.317,42.885,7.308,3.7,15.914.71,30.837,27.962,30.837,27.962,32.546,14.9,41.7,10.414s-3.723,41.443-3.052,47.394S82.717,128,87.935,134.346C88.82,135.414,90.255,137.032,92.208,138.985Z" transform="translate(-0.499 -0.502)" fill="#fff" stroke="#231f20" stroke-linecap="round" stroke-linejoin="round" stroke-miterlimit="10" stroke-width="2"/>
        <path id="Path_110" data-name="Path 110" d="M60.706,33.786a3.1,3.1,0,0,0-.336-.916h0a9.152,9.152,0,0,1,.336.916Z" transform="translate(122.342 65.91)" fill="#fff" stroke="#231f20" stroke-linecap="round" stroke-linejoin="round" stroke-miterlimit="10" stroke-width="2"/>
        <path id="Path_111" data-name="Path 111" d="M60.706,33.786a3.1,3.1,0,0,0-.336-.916h0a9.152,9.152,0,0,1,.336.916Z" transform="translate(122.342 65.91)" fill="#fff" stroke="#231f20" stroke-linecap="round" stroke-linejoin="round" stroke-miterlimit="10" stroke-width="2"/>
        <path id="Path_112" data-name="Path 112" d="M139.967,160.387c-7.294-5.554-17.365-12.207-24.994-17.4l-.458-31.311-.183-12.665c5.035-2.625,10.895-8.606,10.437-14.13a7.66,7.66,0,0,0-2.716-5.157,6.592,6.592,0,0,0-7.355-1.587c-4.7,1.923-8.484,8.728-10.04,11.993h0a31.553,31.553,0,0,1-4.578-.336,37.752,37.752,0,0,1-6.348-1.282C75.728,83.025,66.023,65.722,62.056,53a.58.58,0,0,0,0-.275.427.427,0,0,0,0-.183,9.157,9.157,0,0,0-.275-.977h0c-1.587-4.547-5.646-19.1,6.1-23.529,13-4.913,33.569-6.989,46.967,1.77h0c9.674-3.052,24.048-5.829,30.365,8.82C151.96,54.674,149.946,91.784,139.967,160.387Z" transform="translate(121.175 47.279)" fill="#231f20" stroke="#231f20" stroke-linecap="round" stroke-linejoin="round" stroke-miterlimit="10" stroke-width="2"/>
        <path id="Path_113" data-name="Path 113" d="M117.872,80.386l.183,12.665.458,31.311v.214a32.257,32.257,0,0,1-24.9,10.284,38.67,38.67,0,0,1-4.73-.61s-2.686-10.071-5.371-19.775A40.893,40.893,0,0,1,71.3,113.436c-.519-.793-1.038-1.587-1.5-2.38C51.191,80.538,58.79,48.281,65.107,32.87c.153.366.244.671.336.916a.427.427,0,0,1,0,.183.58.58,0,0,1,0,.275c4.12,12.726,13.763,30.029,31.83,35.645a37.75,37.75,0,0,0,6.348,1.4,31.555,31.555,0,0,0,4.547.336h0c1.556-3.265,5.341-10.071,10.04-11.993a6.592,6.592,0,0,1,7.355,1.587,7.66,7.66,0,0,1,2.716,5.157C128.767,71.78,122.907,77.761,117.872,80.386Z" transform="translate(117.636 65.91)" fill="#fff" stroke="#231f20" stroke-linecap="round" stroke-linejoin="round" stroke-miterlimit="10" stroke-width="2"/>
      </g>
    </g>
  </g>
</svg>
