<svg xmlns="http://www.w3.org/2000/svg" width="1869.68" height="938.658" viewBox="0 0 1869.68 938.658">
  <g id="Group_33" data-name="Group 33" transform="translate(-31.513 -61.25)">
    <path id="Path_137" data-name="Path 137" d="M96.18,233.8h11.559v28.871a5.78,5.78,0,0,1-11.559,0Z" transform="translate(-35.565 76.703)" fill="#fff" stroke="#5b5b5f" stroke-miterlimit="10" stroke-width="0.5"/>
    <path id="Path_138" data-name="Path 138" d="M151.141,233.8v28.871a5.77,5.77,0,1,1-11.541,0V233.8Z" transform="translate(1.838 76.703)" fill="#fff" stroke="#5b5b5f" stroke-miterlimit="10" stroke-width="0.5"/>
    <path id="Path_139" data-name="Path 139" d="M230.767,234.758V246.3a5.775,5.775,0,0,1-5.77,5.77v63.512a5.787,5.787,0,0,1-5.77,5.77h-5.77a5.787,5.787,0,0,1-5.77-5.77V252.069H103.762v63.512a5.787,5.787,0,0,1-5.77,5.77h-5.77a5.787,5.787,0,0,1-5.77-5.77V252.069a5.775,5.775,0,0,1-5.77-5.77V234.758a5.626,5.626,0,0,1,2.327-4.635l25.278-23.1a5.786,5.786,0,0,1,3.444-1.135h87.915a5.7,5.7,0,0,1,3.444,1.135l24.7,22.616S230.767,231.686,230.767,234.758Z" transform="translate(-48.917 64.613)" fill="#fff" stroke="#5b5b5f" stroke-miterlimit="10" stroke-width="0.5"/>
    <path id="Path_140" data-name="Path 140" d="M151.141,233.8v28.871a5.77,5.77,0,1,1-11.541,0V233.8Z" transform="translate(1.838 76.703)" fill="#fff" stroke="#5b5b5f" stroke-miterlimit="10" stroke-width="0.5"/>
    <path id="Path_141" data-name="Path 141" d="M107.739,233.8v28.871a5.78,5.78,0,0,1-11.559,0V233.8Z" transform="translate(-35.565 76.703)" fill="#fff" stroke="#5b5b5f" stroke-miterlimit="10" stroke-width="0.5"/>
    <path id="Path_142" data-name="Path 142" d="M754.064,202.878h-11.5a2.894,2.894,0,0,0-1.9.713l-39.693,34.8a42.343,42.343,0,0,0-7.293-1.007,28.758,28.758,0,1,0,28.755,28.759,27.353,27.353,0,0,0-1.915-10.493l9.787-3.325a2.875,2.875,0,0,0,1.951-2.788l-.238-10.917L743,237.858a2.881,2.881,0,0,0,2.677-2.779l.406-13.108,8.6-1.91a2.87,2.87,0,0,0,2.258-2.805v-11.5A2.879,2.879,0,0,0,754.064,202.878Z" transform="translate(529.256 78.622)" fill="#fff" stroke="#5b5b5f" stroke-miterlimit="10" stroke-width="0.5"/>
    <g id="Group_7" data-name="Group 7" transform="translate(403.162 84.306)">
      <path id="Path_143" data-name="Path 143" d="M218.649,256.866v12.726l30.024-4.8,9.544-.219,42.034,3.366V237.154a30.311,30.311,0,0,0-30.315-30.307h-31.62A30.312,30.312,0,0,0,208,237.16v7.108A12.742,12.742,0,0,1,218.649,256.866Zm45.788-31.6a2.45,2.45,0,1,1-2.447,2.445A2.448,2.448,0,0,1,264.436,225.269Zm0,22.174a2.45,2.45,0,1,1-2.447,2.453A2.453,2.453,0,0,1,264.436,247.443Zm-22.179-22.174a2.45,2.45,0,1,1-2.447,2.445A2.448,2.448,0,0,1,242.257,225.269Zm0,22.174a2.45,2.45,0,1,1-2.447,2.453A2.453,2.453,0,0,1,242.257,247.443Z" transform="translate(-194.967 -206.847)" fill="#fff" stroke="#5b5b5f" stroke-miterlimit="10" stroke-width="0.5"/>
      <path id="Path_144" data-name="Path 144" d="M214.472,252.111c.359.69.76,1.6,1.083,1.6.154,0,.31-.12.432-.346L220.3,245H210.78Z" transform="translate(-190.514 -145.664)" fill="#fff" stroke="#5b5b5f" stroke-miterlimit="10" stroke-width="0.5"/>
      <path id="Path_145" data-name="Path 145" d="M295.859,263.825l26.993,5.637v-12.6c0-6.941,6.175-12.8,13.491-12.8.237,0,.463.062.7.07v-6.972a30.309,30.309,0,0,0-30.313-30.307H275.107A30.311,30.311,0,0,0,244.8,237.16v30.682l41.659-4.1Zm4.939-38.555a2.45,2.45,0,1,1-2.453,2.445A2.449,2.449,0,0,1,300.8,225.269Zm0,22.174a2.45,2.45,0,1,1-2.453,2.453A2.455,2.455,0,0,1,300.8,247.443Zm-22.179,4.9a2.45,2.45,0,1,1,2.447-2.447A2.45,2.45,0,0,1,278.619,252.343Zm0-22.174a2.45,2.45,0,1,1,2.447-2.455A2.455,2.455,0,0,1,278.619,230.169Z" transform="translate(-135.968 -206.847)" fill="#fff" stroke="#5b5b5f" stroke-miterlimit="10" stroke-width="0.5"/>
      <path id="Path_146" data-name="Path 146" d="M277.878,252.1c.354.7.752,1.6,1.081,1.6.154,0,.31-.117.432-.351l4.3-8.349h-9.511Z" transform="translate(-88.846 -145.664)" fill="#fff" stroke="#5b5b5f" stroke-miterlimit="10" stroke-width="0.5"/>
      <path id="Path_147" data-name="Path 147" d="M403.372,222.5c-5.3,0-9.945,4.327-9.945,9.261v16.97L362.5,242.237l-8.862-.055-43.885,4.309-43.614-3.468-9.125.2-33.89,5.426V231.766a9.079,9.079,0,0,0-9.094-9.258c-5,0-11.039,4.129-11.039,9.258,0,5.436,2.6,8.4,7.938,9.081l1.552.2v15.923a10.834,10.834,0,0,1,3.788-.713H401.581a13,13,0,0,1,2.489.253V241.045l1.552-.2c5.184-.659,7.3-3.291,7.3-9.081A9.544,9.544,0,0,0,403.372,222.5Z" transform="translate(-202.996 -181.747)" fill="#fff" stroke="#5b5b5f" stroke-miterlimit="10" stroke-width="0.5"/>
      <path id="Path_148" data-name="Path 148" d="M397.922,236.827H212.615a7.348,7.348,0,0,0-7.337,7.339v3.062a7.35,7.35,0,0,0,7.337,7.339H397.922c5.254,0,6.037-4.085,6.037-6.517v-5.285C403.959,238.767,401.983,236.827,397.922,236.827Z" transform="translate(-199.337 -158.774)" fill="#fff" stroke="#5b5b5f" stroke-miterlimit="10" stroke-width="0.5"/>
    </g>
    <path id="Path_149" data-name="Path 149" d="M797.41,220.995a48.75,48.75,0,1,0,48.746,48.75A48.753,48.753,0,0,0,797.41,220.995Zm3.748,89.81v-3.559a3.751,3.751,0,1,0-7.5,0V310.8A41.291,41.291,0,0,1,756.35,273.5h3.557a3.75,3.75,0,1,0,0-7.5H756.35a41.284,41.284,0,0,1,37.305-37.309v3.561a3.751,3.751,0,0,0,7.5,0v-3.561a41.292,41.292,0,0,1,37.31,37.309h-3.559a3.75,3.75,0,0,0,0,7.5h3.559A41.3,41.3,0,0,1,801.158,310.8Zm-15-101.059v-7.5a3.749,3.749,0,0,1,3.753-3.75h15a3.748,3.748,0,0,1,3.748,3.75v7.5a3.746,3.746,0,0,1-3.748,3.748v4.35a47.172,47.172,0,0,0-15,0v-4.35A3.747,3.747,0,0,1,786.157,209.746Zm43.6,18.735a52.572,52.572,0,0,0-12.777-7.414,5.1,5.1,0,0,1,.181-.54l3.75-6.49a3.747,3.747,0,0,1,5.128-1.377l6.488,3.752a3.756,3.756,0,0,1,1.377,5.125l-3.75,6.49A3.74,3.74,0,0,1,829.757,228.481ZM829.885,251a3.744,3.744,0,0,1-1.373,5.126L799.284,272.99a3.737,3.737,0,0,1-3.752,0l-29.219-16.869a3.752,3.752,0,1,1,3.746-6.5l27.351,15.8,27.355-15.8A3.757,3.757,0,0,1,829.885,251Z" transform="translate(263.899 -120.995)" fill="#fff" stroke="#5b5b5f" stroke-miterlimit="10" stroke-width="0.5"/>
    <g id="Group_8" data-name="Group 8" transform="translate(606.26 271)">
      <path id="Path_150" data-name="Path 150" d="M502.395,255.044H355.474V213.275a9.143,9.143,0,0,0-18.285,0v94.807a9.143,9.143,0,1,0,18.285,0V303.5H493.253v4.579a9.144,9.144,0,1,0,18.288,0V264.188A9.144,9.144,0,0,0,502.395,255.044Zm-9.141,37.286c-3.555-1.832-6.461-1.557-10.212.834a20.535,20.535,0,0,1-21.71,0c-4.251-2.714-7.421-2.714-11.672,0a20.535,20.535,0,0,1-21.71,0c-4.251-2.714-7.416-2.714-11.669,0a20.535,20.535,0,0,1-21.71,0c-4.251-2.714-7.418-2.714-11.669,0a20.535,20.535,0,0,1-21.71,0,10.852,10.852,0,0,0-5.722-1.993V287.5a14.358,14.358,0,0,1,7.683,2.574,16.822,16.822,0,0,0,17.781,0c5.469-3.485,10.132-3.485,15.6,0a16.826,16.826,0,0,0,17.784,0c5.466-3.485,10.13-3.485,15.593,0a16.827,16.827,0,0,0,17.784,0c5.466-3.485,10.132-3.485,15.593,0a16.818,16.818,0,0,0,17.779,0c4.29-2.731,8.1-3.27,12.181-1.7v3.955Z" transform="translate(-337.189 -204.134)" fill="#fff" stroke="#5b5b5f" stroke-miterlimit="10" stroke-width="0.5"/>
      <path id="Path_151" data-name="Path 151" d="M345.9,218.259v20.609h20.013a14.565,14.565,0,0,0,0-20.609A13.861,13.861,0,0,0,345.9,218.259Z" transform="translate(-324.909 -190.237)" fill="#fff" stroke="#5b5b5f" stroke-miterlimit="10" stroke-width="0.5"/>
    </g>
    <g id="Group_9" data-name="Group 9" transform="translate(936.11 259)">
      <path id="Path_152" data-name="Path 152" d="M475.754,258.842a8.779,8.779,0,1,0,16.768,0Z" transform="translate(-468.414 -131.262)" fill="#fff" stroke="#5b5b5f" stroke-miterlimit="10" stroke-width="0.5"/>
      <path id="Path_153" data-name="Path 153" d="M513.492,258.842a8.544,8.544,0,0,0-.4,2.478,8.781,8.781,0,0,0,17.563,0,8.585,8.585,0,0,0-.4-2.478Z" transform="translate(-435.91 -131.262)" fill="#fff" stroke="#5b5b5f" stroke-miterlimit="10" stroke-width="0.5"/>
      <path id="Path_154" data-name="Path 154" d="M471.628,190.3V315.381H574.193V190.3ZM569.189,296.94a5.945,5.945,0,0,1-5.936,5.934H482.564a5.941,5.941,0,0,1-5.934-5.934V258.776a5.938,5.938,0,0,1,5.934-5.932h80.689a5.942,5.942,0,0,1,5.936,5.932Zm0-57.537a5.942,5.942,0,0,1-5.936,5.934H482.564a5.938,5.938,0,0,1-5.934-5.934V201.241a5.938,5.938,0,0,1,5.934-5.934h80.689a5.942,5.942,0,0,1,5.936,5.934Z" transform="translate(-471.628 -190.303)" fill="#fff" stroke="#5b5b5f" stroke-miterlimit="10" stroke-width="0.5"/>
      <path id="Path_155" data-name="Path 155" d="M559.781,194.335H479.091a3.438,3.438,0,0,0-3.432,3.432V235.93a3.438,3.438,0,0,0,3.432,3.432h80.689a3.439,3.439,0,0,0,3.434-3.432V197.767A3.439,3.439,0,0,0,559.781,194.335ZM535.7,219.351v2.5H503.175v-5a1.251,1.251,0,1,1,2.5,0v2.5h27.517v-2.5a1.251,1.251,0,0,1,2.5,0Z" transform="translate(-468.156 -186.83)" fill="#fff" stroke="#5b5b5f" stroke-miterlimit="10" stroke-width="0.5"/>
      <path id="Path_156" data-name="Path 156" d="M559.781,225.245H479.091a3.438,3.438,0,0,0-3.432,3.431V266.84a3.437,3.437,0,0,0,3.432,3.432h80.689a3.437,3.437,0,0,0,3.434-3.432V228.676A3.438,3.438,0,0,0,559.781,225.245ZM535.7,250.261v2.5H503.175v-5a1.251,1.251,0,1,1,2.5,0v2.5h27.517v-2.5a1.251,1.251,0,0,1,2.5,0Z" transform="translate(-468.156 -160.203)" fill="#fff" stroke="#5b5b5f" stroke-miterlimit="10" stroke-width="0.5"/>
    </g>
    <g id="Group_12" data-name="Group 12" transform="translate(822.682 863)">
      <path id="Path_162" data-name="Path 162" d="M377.027,637.17a3.182,3.182,0,0,0,2.546-4.9c-2.317-3.611.378-7.65,3.23-11.926,2.446-3.671,4.979-7.464,4.177-11.219-.463-2.178-1.962-4.036-4.577-5.687a3.191,3.191,0,0,0-4.65,1.807,2.767,2.767,0,0,0,1.271,3.189,3.457,3.457,0,0,1,1.768,2.21c.393,2.059-1.67,4.879-3.326,7.148-.583.789-1.128,1.545-1.566,2.232-3.777,5.981-4.158,11.148-1.173,15.809A2.743,2.743,0,0,0,377.027,637.17Z" transform="translate(-318.377 -602.996)" fill="#fff" stroke="#5b5b5f" stroke-miterlimit="10" stroke-width="0.5"/>
      <path id="Path_163" data-name="Path 163" d="M386.146,637.17a3.185,3.185,0,0,0,2.55-4.9c-2.317-3.611.372-7.65,3.224-11.926,2.448-3.671,4.979-7.464,4.179-11.219-.465-2.178-1.964-4.036-4.579-5.687a3.193,3.193,0,0,0-4.65,1.807,2.773,2.773,0,0,0,1.268,3.189,3.443,3.443,0,0,1,1.77,2.21c.393,2.059-1.668,4.879-3.324,7.148-.581.793-1.134,1.549-1.567,2.236-3.775,5.977-4.158,11.148-1.176,15.805A2.762,2.762,0,0,0,386.146,637.17Z" transform="translate(-310.524 -602.996)" fill="#fff" stroke="#5b5b5f" stroke-miterlimit="10" stroke-width="0.5"/>
      <path id="Path_164" data-name="Path 164" d="M369.213,637.17a3.179,3.179,0,0,0,2.545-4.9c-2.316-3.611.38-7.65,3.231-11.926,2.448-3.671,4.979-7.464,4.177-11.219-.467-2.178-1.962-4.036-4.581-5.687a3.188,3.188,0,0,0-4.644,1.807,2.765,2.765,0,0,0,1.268,3.189,3.442,3.442,0,0,1,1.767,2.21c.393,2.059-1.666,4.879-3.328,7.148-.579.789-1.128,1.545-1.562,2.232-3.777,5.981-4.158,11.148-1.176,15.809A2.756,2.756,0,0,0,369.213,637.17Z" transform="translate(-325.11 -602.996)" fill="#fff" stroke="#5b5b5f" stroke-miterlimit="10" stroke-width="0.5"/>
      <path id="Path_165" data-name="Path 165" d="M452.494,635.833c-.009-.073-.022-.145-.034-.218-5.186,8.147-25.489,14.074-50.5,14.074s-45.316-5.927-50.5-14.074a4.366,4.366,0,0,0-.063.434c-5.564,1.221-8.012,3.784-7.855,8.16.128,3.71,4.858,6.912,11.022,8.734a45.314,45.314,0,0,0,20.247,22.585l-13.272,30.952a3.638,3.638,0,1,0,6.684,2.872L381.4,678.629a57.584,57.584,0,0,0,41.647-.212L436.3,709.352a3.639,3.639,0,1,0,6.688-2.872l-13.385-31.21a45.345,45.345,0,0,0,19.625-22c6.736-1.746,12.082-5.112,12.222-9.05C461.614,639.548,458.841,636.946,452.494,635.833Zm-102.868,9.061c-.1-1.994.2-3.153,1.973-3.9a43.686,43.686,0,0,0,1.342,7.085C350.951,647.307,349.693,646.249,349.626,644.894Zm105.746,0c-.088,1.614-1.839,2.788-4.5,3.591a44.076,44.076,0,0,0,1.478-7.838C455.038,641.367,455.49,642.564,455.371,644.894Z" transform="translate(-343.537 -574.898)" fill="#fff" stroke="#5b5b5f" stroke-miterlimit="10" stroke-width="0.5"/>
      <path id="Path_166" data-name="Path 166" d="M397.785,656.459c29.548,0,49.4-8.151,49.4-15.761s-19.848-15.757-49.4-15.757-49.4,8.144-49.4,15.757S368.236,656.459,397.785,656.459Zm.659-27.274c21.259,0,42.785,3.743,42.785,10.91S419.7,651,398.444,651s-42.783-3.751-42.783-10.91S377.182,629.185,398.444,629.185Z" transform="translate(-339.36 -584.092)" fill="#fff" stroke="#5b5b5f" stroke-miterlimit="10" stroke-width="0.5"/>
      <path id="Path_167" data-name="Path 167" d="M385.145,628.884q-3.733-.251-7.87-.339l-.208,16.887c2.766-.05,5.392-.164,7.885-.324Z" transform="translate(-314.655 -580.988)" fill="#fff" stroke="#5b5b5f" stroke-miterlimit="10" stroke-width="0.5"/>
      <path id="Path_168" data-name="Path 168" d="M363.355,640.851l.171-10.638c-6.39,1.636-9.931,3.643-9.931,5.34C353.6,637.229,357.077,639.219,363.355,640.851Z" transform="translate(-334.872 -579.551)" fill="#fff" stroke="#5b5b5f" stroke-miterlimit="10" stroke-width="0.5"/>
      <path id="Path_169" data-name="Path 169" d="M393.2,630.207c-2.714-.5-5.743-.931-9.1-1.27l-.19,15.441c3.343-.33,6.37-.756,9.078-1.251Z" transform="translate(-308.76 -580.65)" fill="#fff" stroke="#5b5b5f" stroke-miterlimit="10" stroke-width="0.5"/>
      <path id="Path_170" data-name="Path 170" d="M371.336,628.92c-3.6.348-6.833.806-9.7,1.342l-.2,12.768c2.863.546,6.1,1.011,9.707,1.363Z" transform="translate(-328.116 -580.665)" fill="#fff" stroke="#5b5b5f" stroke-miterlimit="10" stroke-width="0.5"/>
      <path id="Path_171" data-name="Path 171" d="M401.749,635.585c0-1.72-3.626-3.756-10.176-5.409l-.171,10.859C398.063,639.377,401.749,637.313,401.749,635.585Z" transform="translate(-302.306 -579.583)" fill="#fff" stroke="#5b5b5f" stroke-miterlimit="10" stroke-width="0.5"/>
      <path id="Path_172" data-name="Path 172" d="M379.149,628.531c-3.429.022-6.656.141-9.692.335l-.2,16.254q4.546.3,9.692.35Z" transform="translate(-321.384 -581)" fill="#fff" stroke="#5b5b5f" stroke-miterlimit="10" stroke-width="0.5"/>
    </g>
    <g id="Group_13" data-name="Group 13" transform="translate(1635.9 877)">
      <path id="Path_173" data-name="Path 173" d="M513.393,622.051l-7.207,1.487c-.009.069,0,.134-.011.2l-.97,8.689c1.927-1,3.941-.843,5.1.476,1.119,1.264,1.489,3.472,1.1,6.558-1.04,8.209-1.4,13.86-1.405,13.918-.212,6.428-1.217,9.307-3.257,9.307a2.568,2.568,0,0,1-1.638-.709l-.694,4.929,8.322-1.152,8-34.807Z" transform="translate(-442.566 -607.922)" fill="#fff" stroke="#5b5b5f" stroke-miterlimit="10" stroke-width="0.5"/>
      <rect id="Rectangle_44" data-name="Rectangle 44" width="37.592" height="7.518" transform="translate(16.681 61.023)" fill="#fff" stroke="#5b5b5f" stroke-miterlimit="10" stroke-width="0.5"/>
      <path id="Path_174" data-name="Path 174" d="M522.424,652.293H482.439a1.235,1.235,0,0,0-1.255,1.042l-4.75,31.307a1.743,1.743,0,0,0,.313,1.331c.039.046.138.153.225.153l.4.087,11.837,5.551h26.987l11.479-5.638h.216a.384.384,0,0,0,.307-.168,1.349,1.349,0,0,0,.233-1.048l-4.758-31.828C523.588,652.565,523.163,652.293,522.424,652.293Z" transform="translate(-466.68 -581.871)" fill="#fff" stroke="#5b5b5f" stroke-miterlimit="10" stroke-width="0.5"/>
      <path id="Path_175" data-name="Path 175" d="M506.33,625.193c-5.275,0-21.513-.248-24.1-3.193h-.758a.382.382,0,0,0-.307.168l-.009.019-2.124.607-7.852,2.239s3.82,7.634,9.458,12.633a22.634,22.634,0,0,0,2.072,1.644l2.986,27.048c.08.48.506.752,1.243.752h39.989a1.236,1.236,0,0,0,1.255-1.046l4.747-42.545a2.051,2.051,0,0,0-.052-.813C526.979,625.159,507.308,625.193,506.33,625.193Z" transform="translate(-471.183 -607.966)" fill="#fff" stroke="#5b5b5f" stroke-miterlimit="10" stroke-width="0.5"/>
      <path id="Path_176" data-name="Path 176" d="M526.368,623.242c-1.925-1.16-9.369-3.159-18.713-3.76l-3.038,2.807h-5.525l-3.3-2.734c-9,.7-16.034,2.647-17.715,3.753,1.863.977,9.946,2.174,22.318,2.174C512.53,625.481,523.73,624.318,526.368,623.242Z" transform="translate(-465.246 -610.136)" fill="#fff" stroke="#5b5b5f" stroke-miterlimit="10" stroke-width="0.5"/>
      <path id="Path_177" data-name="Path 177" d="M495.14,624.735l2.481-2.291V616.21l-4.448-1.749-4.95,1.77v6.184l2.8,2.32Z" transform="translate(-456.505 -614.461)" fill="#fff" stroke="#5b5b5f" stroke-miterlimit="10" stroke-width="0.5"/>
    </g>
    <path id="Path_178" data-name="Path 178" d="M668.975,663.807l-3.218-7.645s7.487-16.883,6.82-17.534l-9.9-9.674c-.692-.668-17.581,7.038-17.581,7.038l-7.8-3.148s-6.882-17.114-7.827-17.114H615.482c-.966,0-7.342,17.153-7.342,17.153l-7.777,3.157s-17.244-7.33-17.911-6.675l-9.892,9.689c-.687.661,7.191,17.211,7.191,17.211l-3.218,7.634s-17.484,6.735-17.484,7.643v13.7c0,.957,17.527,7.2,17.527,7.2l3.213,7.621s-7.481,16.874-6.826,17.527l9.907,9.692c.666.659,17.568-7.049,17.568-7.049l7.8,3.159s6.884,17.1,7.835,17.1h13.983c.97,0,7.345-17.157,7.345-17.157l7.8-3.155s17.213,7.332,17.875,6.688l9.9-9.689c.692-.676-7.2-17.214-7.2-17.214l3.207-7.63s17.494-6.744,17.494-7.664v-13.7C686.493,670.032,668.975,663.807,668.975,663.807Zm-25.775,14.3a20.435,20.435,0,1,1-20.431-19.977A20.244,20.244,0,0,1,643.2,678.106Z" transform="translate(793.647 253.77)" fill="#fff" stroke="#5b5b5f" stroke-miterlimit="10" stroke-width="0.5"/>
    <g id="Group_14" data-name="Group 14" transform="translate(663.726 683)">
      <g id="b195_teapot" data-name="b195 teapot">
        <path id="Path_179" data-name="Path 179" d="M226.066,650.983h74.58a.625.625,0,0,1-.093-.076h1.318A42.059,42.059,0,0,0,272.5,626.628a9.35,9.35,0,0,0-18.285,0,42.044,42.044,0,0,0-29.381,24.279h1.322C226.127,650.938,226.093,650.956,226.066,650.983Z" transform="translate(-181.659 -619.236)" fill="#fff" stroke="#5b5b5f" stroke-miterlimit="10" stroke-width="0.5"/>
        <path id="Path_180" data-name="Path 180" d="M354.861,645.635c-2-4.959-5.26-8.166-9.726-9.532-7.142-2.193-15.671.988-21.053,3.678-.5-.424-.994-.843-1.508-1.255H244.1c-9.931,7.811-16.066,18.538-16.066,30.4a34.692,34.692,0,0,0,3.326,14.765,16.407,16.407,0,0,1-2.949-2.254c-3.8-3.693-5.763-9.33-5.841-16.76a15.405,15.405,0,0,0-3.144-11.721c-3.524-4.322-9.363-6.526-17.361-6.526-.141,0-.279,0-.426.007l.093,10.057c4.816-.087,8.3.923,9.845,2.755a5.274,5.274,0,0,1,1.044,3.955l-.112.538v.549c.017,10.439,3.008,18.633,8.9,24.355,7.609,7.4,17.447,7.865,19.422,7.883,10.145,9.506,25.407,15.534,42.5,15.534,19.753,0,37.07-8.067,46.858-20.232C351.471,675.811,362.373,664.354,354.861,645.635Zm-18.676,36.013a34.444,34.444,0,0,0,2.452-12.717c0-9.761-4.162-18.767-11.18-25.98,4.708-2.183,11.232-4.326,16.42-2.723,3.2.987,5.486,3.287,6.982,7.006C356.169,660.5,351.467,669.041,336.185,681.648Z" transform="translate(-201.641 -605.337)" fill="#fff" stroke="#5b5b5f" stroke-miterlimit="10" stroke-width="0.5"/>
      </g>
    </g>
    <path id="Zynga" d="M644.712,519.626s7.947-.752,14.169,3.337a5.381,5.381,0,0,1,5.257,3.017c1.182,2.152,3.328,7.323,1.61,10.444-.536.648-1.718-1.941-1.718-1.941s-.858,3.127-2.468,4.309a24.445,24.445,0,0,1-3.112,12.488,3.346,3.346,0,0,0,.216,2.479c.322.866,4.614,16.04,4.4,21.1s-2.788,11.085-4.827,13.134c.426,4.2-1.508,7.751-2.47,9.478a57.2,57.2,0,0,0-3.65,11.195c-.534,3.017-.752,6.245-.108,7.213s3.542,3.987,3.325,5.493-3.325,3.231-4.827,3.231-4.616-.973-5.368-3.017a15.412,15.412,0,0,1-.32-7.641c.536-2.051,4.186-17.012,2.04-25.846-5.258,2.366-14.057,2.265-14.057,2.265a85.81,85.81,0,0,1-3.328,12.378c-.646,1.076-.538,8.4-.538,13.026a70.153,70.153,0,0,0,1.61,11.844s2.256,1.619,1.932,3.661-2.9,3.233-5.149,3.233-5.257-1.72-5.257-4.527.426-9.147.212-13.778-.106-7.643-.858-10.551-2.9-10.551-3.112-16.478a3.037,3.037,0,0,1-1.5-.538s-3.542,4.09-6.009,6.465c.32,1.61,1.18,4.518,1.18,5.165s.644,1.186,1.714,1.614,4.4,2.262,4.3,4.089-4.3,2.157-7.943.543c-.858-.43-3.97-10.874-4.4-12.274s-.752-2.155-.214-3.341,2.04-5.057,1.822-7.323-4.4-5.809-7.191-5.809c-2.144,0-5.424,3.287-7.833,5.167-2.9,2.26-6.221,5.7-7.083,6.241s-7.619,12.816-8.9,16.368c-.536,1.4-1.608,8.4-7.295,8.185-2.576-.216-4.94-3.016,2.36-8.075,1.852-4.28,4.427-8.727,4.587-9.612a208.235,208.235,0,0,1,5.313-22.451c3.222-10.5,7.969-15.5,8.853-16.234.724-.558,1.128-.886.4-1.29s-8.369-6.945-6.919-20.835c.24-1.616.964-1.212,1.446,2.5s3.459,12.434,10.063,15.184c.64.242,5.392-3.39,29.617-5.171.162-4.28.8-8.8.8-8.8a5.769,5.769,0,0,1-1.93-3.879c-.806,1.294-1.288,1.618-2.334,1.454s-.966-5.165-.722-8.723,4.346-5.085,5.875-5.246a8.674,8.674,0,0,1,4.186-.891S634.249,517.906,644.712,519.626Z" transform="translate(1234.452 159.323)" fill="#fff" stroke="#5b5b5f" stroke-miterlimit="10" stroke-width="0.5"/>
    <path id="Path_183" data-name="Path 183" d="M515.451,611.877a44.757,44.757,0,0,0,27.7-12.851c11.165-10.932,15.807-24.3,14.1-39.777a44.361,44.361,0,0,0-8.475-21.555A46.229,46.229,0,0,0,518.416,518.8c-2.522-.436-5.1-.555-7.656-.817h-.506c-2.383.262-4.776.432-7.152.8-24.327,3.729-41.914,26.764-39.135,51.271a47.056,47.056,0,0,0,51.483,41.821Zm-40.276-27.892c-8.175-15.688-4.194-33.452,4.114-43.22.221,1.757.443,3.334.622,4.923a40.138,40.138,0,0,1-.761,12.855,6.229,6.229,0,0,0,.125,2.826,1.9,1.9,0,0,0,1.372,1.111c.4.037,1.1-.592,1.262-1.068a12.12,12.12,0,0,0,.393-2.716c.061-.648.061-1.3.112-2.312.659.534,1.141.862,1.539,1.264,1.018,1.026,2.049,2.048,2.978,3.149a3.051,3.051,0,0,1,.823,1.763,5.081,5.081,0,0,0,1.2,3.112,17.7,17.7,0,0,1,1.573,3.764c.2.534.246,1.134.486,1.646a2.956,2.956,0,0,0,2.628,1.941c1.405.091,1.932.637,2.137,2.076-.361.041-.718.091-1.08.125-1.714.16-2.567.949-2.5,2.682a12.3,12.3,0,0,0,3.926,8.827c.7.663,1.452,1.269,2.133,1.945a4.905,4.905,0,0,1,1.355,5.484,17.7,17.7,0,0,0-1.009,3.057,8.806,8.806,0,0,0,.082,3.269c.259,1.083.145,3.458,1.268,3.265,1.984-.348,3.125.043,3.28-2.182a1.8,1.8,0,0,0-.121-.866c-.588-2.083,2.085-8,3.7-9.078a40.029,40.029,0,0,0,3.991-2.945,5.287,5.287,0,0,0,1.841-5.914c-.707-2.2.123-3.829,1.666-5.251a6.608,6.608,0,0,0,2.5-5.344c-.112-2.228-1.565-3.835-3.468-3.606a13.981,13.981,0,0,0-2.723.862,28.933,28.933,0,0,1-3.989,1.32c-1.91.337-3.083-.91-3.937-2.425-.685-1.217-.912-1.309-2.1-.553-1,.64-2,1.29-3.045,1.869-1.078.607-1.668.382-2.5-.523a8.108,8.108,0,0,0-1.809-1.288c-.454-.279-1.072-.356-1.437-.706-.488-.475-1.171-1.176-1.1-1.69a2.516,2.516,0,0,1,1.389-1.6,20.328,20.328,0,0,1,3.362-.735,11.25,11.25,0,0,0,1.774-.49c.776-.309.741-.819.149-1.3a3.928,3.928,0,0,0-1.005-.538c-1.716-.69-3.438-1.348-5.151-2.042a7.493,7.493,0,0,1-1.229-.629c-1.076-.713-1.206-1.491-.229-2.353,3.855-3.4,8.365-4.395,12.354.123,1.234,1.4,2.076,3.146,3.243,4.615a18.252,18.252,0,0,0,3.142,3.142,2.358,2.358,0,0,0,2.1.134,1.652,1.652,0,0,0,.424-2.277,11.643,11.643,0,0,0-1.249-2.072c-2.265-2.919-2.111-8.613,2.331-10.994,1.484-.8,2.984-1.633,3.691-3.768-.849.233-1.463.378-2.072.564-3.373,1.042-1.022-1.472.527-1.91.942-.268-.843-.988-.843-.988.043-.076,1.186-.4,2.457-.942a10.524,10.524,0,0,0,2.5-1.381,5.555,5.555,0,0,0,.962-1.705c-.082-.095-.156-.182-.236-.272-.893.119-1.783.249-2.675.352-1.513.167-1.867-.13-2.008-1.659a1.409,1.409,0,0,0-2.156-1.076c-.672.369-1.247.9-1.9,1.314-1.491.962-2.6.581-3.189-1.085-.35-.992-.836-1.18-1.746-.624-.46.276-.847.687-1.312.944a15.616,15.616,0,0,1-2.36,1.15c-.8.279-1.768.486-2.31-.391a1.831,1.831,0,0,1,.663-2.453,21.287,21.287,0,0,1,3.006-1.884c1.467-.832,3.027-1.515,4.445-2.416a2.609,2.609,0,0,0,1.158-3.028,1.273,1.273,0,0,0-2-.949c-.825.411-1.547,1.053-2.392,1.381a4.012,4.012,0,0,1-2.059.123c-.246-.043-.506-.726-.512-1.122-.009-.225.454-.622.748-.672,2.053-.316,4.11-.586,6.174-.823a1.1,1.1,0,0,1,.851.361,9.964,9.964,0,0,0,5.26,3.144c1.679.5,1.921.263,2.152-1.5,2.157-.508,4.352-1.5,6.521-.138a20.115,20.115,0,0,1,3.321,2.723c.253.248.1,1.022-.02,1.513-.158.668-.531,1.282-.7,1.951a1.752,1.752,0,0,0,1.841,2.284c.423-.011.841-.1,1.264-.121,1.234-.058,1.673.415,1.556,1.662-.158,1.759.136,1.975,1.917,1.67a3.617,3.617,0,0,1,1.623.33,3.662,3.662,0,0,1,.828.618c1.653,1.255,2.919.786,3.4-1.268.052-.222.043-.462.089-.687.194-.921.713-1.161,1.335-.5,1.314,1.389,2.55,2.861,3.887,4.382A4.387,4.387,0,0,0,542.628,546a7.629,7.629,0,0,1-.795,4.795,34.671,34.671,0,0,0-1.824,4.471c-.655,2.312.089,3.367,2.437,3.879,2.239.491,2.6.938,2.688,3.127a7.07,7.07,0,0,0,4.266,6.366c.583.287,1.2.508,1.793.756a37.083,37.083,0,0,1-3.855,13.931,34.994,34.994,0,0,1-3.362-7.427c-.975-3.587-3.315-.123-3.509,2.219s-1.755,4.093-4.875.581-3.706-2.723-4.682-2.723-2.729,2.334-2.338,13.255c.277,7.8,3.351,9.035,5.363,9.6a39.847,39.847,0,0,1-12.833,5.806A40.283,40.283,0,0,1,475.175,583.986Zm75.365,44.933c-1.417-12.244,3.555-30.812,4.207-33.165a55.716,55.716,0,0,0,2.984-4.886A54.073,54.073,0,0,0,535.822,517.6a1.753,1.753,0,1,0-1.664,3.086,50.565,50.565,0,1,1-48.029,89,1.755,1.755,0,0,0-1.666,3.09,53.753,53.753,0,0,0,41.171,4.22,54.465,54.465,0,0,0,9.11-3.65c.769.14,6.67,1.684,6.664,15.169-9.609.255-17.133,2.585-17.133,5.42,0,3.014,8.453,5.454,18.89,5.454s18.886-2.44,18.886-5.454C562.05,631.681,557.309,629.747,550.541,628.919Zm-12-17.7a53.33,53.33,0,0,0,11-8.979c-1.558,7.133-3.375,17.857-2.56,26.362-.676-.041-1.37-.065-2.072-.087C544.916,617.7,541.409,613.136,538.538,611.216Z" transform="translate(632.69 353.112)" fill="#fff" stroke="#5b5b5f" stroke-miterlimit="10" stroke-width="0.5"/>
    <g id="Group_15" data-name="Group 15" transform="translate(511.822 890)">
      <path id="Path_184" data-name="Path 184" d="M384.934,550.931c1-1.093,1.145-2.591.315-3.351s-2.306-.484-3.3.611l-1.724,1.884c1.223.825,2.373,1.588,3.408,2.278Z" transform="translate(-286.273 -511.624)" fill="#fff" stroke="#5b5b5f" stroke-miterlimit="10" stroke-width="0.5"/>
      <path id="Path_185" data-name="Path 185" d="M387.841,552.276c1-1.094,1.145-2.591.316-3.351s-2.306-.484-3.3.611l-2.2,2.4c1.569,1.035,2.777,1.813,3.464,2.224Z" transform="translate(-284.178 -510.466)" fill="#fff" stroke="#5b5b5f" stroke-miterlimit="10" stroke-width="0.5"/>
      <path id="Path_186" data-name="Path 186" d="M390.551,553.62c1-1.094,1.143-2.593.315-3.352s-2.306-.484-3.306.611l-2.243,2.451c1.162.112,2.93.255,5.117.409Z" transform="translate(-281.883 -509.309)" fill="#fff" stroke="#5b5b5f" stroke-miterlimit="10" stroke-width="0.5"/>
      <path id="Path_187" data-name="Path 187" d="M373.419,544.582c3.628,2.481,7.675,5.238,11.256,7.656l2.336-2.334s-4.948-3.367-9.322-6.362A24.321,24.321,0,0,0,373.419,544.582Z" transform="translate(-292.132 -514.735)" fill="#fff" stroke="#5b5b5f" stroke-miterlimit="10" stroke-width="0.5"/>
      <path id="Path_188" data-name="Path 188" d="M371.195,581.318c.981-2.066,2.716-6.668,2.282-10.31-.477-.579-2.224-2.422-7.749-6.686a15.174,15.174,0,1,1-11.815-8.911,64.609,64.609,0,0,1-7.34-6.649,22.188,22.188,0,1,0,24.621,32.556Z" transform="translate(-329.75 -510.238)" fill="#fff" stroke="#5b5b5f" stroke-miterlimit="10" stroke-width="0.5"/>
      <path id="Path_189" data-name="Path 189" d="M347.625,555.077a10.243,10.243,0,0,0-1.316-.132,10.007,10.007,0,1,0,10.007,10.005,9.915,9.915,0,0,0-.754-3.777l-5.3,6.843a5,5,0,1,1-7.913-6.13Z" transform="translate(-324.106 -504.912)" fill="#fff" stroke="#5b5b5f" stroke-miterlimit="10" stroke-width="0.5"/>
      <path id="Path_190" data-name="Path 190" d="M410.872,546.883a23.4,23.4,0,0,0-18.968,9.7c3.665.251,7.838.512,11.839.76a14.823,14.823,0,1,1-4.194,22.54c-3.444-1.018-7.526-2.133-11.148-2.868a23.447,23.447,0,1,0,22.471-30.127Z" transform="translate(-279.227 -511.856)" fill="#fff" stroke="#5b5b5f" stroke-miterlimit="10" stroke-width="0.5"/>
      <path id="Path_191" data-name="Path 191" d="M341.674,542.965a56.557,56.557,0,0,1,13.812-7.554l4.173-7.345-5.765,2.608C346.985,534.87,343.489,539.387,341.674,542.965Z" transform="translate(-319.478 -528.066)" fill="#fff" stroke="#5b5b5f" stroke-miterlimit="10" stroke-width="0.5"/>
      <path id="Path_192" data-name="Path 192" d="M461.72,535.49h-.006q-2.482-.126-4.691-.123c-7.729,0-13,1.068-16.57,2.411-3.207,3.315-11.524,11.531-15.491,11.729l-.305.005c-4.709,0-20.465-5.268-21.135-5.493a1.24,1.24,0,0,1-.851-1.126,1.258,1.258,0,0,1,.75-1.2l6.228-2.712A6.4,6.4,0,0,0,407,537.054c-8.168-4.2-20.038-4.773-25.939-4.773-2.236,0-3.613.084-3.613.084.043-.823-.933-1.117-2.37-1.117-3.784,0-10.763,2.055-10.763,2.055-2.807.966-5.253,1.947-7.453,2.934-6.727,3.017-10.834,6.053-13.542,8.877a30.087,30.087,0,0,0-4.65,6.48c-1.839,3.274-1.221,6.528,3.976,11.71a84.434,84.434,0,0,0,7.939,6.783c.33.251.65.5,1,.763.06.045.112.087.169.132l-.538.694-.229.294-.767.985-.6.782-1.627,2.1-5.208,6.725a3.537,3.537,0,1,0,5.594,4.33l5.219-6.737,1.612-2.079.7-.9.767-.992.136-.175.631-.815c.061.048.112.088.169.136.354.261.67.5,1,.752a102.081,102.081,0,0,1,8.561,7c1.768,1.687,1.837,2.137,1.837,2.137,1.042,5.679-2.71,12.87-2.71,12.87h44.4c4.482,0,6.254-2.5,6.254-2.5s3.021-3.751,5.629-7.5c.445-.644,1.593-.912,3.185-.912a33.666,33.666,0,0,1,5.677.657c3.081.575,6.53,1.445,9.707,2.338,1.258.354,2.461.7,3.589,1.044,3.972,1.2,6.889,2.189,6.889,2.189l.006-.048a9.735,9.735,0,0,0,2.891.477,10,10,0,0,0,.694-19.969l.015-.069s-3.021-.175-7.168-.426c-1.188-.076-2.468-.156-3.8-.236-3.349-.214-7-.447-10.256-.672-1.722-.117-3.326-.233-4.721-.343-2.7-.21-4.609-.389-4.936-.5-.013,0-.058-.03-.071-.034a12.764,12.764,0,0,1-1.176-.676c-.841-.525-2.016-1.288-3.453-2.232-.356-.236-.739-.491-1.117-.746-1.067-.705-2.206-1.469-3.412-2.275-.491-.335-.992-.67-1.5-1.013-6.975-4.707-14.755-10.063-14.755-10.063a42.984,42.984,0,0,1,6.684-2.414,19.568,19.568,0,0,1,4.821-.687c4.535,0,6.671,2.226,9.054,3.879a6.579,6.579,0,0,0,3.831,1.182,9.336,9.336,0,0,0,4.376-1.182C468.58,535.643,461.934,535.49,461.72,535.49Zm-71.845,37.956,8.743-7.781a2.5,2.5,0,0,1,3.326,3.738l-7.747,6.9Zm1.238-12.782a2.5,2.5,0,0,1,3.326,3.736l-7.777,6.926-4.326-2.85Zm18.337,13.745-7.719,6.869-4.32-2.85,8.71-7.758a2.5,2.5,0,0,1,3.33,3.739Z" transform="translate(-322.878 -525.325)" fill="#fff" stroke="#5b5b5f" stroke-miterlimit="10" stroke-width="0.5"/>
      <path id="Path_193" data-name="Path 193" d="M392.4,543.951l0-.011.177-1.243a8.5,8.5,0,0,0,3.516-1.77c1.2-.85,2.565-1.956,3.963-3.172a.622.622,0,0,1,.058-.05c.279-.244.557-.488.838-.737-.1.024-.22.05-.369.073a17.8,17.8,0,0,1-2.133.087h-.032c-4.123,0-12.365-.484-16.4-.743-.681-.043-1.227-.076-1.625-.106-.145-.009-.287-.017-.389-.024l-.908.4-3.924,1.713c1.886.6,4.149,1.29,6.42,1.945.59.169,1.173.33,1.757.493,1.833.51,3.593.96,5.136,1.3a28.238,28.238,0,0,0,3,.529c.322.032.661.076.9.076v1.243Z" transform="translate(-290.62 -521.013)" fill="#fff" stroke="#5b5b5f" stroke-miterlimit="10" stroke-width="0.5"/>
    </g>
    <g id="Group_16" data-name="Group 16" transform="translate(204.44 894)">
      <path id="Path_194" data-name="Path 194" d="M160.046,561.875s-13.149,4.622-33.252-1.893h-.506a69.5,69.5,0,0,0-.661,8.529h-.571a22.582,22.582,0,0,0-9.121-13.224l16.1,4.123s25.541,6.323,28.785-3.036c2.526-4.722,3.613-7.016,11.411-12.455,0,0-21.548-10.02-36.026,3.352,0,0-9.512,8.82-29.584-3.248,0,0-24.459-1.18-2.943,7.3-.162,0-.324-.013-.49-.013a22.507,22.507,0,1,0,21.957,27.438h1.3a16.44,16.44,0,0,0,3.635,7.969h42.6A30.859,30.859,0,0,1,160.046,561.875Zm-56.863,26.868a14.92,14.92,0,1,1,13.929-20.232H104.4a5.121,5.121,0,1,0,0,10.242h12.848A14.936,14.936,0,0,1,103.183,588.743Z" transform="translate(-80.677 -520.938)" fill="#fff" stroke="#5b5b5f" stroke-miterlimit="10" stroke-width="0.5"/>
      <path id="Path_195" data-name="Path 195" d="M171.254,558.926a22.907,22.907,0,0,0-13.853,4.65l-.711-.709a15.136,15.136,0,0,0,5.084-11.183c0-8.793-34.47-32.759-17.641-15.93,16.9,16.9-30.533,17.451-16.771,47.036,4.825,12.514,30.3,27.6,17.639,7.206-11.109-17.89,0-22.4,0-22.4a18.951,18.951,0,0,0,4.856-.843l2.325,2.323a23.006,23.006,0,1,0,19.072-10.15Zm0,38.438a15.421,15.421,0,0,1-13.561-22.773l10.878,10.878a3.792,3.792,0,1,0,5.366-5.359L162.85,569.019a15.421,15.421,0,1,1,8.4,28.346Z" transform="translate(-42.65 -529.906)" fill="#fff" stroke="#5b5b5f" stroke-miterlimit="10" stroke-width="0.5"/>
    </g>
    <g id="Group_17" data-name="Group 17" transform="translate(372.162 696)">
      <path id="path3238" d="M215.116,560.865a3.785,3.785,0,1,0,3.782,3.788,3.788,3.788,0,0,0-3.782-3.788" transform="translate(-198.453 -500.933)" fill="#fff" stroke="#5b5b5f" stroke-miterlimit="10" stroke-width="0.5"/>
      <path id="path3240" d="M316.789,603.015a10.589,10.589,0,0,1-7.351-2.958c-2.1-2.012-2.932-4.412-3.125-4.412a3.076,3.076,0,0,0,1.884-.97,3.3,3.3,0,0,0,.91-2.288,2.785,2.785,0,0,0-.022-.352c-.017-.2.8-.35,1.845-.361s1.867.151,1.845.35c-.011.123-.021.24-.021.363a3.785,3.785,0,0,0,7.57,0,4.075,4.075,0,0,0-.03-.432c-.035-.236,1.526-.465,3.5-.5s3.6.156,3.615.434c0,.164.013.329.013.5a10.652,10.652,0,0,1-10.631,10.627Zm-86.832-5.406a11.549,11.549,0,0,1-.962,1.258,10.627,10.627,0,0,1-7.918,3.846,10.515,10.515,0,0,1-10.627-10.441l0-.037a10.453,10.453,0,0,1,2.558-6.87,10.723,10.723,0,0,1,6.34-3.544c.063,0,.141.032.22.032a5.679,5.679,0,0,1,3.514,1.517,5.528,5.528,0,0,1,.808.916c2.36,3.369,4.078,7.809,7.368,7.809h.2c.03,0,.047.194.037.518a10.409,10.409,0,0,1-1.539,5Zm88.155-34.181a18.122,18.122,0,0,1-5.958-3.955c-.962-1.007-2.619-1.713-3.066-2.615s.354-1.625,1.811-1.672c1.042-.034,1.953-.073,2.626-.13,3.218-.313,6.722-5.806,8.983-8.7.255-.331.231-.568.106-.728-.274-.344-3.043-.1-5.931.208l-13.7,1.431c-2.891.3-5.871,1.007-6.051,1.888a4.456,4.456,0,0,0,0,1.614,6.349,6.349,0,0,0,.988,2.414,4.965,4.965,0,0,0,3.548,2.042,2.08,2.08,0,0,1,2.075,1.644c.119.907-2.146,1.593-5.046,1.534l-13.423-.246c-2.906-.06-5.467-.506-5.718-1.007s1.022-.91,2.854-.946c1.325-.037,2.5-.08,3.315-.156,3.218-.309,6.723-5.8,8.987-8.693.259-.331.229-.568.11-.728-.27-.344-3.042-.1-5.931.208L275,548.263c-2.889.305-5.873,1.022-6.05,1.895a4.479,4.479,0,0,0,0,1.61,6.319,6.319,0,0,0,.988,2.414,4.622,4.622,0,0,0,2.45,2.029c.43,0,.72.545.657,1.206s-2.8,1.705-4.328,4.17c-1.979,3.2-.512,7.991,1.569,12.911,1.134,2.673,2.148,7.083-.227,8.751-1.286.907-3.246.953-6.217.953H252.572c-4,0-7.046-1.076-9.313-4.417-4.028-5.962-4.389-15.55-2.2-21.01.962-2.407,2.234-5.5,3.4-8.518a11.352,11.352,0,0,0,.668-6.4c-.635-2.839-1.984-4.207-.692-4.384a15.693,15.693,0,0,1,2.487-.14c.047,0,.095.16.138.16h4.7a2.664,2.664,0,0,0,0-5.26h-1.567a13.292,13.292,0,0,1-5.283-2.182l-3.721-2.3c-2.805-1.724-7.9-.934-10.461-.657a1.808,1.808,0,0,0-1.283.748,3.33,3.33,0,0,0-.514,1.865c0,.13,0,.287,0,.447.1,2.926.7,8.613,3.926,8.613.341,0,1.271-.084,2.507-.214,1.385-.142,1.627,1.9.527,4.6-2.414,5.923-6.065,14.659-7.22,15.913-1.186,1.3-2.989,1.72-4.529,3.738-1.765,2.308-4.445,4.791-7.3,5.352-6.72,1.3-11.7,4.6-12.39,6.854-.279.9.776,1.6,2.459,2.183,1.884.648,1.616,2.437.132,4.938a16.116,16.116,0,0,0-2.258,8.263A16.281,16.281,0,0,0,236.2,598.4c1.078-2.7,1.452-5.115,1.858-5.115s.949.523,1.843,1.229c.532.417,1.193.207,1.914.207h53.751c2.906,0,5.664,2.844,7.125,5.352a16.491,16.491,0,0,0,14.095,8.369,16.206,16.206,0,0,0,16.28-16.174c0-.186-.006-.309-.011-.491-.011-.309.225-.112.538-.119l.57.436h2.76c.272,0,.532-.454.785-.523a3.649,3.649,0,0,0,1.443-.851,4.548,4.548,0,0,0,1.152-2.048c.035-.188.318-.48.318-.668v-.095a31.68,31.68,0,0,0-1.495-5.188c-2.094-5.5-7.68-14.084-21.014-19.294" transform="translate(-204.413 -528.668)" fill="#fff" stroke="#5b5b5f" stroke-miterlimit="10" stroke-width="0.5"/>
    </g>
    <g id="Group_18" data-name="Group 18" transform="translate(1700.259 270)">
      <path id="Path_196" data-name="Path 196" d="M708.761,322.179a16.576,16.576,0,0,0-16.083-16.088,19.957,19.957,0,0,0,16.083,16.088Z" transform="translate(-639.523 -306.091)" fill="#fff" stroke="#5b5b5f" stroke-miterlimit="10" stroke-width="0.5"/>
      <path id="Path_197" data-name="Path 197" d="M677.865,317.542h7.04l-2.64-3.468h-7.033Z" transform="translate(-654.551 -299.214)" fill="#fff" stroke="#5b5b5f" stroke-miterlimit="10" stroke-width="0.5"/>
      <path id="Path_198" data-name="Path 198" d="M698.921,327.451l-2.654-3.461H688.9l2.64,3.461Z" transform="translate(-642.781 -290.673)" fill="#fff" stroke="#5b5b5f" stroke-miterlimit="10" stroke-width="0.5"/>
      <path id="Path_199" data-name="Path 199" d="M680.581,327.451l-2.629-3.461h-7.077l2.641,3.461Z" transform="translate(-658.304 -290.673)" fill="#fff" stroke="#5b5b5f" stroke-miterlimit="10" stroke-width="0.5"/>
      <path id="Path_200" data-name="Path 200" d="M685.406,327.451h7.058l-2.641-3.461h-7.049Z" transform="translate(-648.055 -290.673)" fill="#fff" stroke="#5b5b5f" stroke-miterlimit="10" stroke-width="0.5"/>
      <path id="Path_201" data-name="Path 201" d="M686.04,327.451l-2.627-3.461h-6.408l2.628,3.461Z" transform="translate(-653.023 -290.673)" fill="#fff" stroke="#5b5b5f" stroke-miterlimit="10" stroke-width="0.5"/>
      <path id="Path_202" data-name="Path 202" d="M681.686,322.565h7.051l-2.643-3.468h-7.04Z" transform="translate(-651.259 -294.887)" fill="#fff" stroke="#5b5b5f" stroke-miterlimit="10" stroke-width="0.5"/>
      <path id="Path_203" data-name="Path 203" d="M682.323,322.565,679.69,319.1h-6.4l2.629,3.468Z" transform="translate(-656.227 -294.887)" fill="#fff" stroke="#5b5b5f" stroke-miterlimit="10" stroke-width="0.5"/>
      <path id="Path_204" data-name="Path 204" d="M692.633,336.956H699.7l-2.64-3.465H690Z" transform="translate(-641.831 -282.487)" fill="#fff" stroke="#5b5b5f" stroke-miterlimit="10" stroke-width="0.5"/>
      <path id="Path_205" data-name="Path 205" d="M684.225,333.492l2.647,3.465h6.4l-2.641-3.465Z" transform="translate(-646.805 -282.487)" fill="#fff" stroke="#5b5b5f" stroke-miterlimit="10" stroke-width="0.5"/>
      <path id="Path_206" data-name="Path 206" d="M679.194,333.492h-7.371l2.669,3.465h7.36Z" transform="translate(-657.488 -282.487)" fill="#fff" stroke="#5b5b5f" stroke-miterlimit="10" stroke-width="0.5"/>
      <path id="Path_207" data-name="Path 207" d="M678.115,333.492l2.639,3.465H687.8l-2.64-3.465Z" transform="translate(-652.068 -282.487)" fill="#fff" stroke="#5b5b5f" stroke-miterlimit="10" stroke-width="0.5"/>
      <path id="Path_208" data-name="Path 208" d="M684.083,332.064l-2.632-3.461h-7.062l2.645,3.461Z" transform="translate(-655.278 -286.699)" fill="#fff" stroke="#5b5b5f" stroke-miterlimit="10" stroke-width="0.5"/>
      <path id="Path_209" data-name="Path 209" d="M688.912,332.064h7.064l-2.634-3.461h-7.064Z" transform="translate(-645.036 -286.699)" fill="#fff" stroke="#5b5b5f" stroke-miterlimit="10" stroke-width="0.5"/>
      <path id="Path_210" data-name="Path 210" d="M689.547,332.064l-2.634-3.461h-6.4l2.634,3.461Z" transform="translate(-650.006 -286.699)" fill="#fff" stroke="#5b5b5f" stroke-miterlimit="10" stroke-width="0.5"/>
      <path id="Path_211" data-name="Path 211" d="M675.475,328.6H668.08l2.654,3.461h7.393Z" transform="translate(-660.712 -286.699)" fill="#fff" stroke="#5b5b5f" stroke-miterlimit="10" stroke-width="0.5"/>
      <path id="Path_212" data-name="Path 212" d="M675.679,338.515l2.658,3.468h7.324l-2.645-3.468Z" transform="translate(-654.167 -278.16)" fill="#fff" stroke="#5b5b5f" stroke-miterlimit="10" stroke-width="0.5"/>
      <path id="Path_213" data-name="Path 213" d="M688.974,338.515h-7.028l2.638,3.468h7.031Z" transform="translate(-648.767 -278.16)" fill="#fff" stroke="#5b5b5f" stroke-miterlimit="10" stroke-width="0.5"/>
      <path id="Path_214" data-name="Path 214" d="M681,326.6l-4.294-5.639h-4.337l4.3,5.639Z" transform="translate(-657.017 -293.282)" fill="#fff" stroke="#5b5b5f" stroke-miterlimit="10" stroke-width="0.5"/>
      <path id="Path_215" data-name="Path 215" d="M688.211,336.1l-4.283-5.639H679.6l4.288,5.639Z" transform="translate(-650.791 -285.097)" fill="#fff" stroke="#5b5b5f" stroke-miterlimit="10" stroke-width="0.5"/>
      <path id="Path_216" data-name="Path 216" d="M684.316,330.975l-3.892-5.126H676.09l3.9,5.126Z" transform="translate(-653.812 -289.071)" fill="#fff" stroke="#5b5b5f" stroke-miterlimit="10" stroke-width="0.5"/>
      <path id="Path_217" data-name="Path 217" d="M683.319,335.353l4.474,5.886h4.328l-4.468-5.886Z" transform="translate(-647.586 -280.884)" fill="#fff" stroke="#5b5b5f" stroke-miterlimit="10" stroke-width="0.5"/>
      <path id="Path_218" data-name="Path 218" d="M677.819,330.462h-4.341l4.292,5.639h4.341Z" transform="translate(-656.063 -285.097)" fill="#fff" stroke="#5b5b5f" stroke-miterlimit="10" stroke-width="0.5"/>
      <path id="Path_219" data-name="Path 219" d="M677.211,335.353l4.484,5.886h4.33l-4.492-5.886Z" transform="translate(-652.847 -280.884)" fill="#fff" stroke="#5b5b5f" stroke-miterlimit="10" stroke-width="0.5"/>
      <path id="Path_220" data-name="Path 220" d="M678.2,330.975l-3.9-5.126H669.96l3.9,5.126Z" transform="translate(-659.093 -289.071)" fill="#fff" stroke="#5b5b5f" stroke-miterlimit="10" stroke-width="0.5"/>
      <path id="Path_221" data-name="Path 221" d="M695.78,336.1h4.366l-4.308-5.639h-4.35Z" transform="translate(-640.548 -285.097)" fill="#fff" stroke="#5b5b5f" stroke-miterlimit="10" stroke-width="0.5"/>
      <path id="Path_222" data-name="Path 222" d="M687.979,325.849l3.9,5.126h4.345l-3.9-5.126Z" transform="translate(-643.57 -289.071)" fill="#fff" stroke="#5b5b5f" stroke-miterlimit="10" stroke-width="0.5"/>
      <path id="Path_223" data-name="Path 223" d="M686.764,326.6l-4.292-5.639h-4.33l4.294,5.639Z" transform="translate(-652.045 -293.282)" fill="#fff" stroke="#5b5b5f" stroke-miterlimit="10" stroke-width="0.5"/>
      <path id="Path_224" data-name="Path 224" d="M689.647,336.1h4.345l-4.292-5.639h-4.336Z" transform="translate(-645.823 -285.097)" fill="#fff" stroke="#5b5b5f" stroke-miterlimit="10" stroke-width="0.5"/>
      <path id="Path_225" data-name="Path 225" d="M689.084,335.353l4.475,5.886h4.333l-4.472-5.886Z" transform="translate(-642.619 -280.884)" fill="#fff" stroke="#5b5b5f" stroke-miterlimit="10" stroke-width="0.5"/>
      <path id="Path_226" data-name="Path 226" d="M685.749,330.975h4.336l-3.892-5.126h-4.333Z" transform="translate(-648.842 -289.071)" fill="#fff" stroke="#5b5b5f" stroke-miterlimit="10" stroke-width="0.5"/>
      <path id="Path_227" data-name="Path 227" d="M683.131,321.819l-4.481-5.883h-4.33l4.479,5.883Z" transform="translate(-655.337 -297.609)" fill="#fff" stroke="#5b5b5f" stroke-miterlimit="10" stroke-width="0.5"/>
      <path id="Path_228" data-name="Path 228" d="M760.754,410.894,740.45,388l.052-.045-.238-.164-4.776-5.387a6.648,6.648,0,0,0-1.586-1.286c-2.688-4.164-5.437-10.752-5.6-20.3a31.25,31.25,0,0,0,1.1-9.182,38.444,38.444,0,0,0-3.635-15.078c-.162.106-.337.182-.506.283a16.891,16.891,0,0,0,3.254-2.465A16.5,16.5,0,0,0,733.3,324.2a21.815,21.815,0,0,1-18.076-18.076,16.157,16.157,0,0,0-12.665,8.071,34.171,34.171,0,0,0-12.5-2.5,25.753,25.753,0,0,0-16.773,5.856c-12.511,10.482-12.166,31.575.771,47.023,7.211,8.6,17.138,13.942,26.972,14.709l-.005.16a41.219,41.219,0,0,1,23.767,11.122,6.24,6.24,0,0,0,.59.813l25.25,28.5a6.767,6.767,0,0,0,10.126-8.98Zm-37.841-72.877c-.428.179-.869.335-1.3.477C722.044,338.36,722.489,338.193,722.913,338.018ZM703.3,374.3l-3.362-4.417h-4.322l2.993,3.931a34.046,34.046,0,0,1-15.416-7.4h2.442l-4.508-5.886h-3.713a41,41,0,0,1-2.476-3.468h3.52l-4.313-5.636h-2.185a34.337,34.337,0,0,1-2.425-8.587h5.452l-2.638-3.46h-3.11a29.465,29.465,0,0,1,.18-3.825l2.93,3.825h4.346l-4.287-5.64h-2.723a23.787,23.787,0,0,1,.676-2.69l2.047,2.69h7.066l-2.636-3.468h-6.228a20.95,20.95,0,0,1,2.478-4.933l3.751,4.933h4.345l-4.477-5.882H673.82a19.943,19.943,0,0,1,1.551-1.759l1.335,1.759h6.4l-2.636-3.468h-3.153a20.52,20.52,0,0,1,11.44-4.05l3.081,4.05h4.322l-2.969-3.894a30.372,30.372,0,0,1,7.449,1.919,17.59,17.59,0,0,0-.391,2.152,21.8,21.8,0,0,1,18.078,18.076,16.343,16.343,0,0,0,2.385-.424,16.854,16.854,0,0,1-2.385.424l-2.573-2.206a19.341,19.341,0,0,0-5.007-8.289,18.777,18.777,0,0,0-10.562-5.523,17.171,17.171,0,0,0,.655,3.929.279.279,0,0,0-.007-.035l-2.035-2.658h-4.322l4.48,5.886H702.1a.051.051,0,0,0-.007-.033.152.152,0,0,1,.013.033H702.1a.147.147,0,0,1,.022.033,16.263,16.263,0,0,0,2.349,3.388.309.309,0,0,1,.032.043h0c.19.212.337.449.54.648a15.62,15.62,0,0,0,1.928,1.593,14.542,14.542,0,0,1-1.928-1.586c-.2-.207-.35-.443-.54-.655H701.6l4.294,5.644h4.341l-1.914-2.505-.026-.026a16.483,16.483,0,0,0,7.978,2.386,14.885,14.885,0,0,0-.516-2.269l1.854,2.414h3.808a34.42,34.42,0,0,1,2.494,8.583h-7.139l2.64,3.46h4.838c0,.117.017.233.017.346a26.714,26.714,0,0,1-.363,5.294h-.182l.143.2a21.487,21.487,0,0,1-3.9,9.158h-.57l.274.355a19.579,19.579,0,0,1-2.4,2.554l-2.211-2.917h-6.4l2.636,3.472h5.318a20.7,20.7,0,0,1-13.17,4.425C703.4,374.312,703.342,374.3,703.3,374.3Zm-1.889-57.786a.046.046,0,0,1-.011.024A.046.046,0,0,0,701.41,316.515Zm24.541,65.312a6.7,6.7,0,0,0-2.23,4.428,44.854,44.854,0,0,0-13.882-7.554,24.436,24.436,0,0,0,16.271-12.391,39.37,39.37,0,0,0,4.216,13.849A6.707,6.707,0,0,0,725.951,381.826Z" transform="translate(-664.122 -306.061)" fill="#fff" stroke="#5b5b5f" stroke-miterlimit="10" stroke-width="0.5"/>
    </g>
    <g id="Group_19" data-name="Group 19" transform="translate(1795.04 479)">
      <path id="Path_229" data-name="Path 229" d="M835.389,315.8c-2.826-2.824-5.841-4.391-8.665-1.564l-47.505,53.684L751.448,395.7l-.938-.942a2.286,2.286,0,1,0-3.235,3.231l5.387,5.389a2.288,2.288,0,0,0,3.237-3.235l-.406-.4,27.782-27.776,53.685-47.5C839.788,321.647,838.215,318.634,835.389,315.8Z" transform="translate(-746.607 -312.748)" fill="#fff" stroke="#5b5b5f" stroke-miterlimit="10" stroke-width="0.5"/>
      <path id="Path_230" data-name="Path 230" d="M802.277,348.449l-1.4-.5.73-2.048a14.974,14.974,0,0,1-1.757-.821l-.986,1.729-1.283-.733,1-1.778a16.122,16.122,0,0,1-1.86-1.532l-1.405,1.4-1.041-1.05,1.431-1.422a13.11,13.11,0,0,1-1.364-1.865l-1.9.866-.609-1.346,1.789-.821a12.769,12.769,0,0,1-.657-1.621l-2.44.568-.335-1.445,2.388-.56c-.052-.283-.1-.57-.14-.851a11.016,11.016,0,0,0-9.929,9.929,10.425,10.425,0,0,1,1.212.216l.845-2.383,1.392.5-.821,2.308a12.156,12.156,0,0,1,1.738.767l1.091-1.934,1.29.728-1.111,1.966A15.351,15.351,0,0,1,790,348.185l1.525-1.521,1.039,1.052-1.521,1.519a15.761,15.761,0,0,1,1.377,1.8l1.979-.9.616,1.348-1.834.836a14.448,14.448,0,0,1,.694,1.612l2.433-.568.337,1.439-2.349.549a10.5,10.5,0,0,1,.21,1.189,11.019,11.019,0,0,0,9.934-9.929,10.7,10.7,0,0,1-1.418-.266Z" transform="translate(-715.677 -293.902)" fill="#fff" stroke="#5b5b5f" stroke-miterlimit="10" stroke-width="0.5"/>
      <path id="Path_231" data-name="Path 231" d="M788.582,334.6c.03.194.069.389.108.588l1.368-.318.337,1.443-1.324.305a14.821,14.821,0,0,0,.575,1.366l1.711-.786.614,1.353-1.593.731a16.014,16.014,0,0,0,1.078,1.465l1.3-1.284,1.041,1.048-1.307,1.309a12.7,12.7,0,0,0,1.556,1.3l.869-1.564,1.3.728-.916,1.621a13.5,13.5,0,0,0,1.538.728l.568-1.582,1.394.5-.544,1.534c.339.073.676.141,1,.181A10.995,10.995,0,0,0,788.582,334.6Z" transform="translate(-710.45 -293.922)" fill="#fff" stroke="#5b5b5f" stroke-miterlimit="10" stroke-width="0.5"/>
      <path id="Path_232" data-name="Path 232" d="M791.586,350.76l-.341-1.443,1.3-.305a11.158,11.158,0,0,0-.6-1.349l-1.668.763-.6-1.348,1.5-.685a12.375,12.375,0,0,0-1.1-1.409l-1.193,1.184-1.041-1.046,1.193-1.189A12.566,12.566,0,0,0,787.5,342.7l-.782,1.377-1.292-.726.806-1.43a12.265,12.265,0,0,0-1.523-.672l-.469,1.333-1.4-.5.454-1.258c-.259-.05-.536-.1-.791-.134a11.009,11.009,0,0,0,10.672,10.662c-.039-.305-.1-.614-.166-.927Z" transform="translate(-715.69 -288.676)" fill="#fff" stroke="#5b5b5f" stroke-miterlimit="10" stroke-width="0.5"/>
    </g>
    <path id="Rectangle_45" data-name="Rectangle 45" d="M6.467,0H97.843a6.464,6.464,0,0,1,6.464,6.464V121.915a6.465,6.465,0,0,1-6.465,6.465H6.467A6.467,6.467,0,0,1,0,121.913V6.467A6.467,6.467,0,0,1,6.467,0Z" transform="translate(1264.728 460.5)" fill="#fff" stroke="#5b5b5f" stroke-miterlimit="10" stroke-width="0.5"/>
    <path id="Path_233" data-name="Path 233" d="M602.558,373.317a4.012,4.012,0,1,1,4.012-4.009A4.015,4.015,0,0,1,602.558,373.317Z" transform="translate(718.323 212.556)" fill="#fff" stroke="#5b5b5f" stroke-miterlimit="10" stroke-width="0.5"/>
    <rect id="Rectangle_46" data-name="Rectangle 46" width="86.294" height="103.223" transform="translate(1273.893 473.5)" fill="#fff" stroke="#5b5b5f" stroke-miterlimit="10" stroke-width="0.5"/>
    <path id="Path_234" data-name="Path 234" d="M365.523,338.333H332.566V333.24h32.957Zm0,3.321H332.566v5.1h32.957Zm-.019-23.091H332.6v11.213h32.9Zm10.526-12.055V426.7a3.288,3.288,0,0,1-3.282,3.276h-47.4a3.277,3.277,0,0,1-3.274-3.276V306.508a3.278,3.278,0,0,1,3.274-3.28h47.4A3.282,3.282,0,0,1,376.03,306.508Zm-6.55,3.265H328.62V423.424h40.86Zm-3.957,40.3H332.566v5.082h32.957Zm-5.365,37.915a10.582,10.582,0,1,1-10.577-10.58A10.576,10.576,0,0,1,360.158,387.988Zm-3.814,0a6.768,6.768,0,1,0-6.768,6.759A6.773,6.773,0,0,0,356.344,387.988Zm-43.273-61.7v68.126a7.407,7.407,0,0,1-7.371,7.433H268.892s-2.089,14.873,11.163,14.873v7.438H235.428v-7.427c12.753,0,11.157-14.878,11.157-14.878H209.8a7.408,7.408,0,0,1-7.39-7.427V326.285a7.4,7.4,0,0,1,7.39-7.41h95.9A7.392,7.392,0,0,1,313.071,326.285Zm-48.457,66.47a6.382,6.382,0,1,0-6.374,6.379A6.367,6.367,0,0,0,264.615,392.755Zm40.555-66H210.317V384.2H305.17Zm-46.863,62a3.959,3.959,0,1,0,3.956,3.956A3.958,3.958,0,0,0,258.306,388.762Z" transform="translate(-159.224 369.272)" fill="#fff" stroke="#5b5b5f" stroke-miterlimit="10" stroke-width="0.5"/>
    <g id="Group_20" data-name="Group 20" transform="translate(115.776 469)">
      <path id="Path_235" data-name="Path 235" d="M220.329,307.441H87.252v90.076H220.329V307.441Zm-8.678,81.393H95.928V316.123H211.651Zm-132.6,13.6v12.053c21.57,7.126,148.155,3.25,153.329,0V402.431Zm93.9,5.9h-31.1v-3.613h31.1Zm31.458,3.978a2.893,2.893,0,1,1,2.9-2.895A2.893,2.893,0,0,1,204.413,412.314Zm12.539,0a2.893,2.893,0,1,1,2.895-2.895A2.892,2.892,0,0,1,216.952,412.314Z" transform="translate(-79.052 -307.441)" fill="#fff" stroke="#5b5b5f" stroke-miterlimit="10" stroke-width="0.5"/>
    </g>
    <path id="Path_236" data-name="Path 236" d="M552.005,295.964h-67.43a8.427,8.427,0,0,0-8.428,8.429v118a8.424,8.424,0,0,0,8.428,8.428h67.43a8.424,8.424,0,0,0,8.428-8.428v-118A8.427,8.427,0,0,0,552.005,295.964Zm-48.467,8.429h29.5a2.106,2.106,0,1,1,0,4.211h-29.5a2.106,2.106,0,1,1,0-4.211ZM518.29,426.607a6.32,6.32,0,1,1,6.322-6.319A6.323,6.323,0,0,1,518.29,426.607Zm33.716-16.855h-67.43V317.036h67.43Z" transform="translate(244.391 161.536)" fill="#fff" stroke="#5b5b5f" stroke-miterlimit="10" stroke-width="0.5"/>
    <g id="Desktop" transform="translate(1267.496 673)">
      <g id="Group_21" data-name="Group 21">
        <path id="Path_237" data-name="Path 237" d="M433.45,421.047h-7.829a7.832,7.832,0,0,1-7.829-7.827V401.478H394.31V413.22a7.831,7.831,0,0,1-7.829,7.827h-7.827a3.915,3.915,0,1,0,0,7.829h54.8a3.915,3.915,0,0,0,0-7.829Zm28.374-117.415H350.278a7.111,7.111,0,0,0-6.85,7.338v75.339a7.112,7.112,0,0,0,6.85,7.341H461.824a7.109,7.109,0,0,0,6.846-7.341V310.97A7.108,7.108,0,0,0,461.824,303.632Zm-.981,82.191H351.255V311.456H460.843Z" transform="translate(-343.428 -303.632)" fill="#fff" stroke="#5b5b5f" stroke-miterlimit="10" stroke-width="0.5"/>
      </g>
    </g>
    <g id="Group_22" data-name="Group 22" transform="translate(768.446 79)">
      <path id="path3184" d="M578.059,461.123c.061.006.117.017.184.024a5.045,5.045,0,0,0-2.476,1.484C576.6,461.654,577.5,461.053,578.059,461.123Zm8.28-25.559c.32.3.646.6.966.9.088.084.18.168.272.251a4.725,4.725,0,0,0-3.924-.653C584.773,435.367,585.91,435.16,586.338,435.564Zm14.279-16.6c.516,0,1.035.011,1.543.022.179,0,.352.007.529.013.277,0,1.015,1.441,1.6,3.276a6.431,6.431,0,0,0-4.237-3.3C600.241,418.979,600.431,418.968,600.617,418.968Zm-5.555,81.949c-.1,0-.208-.011-.313-.017s-.071-.376.084-.884a.956.956,0,0,0,.326.9.421.421,0,0,1-.1,0Zm-2.448-2.541a2.077,2.077,0,0,1-1.962.9c-.3-.028-.586-.047-.882-.069a5.11,5.11,0,0,0,2.921-.985C592.663,498.278,592.641,498.326,592.615,498.376ZM579.98,486.6a1.339,1.339,0,0,1,.158-.065,4.822,4.822,0,0,0-1.506,2.3A3.267,3.267,0,0,1,579.98,486.6Zm-.2-2.766a3.165,3.165,0,0,1-2.952-.622,6.06,6.06,0,0,0,4.026.16C580.5,483.522,580.14,483.678,579.779,483.835Zm-6.662-7.766a5.45,5.45,0,0,1-.1-.793c.039.309.084.6.13.892-.008-.034-.021-.063-.028-.1Zm-.009.8a12.078,12.078,0,0,0,1.3,3.466A21.5,21.5,0,0,0,576,482.7a3.6,3.6,0,0,0,3.831,1.346c.657-.281,1.318-.568,1.96-.847,1.562-.679,3.176-1.381,4.769-2.021,4.776-1.659,9.555-3.131,14.193-4.382.944-.218,1.591-.084,1.884.4a.979.979,0,0,1,.054.953,1.112,1.112,0,0,1-.365.45.134.134,0,0,0-.034.022,2.074,2.074,0,0,1-.274.108c-.722.255-2.625.739-4.667,1.312a97.151,97.151,0,0,0-14.136,4.964c-.562.246-1.137.486-1.7.715s-1.13.462-1.7.728c-.927.424-1.766,2.491-1.5,4.475a10.97,10.97,0,0,0,3.257,6.167,9.271,9.271,0,0,0,3.183,1.584,18.913,18.913,0,0,0,4.5.706c.475.037.959.073,1.458.114a2.258,2.258,0,0,0,2.074-.975c.192-.378.384-.76.566-1.134.214-.434.426-.866.646-1.29a7.128,7.128,0,0,1,2.046-2.116l.249-.2c1.791-1.337,3.526-2.8,5.207-4.216.836-.706,1.705-1.437,2.563-2.139l.155-.119a3.6,3.6,0,0,1,2.072-.968,1.916,1.916,0,0,1,.482.106,1,1,0,0,1,.216.221,1.351,1.351,0,0,1,.2.545.48.48,0,0,1-.024.156,1.217,1.217,0,0,1-.169.458,2.374,2.374,0,0,1-.521.614c-.238.194-.5.369-.754.549-.3.208-.6.419-.884.655-.8.653-1.593,1.323-2.368,1.981-1.426,1.2-2.9,2.444-4.421,3.6-.141.112-.287.225-.437.337a5.868,5.868,0,0,0-1.677,1.688,20.406,20.406,0,0,0-1.742,3.693l-.024.073c-.015.041.006.073.045.073h.074c.253.011.512.03.765.045.409.024.834.054,1.243.054.114,0,.218,0,.315-.007a11.069,11.069,0,0,0,5.158-1.469c.309-.145.614-.287.923-.426a30.609,30.609,0,0,0,5.48-3.62c.452-.344.906-.7,1.365-1.035.823-.674,1.619-1.411,2.388-2.131.393-.363.782-.724,1.178-1.08a21.123,21.123,0,0,0,3.124-3.825l.3-.428a16.343,16.343,0,0,1,1.51-1.865,11.065,11.065,0,0,0,2.023-2.768,84.2,84.2,0,0,0,4.864-11.714c.664-1.832,1.189-3.725,1.7-5.558.484-1.739.979-3.533,1.6-5.268a23.216,23.216,0,0,0,.977-7.381,35.325,35.325,0,0,0-.428-6.05c-.158-1.2-.315-2.442-.4-3.678a44.763,44.763,0,0,0-2.924-12.384,33.945,33.945,0,0,0-8.907-11.913,9.068,9.068,0,0,0-2.264-1.374,11.486,11.486,0,0,0-3.691-.88c-.577,0-1.163.008-1.18.019a8.909,8.909,0,0,1-1.476.916,8.2,8.2,0,0,0-1.7,1.115c-.395.339-.27.793-.175,1.162.017.069.037.138.052.218.376,1.316.773,2.66,1.156,3.956.551,1.861,1.119,3.784,1.64,5.689a9.817,9.817,0,0,0,1.647,3.04l.488.694c1.439,2.09,2.883,4.225,4.285,6.29.64.949,1.281,1.887,1.919,2.826a9.244,9.244,0,0,0,2.468,2.319,13.381,13.381,0,0,1,1.75,1.439c.322.3.275.724.231,1.171a.214.214,0,0,1,0,.05,1.247,1.247,0,0,1-.465.452c-.173.017-.346.047-.512.047a1.317,1.317,0,0,1-.959-.331c-.3-.229-.607-.458-.916-.691a14.016,14.016,0,0,1-3.531-3.338c-2.193-3.33-4.46-6.627-6.645-9.823-.1-.145-.2-.283-.3-.428a9.314,9.314,0,0,1-1.217-2.131c-.527-1.629-1.011-3.3-1.482-4.927-.348-1.206-.706-2.431-1.1-3.663-.639-2.01-1.511-3.6-1.826-3.611-.182,0-.37-.007-.558-.011-.506-.013-1.035-.024-1.552-.024a10.474,10.474,0,0,0-5.687,1.271c-.175.132-.348.266-.521.393-.752.557-1.513,1.128-2.211,1.757a15.563,15.563,0,0,0-3.217,4.475c-.363.839-.648,1.709-.925,2.563-.208.637-.419,1.29-.662,1.919l-.075.229a6.252,6.252,0,0,0-.223.735,2.184,2.184,0,0,0,.776,1.646c.3.289.614.56.919.823s.624.545.927.828c.616.553,1.227,1.128,1.821,1.686a45.33,45.33,0,0,0,4.127,3.581c.676.506,1.348,1.033,2,1.541.916.713,1.862,1.452,2.826,2.143a39.938,39.938,0,0,0,3.764,2.021,35.869,35.869,0,0,1,4.24,2.334.912.912,0,0,1,.393,1.065.951.951,0,0,1-.862.759.719.719,0,0,1-.182-.022,12.069,12.069,0,0,1-2.721-1.2c-.363-.2-.737-.4-1.108-.583-.6-.329-1.227-.642-1.826-.944a22.528,22.528,0,0,1-4.335-2.608c-.707-.566-1.443-1.126-2.156-1.668a47.831,47.831,0,0,1-4.192-3.44c-1.357-1.24-2.727-2.519-4.052-3.756-.346-.318-.689-.638-1.05-.955-.588-.525-2.316-.088-3.678,1.109a13.916,13.916,0,0,0-2.226,2.409,20.89,20.89,0,0,0-4.7,13.449,29.211,29.211,0,0,0,.22,3.1c.22,1.7,2.727,3.364,5.251,3.7,4.142.549,8.092.927,11.3,1.216,1.2.16,2.388.329,3.576.5,2.241.328,4.561.663,6.865.912a2.3,2.3,0,0,1,1.411.614c.039.08.115.132.138.229a1.631,1.631,0,0,1-.035.808.914.914,0,0,1-.3.415,1.36,1.36,0,0,1-.769.233,1.165,1.165,0,0,1-.162-.011c-.095-.011-1.242-.171-2.567-.357-.806-.112-1.606-.227-2.4-.341-1.553-.221-3.155-.45-4.741-.655-2.04-.236-4.117-.447-6.132-.646s-4.082-.415-6.126-.648c-.545-.069-1.1-.153-1.638-.24-.555-.087-1.115-.175-1.7-.233-.942-.1-2.742,1.549-3.764,3.7A20.443,20.443,0,0,0,572.683,472a27.058,27.058,0,0,0,.227,4.116c.069.251.134.506.2.752" transform="translate(-572.683 -416.332)" fill="#fff" stroke="#5b5b5f" stroke-miterlimit="10" stroke-width="0.5"/>
      <path id="path3186" d="M607.048,439.248c.021-.153.039-.305.061-.454.028-.181.782.43,1.915,1.391-.988-.629-1.739-.83-2.055-.456.022-.164.052-.322.078-.48Zm13.592,17.118c-.071.058-.143.115-.212.175a1.251,1.251,0,0,1-.434.214c-.074.008-.151.021-.223.035a.29.29,0,0,0-.082.015,7.6,7.6,0,0,0,1.156-.614C620.774,456.249,620.709,456.31,620.64,456.366Zm-17.425-4.493c-.4,1.264-.867,2.522-1.324,3.743-.378,1.014-.769,2.066-1.117,3.109l-.028.076a.055.055,0,0,0,.06.073c.043,0,.078-.009.078-.009,1.251-.095,2.513-.3,3.73-.5a2.384,2.384,0,0,0-.322-.043c-.484.08-.968.1-1.463.169-.754.11-1.268-.233-1.338-.759-.024-.167-.41-.344-.337-.534a3.108,3.108,0,0,0,0-1.1v-.007c0,1.208,1.232,2.04,2.74,2.1a7.028,7.028,0,0,0,1.216-.054,62.492,62.492,0,0,1,8.49-.752c.988.011,2.049-.033,2.936-.095.223-.015.46-.033.661-.048.784-.069,1.428-.145,1.742-.2a1.357,1.357,0,0,0-.4.19c.065-.015.14-.03.2-.041.355-.069.713-.13,1.061-.188l.264-.045a1.406,1.406,0,0,0,.486-.244l.221-.181a10.426,10.426,0,0,0,1.675-1.578,4.688,4.688,0,0,0,.328-4.127,11.478,11.478,0,0,0-1.119-1.727c-.114-.155-.225-.313-.34-.469a7.987,7.987,0,0,0-2.716-2.012c-.19-.1-.374-.2-.558-.311a43.174,43.174,0,0,1-10.854-8.274l-.073-.073c-.039-.039-.084-.03-.091.026s-.017.108-.017.108c-.073.365-.123.75-.173,1.113a11.863,11.863,0,0,1-.614,2.742,41.911,41.911,0,0,0-1.7,5.46c-.376,1.472-.774,3-1.3,4.462" transform="translate(-548.51 -397.72)" fill="#fff" stroke="#5b5b5f" stroke-miterlimit="10" stroke-width="0.5"/>
      <path id="path3188" d="M614,448.59c-.417,0-.838,0-1.256-.011s-.834-.015-1.253-.015c-.542,0-1.141.011-1.761.056-.966.073-2.9.24-4.309.421-.867.106-1.72.247-2.558.385-.009,0-.026,0-.041.008a2.107,2.107,0,0,0,.694.026,59.639,59.639,0,0,1,8.4-.5c.983.011,2,.408,2.883.408h.136c.14,0,.316-.531.5-.553a3.261,3.261,0,0,0,1.323-.516,14.444,14.444,0,0,1-1.805.276c-.294,0-.609.011-.951.011" transform="translate(-546.719 -388.791)" fill="#fff" stroke="#5b5b5f" stroke-miterlimit="10" stroke-width="0.5"/>
      <path id="path3190" d="M612.821,450.417l-.022-.019c.015.03.035.041.046.076a.229.229,0,0,0-.024-.058" transform="translate(-538.126 -386.987)" fill="#fff" stroke="#5b5b5f" stroke-miterlimit="10" stroke-width="0.5"/>
      <path id="path3192" d="M620.946,453.921a.43.43,0,0,0-.123-.249v-.03a.493.493,0,0,1,.123.279Zm-1.823,5.018,0,.1a2.125,2.125,0,0,1-.1.387c-.032.1-.058.2-.089.294-.06.192-.114.382-.175.57.14-.687.279-1.378.415-2C619.156,458.506,619.135,458.731,619.124,458.94Zm-.843,7.155c0-.091,0-.182-.005-.274,0,.069.011.164.009.222Zm.544,5.761a.751.751,0,0,1-.065-.05.269.269,0,0,0,.214.011C619,471.929,618.966,471.973,618.824,471.856Zm-1.016-26.16a5.064,5.064,0,0,1,1.7,3.8c-.013.618-.067,1.247-.121,1.858l-.043.49a1.079,1.079,0,0,0,.409.888c.16.141.361.29.557.443.021.026.041.054.058.076-.24-.177-.5-.359-.681-.519-.255-.221-.722-.5-.722-.888v-.49c0-.61.322-1.24.335-1.858.02-1.033-.428-3.025-1.6-3.8a1.591,1.591,0,0,0-.769-.285,1.52,1.52,0,0,1,.875.285Zm-5.672,7.736a2.064,2.064,0,0,0,.488,1.465,2.663,2.663,0,0,0,.365.272,2.486,2.486,0,0,1,.393.316.8.8,0,0,0-.2-.313,2.3,2.3,0,0,1-.942-1.722,1.519,1.519,0,0,1,.445-.957c.471-.5,1.037-.946,1.541-1.443a6.505,6.505,0,0,0,1.439-4.1c-.05-.985.493-1.722,1.292-1.69-.791-.022-1.331.717-1.284,1.69a6.479,6.479,0,0,1-1.444,4.1c-.5.5-1.067.94-1.539,1.443a1.5,1.5,0,0,0-.449.957,2.3,2.3,0,0,0,.942,1.722.755.755,0,0,1,.2.313l.022.019c.009.011.013.041.024.058a.453.453,0,0,1,.022.045,1.439,1.439,0,0,1,.1.527c.007.2,0,.426-.011.6-.008.251-.022.5-.035.743a12.175,12.175,0,0,0,.015,2.373,9.462,9.462,0,0,0,.5,2.3,13.3,13.3,0,0,1,.374,1.465,6.29,6.29,0,0,1-.532,2.558,5.167,5.167,0,0,0-.566.882c-.32.687.359,1.843,1.16,2.308.486.289.985.542,1.48.789.246.125.491.244.733.378a8.825,8.825,0,0,1,1.688,1.219c.322.272.657.555,1,.8l.147.1c.082.061.117.03.084-.061s-.067-.168-.067-.168a10.276,10.276,0,0,0-.616-1.232c-.065-.117-.134-.233-.2-.354-.032-.058-.08-.188-.143-.355a4.185,4.185,0,0,1-.145-.5l-.005-.024a4.2,4.2,0,0,1-.115-.694,3.459,3.459,0,0,1-.037-.393,15.6,15.6,0,0,1,.123-1.636c.046-.393.093-.8.114-1.2a11.607,11.607,0,0,1,.639-6.249c.031-.1.063-.2.1-.309a2.291,2.291,0,0,0,.091-.415.846.846,0,0,0,.009-.112,9.252,9.252,0,0,1,.279-2.059,3.8,3.8,0,0,1,.581-1.113c.112-.115.223-.221.3-.315.194-.331.769-.616.769-.866v-.022c0-.171-.164-.342-.255-.516a1.336,1.336,0,0,0-.19-.5,1.319,1.319,0,0,0-.087-.484c-.05-.024-.089-.047-.089-.047a3.98,3.98,0,0,1-.681-.419,2.115,2.115,0,0,1-.158-.16,1.3,1.3,0,0,1-.132-.169.571.571,0,0,1-.054-.179.693.693,0,0,1-.058-.251l.045-.491c.054-.624.11-1.256.119-1.9a5.3,5.3,0,0,0-1.832-3.974,7.436,7.436,0,0,0-2.535-.992l-.078-.011a.051.051,0,0,0-.067.062l.017.076a17.1,17.1,0,0,1,.327,2.323,6.32,6.32,0,0,1-1.033,3.611,10.5,10.5,0,0,1-1.064,1.05c-.287.259-.585.525-.843.8a1.619,1.619,0,0,0-.48,1.014" transform="translate(-538.705 -392.074)" fill="#fff" stroke="#5b5b5f" stroke-miterlimit="10" stroke-width="0.5"/>
      <path id="path3194" d="M607.87,461.323a5.524,5.524,0,0,1,1.634-.732,15.325,15.325,0,0,1,2.392-.32,10.484,10.484,0,0,1,1.724-.138,26.114,26.114,0,0,1,3.755.37c.134.019.266.041.4.06.222.032.5.076.611.108.073.015.141.034.208.048,1.353.313,2.883.665,3.639,1.889a1.35,1.35,0,0,1,.2,1.1,1.872,1.872,0,0,1-.318.687,5.23,5.23,0,0,1-2.44,1.273,17.1,17.1,0,0,1-2.014.294c-.2.019-.4.039-.586.061a12.072,12.072,0,0,1-3.849-.294c-.527-.138-1.081-.233-1.612-.328a8.74,8.74,0,0,1-3.8-1.3,1.971,1.971,0,0,1-.843-1.381,2.351,2.351,0,0,1,.03-.374,3.094,3.094,0,0,1,.864-1.026ZM601,468.071a21.479,21.479,0,0,0,3.144,1.05c.57.153,1.145.357,1.7.545a13.674,13.674,0,0,0,3.287.843q1.357.131,2.729.285a79.335,79.335,0,0,0,8.455.607,30.773,30.773,0,0,0,4.51-.305,18.148,18.148,0,0,0,4.1-.8c2.191-.713,4.76-2.5,5.244-3.784s-.523-3.464-1.705-4.451a10.653,10.653,0,0,0-2.332-1.493,23.687,23.687,0,0,1-2.12-1.193,14.377,14.377,0,0,0-3.751-1.811c-.356-.087-.711-.192-1.059-.287a20.9,20.9,0,0,0-2.129-.508,66.927,66.927,0,0,0-9.171-.732c-1.3,0-2.573.058-3.766.171a36.822,36.822,0,0,0-6.7,1.122,14.762,14.762,0,0,0-5.417,2.9,4.151,4.151,0,0,0-.151,4.261c.912,1.411,3.442,2.876,5.134,3.578" transform="translate(-553.158 -382.129)" fill="#fff" stroke="#5b5b5f" stroke-miterlimit="10" stroke-width="0.5"/>
      <path id="path3196" d="M606.741,459.9a.282.282,0,0,1-.011.037c-.013-.015-.013-.034-.032-.052l.043.015Zm-.594.64c.361-.05.683-.2.722-.309.019-.069.041-.138.06-.21.032-.091.056-.175.076-.24l.024-.069a.051.051,0,0,0-.048-.069.614.614,0,0,1-.067,0,7.483,7.483,0,0,0-.767-.011c-.422.019-.754.3-.72.553s.354.41.72.359" transform="translate(-544.479 -379.037)" fill="#fff" stroke="#5b5b5f" stroke-miterlimit="10" stroke-width="0.5"/>
      <path id="path3198" d="M639.532,460.5c.108.028.207.061.309.091a1.577,1.577,0,0,0-1.351,1.014c.035-.223.082-.449.114-.67.013-.106.03-.207.045-.313C638.68,460.451,639.074,460.375,639.532,460.5Zm3.213.821c.076.019-.106.236-.467.579a2.07,2.07,0,0,0,.426-.586A.173.173,0,0,1,642.745,461.32ZM593.4,464.3c-.27-.076-.54-.156-.808-.236-.445-.134-.594-.437-.279-.6a1.28,1.28,0,0,0,.127-.056c-.037.233.331.575.985.9A.04.04,0,0,0,593.4,464.3Zm45.043-3.76c-.021.121-.039.244-.058.372-.071.49-.143.988-.257,1.474a5.5,5.5,0,0,1-1.726,2.63,16.952,16.952,0,0,1-1.443.966c-.121.076-.244.153-.363.229a16.779,16.779,0,0,1-4.762,1.517,47.9,47.9,0,0,1-4.851.458c-.262.017-.527.035-.793.05-.432.026-1.311.007-1.962-.035-.395-.03-.789-.056-1.178-.084-1.539-.1-3.133-.208-4.7-.445-.743-.108-1.506-.167-2.247-.225a18.328,18.328,0,0,1-3.559-.5c-.808-.277-1.64-.527-2.438-.767-.97-.3-1.958-.6-2.935-.946a16.656,16.656,0,0,1-5.244-2.8c-1.132-1.141-2.874-1.77-4.091-1.1-.812.451-1.552.9-2.178,1.277a5.262,5.262,0,0,1-.856.41,3.41,3.41,0,0,0-1.312.782l-.056.065a.047.047,0,0,0,.024.084.5.5,0,0,1,.082.026c.6.186,1.191.356,1.791.534,1.417.419,2.883.847,4.3,1.35,6.225,1.809,12.533,3.7,18.631,5.53q3.387,1.014,6.776,2.031c.285.076.571.171.849.255.35.115.7.233,1.07.32a2.575,2.575,0,0,0,1.716-.194c.193-.134.387-.272.579-.421l.173-.128c1.964-1.45,3.983-2.919,5.932-4.337,2.072-1.508,4.19-3.053,6.3-4.642,2.029-1.534,3.5-3.014,3.237-3.112a2.482,2.482,0,0,0-.5-.115,1.608,1.608,0,0,1-.19-.03,10.215,10.215,0,0,1-1-.229q-.408-.114-.8-.24c-.3-.091-.614-.192-.946-.257-.525-.117-.994.054-1.026.253" transform="translate(-556.539 -378.506)" fill="#fff" stroke="#5b5b5f" stroke-miterlimit="10" stroke-width="0.5"/>
      <path id="path3200" d="M625.193,486c-.037,0-.076,0-.114,0a1.89,1.89,0,0,1-.29-.043,4.046,4.046,0,0,0,1.148-.447A4.149,4.149,0,0,1,625.193,486Zm-33.608-10.845c-.006-.069-.007-.134-.013-.2-.011-.125-.005-.248-.015-.369a6.244,6.244,0,0,0,2.219,1.426,11.54,11.54,0,0,1-2.191-.858Zm.032-10.887a11.443,11.443,0,0,1,1.8.451c-.864-.149-1.437-.141-1.573.043-.052-.115-.1-.233-.158-.348Zm50.728-.545c.006.153.019.305.024.462.006.058,0,.115.006.173a1.936,1.936,0,0,0-.329-.825C642.21,463.506,642.341,463.551,642.344,463.722Zm.242.454c-.022-.374-.041-.746-.05-1.113l0-.1c0-.054-.046-.069-.106-.028s-.1.065-.1.065c-.393.255-.8.512-1.193.8q-3.13,2.3-6.269,4.587c-2.159,1.575-4.315,3.146-6.465,4.734l-.121.084c-.277.2-.555.4-.832.571a2.759,2.759,0,0,1-1.6.4c-.227-.045-.452-.114-.666-.171-.134-.037-.268-.076-.395-.106q-6.073-1.832-12.157-3.65c-6.962-2.083-14.164-4.239-21.256-6.405l-.112-.035c-.063-.019-.091.013-.067.069s.048.112.048.112c.074.179.169.35.253.523a5.156,5.156,0,0,1,.341.732,3.52,3.52,0,0,1,0,1.647c-.067.283-.156.56-.246.828a5.009,5.009,0,0,0-.357,1.811,6.577,6.577,0,0,0,.2,1.461,3.864,3.864,0,0,1,.071,2.118,4.122,4.122,0,0,0-.155,1.852,2.417,2.417,0,0,0,.037.294,24.021,24.021,0,0,0,4.466,1.657c5.512,1.735,11.029,3.524,16.4,5.272,3.553,1.154,7.228,2.345,10.852,3.509a5.886,5.886,0,0,1,.692.221,3.743,3.743,0,0,0,1.273.3.781.781,0,0,0,.16-.013,5.273,5.273,0,0,0,1.217-.826c.337-.283.665-.581.989-.871.294-.266.6-.545.908-.8,3.963-3.4,7.84-6.725,11.7-10.063.186-.167.385-.328.573-.488a6.475,6.475,0,0,0,1.3-1.273,2.036,2.036,0,0,0,.136-1.428,3.839,3.839,0,0,1-.063-.637,24.226,24.226,0,0,0,.62-3.1c.045-.843,0-1.7-.039-2.533" transform="translate(-556.741 -376.206)" fill="#fff" stroke="#5b5b5f" stroke-miterlimit="10" stroke-width="0.5"/>
      <path id="path3202" d="M645.5,469.054c.069.069.138.134.2.2.136.132.266.277.4.415a4.394,4.394,0,0,0-2.815.9,8.834,8.834,0,0,1,2.211-1.521Zm-10,7.885c-2.308,2-4.7,4.058-7.064,6.068a1.681,1.681,0,0,1-1.236.5,4.551,4.551,0,0,1-1.448-.316c-11.331-3.646-22.836-7.384-33.965-11a1.811,1.811,0,0,0-.54-.087,2.314,2.314,0,0,0-2.044,1.7,1.882,1.882,0,0,0,.581,2.2,24.068,24.068,0,0,0,5.783,2.446q2.929,1.047,5.862,2.083c5.461,1.938,11.109,3.937,16.645,6.011,1.184.328,2.39.7,3.641,1.119a24.11,24.11,0,0,0,5.495,1.292,7.5,7.5,0,0,0,3.058-.51,4.644,4.644,0,0,0,.992-.778c2.541-2.25,5.184-4.748,8.319-7.85a62.083,62.083,0,0,0,4.689-4.369c.733-.739,1.5-1.5,2.258-2.223a2.681,2.681,0,0,0,.678-.916,2.582,2.582,0,0,0-.43-2.247,11.874,11.874,0,0,0-.908-.959c-.089-.084-.18-.175-.292-.266-.175-.13-1.917,1.1-3.849,2.751-2.1,1.789-4.188,3.589-6.223,5.352" transform="translate(-558.561 -371.112)" fill="#fff" stroke="#5b5b5f" stroke-miterlimit="10" stroke-width="0.5"/>
    </g>
    <g id="Group_23" data-name="Group 23" transform="translate(424.162 469)">
      <path id="Path_238" data-name="Path 238" d="M128.333,499.623h19.184V424a2.293,2.293,0,0,0-2.293-2.291h-43.65A12.181,12.181,0,0,0,83.35,437.832v64.081a2.3,2.3,0,0,0,2.291,2.3h36.832Zm7.658-75.174a8.976,8.976,0,1,1-8.978,8.976A8.986,8.986,0,0,1,135.991,424.45ZM92.841,421.4A8.84,8.84,0,1,1,84,430.244,8.839,8.839,0,0,1,92.841,421.4Zm-4.529,46.139a27.311,27.311,0,1,1,27.311,27.307A27.34,27.34,0,0,1,88.313,467.542Z" transform="translate(-80.677 -418.08)" fill="#fff" stroke="#5b5b5f" stroke-miterlimit="10" stroke-width="0.5"/>
      <path id="Path_239" data-name="Path 239" d="M111.029,431.211a25.018,25.018,0,1,0,25.019,25.019A25.044,25.044,0,0,0,111.029,431.211Zm.566,30.077a5.259,5.259,0,1,1,5.26-5.257A5.257,5.257,0,0,1,111.6,461.288Z" transform="translate(-76.083 -406.769)" fill="#fff" stroke="#5b5b5f" stroke-miterlimit="10" stroke-width="0.5"/>
      <path id="Path_240" data-name="Path 240" d="M113.487,422.732a6.686,6.686,0,1,1-6.686,6.686A6.685,6.685,0,0,1,113.487,422.732Z" transform="translate(-58.173 -414.073)" fill="#fff" stroke="#5b5b5f" stroke-miterlimit="10" stroke-width="0.5"/>
      <path id="Path_241" data-name="Path 241" d="M167.975,468.043H103.808a2.663,2.663,0,0,0-2.576,2.276L99.51,484.1a1.971,1.971,0,0,0,2.007,2.275h68.75a1.973,1.973,0,0,0,2.007-2.275l-1.722-13.786A2.663,2.663,0,0,0,167.975,468.043Zm-55,13.75H106.1v-2.3h6.874Zm23.988,3.006a7.3,7.3,0,1,1,5.737-11.772l-2.386.847a2.291,2.291,0,0,0,.767,4.449,2.328,2.328,0,0,0,.765-.13l2.4-.851c0,.05.013.1.013.149A7.3,7.3,0,0,1,136.962,484.8Z" transform="translate(-64.469 -375.041)" fill="#fff" stroke="#5b5b5f" stroke-miterlimit="10" stroke-width="0.5"/>
      <path id="Path_242" data-name="Path 242" d="M149.4,431.211a25.018,25.018,0,1,0,25.018,25.019A25.045,25.045,0,0,0,149.4,431.211Zm.182,30.077a5.259,5.259,0,1,1,5.26-5.257A5.257,5.257,0,0,1,149.583,461.288Z" transform="translate(-43.029 -406.769)" fill="#fff" stroke="#5b5b5f" stroke-miterlimit="10" stroke-width="0.5"/>
      <path id="Path_243" data-name="Path 243" d="M129.974,436.1a6.686,6.686,0,1,0-6.683-6.686A6.693,6.693,0,0,0,129.974,436.1Z" transform="translate(-43.968 -414.073)" fill="#fff" stroke="#5b5b5f" stroke-miterlimit="10" stroke-width="0.5"/>
      <path id="Path_244" data-name="Path 244" d="M175.661,418.08a12.189,12.189,0,0,0-8.674,3.628H122.569A2.292,2.292,0,0,0,120.278,424v75.624h21.615l5.862,4.585h34.4a2.3,2.3,0,0,0,2.291-2.3V438.762a12.2,12.2,0,0,0-8.786-20.682Zm-43.092,6.37a8.976,8.976,0,1,1-8.974,8.976A8.986,8.986,0,0,1,132.569,424.45Zm20.366,70.4a27.309,27.309,0,1,1,27.309-27.307A27.341,27.341,0,0,1,152.935,494.849Zm22.782-55.766a8.84,8.84,0,1,1,8.836-8.838A8.842,8.842,0,0,1,175.717,439.082Z" transform="translate(-46.564 -418.08)" fill="#fff" stroke="#5b5b5f" stroke-miterlimit="10" stroke-width="0.5"/>
      <path id="Path_245" data-name="Path 245" d="M101.981,469.992h63.676l-8.791-6.875H110.772Z" transform="translate(-62.325 -379.284)" fill="#fff" stroke="#5b5b5f" stroke-miterlimit="10" stroke-width="0.5"/>
      <path id="Path_246" data-name="Path 246" d="M89.327,422.463a4.072,4.072,0,1,1-4.073,4.071A4.071,4.071,0,0,1,89.327,422.463Z" transform="translate(-76.734 -414.304)" fill="#fff" stroke="#5b5b5f" stroke-miterlimit="10" stroke-width="0.5"/>
      <path id="Path_247" data-name="Path 247" d="M152.116,422.463a4.072,4.072,0,1,1-4.073,4.071A4.069,4.069,0,0,1,152.116,422.463Z" transform="translate(-22.646 -414.304)" fill="#fff" stroke="#5b5b5f" stroke-miterlimit="10" stroke-width="0.5"/>
    </g>
    <g id="Layer_7" data-name="Layer 7" transform="translate(1441.695 275)">
      <path id="Path_248" data-name="Path 248" d="M758.7,484.282a21.824,21.824,0,0,0-8.362-17.192v-5.664a42.084,42.084,0,0,0-84.168,0v4.149a21.876,21.876,0,0,0,11.342,40.583V462.406a22,22,0,0,0-4.54.473v-1.454a35.28,35.28,0,0,1,70.561,0v2.033a21.784,21.784,0,0,0-6.714-1.052v43.751a22.034,22.034,0,0,0,4.142-.406,24.321,24.321,0,0,1-17.985,13.855,3.793,3.793,0,0,0-2.833-1.279h-6.828a3.824,3.824,0,1,0,0,7.649h6.828a3.819,3.819,0,0,0,3.572-2.483,28.546,28.546,0,0,0,22.1-19.29A21.838,21.838,0,0,0,758.7,484.282Z" transform="translate(-655.634 -419.344)" fill="#fff" stroke="#5b5b5f" stroke-miterlimit="10" stroke-width="0.5"/>
    </g>
    <path id="Path_249" data-name="Path 249" d="M235.21,540.538l12.5,6.82v4.062l-2.077-1.124v1.124l-13.847-7.552-13.235,7.552v-1.175l-2.064,1.175v-4.062l12.892-7.384V495.532l-27.791-1.984.4-5.6,2.306.16V443.092l23.42,1.778V419.149c-13.361-.106-23.934-1.437-23.934-3.047s10.573-2.93,23.934-3.045V410h3.341v3.058c13.348.1,23.923,1.424,23.923,3.045s-10.575,2.932-23.923,3.04v25.984l26.775,2.029v15.1a40.536,40.536,0,0,0-20.813,33.815l-1.809-.13ZM326.7,495.5h-.013l23.322-1.953-.4-5.6-2.28.171V443.092l-35.388,2.913-.592.4-.231-.335-13.272,1.091v15.48a40.54,40.54,0,0,1,20.187,33.481l4.918-.35v42.744l-12.9,7.373v4.067l14.229-8.144,14.925,8.144V545.89L326.7,539.077Zm-31.5,35.14h.806V550.86h-5.512v-18a37.018,37.018,0,0,1-25.9.32V550.86h-5.521v-20.2a37.09,37.09,0,1,1,36.125-.015Zm-3.313-32.363a14.759,14.759,0,1,0-14.759,14.759A14.773,14.773,0,0,0,291.887,498.278Zm58.125-58.992-.547-3.323-29.947,4.883,26.568-18.065-1.893-2.788-32.569,22.142-3.619.588.544,3.326,2.312-.374.249.385.832-.054.97-.666Z" transform="translate(1313.75 44.502)" fill="#fff" stroke="#5b5b5f" stroke-miterlimit="10" stroke-width="0.5"/>
    <g id="Group_24" data-name="Group 24" transform="translate(959.88 448)">
      <path id="Path_250" data-name="Path 250" d="M451.376,446.6A7.738,7.738,0,0,1,460,445.039l.5-.5a40.765,40.765,0,0,1,20.28-20.284s.754-.752,1.686-1.686.369-3.006-1.26-4.635l-9.581-9.584c-1.631-1.629-3.7-2.2-4.618-1.283l-1.666,1.672a40.756,40.756,0,0,1-20.364,20.364l-.343.342c1.647,2.625,1.139,6.364-1.331,9.076l-25.742,25.589c-1.115-.069-2.906-.972-5.3-4.683-4.285-6.636-14.281-10.413-22.514,3.868s-1.4,16.643-24.852,19.363l.006.011a33.472,33.472,0,0,0-22.1,9.6c-14.193,14.193-12.578,38.829,3.611,55.014s40.825,17.812,55.016,3.619c.259-.259.5-.525.741-.786l.006.007s.093-.1.248-.277a31.265,31.265,0,0,0,3.07-3.933c3.652-5.184,8.866-14.5,7.7-24.243-1.765-14.7,12.012-14.026,17.723-17.723s7.727-6.885,7.894-10.584c0,0-6.805,4.789-13.021-1.428-5-5-2.773-13.51-.62-18.011Z" transform="translate(-333.125 -406.634)" fill="#fff" stroke="#5b5b5f" stroke-miterlimit="10" stroke-width="0.5"/>
    </g>
    <path id="Path_251" data-name="Path 251" d="M835.2,455.52a41.418,41.418,0,0,1-33.653-33.653c8.3-5.2,20.336-3.358,28.677,4.977S840.4,447.212,835.2,455.52Zm-5.729,5.729a47.745,47.745,0,0,1-33.651-33.658c-5.193,8.309-3.352,20.344,4.976,28.677S821.163,466.444,829.475,461.249ZM796.5,498.161c-10.357,0-17.765,6.474-24.3,12.187-7.217,6.31-13.473,11.783-22.682,8.942-1.824-1.34-1.875-2.435-1.9-2.805-.127-2.494,2.895-5.843,4.376-7.072a2.928,2.928,0,0,0,.43-.538,6.887,6.887,0,0,0,7.174-1.586l47.165-38.824a33.915,33.915,0,0,1-18.147-18.156l-38.824,47.169a6.831,6.831,0,0,0-1.757,6.336,4.812,4.812,0,0,0-.443.24c-.741.607-7.221,6.122-6.9,12.753.114,2.33,1.13,5.7,5.339,8.516l.832.4a23.731,23.731,0,0,0,7.576,1.3c9.227,0,16.107-6.014,22.33-11.453,6.158-5.387,11.978-10.47,19.733-10.47,17.875,0,31.711,19.156,31.853,19.342a3.465,3.465,0,0,0,5.655-4.006C833.361,519.523,817.98,498.161,796.5,498.161Z" transform="translate(807.417 263.542)" fill="#fff" stroke="#5b5b5f" stroke-miterlimit="10" stroke-width="0.5"/>
    <g id="Group_25" data-name="Group 25" transform="translate(974.673 663)">
      <path id="Path_252" data-name="Path 252" d="M584.561,521.051s-1.794-4.436-1.919-4.695-12.254-24.07-9.006-41.661c3.7.419,5.424-.853,6.1-1.932,3.393-5.389-8-14.594-15.273-19.186-7.431-4.68-14.821-7.591-19.27-7.591-2.751,0-4.036,1.122-4.637,2.068-1.34,2.133-.477,5.046,2.552,8.667-.067,13,3.352,29.248,3.511,29.987.052.236,1.349,5.806,2.332,8.51l6.988,18.054,4.536,10.089c-.462,1.044-1.569,3-3.548,3a5.171,5.171,0,0,1-1.96-.443l-21.157-47.044.693-.305a1.061,1.061,0,0,0,.484-.525l1.724,3.861,3.6-1.607-4.082-9.154-3.611,1.616,1.722,3.853a1.056,1.056,0,0,0-.717.019l-.689.322-4.16-9.244.726-.313a1.093,1.093,0,0,0,.488-.525l1.724,3.855,3.609-1.619-4.091-9.143-3.6,1.612,1.716,3.864a1.018,1.018,0,0,0-.718.019l-.719.322-4.024-8.961.75-.331a1.067,1.067,0,0,0,.486-.519l1.724,3.849,3.6-1.606-4.082-9.143-3.607,1.614,1.72,3.861a.955.955,0,0,0-.709.019l-.761.331-4.116-9.132.78-.354a1.029,1.029,0,0,0,.493-.519l1.651,3.682,3.6-1.61-4.084-9.154-3.611,1.618,1.8,4.032a1.057,1.057,0,0,0-.717.022l-.776.35-14.05-31.253a2.051,2.051,0,0,0-1.135-1.039,13.285,13.285,0,0,0-7.781-2.777c-4.372,0-10.575,2.639-15.355,15.228l-.575,1.528c-1.564,4.268-4.475,12.218-8.531,14.785-4.387,2.747-13.441,5.53-19.863,7.068a2.108,2.108,0,0,0-1.485,2.788l.266.709a2.107,2.107,0,0,0,1.979,1.392h.015c4.2-.045,17.492-.862,23.452-4.065,3.9-2.1,10.206-8.965,13.568-12.808l48.2,107.108c3.565,7.915,10.277,12.289,18.91,12.289a34.169,34.169,0,0,0,13.888-3.265C584.274,544.871,590.019,533.169,584.561,521.051ZM557.4,464.27c-7.993-5.138-13.2-11.29-11.623-13.747s9.337-.287,17.335,4.851,13.2,11.291,11.627,13.748S565.394,469.4,557.4,464.27Z" transform="translate(-449.122 -408.762)" fill="#fff" stroke="#5b5b5f" stroke-miterlimit="10" stroke-width="0.5"/>
    </g>
    <path id="Path_253" data-name="Path 253" d="M650.5,108.338h-5.828v-4.843h-5.32V77.113H615.664v3.622h3.222v1.951H596.721a6.988,6.988,0,0,0-7.17,5.255,2.627,2.627,0,0,0-.056.555l.061,8.847a2.631,2.631,0,0,0,2.63,2.612h.019a2.632,2.632,0,0,0,2.61-2.649l-.061-8.449c.143-.3.6-.916,1.967-.916h22.171V90.2h-3.226v13.289h-7.25v4.845h-6.472a18.789,18.789,0,0,0-18.765,18.769v84.086a18.786,18.786,0,0,0,18.765,18.769H650.5a18.789,18.789,0,0,0,18.771-18.769V127.111A18.8,18.8,0,0,0,650.5,108.338ZM661.757,211.2A11.273,11.273,0,0,1,650.5,222.457H601.944A11.277,11.277,0,0,1,590.681,211.2V127.111a11.277,11.277,0,0,1,11.264-11.265h20.894V189.3h7.511V115.846h20.144a11.273,11.273,0,0,1,11.264,11.265V211.2Zm-28.465-54.57H659.9v50.4A12.871,12.871,0,0,1,647.03,219.9H605.408a12.873,12.873,0,0,1-12.87-12.874v-50.4h27.24v36.54h13.514Z" transform="translate(682.232 -15.613)" fill="#fff" stroke="#5b5b5f" stroke-miterlimit="10" stroke-width="0.5"/>
    <g id="Group_28" data-name="Group 28" transform="translate(64.801 86.254)">
      <path id="Path_255" data-name="Path 255" d="M80.716,152.571a3.052,3.052,0,0,0,.351,1.894c.019.251.033.449.042.537l.254-.019a3.071,3.071,0,0,0,1.952,1.168,3.537,3.537,0,0,0,.491.037,3.1,3.1,0,0,0,1.459-.409c-.021.151-.077.272-.1.43-1.526,12.454,6.358,29.975,12.422,35.712,4.327,4.092,14.518,6.839,25.358,6.839h0c10.479,0,18.928-2.51,23.171-6.888a58.3,58.3,0,0,0,10.954-16.942l8.042-10.6a3.126,3.126,0,0,0-.6-4.378,3.082,3.082,0,0,0-3.157-.321,22.189,22.189,0,0,0-.284-5.7,94.787,94.787,0,0,0,10.226.672c.758.012,1.489.023,2.187.023a67.737,67.737,0,0,0,9.77-.621,22.775,22.775,0,0,0-.272,5.62,3.074,3.074,0,0,0-3.15.323,3.124,3.124,0,0,0-.6,4.378l8.044,10.605a58.251,58.251,0,0,0,10.952,16.937c4.243,4.376,12.694,6.888,23.171,6.888,10.847,0,21.036-2.747,25.365-6.839,6.06-5.734,13.946-23.257,12.415-35.709-.019-.161-.07-.281-.093-.433a3.109,3.109,0,0,0,1.463.414,3.162,3.162,0,0,0,.488-.037,3.076,3.076,0,0,0,1.952-1.165l.256.019c.007-.088.021-.293.04-.544a3.023,3.023,0,0,0,.351-1.884c-.044-.288-.112-.6-.181-.921.582-11.761,1.242-50.288-14.822-55.405-1.721-.542-4.517.642-7.653,2.61a3.079,3.079,0,0,0-2.708.679l-14.111,12.62a3.092,3.092,0,0,0-.661,3.706c1.973,2.684,3.789,2.375,3.789,2.375a5.15,5.15,0,0,0,.882-.077c3.931-.7,7.535-5.608,9.086-9.328l5.183-4.634a3.12,3.12,0,0,0,.893-3.2c2.105-1.312,3.661-1.984,4.352-1.761,10.987,3.492,13.066,28.891,12.864,45.735-3.3-5.043-9.423-9.942-19.733-10.2-1.759-.042-3.687-.109-5.727-.172-26.272-.886-48.259-.663-51.246,10.9a3.1,3.1,0,0,0,1.335,3.371,12.785,12.785,0,0,0-.944,1.789,61.111,61.111,0,0,1-12.868.812,74.589,74.589,0,0,1-11.282-.87,12.99,12.99,0,0,0-.886-1.7,3.084,3.084,0,0,0,1.407-3.4c-2.987-11.566-25.014-11.794-51.346-10.917-2.04.063-3.961.13-5.722.174-10.305.256-16.428,5.155-19.731,10.2-.2-16.849,1.877-42.239,12.866-45.738.691-.221,2.247.449,4.355,1.766a3.117,3.117,0,0,0,.891,3.2l5.185,4.634c1.549,3.713,5.15,8.626,9.081,9.326a5.015,5.015,0,0,0,.884.079s1.817.312,3.789-2.375a3.1,3.1,0,0,0-.661-3.708l-14.111-12.62a3.08,3.08,0,0,0-2.708-.677c-3.131-1.97-5.929-3.152-7.653-2.608-16.062,5.108-15.409,43.612-14.825,55.389C80.83,151.955,80.761,152.273,80.716,152.571Zm110.639-5.3c5.978-3.236,19.745-5.59,32.741-5.59,11.166,0,20.38,1.726,25.937,4.852,3.431,1.928,5.467,5.311,6.05,10.049,1.5,12.152-6.686,28.54-11.464,33.06-3.722,3.524-13.271,5.985-23.215,5.985-9.5,0-17.321-2.217-20.92-5.939a47.221,47.221,0,0,1-6.339-8.344,3.068,3.068,0,0,0,2.1-4.952l-9.428-12.424C185.73,159.229,184.879,150.78,191.355,147.272ZM88.274,156.584c.584-4.731,2.619-8.114,6.053-10.049,5.555-3.126,14.767-4.848,25.937-4.848,12.992,0,26.761,2.349,32.739,5.59,6.446,3.489,5.618,11.919,4.524,16.716L148.118,176.4a3.067,3.067,0,0,0,2.1,4.952,47.432,47.432,0,0,1-6.334,8.342c-3.6,3.717-11.422,5.939-20.924,5.939-9.942,0-19.487-2.461-23.213-5.985C94.96,185.129,86.781,168.736,88.274,156.584Z" transform="translate(-80.677 -96.105)" fill="#fff" stroke="#5b5b5f" stroke-miterlimit="10" stroke-width="0.5"/>
    </g>
    <g id="Group_30" data-name="Group 30" transform="translate(308.478 295)">
      <path id="Path_256" data-name="Path 256" d="M368.1,167.029c25.267-.007,33.556-24.539,37.1-35.015l.194-.577a42.722,42.722,0,0,1,1.99-4.974,3.02,3.02,0,0,1,5-.009,42.981,42.981,0,0,1,1.992,4.983l.2.577c3.537,10.476,11.829,35.008,37.094,35.015l.008-1.3v1.3h.007a24.977,24.977,0,0,0,21.075-10.493c8.443-11.375,9.166-29.209,7.619-34.317-3.546-11.688-16.833-17.49-24.439-19.9-4.358-1.385-13.024-2.089-25.749-2.089-10.6,0-20.28.506-20.237.51-.1,0-9.776-.51-20.373-.51-12.727,0-21.39.7-25.749,2.089-7.6,2.414-20.895,8.216-24.435,19.9-1.549,5.108-.821,22.938,7.615,34.315A24.98,24.98,0,0,0,368.1,167.029Zm51.117-51.461c.032-.1,3.287-9.832,21.684-9.832,1.193,0,2.448.039,3.771.128,20.764,1.368,29.208,12.122,30.127,20.911.64,6.156-.147,20.023-7.742,28.454-4.184,4.644-9.927,7-17.073,7-12.062,0-19.83-8.767-24.221-16.116C418.5,133.959,416.954,119.816,419.212,115.568Zm-74.247,11.208c.92-8.79,9.361-19.543,30.129-20.911,1.318-.089,2.576-.128,3.771-.128,18.251,0,21.553,9.441,21.779,10.061,2.161,4.019.616,18.162-6.642,30.317-4.393,7.351-12.157,16.114-24.236,16.118-7.135,0-12.875-2.355-17.062-7C345.109,146.8,344.321,132.931,344.965,126.776Z" transform="translate(-338.739 -100.226)" fill="#fff" stroke="#5b5b5f" stroke-miterlimit="10" stroke-width="0.5"/>
    </g>
    <path id="Path_257" data-name="Path 257" d="M789.5,80.341H766.849V96.709H801.81v5.629H766.849v7.505H801.81v5.623H766.849v7.505H801.81V128.6H766.849V136.1H801.81v5.625H766.849v7.505H801.81v5.625H766.849v7.505H801.81v5.627H766.849v7.5H801.81v5.627H766.849v7.505H801.81v5.625H766.849v7.505H801.81v5.625H766.849v13.789H789.5a31.517,31.517,0,0,0,31.512-31.516V111.861A31.513,31.513,0,0,0,789.5,80.341Z" transform="translate(1728.025 -656.349) rotate(90)" fill="#fff" stroke="#5b5b5f" stroke-miterlimit="10" stroke-width="0.5"/>
    <path id="Path_258" data-name="Path 258" d="M741.718,81.5a15.894,15.894,0,0,0-15.816,18.3,15.581,15.581,0,0,0,.689,2.878l-3.462,20.677-.653,5.424-.977,8.1c-.181-.123-.387-.22-.577-.326a7.042,7.042,0,0,0-1.817-.72l.849-7.059h-8.227L707.3,102.9a16.02,16.02,0,0,0,.774-3.11,16.7,16.7,0,0,0,.181-2.3,15.992,15.992,0,1,0-9.765,14.739l13.132,85.694,4.788-39.721.143-1.21.892-7.368c.032,0,.065.009.1.009a6.69,6.69,0,0,0,1.212-.123,6.814,6.814,0,0,0,1.27-.35l-1.089,9.039-5.9,48.929.022.143c2.195,14.335,5.731,14.333,7.892-.011l14.342-95.126A16,16,0,1,0,741.718,81.5Zm-44.281,23.873a9.427,9.427,0,1,1,4.252-7.874,9.2,9.2,0,0,1-.317,2.3A9.413,9.413,0,0,1,697.436,105.369Zm17.248,40.724a4.494,4.494,0,0,1,2.855-7.95,4.363,4.363,0,0,1,1.256.2,4.515,4.515,0,0,1,3.241,4.3,4.481,4.481,0,0,1-1.649,3.457,4.4,4.4,0,0,1-1.188.717,4.468,4.468,0,0,1-1.459.307c-.071,0-.132.02-.2.02A4.5,4.5,0,0,1,714.684,146.093Zm27.033-39.161a9.435,9.435,0,1,1,9.428-9.437A9.38,9.38,0,0,1,741.718,106.932Z" transform="translate(1126.785 -11.996)" fill="#fff" stroke="#5b5b5f" stroke-miterlimit="10" stroke-width="0.5"/>
  </g>
</svg>
