<svg xmlns="http://www.w3.org/2000/svg" width="1763.668" height="998.075" viewBox="0 0 1763.668 998.075">
  <g id="Group_124" data-name="Group 124" transform="translate(16.395 -110.364)" opacity="0.45">
    <path id="Path_993" data-name="Path 993" d="M104.8,524.775A24.124,24.124,0,1,1,128.92,500.65,24.152,24.152,0,0,1,104.8,524.775Z" transform="translate(36.224 218.331)" fill="#6b6b6b"/>
    <rect id="Rectangle_88" data-name="Rectangle 88" width="284.373" height="60.882" transform="translate(1321.525 893.885)" fill="#383838"/>
    <rect id="Rectangle_89" data-name="Rectangle 89" width="135.04" height="93.382" transform="translate(1628.338 817.517) rotate(90)" fill="#949494"/>
    <rect id="Rectangle_90" data-name="Rectangle 90" width="53.581" height="26.434" transform="translate(1601.754 950.098)" fill="#fdf4ef"/>
    <rect id="Rectangle_91" data-name="Rectangle 91" width="219.8" height="219.8" transform="translate(1076.428 487.713)" fill="#383838"/>
    <path id="Path_994" data-name="Path 994" d="M78.637,710.258,207.512,468.615,336.388,710.258Z" transform="translate(35.465 238.394)" fill="#383838"/>
    <g id="Group_93" data-name="Group 93" transform="translate(1141.458 399.209)">
      <g id="Group_91" data-name="Group 91" transform="translate(28.561)">
        <rect id="Rectangle_92" data-name="Rectangle 92" width="1.011" height="221.111" fill="#6b6b6b"/>
        <rect id="Rectangle_93" data-name="Rectangle 93" width="1.011" height="221.111" transform="translate(32.596)" fill="#6b6b6b"/>
        <rect id="Rectangle_94" data-name="Rectangle 94" width="1.011" height="221.111" transform="translate(65.192)" fill="#6b6b6b"/>
        <rect id="Rectangle_95" data-name="Rectangle 95" width="1.011" height="221.111" transform="translate(97.787)" fill="#6b6b6b"/>
        <rect id="Rectangle_96" data-name="Rectangle 96" width="1.011" height="221.111" transform="translate(130.383)" fill="#6b6b6b"/>
        <rect id="Rectangle_97" data-name="Rectangle 97" width="1.011" height="221.111" transform="translate(162.979)" fill="#6b6b6b"/>
      </g>
      <g id="Group_92" data-name="Group 92" transform="translate(0 28.561)">
        <rect id="Rectangle_98" data-name="Rectangle 98" width="221.111" height="1.011" fill="#6b6b6b"/>
        <rect id="Rectangle_99" data-name="Rectangle 99" width="221.111" height="1.011" transform="translate(0 32.596)" fill="#6b6b6b"/>
        <rect id="Rectangle_100" data-name="Rectangle 100" width="221.111" height="1.011" transform="translate(0 65.192)" fill="#6b6b6b"/>
        <rect id="Rectangle_101" data-name="Rectangle 101" width="221.111" height="1.011" transform="translate(0 97.787)" fill="#6b6b6b"/>
        <rect id="Rectangle_102" data-name="Rectangle 102" width="221.111" height="1.011" transform="translate(0 130.383)" fill="#6b6b6b"/>
        <rect id="Rectangle_103" data-name="Rectangle 103" width="221.111" height="1.011" transform="translate(0 162.979)" fill="#6b6b6b"/>
      </g>
    </g>
    <g id="Group_96" data-name="Group 96" transform="translate(154.435 887.328)">
      <g id="Group_94" data-name="Group 94" transform="translate(28.561)">
        <rect id="Rectangle_104" data-name="Rectangle 104" width="1.011" height="221.111" fill="#6b6b6b"/>
        <rect id="Rectangle_105" data-name="Rectangle 105" width="1.011" height="221.111" transform="translate(32.596)" fill="#6b6b6b"/>
        <rect id="Rectangle_106" data-name="Rectangle 106" width="1.011" height="221.111" transform="translate(65.192)" fill="#6b6b6b"/>
        <rect id="Rectangle_107" data-name="Rectangle 107" width="1.011" height="221.111" transform="translate(97.787)" fill="#6b6b6b"/>
        <rect id="Rectangle_108" data-name="Rectangle 108" width="1.011" height="221.111" transform="translate(130.384)" fill="#6b6b6b"/>
        <rect id="Rectangle_109" data-name="Rectangle 109" width="1.011" height="221.111" transform="translate(162.98)" fill="#6b6b6b"/>
      </g>
      <g id="Group_95" data-name="Group 95" transform="translate(0 28.561)">
        <rect id="Rectangle_110" data-name="Rectangle 110" width="221.111" height="1.011" fill="#6b6b6b"/>
        <rect id="Rectangle_111" data-name="Rectangle 111" width="221.111" height="1.011" transform="translate(0 32.596)" fill="#6b6b6b"/>
        <rect id="Rectangle_112" data-name="Rectangle 112" width="221.111" height="1.011" transform="translate(0 65.192)" fill="#6b6b6b"/>
        <rect id="Rectangle_113" data-name="Rectangle 113" width="221.111" height="1.011" transform="translate(0 97.787)" fill="#6b6b6b"/>
        <rect id="Rectangle_114" data-name="Rectangle 114" width="221.111" height="1.011" transform="translate(0 130.383)" fill="#6b6b6b"/>
        <rect id="Rectangle_115" data-name="Rectangle 115" width="221.111" height="1.011" transform="translate(0 162.979)" fill="#6b6b6b"/>
      </g>
    </g>
    <circle id="Ellipse_16" data-name="Ellipse 16" cx="119.748" cy="119.748" r="119.748" transform="translate(1378.753 110.364)" fill="#383838"/>
    <circle id="Ellipse_17" data-name="Ellipse 17" cx="80.339" cy="80.339" r="80.339" transform="translate(301.255 404.277)" fill="#383838"/>
    <rect id="Rectangle_116" data-name="Rectangle 116" width="272.522" height="40.102" transform="translate(456.45 157.199)" fill="#383838"/>
    <g id="Group_97" data-name="Group 97" transform="translate(75.289 522.505)">
      <path id="Path_995" data-name="Path 995" d="M84.372,365.93l-34,34v-1.942l34-34Z" transform="translate(-50.372 -363.988)" fill="#939393"/>
      <path id="Path_996" data-name="Path 996" d="M84.372,378.742l-34,34V410.8l34-34Z" transform="translate(-50.372 -359.206)" fill="#939393"/>
      <path id="Path_997" data-name="Path 997" d="M84.372,391.556l-34,34v-1.942l34-34Z" transform="translate(-50.372 -354.424)" fill="#939393"/>
      <path id="Path_998" data-name="Path 998" d="M84.372,404.368l-34,34v-1.942l34-34Z" transform="translate(-50.372 -349.643)" fill="#939393"/>
      <path id="Path_999" data-name="Path 999" d="M84.372,417.182l-34,34v-1.942l34-34Z" transform="translate(-50.372 -344.861)" fill="#939393"/>
      <path id="Path_1000" data-name="Path 1000" d="M84.372,429.994l-34,34v-1.942l34-34Z" transform="translate(-50.372 -340.079)" fill="#939393"/>
      <path id="Path_1001" data-name="Path 1001" d="M84.372,442.808l-34,34v-1.942l34-34Z" transform="translate(-50.372 -335.298)" fill="#939393"/>
    </g>
    <g id="Group_98" data-name="Group 98" transform="translate(1528.208 323.394)">
      <path id="Path_1002" data-name="Path 1002" d="M668.744,239.363l34,34v-1.942l-34-34Z" transform="translate(-668.744 -237.421)" fill="#f2f2f2"/>
      <path id="Path_1003" data-name="Path 1003" d="M668.744,252.176l34,34v-1.942l-34-34Z" transform="translate(-668.744 -232.639)" fill="#f2f2f2"/>
      <path id="Path_1004" data-name="Path 1004" d="M668.744,264.989l34,34v-1.942l-34-34Z" transform="translate(-668.744 -227.858)" fill="#f2f2f2"/>
      <path id="Path_1005" data-name="Path 1005" d="M668.744,277.8l34,34V309.86l-34-34Z" transform="translate(-668.744 -223.076)" fill="#f2f2f2"/>
      <path id="Path_1006" data-name="Path 1006" d="M668.744,290.615l34,34v-1.942l-34-34Z" transform="translate(-668.744 -218.294)" fill="#f2f2f2"/>
      <path id="Path_1007" data-name="Path 1007" d="M668.744,303.428l34,34v-1.942l-34-34Z" transform="translate(-668.744 -213.513)" fill="#f2f2f2"/>
      <path id="Path_1008" data-name="Path 1008" d="M668.744,316.241l34,34V348.3l-34-34Z" transform="translate(-668.744 -208.731)" fill="#f2f2f2"/>
      <path id="Path_1009" data-name="Path 1009" d="M668.744,329.054l34,34v-1.942l-34-34Z" transform="translate(-668.744 -203.949)" fill="#f2f2f2"/>
      <path id="Path_1010" data-name="Path 1010" d="M668.744,341.867l34,34v-1.942l-34-34Z" transform="translate(-668.744 -199.168)" fill="#f2f2f2"/>
      <path id="Path_1011" data-name="Path 1011" d="M668.744,354.68l34,34v-1.942l-34-34Z" transform="translate(-668.744 -194.386)" fill="#f2f2f2"/>
      <path id="Path_1012" data-name="Path 1012" d="M668.744,367.493l34,34v-1.942l-34-34Z" transform="translate(-668.744 -189.604)" fill="#f2f2f2"/>
      <path id="Path_1013" data-name="Path 1013" d="M668.744,380.306l34,34v-1.942l-34-34Z" transform="translate(-668.744 -184.823)" fill="#f2f2f2"/>
      <path id="Path_1014" data-name="Path 1014" d="M668.744,393.119l34,34v-1.942l-34-34Z" transform="translate(-668.744 -180.041)" fill="#f2f2f2"/>
      <path id="Path_1015" data-name="Path 1015" d="M668.744,405.932l34,34V437.99l-34-34Z" transform="translate(-668.744 -175.259)" fill="#f2f2f2"/>
    </g>
    <path id="Path_1016" data-name="Path 1016" d="M352.658,444.818,279.761,328.2,170.951,477.572Zm-2.888-2.028-76.746-33.925,7.189-77.352ZM278.8,331.847,271.64,408.9l-96.35,64.949ZM175.522,475.352l96.841-65.277,76.848,33.97Z" transform="translate(228.709 136.753)" fill="#fdf4ef"/>
    <path id="Path_1017" data-name="Path 1017" d="M164.534,204.992a1.372,1.372,0,0,0-1.373-1.373H79.95a1.384,1.384,0,0,0-.971.4l-41.6,41.6a1.367,1.367,0,0,0-.4.971v83.21a1.378,1.378,0,0,0,1.373,1.373h83.211a1.37,1.37,0,0,0,.971-.4l41.6-41.6a1.386,1.386,0,0,0,.3-.446,1.366,1.366,0,0,0,.106-.525Zm-2.746,81.839H81.323V206.365h80.465Zm-59,41.6,38.858-38.857h9.46l-38.86,38.857Zm-10.432,0,38.86-38.857h9.46l-38.858,38.857Zm-10.431,0,38.86-38.857h9.46l-38.86,38.857Zm-10.431,0,38.86-38.857h9.46l-38.86,38.857Zm-10.431,0,38.86-38.857h9.46l-38.86,38.857Zm-10.429,0,38.858-38.857h9.46l-38.86,38.857Zm-8.975,0,38.858-38.857h8L49.664,328.435Zm-1.942-62.263,38.858-38.858V236.8L39.718,275.659Zm0,10.458,38.858-38.858v9.486l-38.858,38.86Zm0,10.458,38.858-38.86v9.487l-38.858,38.86Zm0,10.458,38.858-38.86v9.489L39.718,307.034Zm0,10.458,38.858-38.858v9.487l-38.858,38.86Zm38.858-81.662L39.718,265.2v-9.487l38.858-38.86ZM39.718,318.464,78.577,279.6v8.03L39.718,326.493ZM78.577,208.307v7.576l-38.858,38.86v-7.576Zm42.411,120.128h-7.77l38.86-38.857h7.768Z" transform="translate(19.916 34.802)" fill="#e7e7e7"/>
    <path id="Path_1018" data-name="Path 1018" d="M711.175,265.544a1.373,1.373,0,0,0-1.373,1.373v83.211a1.39,1.39,0,0,0,.4.972l41.6,41.6a1.372,1.372,0,0,0,.971.4h83.211a1.381,1.381,0,0,0,1.373-1.373V308.522a1.378,1.378,0,0,0-.4-.971l-41.6-41.6a1.39,1.39,0,0,0-.972-.4Zm81.839,2.746v80.465H712.548V268.29Zm41.6,59-38.858-38.86v-9.46l38.858,38.86Zm0,10.431-38.858-38.86V289.4l38.858,38.86Zm0,10.431-38.858-38.86v-9.46l38.858,38.86Zm0,10.431-38.858-38.86v-9.46l38.858,38.86Zm0,10.431-38.858-38.86V320.7l38.858,38.858Zm0,10.431-38.858-38.86v-9.46l38.858,38.86Zm0,8.974L795.761,349.56v-8l38.858,38.86Zm-62.265,1.942L733.5,351.5h9.487l38.858,38.858Zm10.458,0L743.954,351.5h9.486L792.3,390.36Zm10.458,0L754.411,351.5H763.9l38.858,38.858Zm10.458,0L764.871,351.5h9.487l38.86,38.858Zm10.46,0L775.329,351.5h9.487l38.86,38.858ZM732.525,351.5l38.859,38.858H761.9L723.038,351.5Zm92.122,38.858L785.787,351.5h8.032l38.857,38.858ZM714.49,351.5h7.577l38.858,38.858H753.35Zm120.129-42.411v7.769L795.761,278v-7.768Z" transform="translate(874.787 96.25)" fill="#939393"/>
    <g id="Group_99" data-name="Group 99" transform="translate(112.053 179.525)">
      <path id="Path_1019" data-name="Path 1019" d="M77.145,163.216a2.485,2.485,0,1,0,2.485-2.487A2.486,2.486,0,0,0,77.145,163.216Z" transform="translate(-77.145 -160.729)" fill="#949494"/>
      <path id="Path_1020" data-name="Path 1020" d="M97.1,163.216a2.486,2.486,0,1,0,2.485-2.487A2.487,2.487,0,0,0,97.1,163.216Z" transform="translate(-69.697 -160.729)" fill="#949494"/>
      <path id="Path_1021" data-name="Path 1021" d="M117.064,163.216a2.485,2.485,0,1,0,2.485-2.487A2.486,2.486,0,0,0,117.064,163.216Z" transform="translate(-62.248 -160.729)" fill="#949494"/>
      <path id="Path_1022" data-name="Path 1022" d="M137.023,163.216a2.486,2.486,0,1,0,2.487-2.487A2.487,2.487,0,0,0,137.023,163.216Z" transform="translate(-54.799 -160.729)" fill="#949494"/>
      <path id="Path_1023" data-name="Path 1023" d="M156.983,163.216a2.486,2.486,0,1,0,2.485-2.487A2.486,2.486,0,0,0,156.983,163.216Z" transform="translate(-47.35 -160.729)" fill="#949494"/>
      <path id="Path_1024" data-name="Path 1024" d="M176.942,163.216a2.486,2.486,0,1,0,2.487-2.487A2.487,2.487,0,0,0,176.942,163.216Z" transform="translate(-39.902 -160.729)" fill="#949494"/>
      <path id="Path_1025" data-name="Path 1025" d="M196.9,163.216a2.486,2.486,0,1,0,2.486-2.487A2.487,2.487,0,0,0,196.9,163.216Z" transform="translate(-32.453 -160.729)" fill="#949494"/>
      <path id="Path_1026" data-name="Path 1026" d="M216.862,163.216a2.485,2.485,0,1,0,2.485-2.487A2.486,2.486,0,0,0,216.862,163.216Z" transform="translate(-25.004 -160.729)" fill="#949494"/>
      <path id="Path_1027" data-name="Path 1027" d="M236.821,163.216a2.486,2.486,0,1,0,2.487-2.487A2.487,2.487,0,0,0,236.821,163.216Z" transform="translate(-17.556 -160.729)" fill="#949494"/>
      <path id="Path_1028" data-name="Path 1028" d="M256.781,163.216a2.486,2.486,0,1,0,2.485-2.487A2.486,2.486,0,0,0,256.781,163.216Z" transform="translate(-10.107 -160.729)" fill="#949494"/>
      <path id="Path_1029" data-name="Path 1029" d="M276.74,163.216a2.486,2.486,0,1,0,2.487-2.487A2.487,2.487,0,0,0,276.74,163.216Z" transform="translate(-2.658 -160.729)" fill="#949494"/>
      <path id="Path_1030" data-name="Path 1030" d="M296.7,163.216a2.486,2.486,0,1,0,2.485-2.487A2.487,2.487,0,0,0,296.7,163.216Z" transform="translate(4.79 -160.729)" fill="#949494"/>
      <path id="Path_1031" data-name="Path 1031" d="M316.66,163.216a2.485,2.485,0,1,0,2.485-2.487A2.486,2.486,0,0,0,316.66,163.216Z" transform="translate(12.239 -160.729)" fill="#949494"/>
      <path id="Path_1032" data-name="Path 1032" d="M77.145,180.221a2.485,2.485,0,1,0,2.485-2.485A2.485,2.485,0,0,0,77.145,180.221Z" transform="translate(-77.145 -154.382)" fill="#949494"/>
      <path id="Path_1033" data-name="Path 1033" d="M97.1,180.221a2.486,2.486,0,1,0,2.485-2.485A2.486,2.486,0,0,0,97.1,180.221Z" transform="translate(-69.697 -154.382)" fill="#949494"/>
      <path id="Path_1034" data-name="Path 1034" d="M117.064,180.221a2.485,2.485,0,1,0,2.485-2.485A2.485,2.485,0,0,0,117.064,180.221Z" transform="translate(-62.248 -154.382)" fill="#949494"/>
      <path id="Path_1035" data-name="Path 1035" d="M137.023,180.221a2.486,2.486,0,1,0,2.487-2.485A2.486,2.486,0,0,0,137.023,180.221Z" transform="translate(-54.799 -154.382)" fill="#949494"/>
      <path id="Path_1036" data-name="Path 1036" d="M156.983,180.221a2.486,2.486,0,1,0,2.485-2.485A2.485,2.485,0,0,0,156.983,180.221Z" transform="translate(-47.35 -154.382)" fill="#949494"/>
      <path id="Path_1037" data-name="Path 1037" d="M176.942,180.221a2.486,2.486,0,1,0,2.487-2.485A2.486,2.486,0,0,0,176.942,180.221Z" transform="translate(-39.902 -154.382)" fill="#949494"/>
      <path id="Path_1038" data-name="Path 1038" d="M196.9,180.221a2.486,2.486,0,1,0,2.486-2.485A2.486,2.486,0,0,0,196.9,180.221Z" transform="translate(-32.453 -154.382)" fill="#949494"/>
      <path id="Path_1039" data-name="Path 1039" d="M216.862,180.221a2.485,2.485,0,1,0,2.485-2.485A2.485,2.485,0,0,0,216.862,180.221Z" transform="translate(-25.004 -154.382)" fill="#949494"/>
      <path id="Path_1040" data-name="Path 1040" d="M236.821,180.221a2.486,2.486,0,1,0,2.487-2.485A2.486,2.486,0,0,0,236.821,180.221Z" transform="translate(-17.556 -154.382)" fill="#949494"/>
      <path id="Path_1041" data-name="Path 1041" d="M256.781,180.221a2.486,2.486,0,1,0,2.485-2.485A2.485,2.485,0,0,0,256.781,180.221Z" transform="translate(-10.107 -154.382)" fill="#949494"/>
      <path id="Path_1042" data-name="Path 1042" d="M276.74,180.221a2.486,2.486,0,1,0,2.487-2.485A2.486,2.486,0,0,0,276.74,180.221Z" transform="translate(-2.658 -154.382)" fill="#949494"/>
      <path id="Path_1043" data-name="Path 1043" d="M296.7,180.221a2.486,2.486,0,1,0,2.485-2.485A2.486,2.486,0,0,0,296.7,180.221Z" transform="translate(4.79 -154.382)" fill="#949494"/>
      <path id="Path_1044" data-name="Path 1044" d="M316.66,180.221a2.485,2.485,0,1,0,2.485-2.485A2.485,2.485,0,0,0,316.66,180.221Z" transform="translate(12.239 -154.382)" fill="#949494"/>
      <path id="Path_1045" data-name="Path 1045" d="M77.145,197.227a2.485,2.485,0,1,0,2.485-2.485A2.486,2.486,0,0,0,77.145,197.227Z" transform="translate(-77.145 -148.036)" fill="#949494"/>
      <path id="Path_1046" data-name="Path 1046" d="M97.1,197.227a2.486,2.486,0,1,0,2.485-2.485A2.487,2.487,0,0,0,97.1,197.227Z" transform="translate(-69.697 -148.036)" fill="#949494"/>
      <path id="Path_1047" data-name="Path 1047" d="M117.064,197.227a2.485,2.485,0,1,0,2.485-2.485A2.486,2.486,0,0,0,117.064,197.227Z" transform="translate(-62.248 -148.036)" fill="#949494"/>
      <path id="Path_1048" data-name="Path 1048" d="M137.023,197.227a2.486,2.486,0,1,0,2.487-2.485A2.487,2.487,0,0,0,137.023,197.227Z" transform="translate(-54.799 -148.036)" fill="#949494"/>
      <path id="Path_1049" data-name="Path 1049" d="M156.983,197.227a2.486,2.486,0,1,0,2.485-2.485A2.486,2.486,0,0,0,156.983,197.227Z" transform="translate(-47.35 -148.036)" fill="#949494"/>
      <path id="Path_1050" data-name="Path 1050" d="M176.942,197.227a2.486,2.486,0,1,0,2.487-2.485A2.487,2.487,0,0,0,176.942,197.227Z" transform="translate(-39.902 -148.036)" fill="#949494"/>
      <path id="Path_1051" data-name="Path 1051" d="M196.9,197.227a2.486,2.486,0,1,0,2.486-2.485A2.487,2.487,0,0,0,196.9,197.227Z" transform="translate(-32.453 -148.036)" fill="#949494"/>
      <path id="Path_1052" data-name="Path 1052" d="M216.862,197.227a2.485,2.485,0,1,0,2.485-2.485A2.486,2.486,0,0,0,216.862,197.227Z" transform="translate(-25.004 -148.036)" fill="#949494"/>
      <path id="Path_1053" data-name="Path 1053" d="M236.821,197.227a2.486,2.486,0,1,0,2.487-2.485A2.487,2.487,0,0,0,236.821,197.227Z" transform="translate(-17.556 -148.036)" fill="#949494"/>
      <path id="Path_1054" data-name="Path 1054" d="M256.781,197.227a2.486,2.486,0,1,0,2.485-2.485A2.486,2.486,0,0,0,256.781,197.227Z" transform="translate(-10.107 -148.036)" fill="#949494"/>
      <path id="Path_1055" data-name="Path 1055" d="M276.74,197.227a2.486,2.486,0,1,0,2.487-2.485A2.487,2.487,0,0,0,276.74,197.227Z" transform="translate(-2.658 -148.036)" fill="#949494"/>
      <path id="Path_1056" data-name="Path 1056" d="M296.7,197.227a2.486,2.486,0,1,0,2.485-2.485A2.487,2.487,0,0,0,296.7,197.227Z" transform="translate(4.79 -148.036)" fill="#949494"/>
      <path id="Path_1057" data-name="Path 1057" d="M316.66,197.227a2.485,2.485,0,1,0,2.485-2.485A2.486,2.486,0,0,0,316.66,197.227Z" transform="translate(12.239 -148.036)" fill="#949494"/>
      <path id="Path_1058" data-name="Path 1058" d="M77.145,214.234a2.485,2.485,0,1,0,2.485-2.485A2.485,2.485,0,0,0,77.145,214.234Z" transform="translate(-77.145 -141.689)" fill="#949494"/>
      <path id="Path_1059" data-name="Path 1059" d="M97.1,214.234a2.486,2.486,0,1,0,2.485-2.485A2.486,2.486,0,0,0,97.1,214.234Z" transform="translate(-69.697 -141.689)" fill="#949494"/>
      <path id="Path_1060" data-name="Path 1060" d="M117.064,214.234a2.485,2.485,0,1,0,2.485-2.485A2.485,2.485,0,0,0,117.064,214.234Z" transform="translate(-62.248 -141.689)" fill="#949494"/>
      <path id="Path_1061" data-name="Path 1061" d="M137.023,214.234a2.486,2.486,0,1,0,2.487-2.485A2.486,2.486,0,0,0,137.023,214.234Z" transform="translate(-54.799 -141.689)" fill="#949494"/>
      <path id="Path_1062" data-name="Path 1062" d="M156.983,214.234a2.486,2.486,0,1,0,2.485-2.485A2.485,2.485,0,0,0,156.983,214.234Z" transform="translate(-47.35 -141.689)" fill="#949494"/>
      <path id="Path_1063" data-name="Path 1063" d="M176.942,214.234a2.486,2.486,0,1,0,2.487-2.485A2.486,2.486,0,0,0,176.942,214.234Z" transform="translate(-39.902 -141.689)" fill="#949494"/>
      <path id="Path_1064" data-name="Path 1064" d="M196.9,214.234a2.486,2.486,0,1,0,2.486-2.485A2.486,2.486,0,0,0,196.9,214.234Z" transform="translate(-32.453 -141.689)" fill="#949494"/>
      <path id="Path_1065" data-name="Path 1065" d="M216.862,214.234a2.485,2.485,0,1,0,2.485-2.485A2.485,2.485,0,0,0,216.862,214.234Z" transform="translate(-25.004 -141.689)" fill="#949494"/>
      <path id="Path_1066" data-name="Path 1066" d="M236.821,214.234a2.486,2.486,0,1,0,2.487-2.485A2.486,2.486,0,0,0,236.821,214.234Z" transform="translate(-17.556 -141.689)" fill="#949494"/>
      <path id="Path_1067" data-name="Path 1067" d="M256.781,214.234a2.486,2.486,0,1,0,2.485-2.485A2.485,2.485,0,0,0,256.781,214.234Z" transform="translate(-10.107 -141.689)" fill="#949494"/>
      <path id="Path_1068" data-name="Path 1068" d="M276.74,214.234a2.486,2.486,0,1,0,2.487-2.485A2.486,2.486,0,0,0,276.74,214.234Z" transform="translate(-2.658 -141.689)" fill="#949494"/>
      <path id="Path_1069" data-name="Path 1069" d="M296.7,214.234a2.486,2.486,0,1,0,2.485-2.485A2.486,2.486,0,0,0,296.7,214.234Z" transform="translate(4.79 -141.689)" fill="#949494"/>
      <path id="Path_1070" data-name="Path 1070" d="M316.66,214.234a2.485,2.485,0,1,0,2.485-2.485A2.485,2.485,0,0,0,316.66,214.234Z" transform="translate(12.239 -141.689)" fill="#949494"/>
      <path id="Path_1071" data-name="Path 1071" d="M77.145,231.24a2.485,2.485,0,1,0,2.485-2.485A2.486,2.486,0,0,0,77.145,231.24Z" transform="translate(-77.145 -135.342)" fill="#949494"/>
      <path id="Path_1072" data-name="Path 1072" d="M97.1,231.24a2.486,2.486,0,1,0,2.485-2.485A2.487,2.487,0,0,0,97.1,231.24Z" transform="translate(-69.697 -135.342)" fill="#949494"/>
      <path id="Path_1073" data-name="Path 1073" d="M117.064,231.24a2.485,2.485,0,1,0,2.485-2.485A2.486,2.486,0,0,0,117.064,231.24Z" transform="translate(-62.248 -135.342)" fill="#949494"/>
      <circle id="Ellipse_18" data-name="Ellipse 18" cx="2.486" cy="2.486" r="2.486" transform="translate(82.224 93.413)" fill="#949494"/>
      <circle id="Ellipse_19" data-name="Ellipse 19" cx="2.486" cy="2.486" r="2.486" transform="translate(109.632 93.413)" fill="#949494"/>
      <circle id="Ellipse_20" data-name="Ellipse 20" cx="2.486" cy="2.486" r="2.486" transform="translate(137.041 93.413)" fill="#949494"/>
      <path id="Path_1074" data-name="Path 1074" d="M196.9,231.24a2.486,2.486,0,1,0,2.486-2.485A2.487,2.487,0,0,0,196.9,231.24Z" transform="translate(-32.453 -135.342)" fill="#949494"/>
      <path id="Path_1075" data-name="Path 1075" d="M216.862,231.24a2.485,2.485,0,1,0,2.485-2.485A2.486,2.486,0,0,0,216.862,231.24Z" transform="translate(-25.004 -135.342)" fill="#949494"/>
      <path id="Path_1076" data-name="Path 1076" d="M236.821,231.24a2.486,2.486,0,1,0,2.487-2.485A2.487,2.487,0,0,0,236.821,231.24Z" transform="translate(-17.556 -135.342)" fill="#949494"/>
      <path id="Path_1077" data-name="Path 1077" d="M256.781,231.24a2.486,2.486,0,1,0,2.485-2.485A2.486,2.486,0,0,0,256.781,231.24Z" transform="translate(-10.107 -135.342)" fill="#949494"/>
      <path id="Path_1078" data-name="Path 1078" d="M276.74,231.24a2.486,2.486,0,1,0,2.487-2.485A2.487,2.487,0,0,0,276.74,231.24Z" transform="translate(-2.658 -135.342)" fill="#949494"/>
      <path id="Path_1079" data-name="Path 1079" d="M296.7,231.24a2.486,2.486,0,1,0,2.485-2.485A2.487,2.487,0,0,0,296.7,231.24Z" transform="translate(4.79 -135.342)" fill="#949494"/>
      <path id="Path_1080" data-name="Path 1080" d="M316.66,231.24a2.485,2.485,0,1,0,2.485-2.485A2.486,2.486,0,0,0,316.66,231.24Z" transform="translate(12.239 -135.342)" fill="#949494"/>
      <path id="Path_1081" data-name="Path 1081" d="M77.145,248.248a2.485,2.485,0,1,0,2.485-2.487A2.485,2.485,0,0,0,77.145,248.248Z" transform="translate(-77.145 -128.996)" fill="#949494"/>
      <path id="Path_1082" data-name="Path 1082" d="M97.1,248.248a2.486,2.486,0,1,0,2.485-2.487A2.486,2.486,0,0,0,97.1,248.248Z" transform="translate(-69.697 -128.996)" fill="#949494"/>
      <path id="Path_1083" data-name="Path 1083" d="M117.064,248.248a2.485,2.485,0,1,0,2.485-2.487A2.485,2.485,0,0,0,117.064,248.248Z" transform="translate(-62.248 -128.996)" fill="#949494"/>
      <path id="Path_1084" data-name="Path 1084" d="M137.023,248.248a2.486,2.486,0,1,0,2.487-2.487A2.486,2.486,0,0,0,137.023,248.248Z" transform="translate(-54.799 -128.996)" fill="#949494"/>
      <path id="Path_1085" data-name="Path 1085" d="M156.983,248.248a2.486,2.486,0,1,0,2.485-2.487A2.485,2.485,0,0,0,156.983,248.248Z" transform="translate(-47.35 -128.996)" fill="#949494"/>
      <path id="Path_1086" data-name="Path 1086" d="M176.942,248.248a2.486,2.486,0,1,0,2.487-2.487A2.486,2.486,0,0,0,176.942,248.248Z" transform="translate(-39.902 -128.996)" fill="#949494"/>
      <path id="Path_1087" data-name="Path 1087" d="M196.9,248.248a2.486,2.486,0,1,0,2.486-2.487A2.486,2.486,0,0,0,196.9,248.248Z" transform="translate(-32.453 -128.996)" fill="#949494"/>
      <path id="Path_1088" data-name="Path 1088" d="M216.862,248.248a2.485,2.485,0,1,0,2.485-2.487A2.485,2.485,0,0,0,216.862,248.248Z" transform="translate(-25.004 -128.996)" fill="#949494"/>
      <path id="Path_1089" data-name="Path 1089" d="M236.821,248.248a2.486,2.486,0,1,0,2.487-2.487A2.486,2.486,0,0,0,236.821,248.248Z" transform="translate(-17.556 -128.996)" fill="#949494"/>
      <path id="Path_1090" data-name="Path 1090" d="M256.781,248.248a2.486,2.486,0,1,0,2.485-2.487A2.485,2.485,0,0,0,256.781,248.248Z" transform="translate(-10.107 -128.996)" fill="#949494"/>
      <path id="Path_1091" data-name="Path 1091" d="M276.74,248.248a2.486,2.486,0,1,0,2.487-2.487A2.486,2.486,0,0,0,276.74,248.248Z" transform="translate(-2.658 -128.996)" fill="#949494"/>
      <path id="Path_1092" data-name="Path 1092" d="M296.7,248.248a2.486,2.486,0,1,0,2.485-2.487A2.486,2.486,0,0,0,296.7,248.248Z" transform="translate(4.79 -128.996)" fill="#949494"/>
      <path id="Path_1093" data-name="Path 1093" d="M316.66,248.248a2.485,2.485,0,1,0,2.485-2.487A2.485,2.485,0,0,0,316.66,248.248Z" transform="translate(12.239 -128.996)" fill="#949494"/>
    </g>
    <g id="Group_100" data-name="Group 100" transform="translate(1405.089 594.677)">
      <path id="Path_1094" data-name="Path 1094" d="M665.608,612.338a1.492,1.492,0,1,1-1.491,1.491A1.492,1.492,0,0,1,665.608,612.338Z" transform="translate(-547.352 -310.847)" fill="#f2f2f2"/>
      <path id="Path_1095" data-name="Path 1095" d="M665.608,632.3a1.491,1.491,0,1,1-1.491,1.491A1.492,1.492,0,0,1,665.608,632.3Z" transform="translate(-547.352 -303.398)" fill="#f2f2f2"/>
      <path id="Path_1096" data-name="Path 1096" d="M648.6,612.338a1.492,1.492,0,1,1-1.491,1.491A1.491,1.491,0,0,1,648.6,612.338Z" transform="translate(-553.698 -310.847)" fill="#f2f2f2"/>
      <path id="Path_1097" data-name="Path 1097" d="M648.6,632.3a1.491,1.491,0,1,1-1.491,1.491A1.491,1.491,0,0,1,648.6,632.3Z" transform="translate(-553.698 -303.398)" fill="#f2f2f2"/>
      <path id="Path_1098" data-name="Path 1098" d="M631.6,612.338a1.492,1.492,0,1,1-1.491,1.491A1.492,1.492,0,0,1,631.6,612.338Z" transform="translate(-560.045 -310.847)" fill="#f2f2f2"/>
      <path id="Path_1099" data-name="Path 1099" d="M631.6,632.3a1.491,1.491,0,1,1-1.491,1.491A1.492,1.492,0,0,1,631.6,632.3Z" transform="translate(-560.045 -303.398)" fill="#f2f2f2"/>
      <path id="Path_1100" data-name="Path 1100" d="M614.589,612.338a1.492,1.492,0,1,1-1.491,1.491A1.491,1.491,0,0,1,614.589,612.338Z" transform="translate(-566.392 -310.847)" fill="#f2f2f2"/>
      <path id="Path_1101" data-name="Path 1101" d="M614.589,632.3a1.491,1.491,0,1,1-1.491,1.491A1.491,1.491,0,0,1,614.589,632.3Z" transform="translate(-566.392 -303.398)" fill="#f2f2f2"/>
      <path id="Path_1102" data-name="Path 1102" d="M597.582,612.338a1.492,1.492,0,1,1-1.491,1.491A1.492,1.492,0,0,1,597.582,612.338Z" transform="translate(-572.739 -310.847)" fill="#f2f2f2"/>
      <path id="Path_1103" data-name="Path 1103" d="M597.582,632.3a1.491,1.491,0,1,1-1.491,1.491A1.492,1.492,0,0,1,597.582,632.3Z" transform="translate(-572.739 -303.398)" fill="#f2f2f2"/>
      <path id="Path_1104" data-name="Path 1104" d="M750.642,392.783a1.491,1.491,0,1,1-1.493,1.491A1.491,1.491,0,0,1,750.642,392.783Z" transform="translate(-515.619 -392.782)" fill="#f2f2f2"/>
      <path id="Path_1105" data-name="Path 1105" d="M750.642,412.742a1.492,1.492,0,1,1-1.493,1.491A1.491,1.491,0,0,1,750.642,412.742Z" transform="translate(-515.619 -385.334)" fill="#f2f2f2"/>
      <path id="Path_1106" data-name="Path 1106" d="M750.642,432.7a1.491,1.491,0,1,1-1.493,1.491A1.491,1.491,0,0,1,750.642,432.7Z" transform="translate(-515.619 -377.885)" fill="#f2f2f2"/>
      <path id="Path_1107" data-name="Path 1107" d="M750.642,452.661a1.492,1.492,0,1,1-1.493,1.491A1.492,1.492,0,0,1,750.642,452.661Z" transform="translate(-515.619 -370.437)" fill="#f2f2f2"/>
      <path id="Path_1108" data-name="Path 1108" d="M750.642,472.621a1.491,1.491,0,1,1-1.493,1.491A1.491,1.491,0,0,1,750.642,472.621Z" transform="translate(-515.619 -362.988)" fill="#f2f2f2"/>
      <path id="Path_1109" data-name="Path 1109" d="M750.642,492.581a1.491,1.491,0,1,1-1.493,1.491A1.491,1.491,0,0,1,750.642,492.581Z" transform="translate(-515.619 -355.539)" fill="#f2f2f2"/>
      <path id="Path_1110" data-name="Path 1110" d="M750.642,512.54a1.491,1.491,0,1,1-1.493,1.491A1.491,1.491,0,0,1,750.642,512.54Z" transform="translate(-515.619 -348.091)" fill="#f2f2f2"/>
      <path id="Path_1111" data-name="Path 1111" d="M750.642,532.5a1.491,1.491,0,1,1-1.493,1.491A1.491,1.491,0,0,1,750.642,532.5Z" transform="translate(-515.619 -340.642)" fill="#f2f2f2"/>
      <path id="Path_1112" data-name="Path 1112" d="M750.642,552.459a1.492,1.492,0,1,1-1.493,1.493A1.492,1.492,0,0,1,750.642,552.459Z" transform="translate(-515.619 -333.193)" fill="#f2f2f2"/>
      <path id="Path_1113" data-name="Path 1113" d="M750.642,572.419a1.491,1.491,0,1,1-1.493,1.491A1.491,1.491,0,0,1,750.642,572.419Z" transform="translate(-515.619 -325.744)" fill="#f2f2f2"/>
      <path id="Path_1114" data-name="Path 1114" d="M750.642,592.379a1.491,1.491,0,1,1-1.493,1.491A1.491,1.491,0,0,1,750.642,592.379Z" transform="translate(-515.619 -318.296)" fill="#f2f2f2"/>
      <path id="Path_1115" data-name="Path 1115" d="M750.642,612.338a1.492,1.492,0,1,1-1.493,1.491A1.491,1.491,0,0,1,750.642,612.338Z" transform="translate(-515.619 -310.847)" fill="#f2f2f2"/>
      <path id="Path_1116" data-name="Path 1116" d="M750.642,632.3a1.491,1.491,0,1,1-1.493,1.491A1.491,1.491,0,0,1,750.642,632.3Z" transform="translate(-515.619 -303.398)" fill="#383838"/>
      <circle id="Ellipse_21" data-name="Ellipse 21" cx="1.492" cy="1.492" r="1.492" transform="translate(210.177)" fill="#f2f2f2"/>
      <path id="Path_1117" data-name="Path 1117" d="M733.634,412.742a1.492,1.492,0,1,1-1.491,1.491A1.491,1.491,0,0,1,733.634,412.742Z" transform="translate(-521.966 -385.334)" fill="#f2f2f2"/>
      <path id="Path_1118" data-name="Path 1118" d="M733.634,432.7a1.491,1.491,0,1,1-1.491,1.491A1.491,1.491,0,0,1,733.634,432.7Z" transform="translate(-521.966 -377.885)" fill="#f2f2f2"/>
      <path id="Path_1119" data-name="Path 1119" d="M733.634,452.661a1.492,1.492,0,1,1-1.491,1.491A1.492,1.492,0,0,1,733.634,452.661Z" transform="translate(-521.966 -370.437)" fill="#f2f2f2"/>
      <circle id="Ellipse_22" data-name="Ellipse 22" cx="1.492" cy="1.492" r="1.492" transform="translate(210.177 109.633)" fill="#f2f2f2"/>
      <circle id="Ellipse_23" data-name="Ellipse 23" cx="1.492" cy="1.492" r="1.492" transform="translate(210.177 137.041)" fill="#f2f2f2"/>
      <circle id="Ellipse_24" data-name="Ellipse 24" cx="1.492" cy="1.492" r="1.492" transform="translate(210.177 164.45)" fill="#f2f2f2"/>
      <circle id="Ellipse_25" data-name="Ellipse 25" cx="1.492" cy="1.492" r="1.492" transform="translate(210.177 191.858)" fill="#f2f2f2"/>
      <circle id="Ellipse_26" data-name="Ellipse 26" cx="1.492" cy="1.492" r="1.492" transform="translate(210.177 219.266)" fill="#f2f2f2"/>
      <circle id="Ellipse_27" data-name="Ellipse 27" cx="1.492" cy="1.492" r="1.492" transform="translate(210.177 246.674)" fill="#f2f2f2"/>
      <circle id="Ellipse_28" data-name="Ellipse 28" cx="1.492" cy="1.492" r="1.492" transform="translate(210.177 274.083)" fill="#f2f2f2"/>
      <path id="Path_1120" data-name="Path 1120" d="M733.634,612.338a1.492,1.492,0,1,1-1.491,1.491A1.491,1.491,0,0,1,733.634,612.338Z" transform="translate(-521.966 -310.847)" fill="#f2f2f2"/>
      <path id="Path_1121" data-name="Path 1121" d="M733.634,632.3a1.491,1.491,0,1,1-1.491,1.491A1.491,1.491,0,0,1,733.634,632.3Z" transform="translate(-521.966 -303.398)" fill="#383838"/>
      <path id="Path_1122" data-name="Path 1122" d="M716.629,392.783a1.491,1.491,0,1,1-1.493,1.491A1.491,1.491,0,0,1,716.629,392.783Z" transform="translate(-528.312 -392.782)" fill="#f2f2f2"/>
      <path id="Path_1123" data-name="Path 1123" d="M716.629,412.742a1.492,1.492,0,1,1-1.493,1.491A1.491,1.491,0,0,1,716.629,412.742Z" transform="translate(-528.312 -385.334)" fill="#f2f2f2"/>
      <path id="Path_1124" data-name="Path 1124" d="M716.629,432.7a1.491,1.491,0,1,1-1.493,1.491A1.491,1.491,0,0,1,716.629,432.7Z" transform="translate(-528.312 -377.885)" fill="#f2f2f2"/>
      <path id="Path_1125" data-name="Path 1125" d="M716.629,452.661a1.492,1.492,0,1,1-1.493,1.491A1.492,1.492,0,0,1,716.629,452.661Z" transform="translate(-528.312 -370.437)" fill="#f2f2f2"/>
      <path id="Path_1126" data-name="Path 1126" d="M716.629,472.621a1.491,1.491,0,1,1-1.493,1.491A1.491,1.491,0,0,1,716.629,472.621Z" transform="translate(-528.312 -362.988)" fill="#f2f2f2"/>
      <path id="Path_1127" data-name="Path 1127" d="M716.629,492.581a1.491,1.491,0,1,1-1.493,1.491A1.491,1.491,0,0,1,716.629,492.581Z" transform="translate(-528.312 -355.539)" fill="#f2f2f2"/>
      <path id="Path_1128" data-name="Path 1128" d="M716.629,512.54a1.491,1.491,0,1,1-1.493,1.491A1.491,1.491,0,0,1,716.629,512.54Z" transform="translate(-528.312 -348.091)" fill="#f2f2f2"/>
      <path id="Path_1129" data-name="Path 1129" d="M716.629,532.5a1.491,1.491,0,1,1-1.493,1.491A1.491,1.491,0,0,1,716.629,532.5Z" transform="translate(-528.312 -340.642)" fill="#f2f2f2"/>
      <path id="Path_1130" data-name="Path 1130" d="M716.629,552.459a1.492,1.492,0,1,1-1.493,1.493A1.492,1.492,0,0,1,716.629,552.459Z" transform="translate(-528.312 -333.193)" fill="#f2f2f2"/>
      <path id="Path_1131" data-name="Path 1131" d="M716.629,572.419a1.491,1.491,0,1,1-1.493,1.491A1.491,1.491,0,0,1,716.629,572.419Z" transform="translate(-528.312 -325.744)" fill="#f2f2f2"/>
      <path id="Path_1132" data-name="Path 1132" d="M716.629,592.379a1.491,1.491,0,1,1-1.493,1.491A1.491,1.491,0,0,1,716.629,592.379Z" transform="translate(-528.312 -318.296)" fill="#f2f2f2"/>
      <path id="Path_1133" data-name="Path 1133" d="M716.629,612.338a1.492,1.492,0,1,1-1.493,1.491A1.491,1.491,0,0,1,716.629,612.338Z" transform="translate(-528.312 -310.847)" fill="#f2f2f2"/>
      <path id="Path_1134" data-name="Path 1134" d="M716.629,632.3a1.491,1.491,0,1,1-1.493,1.491A1.491,1.491,0,0,1,716.629,632.3Z" transform="translate(-528.312 -303.398)" fill="#f2f2f2"/>
      <path id="Path_1135" data-name="Path 1135" d="M699.621,612.338a1.492,1.492,0,1,1-1.491,1.491A1.491,1.491,0,0,1,699.621,612.338Z" transform="translate(-534.659 -310.847)" fill="#f2f2f2"/>
      <path id="Path_1136" data-name="Path 1136" d="M699.621,632.3a1.491,1.491,0,1,1-1.491,1.491A1.491,1.491,0,0,1,699.621,632.3Z" transform="translate(-534.659 -303.398)" fill="#f2f2f2"/>
      <path id="Path_1137" data-name="Path 1137" d="M682.615,612.338a1.492,1.492,0,1,1-1.491,1.491A1.491,1.491,0,0,1,682.615,612.338Z" transform="translate(-541.005 -310.847)" fill="#f2f2f2"/>
      <path id="Path_1138" data-name="Path 1138" d="M682.615,632.3a1.491,1.491,0,1,1-1.491,1.491A1.491,1.491,0,0,1,682.615,632.3Z" transform="translate(-541.005 -303.398)" fill="#f2f2f2"/>
      <path id="Path_1139" data-name="Path 1139" d="M580.576,612.338a1.492,1.492,0,1,1-1.491,1.491A1.491,1.491,0,0,1,580.576,612.338Z" transform="translate(-579.085 -310.847)" fill="#f2f2f2"/>
      <path id="Path_1140" data-name="Path 1140" d="M580.576,632.3a1.491,1.491,0,1,1-1.491,1.491A1.491,1.491,0,0,1,580.576,632.3Z" transform="translate(-579.085 -303.398)" fill="#f2f2f2"/>
    </g>
    <g id="Group_101" data-name="Group 101" transform="translate(1260.907 281.623)">
      <path id="Path_1141" data-name="Path 1141" d="M618.17,217.18A36.63,36.63,0,1,0,654.8,253.81,36.672,36.672,0,0,0,618.17,217.18Zm0,70.486a33.856,33.856,0,1,1,33.855-33.856A33.894,33.894,0,0,1,618.17,287.666Z" transform="translate(-581.54 -217.18)" fill="#f2f2f2"/>
      <path id="Path_1142" data-name="Path 1142" d="M612.767,231.658a16.749,16.749,0,1,0,16.749,16.749A16.767,16.767,0,0,0,612.767,231.658Zm0,30.725a13.976,13.976,0,1,1,13.975-13.976A13.991,13.991,0,0,1,612.767,262.383Z" transform="translate(-576.137 -211.777)" fill="#f2f2f2"/>
    </g>
    <g id="Group_102" data-name="Group 102" transform="translate(135.167 479.156)">
      <path id="Path_1143" data-name="Path 1143" d="M105.685,426.816l-5.854-9.221-5.853,9.221Z" transform="translate(-93.978 -305.454)" fill="#949494"/>
      <path id="Path_1144" data-name="Path 1144" d="M105.685,461.527l-5.854-9.221-5.853,9.221Z" transform="translate(-93.978 -292.5)" fill="#949494"/>
      <path id="Path_1145" data-name="Path 1145" d="M105.685,345.151l-5.854-9.221-5.853,9.221Z" transform="translate(-93.978 -335.93)" fill="#949494"/>
      <path id="Path_1146" data-name="Path 1146" d="M105.685,379.862l-5.854-9.221-5.853,9.221Z" transform="translate(-93.978 -322.976)" fill="#949494"/>
      <path id="Path_1147" data-name="Path 1147" d="M105.685,394.571l-5.854-9.221-5.853,9.221Z" transform="translate(-93.978 -317.487)" fill="#949494"/>
    </g>
    <g id="Group_103" data-name="Group 103" transform="translate(1471.041 194.115)">
      <path id="Path_1148" data-name="Path 1148" d="M718,171.354l-9.221,5.854L718,183.061Z" transform="translate(-596.636 -171.354)" fill="#fdf4ef"/>
      <path id="Path_1149" data-name="Path 1149" d="M752.71,171.354l-9.221,5.854,9.221,5.853Z" transform="translate(-583.683 -171.354)" fill="#fdf4ef"/>
      <path id="Path_1150" data-name="Path 1150" d="M636.334,171.354l-9.221,5.854,9.221,5.853Z" transform="translate(-627.113 -171.354)" fill="#fdf4ef"/>
      <path id="Path_1151" data-name="Path 1151" d="M671.045,171.354l-9.221,5.854,9.221,5.853Z" transform="translate(-614.159 -171.354)" fill="#fdf4ef"/>
      <path id="Path_1152" data-name="Path 1152" d="M685.754,171.354l-9.221,5.854,9.221,5.853Z" transform="translate(-608.67 -171.354)" fill="#fdf4ef"/>
    </g>
    <path id="Path_1153" data-name="Path 1153" d="M119.649,657.715a2.231,2.231,0,0,1-2.181-2.3h0a2.248,2.248,0,0,1,2.3-2.192h0a2.25,2.25,0,0,1,2.181,2.315h0a2.249,2.249,0,0,1-2.248,2.181h-.056Zm6.845-2.315a2.249,2.249,0,0,1,2.046-2.428h0a2.252,2.252,0,0,1,2.439,2.045h0a2.269,2.269,0,0,1-2.057,2.439h0v-.011h0a1.051,1.051,0,0,1-.191.011h0A2.249,2.249,0,0,1,126.494,655.4Zm-16.1,1.539a2.242,2.242,0,0,1-1.91-2.54h0a2.244,2.244,0,0,1,2.539-1.911h0a2.248,2.248,0,0,1,1.911,2.542h0a2.25,2.25,0,0,1-2.226,1.933h0A2.7,2.7,0,0,1,110.4,656.939Zm25.066-2.562a2.252,2.252,0,0,1,1.765-2.642h0a2.253,2.253,0,0,1,2.653,1.754h0a2.268,2.268,0,0,1-1.765,2.653h0a2.962,2.962,0,0,1-.449.044h0A2.264,2.264,0,0,1,135.464,654.377Zm-34.17.731h0a2.246,2.246,0,0,1-1.608-2.742h0a2.246,2.246,0,0,1,2.742-1.608h0a2.245,2.245,0,0,1,1.608,2.742h0a2.261,2.261,0,0,1-2.17,1.686h0A2.565,2.565,0,0,1,101.293,655.107Zm42.971-2.777A2.256,2.256,0,0,1,145.7,649.5h.011a2.255,2.255,0,0,1,2.833,1.45h0a2.251,2.251,0,0,1-1.45,2.832h0a2.424,2.424,0,0,1-.7.1h0A2.248,2.248,0,0,1,144.265,652.331Zm-51.817-.091a2.267,2.267,0,0,1-1.283-2.91h0a2.261,2.261,0,0,1,2.924-1.281h-.012a2.249,2.249,0,0,1,1.283,2.911h0a2.243,2.243,0,0,1-2.091,1.438h0A2.348,2.348,0,0,1,92.447,652.24Zm60.327-2.944a2.242,2.242,0,0,1,1.112-2.978h0a2.251,2.251,0,0,1,2.98,1.1h0a2.267,2.267,0,0,1-1.114,2.989h0a2.268,2.268,0,0,1-.932.2h0A2.26,2.26,0,0,1,152.774,649.3ZM84,648.385h0a2.252,2.252,0,0,1-.943-3.035h0a2.24,2.24,0,0,1,3.033-.945h0a2.253,2.253,0,0,1,.945,3.036h0a2.259,2.259,0,0,1-1.99,1.2h0A2.146,2.146,0,0,1,84,648.385Zm76.863-3.08a2.259,2.259,0,0,1,.764-3.091h0a2.256,2.256,0,0,1,3.091.753h0a2.259,2.259,0,0,1-.763,3.091h0a2.179,2.179,0,0,1-1.158.327h0A2.257,2.257,0,0,1,160.868,645.305Zm-84.82-1.721a2.252,2.252,0,0,1-.585-3.124h0a2.254,2.254,0,0,1,3.125-.585h0A2.253,2.253,0,0,1,79.171,643h0a2.26,2.26,0,0,1-1.854.978h0A2.22,2.22,0,0,1,76.047,643.585Zm92.418-3.18a2.23,2.23,0,0,1,.405-3.147h0a2.232,2.232,0,0,1,3.147.405h0a2.23,2.23,0,0,1-.405,3.147h0a2.165,2.165,0,0,1-1.37.471h0A2.228,2.228,0,0,1,168.466,640.4ZM68.7,637.92a2.249,2.249,0,0,1-.224-3.182h0a2.254,2.254,0,0,1,3.169-.224h0a2.255,2.255,0,0,1,.225,3.169h0a2.237,2.237,0,0,1-1.7.776h0A2.271,2.271,0,0,1,68.7,637.92Zm106.75-3.238a2.253,2.253,0,0,1,.045-3.18h0a2.254,2.254,0,0,1,3.182.044h0a2.253,2.253,0,0,1-.045,3.182h0a2.234,2.234,0,0,1-1.563.641h0A2.293,2.293,0,0,1,175.446,634.682ZM62.03,631.446a2.255,2.255,0,0,1,.136-3.182h0a2.242,2.242,0,0,1,3.169.147h0a2.24,2.24,0,0,1-.124,3.169h0a2.282,2.282,0,0,1-1.53.6h0A2.246,2.246,0,0,1,62.03,631.446Zm119.712-3.237a2.26,2.26,0,0,1-.316-3.171h0a2.261,2.261,0,0,1,3.171-.314h0a2.259,2.259,0,0,1,.314,3.169h0a2.261,2.261,0,0,1-1.743.821h0A2.308,2.308,0,0,1,181.742,628.209Zm-125.59-3.945a2.245,2.245,0,0,1,.483-3.136h0a2.246,2.246,0,0,1,3.147.494h0a2.245,2.245,0,0,1-.494,3.135h0a2.235,2.235,0,0,1-1.326.427h0A2.226,2.226,0,0,1,56.151,624.264Zm131.108-3.216a2.235,2.235,0,0,1-.662-3.1h0a2.237,2.237,0,0,1,3.1-.674h0a2.242,2.242,0,0,1,.674,3.1h0a2.238,2.238,0,0,1-1.9,1.034h0A2.219,2.219,0,0,1,187.259,621.048ZM51.116,616.462a2.233,2.233,0,0,1,.843-3.057h0a2.25,2.25,0,0,1,3.069.843h0a2.253,2.253,0,0,1-.843,3.057h0a2.27,2.27,0,0,1-1.114.3h0A2.246,2.246,0,0,1,51.116,616.462Zm140.82-3.146a2.248,2.248,0,0,1-1.023-3.013h0a2.261,2.261,0,0,1,3.013-1.023h0a2.251,2.251,0,0,1,1.023,3.013h0a2.253,2.253,0,0,1-2.024,1.258h0A2.287,2.287,0,0,1,191.936,613.316ZM47,608.146a2.269,2.269,0,0,1,1.192-2.958h0a2.272,2.272,0,0,1,2.955,1.2h0a2.249,2.249,0,0,1-1.2,2.945h0a2.192,2.192,0,0,1-.877.18h0A2.269,2.269,0,0,1,47,608.146ZM195.69,605.1a2.251,2.251,0,0,1-1.361-2.878h0a2.254,2.254,0,0,1,2.878-1.359h0a2.254,2.254,0,0,1,1.359,2.878h0a2.242,2.242,0,0,1-2.113,1.494h0A2.3,2.3,0,0,1,195.69,605.1ZM43.878,599.4a2.241,2.241,0,0,1,1.516-2.788h0a2.25,2.25,0,0,1,2.8,1.517h0a2.25,2.25,0,0,1-1.528,2.788h0a2.091,2.091,0,0,1-.63.089h0A2.243,2.243,0,0,1,43.878,599.4Zm154.6-2.9a2.248,2.248,0,0,1-1.675-2.7h0a2.247,2.247,0,0,1,2.7-1.674h0a2.241,2.241,0,0,1,1.675,2.7h0A2.234,2.234,0,0,1,199,596.556h0A2.062,2.062,0,0,1,198.478,596.5Zm-156.7-6.148a2.244,2.244,0,0,1,1.832-2.6h0a2.245,2.245,0,0,1,2.6,1.832h0a2.246,2.246,0,0,1-1.832,2.6h0a2.368,2.368,0,0,1-.383.033h0A2.242,2.242,0,0,1,41.775,590.352Zm158.489-2.709a2.233,2.233,0,0,1-1.977-2.484h0a2.24,2.24,0,0,1,2.484-1.979h0a2.238,2.238,0,0,1,1.977,2.484h0a2.246,2.246,0,0,1-2.225,2h0A2.068,2.068,0,0,1,200.265,587.643Zm-159.558-6.52v.011h0a2.26,2.26,0,0,1,2.124-2.383h0a2.256,2.256,0,0,1,2.371,2.123h0a2.257,2.257,0,0,1-2.113,2.373h-.135A2.261,2.261,0,0,1,40.707,581.123ZM198.781,576.4v-.091h0v-.078h0a2.238,2.238,0,0,1,2.237-2.248h0a2.257,2.257,0,0,1,2.259,2.248h0v.078h0v.091h0a2.255,2.255,0,0,1-2.248,2.248h0A2.247,2.247,0,0,1,198.781,576.4ZM42.82,574.221a2.257,2.257,0,0,1-2.113-2.372h0a2.242,2.242,0,0,1,2.361-2.126h0a2.253,2.253,0,0,1,2.124,2.373h0a2.254,2.254,0,0,1-2.248,2.124H42.82Zm155.444-6.745a2.252,2.252,0,0,1,1.979-2.5h0a2.241,2.241,0,0,1,2.484,1.979h0a2.225,2.225,0,0,1-1.966,2.484h0a2.025,2.025,0,0,1-.26.023h0A2.249,2.249,0,0,1,198.264,567.476Zm-154.68-2.259a2.259,2.259,0,0,1-1.843-2.6h0a2.261,2.261,0,0,1,2.6-1.844h0a2.244,2.244,0,0,1,1.832,2.6h0a2.243,2.243,0,0,1-2.214,1.877h0A2.009,2.009,0,0,1,43.584,565.217Zm153.174-6.384a2.252,2.252,0,0,1,1.686-2.7h0a2.253,2.253,0,0,1,2.7,1.675h0a2.247,2.247,0,0,1-1.675,2.7h0a2.092,2.092,0,0,1-.516.069h0A2.267,2.267,0,0,1,196.757,558.833ZM45.348,556.36a2.259,2.259,0,0,1-1.528-2.789h0a2.258,2.258,0,0,1,2.788-1.527h0a2.253,2.253,0,0,1,1.541,2.786h0a2.269,2.269,0,0,1-2.17,1.619h0A2.511,2.511,0,0,1,45.348,556.36Zm148.925-5.935a2.254,2.254,0,0,1,1.361-2.878h0a2.258,2.258,0,0,1,2.877,1.361h0a2.241,2.241,0,0,1-1.359,2.866h0a2.218,2.218,0,0,1-.765.136h0A2.26,2.26,0,0,1,194.273,550.425ZM48.137,547.761a2.247,2.247,0,0,1-1.2-2.945h0a2.249,2.249,0,0,1,2.945-1.2h0a2.25,2.25,0,0,1,1.2,2.944h0a2.237,2.237,0,0,1-2.068,1.383h0A2.186,2.186,0,0,1,48.137,547.761Zm142.709-5.406a2.246,2.246,0,0,1,1.012-3.013h0a2.245,2.245,0,0,1,3.011,1.011h0v.011h0a2.233,2.233,0,0,1-1.012,3h0a2.278,2.278,0,0,1-1,.238h0A2.256,2.256,0,0,1,190.846,542.355ZM51.879,539.544a2.251,2.251,0,0,1-.843-3.069h0a2.248,2.248,0,0,1,3.058-.854h0a2.247,2.247,0,0,1,.854,3.058v.011a2.253,2.253,0,0,1-1.966,1.136h0A2.3,2.3,0,0,1,51.879,539.544Zm134.627-4.821a2.243,2.243,0,0,1,.674-3.1h0a2.248,2.248,0,0,1,3.1.663h0a2.249,2.249,0,0,1-.665,3.113h0a2.2,2.2,0,0,1-1.214.361h0A2.255,2.255,0,0,1,186.507,534.723ZM56.556,531.8a2.239,2.239,0,0,1-.507-3.136h0a2.26,2.26,0,0,1,3.147-.507h0a2.258,2.258,0,0,1,.5,3.147h0a2.236,2.236,0,0,1-1.822.923h0A2.194,2.194,0,0,1,56.556,531.8Zm124.78-4.159a2.238,2.238,0,0,1,.314-3.16h0a2.244,2.244,0,0,1,3.158.3h0a2.256,2.256,0,0,1-.3,3.168h0a2.3,2.3,0,0,1-1.427.507h0A2.262,2.262,0,0,1,181.337,527.641Zm-119.272-3a2.24,2.24,0,0,1-.136-3.169h0a2.241,2.241,0,0,1,3.171-.147h0a2.256,2.256,0,0,1,.146,3.182h0a2.266,2.266,0,0,1-1.663.729h0A2.2,2.2,0,0,1,62.064,524.639Zm113.326-3.451a2.24,2.24,0,0,1-.045-3.171h0a2.23,2.23,0,0,1,3.169-.055h0a2.242,2.242,0,0,1,.056,3.18h0a2.272,2.272,0,0,1-1.619.687h0A2.23,2.23,0,0,1,175.391,521.188ZM68.359,518.165a2.258,2.258,0,0,1,.213-3.182h0V515h0a2.243,2.243,0,0,1,3.171.213h0a2.247,2.247,0,0,1-.214,3.171h0a2.246,2.246,0,0,1-1.472.551h0A2.244,2.244,0,0,1,68.359,518.165Zm100.388-2.708a2.243,2.243,0,0,1-.405-3.149h0a2.243,2.243,0,0,1,3.147-.416h0a2.244,2.244,0,0,1,.416,3.149h0a2.235,2.235,0,0,1-1.788.876h0A2.274,2.274,0,0,1,168.747,515.457Zm-93.408-3.025a2.241,2.241,0,0,1,.574-3.125h0a2.256,2.256,0,0,1,3.135.575h0a2.252,2.252,0,0,1-.584,3.124h0a2.246,2.246,0,0,1-1.27.405h0A2.262,2.262,0,0,1,75.339,512.432Zm86.169-1.921H161.5a2.259,2.259,0,0,1-.763-3.091h0a2.258,2.258,0,0,1,3.091-.765h0a2.259,2.259,0,0,1,.763,3.091h0a2.254,2.254,0,0,1-1.933,1.09h0A2.241,2.241,0,0,1,161.508,510.51Zm-78.582-2.98a2.233,2.233,0,0,1,.934-3.033h0a2.244,2.244,0,0,1,3.035.92h0a2.25,2.25,0,0,1-.932,3.047h0a2.216,2.216,0,0,1-1.046.258h0A2.238,2.238,0,0,1,82.926,507.531Zm70.815-1.112a2.24,2.24,0,0,1-1.112-2.978h0a2.24,2.24,0,0,1,2.966-1.114h.012a2.252,2.252,0,0,1,1.112,2.98h0a2.253,2.253,0,0,1-2.046,1.314h0A2.291,2.291,0,0,1,153.741,506.418Zm-62.722-2.889a2.25,2.25,0,0,1,1.281-2.911h0a2.252,2.252,0,0,1,2.911,1.27h0A2.249,2.249,0,0,1,93.93,504.8h0a2.083,2.083,0,0,1-.82.158h0A2.243,2.243,0,0,1,91.019,503.529Zm54.539-.28a2.251,2.251,0,0,1-1.45-2.833h0a2.251,2.251,0,0,1,2.833-1.45h0a2.254,2.254,0,0,1,1.45,2.833h0a2.262,2.262,0,0,1-2.148,1.561h0A2.087,2.087,0,0,1,145.558,503.249Zm-46.029-2.766a2.237,2.237,0,0,1,1.6-2.742h0a2.245,2.245,0,0,1,2.753,1.6h0a2.245,2.245,0,0,1-1.607,2.742h0a2.01,2.01,0,0,1-.574.08h0A2.244,2.244,0,0,1,99.529,500.483Zm37.532.551v.011a2.268,2.268,0,0,1-1.766-2.653h0a2.253,2.253,0,0,1,2.653-1.763h0a2.255,2.255,0,0,1,1.765,2.641h0a2.255,2.255,0,0,1-2.2,1.81h0A2.147,2.147,0,0,1,137.061,501.034Zm-28.742-2.6a2.256,2.256,0,0,1,1.91-2.551h0a2.238,2.238,0,0,1,2.54,1.911h0a2.244,2.244,0,0,1-1.9,2.54h0a3.265,3.265,0,0,1-.327.022h0A2.256,2.256,0,0,1,108.319,498.437Zm20.064,1.383a2.26,2.26,0,0,1-2.057-2.428h0a2.245,2.245,0,0,1,2.428-2.057h0a2.252,2.252,0,0,1,2.057,2.428h0a2.258,2.258,0,0,1-2.248,2.057h-.18ZM117.288,497.4a2.248,2.248,0,0,1,2.181-2.315h0a2.24,2.24,0,0,1,2.315,2.181h0a2.246,2.246,0,0,1-2.181,2.315h-.067A2.255,2.255,0,0,1,117.288,497.4Z" transform="translate(21.309 243.367)" fill="#e7e7e7"/>
    <rect id="Rectangle_117" data-name="Rectangle 117" width="107.641" height="107.641" transform="translate(1032.334 157.199)" fill="#242424"/>
    <path id="Path_1154" data-name="Path 1154" d="M559.927,235.522H478.376V153.97h81.551Zm-80.178-1.373h78.8V155.343h-78.8Z" transform="translate(565.057 16.273)" fill="#fdf4ef"/>
    <path id="Path_1155" data-name="Path 1155" d="M549.926,245.523H468.375V163.971h81.551Zm-80.178-1.373h78.8V165.344h-78.8Z" transform="translate(553.635 20.006)" fill="#fdf4ef"/>
    <path id="Path_1156" data-name="Path 1156" d="M761.85,775.78c-80.24,0-145.52-65.28-145.52-145.518s65.28-145.519,145.52-145.519,145.518,65.28,145.518,145.519S842.09,775.78,761.85,775.78Zm0-289.664c-79.483,0-144.146,64.663-144.146,144.146S682.368,774.406,761.85,774.406,906,709.743,906,630.261,841.332,486.115,761.85,486.115Z" transform="translate(839.904 272.452)" fill="#fdf4ef"/>
    <rect id="Rectangle_118" data-name="Rectangle 118" width="314.624" height="8.338" transform="translate(21.666 157.199)" fill="#fdf4ef"/>
    <g id="Group_114" data-name="Group 114" transform="translate(1171.259 777.487)">
      <g id="Group_104" data-name="Group 104" transform="translate(61.494 61.494)">
        <path id="Path_1157" data-name="Path 1157" d="M604.088,570.493V592.02H582.561V570.493Zm-1.03,20.5V571.523H583.591v19.468Z" transform="translate(-582.561 -570.493)" fill="#e7e7e7"/>
      </g>
      <g id="Group_105" data-name="Group 105" transform="translate(40.997 40.995)">
        <path id="Path_1158" data-name="Path 1158" d="M589.161,555.565v21.529H567.634V555.565Zm-1.03,20.5V556.595H568.664v19.469Z" transform="translate(-567.634 -555.565)" fill="#e7e7e7"/>
      </g>
      <g id="Group_106" data-name="Group 106" transform="translate(40.997 20.498)">
        <path id="Path_1159" data-name="Path 1159" d="M589.161,540.638v21.527H567.634V540.638Zm-1.03,20.5V541.668H568.664v19.468Z" transform="translate(-567.634 -540.638)" fill="#e7e7e7"/>
      </g>
      <g id="Group_107" data-name="Group 107" transform="translate(20.499 40.995)">
        <path id="Path_1160" data-name="Path 1160" d="M574.234,555.565v21.529H552.707V555.565Zm-1.03,20.5V556.595H553.737v19.469Z" transform="translate(-552.707 -555.565)" fill="#e7e7e7"/>
      </g>
      <g id="Group_108" data-name="Group 108" transform="translate(61.494 40.995)">
        <path id="Path_1161" data-name="Path 1161" d="M604.088,555.565v21.529H582.561V555.565Zm-1.03,20.5V556.595H583.591v19.469Z" transform="translate(-582.561 -555.565)" fill="#e7e7e7"/>
      </g>
      <g id="Group_109" data-name="Group 109" transform="translate(61.494 20.498)">
        <path id="Path_1162" data-name="Path 1162" d="M604.088,540.638v21.527H582.561V540.638Zm-1.03,20.5V541.668H583.591v19.468Z" transform="translate(-582.561 -540.638)" fill="#e7e7e7"/>
      </g>
      <g id="Group_110" data-name="Group 110" transform="translate(61.494)">
        <path id="Path_1163" data-name="Path 1163" d="M604.088,525.711v21.528H582.561V525.711Zm-1.03,20.5V526.741H583.591v19.468Z" transform="translate(-582.561 -525.711)" fill="#e7e7e7"/>
      </g>
      <g id="Group_111" data-name="Group 111" transform="translate(40.997 61.494)">
        <path id="Path_1164" data-name="Path 1164" d="M589.161,570.493V592.02H567.634V570.493Zm-1.03,20.5V571.523H568.664v19.468Z" transform="translate(-567.634 -570.493)" fill="#e7e7e7"/>
      </g>
      <g id="Group_112" data-name="Group 112" transform="translate(20.499 61.494)">
        <path id="Path_1165" data-name="Path 1165" d="M574.234,570.493V592.02H552.707V570.493Zm-1.03,20.5V571.523H553.737v19.468Z" transform="translate(-552.707 -570.493)" fill="#e7e7e7"/>
      </g>
      <g id="Group_113" data-name="Group 113" transform="translate(0 61.494)">
        <path id="Path_1166" data-name="Path 1166" d="M559.308,570.493V592.02H537.779V570.493Zm-1.03,20.5V571.523H538.809v19.468Z" transform="translate(-537.779 -570.493)" fill="#e7e7e7"/>
      </g>
    </g>
    <path id="Path_1167" data-name="Path 1167" d="M492.066,537.579h-84.95v84.948L438.5,653.309h84.348V568.962Zm28.728,32.233v79.994l-28.728-28.73V540.509Zm-111.626-30.18h80.845v80.844H409.168Zm.879,82.9h80.568l28.73,28.73h-80Z" transform="translate(494.333 263.314)" fill="#949494"/>
    <g id="Group_115" data-name="Group 115" transform="translate(644.666 708.157)">
      <path id="Path_1168" data-name="Path 1168" d="M307.674,619.924l27.542-27.542,27.542,27.542h7.353l-34.895-34.895-34.9,34.895Z" transform="translate(-287.102 -433.22)" fill="#383838"/>
      <path id="Path_1169" data-name="Path 1169" d="M290.694,601.037v7.353l48.114-48.114,48.114,48.114v-7.353l-48.114-48.114Z" transform="translate(-290.694 -445.201)" fill="#383838"/>
      <path id="Path_1170" data-name="Path 1170" d="M290.694,617.09v7.353l48.114-48.114,48.114,48.114V617.09l-48.114-48.114Z" transform="translate(-290.694 -439.211)" fill="#383838"/>
      <path id="Path_1171" data-name="Path 1171" d="M292.225,474.477l-1.531,1.531v7.353l8.884-8.884Z" transform="translate(-290.694 -474.477)" fill="#383838"/>
      <path id="Path_1172" data-name="Path 1172" d="M314.268,474.477l-23.574,23.574V505.4l30.927-30.928Z" transform="translate(-290.694 -474.477)" fill="#383838"/>
      <path id="Path_1173" data-name="Path 1173" d="M323.726,613.933l5.5-5.5,5.5,5.5h7.353l-12.852-12.852-12.852,12.852Z" transform="translate(-281.111 -427.229)" fill="#383838"/>
      <path id="Path_1174" data-name="Path 1174" d="M336.312,474.477l-45.618,45.618v7.353l48.114-48.113,48.114,48.114v-7.354L341.3,474.477Z" transform="translate(-290.694 -474.477)" fill="#383838"/>
      <path id="Path_1175" data-name="Path 1175" d="M338.248,474.477,369.176,505.4v-7.353L345.6,474.477Z" transform="translate(-272.948 -474.477)" fill="#383838"/>
      <path id="Path_1176" data-name="Path 1176" d="M354.3,474.477l8.884,8.885v-7.353l-1.531-1.531Z" transform="translate(-266.957 -474.477)" fill="#383838"/>
      <path id="Path_1177" data-name="Path 1177" d="M290.694,568.932v7.353l48.114-48.114,48.114,48.114v-7.353l-48.114-48.114Z" transform="translate(-290.694 -457.183)" fill="#383838"/>
      <path id="Path_1178" data-name="Path 1178" d="M290.694,584.984v7.353l48.114-48.114,48.114,48.114v-7.353L338.808,536.87Z" transform="translate(-290.694 -451.192)" fill="#383838"/>
      <path id="Path_1179" data-name="Path 1179" d="M290.694,536.826v7.353l48.114-48.114,48.114,48.114v-7.353l-48.114-48.114Z" transform="translate(-290.694 -469.164)" fill="#383838"/>
      <path id="Path_1180" data-name="Path 1180" d="M290.694,552.878v7.353l48.114-48.114,48.114,48.114v-7.353l-48.114-48.114Z" transform="translate(-290.694 -463.174)" fill="#383838"/>
    </g>
    <rect id="Rectangle_119" data-name="Rectangle 119" width="272.522" height="20.051" transform="translate(920.472 727.099)" fill="#939393"/>
    <rect id="Rectangle_120" data-name="Rectangle 120" width="221.775" height="16.716" transform="translate(677.445 959.816)" fill="#fdf4ef"/>
    <path id="Path_1181" data-name="Path 1181" d="M446.406,474.749a19.315,19.315,0,0,1,10.756,3.414,16.277,16.277,0,0,0,18.777,0,18.653,18.653,0,0,1,21.514,0,16.279,16.279,0,0,0,18.776,0,1.235,1.235,0,1,1,1.369,2.056,18.653,18.653,0,0,1-21.514,0,16.277,16.277,0,0,0-18.777,0,18.651,18.651,0,0,1-21.512,0,16.279,16.279,0,0,0-18.777,0,18.653,18.653,0,0,1-21.514,0,1.235,1.235,0,1,1,1.369-2.056,16.279,16.279,0,0,0,18.776,0A19.323,19.323,0,0,1,446.406,474.749Z" transform="translate(499.417 213.535)" fill="#fdf4ef"/>
    <path id="Path_1182" data-name="Path 1182" d="M446.406,488.951a19.315,19.315,0,0,1,10.756,3.414,16.277,16.277,0,0,0,18.777,0,18.653,18.653,0,0,1,21.514,0,16.279,16.279,0,0,0,18.776,0,1.235,1.235,0,1,1,1.369,2.056,18.653,18.653,0,0,1-21.514,0,16.277,16.277,0,0,0-18.777,0,18.651,18.651,0,0,1-21.512,0,16.279,16.279,0,0,0-18.777,0,18.653,18.653,0,0,1-21.514,0,1.235,1.235,0,1,1,1.369-2.056,16.279,16.279,0,0,0,18.776,0A19.323,19.323,0,0,1,446.406,488.951Z" transform="translate(499.417 221.857)" fill="#fdf4ef"/>
    <path id="Path_1183" data-name="Path 1183" d="M446.406,503.153a19.315,19.315,0,0,1,10.756,3.414,16.277,16.277,0,0,0,18.777,0,18.653,18.653,0,0,1,21.514,0,16.279,16.279,0,0,0,18.776,0,1.235,1.235,0,1,1,1.369,2.056,18.653,18.653,0,0,1-21.514,0,16.279,16.279,0,0,0-18.777,0,18.651,18.651,0,0,1-21.512,0,16.282,16.282,0,0,0-18.777,0,18.653,18.653,0,0,1-21.514,0,1.235,1.235,0,1,1,1.369-2.056,16.279,16.279,0,0,0,18.776,0A19.323,19.323,0,0,1,446.406,503.153Z" transform="translate(499.417 230.18)" fill="#fdf4ef"/>
    <path id="Path_1184" data-name="Path 1184" d="M446.406,517.355a19.316,19.316,0,0,1,10.756,3.414,16.277,16.277,0,0,0,18.777,0,18.653,18.653,0,0,1,21.514,0,16.275,16.275,0,0,0,18.776,0,1.235,1.235,0,0,1,1.369,2.056,18.653,18.653,0,0,1-21.514,0,16.279,16.279,0,0,0-18.777,0,18.651,18.651,0,0,1-21.512,0,16.281,16.281,0,0,0-18.777,0,18.653,18.653,0,0,1-21.514,0,1.235,1.235,0,1,1,1.369-2.056,16.277,16.277,0,0,0,18.776,0A19.323,19.323,0,0,1,446.406,517.355Z" transform="translate(499.417 238.502)" fill="#fdf4ef"/>
    <path id="Path_1185" data-name="Path 1185" d="M546.212,412.431a16.749,16.749,0,1,0,16.749,16.749A16.767,16.767,0,0,0,546.212,412.431Zm0,30.725a13.976,13.976,0,1,1,13.975-13.976A13.991,13.991,0,0,1,546.212,443.156Z" transform="translate(605.497 178.918)" fill="#f2f2f2"/>
    <path id="Path_1186" data-name="Path 1186" d="M169.253,600.486A16.749,16.749,0,1,0,186,617.235,16.767,16.767,0,0,0,169.253,600.486Zm0,30.725a13.976,13.976,0,1,1,13.975-13.976A13.991,13.991,0,0,1,169.253,631.211Z" transform="translate(187.352 290.305)" fill="#f2f2f2"/>
    <path id="Path_1187" data-name="Path 1187" d="M32.255,171.467A16.749,16.749,0,1,0,49,188.216,16.769,16.769,0,0,0,32.255,171.467Zm0,30.725A13.976,13.976,0,1,1,46.23,188.216,13.992,13.992,0,0,1,32.255,202.192Z" transform="translate(11.905 22.803)" fill="#f2f2f2"/>
    <g id="Group_116" data-name="Group 116" transform="translate(771.711 225.565)">
      <path id="Path_1188" data-name="Path 1188" d="M469.394,207.825q-1.013-.818-2.046-1.6L352.975,320.6q.781,1.034,1.6,2.047Z" transform="translate(-336.538 -189.79)" fill="#939393"/>
      <path id="Path_1189" data-name="Path 1189" d="M445.224,196.911c-.948-.281-1.9-.54-2.858-.785l-99.493,99.492c.246.957.5,1.91.785,2.859Z" transform="translate(-340.308 -193.56)" fill="#939393"/>
      <path id="Path_1190" data-name="Path 1190" d="M462.618,203.467c-.755-.467-1.517-.917-2.285-1.358L348.856,313.586q.661,1.149,1.359,2.284Z" transform="translate(-338.075 -191.327)" fill="#939393"/>
      <path id="Path_1191" data-name="Path 1191" d="M454.613,199.8q-1.265-.571-2.545-1.1L345.453,305.322q.525,1.279,1.1,2.543Z" transform="translate(-339.345 -192.597)" fill="#939393"/>
      <path id="Path_1192" data-name="Path 1192" d="M434.147,194.951c-1.079-.155-2.163-.284-3.248-.4l-89.6,89.6c.111,1.085.24,2.168.394,3.249Z" transform="translate(-340.893 -194.145)" fill="#939393"/>
      <path id="Path_1193" data-name="Path 1193" d="M474.135,211.9c-.3-.3-.614-.6-.921-.9L357.752,326.466c.3.309.595.618.9.923s.614.6.921.9L475.035,212.826C474.737,212.519,474.44,212.208,474.135,211.9Z" transform="translate(-334.755 -188.007)" fill="#939393"/>
      <path id="Path_1194" data-name="Path 1194" d="M420.856,194.257q-1.909.043-3.816.173l-75.862,75.863q-.132,1.905-.173,3.816Z" transform="translate(-341.005 -194.257)" fill="#939393"/>
      <path id="Path_1195" data-name="Path 1195" d="M342.442,257.391l61.7-61.7q-2.468.554-4.905,1.262L343.7,252.486Q343,254.923,342.442,257.391Z" transform="translate(-340.469 -193.72)" fill="#939393"/>
      <path id="Path_1196" data-name="Path 1196" d="M481.437,258.827q.13-1.907.173-3.816l-79.852,79.851q1.909-.041,3.816-.173Z" transform="translate(-318.333 -171.584)" fill="#939393"/>
      <path id="Path_1197" data-name="Path 1197" d="M484.842,248.5c-.113-1.085-.242-2.168-.4-3.248L392,337.7c1.081.154,2.163.283,3.249.394Z" transform="translate(-321.975 -175.227)" fill="#939393"/>
      <path id="Path_1198" data-name="Path 1198" d="M378.1,202.467a82.264,82.264,0,0,0-28.888,28.889Z" transform="translate(-337.941 -191.193)" fill="#939393"/>
      <path id="Path_1199" data-name="Path 1199" d="M473.976,271.7q.709-2.437,1.262-4.905l-61.7,61.7q2.468-.554,4.905-1.262Z" transform="translate(-313.935 -167.187)" fill="#939393"/>
      <path id="Path_1200" data-name="Path 1200" d="M430.661,312.8a82.295,82.295,0,0,0,28.889-28.888Z" transform="translate(-307.546 -160.798)" fill="#939393"/>
      <path id="Path_1201" data-name="Path 1201" d="M482.973,224.75c-.441-.768-.891-1.53-1.359-2.285l-112.4,112.4q1.133.7,2.284,1.358Z" transform="translate(-330.478 -183.73)" fill="#939393"/>
      <path id="Path_1202" data-name="Path 1202" d="M479.577,218.457q-.781-1.032-1.6-2.046L363.158,331.233q1.013.818,2.047,1.6Z" transform="translate(-332.738 -185.989)" fill="#939393"/>
      <path id="Path_1203" data-name="Path 1203" d="M485.856,239.616c-.246-.957-.5-1.91-.786-2.859L383.505,338.323c.949.281,1.9.538,2.858.785Z" transform="translate(-325.145 -178.396)" fill="#939393"/>
      <path id="Path_1204" data-name="Path 1204" d="M485.126,231.764q-.525-1.281-1.1-2.545L375.967,337.281q1.265.571,2.543,1.1Z" transform="translate(-327.958 -181.21)" fill="#939393"/>
    </g>
    <g id="Group_117" data-name="Group 117" transform="translate(-16.395 906.6)">
      <path id="Path_1205" data-name="Path 1205" d="M48.687,600.421q-.513-.414-1.037-.809l-57.977,57.976c.265.349.533.7.81,1.038Z" transform="translate(18.66 -591.279)" fill="#fdf4ef"/>
      <path id="Path_1206" data-name="Path 1206" d="M36.435,594.889c-.481-.143-.964-.273-1.449-.4l-50.434,50.434c.125.485.255.968.4,1.449Z" transform="translate(16.748 -593.191)" fill="#fdf4ef"/>
      <path id="Path_1207" data-name="Path 1207" d="M45.252,598.213c-.383-.237-.769-.465-1.158-.689l-56.509,56.51q.336.583.689,1.158Z" transform="translate(17.88 -592.059)" fill="#fdf4ef"/>
      <path id="Path_1208" data-name="Path 1208" d="M41.194,596.355c-.427-.192-.857-.379-1.289-.556L-14.14,649.844q.266.649.558,1.289Z" transform="translate(17.237 -592.702)" fill="#fdf4ef"/>
      <path id="Path_1209" data-name="Path 1209" d="M30.82,593.9c-.548-.078-1.1-.143-1.646-.2l-45.417,45.417q.084.824.2,1.646Z" transform="translate(16.452 -593.487)" fill="#fdf4ef"/>
      <path id="Path_1210" data-name="Path 1210" d="M51.091,602.489c-.155-.154-.312-.3-.468-.456L-7.905,660.562c.151.157.3.313.456.467s.31.3.467.456l58.529-58.528C51.395,602.8,51.245,602.644,51.091,602.489Z" transform="translate(19.563 -590.376)" fill="#fdf4ef"/>
      <path id="Path_1211" data-name="Path 1211" d="M24.082,593.544q-.966.021-1.933.088l-38.456,38.456q-.066.966-.088,1.933Z" transform="translate(16.395 -593.544)" fill="#fdf4ef"/>
      <path id="Path_1212" data-name="Path 1212" d="M-15.666,625.547l31.274-31.274q-1.25.28-2.487.638L-15.026,623.06Q-15.387,624.3-15.666,625.547Z" transform="translate(16.667 -593.272)" fill="#fdf4ef"/>
      <path id="Path_1213" data-name="Path 1213" d="M54.792,626.274q.066-.966.088-1.933L14.4,664.818q.968-.021,1.933-.088Z" transform="translate(27.888 -582.051)" fill="#fdf4ef"/>
      <path id="Path_1214" data-name="Path 1214" d="M56.517,621.039c-.056-.549-.121-1.1-.2-1.646L9.454,666.256c.548.078,1.1.144,1.646.2Z" transform="translate(26.042 -583.897)" fill="#fdf4ef"/>
      <path id="Path_1215" data-name="Path 1215" d="M2.411,597.706A41.7,41.7,0,0,0-12.233,612.35Z" transform="translate(17.948 -591.991)" fill="#fdf4ef"/>
      <path id="Path_1216" data-name="Path 1216" d="M51.009,632.8q.36-1.236.64-2.487L20.375,661.588q1.252-.28,2.487-.64Z" transform="translate(30.117 -579.822)" fill="#fdf4ef"/>
      <path id="Path_1217" data-name="Path 1217" d="M29.053,653.636A41.7,41.7,0,0,0,43.7,638.992Z" transform="translate(33.356 -576.583)" fill="#fdf4ef"/>
      <path id="Path_1218" data-name="Path 1218" d="M55.571,609c-.224-.389-.452-.774-.689-1.158L-2.1,664.821q.575.354,1.158.689Z" transform="translate(21.731 -588.208)" fill="#fdf4ef"/>
      <path id="Path_1219" data-name="Path 1219" d="M53.849,605.811q-.4-.523-.809-1.037l-58.205,58.2c.342.277.689.547,1.038.81Z" transform="translate(20.586 -589.353)" fill="#fdf4ef"/>
      <path id="Path_1220" data-name="Path 1220" d="M57.032,616.537c-.125-.485-.255-.968-.4-1.449L5.149,666.573q.721.212,1.449.4Z" transform="translate(24.435 -585.504)" fill="#fdf4ef"/>
      <path id="Path_1221" data-name="Path 1221" d="M56.662,612.556q-.266-.649-.558-1.289L1.328,666.043q.641.29,1.289.558Z" transform="translate(23.009 -586.93)" fill="#fdf4ef"/>
    </g>
    <g id="Group_118" data-name="Group 118" transform="translate(523.27 756.479)">
      <rect id="Rectangle_121" data-name="Rectangle 121" width="19.653" height="19.653" transform="translate(0.686)" fill="#939393"/>
      <path id="Path_1222" data-name="Path 1222" d="M261.468,550.685V571.71H240.442V550.685ZM260.1,570.337V552.058h-18.28v18.278Z" transform="translate(-240.442 -499.527)" fill="#939393"/>
    </g>
    <g id="Group_119" data-name="Group 119" transform="translate(1556.074 237.598)">
      <rect id="Rectangle_122" data-name="Rectangle 122" width="19.653" height="19.653" transform="translate(0 20.34) rotate(-90)" fill="#939393"/>
      <path id="Path_1223" data-name="Path 1223" d="M726.291,203.02h21.025v21.026H726.291Zm19.652,1.373H727.664v18.28h18.278Z" transform="translate(-675.134 -203.02)" fill="#939393"/>
    </g>
    <rect id="Rectangle_123" data-name="Rectangle 123" width="2.746" height="274.019" transform="translate(37.293 293.365)" fill="#939393"/>
    <g id="Group_120" data-name="Group 120" transform="translate(483.186 367.969)">
      <rect id="Rectangle_124" data-name="Rectangle 124" width="71.697" height="2.99" transform="translate(0 0)" fill="#939393"/>
      <rect id="Rectangle_125" data-name="Rectangle 125" width="17.002" height="2.99" transform="translate(118.225)" fill="#939393"/>
    </g>
    <g id="Group_121" data-name="Group 121" transform="translate(743.415 832.149)">
      <rect id="Rectangle_126" data-name="Rectangle 126" width="71.697" height="2.99" transform="translate(63.53)" fill="#939393"/>
      <rect id="Rectangle_127" data-name="Rectangle 127" width="17.003" height="2.99" transform="translate(0 0)" fill="#939393"/>
    </g>
    <g id="Group_122" data-name="Group 122" transform="translate(686.745 533.362)">
      <circle id="Ellipse_29" data-name="Ellipse 29" cx="1.939" cy="1.939" r="1.939" transform="translate(150.418)" fill="#939393"/>
      <circle id="Ellipse_30" data-name="Ellipse 30" cx="1.939" cy="1.939" r="1.939" transform="translate(150.418 25.29)" fill="#939393"/>
      <circle id="Ellipse_31" data-name="Ellipse 31" cx="1.939" cy="1.939" r="1.939" transform="translate(125.348)" fill="#939393"/>
      <circle id="Ellipse_32" data-name="Ellipse 32" cx="1.939" cy="1.939" r="1.939" transform="translate(125.348 25.29)" fill="#939393"/>
      <circle id="Ellipse_33" data-name="Ellipse 33" cx="1.939" cy="1.939" r="1.939" transform="translate(100.278)" fill="#939393"/>
      <circle id="Ellipse_34" data-name="Ellipse 34" cx="1.939" cy="1.939" r="1.939" transform="translate(100.278 25.29)" fill="#939393"/>
      <circle id="Ellipse_35" data-name="Ellipse 35" cx="1.939" cy="1.939" r="1.939" transform="translate(75.209)" fill="#939393"/>
      <circle id="Ellipse_36" data-name="Ellipse 36" cx="1.939" cy="1.939" r="1.939" transform="translate(75.209 25.29)" fill="#939393"/>
      <path id="Path_1224" data-name="Path 1224" d="M342,380.082a1.939,1.939,0,1,1,1.939-1.939A1.94,1.94,0,0,1,342,380.082Z" transform="translate(-289.926 -376.203)" fill="#939393"/>
      <path id="Path_1225" data-name="Path 1225" d="M342,398.5a1.939,1.939,0,1,1,1.939-1.939A1.939,1.939,0,0,1,342,398.5Z" transform="translate(-289.926 -369.331)" fill="#939393"/>
      <circle id="Ellipse_37" data-name="Ellipse 37" cx="1.939" cy="1.939" r="1.939" transform="translate(25.069)" fill="#939393"/>
      <circle id="Ellipse_38" data-name="Ellipse 38" cx="1.939" cy="1.939" r="1.939" transform="translate(25.069 25.29)" fill="#939393"/>
      <path id="Path_1226" data-name="Path 1226" d="M305.491,380.082a1.939,1.939,0,1,1,1.939-1.939A1.94,1.94,0,0,1,305.491,380.082Z" transform="translate(-303.552 -376.203)" fill="#939393"/>
      <path id="Path_1227" data-name="Path 1227" d="M305.491,398.5a1.939,1.939,0,1,1,1.939-1.939A1.939,1.939,0,0,1,305.491,398.5Z" transform="translate(-303.552 -369.331)" fill="#939393"/>
    </g>
    <g id="Group_123" data-name="Group 123" transform="translate(36.064 640.086)">
      <circle id="Ellipse_39" data-name="Ellipse 39" cx="1.939" cy="1.939" r="1.939" transform="translate(0 150.419)" fill="#939393"/>
      <circle id="Ellipse_40" data-name="Ellipse 40" cx="1.939" cy="1.939" r="1.939" transform="translate(0 125.349)" fill="#939393"/>
      <circle id="Ellipse_41" data-name="Ellipse 41" cx="1.939" cy="1.939" r="1.939" transform="translate(0 100.279)" fill="#939393"/>
      <circle id="Ellipse_42" data-name="Ellipse 42" cx="1.939" cy="1.939" r="1.939" transform="translate(0 75.21)" fill="#939393"/>
      <path id="Path_1228" data-name="Path 1228" d="M21.807,473.892a1.939,1.939,0,1,1,1.939,1.939A1.939,1.939,0,0,1,21.807,473.892Z" transform="translate(-21.807 -421.812)" fill="#939393"/>
      <circle id="Ellipse_43" data-name="Ellipse 43" cx="1.939" cy="1.939" r="1.939" transform="translate(0 25.07)" fill="#939393"/>
      <path id="Path_1229" data-name="Path 1229" d="M21.807,437.379a1.939,1.939,0,1,1,1.939,1.939A1.94,1.94,0,0,1,21.807,437.379Z" transform="translate(-21.807 -435.439)" fill="#939393"/>
    </g>
    <rect id="Rectangle_128" data-name="Rectangle 128" width="1633.67" height="686.594" transform="translate(21.666 157.199)" fill="none"/>
  </g>
</svg>
