<svg xmlns="http://www.w3.org/2000/svg" width="1799.741" height="1047.985" viewBox="0 0 1799.741 1047.985">
  <g id="Group_71" data-name="Group 71" transform="translate(-50.706 -15.515)" opacity="0.45">
    <path id="Path_780" data-name="Path 780" d="M106.683,302.122c-14.054.77-21.136-5.308-21.423-19.861-.313-15.547,6.488-22.316,22.034-22.018,14.6.287,20.074,7.5,20.021,21.381C127.261,295.853,120.944,302.808,106.683,302.122Z" transform="translate(174.18 597.494)" fill="#949494"/>
    <path id="Path_781" data-name="Path 781" d="M202.667,153.936c-.462,8.459-6.408,17.858-20.079,18.262-13.623.4-20.355-8.331-21.418-21.609-1.174-14.612,8.076-22.162,20.164-22.512C193.374,127.721,203.124,134.66,202.667,153.936Z" transform="translate(501.215 27.405)" fill="#949494"/>
    <path id="Path_782" data-name="Path 782" d="M168.051,101.759c12.986-.42,22.21,2.763,22.481,16.854.282,14.42-6.27,24.319-21.274,24.1-13.475-.2-19.9-9.452-20.122-22.7C148.918,106.488,156.516,101.28,168.051,101.759Z" transform="translate(449.724 -86.208)" fill="#949494"/>
    <path id="Path_785" data-name="Path 785" d="M88.755,296.733c-2.115,11.912-9.442,19.526-20.993,20.031-12.04.531-19.452-6.046-19.4-19.4.053-12.141,3.517-20.456,17.486-21.1C80.551,275.575,85.583,284.911,88.755,296.733Z" transform="translate(15.079 666.452)" fill="#949494"/>
    <path id="Path_786" data-name="Path 786" d="M356.6,282.37c-.643,9.686-5.887,19.792-19.76,19.255-11.28-.441-20.387-8.294-19.781-20.1.542-10.557,6.275-19.835,19.585-20.228C349.289,260.92,356.621,265.914,356.6,282.37Z" transform="translate(1173.921 601.997)" fill="#949494"/>
    <path id="Path_787" data-name="Path 787" d="M115.7,221.112c-3.39,10.473-6.45,20.94-19.983,20.435-10.876-.409-18.719-6.684-19.144-17.284-.473-11.817,6.286-18.671,19.388-18.873C107.712,205.2,113.275,210.841,115.7,221.112Z" transform="translate(136.648 360.917)" fill="#949494"/>
    <path id="Path_789" data-name="Path 789" d="M122.852,198.189c-11.721-.393-16.36-6.525-16.593-16.838-.255-11.232,3.783-19.245,16.312-18.666,10.914.5,18.9,7.04,18.7,17.917C141.071,191.43,132.851,197.1,122.852,198.189Z" transform="translate(264.75 176.611)" fill="#949494"/>
    <path id="Path_790" data-name="Path 790" d="M413.156,144.915c-1.557,11.11-7.842,17.81-18.825,18.708-10.738.877-16.11-5.074-16.785-15.818-.786-12.465,6.631-18.241,17.247-18.91C404.857,128.258,410.3,135.643,413.156,144.915Z" transform="translate(1434.703 30.827)" fill="#949494"/>
    <path id="Path_793" data-name="Path 793" d="M341.152,258.44c-10.207-.186-14.123-6-14.463-15.063-.282-7.587,1.121-13.783,10.611-14.824,10.876-1.19,17.316,4.267,18.134,14.006C356.178,251.463,348.925,255.979,341.152,258.44Z" transform="translate(1215.447 460.147)" fill="#949494"/>
    <path id="Path_795" data-name="Path 795" d="M356.6,134c-12.231-.186-19.7-2.837-19.792-12.858-.075-8.836,5.9-15.462,14.25-15.977,8.129-.5,14.9,4.091,15.44,14.011C367.012,128.777,363.356,134.271,356.6,134Z" transform="translate(1259.218 -71.544)" fill="#949494"/>
    <path id="Path_796" data-name="Path 796" d="M103.052,129.191c24.909,11.286,26.386,33.256,38.373,47.134,2.232,2.588,3.347,6.434-.531,9.054-5.149,3.47-8.687-.755-10.462-4C121.983,165.917,109.2,152.66,103.052,129.191Z" transform="translate(250.97 32.268)" fill="#535353"/>
    <path id="Path_797" data-name="Path 797" d="M323.709,261.55c-.813,8-4.532,13.9-13.124,13.347-8.778-.568-15.526-6.3-15.478-14.978.048-8.188,4.729-15.281,15.026-14.447C319.915,246.269,323.688,252.38,323.709,261.55Z" transform="translate(1079.362 533.537)" fill="#949494"/>
    <path id="Path_798" data-name="Path 798" d="M380.8,273.282c7.168.308,34.521,44.494,31.795,50.662-2.279,5.149-6.626,5.882-9.76,1.068q-14-21.495-27.066-43.6C372.446,275.758,377.17,274.222,380.8,273.282Z" transform="translate(1422.412 653.777)" fill="#535353"/>
    <path id="Path_799" data-name="Path 799" d="M210.246,307.091c-3.321,8.671-7.933,16.014-17.019,14.739-8.1-1.137-14.713-6.466-12.8-16.609,1.817-9.66,8.5-12.763,17.47-11.79C206.346,294.349,209.71,299.843,210.246,307.091Z" transform="translate(583.282 739.948)" fill="#949494"/>
    <path id="Path_800" data-name="Path 800" d="M257.474,229.433c8.422.159,14.558,3.459,15,11.663.483,8.868-4.713,15.44-13.762,15.228-7.354-.175-16.333-1.365-15.738-12.731C243.479,234.082,248.957,229.853,257.474,229.433Z" transform="translate(854.375 464.643)" fill="#949494"/>
    <path id="Path_801" data-name="Path 801" d="M183.87,212.278c-20.111,21.067-39.037,29.377-60.333,33.569C138.473,230.593,153.7,215.833,183.87,212.278Z" transform="translate(339.328 390.648)" fill="#535353"/>
    <path id="Path_802" data-name="Path 802" d="M78.7,305.637c-15.318-12.848-19.468-33.575-30.132-49.69-.739-1.116,2.056-6.424,2.768-6.328,3.13.4,7.678,1.206,8.868,3.406,8.709,16.115,16.737,32.6,24.973,48.967Z" transform="translate(15.415 551.706)" fill="#535353"/>
    <path id="Path_806" data-name="Path 806" d="M267.164,106.4c21.418,1.413,43.325,1.387,66.034,22.582C304.894,124.646,284.56,120.161,267.164,106.4Z" transform="translate(958.835 -66.036)" fill="#535353"/>
    <path id="Path_807" data-name="Path 807" d="M341.218,212.228c6.673-20.084,16.461-37.9,34.877-49.435C373.156,185.6,358.3,199.72,341.218,212.228Z" transform="translate(1278.253 177.204)" fill="#535353"/>
    <path id="Path_809" data-name="Path 809" d="M160.868,157.261c22.268,9.686,40.339,17.545,62.819,27.326C195.861,189.38,175.7,180.581,160.868,157.261Z" transform="translate(500.348 153.343)" fill="#535353"/>
    <path id="Path_810" data-name="Path 810" d="M257.49,253.685c-.17,22.093-11.3,37.687-29.956,48.718C232.088,283.126,242.124,266.968,257.49,253.685Z" transform="translate(787.899 569.249)" fill="#535353"/>
    <path id="Path_811" data-name="Path 811" d="M305.938,194.6c8.953-.186,12.736,4.373,12.693,12.874-.043,8.762-4.506,12.375-13.007,12.47-9.84.112-14.93-4.9-14.16-14.192C292.134,197.681,297.777,193.776,305.938,194.6Z" transform="translate(1063.324 313.946)" fill="#949494"/>
    <path id="Path_812" data-name="Path 812" d="M200.725,250.413c-1.291-22.321,12.008-38.171,23.809-54.679C225.83,218.061,212.531,233.9,200.725,250.413Z" transform="translate(671.887 319.289)" fill="#535353"/>
    <path id="Path_813" data-name="Path 813" d="M289.981,264.489c-.547,10.111-4.341,16.009-12.635,15.8-9.883-.25-13.177-7.47-12.359-16.338.728-7.911,5.111-13.2,13.66-12.348C287.282,252.476,289.471,259.054,289.981,264.489Z" transform="translate(948.93 559.885)" fill="#949494"/>
    <path id="Path_817" data-name="Path 817" d="M315.844,290.913c19.505,11.471,32.7,24.128,42.443,42.762C340.631,331.8,326.173,317.283,315.844,290.913Z" transform="translate(1168.808 729.825)" fill="#535353"/>
    <path id="Path_818" data-name="Path 818" d="M345,321.04c14.681-13.4,29.361-26.8,43.9-40.073C379.972,299.92,362.358,310.615,345,321.04Z" transform="translate(1294.566 686.925)" fill="#535353"/>
    <path id="Path_820" data-name="Path 820" d="M361.8,235.705c-20.02-7.146-26.306-26.365-42.825-46.608C350.081,196.514,351.9,219.664,361.8,235.705Z" transform="translate(1182.321 290.661)" fill="#535353"/>
    <path id="Path_822" data-name="Path 822" d="M81.333,166.8c2.805-21.88,4.591-38.521,7.4-54.993.462-2.71,2.1-9.383,8.257-6.759a6.178,6.178,0,0,1,3.321,8.666C93.033,128.947,100.689,148.373,81.333,166.8Z" transform="translate(157.289 -74.456)" fill="#535353"/>
    <path id="Path_823" data-name="Path 823" d="M57.759,103.792c10.844.17,16.269,2.083,16.36,10.106.106,9.436-4.681,14.537-14.2,14.681-7.922.117-10.388-4.925-10.467-11.843C49.359,108.414,52.818,103.42,57.759,103.792Z" transform="translate(19.779 -77.37)" fill="#949494"/>
    <path id="Path_826" data-name="Path 826" d="M159.135,234.772c-3.347,18.708,2.38,38.8-9.282,63.978C146.994,271.189,142.377,251.429,159.135,234.772Z" transform="translate(440.654 487.672)" fill="#535353"/>
    <path id="Path_828" data-name="Path 828" d="M107.838,284.51c14.171,11.594,28.373,23.161,33.3,47.809C119.7,319.4,110.851,304.031,107.838,284.51Z" transform="translate(271.613 702.207)" fill="#535353"/>
    <path id="Path_829" data-name="Path 829" d="M210.375,314.252c-4.458-13.825-9.049-27.613-13.273-41.513-.866-2.848-3.486-7.029,1.164-8.762,3.034-1.132,7.7-1.265,8.544,3.3C209.641,282.664,222.027,296.457,210.375,314.252Z" transform="translate(650.08 610.783)" fill="#535353"/>
    <path id="Path_832" data-name="Path 832" d="M273.3,176.17c-.138,7.593-4.091,11.5-11.567,10.956-8.087-.6-13.528-4.867-12.566-13.5.946-8.523,7.1-11.546,15.148-10.839C272.7,163.519,273.317,169.687,273.3,176.17Z" transform="translate(880.74 176.744)" fill="#949494"/>
    <path id="Path_833" data-name="Path 833" d="M255.263,193.935c19.17,7.959,28.017,23.352,34.361,47.3C269.056,227.717,263.238,210.093,255.263,193.935Z" transform="translate(907.503 311.529)" fill="#535353"/>
    <path id="Path_834" data-name="Path 834" d="M248.388,146.171c-18.82,12.284-35.812-1.121-60.253-1.063C213.017,128.753,230.514,144.863,248.388,146.171Z" transform="translate(617.959 69.506)" fill="#535353"/>
    <path id="Path_836" data-name="Path 836" d="M45.966,151.694c21.115,3.693,36.736,7.805,52.171,24.2C75.7,174.871,59.658,171.688,45.966,151.694Z" transform="translate(4.74 129.331)" fill="#535353"/>
    <path id="Path_839" data-name="Path 839" d="M274.126,159.252c16.971-4.469,33.272-13.947,57.479-7.221C309.55,161.4,293.11,168.534,274.126,159.252Z" transform="translate(988.865 120.699)" fill="#535353"/>
    <path id="Path_840" data-name="Path 840" d="M153.944,204.776c13.963,13.761,14.319,30.907,14.984,53.728C152.127,240.014,155.857,221.624,153.944,204.776Z" transform="translate(470.483 358.29)" fill="#535353"/>
    <path id="Path_845" data-name="Path 845" d="M258.939,188.3c-7.019-17.576-6.387-35.328-1.169-60.63C267.159,152.628,265.528,170.406,258.939,188.3Z" transform="translate(901.037 25.69)" fill="#535353"/>
    <path id="Path_847" data-name="Path 847" d="M374.95,216.578c7.709-1.025,12.077-3.039,14.144-1.642,11.5,7.773,28.522-.9,37.554,12.959.4.622-1.78,4.187-2.513,4.107C408.583,230.329,391.878,232.572,374.95,216.578Z" transform="translate(1423.75 400.056)" fill="#535353"/>
    <path id="Path_848" data-name="Path 848" d="M124.021,252.942c-22.853,11.822-34.122-5.133-48.611-6.828-.93-.106-2.21-4.41-1.9-6.551.749-5.159,4.591-3.592,7.651-2.481C93.745,241.651,106.274,246.359,124.021,252.942Z" transform="translate(123.347 492.79)" fill="#535353"/>
    <path id="Path_849" data-name="Path 849" d="M373.5,141.685c-1.116-2.088-2-2.944-1.881-3.629,2.667-15.329,11.493-26.583,24.053-35.057.76-.51,5.568,2.423,5.526,3.661C400.581,125.182,384.323,130.814,373.5,141.685Z" transform="translate(1409.335 -80.961)" fill="#535353"/>
    <path id="Path_852" data-name="Path 852" d="M277.845,185.946c-.181-7.646,3.539-11.61,11.158-11.312,6.87.271,12.757,3.257,12.029,10.807A14.025,14.025,0,0,1,288.844,197.8C281.352,198.682,278.44,192.773,277.845,185.946Z" transform="translate(1004.879 228.209)" fill="#949494"/>
    <path id="Path_857" data-name="Path 857" d="M217.457,271.283c-20.148,2.162-30.307-4.309-41.3-26.976C193.372,250.354,205.135,259.992,217.457,271.283Z" transform="translate(566.316 528.799)" fill="#535353"/>
    <path id="Path_859" data-name="Path 859" d="M317.883,224.695C304.4,233.17,290.907,241,270.345,239.37,285.722,224.5,300.259,219.69,317.883,224.695Z" transform="translate(972.556 435.966)" fill="#535353"/>
    <path id="Path_860" data-name="Path 860" d="M328.591,277.858c-10.037,15.063-24.207,19.207-43.612,15.424C298.028,280.249,313.793,280.626,328.591,277.858Z" transform="translate(1035.677 673.515)" fill="#535353"/>
    <path id="Path_862" data-name="Path 862" d="M124.982,192.756c2.55,17.109-2.726,30.573-20.547,42.2C105.779,215.417,116.023,204.482,124.982,192.756Z" transform="translate(256.935 306.444)" fill="#535353"/>
    <path id="Path_863" data-name="Path 863" d="M46.7,207.825c14.4-2.2,28.8-4.394,48.394-7.38C78.492,220.131,62.892,216.943,46.7,207.825Z" transform="translate(7.915 339.609)" fill="#535353"/>
    <path id="Path_866" data-name="Path 866" d="M233.4,277.457c-18.708-12.263-24.117-25.6-25.36-46.518C223.582,244.238,228.837,257.665,233.4,277.457Z" transform="translate(703.82 471.139)" fill="#535353"/>
    <path id="Path_867" data-name="Path 867" d="M198.589,265.118c-9.091-16.854-22.752-26.195-19.712-49.477C189.812,232.25,204.572,241.065,198.589,265.118Z" transform="translate(576.162 405.154)" fill="#535353"/>
    <path id="Path_868" data-name="Path 868" d="M120.8,229.8c-5.34,14.213,4.272,33.118-15.031,45.423C104.721,256.31,107.782,241.449,120.8,229.8Z" transform="translate(261.883 466.213)" fill="#535353"/>
    <path id="Path_869" data-name="Path 869" d="M223.481,200.135c1.334-3.942,1.429-7.072,2.768-7.741,11.44-5.76,21.615-14.6,35.137-15.27.994-.053,3.533,5.462,3.1,5.845C253.331,192.835,240.845,199.737,223.481,200.135Z" transform="translate(770.417 239.013)" fill="#535353"/>
    <path id="Path_871" data-name="Path 871" d="M161.675,324.978c-11.3-12.454-21.37-21.2-22.305-38.819C157.308,293.422,164.008,304.219,161.675,324.978Z" transform="translate(407.621 709.32)" fill="#535353"/>
    <path id="Path_873" data-name="Path 873" d="M61.342,224.651c9.176,17.635-3,27.661-11.5,45.11C42.363,247.211,57.553,237.865,61.342,224.651Z" transform="translate(12.642 444.017)" fill="#535353"/>
    <path id="Path_874" data-name="Path 874" d="M219.268,109.753c8.65.1,14.346,1.424,14.474,9.761.1,6.312-3.108,9.458-9.421,9.8-7.821.425-10.85-4.883-12.486-10.945C209.629,110.173,216.972,111.411,219.268,109.753Z" transform="translate(718.421 -51.574)" fill="#949494"/>
    <path id="Path_875" data-name="Path 875" d="M49.491,163.492l12.125-37.613c9.644,15.993,5.143,28.591-5.35,39.786Z" transform="translate(19.945 17.982)" fill="#535353"/>
    <path id="Path_876" data-name="Path 876" d="M346.778,163.236c-10.334,10.494-20.966,20.074-40.45,17.561C319.043,167.709,330.647,160.51,346.778,163.236Z" transform="translate(1127.762 176.645)" fill="#535353"/>
    <path id="Path_877" data-name="Path 877" d="M249.183,310.041c12.529-13.878,21.37-23.671,31.694-35.11C280.691,297.247,273.438,305.589,249.183,310.041Z" transform="translate(881.278 660.89)" fill="#535353"/>
    <path id="Path_879" data-name="Path 879" d="M238.223,191.739c-20.355-7.4-34.026-10.9-42.73-24.33C214.265,166.2,220.094,169.062,238.223,191.739Z" transform="translate(649.696 196.12)" fill="#535353"/>
    <path id="Path_882" data-name="Path 882" d="M351.506,229.037c25.738-8.81,29.212,11.413,47.373,16.4C373.205,254.291,369.762,234,351.506,229.037Z" transform="translate(1322.629 453.467)" fill="#535353"/>
    <path id="Path_883" data-name="Path 883" d="M225.509,181.485c-6.78-16.137,4.676-25.467,12.024-41C245.827,161.119,231.689,169.992,225.509,181.485Z" transform="translate(770.254 80.991)" fill="#535353"/>
    <path id="Path_884" data-name="Path 884" d="M116.135,188.37c-13.485.09-27.2,2.524-40.36-14.808C94.037,175.624,107.522,174.221,116.135,188.37Z" transform="translate(133.316 223.654)" fill="#535353"/>
    <path id="Path_887" data-name="Path 887" d="M120.391,260.66c20-4.32,32.124,1.775,43.877,9.452C148.955,278.093,137.468,269.236,120.391,260.66Z" transform="translate(325.758 593.144)" fill="#535353"/>
    <path id="Path_890" data-name="Path 890" d="M73.3,213.209c-23.474-9.442-25.19-12.162-24.053-39.457Z" transform="translate(17.772 224.474)" fill="#535353"/>
    <path id="Path_891" data-name="Path 891" d="M374.77,184.172c15.239,4.033,27.215,11.525,29.638,29.117C393.972,203.034,384.371,193.6,374.77,184.172Z" transform="translate(1422.974 269.418)" fill="#535353"/>
    <path id="Path_892" data-name="Path 892" d="M178.012,224.695c-7.21-13.7-6.073-27.109.266-40.344C183.867,197.81,184.967,211.215,178.012,224.695Z" transform="translate(552.894 270.19)" fill="#535353"/>
    <path id="Path_893" data-name="Path 893" d="M136.314,185.915c-3.751-15.244,2.109-25.307,16.434-36.874C152.44,166.591,152.137,179.024,136.314,185.915Z" transform="translate(389.667 117.887)" fill="#535353"/>
    <path id="Path_894" data-name="Path 894" d="M268.2,217.625c-12.651.345-26.025,5.249-42.852-7.242C244.683,207.195,257.435,206.2,268.2,217.625Z" transform="translate(778.47 373.309)" fill="#535353"/>
    <path id="Path_895" data-name="Path 895" d="M375.5,248.289c10.053-1,14.559-2.859,16.376-1.392,6.881,5.579,17.879,7.1,19.4,18.193.2,1.435-.792,4.129-1.817,4.469-11.094,3.719-13.273-8.454-20.488-11.859C386.167,256.37,383.786,254.138,375.5,248.289Z" transform="translate(1426.135 537.623)" fill="#535353"/>
    <path id="Path_897" data-name="Path 897" d="M372.073,254.266c-.85,5.159-.393,8.512-1.737,9.564-7.412,5.786-6.62,19.059-18.475,20.276-1.28.133-4.362-3.544-4.187-5.2C349.119,265.3,358.178,259.213,372.073,254.266Z" transform="translate(1306.068 571.755)" fill="#535353"/>
    <path id="Path_902" data-name="Path 902" d="M213.118,128.075c-16.009-3.746-26.29-8.512-31.008-21.529C201,106.646,201,106.646,213.118,128.075Z" transform="translate(591.972 -65.411)" fill="#535353"/>
    <path id="Path_904" data-name="Path 904" d="M374.557,177.42c6.727-10.329,12.236-22.475,34.706-19-12.837,10.281-21.588,17.289-30.339,24.292Z" transform="translate(1422.055 155.723)" fill="#535353"/>
    <path id="Path_905" data-name="Path 905" d="M330.325,135.882c-15.536-7.768-17.731-19.93-25.913-30.716C323.965,110.718,323.965,110.718,330.325,135.882Z" transform="translate(1119.498 -71.359)" fill="#535353"/>
    <path id="Path_906" data-name="Path 906" d="M322.562,133.547c13.331,10.94,25.945,17.242,18.469,34.547C328.848,161.261,324.14,151.145,322.562,133.547Z" transform="translate(1197.784 51.057)" fill="#535353"/>
    <path id="Path_907" data-name="Path 907" d="M111.373,119.818c14.606-20.323,26.662-16.519,39.595-8.618Z" transform="translate(286.861 -72.739)" fill="#535353"/>
    <path id="Path_909" data-name="Path 909" d="M81.892,289.534c5.807,10.324,14.76,19.909,7.423,35C79.91,313.114,74.708,302.823,81.892,289.534Z" transform="translate(145.206 723.877)" fill="#535353"/>
    <path id="Path_910" data-name="Path 910" d="M350.9,143.363c10.946-2.263,20.589-12.943,34.882-6.408C374.549,150.185,363.5,151.785,350.9,143.363Z" transform="translate(1320.011 56.745)" fill="#535353"/>
    <path id="Path_912" data-name="Path 912" d="M86.933,139.98c8.113,12.853,6.881,24.1-6.11,34.839C73.825,160.644,84.957,151.042,86.933,139.98Z" transform="translate(145.238 78.804)" fill="#535353"/>
  </g>
</svg>
