<svg xmlns="http://www.w3.org/2000/svg" width="1833.681" height="1038.699" viewBox="0 0 1833.681 1038.699">
  <g id="Group_81" data-name="Group 81" transform="translate(-87.733 1.414)">
    <g id="Group_69" data-name="Group 69" transform="translate(-58.396 -489.406)" opacity="0.4">
      <path id="Path_387" data-name="Path 387" d="M757.948,957.309a150.791,150.791,0,1,0-198.439,227.1Z" transform="translate(119.199 127.569)" fill="#fff" stroke="#000" stroke-miterlimit="10" stroke-width="0.5"/>
      <path id="Path_388" data-name="Path 388" d="M437.966,1296.224a150.791,150.791,0,0,0-291.531-77.21Z" transform="translate(0 189.138)" fill="#fff" stroke="#000" stroke-miterlimit="10" stroke-width="0.5"/>
      <path id="Path_389" data-name="Path 389" d="M286.54,864.935a150.792,150.792,0,0,0,295.182-61.8Z" transform="translate(46.197 89.011)" fill="#fff" stroke="#000" stroke-miterlimit="10" stroke-width="0.5"/>
      <path id="Path_390" data-name="Path 390" d="M762.036,670.123A150.791,150.791,0,0,0,979.22,879.367Z" transform="translate(189.07 45.154)" fill="#fff" stroke="#000" stroke-miterlimit="10" stroke-width="0.5"/>
      <path id="Path_391" data-name="Path 391" d="M316.441,533.181A150.792,150.792,0,0,0,442.415,807.194Z" transform="translate(27.092 0)" fill="#fff" stroke="#000" stroke-miterlimit="10" stroke-width="0.5"/>
      <path id="Path_392" data-name="Path 392" d="M929.293,1050.64a150.791,150.791,0,0,0,125.974,274.011Z" transform="translate(229.17 170.624)" fill="#fff" stroke="#000" stroke-miterlimit="10" stroke-width="0.5"/>
      <g id="Group_68" data-name="Group 68" transform="translate(156.693 693.318)">
        <g id="Group_38" data-name="Group 38" transform="translate(1036.971 568.936)" opacity="0.39">
          <line id="Line_15" data-name="Line 15" x2="23.257" y2="95.185" transform="translate(35.964)" fill="#fff" stroke="#000" stroke-linecap="round" stroke-miterlimit="10" stroke-width="0.5"/>
          <line id="Line_16" data-name="Line 16" x1="95.185" y2="23.257" transform="translate(0 35.964)" fill="#fff" stroke="#000" stroke-linecap="round" stroke-miterlimit="10" stroke-width="0.5"/>
        </g>
        <rect id="Rectangle_59" data-name="Rectangle 59" width="114.944" height="114.944" rx="12.924" transform="translate(862.823 418.335) rotate(45)" fill="#fff" stroke="#000" stroke-linecap="round" stroke-miterlimit="10" stroke-width="0.5" opacity="0.39"/>
        <g id="Group_39" data-name="Group 39" transform="translate(110.722 194.5)" opacity="0.39">
          <line id="Line_17" data-name="Line 17" x2="23.257" y2="95.185" transform="translate(35.964)" fill="#fff" stroke="#000" stroke-linecap="round" stroke-miterlimit="10" stroke-width="0.5"/>
          <line id="Line_18" data-name="Line 18" x1="95.185" y2="23.257" transform="translate(0 35.964)" fill="#fff" stroke="#000" stroke-linecap="round" stroke-miterlimit="10" stroke-width="0.5"/>
        </g>
        <rect id="Rectangle_60" data-name="Rectangle 60" width="114.944" height="114.944" rx="7.313" transform="translate(845.988 20.353) rotate(12.507)" fill="#fff" stroke="#000" stroke-linecap="round" stroke-miterlimit="10" stroke-width="0.5" opacity="0.39"/>
        <g id="Group_40" data-name="Group 40" transform="translate(547.459 73.279)" opacity="0.39">
          <line id="Line_19" data-name="Line 19" x1="37.231" y2="90.636" transform="translate(26.703)" fill="#fff" stroke="#000" stroke-linecap="round" stroke-miterlimit="10" stroke-width="0.5"/>
          <line id="Line_20" data-name="Line 20" x1="90.636" y1="37.231" transform="translate(0 26.703)" fill="#fff" stroke="#000" stroke-linecap="round" stroke-miterlimit="10" stroke-width="0.5"/>
        </g>
        <path id="Path_393" data-name="Path 393" d="M395.7,920.4l45.488-110.319a7.5,7.5,0,0,1,12.877-1.715l72.795,94.553a7.5,7.5,0,0,1-4.952,12.01L403.62,930.7A7.5,7.5,0,0,1,395.7,920.4Z" transform="translate(-74.694 -603.544)" fill="#fff" stroke="#000" stroke-linecap="round" stroke-miterlimit="10" stroke-width="0.5" opacity="0.39"/>
        <path id="Path_394" data-name="Path 394" d="M154.149,1014.333c54.871,0,54.871,39.892,109.742,39.892s54.869-39.892,109.739-39.892,54.871,39.892,109.742,39.892,54.874-39.892,109.748-39.892,54.873,39.892,109.747,39.892" transform="translate(-154.149 -534.666)" fill="#fff" stroke="#000" stroke-linecap="round" stroke-miterlimit="10" stroke-width="0.5" opacity="0.39"/>
        <path id="Path_395" data-name="Path 395" d="M649.558,879.15c54.87,0,54.87,39.892,109.74,39.892s54.87-39.892,109.739-39.892,54.871,39.892,109.743,39.892,54.874-39.892,109.747-39.892,54.874,39.892,109.748,39.892" transform="translate(9.204 -579.24)" fill="#fff" stroke="#000" stroke-linecap="round" stroke-miterlimit="10" stroke-width="0.5" opacity="0.39"/>
        <path id="Path_396" data-name="Path 396" d="M649.558,864.15c54.87,0,54.87,39.892,109.74,39.892s54.87-39.892,109.739-39.892,54.871,39.892,109.743,39.892,54.874-39.892,109.747-39.892,54.874,39.892,109.748,39.892" transform="translate(9.204 -584.186)" fill="#fff" stroke="#000" stroke-linecap="round" stroke-miterlimit="10" stroke-width="0.5"/>
        <path id="Path_397" data-name="Path 397" d="M154.149,999.333c54.871,0,54.871,39.892,109.742,39.892s54.869-39.892,109.739-39.892,54.871,39.892,109.742,39.892,54.874-39.892,109.748-39.892,54.873,39.892,109.747,39.892" transform="translate(-154.149 -539.612)" fill="#fff" stroke="#000" stroke-linecap="round" stroke-miterlimit="10" stroke-width="0.5"/>
        <path id="Path_398" data-name="Path 398" d="M391.827,922.216,447.22,787.877l88.645,115.141Z" transform="translate(-75.779 -609.336)" fill="#fff" stroke="#000" stroke-linecap="round" stroke-linejoin="round" stroke-width="0.5"/>
        <circle id="Ellipse_6" data-name="Ellipse 6" cx="81.927" cy="81.927" r="81.927" transform="matrix(0.151, -0.988, 0.988, 0.151, 562.775, 808.304)" fill="#fff" stroke="#000" stroke-linecap="round" stroke-linejoin="round" stroke-width="0.5"/>
        <rect id="Rectangle_61" data-name="Rectangle 61" width="114.944" height="114.944" transform="matrix(0.976, 0.217, -0.217, 0.976, 838.244, 0)" fill="#fff" stroke="#000" stroke-linecap="round" stroke-linejoin="round" stroke-width="0.5"/>
        <rect id="Rectangle_62" data-name="Rectangle 62" width="114.944" height="114.944" transform="translate(851.843 398.389) rotate(45)" fill="#fff" stroke="#000" stroke-linecap="round" stroke-linejoin="round" stroke-width="0.5"/>
        <rect id="Rectangle_63" data-name="Rectangle 63" width="114.944" height="114.944" transform="translate(313.551 649.223) rotate(60)" fill="#fff" stroke="#000" stroke-linecap="round" stroke-linejoin="round" stroke-width="0.5"/>
        <g id="Group_41" data-name="Group 41" transform="translate(97.251 183.413)">
          <line id="Line_21" data-name="Line 21" x2="23.257" y2="95.185" transform="translate(35.964)" fill="#fff" stroke="#000" stroke-linecap="round" stroke-linejoin="round" stroke-width="0.5"/>
          <line id="Line_22" data-name="Line 22" x1="95.185" y2="23.257" transform="translate(0 35.964)" fill="#fff" stroke="#000" stroke-linecap="round" stroke-linejoin="round" stroke-width="0.5"/>
        </g>
        <g id="Group_42" data-name="Group 42" transform="translate(1025.343 551.406)">
          <line id="Line_23" data-name="Line 23" x2="23.257" y2="95.185" transform="translate(35.964)" fill="#fff" stroke="#000" stroke-linecap="round" stroke-linejoin="round" stroke-width="0.5"/>
          <line id="Line_24" data-name="Line 24" x1="95.185" y2="23.257" transform="translate(0 35.964)" fill="#fff" stroke="#000" stroke-linecap="round" stroke-linejoin="round" stroke-width="0.5"/>
        </g>
        <g id="Group_43" data-name="Group 43" transform="translate(547.459 54.663)">
          <line id="Line_25" data-name="Line 25" x1="37.231" y2="90.636" transform="translate(26.703)" fill="#fff" stroke="#000" stroke-linecap="round" stroke-linejoin="round" stroke-width="0.5"/>
          <line id="Line_26" data-name="Line 26" x1="90.636" y1="37.231" transform="translate(0 26.703)" fill="#fff" stroke="#000" stroke-linecap="round" stroke-linejoin="round" stroke-width="0.5"/>
        </g>
        <g id="Group_45" data-name="Group 45" transform="translate(650.669 197.543)">
          <rect id="Rectangle_64" data-name="Rectangle 64" width="65.785" height="65.785" rx="6.004" transform="translate(14.743 22.644) rotate(-14.216)" fill="#fff" stroke="#000" stroke-miterlimit="10" stroke-width="0.5"/>
          <g id="Group_44" data-name="Group 44">
            <rect id="Rectangle_65" data-name="Rectangle 65" width="65.785" height="65.785" rx="6.004" transform="matrix(0.969, -0.246, 0.246, 0.969, 0, 16.155)" fill="#fff" stroke="#000" stroke-miterlimit="10" stroke-width="0.5"/>
          </g>
        </g>
        <g id="Group_47" data-name="Group 47" transform="translate(1029.307 380.693)">
          <rect id="Rectangle_66" data-name="Rectangle 66" width="65.785" height="65.785" rx="6.004" transform="translate(14.743 22.644) rotate(-14.216)" fill="#fff" stroke="#000" stroke-miterlimit="10" stroke-width="0.5"/>
          <g id="Group_46" data-name="Group 46">
            <rect id="Rectangle_67" data-name="Rectangle 67" width="65.785" height="65.785" rx="6.004" transform="translate(0 16.155) rotate(-14.216)" fill="#fff" stroke="#000" stroke-miterlimit="10" stroke-width="0.5"/>
          </g>
        </g>
        <g id="Group_49" data-name="Group 49" transform="translate(307.356 516.042)">
          <rect id="Rectangle_68" data-name="Rectangle 68" width="65.785" height="65.785" rx="6.004" transform="matrix(0.848, 0.53, -0.53, 0.848, 40.386, 15.134)" fill="#fff" stroke="#000" stroke-miterlimit="10" stroke-width="0.5"/>
          <g id="Group_48" data-name="Group 48">
            <rect id="Rectangle_69" data-name="Rectangle 69" width="65.785" height="65.785" rx="6.004" transform="matrix(0.848, 0.53, -0.53, 0.848, 34.873, 0)" fill="#fff" stroke="#000" stroke-miterlimit="10" stroke-width="0.5"/>
          </g>
        </g>
        <g id="Group_50" data-name="Group 50" transform="translate(564.658 393.519)">
          <path id="Path_399" data-name="Path 399" d="M590.923,1008.945l18.99-48.247a7.5,7.5,0,0,1,12.852-1.924l32.287,40.57a7.5,7.5,0,0,1-4.759,12.091l-51.279,7.677A7.5,7.5,0,0,1,590.923,1008.945Z" transform="translate(-574.963 -947.439)" fill="#fff" stroke="#000" stroke-miterlimit="10" stroke-width="0.5"/>
          <path id="Path_400" data-name="Path 400" d="M579.34,1001.881,598,954.468a7.76,7.76,0,0,1,13.293-1.991l31.73,39.868a7.761,7.761,0,0,1-4.923,12.509L587.71,1012.4A7.761,7.761,0,0,1,579.34,1001.881Z" transform="translate(-578.789 -949.547)" fill="#fff" stroke="#000" stroke-miterlimit="10" stroke-width="0.5"/>
        </g>
        <path id="Path_401" data-name="Path 401" d="M341.82,761.006l40.59-32.262a7.5,7.5,0,0,1,12.089,4.767l7.645,51.283a7.5,7.5,0,0,1-10.172,8.086l-48.235-19.021A7.5,7.5,0,0,1,341.82,761.006Z" transform="translate(-93.203 -629.374)" fill="#fff" stroke="#000" stroke-miterlimit="10" stroke-width="0.5"/>
        <path id="Path_402" data-name="Path 402" d="M335.265,749.11l39.889-31.7a7.761,7.761,0,0,1,12.5,4.932l7.513,50.4a7.761,7.761,0,0,1-10.523,8.364l-47.4-18.693A7.76,7.76,0,0,1,335.265,749.11Z" transform="translate(-95.396 -633.132)" fill="#fff" stroke="#000" stroke-miterlimit="10" stroke-width="0.5"/>
        <g id="Group_51" data-name="Group 51" transform="translate(837.016 660.942)">
          <path id="Path_403" data-name="Path 403" d="M796.072,1211.083l14.845-49.679a7.5,7.5,0,0,1,12.643-3l35.6,37.7a7.5,7.5,0,0,1-3.721,12.45l-50.446,11.982A7.5,7.5,0,0,1,796.072,1211.083Z" transform="translate(-779.608 -1148.881)" fill="#fff" stroke="#000" stroke-miterlimit="10" stroke-width="0.5"/>
          <path id="Path_404" data-name="Path 404" d="M783.945,1205.02l14.59-48.82a7.76,7.76,0,0,1,13.078-3.106l34.985,37.044a7.761,7.761,0,0,1-3.848,12.88l-49.575,11.776A7.762,7.762,0,0,1,783.945,1205.02Z" transform="translate(-783.611 -1150.658)" fill="#fff" stroke="#000" stroke-miterlimit="10" stroke-width="0.5"/>
        </g>
        <g id="Group_52" data-name="Group 52" transform="translate(411.526 153.123)">
          <path id="Path_405" data-name="Path 405" d="M467.61,770.754a1.991,1.991,0,1,1-1.991-1.992A1.991,1.991,0,0,1,467.61,770.754Z" transform="translate(-463.629 -768.762)" fill="#fff" stroke="#000" stroke-miterlimit="10" stroke-width="0.5"/>
          <path id="Path_406" data-name="Path 406" d="M482.651,770.754a1.991,1.991,0,1,1-1.991-1.992A1.992,1.992,0,0,1,482.651,770.754Z" transform="translate(-458.67 -768.762)" fill="#fff" stroke="#000" stroke-miterlimit="10" stroke-width="0.5"/>
          <path id="Path_407" data-name="Path 407" d="M497.689,770.754a1.991,1.991,0,1,1-1.991-1.992A1.991,1.991,0,0,1,497.689,770.754Z" transform="translate(-453.711 -768.762)" fill="#fff" stroke="#000" stroke-miterlimit="10" stroke-width="0.5"/>
          <path id="Path_408" data-name="Path 408" d="M512.729,770.754a1.991,1.991,0,1,1-1.991-1.992A1.991,1.991,0,0,1,512.729,770.754Z" transform="translate(-448.752 -768.762)" fill="#fff" stroke="#000" stroke-miterlimit="10" stroke-width="0.5"/>
          <path id="Path_409" data-name="Path 409" d="M527.768,770.754a1.991,1.991,0,1,1-1.991-1.992A1.991,1.991,0,0,1,527.768,770.754Z" transform="translate(-443.793 -768.762)" fill="#fff" stroke="#000" stroke-miterlimit="10" stroke-width="0.5"/>
          <path id="Path_410" data-name="Path 410" d="M542.808,770.754a1.991,1.991,0,1,1-1.991-1.992A1.991,1.991,0,0,1,542.808,770.754Z" transform="translate(-438.834 -768.762)" fill="#fff" stroke="#000" stroke-miterlimit="10" stroke-width="0.5"/>
          <path id="Path_411" data-name="Path 411" d="M467.61,785.563a1.991,1.991,0,1,1-1.991-1.991A1.99,1.99,0,0,1,467.61,785.563Z" transform="translate(-463.629 -763.879)" fill="#fff" stroke="#000" stroke-miterlimit="10" stroke-width="0.5"/>
          <path id="Path_412" data-name="Path 412" d="M482.651,785.563a1.991,1.991,0,1,1-1.991-1.991A1.991,1.991,0,0,1,482.651,785.563Z" transform="translate(-458.67 -763.879)" fill="#fff" stroke="#000" stroke-miterlimit="10" stroke-width="0.5"/>
          <path id="Path_413" data-name="Path 413" d="M497.689,785.563a1.991,1.991,0,1,1-1.991-1.991A1.99,1.99,0,0,1,497.689,785.563Z" transform="translate(-453.711 -763.879)" fill="#fff" stroke="#000" stroke-miterlimit="10" stroke-width="0.5"/>
          <path id="Path_414" data-name="Path 414" d="M512.729,785.563a1.991,1.991,0,1,1-1.991-1.991A1.99,1.99,0,0,1,512.729,785.563Z" transform="translate(-448.752 -763.879)" fill="#fff" stroke="#000" stroke-miterlimit="10" stroke-width="0.5"/>
          <path id="Path_415" data-name="Path 415" d="M527.768,785.563a1.991,1.991,0,1,1-1.991-1.991A1.99,1.99,0,0,1,527.768,785.563Z" transform="translate(-443.793 -763.879)" fill="#fff" stroke="#000" stroke-miterlimit="10" stroke-width="0.5"/>
          <path id="Path_416" data-name="Path 416" d="M542.808,785.563a1.991,1.991,0,1,1-1.991-1.991A1.99,1.99,0,0,1,542.808,785.563Z" transform="translate(-438.834 -763.879)" fill="#fff" stroke="#000" stroke-miterlimit="10" stroke-width="0.5"/>
          <path id="Path_417" data-name="Path 417" d="M467.61,800.373a1.991,1.991,0,1,1-1.991-1.991A1.99,1.99,0,0,1,467.61,800.373Z" transform="translate(-463.629 -758.995)" fill="#fff" stroke="#000" stroke-miterlimit="10" stroke-width="0.5"/>
          <path id="Path_418" data-name="Path 418" d="M482.651,800.373a1.991,1.991,0,1,1-1.991-1.991A1.991,1.991,0,0,1,482.651,800.373Z" transform="translate(-458.67 -758.995)" fill="#fff" stroke="#000" stroke-miterlimit="10" stroke-width="0.5"/>
          <path id="Path_419" data-name="Path 419" d="M497.689,800.373a1.991,1.991,0,1,1-1.991-1.991A1.99,1.99,0,0,1,497.689,800.373Z" transform="translate(-453.711 -758.995)" fill="#fff" stroke="#000" stroke-miterlimit="10" stroke-width="0.5"/>
          <path id="Path_420" data-name="Path 420" d="M512.729,800.373a1.991,1.991,0,1,1-1.991-1.991A1.99,1.99,0,0,1,512.729,800.373Z" transform="translate(-448.752 -758.995)" fill="#fff" stroke="#000" stroke-miterlimit="10" stroke-width="0.5"/>
          <path id="Path_421" data-name="Path 421" d="M527.768,800.373a1.991,1.991,0,1,1-1.991-1.991A1.99,1.99,0,0,1,527.768,800.373Z" transform="translate(-443.793 -758.995)" fill="#fff" stroke="#000" stroke-miterlimit="10" stroke-width="0.5"/>
          <path id="Path_422" data-name="Path 422" d="M542.808,800.373a1.991,1.991,0,1,1-1.991-1.991A1.99,1.99,0,0,1,542.808,800.373Z" transform="translate(-438.834 -758.995)" fill="#fff" stroke="#000" stroke-miterlimit="10" stroke-width="0.5"/>
          <circle id="Ellipse_7" data-name="Ellipse 7" cx="1.991" cy="1.991" r="1.991" transform="translate(0 59.079)" fill="#fff" stroke="#000" stroke-miterlimit="10" stroke-width="0.5"/>
          <path id="Path_423" data-name="Path 423" d="M482.651,815.183a1.991,1.991,0,1,1-1.991-1.992A1.992,1.992,0,0,1,482.651,815.183Z" transform="translate(-458.67 -754.112)" fill="#fff" stroke="#000" stroke-miterlimit="10" stroke-width="0.5"/>
          <circle id="Ellipse_8" data-name="Ellipse 8" cx="1.991" cy="1.991" r="1.991" transform="translate(39.997 59.079)" fill="#fff" stroke="#000" stroke-miterlimit="10" stroke-width="0.5"/>
          <path id="Path_424" data-name="Path 424" d="M512.729,815.183a1.991,1.991,0,1,1-1.991-1.992A1.991,1.991,0,0,1,512.729,815.183Z" transform="translate(-448.752 -754.112)" fill="#fff" stroke="#000" stroke-miterlimit="10" stroke-width="0.5"/>
          <path id="Path_425" data-name="Path 425" d="M527.768,815.183a1.991,1.991,0,1,1-1.991-1.992A1.991,1.991,0,0,1,527.768,815.183Z" transform="translate(-443.793 -754.112)" fill="#fff" stroke="#000" stroke-miterlimit="10" stroke-width="0.5"/>
          <path id="Path_426" data-name="Path 426" d="M542.808,815.183a1.991,1.991,0,1,1-1.991-1.992A1.991,1.991,0,0,1,542.808,815.183Z" transform="translate(-438.834 -754.112)" fill="#fff" stroke="#000" stroke-miterlimit="10" stroke-width="0.5"/>
          <path id="Path_427" data-name="Path 427" d="M467.61,829.992A1.991,1.991,0,1,1,465.62,828,1.99,1.99,0,0,1,467.61,829.992Z" transform="translate(-463.629 -749.229)" fill="#fff" stroke="#000" stroke-miterlimit="10" stroke-width="0.5"/>
          <path id="Path_428" data-name="Path 428" d="M482.651,829.992A1.991,1.991,0,1,1,480.66,828,1.991,1.991,0,0,1,482.651,829.992Z" transform="translate(-458.67 -749.229)" fill="#fff" stroke="#000" stroke-miterlimit="10" stroke-width="0.5"/>
          <path id="Path_429" data-name="Path 429" d="M497.689,829.992A1.991,1.991,0,1,1,495.7,828,1.99,1.99,0,0,1,497.689,829.992Z" transform="translate(-453.711 -749.229)" fill="#fff" stroke="#000" stroke-miterlimit="10" stroke-width="0.5"/>
          <path id="Path_430" data-name="Path 430" d="M512.729,829.992A1.991,1.991,0,1,1,510.739,828,1.99,1.99,0,0,1,512.729,829.992Z" transform="translate(-448.752 -749.229)" fill="#fff" stroke="#000" stroke-miterlimit="10" stroke-width="0.5"/>
          <path id="Path_431" data-name="Path 431" d="M527.768,829.992A1.991,1.991,0,1,1,525.778,828,1.99,1.99,0,0,1,527.768,829.992Z" transform="translate(-443.793 -749.229)" fill="#fff" stroke="#000" stroke-miterlimit="10" stroke-width="0.5"/>
          <path id="Path_432" data-name="Path 432" d="M542.808,829.992A1.991,1.991,0,1,1,540.818,828,1.99,1.99,0,0,1,542.808,829.992Z" transform="translate(-438.834 -749.229)" fill="#fff" stroke="#000" stroke-miterlimit="10" stroke-width="0.5"/>
        </g>
        <g id="Group_53" data-name="Group 53" transform="translate(680.335 475.686)">
          <path id="Path_433" data-name="Path 433" d="M669.763,1013.33a1.991,1.991,0,1,1-1.991-1.991A1.99,1.99,0,0,1,669.763,1013.33Z" transform="translate(-665.782 -1011.339)" fill="#fff" stroke="#000" stroke-miterlimit="10" stroke-width="0.5"/>
          <path id="Path_434" data-name="Path 434" d="M684.8,1013.33a1.991,1.991,0,1,1-1.991-1.991A1.991,1.991,0,0,1,684.8,1013.33Z" transform="translate(-660.823 -1011.339)" fill="#fff" stroke="#000" stroke-miterlimit="10" stroke-width="0.5"/>
          <path id="Path_435" data-name="Path 435" d="M699.842,1013.33a1.991,1.991,0,1,1-1.991-1.991A1.99,1.99,0,0,1,699.842,1013.33Z" transform="translate(-655.864 -1011.339)" fill="#fff" stroke="#000" stroke-miterlimit="10" stroke-width="0.5"/>
          <path id="Path_436" data-name="Path 436" d="M714.882,1013.33a1.991,1.991,0,1,1-1.991-1.991A1.99,1.99,0,0,1,714.882,1013.33Z" transform="translate(-650.905 -1011.339)" fill="#fff" stroke="#000" stroke-miterlimit="10" stroke-width="0.5"/>
          <path id="Path_437" data-name="Path 437" d="M729.921,1013.33a1.991,1.991,0,1,1-1.991-1.991A1.99,1.99,0,0,1,729.921,1013.33Z" transform="translate(-645.946 -1011.339)" fill="#fff" stroke="#000" stroke-miterlimit="10" stroke-width="0.5"/>
          <path id="Path_438" data-name="Path 438" d="M744.961,1013.33a1.991,1.991,0,1,1-1.991-1.991A1.99,1.99,0,0,1,744.961,1013.33Z" transform="translate(-640.987 -1011.339)" fill="#fff" stroke="#000" stroke-miterlimit="10" stroke-width="0.5"/>
          <circle id="Ellipse_9" data-name="Ellipse 9" cx="1.991" cy="1.991" r="1.991" transform="translate(0 19.692)" fill="#fff" stroke="#000" stroke-miterlimit="10" stroke-width="0.5"/>
          <path id="Path_439" data-name="Path 439" d="M684.8,1028.139a1.991,1.991,0,1,1-1.991-1.991A1.991,1.991,0,0,1,684.8,1028.139Z" transform="translate(-660.823 -1006.456)" fill="#fff" stroke="#000" stroke-miterlimit="10" stroke-width="0.5"/>
          <path id="Path_440" data-name="Path 440" d="M699.842,1028.139a1.991,1.991,0,1,1-1.991-1.991A1.99,1.99,0,0,1,699.842,1028.139Z" transform="translate(-655.864 -1006.456)" fill="#fff" stroke="#000" stroke-miterlimit="10" stroke-width="0.5"/>
          <path id="Path_441" data-name="Path 441" d="M714.882,1028.139a1.991,1.991,0,1,1-1.991-1.991A1.99,1.99,0,0,1,714.882,1028.139Z" transform="translate(-650.905 -1006.456)" fill="#fff" stroke="#000" stroke-miterlimit="10" stroke-width="0.5"/>
          <path id="Path_442" data-name="Path 442" d="M729.921,1028.139a1.991,1.991,0,1,1-1.991-1.991A1.99,1.99,0,0,1,729.921,1028.139Z" transform="translate(-645.946 -1006.456)" fill="#fff" stroke="#000" stroke-miterlimit="10" stroke-width="0.5"/>
          <path id="Path_443" data-name="Path 443" d="M744.961,1028.139a1.991,1.991,0,1,1-1.991-1.991A1.99,1.99,0,0,1,744.961,1028.139Z" transform="translate(-640.987 -1006.456)" fill="#fff" stroke="#000" stroke-miterlimit="10" stroke-width="0.5"/>
          <path id="Path_444" data-name="Path 444" d="M669.763,1042.948a1.991,1.991,0,1,1-1.991-1.99A1.99,1.99,0,0,1,669.763,1042.948Z" transform="translate(-665.782 -1001.573)" fill="#fff" stroke="#000" stroke-miterlimit="10" stroke-width="0.5"/>
          <path id="Path_445" data-name="Path 445" d="M684.8,1042.948a1.991,1.991,0,1,1-1.991-1.99A1.991,1.991,0,0,1,684.8,1042.948Z" transform="translate(-660.823 -1001.573)" fill="#fff" stroke="#000" stroke-miterlimit="10" stroke-width="0.5"/>
          <path id="Path_446" data-name="Path 446" d="M699.842,1042.948a1.991,1.991,0,1,1-1.991-1.99A1.99,1.99,0,0,1,699.842,1042.948Z" transform="translate(-655.864 -1001.573)" fill="#fff" stroke="#000" stroke-miterlimit="10" stroke-width="0.5"/>
          <path id="Path_447" data-name="Path 447" d="M714.882,1042.948a1.991,1.991,0,1,1-1.991-1.99A1.99,1.99,0,0,1,714.882,1042.948Z" transform="translate(-650.905 -1001.573)" fill="#fff" stroke="#000" stroke-miterlimit="10" stroke-width="0.5"/>
          <path id="Path_448" data-name="Path 448" d="M729.921,1042.948a1.991,1.991,0,1,1-1.991-1.99A1.99,1.99,0,0,1,729.921,1042.948Z" transform="translate(-645.946 -1001.573)" fill="#fff" stroke="#000" stroke-miterlimit="10" stroke-width="0.5"/>
          <path id="Path_449" data-name="Path 449" d="M744.961,1042.948a1.991,1.991,0,1,1-1.991-1.99A1.99,1.99,0,0,1,744.961,1042.948Z" transform="translate(-640.987 -1001.573)" fill="#fff" stroke="#000" stroke-miterlimit="10" stroke-width="0.5"/>
          <path id="Path_450" data-name="Path 450" d="M669.763,1057.759a1.991,1.991,0,1,1-1.991-1.991A1.99,1.99,0,0,1,669.763,1057.759Z" transform="translate(-665.782 -996.689)" fill="#fff" stroke="#000" stroke-miterlimit="10" stroke-width="0.5"/>
          <path id="Path_451" data-name="Path 451" d="M684.8,1057.759a1.991,1.991,0,1,1-1.991-1.991A1.991,1.991,0,0,1,684.8,1057.759Z" transform="translate(-660.823 -996.689)" fill="#fff" stroke="#000" stroke-miterlimit="10" stroke-width="0.5"/>
          <path id="Path_452" data-name="Path 452" d="M699.842,1057.759a1.991,1.991,0,1,1-1.991-1.991A1.99,1.99,0,0,1,699.842,1057.759Z" transform="translate(-655.864 -996.689)" fill="#fff" stroke="#000" stroke-miterlimit="10" stroke-width="0.5"/>
          <path id="Path_453" data-name="Path 453" d="M714.882,1057.759a1.991,1.991,0,1,1-1.991-1.991A1.99,1.99,0,0,1,714.882,1057.759Z" transform="translate(-650.905 -996.689)" fill="#fff" stroke="#000" stroke-miterlimit="10" stroke-width="0.5"/>
          <path id="Path_454" data-name="Path 454" d="M729.921,1057.759a1.991,1.991,0,1,1-1.991-1.991A1.99,1.99,0,0,1,729.921,1057.759Z" transform="translate(-645.946 -996.689)" fill="#fff" stroke="#000" stroke-miterlimit="10" stroke-width="0.5"/>
          <path id="Path_455" data-name="Path 455" d="M744.961,1057.759a1.991,1.991,0,1,1-1.991-1.991A1.99,1.99,0,0,1,744.961,1057.759Z" transform="translate(-640.987 -996.689)" fill="#fff" stroke="#000" stroke-miterlimit="10" stroke-width="0.5"/>
          <path id="Path_456" data-name="Path 456" d="M669.763,1072.568a1.991,1.991,0,1,1-1.991-1.99A1.991,1.991,0,0,1,669.763,1072.568Z" transform="translate(-665.782 -991.806)" fill="#fff" stroke="#000" stroke-miterlimit="10" stroke-width="0.5"/>
          <path id="Path_457" data-name="Path 457" d="M684.8,1072.568a1.991,1.991,0,1,1-1.991-1.99A1.992,1.992,0,0,1,684.8,1072.568Z" transform="translate(-660.823 -991.806)" fill="#fff" stroke="#000" stroke-miterlimit="10" stroke-width="0.5"/>
          <path id="Path_458" data-name="Path 458" d="M699.842,1072.568a1.991,1.991,0,1,1-1.991-1.99A1.991,1.991,0,0,1,699.842,1072.568Z" transform="translate(-655.864 -991.806)" fill="#fff" stroke="#000" stroke-miterlimit="10" stroke-width="0.5"/>
          <path id="Path_459" data-name="Path 459" d="M714.882,1072.568a1.991,1.991,0,1,1-1.991-1.99A1.991,1.991,0,0,1,714.882,1072.568Z" transform="translate(-650.905 -991.806)" fill="#fff" stroke="#000" stroke-miterlimit="10" stroke-width="0.5"/>
          <path id="Path_460" data-name="Path 460" d="M729.921,1072.568a1.991,1.991,0,1,1-1.991-1.99A1.991,1.991,0,0,1,729.921,1072.568Z" transform="translate(-645.946 -991.806)" fill="#fff" stroke="#000" stroke-miterlimit="10" stroke-width="0.5"/>
          <path id="Path_461" data-name="Path 461" d="M744.961,1072.568a1.991,1.991,0,1,1-1.991-1.99A1.991,1.991,0,0,1,744.961,1072.568Z" transform="translate(-640.987 -991.806)" fill="#fff" stroke="#000" stroke-miterlimit="10" stroke-width="0.5"/>
        </g>
        <g id="Group_54" data-name="Group 54" transform="translate(996.647 659.941)">
          <path id="Path_462" data-name="Path 462" d="M907.639,1151.9a1.991,1.991,0,1,1-1.991-1.991A1.99,1.99,0,0,1,907.639,1151.9Z" transform="translate(-903.658 -1149.905)" fill="#fff" stroke="#000" stroke-miterlimit="10" stroke-width="0.5"/>
          <path id="Path_463" data-name="Path 463" d="M922.678,1151.9a1.991,1.991,0,1,1-1.991-1.991A1.99,1.99,0,0,1,922.678,1151.9Z" transform="translate(-898.699 -1149.905)" fill="#fff" stroke="#000" stroke-miterlimit="10" stroke-width="0.5"/>
          <path id="Path_464" data-name="Path 464" d="M937.718,1151.9a1.991,1.991,0,1,1-1.991-1.991A1.99,1.99,0,0,1,937.718,1151.9Z" transform="translate(-893.74 -1149.905)" fill="#fff" stroke="#000" stroke-miterlimit="10" stroke-width="0.5"/>
          <path id="Path_465" data-name="Path 465" d="M952.757,1151.9a1.991,1.991,0,1,1-1.991-1.991A1.99,1.99,0,0,1,952.757,1151.9Z" transform="translate(-888.781 -1149.905)" fill="#fff" stroke="#000" stroke-miterlimit="10" stroke-width="0.5"/>
          <path id="Path_466" data-name="Path 466" d="M967.8,1151.9a1.991,1.991,0,1,1-1.991-1.991A1.99,1.99,0,0,1,967.8,1151.9Z" transform="translate(-883.822 -1149.905)" fill="#fff" stroke="#000" stroke-miterlimit="10" stroke-width="0.5"/>
          <path id="Path_467" data-name="Path 467" d="M982.837,1151.9a1.991,1.991,0,1,1-1.992-1.991A1.991,1.991,0,0,1,982.837,1151.9Z" transform="translate(-878.863 -1149.905)" fill="#fff" stroke="#000" stroke-miterlimit="10" stroke-width="0.5"/>
          <path id="Path_468" data-name="Path 468" d="M907.639,1166.706a1.991,1.991,0,1,1-1.991-1.991A1.99,1.99,0,0,1,907.639,1166.706Z" transform="translate(-903.658 -1145.022)" fill="#fff" stroke="#000" stroke-miterlimit="10" stroke-width="0.5"/>
          <path id="Path_469" data-name="Path 469" d="M922.678,1166.706a1.991,1.991,0,1,1-1.991-1.991A1.99,1.99,0,0,1,922.678,1166.706Z" transform="translate(-898.699 -1145.022)" fill="#fff" stroke="#000" stroke-miterlimit="10" stroke-width="0.5"/>
          <path id="Path_470" data-name="Path 470" d="M937.718,1166.706a1.991,1.991,0,1,1-1.991-1.991A1.99,1.99,0,0,1,937.718,1166.706Z" transform="translate(-893.74 -1145.022)" fill="#fff" stroke="#000" stroke-miterlimit="10" stroke-width="0.5"/>
          <path id="Path_471" data-name="Path 471" d="M952.757,1166.706a1.991,1.991,0,1,1-1.991-1.991A1.99,1.99,0,0,1,952.757,1166.706Z" transform="translate(-888.781 -1145.022)" fill="#fff" stroke="#000" stroke-miterlimit="10" stroke-width="0.5"/>
          <path id="Path_472" data-name="Path 472" d="M967.8,1166.706a1.991,1.991,0,1,1-1.991-1.991A1.99,1.99,0,0,1,967.8,1166.706Z" transform="translate(-883.822 -1145.022)" fill="#fff" stroke="#000" stroke-miterlimit="10" stroke-width="0.5"/>
          <path id="Path_473" data-name="Path 473" d="M982.837,1166.706a1.991,1.991,0,1,1-1.992-1.991A1.991,1.991,0,0,1,982.837,1166.706Z" transform="translate(-878.863 -1145.022)" fill="#fff" stroke="#000" stroke-miterlimit="10" stroke-width="0.5"/>
          <path id="Path_474" data-name="Path 474" d="M907.639,1181.515a1.991,1.991,0,1,1-1.991-1.991A1.99,1.99,0,0,1,907.639,1181.515Z" transform="translate(-903.658 -1140.139)" fill="#fff" stroke="#000" stroke-miterlimit="10" stroke-width="0.5"/>
          <path id="Path_475" data-name="Path 475" d="M922.678,1181.515a1.991,1.991,0,1,1-1.991-1.991A1.99,1.99,0,0,1,922.678,1181.515Z" transform="translate(-898.699 -1140.139)" fill="#fff" stroke="#000" stroke-miterlimit="10" stroke-width="0.5"/>
          <path id="Path_476" data-name="Path 476" d="M937.718,1181.515a1.991,1.991,0,1,1-1.991-1.991A1.99,1.99,0,0,1,937.718,1181.515Z" transform="translate(-893.74 -1140.139)" fill="#fff" stroke="#000" stroke-miterlimit="10" stroke-width="0.5"/>
          <path id="Path_477" data-name="Path 477" d="M952.757,1181.515a1.991,1.991,0,1,1-1.991-1.991A1.99,1.99,0,0,1,952.757,1181.515Z" transform="translate(-888.781 -1140.139)" fill="#fff" stroke="#000" stroke-miterlimit="10" stroke-width="0.5"/>
          <path id="Path_478" data-name="Path 478" d="M967.8,1181.515a1.991,1.991,0,1,1-1.991-1.991A1.99,1.99,0,0,1,967.8,1181.515Z" transform="translate(-883.822 -1140.139)" fill="#fff" stroke="#000" stroke-miterlimit="10" stroke-width="0.5"/>
          <path id="Path_479" data-name="Path 479" d="M982.837,1181.515a1.991,1.991,0,1,1-1.992-1.991A1.991,1.991,0,0,1,982.837,1181.515Z" transform="translate(-878.863 -1140.139)" fill="#fff" stroke="#000" stroke-miterlimit="10" stroke-width="0.5"/>
          <path id="Path_480" data-name="Path 480" d="M907.639,1196.325a1.991,1.991,0,1,1-1.991-1.991A1.99,1.99,0,0,1,907.639,1196.325Z" transform="translate(-903.658 -1135.255)" fill="#fff" stroke="#000" stroke-miterlimit="10" stroke-width="0.5"/>
          <path id="Path_481" data-name="Path 481" d="M922.678,1196.325a1.991,1.991,0,1,1-1.991-1.991A1.99,1.99,0,0,1,922.678,1196.325Z" transform="translate(-898.699 -1135.255)" fill="#fff" stroke="#000" stroke-miterlimit="10" stroke-width="0.5"/>
          <path id="Path_482" data-name="Path 482" d="M937.718,1196.325a1.991,1.991,0,1,1-1.991-1.991A1.99,1.99,0,0,1,937.718,1196.325Z" transform="translate(-893.74 -1135.255)" fill="#fff" stroke="#000" stroke-miterlimit="10" stroke-width="0.5"/>
          <path id="Path_483" data-name="Path 483" d="M952.757,1196.325a1.991,1.991,0,1,1-1.991-1.991A1.99,1.99,0,0,1,952.757,1196.325Z" transform="translate(-888.781 -1135.255)" fill="#fff" stroke="#000" stroke-miterlimit="10" stroke-width="0.5"/>
          <path id="Path_484" data-name="Path 484" d="M967.8,1196.325a1.991,1.991,0,1,1-1.991-1.991A1.99,1.99,0,0,1,967.8,1196.325Z" transform="translate(-883.822 -1135.255)" fill="#fff" stroke="#000" stroke-miterlimit="10" stroke-width="0.5"/>
          <path id="Path_485" data-name="Path 485" d="M982.837,1196.325a1.991,1.991,0,1,1-1.992-1.991A1.991,1.991,0,0,1,982.837,1196.325Z" transform="translate(-878.863 -1135.255)" fill="#fff" stroke="#000" stroke-miterlimit="10" stroke-width="0.5"/>
          <path id="Path_486" data-name="Path 486" d="M907.639,1211.135a1.991,1.991,0,1,1-1.991-1.991A1.99,1.99,0,0,1,907.639,1211.135Z" transform="translate(-903.658 -1130.372)" fill="#fff" stroke="#000" stroke-miterlimit="10" stroke-width="0.5"/>
          <path id="Path_487" data-name="Path 487" d="M922.678,1211.135a1.991,1.991,0,1,1-1.991-1.991A1.99,1.99,0,0,1,922.678,1211.135Z" transform="translate(-898.699 -1130.372)" fill="#fff" stroke="#000" stroke-miterlimit="10" stroke-width="0.5"/>
          <path id="Path_488" data-name="Path 488" d="M937.718,1211.135a1.991,1.991,0,1,1-1.991-1.991A1.99,1.99,0,0,1,937.718,1211.135Z" transform="translate(-893.74 -1130.372)" fill="#fff" stroke="#000" stroke-miterlimit="10" stroke-width="0.5"/>
          <path id="Path_489" data-name="Path 489" d="M952.757,1211.135a1.991,1.991,0,1,1-1.991-1.991A1.99,1.99,0,0,1,952.757,1211.135Z" transform="translate(-888.781 -1130.372)" fill="#fff" stroke="#000" stroke-miterlimit="10" stroke-width="0.5"/>
          <path id="Path_490" data-name="Path 490" d="M967.8,1211.135a1.991,1.991,0,1,1-1.991-1.991A1.99,1.99,0,0,1,967.8,1211.135Z" transform="translate(-883.822 -1130.372)" fill="#fff" stroke="#000" stroke-miterlimit="10" stroke-width="0.5"/>
          <path id="Path_491" data-name="Path 491" d="M982.837,1211.135a1.991,1.991,0,1,1-1.992-1.991A1.991,1.991,0,0,1,982.837,1211.135Z" transform="translate(-878.863 -1130.372)" fill="#fff" stroke="#000" stroke-miterlimit="10" stroke-width="0.5"/>
        </g>
        <g id="Group_55" data-name="Group 55" transform="translate(361.529 663.362)">
          <path id="Path_492" data-name="Path 492" d="M430.011,1154.468a1.991,1.991,0,1,1-1.991-1.99A1.99,1.99,0,0,1,430.011,1154.468Z" transform="translate(-426.03 -1152.477)" fill="#fff" stroke="#000" stroke-miterlimit="10" stroke-width="0.5"/>
          <path id="Path_493" data-name="Path 493" d="M445.051,1154.468a1.991,1.991,0,1,1-1.991-1.99A1.99,1.99,0,0,1,445.051,1154.468Z" transform="translate(-421.071 -1152.477)" fill="#fff" stroke="#000" stroke-miterlimit="10" stroke-width="0.5"/>
          <path id="Path_494" data-name="Path 494" d="M460.09,1154.468a1.991,1.991,0,1,1-1.991-1.99A1.99,1.99,0,0,1,460.09,1154.468Z" transform="translate(-416.112 -1152.477)" fill="#fff" stroke="#000" stroke-miterlimit="10" stroke-width="0.5"/>
          <path id="Path_495" data-name="Path 495" d="M475.13,1154.468a1.991,1.991,0,1,1-1.991-1.99A1.99,1.99,0,0,1,475.13,1154.468Z" transform="translate(-411.153 -1152.477)" fill="#fff" stroke="#000" stroke-miterlimit="10" stroke-width="0.5"/>
          <path id="Path_496" data-name="Path 496" d="M490.171,1154.468a1.991,1.991,0,1,1-1.992-1.99A1.991,1.991,0,0,1,490.171,1154.468Z" transform="translate(-406.194 -1152.477)" fill="#fff" stroke="#000" stroke-miterlimit="10" stroke-width="0.5"/>
          <path id="Path_497" data-name="Path 497" d="M505.209,1154.468a1.991,1.991,0,1,1-1.991-1.99A1.99,1.99,0,0,1,505.209,1154.468Z" transform="translate(-401.235 -1152.477)" fill="#fff" stroke="#000" stroke-miterlimit="10" stroke-width="0.5"/>
          <path id="Path_498" data-name="Path 498" d="M430.011,1169.276a1.991,1.991,0,1,1-1.991-1.991A1.991,1.991,0,0,1,430.011,1169.276Z" transform="translate(-426.03 -1147.594)" fill="#fff" stroke="#000" stroke-miterlimit="10" stroke-width="0.5"/>
          <path id="Path_499" data-name="Path 499" d="M445.051,1169.276a1.991,1.991,0,1,1-1.991-1.991A1.991,1.991,0,0,1,445.051,1169.276Z" transform="translate(-421.071 -1147.594)" fill="#fff" stroke="#000" stroke-miterlimit="10" stroke-width="0.5"/>
          <path id="Path_500" data-name="Path 500" d="M460.09,1169.276a1.991,1.991,0,1,1-1.991-1.991A1.991,1.991,0,0,1,460.09,1169.276Z" transform="translate(-416.112 -1147.594)" fill="#fff" stroke="#000" stroke-miterlimit="10" stroke-width="0.5"/>
          <path id="Path_501" data-name="Path 501" d="M475.13,1169.276a1.991,1.991,0,1,1-1.991-1.991A1.991,1.991,0,0,1,475.13,1169.276Z" transform="translate(-411.153 -1147.594)" fill="#fff" stroke="#000" stroke-miterlimit="10" stroke-width="0.5"/>
          <path id="Path_502" data-name="Path 502" d="M490.171,1169.276a1.991,1.991,0,1,1-1.992-1.991A1.992,1.992,0,0,1,490.171,1169.276Z" transform="translate(-406.194 -1147.594)" fill="#fff" stroke="#000" stroke-miterlimit="10" stroke-width="0.5"/>
          <circle id="Ellipse_10" data-name="Ellipse 10" cx="1.991" cy="1.991" r="1.991" transform="translate(99.993 19.692)" fill="#fff" stroke="#000" stroke-miterlimit="10" stroke-width="0.5"/>
          <path id="Path_503" data-name="Path 503" d="M430.011,1184.087a1.991,1.991,0,1,1-1.991-1.991A1.99,1.99,0,0,1,430.011,1184.087Z" transform="translate(-426.03 -1142.711)" fill="#fff" stroke="#000" stroke-miterlimit="10" stroke-width="0.5"/>
          <path id="Path_504" data-name="Path 504" d="M445.051,1184.087a1.991,1.991,0,1,1-1.991-1.991A1.99,1.99,0,0,1,445.051,1184.087Z" transform="translate(-421.071 -1142.711)" fill="#fff" stroke="#000" stroke-miterlimit="10" stroke-width="0.5"/>
          <path id="Path_505" data-name="Path 505" d="M460.09,1184.087a1.991,1.991,0,1,1-1.991-1.991A1.99,1.99,0,0,1,460.09,1184.087Z" transform="translate(-416.112 -1142.711)" fill="#fff" stroke="#000" stroke-miterlimit="10" stroke-width="0.5"/>
          <path id="Path_506" data-name="Path 506" d="M475.13,1184.087a1.991,1.991,0,1,1-1.991-1.991A1.99,1.99,0,0,1,475.13,1184.087Z" transform="translate(-411.153 -1142.711)" fill="#fff" stroke="#000" stroke-miterlimit="10" stroke-width="0.5"/>
          <path id="Path_507" data-name="Path 507" d="M490.171,1184.087a1.991,1.991,0,1,1-1.992-1.991A1.991,1.991,0,0,1,490.171,1184.087Z" transform="translate(-406.194 -1142.711)" fill="#fff" stroke="#000" stroke-miterlimit="10" stroke-width="0.5"/>
          <path id="Path_508" data-name="Path 508" d="M505.209,1184.087a1.991,1.991,0,1,1-1.991-1.991A1.99,1.99,0,0,1,505.209,1184.087Z" transform="translate(-401.235 -1142.711)" fill="#fff" stroke="#000" stroke-miterlimit="10" stroke-width="0.5"/>
          <path id="Path_509" data-name="Path 509" d="M430.011,1198.9a1.991,1.991,0,1,1-1.991-1.99A1.99,1.99,0,0,1,430.011,1198.9Z" transform="translate(-426.03 -1137.827)" fill="#fff" stroke="#000" stroke-miterlimit="10" stroke-width="0.5"/>
          <path id="Path_510" data-name="Path 510" d="M445.051,1198.9a1.991,1.991,0,1,1-1.991-1.99A1.99,1.99,0,0,1,445.051,1198.9Z" transform="translate(-421.071 -1137.827)" fill="#fff" stroke="#000" stroke-miterlimit="10" stroke-width="0.5"/>
          <path id="Path_511" data-name="Path 511" d="M460.09,1198.9a1.991,1.991,0,1,1-1.991-1.99A1.99,1.99,0,0,1,460.09,1198.9Z" transform="translate(-416.112 -1137.827)" fill="#fff" stroke="#000" stroke-miterlimit="10" stroke-width="0.5"/>
          <path id="Path_512" data-name="Path 512" d="M475.13,1198.9a1.991,1.991,0,1,1-1.991-1.99A1.99,1.99,0,0,1,475.13,1198.9Z" transform="translate(-411.153 -1137.827)" fill="#fff" stroke="#000" stroke-miterlimit="10" stroke-width="0.5"/>
          <path id="Path_513" data-name="Path 513" d="M490.171,1198.9a1.991,1.991,0,1,1-1.992-1.99A1.991,1.991,0,0,1,490.171,1198.9Z" transform="translate(-406.194 -1137.827)" fill="#fff" stroke="#000" stroke-miterlimit="10" stroke-width="0.5"/>
          <path id="Path_514" data-name="Path 514" d="M505.209,1198.9a1.991,1.991,0,1,1-1.991-1.99A1.99,1.99,0,0,1,505.209,1198.9Z" transform="translate(-401.235 -1137.827)" fill="#fff" stroke="#000" stroke-miterlimit="10" stroke-width="0.5"/>
          <path id="Path_515" data-name="Path 515" d="M430.011,1213.706a1.991,1.991,0,1,1-1.991-1.991A1.991,1.991,0,0,1,430.011,1213.706Z" transform="translate(-426.03 -1132.944)" fill="#fff" stroke="#000" stroke-miterlimit="10" stroke-width="0.5"/>
          <path id="Path_516" data-name="Path 516" d="M445.051,1213.706a1.991,1.991,0,1,1-1.991-1.991A1.991,1.991,0,0,1,445.051,1213.706Z" transform="translate(-421.071 -1132.944)" fill="#fff" stroke="#000" stroke-miterlimit="10" stroke-width="0.5"/>
          <path id="Path_517" data-name="Path 517" d="M460.09,1213.706a1.991,1.991,0,1,1-1.991-1.991A1.991,1.991,0,0,1,460.09,1213.706Z" transform="translate(-416.112 -1132.944)" fill="#fff" stroke="#000" stroke-miterlimit="10" stroke-width="0.5"/>
          <path id="Path_518" data-name="Path 518" d="M475.13,1213.706a1.991,1.991,0,1,1-1.991-1.991A1.991,1.991,0,0,1,475.13,1213.706Z" transform="translate(-411.153 -1132.944)" fill="#fff" stroke="#000" stroke-miterlimit="10" stroke-width="0.5"/>
          <path id="Path_519" data-name="Path 519" d="M490.171,1213.706a1.991,1.991,0,1,1-1.992-1.991A1.993,1.993,0,0,1,490.171,1213.706Z" transform="translate(-406.194 -1132.944)" fill="#fff" stroke="#000" stroke-miterlimit="10" stroke-width="0.5"/>
          <circle id="Ellipse_11" data-name="Ellipse 11" cx="1.991" cy="1.991" r="1.991" transform="translate(99.993 78.771)" fill="#fff" stroke="#000" stroke-miterlimit="10" stroke-width="0.5"/>
        </g>
        <g id="Group_56" data-name="Group 56" transform="translate(114.059 427.408)">
          <path id="Path_520" data-name="Path 520" d="M243.906,977.024a1.991,1.991,0,1,1-1.991-1.991A1.991,1.991,0,0,1,243.906,977.024Z" transform="translate(-239.925 -975.033)" fill="#fff" stroke="#000" stroke-miterlimit="10" stroke-width="0.5"/>
          <path id="Path_521" data-name="Path 521" d="M258.945,977.024a1.991,1.991,0,1,1-1.991-1.991A1.991,1.991,0,0,1,258.945,977.024Z" transform="translate(-234.966 -975.033)" fill="#fff" stroke="#000" stroke-miterlimit="10" stroke-width="0.5"/>
          <path id="Path_522" data-name="Path 522" d="M273.985,977.024a1.991,1.991,0,1,1-1.991-1.991A1.991,1.991,0,0,1,273.985,977.024Z" transform="translate(-230.007 -975.033)" fill="#fff" stroke="#000" stroke-miterlimit="10" stroke-width="0.5"/>
          <path id="Path_523" data-name="Path 523" d="M289.024,977.024a1.991,1.991,0,1,1-1.991-1.991A1.991,1.991,0,0,1,289.024,977.024Z" transform="translate(-225.048 -975.033)" fill="#fff" stroke="#000" stroke-miterlimit="10" stroke-width="0.5"/>
          <path id="Path_524" data-name="Path 524" d="M304.064,977.024a1.991,1.991,0,1,1-1.991-1.991A1.991,1.991,0,0,1,304.064,977.024Z" transform="translate(-220.089 -975.033)" fill="#fff" stroke="#000" stroke-miterlimit="10" stroke-width="0.5"/>
          <path id="Path_525" data-name="Path 525" d="M319.1,977.024a1.991,1.991,0,1,1-1.992-1.991A1.992,1.992,0,0,1,319.1,977.024Z" transform="translate(-215.13 -975.033)" fill="#fff" stroke="#000" stroke-miterlimit="10" stroke-width="0.5"/>
          <path id="Path_526" data-name="Path 526" d="M243.906,991.834a1.991,1.991,0,1,1-1.991-1.991A1.99,1.99,0,0,1,243.906,991.834Z" transform="translate(-239.925 -970.15)" fill="#fff" stroke="#000" stroke-miterlimit="10" stroke-width="0.5"/>
          <path id="Path_527" data-name="Path 527" d="M258.945,991.834a1.991,1.991,0,1,1-1.991-1.991A1.99,1.99,0,0,1,258.945,991.834Z" transform="translate(-234.966 -970.15)" fill="#fff" stroke="#000" stroke-miterlimit="10" stroke-width="0.5"/>
          <path id="Path_528" data-name="Path 528" d="M273.985,991.834a1.991,1.991,0,1,1-1.991-1.991A1.99,1.99,0,0,1,273.985,991.834Z" transform="translate(-230.007 -970.15)" fill="#fff" stroke="#000" stroke-miterlimit="10" stroke-width="0.5"/>
          <path id="Path_529" data-name="Path 529" d="M289.024,991.834a1.991,1.991,0,1,1-1.991-1.991A1.99,1.99,0,0,1,289.024,991.834Z" transform="translate(-225.048 -970.15)" fill="#fff" stroke="#000" stroke-miterlimit="10" stroke-width="0.5"/>
          <path id="Path_530" data-name="Path 530" d="M304.064,991.834a1.991,1.991,0,1,1-1.991-1.991A1.99,1.99,0,0,1,304.064,991.834Z" transform="translate(-220.089 -970.15)" fill="#fff" stroke="#000" stroke-miterlimit="10" stroke-width="0.5"/>
          <path id="Path_531" data-name="Path 531" d="M319.1,991.834a1.991,1.991,0,1,1-1.992-1.991A1.991,1.991,0,0,1,319.1,991.834Z" transform="translate(-215.13 -970.15)" fill="#fff" stroke="#000" stroke-miterlimit="10" stroke-width="0.5"/>
          <path id="Path_532" data-name="Path 532" d="M243.906,1006.644a1.991,1.991,0,1,1-1.991-1.991A1.99,1.99,0,0,1,243.906,1006.644Z" transform="translate(-239.925 -965.266)" fill="#fff" stroke="#000" stroke-miterlimit="10" stroke-width="0.5"/>
          <path id="Path_533" data-name="Path 533" d="M258.945,1006.644a1.991,1.991,0,1,1-1.991-1.991A1.99,1.99,0,0,1,258.945,1006.644Z" transform="translate(-234.966 -965.266)" fill="#fff" stroke="#000" stroke-miterlimit="10" stroke-width="0.5"/>
          <path id="Path_534" data-name="Path 534" d="M273.985,1006.644a1.991,1.991,0,1,1-1.991-1.991A1.99,1.99,0,0,1,273.985,1006.644Z" transform="translate(-230.007 -965.266)" fill="#fff" stroke="#000" stroke-miterlimit="10" stroke-width="0.5"/>
          <path id="Path_535" data-name="Path 535" d="M289.024,1006.644a1.991,1.991,0,1,1-1.991-1.991A1.99,1.99,0,0,1,289.024,1006.644Z" transform="translate(-225.048 -965.266)" fill="#fff" stroke="#000" stroke-miterlimit="10" stroke-width="0.5"/>
          <path id="Path_536" data-name="Path 536" d="M304.064,1006.644a1.991,1.991,0,1,1-1.991-1.991A1.99,1.99,0,0,1,304.064,1006.644Z" transform="translate(-220.089 -965.266)" fill="#fff" stroke="#000" stroke-miterlimit="10" stroke-width="0.5"/>
          <circle id="Ellipse_12" data-name="Ellipse 12" cx="1.991" cy="1.991" r="1.991" transform="translate(99.992 39.386)" fill="#fff" stroke="#000" stroke-miterlimit="10" stroke-width="0.5"/>
          <path id="Path_537" data-name="Path 537" d="M243.906,1021.454a1.991,1.991,0,1,1-1.991-1.992A1.991,1.991,0,0,1,243.906,1021.454Z" transform="translate(-239.925 -960.383)" fill="#fff" stroke="#000" stroke-miterlimit="10" stroke-width="0.5"/>
          <path id="Path_538" data-name="Path 538" d="M258.945,1021.454a1.991,1.991,0,1,1-1.991-1.992A1.991,1.991,0,0,1,258.945,1021.454Z" transform="translate(-234.966 -960.383)" fill="#fff" stroke="#000" stroke-miterlimit="10" stroke-width="0.5"/>
          <path id="Path_539" data-name="Path 539" d="M273.985,1021.454a1.991,1.991,0,1,1-1.991-1.992A1.991,1.991,0,0,1,273.985,1021.454Z" transform="translate(-230.007 -960.383)" fill="#fff" stroke="#000" stroke-miterlimit="10" stroke-width="0.5"/>
          <path id="Path_540" data-name="Path 540" d="M289.024,1021.454a1.991,1.991,0,1,1-1.991-1.992A1.991,1.991,0,0,1,289.024,1021.454Z" transform="translate(-225.048 -960.383)" fill="#fff" stroke="#000" stroke-miterlimit="10" stroke-width="0.5"/>
          <path id="Path_541" data-name="Path 541" d="M304.064,1021.454a1.991,1.991,0,1,1-1.991-1.992A1.991,1.991,0,0,1,304.064,1021.454Z" transform="translate(-220.089 -960.383)" fill="#fff" stroke="#000" stroke-miterlimit="10" stroke-width="0.5"/>
          <path id="Path_542" data-name="Path 542" d="M319.1,1021.454a1.991,1.991,0,1,1-1.992-1.992A1.992,1.992,0,0,1,319.1,1021.454Z" transform="translate(-215.13 -960.383)" fill="#fff" stroke="#000" stroke-miterlimit="10" stroke-width="0.5"/>
          <path id="Path_543" data-name="Path 543" d="M243.906,1036.263a1.991,1.991,0,1,1-1.991-1.991A1.99,1.99,0,0,1,243.906,1036.263Z" transform="translate(-239.925 -955.5)" fill="#fff" stroke="#000" stroke-miterlimit="10" stroke-width="0.5"/>
          <path id="Path_544" data-name="Path 544" d="M258.945,1036.263a1.991,1.991,0,1,1-1.991-1.991A1.99,1.99,0,0,1,258.945,1036.263Z" transform="translate(-234.966 -955.5)" fill="#fff" stroke="#000" stroke-miterlimit="10" stroke-width="0.5"/>
          <path id="Path_545" data-name="Path 545" d="M273.985,1036.263a1.991,1.991,0,1,1-1.991-1.991A1.99,1.99,0,0,1,273.985,1036.263Z" transform="translate(-230.007 -955.5)" fill="#fff" stroke="#000" stroke-miterlimit="10" stroke-width="0.5"/>
          <path id="Path_546" data-name="Path 546" d="M289.024,1036.263a1.991,1.991,0,1,1-1.991-1.991A1.99,1.99,0,0,1,289.024,1036.263Z" transform="translate(-225.048 -955.5)" fill="#fff" stroke="#000" stroke-miterlimit="10" stroke-width="0.5"/>
          <path id="Path_547" data-name="Path 547" d="M304.064,1036.263a1.991,1.991,0,1,1-1.991-1.991A1.99,1.99,0,0,1,304.064,1036.263Z" transform="translate(-220.089 -955.5)" fill="#fff" stroke="#000" stroke-miterlimit="10" stroke-width="0.5"/>
          <path id="Path_548" data-name="Path 548" d="M319.1,1036.263a1.991,1.991,0,1,1-1.992-1.991A1.991,1.991,0,0,1,319.1,1036.263Z" transform="translate(-215.13 -955.5)" fill="#fff" stroke="#000" stroke-miterlimit="10" stroke-width="0.5"/>
        </g>
        <rect id="Rectangle_70" data-name="Rectangle 70" width="12.271" height="12.271" transform="translate(243.865 257.572) rotate(45)" fill="#fff" stroke="#000" stroke-miterlimit="10" stroke-width="0.5"/>
        <rect id="Rectangle_71" data-name="Rectangle 71" width="12.272" height="12.272" transform="translate(448.183 399.039) rotate(45)" fill="#fff" stroke="#000" stroke-miterlimit="10" stroke-width="0.5"/>
        <rect id="Rectangle_72" data-name="Rectangle 72" width="12.272" height="12.272" transform="translate(671.005 322.447) rotate(45)" fill="#fff" stroke="#000" stroke-miterlimit="10" stroke-width="0.5"/>
        <rect id="Rectangle_73" data-name="Rectangle 73" width="12.272" height="12.272" transform="translate(1066.641 70.952) rotate(45)" fill="#fff" stroke="#000" stroke-miterlimit="10" stroke-width="0.5"/>
        <rect id="Rectangle_74" data-name="Rectangle 74" width="12.272" height="12.272" transform="translate(871.5 196.502) rotate(45)" fill="#fff" stroke="#000" stroke-miterlimit="10" stroke-width="0.5"/>
        <rect id="Rectangle_75" data-name="Rectangle 75" width="12.272" height="12.272" transform="translate(903.556 616.529) rotate(45)" fill="#fff" stroke="#000" stroke-miterlimit="10" stroke-width="0.5"/>
        <rect id="Rectangle_76" data-name="Rectangle 76" width="12.272" height="12.272" transform="translate(1090.622 343.198) rotate(45)" fill="#fff" stroke="#000" stroke-miterlimit="10" stroke-width="0.5"/>
        <rect id="Rectangle_77" data-name="Rectangle 77" width="12.272" height="12.272" transform="translate(508.179 607.852) rotate(45)" fill="#fff" stroke="#000" stroke-miterlimit="10" stroke-width="0.5"/>
        <rect id="Rectangle_78" data-name="Rectangle 78" width="12.272" height="12.272" transform="translate(218.033 596.223) rotate(45)" fill="#fff" stroke="#000" stroke-miterlimit="10" stroke-width="0.5"/>
        <path id="Path_549" data-name="Path 549" d="M585.41,901.411l-10.834-11.636L563.74,901.411,552.9,889.775l-10.837,11.636-10.844-11.636-10.844,11.636" transform="translate(-33.392 -575.737)" fill="#fff" stroke="#000" stroke-miterlimit="10" stroke-width="0.5"/>
        <path id="Path_550" data-name="Path 550" d="M1037.4,761.277l-10.834-11.636-10.837,11.636-10.84-11.636-10.837,11.636L983.21,749.641l-10.844,11.636" transform="translate(115.644 -621.944)" fill="#fff" stroke="#000" stroke-miterlimit="10" stroke-width="0.5"/>
        <path id="Path_551" data-name="Path 551" d="M897.9,982.294l-10.834-11.636-10.837,11.636-10.84-11.636-10.837,11.636-10.844-11.636-10.844,11.636" transform="translate(69.646 -549.067)" fill="#fff" stroke="#000" stroke-miterlimit="10" stroke-width="0.5"/>
        <path id="Path_552" data-name="Path 552" d="M632.536,1093.569,621.7,1081.932l-10.836,11.636-10.84-11.636-10.837,11.636-10.844-11.636L567.5,1093.569" transform="translate(-17.854 -512.376)" fill="#fff" stroke="#000" stroke-miterlimit="10" stroke-width="0.5"/>
        <path id="Path_553" data-name="Path 553" d="M1040.838,1102.59,1030,1090.953l-10.837,11.636-10.84-11.636L997.49,1102.59l-10.844-11.636L975.8,1102.59" transform="translate(116.777 -509.402)" fill="#fff" stroke="#000" stroke-miterlimit="10" stroke-width="0.5"/>
        <path id="Path_554" data-name="Path 554" d="M428.141,816.668l-10.834-11.636L406.47,816.668l-10.84-11.636-10.837,11.636-10.844-11.636L363.1,816.668" transform="translate(-85.249 -603.68)" fill="#fff" stroke="#000" stroke-miterlimit="10" stroke-width="0.5"/>
        <path id="Path_555" data-name="Path 555" d="M776.12,732.106,765.287,720.47,754.45,732.106,743.61,720.47l-10.837,11.636L721.928,720.47l-10.844,11.636" transform="translate(29.491 -631.563)" fill="#fff" stroke="#000" stroke-miterlimit="10" stroke-width="0.5"/>
        <path id="Path_556" data-name="Path 556" d="M349.579,1162.732,338.745,1151.1l-10.837,11.636-10.84-11.636-10.837,11.636L295.387,1151.1l-10.844,11.636" transform="translate(-111.154 -489.571)" fill="#fff" stroke="#000" stroke-miterlimit="10" stroke-width="0.5"/>
        <path id="Path_557" data-name="Path 557" d="M368.146,1020.408a48.481,48.481,0,0,1,63.8-73.016" transform="translate(-89.055 -560.687)" fill="#fff" stroke="#000" stroke-linecap="round" stroke-linejoin="round" stroke-width="0.5"/>
        <path id="Path_558" data-name="Path 558" d="M926.817,748.882a48.481,48.481,0,1,1-52.853,81.291" transform="translate(83.198 -622.194)" fill="#fff" stroke="#000" stroke-linecap="round" stroke-linejoin="round" stroke-width="0.5"/>
        <path id="Path_559" data-name="Path 559" d="M493.218,662.191a48.481,48.481,0,1,1-52.853,81.291" transform="translate(-59.774 -650.779)" fill="#fff" stroke="#000" stroke-linecap="round" stroke-linejoin="round" stroke-width="0.5"/>
        <path id="Path_560" data-name="Path 560" d="M750.207,1126.545a48.481,48.481,0,1,1-87.45-41.881" transform="translate(11.984 -511.476)" fill="#fff" stroke="#000" stroke-linecap="round" stroke-linejoin="round" stroke-width="0.5"/>
        <g id="Group_57" data-name="Group 57" transform="translate(1026.644 183.495)">
          <path id="Path_561" data-name="Path 561" d="M930.2,793.594a1.991,1.991,0,1,1-1.991-1.991A1.991,1.991,0,0,1,930.2,793.594Z" transform="translate(-926.217 -791.603)" fill="#fff" stroke="#000" stroke-miterlimit="10" stroke-width="0.5"/>
          <path id="Path_562" data-name="Path 562" d="M945.239,793.594a1.991,1.991,0,1,1-1.99-1.991A1.992,1.992,0,0,1,945.239,793.594Z" transform="translate(-921.258 -791.603)" fill="#fff" stroke="#000" stroke-miterlimit="10" stroke-width="0.5"/>
          <path id="Path_563" data-name="Path 563" d="M960.277,793.594a1.991,1.991,0,1,1-1.99-1.991A1.991,1.991,0,0,1,960.277,793.594Z" transform="translate(-916.299 -791.603)" fill="#fff" stroke="#000" stroke-miterlimit="10" stroke-width="0.5"/>
          <path id="Path_564" data-name="Path 564" d="M975.317,793.594a1.991,1.991,0,1,1-1.991-1.991A1.991,1.991,0,0,1,975.317,793.594Z" transform="translate(-911.34 -791.603)" fill="#fff" stroke="#000" stroke-miterlimit="10" stroke-width="0.5"/>
          <path id="Path_565" data-name="Path 565" d="M990.356,793.594a1.991,1.991,0,1,1-1.991-1.991A1.991,1.991,0,0,1,990.356,793.594Z" transform="translate(-906.381 -791.603)" fill="#fff" stroke="#000" stroke-miterlimit="10" stroke-width="0.5"/>
          <path id="Path_566" data-name="Path 566" d="M1005.4,793.594a1.991,1.991,0,1,1-1.991-1.991A1.991,1.991,0,0,1,1005.4,793.594Z" transform="translate(-901.422 -791.603)" fill="#fff" stroke="#000" stroke-miterlimit="10" stroke-width="0.5"/>
          <path id="Path_567" data-name="Path 567" d="M930.2,808.4a1.991,1.991,0,1,1-1.991-1.991A1.99,1.99,0,0,1,930.2,808.4Z" transform="translate(-926.217 -786.72)" fill="#fff" stroke="#000" stroke-miterlimit="10" stroke-width="0.5"/>
          <path id="Path_568" data-name="Path 568" d="M945.239,808.4a1.991,1.991,0,1,1-1.99-1.991A1.991,1.991,0,0,1,945.239,808.4Z" transform="translate(-921.258 -786.72)" fill="#fff" stroke="#000" stroke-miterlimit="10" stroke-width="0.5"/>
          <path id="Path_569" data-name="Path 569" d="M960.277,808.4a1.991,1.991,0,1,1-1.99-1.991A1.99,1.99,0,0,1,960.277,808.4Z" transform="translate(-916.299 -786.72)" fill="#fff" stroke="#000" stroke-miterlimit="10" stroke-width="0.5"/>
          <path id="Path_570" data-name="Path 570" d="M975.317,808.4a1.991,1.991,0,1,1-1.991-1.991A1.99,1.99,0,0,1,975.317,808.4Z" transform="translate(-911.34 -786.72)" fill="#fff" stroke="#000" stroke-miterlimit="10" stroke-width="0.5"/>
          <path id="Path_571" data-name="Path 571" d="M990.356,808.4a1.991,1.991,0,1,1-1.991-1.991A1.99,1.99,0,0,1,990.356,808.4Z" transform="translate(-906.381 -786.72)" fill="#fff" stroke="#000" stroke-miterlimit="10" stroke-width="0.5"/>
          <path id="Path_572" data-name="Path 572" d="M1005.4,808.4a1.991,1.991,0,1,1-1.991-1.991A1.99,1.99,0,0,1,1005.4,808.4Z" transform="translate(-901.422 -786.72)" fill="#fff" stroke="#000" stroke-miterlimit="10" stroke-width="0.5"/>
          <path id="Path_573" data-name="Path 573" d="M930.2,823.214a1.991,1.991,0,1,1-1.991-1.991A1.99,1.99,0,0,1,930.2,823.214Z" transform="translate(-926.217 -781.836)" fill="#fff" stroke="#000" stroke-miterlimit="10" stroke-width="0.5"/>
          <circle id="Ellipse_13" data-name="Ellipse 13" cx="1.991" cy="1.991" r="1.991" transform="translate(19.999 39.386)" fill="#fff" stroke="#000" stroke-miterlimit="10" stroke-width="0.5"/>
          <path id="Path_574" data-name="Path 574" d="M960.277,823.214a1.991,1.991,0,1,1-1.99-1.991A1.99,1.99,0,0,1,960.277,823.214Z" transform="translate(-916.299 -781.836)" fill="#fff" stroke="#000" stroke-miterlimit="10" stroke-width="0.5"/>
          <circle id="Ellipse_14" data-name="Ellipse 14" cx="1.991" cy="1.991" r="1.991" transform="translate(59.996 39.386)" fill="#fff" stroke="#000" stroke-miterlimit="10" stroke-width="0.5"/>
          <path id="Path_575" data-name="Path 575" d="M990.356,823.214a1.991,1.991,0,1,1-1.991-1.991A1.99,1.99,0,0,1,990.356,823.214Z" transform="translate(-906.381 -781.836)" fill="#fff" stroke="#000" stroke-miterlimit="10" stroke-width="0.5"/>
          <circle id="Ellipse_15" data-name="Ellipse 15" cx="1.991" cy="1.991" r="1.991" transform="translate(99.993 39.386)" fill="#fff" stroke="#000" stroke-miterlimit="10" stroke-width="0.5"/>
          <path id="Path_576" data-name="Path 576" d="M930.2,838.024a1.991,1.991,0,1,1-1.991-1.992A1.991,1.991,0,0,1,930.2,838.024Z" transform="translate(-926.217 -776.953)" fill="#fff" stroke="#000" stroke-miterlimit="10" stroke-width="0.5"/>
          <path id="Path_577" data-name="Path 577" d="M945.239,838.024a1.991,1.991,0,1,1-1.99-1.992A1.992,1.992,0,0,1,945.239,838.024Z" transform="translate(-921.258 -776.953)" fill="#fff" stroke="#000" stroke-miterlimit="10" stroke-width="0.5"/>
          <path id="Path_578" data-name="Path 578" d="M960.277,838.024a1.991,1.991,0,1,1-1.99-1.992A1.991,1.991,0,0,1,960.277,838.024Z" transform="translate(-916.299 -776.953)" fill="#fff" stroke="#000" stroke-miterlimit="10" stroke-width="0.5"/>
          <path id="Path_579" data-name="Path 579" d="M975.317,838.024a1.991,1.991,0,1,1-1.991-1.992A1.991,1.991,0,0,1,975.317,838.024Z" transform="translate(-911.34 -776.953)" fill="#fff" stroke="#000" stroke-miterlimit="10" stroke-width="0.5"/>
          <path id="Path_580" data-name="Path 580" d="M990.356,838.024a1.991,1.991,0,1,1-1.991-1.992A1.991,1.991,0,0,1,990.356,838.024Z" transform="translate(-906.381 -776.953)" fill="#fff" stroke="#000" stroke-miterlimit="10" stroke-width="0.5"/>
          <path id="Path_581" data-name="Path 581" d="M1005.4,838.024a1.991,1.991,0,1,1-1.991-1.992A1.991,1.991,0,0,1,1005.4,838.024Z" transform="translate(-901.422 -776.953)" fill="#fff" stroke="#000" stroke-miterlimit="10" stroke-width="0.5"/>
          <path id="Path_582" data-name="Path 582" d="M930.2,852.833a1.991,1.991,0,1,1-1.991-1.991A1.99,1.99,0,0,1,930.2,852.833Z" transform="translate(-926.217 -772.07)" fill="#fff" stroke="#000" stroke-miterlimit="10" stroke-width="0.5"/>
          <path id="Path_583" data-name="Path 583" d="M945.239,852.833a1.991,1.991,0,1,1-1.99-1.991A1.991,1.991,0,0,1,945.239,852.833Z" transform="translate(-921.258 -772.07)" fill="#fff" stroke="#000" stroke-miterlimit="10" stroke-width="0.5"/>
          <path id="Path_584" data-name="Path 584" d="M960.277,852.833a1.991,1.991,0,1,1-1.99-1.991A1.99,1.99,0,0,1,960.277,852.833Z" transform="translate(-916.299 -772.07)" fill="#fff" stroke="#000" stroke-miterlimit="10" stroke-width="0.5"/>
          <path id="Path_585" data-name="Path 585" d="M975.317,852.833a1.991,1.991,0,1,1-1.991-1.991A1.99,1.99,0,0,1,975.317,852.833Z" transform="translate(-911.34 -772.07)" fill="#fff" stroke="#000" stroke-miterlimit="10" stroke-width="0.5"/>
          <path id="Path_586" data-name="Path 586" d="M990.356,852.833a1.991,1.991,0,1,1-1.991-1.991A1.99,1.99,0,0,1,990.356,852.833Z" transform="translate(-906.381 -772.07)" fill="#fff" stroke="#000" stroke-miterlimit="10" stroke-width="0.5"/>
          <path id="Path_587" data-name="Path 587" d="M1005.4,852.833a1.991,1.991,0,1,1-1.991-1.991A1.99,1.99,0,0,1,1005.4,852.833Z" transform="translate(-901.422 -772.07)" fill="#fff" stroke="#000" stroke-miterlimit="10" stroke-width="0.5"/>
        </g>
        <g id="Group_59" data-name="Group 59" transform="translate(876.036 299.136)">
          <g id="Group_58" data-name="Group 58" transform="translate(44.402 25.393)">
            <path id="Path_588" data-name="Path 588" d="M859.195,897.782c7.068-.988,12.785,4.355,12.764,11.93s-5.77,14.53-12.839,15.518-12.795-4.355-12.773-11.938S852.118,898.771,859.195,897.782Z" transform="translate(-846.347 -897.664)" fill="#fff" stroke="#000" stroke-miterlimit="10" stroke-width="0.5"/>
          </g>
          <path id="Path_589" data-name="Path 589" d="M857.493,917.71c.041-.317.078-.633.137-.945.036-.185.088-.366.129-.549.063-.274.12-.549.2-.819.056-.2.128-.386.19-.578.082-.251.158-.505.251-.753q.229-.6.5-1.175c.048-.1.1-.2.154-.3.132-.265.267-.525.412-.782a17.007,17.007,0,0,1,.923-1.457c.072-.1.152-.2.226-.3.255-.342.523-.676.8-1,.112-.129.226-.255.342-.379.286-.308.585-.6.892-.888.094-.086.185-.178.281-.263a15.44,15.44,0,0,1,1.322-1.037c.247-.174.5-.338.757-.5.083-.051.162-.106.246-.156.356-.21.722-.4,1.094-.582.075-.035.152-.065.226-.1.294-.134.59-.258.892-.37.121-.045.243-.088.366-.129q.411-.14.83-.251c.118-.032.235-.067.355-.094.392-.093.787-.174,1.188-.23s.79-.085,1.178-.1c.114,0,.226-.005.338-.007.292,0,.58,0,.866.021.1.007.207.011.31.02.371.033.738.081,1.1.149.049.009.094.024.144.033.313.065.618.144.92.234.116.035.231.072.346.112.182.061.362.128.54.2.118.048.237.1.352.147.178.078.352.164.525.253.149.076.3.148.445.23l-44.4-25.4c-.073-.041-.146-.083-.221-.122s-.151-.071-.225-.109c-.173-.088-.347-.173-.524-.251-.117-.052-.235-.1-.354-.148q-.267-.106-.54-.2c-.069-.024-.136-.055-.2-.076-.047-.015-.1-.023-.141-.036-.3-.09-.608-.169-.92-.234-.048-.009-.094-.024-.144-.033-.358-.069-.725-.116-1.1-.15-.1-.008-.207-.012-.31-.019-.286-.017-.573-.025-.866-.021-.112,0-.223,0-.336.007-.39.016-.781.045-1.178.1s-.8.137-1.189.23c-.12.028-.237.063-.355.094q-.419.112-.83.251c-.122.041-.245.084-.367.129-.3.112-.6.235-.89.368-.076.035-.153.064-.227.1l-.06.027c-.351.17-.7.356-1.035.554-.084.051-.164.106-.246.157-.222.137-.444.27-.658.419-.035.023-.064.053-.1.076a15.7,15.7,0,0,0-1.322,1.038c-.024.021-.051.037-.075.059-.072.064-.136.14-.206.2q-.463.425-.892.887c-.059.064-.125.118-.182.182s-.1.134-.16.2q-.419.481-.8,1c-.056.077-.122.145-.178.222-.017.024-.031.052-.048.076a16.829,16.829,0,0,0-.923,1.457c-.023.041-.052.077-.074.118-.12.217-.227.441-.338.663-.051.1-.106.2-.154.3-.175.372-.339.749-.487,1.134l-.015.043c-.093.247-.169.5-.25.751-.064.194-.135.383-.191.58-.076.269-.132.544-.194.817-.043.185-.094.366-.13.552-.058.311-.1.629-.136.944-.02.153-.051.3-.065.456q-.07.708-.072,1.424a11.9,11.9,0,0,0,5.706,10.647l44.4,25.4a11.9,11.9,0,0,1-5.706-10.647q0-.716.072-1.424C857.444,918.012,857.474,917.863,857.493,917.71Z" transform="translate(-812.955 -878.568)" fill="#fff" stroke="#000" stroke-miterlimit="10" stroke-width="0.5"/>
        </g>
        <g id="Group_61" data-name="Group 61" transform="translate(119.048 287.499)">
          <g id="Group_60" data-name="Group 60" transform="translate(44.402 25.393)">
            <path id="Path_590" data-name="Path 590" d="M289.917,889.031c7.069-.988,12.785,4.355,12.764,11.93s-5.77,14.53-12.839,15.518-12.793-4.354-12.773-11.938S282.84,890.021,289.917,889.031Z" transform="translate(-277.069 -888.913)" fill="#fff" stroke="#000" stroke-miterlimit="10" stroke-width="0.5"/>
          </g>
          <path id="Path_591" data-name="Path 591" d="M288.216,908.959c.04-.316.077-.633.136-.945.036-.185.088-.366.129-.549.063-.274.12-.549.2-.819.055-.2.126-.386.189-.578.082-.251.158-.505.253-.753.152-.4.319-.791.5-1.176.048-.1.1-.2.154-.3.132-.265.267-.525.412-.781a16.854,16.854,0,0,1,.923-1.459c.073-.1.152-.2.226-.3.255-.342.523-.676.8-1,.112-.128.226-.255.342-.379q.431-.463.892-.888c.094-.086.185-.178.281-.263a15.414,15.414,0,0,1,1.322-1.037c.247-.174.5-.338.757-.5.082-.051.162-.106.246-.156q.537-.315,1.094-.583c.074-.035.152-.064.226-.1.294-.133.59-.258.892-.37.121-.045.243-.087.366-.129q.411-.14.83-.251c.118-.032.235-.065.355-.094.392-.093.787-.174,1.189-.23s.79-.085,1.178-.1c.113,0,.225-.005.338-.007.291,0,.578,0,.864.021.1.007.207.011.31.02.371.033.738.081,1.1.149.048.009.094.024.142.033q.469.1.92.234c.117.035.231.073.346.112.182.061.363.128.54.2.118.048.237.1.352.148.178.078.352.163.525.253.149.076.3.148.445.23l-44.4-25.4c-.073-.041-.146-.083-.221-.122s-.15-.07-.225-.109c-.173-.088-.347-.173-.524-.251-.117-.052-.235-.1-.354-.148-.178-.071-.358-.137-.54-.2-.069-.024-.134-.054-.2-.076-.047-.015-.094-.023-.141-.036-.3-.09-.608-.169-.92-.234-.048-.009-.094-.024-.142-.033a11.036,11.036,0,0,0-1.1-.149c-.1-.009-.206-.013-.31-.02-.286-.017-.573-.025-.864-.021-.113,0-.225,0-.338.007-.388.016-.781.045-1.178.1s-.8.137-1.189.23c-.12.028-.237.063-.355.094q-.419.112-.828.251c-.124.041-.246.084-.368.129q-.451.167-.89.37c-.076.033-.153.063-.227.1l-.06.027c-.351.17-.7.356-1.035.556-.084.049-.164.1-.246.156-.222.137-.444.271-.658.419-.035.023-.064.053-.1.077a15.435,15.435,0,0,0-1.322,1.037c-.024.021-.051.037-.074.059-.072.064-.134.14-.206.2-.307.285-.605.578-.892.887-.059.064-.125.118-.182.182s-.1.134-.16.2q-.419.48-.8,1c-.057.077-.124.145-.18.222-.017.024-.031.052-.048.076a16.867,16.867,0,0,0-.923,1.457c-.023.041-.052.077-.074.118-.12.217-.227.441-.338.664-.051.1-.105.2-.154.3-.176.371-.339.749-.487,1.133l-.013.043c-.094.247-.17.5-.251.751-.064.194-.136.383-.19.58-.077.269-.133.544-.2.816-.043.185-.094.366-.129.552-.06.313-.1.629-.137.944-.02.153-.051.3-.065.456-.045.472-.07.947-.072,1.424a11.9,11.9,0,0,0,5.706,10.647l44.4,25.4a11.9,11.9,0,0,1-5.706-10.647q0-.716.072-1.424C288.166,909.261,288.2,909.112,288.216,908.959Z" transform="translate(-243.677 -869.817)" fill="#fff" stroke="#000" stroke-miterlimit="10" stroke-width="0.5"/>
        </g>
        <g id="Group_63" data-name="Group 63" transform="translate(1118.038 496.934)">
          <g id="Group_62" data-name="Group 62" transform="translate(44.402 25.393)">
            <path id="Path_592" data-name="Path 592" d="M1041.188,1046.532c7.069-.988,12.785,4.355,12.764,11.93s-5.77,14.53-12.838,15.518-12.794-4.354-12.774-11.938S1034.111,1047.521,1041.188,1046.532Z" transform="translate(-1028.34 -1046.415)" fill="#fff" stroke="#000" stroke-miterlimit="10" stroke-width="0.5"/>
          </g>
          <path id="Path_593" data-name="Path 593" d="M1039.487,1066.461c.04-.317.077-.635.137-.947.035-.185.086-.366.129-.548.063-.275.119-.551.2-.821.056-.2.126-.384.189-.577.083-.252.158-.507.253-.752.152-.4.319-.793.5-1.177.049-.1.1-.2.154-.3.132-.263.269-.525.412-.781a17.217,17.217,0,0,1,.923-1.458c.073-.1.153-.2.227-.3q.381-.515.8-1c.113-.128.226-.254.342-.379q.431-.463.894-.888c.093-.086.184-.178.279-.262a15.429,15.429,0,0,1,1.322-1.038c.247-.173.5-.338.758-.5.082-.051.162-.106.245-.156q.536-.315,1.1-.581c.073-.036.15-.065.225-.1.294-.133.59-.257.892-.37.121-.045.243-.086.366-.129.274-.093.55-.176.83-.251.118-.032.237-.065.355-.094.392-.093.787-.174,1.189-.23s.79-.084,1.178-.1c.113,0,.225,0,.338-.005q.437-.006.864.02c.1.007.207.011.31.02a10.933,10.933,0,0,1,1.1.15c.048.009.094.022.142.033.313.064.62.142.922.233.116.036.23.073.344.112.182.061.363.128.54.2.12.047.237.094.354.146.178.078.352.165.524.253.15.076.3.148.447.231l-44.4-25.4-.221-.122c-.074-.04-.152-.071-.226-.109-.173-.088-.346-.173-.524-.251-.117-.052-.234-.1-.354-.147-.177-.071-.358-.137-.538-.2-.07-.024-.136-.053-.206-.076-.045-.015-.094-.021-.141-.036-.3-.09-.608-.169-.92-.232-.048-.011-.094-.024-.142-.033a11,11,0,0,0-1.1-.15c-.1-.009-.206-.013-.31-.02q-.427-.026-.864-.021c-.113,0-.225,0-.338.007-.388.017-.781.045-1.178.1s-.8.137-1.189.23c-.118.029-.237.063-.355.094-.279.076-.556.158-.828.251-.124.042-.246.084-.368.129q-.451.17-.89.37c-.076.035-.152.064-.226.1l-.06.027q-.528.255-1.036.556c-.084.049-.164.105-.246.157-.221.136-.444.27-.658.417-.033.024-.064.053-.1.077a15.485,15.485,0,0,0-1.323,1.037c-.024.021-.051.039-.074.06-.072.064-.134.138-.206.2q-.461.427-.891.888c-.058.063-.125.117-.183.181s-.1.134-.16.2q-.419.483-.8,1c-.057.077-.124.145-.179.222-.017.025-.031.052-.048.076a16.806,16.806,0,0,0-.922,1.459c-.024.04-.052.075-.076.117-.12.217-.227.442-.338.664-.05.1-.1.2-.154.3-.174.371-.339.749-.485,1.133l-.015.044c-.094.246-.17.5-.251.751-.062.193-.134.383-.19.578-.077.269-.133.544-.2.818-.042.183-.094.366-.129.55-.06.313-.1.629-.137.946-.02.152-.051.3-.065.455-.045.472-.071.947-.072,1.424a11.9,11.9,0,0,0,5.707,10.647l44.4,25.4a11.9,11.9,0,0,1-5.707-10.647c0-.477.027-.952.072-1.423C1039.437,1066.763,1039.467,1066.613,1039.487,1066.461Z" transform="translate(-994.948 -1027.318)" fill="#fff" stroke="#000" stroke-miterlimit="10" stroke-width="0.5"/>
        </g>
        <g id="Group_65" data-name="Group 65" transform="translate(557.77 35.831)">
          <g id="Group_64" data-name="Group 64" transform="translate(44.402 25.392)">
            <path id="Path_594" data-name="Path 594" d="M619.848,699.768c7.069-.988,12.785,4.356,12.766,11.93s-5.771,14.53-12.84,15.518S606.98,722.863,607,715.279,612.771,700.757,619.848,699.768Z" transform="translate(-607.001 -699.65)" fill="#fff" stroke="#000" stroke-miterlimit="10" stroke-width="0.5"/>
          </g>
          <path id="Path_595" data-name="Path 595" d="M618.147,719.7c.04-.317.077-.634.137-.945.036-.186.088-.366.129-.549.063-.274.12-.551.2-.82.056-.2.128-.384.19-.577.082-.251.158-.505.251-.753q.227-.6.5-1.177c.048-.1.1-.2.154-.3q.2-.395.412-.781a16.523,16.523,0,0,1,.923-1.459c.072-.1.152-.2.226-.3q.383-.515.8-1c.112-.129.226-.255.342-.38q.429-.463.892-.887c.094-.088.185-.18.281-.263a15.7,15.7,0,0,1,1.322-1.039q.371-.259.757-.495c.082-.052.162-.108.246-.157.356-.21.722-.4,1.094-.581.074-.036.151-.065.226-.1.292-.133.59-.257.891-.37.122-.045.245-.086.367-.128.273-.093.55-.177.828-.251.118-.032.237-.066.356-.094.391-.094.787-.174,1.187-.231s.79-.084,1.178-.1c.113-.005.226-.005.338-.007q.437-.006.864.021c.1.005.207.009.31.019a10.925,10.925,0,0,1,1.1.15c.048.009.094.023.142.033q.469.1.922.234c.116.035.231.072.346.11.182.063.362.128.54.2.118.047.237.1.352.146.178.08.352.165.525.253.149.076.3.148.445.231l-44.4-25.4c-.073-.043-.146-.084-.221-.124s-.152-.07-.226-.108c-.172-.088-.346-.173-.523-.253-.117-.05-.235-.1-.354-.146-.178-.072-.358-.138-.54-.2-.069-.023-.136-.053-.2-.076-.047-.015-.1-.021-.141-.036-.3-.09-.608-.169-.92-.233-.048-.011-.094-.024-.144-.033a10.942,10.942,0,0,0-1.1-.15c-.1-.009-.206-.013-.309-.02q-.429-.026-.866-.02c-.112,0-.223,0-.338.007-.388.016-.779.045-1.178.1s-.8.137-1.187.231c-.12.028-.237.063-.355.093-.279.076-.556.158-.83.251-.122.043-.246.084-.367.129q-.451.169-.89.37c-.076.035-.153.064-.227.1l-.06.025c-.352.17-.7.356-1.035.556-.084.049-.164.106-.247.157-.221.136-.443.27-.657.418-.035.024-.065.053-.1.077a15.175,15.175,0,0,0-1.322,1.039c-.024.02-.052.037-.075.058-.073.064-.136.138-.206.2q-.463.425-.892.887c-.059.063-.125.117-.182.182s-.105.134-.16.2c-.281.32-.546.653-.8,1-.057.076-.122.144-.178.222-.017.024-.031.051-.048.074a16.538,16.538,0,0,0-.923,1.459c-.023.04-.052.077-.074.117-.12.217-.227.441-.338.664-.051.1-.106.2-.154.3-.176.371-.339.749-.487,1.133l-.015.044c-.093.246-.169.5-.251.751-.062.193-.134.383-.19.578-.076.27-.133.544-.194.818-.043.184-.094.366-.13.552-.06.311-.1.628-.137.944-.019.152-.049.3-.064.456q-.07.706-.072,1.424a11.9,11.9,0,0,0,5.706,10.647l44.4,25.4a11.9,11.9,0,0,1-5.706-10.647q0-.718.072-1.424C618.1,720,618.128,719.849,618.147,719.7Z" transform="translate(-573.609 -680.555)" fill="#fff" stroke="#000" stroke-miterlimit="10" stroke-width="0.5"/>
        </g>
        <g id="Group_67" data-name="Group 67" transform="translate(428.505 494.413)">
          <g id="Group_66" data-name="Group 66" transform="translate(44.402 25.393)">
            <path id="Path_596" data-name="Path 596" d="M522.638,1044.636c7.069-.988,12.785,4.355,12.765,11.93s-5.771,14.53-12.84,15.518-12.793-4.355-12.773-11.938S515.561,1045.625,522.638,1044.636Z" transform="translate(-509.79 -1044.519)" fill="#fff" stroke="#000" stroke-miterlimit="10" stroke-width="0.5"/>
          </g>
          <path id="Path_597" data-name="Path 597" d="M520.937,1064.564c.04-.317.077-.633.137-.946.035-.185.086-.366.129-.549.063-.274.118-.549.2-.819.056-.2.126-.386.19-.578.081-.251.157-.505.251-.753q.227-.6.5-1.175c.049-.1.1-.2.154-.3.132-.265.269-.525.414-.782a16.709,16.709,0,0,1,.923-1.457c.072-.1.152-.2.226-.3q.383-.515.8-1c.113-.129.227-.255.343-.38q.429-.463.892-.887c.094-.087.184-.178.279-.263a15.574,15.574,0,0,1,1.322-1.037c.247-.174.5-.338.758-.5.082-.051.162-.106.245-.156q.536-.315,1.1-.582c.074-.035.15-.065.226-.1q.439-.2.891-.37c.121-.045.243-.088.366-.129q.411-.14.83-.251c.118-.032.237-.066.355-.094.392-.093.787-.174,1.189-.23s.79-.085,1.178-.1c.113,0,.225-.005.338-.007.291,0,.58,0,.864.021.1.007.207.011.31.02a11.026,11.026,0,0,1,1.1.149c.048.01.094.024.142.033q.469.1.922.234c.116.035.23.072.344.112.182.061.363.128.541.2.118.048.235.1.352.148.178.078.352.164.525.253.149.076.3.148.445.23l-44.4-25.4-.221-.122c-.073-.04-.152-.07-.226-.109-.173-.088-.346-.173-.524-.251-.116-.052-.234-.1-.354-.148-.177-.07-.356-.137-.539-.2-.07-.024-.136-.054-.206-.076-.045-.015-.094-.023-.141-.036q-.451-.136-.92-.234c-.048-.009-.094-.024-.142-.033a11,11,0,0,0-1.1-.15c-.1-.009-.206-.012-.31-.019-.285-.017-.573-.025-.864-.021-.113,0-.225,0-.338.007-.388.016-.781.045-1.178.1s-.8.137-1.189.23c-.118.028-.237.063-.355.094q-.419.112-.828.251c-.124.041-.246.084-.367.129-.3.112-.6.235-.891.368-.074.035-.152.064-.226.1l-.06.027c-.352.17-.7.356-1.036.554-.084.051-.164.106-.246.157-.221.137-.443.27-.658.419-.033.023-.064.053-.1.076a15.921,15.921,0,0,0-1.323,1.039c-.023.021-.051.037-.075.058-.072.064-.134.14-.2.2q-.463.425-.892.887c-.058.064-.125.118-.183.182s-.1.134-.16.2q-.419.481-.8,1c-.057.076-.124.145-.18.222-.016.024-.029.052-.047.076a16.529,16.529,0,0,0-.923,1.457c-.024.041-.052.077-.074.118-.121.217-.229.442-.339.664-.051.1-.105.2-.154.3-.174.372-.338.749-.485,1.134l-.015.042c-.094.247-.169.5-.251.751-.062.194-.134.383-.19.58-.077.269-.133.544-.2.817-.041.185-.094.366-.129.552-.06.311-.1.629-.137.944-.02.153-.051.3-.065.456-.045.472-.07.947-.072,1.424a11.9,11.9,0,0,0,5.707,10.647l44.4,25.4a11.9,11.9,0,0,1-5.707-10.647c0-.477.027-.952.072-1.424C520.887,1064.866,520.917,1064.717,520.937,1064.564Z" transform="translate(-476.398 -1025.422)" fill="#fff" stroke="#000" stroke-miterlimit="10" stroke-width="0.5"/>
        </g>
      </g>
    </g>
    <g id="Group_80" data-name="Group 80">
      <line id="Line_10" data-name="Line 10" x2="789" y2="789" transform="translate(1131)" fill="none" stroke="#000" stroke-linecap="round" stroke-width="2" opacity="0.503"/>
      <line id="Line_11" data-name="Line 11" x2="690" y2="690" transform="translate(1230)" fill="none" stroke="#000" stroke-linecap="round" stroke-width="2" opacity="0.4"/>
      <path id="Path_114" data-name="Path 114" d="M0,0,625,625" transform="translate(1295)" fill="none" stroke="#000" stroke-linecap="round" stroke-width="2" opacity="0.3"/>
      <line id="Line_12" data-name="Line 12" x2="586" y2="586" transform="translate(1334)" fill="none" stroke="#000" stroke-linecap="round" stroke-width="2" opacity="0.2"/>
    </g>
  </g>
</svg>
