<svg xmlns="http://www.w3.org/2000/svg" width="1921.414" height="1081.414" viewBox="0 0 1921.414 1081.414">
  <g id="Group_90" data-name="Group 90" transform="translate(0 1.414)">
    <g id="Group_70" data-name="Group 70" transform="translate(-92.226 -122.817)" opacity="0.251">
      <path id="Path_598" data-name="Path 598" d="M295.858,553.616H113.4c-9.928-13.745-3.983-29.167-4.6-43.877-1.6-38.07.081-76.164-.743-114.241-.225-10.364,3-14.735,15.108-15.084,47.663-1.366,95.287.271,142.926.394,6.716.014,13.46-.669,19.968-1.261C299.056,378.371,300.6,383.7,300.891,395c.923,35.95-.113,71.9.806,107.8.331,12.953,2.113,25.638-.113,38.718C300.711,546.64,299.13,550.214,295.858,553.616Z" transform="translate(38.759 647.002)" fill="#202020"/>
      <path id="Path_599" data-name="Path 599" d="M373.422,211.753c2.067,15.048-5.434,17.7-19.127,17.6-87.325-.592-174.657-.3-261.989-.3V145.09c6.043-7.181,14.189-8.614,23-8.642,53.6-.162,107.205-.345,160.8.144,12.175.113,24.127,3.884,36.365,3.293,9.093-.447,9.748,5.159,9.59,12.393-.743,34.235-.62,34.235,33.425,33.087C372.358,184.794,372.358,184.794,373.422,211.753Z" transform="translate(0.206 33.938)" fill="#ccc"/>
      <path id="Path_600" data-name="Path 600" d="M92.307,224.94c40.616-15.154,76.879-9.09,108.029,22Q233.1,279.631,265.9,312.3c26.262,26.2,34.647,66.247,20.676,98.637-15.82,36.665-45.529,56.291-85.374,55.26-21.961-.571-41.493-8.121-57.513-23.793-17-16.637-34.242-33.034-51.382-49.533v-17.5c6.79-6.621,13.8-12.819,16.4-22.736,8.769-33.464,30.977-54.9,62.257-68.135,17.7-7.491,19.077-14.323,5.515-27.466-17.123-16.594-37.492-22.6-61.025-17.5-7.72,1.673-15.608,6.181-23.145-.613Z" transform="translate(0.206 237.475)" fill="#ebebeb"/>
      <path id="Path_601" data-name="Path 601" d="M316.889,178.605l-224.376.423c0-15.161.606-30.357-.229-45.469-.486-8.815,1.979-10.791,10.759-10.741,71.34.412,142.686.232,214.03.232C324.334,135.686,324.221,169.269,316.889,178.605Z" transform="translate(0 0)" fill="#202020"/>
      <path id="Path_602" data-name="Path 602" d="M637.027,122.883c0,26.818-.275,53.639.13,80.454.162,10.618-2.839,19.334-10.791,26.353a7.447,7.447,0,0,0-1.2,1.275c-25.511,36.975-60.775,46.223-104.543,43.2-51.829-3.582-50.287-.916-52.59-53.037-1.712-38.662.838-73.717,35.658-98.242h28.072c2.849,2.578,5.705,5.3,7.579,8.568,10.949,19.088,22.69,22.43,39.75,9.167,9.347-7.265,19.588-12.372,29.864-17.735Z" transform="translate(946.706 0.167)" fill="#c7c7c7"/>
      <path id="Path_603" data-name="Path 603" d="M92.307,230.55c40.8-18.94,73.6-11.667,100.824,22.356,14.038,17.542,12.15,23.434-9.164,29.258-35.548,9.717-59.711,31.284-66.508,68.145-3,16.26-8.98,22.733-25.152,16.686Z" transform="translate(0.206 245.856)" fill="#c7c7c7"/>
      <path id="Path_604" data-name="Path 604" d="M299.439,559c-.028-49.906-.5-99.816.2-149.712.2-14.295-5.621-18.13-18.637-18.052-48.959.289-97.929.335-146.881-.331-12.418-.173-17.595,2.567-17.4,16.246.725,50.607.271,101.232.264,151.85H106.459c0-53.6.387-107.208-.278-160.8-.166-13.5,3.775-17.4,17.584-18.119,48.452-2.539,96.841.983,145.243-.12,2.9-.067,5.881.317,8.678-.236,24.821-4.913,34.844-5.6,34.661,28.5-.18,33.122-2.543,66.318-.835,99.32.7,13.481,6,26.237-.852,39.774-2.162,4.268,3.363,8.156,6.325,11.685Z" transform="translate(35.178 641.623)" fill="#b0b0b0"/>
      <path id="Path_605" data-name="Path 605" d="M170.486,178.438c-1.137-13.629-16.066-1.028-20.2-11.491,6.212-5.188,22.733,3.546,20.651-14.4-1.754-15.1-14.633-4.684-20.542-11.657,4.652-7.861,25.969.842,20.278-18h7.019q8.774,11.97,17.545,0h7.015q10.528,13.206,21.053,0h7.019q10.523,13.206,21.053,0h7.015c-3.853,14.4,8.938,13.513,18.436,16.8-6.48,6.783-19.581.261-18.979,14.989.571,13.9,11.569,8.033,17.538,12.728-3.067,8.015-20.56.046-17.126,15.658,2.384,10.829,12.83,2.691,17,10.255-5.769,4.705-19.542,1.247-17.271,16.351,1.845,12.277,13.182,4.156,17.788,12.333-15.122-.905-17.964,10.368-20.7,21.514-5.061-3.265-3.775-7.086-3.592-10.058.532-8.586-4.606-8.952-11.1-9.188-7.593-.275-10.558,2.655-10.167,10.157.2,3.818,1.261,8.3-2.993,11.108-.733-1.581-1.518-3.145-2.191-4.751-2.589-6.191-2.789-14.386-12.206-14.922-8.572-.483-8.991,7.818-13.006,12.6-6.466-1.926-5.05-12.513-13.291-12.058-7.522.416-7.811,7.639-11.706,13.812-5.617-7.8-9.547-16.246-20.007-18.13,19.359-13.685,19.384-17.566.553-28.776C159.731,187.521,170.1,187.468,170.486,178.438Z" transform="translate(146.403 0.167)" fill="#dbdbdb"/>
      <path id="Path_606" data-name="Path 606" d="M608.871,567.78c-1.377-5.216-7.16-2.212-10.822-5.459,5.388-2.106,10.671-1.842,11.227-9.875.806-11.551-9.642-7.311-13.587-11.541,1.025-8.128,13.52-.912,13.125-10.512-.236-5.751,1.194-11.125-7.776-12.414-3.927-.567.8-1.916,1.884-2.655,9.392-6.388,10.6-12.439-.923-17.605-3.071-1.381-4.127-2.06-.081-3.226,1.655-.479,4.515-.377,4.86-1.282,3.458-9.128,5.469-18.066-7.209-22.042,12.46-4.677,14.418-10.858,2.7-18.94a23.292,23.292,0,0,0-2.99-1.511c1.37-.644,2.712-1.764,4.117-1.856,4.751-.3,5.265-3.342,5.466-7.114.507-9.576-11.157-18.936-.285-28.945,1.43-1.317-.475-5.082-4.265-6.012-2.324-.567-2.131-1.486.567-3.68,7.311-5.948,4.166-12.868,2-19.792-.88-2.807-7.963,2.606-5.42-4.251,5.582,8.234,5.008-12.731,12.125-2.335,4.37,6.385,15.017-2.106,20.172,5.786l-.662,1.085q-1.03.116-.919-.916c.049-.444.408-.666,1.085-.666,4.078,1.8,3.666,5.547,3.61,8.906-.261,15.615,6.512,16.045,17.566,8.449,5.515-3.789,5.589,8.294,11.5,4.3,2.229,6.248-3.272,2.353-4.878,3.469-5.078,3.522-2.8,8.34-2.6,12.576.225,4.811,4.557,4.878,7.85,4.416,4.472-.63,11.1,3.325,12.558-4.966a35.781,35.781,0,0,1,2.275-8.924c-1.085,15.394,7.378,15.151,17.9,13.45,7.928-1.278,8.047-.539,5.061,6.783-4.377,10.734,3.8,22.8,10.738,17.387,10.5-8.2,16.14,1.317,23.849.958v10.495a28.476,28.476,0,0,0-3.757,9.551c-4.205,17.4-8.294,18.771-22.6,7.67-3.818-.655,1.606-11.256-7.177-6.607a23.527,23.527,0,0,1-4.089.666c-1.12.451-2.377.824-3.057,2.264a6.118,6.118,0,0,1-1.726,3.219c-.564,2.13-4.5,5.578,1.511,5.008,3.36-.317,6.367-.9,9.251,1.282,6.5,7.477,10.414,15.087,1.455,23.423-2.789,4.043-10.322,3.448-10.248,10.445a23.921,23.921,0,0,1-1.412,4.55c-23.025,24.846-51.333,40.236-84.469,46.983Z" transform="translate(1269.599 632.839)" fill="#ebebeb"/>
      <path id="Path_607" data-name="Path 607" d="M601.232,473.616c-5.039-3.842,15.08-1.638,1.933-8.642-4-2.134-4.557-12.287,1.275-14.608,4.927-1.958,13.795-5.691,17.616,3.694,1.444,3.543,1.638,8.66,3.814.37.289-1.106.585-3.152.944-3.166,15.077-.63,25.1-4.318,21.437-23.483-.933-4.9,13.443-4.448,14.654-2.581,6.325,9.727,10.537-1.754,15.517-.475,6.628.574,12.227-2.268,17.679-5.434,20.76-12.069,20.75-12.09,31.445,8.847,0,15.161,5.934,36.235-1.666,43.817s-28.741,1.662-43.948,1.662Z" transform="translate(1280.745 727.002)" fill="#202020"/>
      <path id="Path_608" data-name="Path 608" d="M420,122.883c27.55,11.787,49.575,29.537,60.4,58.278,13.777,36.573,7.42,70.343-15.954,101.278-3.719,4.923-9.061,6.642-13.7,3.081-5.159-3.958-.757-8.206,2.046-11.851,17.609-22.895,25.346-48.772,18.01-76.784-15.189-58-83.483-81.588-132.4-46.617-1.888,1.349-3.43,3.17-5.237,4.642-4.032,3.279-9.1,4.48-12.7.842-4.43-4.476-.141-8.442,3.064-11.8,9.325-9.8,21.733-14.791,33.312-21.063Z" transform="translate(570.759 0.167)" fill="#b1b1b1"/>
      <path id="Path_609" data-name="Path 609" d="M391.189,122.883c8.114,19.317,21.275,35.922,25.635,57.489,10.431,51.6,2.3,97.668-33.344,137.848-4.515,5.085-8.706,11.442-14.8,5.554-5.476-5.3-1.064-11.66,4.068-16.327,9.537-8.67,16.446-19.211,21.725-30.886,25.557-56.531,13.552-107.142-24.339-153.678Z" transform="translate(690.792 0.167)" fill="#dbdbdb"/>
      <path id="Path_610" data-name="Path 610" d="M379.9,122.883c27.406,28.051,43.68,60.715,42.1,100.809-1.211,30.657-13.745,56.665-32.918,79.968-2.367,2.881-5.24,5.145-8.977,3.56-5-2.117-4.378-7.216-2.691-10.442,3.98-7.61,9.093-14.629,13.766-21.873C422.019,227.1,411.447,163.9,355.335,122.883Z" transform="translate(663.491 0.167)" fill="#b1b1b1"/>
      <path id="Path_611" data-name="Path 611" d="M672.763,461.1c-9.857-10.319-18.08-10.4-28.3,1.078-6.35,7.128-17.475,13.337-20.824-4.49,0-1.226,0-2.451.007-3.677-4.86-11.308,3.458-12.453,11.009-14.186,6.547-4.48,3.913-8.963.007-13.442-10.953.9-14.517-3.909-11.02-14.175l0-3.677c-2.317-2.937-2.645-6,.451-8.4,3.62-2.807,7.022-1.454,9.991,1.49h3.684c9.709-6.888,14-3.536,14.231,7.487,4.462,6.163,9.174,7.012,12.865-.328,2.074-4.12,3.532-8.364,7.9-10.653Z" transform="translate(1335.529 694.038)" fill="#959595"/>
      <path id="Path_612" data-name="Path 612" d="M563.049,122.883c-14.626,14.717-24.634,35.432-50.322,35.1-23.994-.31-26.589-2.194-26.86-26.459-.032-2.881-.007-5.762-.011-8.639Z" transform="translate(992.615 0.167)" fill="#a5a5a5"/>
      <path id="Path_613" data-name="Path 613" d="M666.378,222.254c-5.68.349-11.312,1.3-11.171,8.561.078,4-2.162,6.36-4.705,4.99-10.3-5.557-12.129,1.895-14.767,8.618-1.331,3.381-3.1,6.7-7.494,5.268-5.733-1.874-3.835-5.931-2.289-9.819,1.476-3.715,2.476-7.635,4.128-11.259,1.821-4,.289-10.819,5.892-11.506,5.9-.722,5.508,6.857,8.917,10.357-.831-7.234,9.946-16.8-5.314-20.356-3.941-.919-6.491-6.448-3.913-10.139,3.568-5.107,7.5-1.152,11.858.884,6.568,3.067,6.188,18.862,18.859,10.407Z" transform="translate(1341.913 180.682)" fill="#ebebeb"/>
      <path id="Path_614" data-name="Path 614" d="M341.711,122.883c-1.673,5.712-7.568,6.547-11.424,9.72-4.135,3.409-8.008,10.643-14.147,5.864-5.438-4.233-1.416-10.445,1.011-15.584Z" transform="translate(557.816 0.167)" fill="#b1b1b1"/>
      <path id="Path_615" data-name="Path 615" d="M194.132,122.883c.169,7.406,1.194,14.27-10.526,14.27s-10.7-6.864-10.526-14.27Z" transform="translate(203.645 0.167)" fill="#202020"/>
      <path id="Path_616" data-name="Path 616" d="M186.16,122.883c.173,7.406,1.2,14.27-10.526,14.27s-10.7-6.864-10.526-14.27Z" transform="translate(183.545 0.167)" fill="#202020"/>
      <path id="Path_617" data-name="Path 617" d="M646.014,200.545c-4.082-1.56-8.579,5.142-12.393-.532-3.272-4.86,1.014-7.54,3.673-10.093,5.047-4.846-4.226-16.679,8.72-17.366Z" transform="translate(1362.277 125.424)" fill="#ebebeb"/>
      <path id="Path_618" data-name="Path 618" d="M175.609,122.883c-.63,6.071,2.631,14.052-8.773,14.052s-8.142-7.98-8.773-14.052Z" transform="translate(166.027 0.167)" fill="#202020"/>
      <path id="Path_619" data-name="Path 619" d="M649.736,201.036c-6.776-1.116-18.771,3.229-18.771-5.247s11.995-4.131,18.771-5.247Z" transform="translate(1358.556 170.412)" fill="#ebebeb"/>
      <path id="Path_620" data-name="Path 620" d="M625.273,413.056c-37.323-.074-61.975-24.067-61.7-60.053.2-26.832,22.285-61.591,63-59.281,35.506,2.014,60,25.23,59.792,60.609C686.2,382.456,662.1,417.849,625.273,413.056Z" transform="translate(1188.604 430.702)" fill="#b1b1b1"/>
      <path id="Path_621" data-name="Path 621" d="M649.509,189c5.515-3.029,10.509-7.212,17.169-7.691,11.012-9.438,23.683-3.384,35.661-3.793,6.385,6.533,16.6,10.09,16.767,21.458-5.74,5.128,3.684,9.22.972,14.143l-7.068,10.431c-5.455,1.226-7.459,9.361-14.587,7.244-8.829-.733-16.365,3.131-23.976,6.719-8.477,5.04-7.857,17.757-18.091,21.314-5.5,1.423-1.444,8.878-6.66,10.481-6.8-1.8-11.3-7.322-16.443-10.153a71.257,71.257,0,0,1,15.675,13.175q2.256,6.931,4.511,13.865c-.2,9.755,16.816,6.1,14.017,17.88,7.153,9.153,16.711,13.009,28.174,13.911,18.006,1.423,24.406,8.984,24.043,27.008-.271,13.361-10.879,24.328-25.525,25.219-38.13,2.321-84.648-28.216-93.537-72.431-.824-4.1-1.824-7.78-4.106-11.178-.01-7.2-10.086-14.517.264-21.588q5.13-17.2,10.259-34.393c-2.853-9.4,10.966-6.72,10.484-14.4q10.623-10.586,21.243-21.173C642.747,193.75,646.762,192.492,649.509,189Z" transform="translate(1260.537 134.054)" fill="#dbdbdb"/>
      <path id="Path_622" data-name="Path 622" d="M281.388,416.11c-6.364-.3-31.241-22.694-31.442-27.371-.176-4.057,3.237-5.9,5.6-8.336,3.215-3.321,6.223-2.131,9.047.6,3.353,3.24,7.061,6.219,9.893,9.868,5.733,7.378,10.946,6.945,16.143-.264,8.579-11.886,18.591-11.375,27.452-1.472,7.727,8.635,13.259,8.744,20.07-.3,6.48-8.607,13.7-10.41,21.254-.9,9.114,11.463,17.415,10.093,26.42-.761,2.7-3.251,5.371-12.192,13.288-5.142,7.941,7.075,1.2,10.946-3.029,15.355-4.032,4.208-8.427,8.075-12.347,12.375-8,8.787-16.284,9.192-23.405-.257-8.2-10.875-14.724-9.72-22.578.317-7.441,9.509-16.316,8.833-23.222-.5-8.449-11.428-15.15-8.966-22.543.732C289.2,413.715,285.681,417.191,281.388,416.11Z" transform="translate(397.711 644.474)" fill="#ccc"/>
      <path id="Path_623" data-name="Path 623" d="M275.932,147.726c21.387-.254,37.288,15.2,37.44,36.394.137,19.313-16.608,36.471-36.084,36.971-17.5.451-37.3-18.8-37.5-36.446C239.571,165.6,256.852,147.955,275.932,147.726Z" transform="translate(372.101 62.807)" fill="#c7c7c7"/>
      <path id="Path_624" data-name="Path 624" d="M371.767,130.307c32.9-.31,54.826,12.565,67.089,39.38,11.939,26.1,7.861,51.59-7.177,75.467-2.7,4.293-7.286,9.942-12.657,6.244-5.973-4.11-2.4-9.868.972-15.129,13.735-21.444,17.922-43.331,2.472-66.092-18.683-27.519-55.305-34.323-82.215-14.907-4.409,3.18-9.047,10.5-14.157,3.37-4.42-6.167.44-12.576,6.329-15.939C345.537,135.2,358.684,127.1,371.767,130.307Z" transform="translate(585.433 17.071)" fill="#b1b1b1"/>
      <path id="Path_625" data-name="Path 625" d="M403.965,407.483c-9.315,8.776-17.429,17.693-26.881,24.853-5.663,4.293-12.576,1.666-16.876-4.177-7.691-10.442-16.059-8.449-22.909-.257-8.973,10.731-16.432,8.265-23.775-.814-6.367-7.878-12.094-7.818-18.038.092-5.3,7.058-13.467,9.625-20.081,5.585-10.252-6.258-19.873-14.682-24.867-25.867-1.525-3.416,3.487-10.467,10.4-6.578,3.948,2.219,7.286,5.835,10.283,9.343,5.607,6.568,10.541,8.047,16.876.588,9.53-11.22,19.919-11.114,29.389.071,6.42,7.586,11.463,5.74,16.844-.778,6.427-7.786,16.468-11.333,22.7-4.219,12.6,14.379,20.743,8.98,29.836-2.539,2.779-3.518,6.807-4.927,10.85-2.444C399.947,401.71,401.359,404.408,403.965,407.483Z" transform="translate(398.528 696.679)" fill="#ccc"/>
      <path id="Path_626" data-name="Path 626" d="M405.535,398.838c-9.171,8.484-17.454,17.468-27.089,24.645-7.611,5.67-14.615.62-19.426-5.807-7.1-9.484-13.048-8.544-19.968.236-7.6,9.632-16.439,11.051-24.613.718-7.234-9.135-13.418-10.974-21.289-.518-7.561,10.047-16.151,10.012-24.73.4-5.043-5.649-10.607-10.844-16.031-16.144-3.863-3.775-2.733-6.843.56-10.4,3.539-3.817,6.286-3.948,9.924-.123a102.282,102.282,0,0,0,10.533,9.03c5.786,4.621,10.875,6.948,17.133-.5,8.508-10.121,18.359-9.216,26.74.553,6.554,7.635,11.977,7.565,18.19-.134,6.392-7.917,16.5-11.044,22.715-3.691,12.988,15.372,20.694,7.131,29.85-3.113,2.127-2.384,4.289-8.248,9.537-3.807C399.732,392.017,401.45,394.355,405.535,398.838Z" transform="translate(397.736 670.173)" fill="#ccc"/>
      <path id="Path_627" data-name="Path 627" d="M652,500.423c.328,3.966-.268,6.17-2.874,7-3.9,1.24-7.727-.394-8.822-3.662-2.173-6.466-5.046-12.685-5.356-19.9-.835-19.447-8.244-26.631-27.364-28.072-24.247-1.831-31.065-8.917-32.132-33.4-.673-15.45-10.622-25.406-26.071-26.086-24.6-1.081-33.534-9.149-36.83-34.256-.824-6.283-.391-12.594-3.666-18.482-1.43-2.574-5.272-6.159-.838-8.928,4.216-2.634,7.758-.014,10.2,3.687,3.987,6.043,4.444,12.805,4.765,19.9.775,17.13,10.71,26.959,26.723,27.572,23.592.9,34.6,11.523,36.242,34.971,1.243,17.753,10.34,26.776,28.223,27.994,22.9,1.56,31.055,9.474,31.2,32.33A31.729,31.729,0,0,0,652,500.423Z" transform="translate(1043.361 531.441)" fill="#ccc"/>
      <path id="Path_628" data-name="Path 628" d="M643.741,511.566c-1.173,2.5-1.564,4.825-2.539,5.1-2.022.57-5.036.919-6.434-.172-6.374-4.98-8.061-12.006-8.463-19.915-1.127-22.169-9.153-30.125-30.3-31.055-19.954-.877-31.875-12.837-32.5-34.957-.468-16.538-7.547-23.254-24.092-24.955-24.046-2.472-35.9-9.473-35.8-36.823.025-6.2-3.589-10.861-5.691-16.179-1.335-3.384-2.05-7.054,2.307-8.639,4.223-1.536,6.219,1.43,7.7,4.927,3.124,7.424,6.107,14.756,6.322,23.085.4,15.334,8.8,22.8,24.092,23.624,28.5,1.539,33.936,6.889,35.365,35.26.68,13.467,6.776,21.824,20.2,23.986,36,5.8,36.415,5.969,42.754,40.127C637.807,501.191,635.806,508.288,643.741,511.566Z" transform="translate(1020.478 556.653)" fill="#ccc"/>
      <path id="Path_629" data-name="Path 629" d="M335.45,346.96c1.877-19.443,17.954-25.043,30.456-32.537,37.911-22.733,76.453-44.43,115.037-66.018,2.986-1.669,7.255-8.516,12.749-.208,5.74,8.685-1.338,10.234-5.448,12.636q-60.951,35.642-122.324,70.576C356.348,336.825,348.093,345.164,335.45,346.96Z" transform="translate(613.347 306.015)" fill="#ebebeb"/>
      <path id="Path_630" data-name="Path 630" d="M171.652,365.349c2.078,7.945-1.694,15.51-3.9,23.159-5.35,18.521-.074,30.5,17.235,37.077A33.512,33.512,0,0,0,193.2,428c42.891,4.437,44.247,35.714,34.118,65.567-2.571,7.582-4.046,14.133-.313,21.571,1.493,2.983,1.726,7.068-2.993,8.308-4.4,1.155-6.043-1.9-7.466-5.35-4.677-11.336-2.972-22.321.7-33.611,9.037-27.744,2.289-38.605-26.983-44.606-30.836-6.325-42.458-26.878-33.136-57.753,2.8-9.276,6.885-18.743,2.86-28.709-1.807-4.476-4.483-9.266,2.617-10.674,5.533-1.1,8.579,2.849,8.973,8.167C171.923,355.534,171.652,360.21,171.652,365.349Z" transform="translate(155.771 554.12)" fill="#ebebeb"/>
      <path id="Path_631" data-name="Path 631" d="M648.844,510.167c-12.46,5.638-15.777-1.715-17.151-10.326-.99-6.226-2.212-12.47-3.039-18.609-2.24-16.535-12.879-20.472-26.825-21.088-21.669-.954-32.259-11.273-33.625-32.854-1.247-19.665-6.955-25.427-26.4-26.642-23.409-1.458-31.03-9.276-33.449-32.854-.69-6.741-3.187-13.344-5.3-19.87-1.123-3.483-2.465-7.3,1.5-8.847,3.74-1.461,5.98,2.6,8.308,5.033,4.17,4.363,2.307,9.91,2.694,14.978,1.68,22.025,9.262,29.635,31.146,31.076,19.729,1.3,31.889,13.449,31.819,33.756-.06,17.235,6.906,24.807,24.62,26.156,25.874,1.972,33.03,10.333,35.112,36.873C638.94,495.65,644.575,501.517,648.844,510.167Z" transform="translate(1033.079 544.571)" fill="#ccc"/>
      <path id="Path_632" data-name="Path 632" d="M431.311,450.063c-.007-26.188-.166-52.375.144-78.559.056-4.582-2.835-11.981,4.754-12.858,7.716-.891,9.065,5.529,9.061,11.875q-.026,80.306-.031,160.609c0,5.659-1.3,11.213-8.075,11.146-8.523-.085-5.642-7.484-5.695-11.911C431.156,503.6,431.314,476.831,431.311,450.063Z" transform="translate(854.198 594.487)" fill="#c7c7c7"/>
      <path id="Path_633" data-name="Path 633" d="M339.049,334.91Q395.456,302.184,451.9,269.5c10.921-6.29,22.3-11.794,33.224-18.066,4.775-2.74,7.286-3.568,10.664,2.434,3.782,6.719-.493,7.758-4.458,10.055-42.169,24.409-84.275,48.931-126.511,73.224C356.816,341.749,348.209,338.407,339.049,334.91Z" transform="translate(622.422 319.079)" fill="#ebebeb"/>
      <path id="Path_634" data-name="Path 634" d="M415.46,409.933c.074-13.907.1-27.811.25-41.715.06-5.131,2.078-9.368,7.773-9.65,7.469-.37,5.955,5.807,5.966,9.935.148,54.464-.085,108.931.243,163.394.085,13.953-6.163,10.35-13.488,6.022a17.587,17.587,0,0,0-2.148,2.074l2.476-1.655-1.359-12.375c-8.611-15.2-5.445-31.787-5.652-47.969-.5-3.645-.817-7.315-1.535-10.91a33.273,33.273,0,0,0,1.419-22.962c.021-4.191-1.585-8.343-.324-12.594C412.977,424.83,409.723,416.078,415.46,409.933Z" transform="translate(796.255 594.462)" fill="#c7c7c7"/>
      <path id="Path_635" data-name="Path 635" d="M554.385,273.717c-.69,30.667-24.233,57.615-51.357,58.411-4.286.127-10.886,2.194-12.182-3.465-1.483-6.494,5.311-5.772,9.537-7.065,25.7-7.843,43.666-26.24,42.627-46.659-.954-18.732-9.885-39.732-41.757-49.846-3.754-1.19-12.851,1-10.139-7.5,1.923-6.022,9.009-4.307,14-3.515C531.406,218.257,554.984,246.988,554.385,273.717Z" transform="translate(1004.635 228.01)" fill="#959595"/>
      <path id="Path_636" data-name="Path 636" d="M340.917,327.552c2.856-23.1,19.239-27.741,33.051-35.51,27.98-15.732,55.527-32.234,83.514-47.952,3.141-1.761,7.206-8.921,12.231-.518,4.923,8.23-.736,9.509-5.955,12.523C423.583,279.3,383.537,302.72,340.917,327.552Z" transform="translate(627.133 294.418)" fill="#ebebeb"/>
      <path id="Path_637" data-name="Path 637" d="M303.025,369.467c5.592,6.406,4.747,11.52-1.933,17.094-7.128,5.945-10.431.317-14.3-3.5-19.362-19.112-38.464-38.489-57.918-57.51-5.113-5-8.241-9.6-2.916-16.115,1.962-8.942,6.91-15.33,15.048-7.1,19.965,20.176,40.518,39.8,59.714,60.718A10.084,10.084,0,0,1,303.025,369.467Z" transform="translate(330.253 443.088)" fill="#b1b1b1"/>
      <path id="Path_638" data-name="Path 638" d="M289.96,370.541c6.716,7.811,1.035,12.618-4.42,17.193-6.632,5.564-9.227-1.69-12.361-4.74-18.771-18.274-37.151-36.946-55.809-55.337-4.751-4.684-8.85-9.336-7.029-16.637,2.064-7.241,5.328-16.8,13.928-8.561C247.03,324.262,271.816,344.272,289.96,370.541Z" transform="translate(296.743 444.997)" fill="#b1b1b1"/>
      <path id="Path_639" data-name="Path 639" d="M423.472,454.919c.014-29.153-.084-58.306.127-87.459.028-4.135-1.867-10.836,5.124-10.826s5.1,6.712,5.11,10.847q.243,86.582.109,173.17c0,5.258.289,12.706-6,12.587-7.663-.144-4.233-8.206-4.289-12.611C423.275,512.063,423.462,483.491,423.472,454.919Z" transform="translate(833.968 589.626)" fill="#c7c7c7"/>
      <path id="Path_640" data-name="Path 640" d="M429.966,456.11c0,27.987.166,55.974-.166,83.958-.056,4.522,2.905,12.742-3.99,12.826-7.628.092-6.265-8.311-6.293-13.89-.12-26.237-.067-52.474-.067-78.711,0-29.738-.183-59.475.19-89.209.063-5.068-3.409-14,4.758-14.348,8.78-.377,5.321,8.709,5.385,13.664C430.156,398.966,429.966,427.538,429.966,456.11Z" transform="translate(823.936 589.855)" fill="#c7c7c7"/>
      <path id="Path_641" data-name="Path 641" d="M437.69,453.438c0,27.388.166,54.777-.162,82.158-.053,4.448,2.888,12.171-5.378,12.164-6.779-.007-4.811-6.9-4.821-11.026q-.248-83.9,0-167.814c.011-4.124-2.088-10.956,4.575-11.238,8.509-.363,5.568,7.459,5.621,11.851C437.852,397.5,437.69,425.468,437.69,453.438Z" transform="translate(844.269 592.235)" fill="#c7c7c7"/>
      <path id="Path_642" data-name="Path 642" d="M415.361,450.9c0-26.8-.155-53.611.151-80.412.053-4.585-2.789-12.351,4.709-12.784,7.9-.454,5.483,7.438,5.5,11.942q.306,83.032,0,166.064c-.014,4.5,2.4,12.4-5.526,11.9-7.48-.465-4.631-8.223-4.68-12.809C415.21,506.837,415.361,478.864,415.361,450.9Z" transform="translate(814.001 592.271)" fill="#c7c7c7"/>
      <path id="Path_643" data-name="Path 643" d="M348.779,326.721c26.047-15.312,47.952-28.216,69.882-41.077,15.334-8.991,30.477-18.352,46.195-26.614,4.406-2.317,10.329-10.16,15.957-.419,5.142,8.889-3.419,9.385-7.47,11.8-31.481,18.767-63.011,37.468-94.872,55.58C370.9,330.3,362.074,327.933,348.779,326.721Z" transform="translate(646.959 330.427)" fill="#ebebeb"/>
      <path id="Path_644" data-name="Path 644" d="M406.083,183.757c.824,5.223-1.247,10.6-4.036,15.735-3.5,6.441-6.6,16.447-15.887,11.682-10.329-5.3.074-11.664,2.68-16.538,7.424-13.879,1.609-25.8-6.97-34.8-9-9.438-22.081-12.382-34.721-5.075-5.642,3.261-12.875,8.945-16.376,2.046-4.455-8.78,5.107-13.034,11.924-15.679C372.556,129.54,405.558,144.778,406.083,183.757Z" transform="translate(598.678 36.627)" fill="#b1b1b1"/>
      <path id="Path_645" data-name="Path 645" d="M436.642,443.729c0-25.018-.067-50.033.084-75.052.018-3.071-1.081-7.917,3.966-7.924,3.684-.007,5.857,3.282,6.107,7.188.148,2.321.261,4.649.264,6.973.014,46.543.081,93.086-.092,139.63-.018,4.7,2.356,12.153-5.515,12.386-8.952.264-4.522-7.794-4.61-11.646-.546-23.842-.275-47.7-.275-71.555Z" transform="translate(866.469 600.013)" fill="#c7c7c7"/>
      <path id="Path_646" data-name="Path 646" d="M346.274,304.554c1.782-12.256,6.392-19.031,15.246-24.067,24.406-13.886,48.364-28.547,72.551-42.821,4.673-2.758,10.773-4.638,13.376,1.123,3,6.631-3.455,10.731-8.258,13.527-24.758,14.418-49.769,28.41-74.724,42.5C359.04,297.873,353.483,300.7,346.274,304.554Z" transform="translate(640.642 282.963)" fill="#ebebeb"/>
      <path id="Path_647" data-name="Path 647" d="M440.268,435.67c.01-20.887-.12-41.778.137-62.662.042-3.444-1.933-9.477,4.3-9.266,4.423.151,5.962,4.779,5.959,9.237,0,12.185.092,24.37.088,36.552q0,45.256-.035,90.516c0,4.878-.658,10.886-5.976,10.914-7.033.042-4.258-6.994-4.321-10.889C440.082,478.61,440.261,457.138,440.268,435.67Z" transform="translate(876.831 607.534)" fill="#c7c7c7"/>
      <path id="Path_648" data-name="Path 648" d="M408.179,400.36c.12-9.843.162-19.69.4-29.53.1-3.884,2.448-7.142,6.121-7.1,5,.056,3.913,4.867,3.923,7.934.13,43.44-.025,86.881.208,130.322.064,11.505-5.423,6.469-10.34,4.085-5.356-1.321-6.614-5.068-5.765-9.921-.9-14.689-4.853-29.29-1.9-44.18,1.229-6.515.162-13.08.218-19.606-.218-5.251-.2-10.533-.183-15.816C400.7,409.967,400.875,403.589,408.179,400.36Z" transform="translate(775.485 607.518)" fill="#c7c7c7"/>
      <path id="Path_649" data-name="Path 649" d="M421.538,419.938v46.093c-3.736,3.409-7.36,4.226-10.731-.483-.623-16.3-12.89-28.332-15.637-44.444-2.557-14.974,1.881-28.054,3.821-41.9.208-1.49,3.469-2.553,5.311-3.814,4.208,2.06,8.66,3.909,8.667,9.7.278,5.135,1.933,10.15,1.543,15.372C413.671,408.1,414.815,415.026,421.538,419.938Z" transform="translate(761.996 636.926)" fill="#d0d0d0"/>
      <path id="Path_650" data-name="Path 650" d="M444.455,367.85c12.368,12.988,12.368,105.36,0,118.344Z" transform="translate(888.228 617.908)" fill="#c7c7c7"/>
      <path id="Path_651" data-name="Path 651" d="M351.7,284.042c3.722-13.869,8.794-22.359,19.5-27.779,14.288-7.23,27.864-15.862,41.778-23.839,4.261-2.444,8.234-4.226,11.435,1.933,2.4,4.624,1.377,7.174-2.937,9.628C398.886,256.833,376.393,269.843,351.7,284.042Z" transform="translate(654.312 270.701)" fill="#ebebeb"/>
      <path id="Path_652" data-name="Path 652" d="M303.421,375.377c-19.215-18.524-38.5-36.975-57.6-55.622-5.747-5.61-11.234-10.565-19.472-4.413-7.653-7.973-.317-12.252,4.434-16.788,6.621-6.318,9.04,1.659,12,4.529,19.222,18.641,38.091,37.647,57,56.612C304.15,364.08,310.418,368.263,303.421,375.377Z" transform="translate(329.857 437.178)" fill="#dbdbdb"/>
      <path id="Path_653" data-name="Path 653" d="M277.491,257.768c-2.486,1.454-4.881,2.958-7.374,4.282-2.673,1.426-7.871,1.673-7.607-.208a86.186,86.186,0,0,0-1.451-31.858c-.5-2.152,3.233-4.455,5.015-3.2,8.7,6.107,16.041,6.561,25.8.423,5.1-3.2,7.029,3.892,4.258,8.744-2.68,4.7-9.128,8.3-2.55,14.636,2.994,2.881,6.05,6.888,3,10.667-3.346,4.135-8.3,3.018-12.632.373C282,260.437,280.037,259.286,277.491,257.768Z" transform="translate(425.637 261.216)" fill="#959595"/>
      <path id="Path_654" data-name="Path 654" d="M252.587,264.5c-13.576-5.776-26.568-3.733-40.472-.9,7.033-10.287,14.122-19.035,1.173-28.406-2.145-1.55-1.9-5.652.835-7.684a5.933,5.933,0,0,1,7.987.56c6.846,7.762,13.358,10.787,20.792.711,1.955-2.645,4.874-2.786,7.536-.4,2.011,1.8,2.6,4.124.733,5.976C241.215,244.253,246.389,253.639,252.587,264.5Z" transform="translate(301.67 260.785)" fill="#ccc"/>
      <path id="Path_655" data-name="Path 655" d="M368.142,296.964c19.8-11.551,39.521-23.236,59.454-34.552,4.166-2.367,9.378-6.328,13.358.659,3.9,6.846-1.4,9.076-6.093,11.576-16.158,8.6-30.787,20-48.279,26.156C378.785,307.416,372.674,305.951,368.142,296.964Z" transform="translate(695.787 343.749)" fill="#ebebeb"/>
      <path id="Path_656" data-name="Path 656" d="M240.458,225.985c8.607,9.114,16.718,14.626,25.726,2.279,1.539-2.113,5.536-2.092,7.783.454,2.169,2.458,2.039,6.283-.134,7.892-12.185,9.03-7.684,17.144,2.289,23.934-4.892,6.159-11.294,6.019-13.27,3.1-8.491-12.534-17.08,7.022-24.138-.511-6.7-7.149,13.126-15.7-.405-24.152C235.56,237.262,236.334,231.511,240.458,225.985Z" transform="translate(364.3 260.162)" fill="#ccc"/>
      <path id="Path_657" data-name="Path 657" d="M376.649,292.751c14.971-5.821,28.146-14.879,41.94-22.849,5.934-3.423,13.643-10.984,19.25-1.264,5.025,8.713-5.839,9.864-10.2,12.418-16,9.375-30.093,23.659-50.931,21.979C372.426,299.632,372.032,296.206,376.649,292.751Z" transform="translate(708.893 355.671)" fill="#ebebeb"/>
      <path id="Path_658" data-name="Path 658" d="M292,375.864c-19.081-18.535-38.3-36.929-57.168-55.679-6.864-6.822-13.478-11.136-22.451-3.842-7.656-7.977-.158-12.094,4.409-16.83,5.55-5.758,8.125.581,10.868,3.279C248.422,323.2,268.9,343.9,289.605,364.369,293.155,367.877,296.23,370.979,292,375.864Z" transform="translate(294.703 439.674)" fill="#dbdbdb"/>
      <path id="Path_659" data-name="Path 659" d="M420.268,394.289c1.789,16.534,3.472,33.069-.38,49.558-10.365,3.046-14.636-.144-13.633-11.467,1-11.354.437-22.846.56-34.273C409.7,391.236,413.753,388.443,420.268,394.289Z" transform="translate(791.538 676.578)" fill="#ebebeb"/>
      <path id="Path_660" data-name="Path 660" d="M396.672,277.583q.032,5.14.063,10.284c-1.285,8.614-6.138,13.84-15.01,13.358-7.889-.426-12.308-5.487-13.288-13.358-6.329-6.709-1.592-10.833,3.494-14.876l3.127-3.117q9.223,1.918,18.44,3.839Z" transform="translate(688.87 370.839)" fill="#dbdbdb"/>
      <path id="Path_661" data-name="Path 661" d="M366.59,331.106c-2.011-10.836,5.512-15.957,13.5-16.14,7.949-.18,15.439,4.543,14.369,15.4-.951,9.66-5.874,14.464-15.555,14.823C368.8,345.566,365.407,340.28,366.59,331.106Z" transform="translate(691.042 484.535)" fill="#dbdbdb"/>
      <path id="Path_662" data-name="Path 662" d="M381.694,316.413c-10.692-1.75-15.654-6.857-15.372-16.471.278-9.53,5.1-15.457,14.774-15.013,8.663.4,12.858,6.195,13.217,14.915C394.724,309.746,388.927,313.962,381.694,316.413Z" transform="translate(691.166 408.744)" fill="#dbdbdb"/>
      <path id="Path_663" data-name="Path 663" d="M629.9,151.891c3.208-1.2,6.4-2.469,9.636-3.6s5.733.144,7.272,2.941c1.451,2.627-.979,4.12-2.384,5.681-10,11.125-22.3,20.12-30.209,33.228a5.871,5.871,0,0,1-9.132,1.057c-2.965-2.75-1.243-6.012.4-9.329,6.012-12.1,18.253-19.028,24.941-30.5Z" transform="translate(1289.218 63.206)" fill="#ebebeb"/>
      <path id="Path_664" data-name="Path 664" d="M357.321,262.641c3.733-23.817,21.93-27.322,34.274-36.668,2.367-1.793,6.188-.645,8.272,3.634,2.363,4.853.824,7.889-2.831,10.079C384.938,246.938,372.63,253.837,357.321,262.641Z" transform="translate(668.499 258.079)" fill="#ebebeb"/>
      <path id="Path_665" data-name="Path 665" d="M616.141,215.852c-.6,1.155-1.268,4.247-2.624,4.585-1.7.423-4.525-.884-5.913-2.345-11.15-11.72-13.685-27.427-18.778-41.895-1.025-2.912,2.367-5.349,5.05-6.255,2.462-.831,3.909,1.173,4.892,3.61C604.318,187.344,610.044,201.064,616.141,215.852Z" transform="translate(1251.82 118.357)" fill="#ebebeb"/>
      <path id="Path_666" data-name="Path 666" d="M627.5,163.713c7.786,3.779,8.632,12.09,12.449,18.179,4.853,7.737,16.591,19.7,8.914,24.4-11.069,6.776-10.213-12.072-17.644-17.285-4.67-3.282-7.022-10.188-9.748-15.791C618.558,167.238,622.974,165.3,627.5,163.713Z" transform="translate(1332.255 103.129)" fill="#ebebeb"/>
      <path id="Path_667" data-name="Path 667" d="M450.042,436.509c-1.785-20.328-3.677-40.644.75-60.785C459.642,396.062,461.269,416.344,450.042,436.509Z" transform="translate(897.34 637.764)" fill="#c7c7c7"/>
      <path id="Path_668" data-name="Path 668" d="M605.472,220.361c.69,7.206,3.395,14.436-.264,21.588-9.389-6.906-19.993-37.035-15.5-44.927.948-1.659,3.529-3.046,5.522-3.31,2.944-.387,2.6,3.215,4.061,4.666C605.567,204.6,598.083,214.557,605.472,220.361Z" transform="translate(1251.833 178.705)" fill="#ebebeb"/>
      <path id="Path_669" data-name="Path 669" d="M586.516,159.007c5.5.923,12.52-1.733,15.834,4.631,4.018,7.72,9.389,7,15.855,4.3,6.445-2.684,14.707-3.4,15.89,4.18,1.3,8.329-8.889,4.786-13.361,6.3-16.975,5.719-27.769-1.395-33.682-20.028Z" transform="translate(1246.467 89.709)" fill="#ebebeb"/>
      <path id="Path_670" data-name="Path 670" d="M633.3,224.036c-12.252-1.736-20.908-9.808-29.959-17.087-3.081-2.479-7.17-5.571-3.751-10,2.634-3.409,6.607-1.335,9.456.6,9.572,6.484,20.3,11.826,25.022,23.472A11.337,11.337,0,0,1,633.3,224.036Z" transform="translate(1276.166 182.345)" fill="#ebebeb"/>
      <path id="Path_671" data-name="Path 671" d="M383.644,290.676c8.058-12.608,22.4-13.252,31.607-21.553,4.039-3.641,4.853,2.62,6.741,4.9,3.571,4.307,1.465,7.72-2.335,9.914C409.148,290.007,398.277,295.061,383.644,290.676Z" transform="translate(734.879 366.138)" fill="#ebebeb"/>
      <path id="Path_672" data-name="Path 672" d="M599.344,174.142c-5.416,2.648-8.526,7.234-11.505,12.294-1.081,1.838-4.909,2.874-7.4,2.75-1.25-.063-3.1-3.462-3.349-5.511-1.057-8.656,20.43-28.195,29.149-26.885,3.973.6,3.772,3.656,4.138,6.434.014-.021.514-.588.532-.613-3.282,1.69-6.226,3.765-7.48,7.508C604.666,174.082,603.13,175.244,599.344,174.142Z" transform="translate(1222.595 85.513)" fill="#ebebeb"/>
      <path id="Path_673" data-name="Path 673" d="M406.666,411.766c-.162-13.865-.3-27.73-.493-41.592-.067-4.462,1.49-9.1,5.793-9.41,6.311-.454,4.339,5.6,4.483,9.051.479,11.544.44,23.11.6,34.664C416.086,410.449,414.674,415.777,406.666,411.766Z" transform="translate(791.684 599.978)" fill="#c7c7c7"/>
      <path id="Path_674" data-name="Path 674" d="M614.609,183.142c-.8-1.764-1.81-3.825-2.683-5.938a4.59,4.59,0,0,1,2.152-5.962c8.854-5.349,17.764-10.611,26.815-15.622,2.62-1.451,6.047-1.43,7.765,1.444,1.528,2.55,1.469,6.413-1.123,7.949C637.644,170.872,627.417,176.165,614.609,183.142Z" transform="translate(1309.527 80.33)" fill="#ebebeb"/>
      <path id="Path_675" data-name="Path 675" d="M659.559,171.121c-.514,3.666-2.613,7.618-6.195,5.128-9.382-6.526-19.753-10.928-29.678-16.281-3.4-1.835-3.613-7.089,2.184-8.987C633.354,148.532,658.866,163.732,659.559,171.121Z" transform="translate(1334.156 70.355)" fill="#ebebeb"/>
      <path id="Path_676" data-name="Path 676" d="M626.436,200.667c1.314,10.674-4.5,8.748-10.755,6.047-7.089-10.826-16.908-20.588-13.868-35.365l-.472.493C615.667,176.294,616.78,192.176,626.436,200.667Z" transform="translate(1283.609 122.385)" fill="#ebebeb"/>
      <path id="Path_677" data-name="Path 677" d="M645.813,196.649c-7.336-3.877-16.933-1.835-24.268-7.977,7.065-8.632,15.718-5.205,23.3-6.167,2.282,1.535,4.617,3,6.829,4.624,3.367,2.479,10.079,3.5,7.117,9.495C655.258,203.77,650.2,198.1,645.813,196.649Z" transform="translate(1334.801 150.52)" fill="#ebebeb"/>
      <path id="Path_678" data-name="Path 678" d="M629.163,196.994c3.444-5.254,7.741-8.808,14.587-7.244-3.67,9.4-7.177,18.869-11.09,28.167-1.529,3.624-3.87,7.8-8.861,5.409-5.209-2.493-5.283-6.283-2.036-11.171C624.849,207.51,626.743,202.08,629.163,196.994Z" transform="translate(1329.796 167.851)" fill="#ebebeb"/>
      <path id="Path_679" data-name="Path 679" d="M655.1,183.766c-11.414,5.663-23.68,3.406-35.661,3.793-2.152-4.663-13.358-5.29-6.3-14.062l-.5.5C626.218,179.713,643.031,171.486,655.1,183.766Z" transform="translate(1307.778 127.802)" fill="#ebebeb"/>
      <path id="Path_680" data-name="Path 680" d="M637.29,156.892c-9.949-2.638-19.176,1.926-28.769,2.75-2.976.257-7.829,1.328-7.773-3.768.025-2.039,3-4.923,5.293-5.9,8.523-3.634,17.538-4.5,26.871-4.24,13.108.363,7.04,6.3,3.874,11.657C636.761,157.413,637.29,156.892,637.29,156.892Z" transform="translate(1282.356 57.685)" fill="#ebebeb"/>
      <path id="Path_681" data-name="Path 681" d="M629.368,195.76c-17.376,1.285-17.788-14.682-24.346-24.215-1.381-2.007-.581-5.762,3.208-6.607,3.025-.676,6.455-.169,7.6,2.574,4.057,9.716,14.26,16.686,13.034,28.744Z" transform="translate(1291.542 105.539)" fill="#ebebeb"/>
      <path id="Path_682" data-name="Path 682" d="M616.551,181.269a96.248,96.248,0,0,1-5.874,8.17c-3.388,3.853-7.653,9.357-12.791,5.258-5.663-4.515-.345-9.012,3.064-12.886a30,30,0,0,0,5.054-6.85c3.388-7.41,10.537-9.671,15.411-5.406,5.5,4.814-4.222,7.642-5.335,12.217Z" transform="translate(1268.87 112.465)" fill="#ebebeb"/>
      <path id="Path_683" data-name="Path 683" d="M577.754,194.132c2.676-5-5.114-17.186,5.212-17.225,10.259-.035,3.423,11.946,5.205,18.348.592,2.124-.021,4.557.077,6.843.208,4.934-.954,10.632-6.061,10.713-7.128.113-3.451-6.8-4.342-10.657C577.341,199.978,577.754,197.594,577.754,194.132Z" transform="translate(1223.534 136.401)" fill="#ebebeb"/>
      <path id="Path_684" data-name="Path 684" d="M611.255,189.156c.5,3.93-19.538,20.331-23.627,19.517-3.87-.775-4.892-4.022-3.617-6.364,4.371-8.037,9.784-15.517,19.535-17.549C606.744,184.1,610.759,184.116,611.255,189.156Z" transform="translate(1238.84 155.439)" fill="#ebebeb"/>
      <path id="Path_685" data-name="Path 685" d="M618.94,187.4c10.083,14.629-6.9,9.667-10.484,14.4q-3.988,1.141-7.973,2.282c-3.353.951-7.075,2-8.561-2.363-1.271-3.744.634-6.019,4.49-7.7C603.683,190.847,610.864,187.72,618.94,187.4Z" transform="translate(1259.108 162.869)" fill="#ebebeb"/>
      <path id="Path_686" data-name="Path 686" d="M583.38,164.552l4.082-4.022c13.122,9.854,4.888,23.483,6.068,35.4.225,2.268-2.849,3.191-5.392,2.863-3.9-.507-4.135-3.536-4.219-6.4C583.651,183.122,583.549,173.835,583.38,164.552Z" transform="translate(1238.559 95.103)" fill="#ebebeb"/>
      <path id="Path_687" data-name="Path 687" d="M603.36,214.98c-1.416,2.448-3.008,5.515-6.209,4.638-2.507-.683-4.885-2.775-6.727-4.783-5.853-6.385-14.922-11.291-11.907-22.194.394-1.433,5.075-3.251,5.336-2.93C590.544,197.977,596.911,206.5,603.36,214.98Z" transform="translate(1224.788 168.597)" fill="#ebebeb"/>
      <path id="Path_688" data-name="Path 688" d="M613.338,151.319c.782,5.751,12.509,1.162,9.558,8.889-2.483,6.5-8.692,6.078-14.559,2.652-1.821-1.064-4.522-.5-6.688-1.127-5.247-1.518-13.358-2.208-11.8-9.259,2.159-9.769,8.9-1.69,13.661-1.366l10.322.708Z" transform="translate(1254.384 62.655)" fill="#ebebeb"/>
      <path id="Path_689" data-name="Path 689" d="M624.957,225.152c-4.758-5.892-21.761-2.243-14.017-17.88,5.966,1.993,12.013,3.789,17.869,6.071,3.074,1.2,6.818,2.335,5.927,7.191C633.6,226.747,628.468,224.159,624.957,225.152Z" transform="translate(1303.035 212.973)" fill="#ebebeb"/>
      <path id="Path_690" data-name="Path 690" d="M608.963,167.092c-2.166,5-5.212,9.146-8.125,7.128-6.892-4.775-15.055-9.34-16.2-19.007-.44-3.687,2.972-5.163,5.924-4.18C599.285,153.932,603.243,161.894,608.963,167.092Z" transform="translate(1241.626 70.407)" fill="#ebebeb"/>
      <path id="Path_691" data-name="Path 691" d="M626.855,162.47c9.741-2.8,17.58,2.708,25.934,6.033,3.413,1.359,3.885,3.973,3.2,6.987a3.907,3.907,0,0,1-5.283,3.018C642.079,174.324,629.07,176.536,626.855,162.47Z" transform="translate(1348.191 98.058)" fill="#ebebeb"/>
      <path id="Path_692" data-name="Path 692" d="M641.437,209.36c-2.5,8.709-9.706,13.805-18.475,16.837-3.092,1.071-6.758-2.233-5.166-4.6,5.089-7.544,11.005-14.914,19.458-18.873C640.173,201.358,641.694,205.222,641.437,209.36Z" transform="translate(1324.375 200.806)" fill="#ebebeb"/>
      <path id="Path_693" data-name="Path 693" d="M630.328,158.665c-.162,6.047.912,12.682-4.43,13.168-7.262.659-5.638-6.54-6.135-11.248a8.486,8.486,0,0,1-.046-1.715c.542-5.219-7.258-10.171-.62-15.425,1.046-.831,4.022-.866,4.9-.021C628.669,147.945,631.3,153.467,630.328,158.665Z" transform="translate(1321.841 50.404)" fill="#ebebeb"/>
      <path id="Path_694" data-name="Path 694" d="M622.113,162.481c-1.613,8.537-6.973,8.121-9.914,6.66-6.124-3.036-16.291-.549-17.5-10.562-.356-2.972,2.74-5.321,7.448-3.86C609.389,156.966,616.893,158.185,622.113,162.481Z" transform="translate(1267.042 79.325)" fill="#ebebeb"/>
      <path id="Path_695" data-name="Path 695" d="M596.956,166.4c-2.6-11.513,3.462-18.968,12.516-24.085,3.289-1.859,8.177,2.757,7.3,5.11-3.455,9.294-9.463,16.806-20.32,18.471Z" transform="translate(1271.262 48.074)" fill="#ebebeb"/>
      <path id="Path_696" data-name="Path 696" d="M630.743,171.459c-2.592,5.265-4.628,12.583-12.418,14.876a3.878,3.878,0,0,1-4.578-5.258c3.068-6.705,2.708-16.383,12.263-18.225C630.7,161.946,630.6,166.666,630.743,171.459Z" transform="translate(1314.316 100.673)" fill="#ebebeb"/>
      <path id="Path_697" data-name="Path 697" d="M582.385,182.962c-2.694,1.349-7.966,1.148-7.586-3.867.782-10.231,10.026-6.5,16.246-7.857,4.635-1.011,10.777-2.944,9.878,3.983C599.648,185.1,590.006,180.68,582.385,182.962Z" transform="translate(1216.87 119.488)" fill="#ebebeb"/>
      <path id="Path_698" data-name="Path 698" d="M404,400.992q5.367.238,10.734.479.217,5.325.437,10.636c-1.669,9.96-9.089,7.913-13.664,4.61C393.864,411.195,397.108,405.327,404,400.992Z" transform="translate(768.803 701.483)" fill="#ebebeb"/>
      <path id="Path_699" data-name="Path 699" d="M610.342,214.763c2.923-9.727,6.057-19.274,18.091-21.314C624.75,202.532,629,218.316,610.342,214.763Z" transform="translate(1306.55 178.115)" fill="#ebebeb"/>
      <path id="Path_700" data-name="Path 700" d="M651.362,156.889c-2.388.613-4.025,1.338-5.691,1.405-7.892.317-16.172,1.24-21.014-6.987-.489-.831,2.768-5.251,3.3-5.075C635.891,148.888,647.664,143.817,651.362,156.889Z" transform="translate(1342.522 59.036)" fill="#ebebeb"/>
      <path id="Path_701" data-name="Path 701" d="M405.543,418.823c1.264,7.589-5.205,9.41-8.438,9.252-4.635-.226-9.752-3.008-8.822-10.241.8-6.223,5.67-7.723,9.537-7.248C401.634,411.05,407.991,412.445,405.543,418.823Z" transform="translate(746.299 725.469)" fill="#ebebeb"/>
      <path id="Path_702" data-name="Path 702" d="M400.661,392.407q-1.722-5-3.451-10.005L401.2,378.3c2-4.24,4.018-8.41,9.375-3.381l4,3.046q0,8.8,0,17.591C408.578,400.51,404.574,396.654,400.661,392.407Z" transform="translate(769.089 629.917)" fill="#ebebeb"/>
      <path id="Path_703" data-name="Path 703" d="M397.649,419.992c4.871-.38,7.808,1.19,7.751,6.652-.06,6.05-2.286,10.248-8.825,10.393-4.624.1-7.758-2.687-8.2-7.265C387.76,423.3,391.567,420.4,397.649,419.992Z" transform="translate(746.656 749.259)" fill="#ebebeb"/>
      <path id="Path_704" data-name="Path 704" d="M387.518,400.543c-5.843-1.359-8.864-4.476-8.058-9.949.81-5.494,4.783-7.255,10.023-7.4,6.871-.2,7.371,4.054,6.853,9.118C395.769,397.891,392.117,400.012,387.518,400.543Z" transform="translate(724.004 656.579)" fill="#ebebeb"/>
      <path id="Path_705" data-name="Path 705" d="M636.44,326.373c-.187,5.561-3.032,8.519-8.322,9.1-5.314.581-8.938-.88-8.7-7.209.194-5.209,2.331-8.889,7.72-9.477C632.6,318.189,635.474,321.376,636.44,326.373Z" transform="translate(1329.411 493.997)" fill="#ccc"/>
      <path id="Path_706" data-name="Path 706" d="M406.314,380.492q5.188-3.645,10.382-7.286a9.631,9.631,0,0,0,2.983-.063c3.1,7.019,3.391,14.045.025,21.071-8.561,5.695-10.565-1.37-13.393-6.839Z" transform="translate(792.036 631.253)" fill="#ebebeb"/>
      <path id="Path_707" data-name="Path 707" d="M396.427,427.971c-.327,5.283-2.895,8.9-8.4,9.037-5.466.134-8.875-3.162-8.674-8.575.239-6.469,4.7-8.519,10.727-8.484C395.789,419.98,396.659,423.431,396.427,427.971Z" transform="translate(724.029 749.284)" fill="#ebebeb"/>
      <path id="Path_708" data-name="Path 708" d="M396.394,412.52c.271,5.191-3.539,5.959-7.991,5.659-6.233-.419-9.787-3.7-8.935-10.083a7.587,7.587,0,0,1,8.491-6.948C394.468,401.56,396.637,405.927,396.394,412.52Z" transform="translate(724.034 701.823)" fill="#ebebeb"/>
      <path id="Path_709" data-name="Path 709" d="M395.929,401.067c7.177.8,9.5,4.635,9.519,10.717.021,5.543-3.067,6.8-7.787,6.589-5.346-.246-8.935-2.662-9.333-8.149C387.917,404.557,391.622,402.124,395.929,401.067Z" transform="translate(746.615 701.672)" fill="#ebebeb"/>
      <path id="Path_710" data-name="Path 710" d="M398.163,409.353c-6.36-.313-9.8-3.036-9.854-8.512s3.36-8.346,8.755-8.646c4.272-.239,8.128.014,8.364,5.941C405.668,404.225,403.27,407.962,398.163,409.353Z" transform="translate(746.642 679.154)" fill="#ebebeb"/>
      <path id="Path_711" data-name="Path 711" d="M414.324,425.054c.13,7.491-2.166,11.763-8.713,11.953-4.617.138-7.79-2.631-8.255-7.2-.655-6.438,3.018-9.519,9.234-9.822C411.169,419.757,414.9,420.652,414.324,425.054Z" transform="translate(769.269 749.292)" fill="#ebebeb"/>
      <path id="Path_712" data-name="Path 712" d="M619.43,310.687c.384-5.191,2.962-8.744,8.354-8.857,5.36-.109,8.737,3.166,8.519,8.477-.261,6.318-4.61,8.47-10.565,8.354C620.215,318.558,619.254,315.153,619.43,310.687Z" transform="translate(1329.418 451.416)" fill="#ccc"/>
      <path id="Path_713" data-name="Path 713" d="M388.2,373.617c3.25,2.06,8.632,1.962,8.635,8.5,0,6.42-3.2,7.727-8.611,7.618-5.029-.1-8.945-.409-8.987-7.241C379.2,376.079,384.034,375.5,388.2,373.617Z" transform="translate(723.765 632.45)" fill="#ebebeb"/>
      <path id="Path_714" data-name="Path 714" d="M419.77,385.348c4.17,7.037,1.571,14.052-.063,21.067-11.414,5.511-9.576-6.054-13.4-10.333l.007-6.917C409.2,382.295,413.255,379.5,419.77,385.348Z" transform="translate(792.036 654.031)" fill="#ebebeb"/>
      <path id="Path_715" data-name="Path 715" d="M397.889,400.152c-3.314-2.627-9.519-2.043-9.569-8.118-.053-6.477,4.148-8.671,10.093-8.84,5.145-.148,7.128,2.208,7,7.195C405.278,395.552,403.376,399.049,397.889,400.152Z" transform="translate(746.67 656.586)" fill="#ebebeb"/>
      <path id="Path_716" data-name="Path 716" d="M396.5,400.413c-.944,5.807-3.8,9.135-9.4,8.618-5.473-.507-8.3-4.029-7.7-9.508.507-4.621,3.582-7.272,8.216-7.336C393.3,392.108,395.719,395.729,396.5,400.413Z" transform="translate(724.008 679.273)" fill="#ebebeb"/>
      <path id="Path_717" data-name="Path 717" d="M405.386,383.115c.3,5.4-2.641,7.029-7.445,6.818-6.012-.264-10.093-2.839-9.565-9.255.472-5.677,6.124-6.977,10.005-7.17C403.991,373.226,405.213,378.322,405.386,383.115Z" transform="translate(746.695 632.147)" fill="#ebebeb"/>
      <path id="Path_718" data-name="Path 718" d="M601.692,296.917c.155,2.194-2.085,4.624-7.262,4.518-5.283-.109-9.058-2.138-9.748-7.646-.8-6.452,5.223-7.86,8.938-8.561C599.2,284.179,601.312,288.9,601.692,296.917Z" transform="translate(1241.659 409.194)" fill="#ccc"/>
      <path id="Path_719" data-name="Path 719" d="M618.262,326.953c-1.542,3.891-1.835,8.924-8.286,8.921-5.068,0-7.684-1.937-7.5-7.117.159-4.518-1-9.488,6.24-10.093C615.075,318.127,616.473,322.392,618.262,326.953Z" transform="translate(1286.687 493.755)" fill="#ccc"/>
      <path id="Path_720" data-name="Path 720" d="M386.919,411.187c6.043-.317,9.783.387,9.907,7.135.12,6.557-5.1,8.466-8.706,8.519-3.557.056-9.058-1.7-8.868-8.223C379.432,412.567,381.947,410.155,386.919,411.187Z" transform="translate(723.792 726.608)" fill="#ebebeb"/>
      <path id="Path_721" data-name="Path 721" d="M610.546,318.861c-6.156,1.215-8.41-4.117-8.576-8.17-.162-4,1.75-9.054,8.231-8.956,5.282.081,7.406,2.391,7.265,7.389C617.336,313.744,618.157,318.96,610.546,318.861Z" transform="translate(1285.416 451.18)" fill="#ccc"/>
      <path id="Path_722" data-name="Path 722" d="M419.77,397.936l-13.453,3.818q-.005-12.287-.007-24.571,6.7,3.423,13.393,6.843Q419.735,390.977,419.77,397.936Z" transform="translate(792.036 641.443)" fill="#c7c7c7"/>
      <path id="Path_723" data-name="Path 723" d="M422.809,429.529c-.225,2.927-1.965,7.28-6.607,6.91-5.385-.426-9.974-4.6-9.78-10.09.2-5.476,5.378-6.441,10.382-6.4C422.682,419.989,423.038,423.757,422.809,429.529Z" transform="translate(792.304 749.279)" fill="#ebebeb"/>
      <path id="Path_724" data-name="Path 724" d="M636.113,294.474c-1.148,5.346-4.853,6.934-9.892,6.984-5.18.053-7-2.624-6.8-7.4.215-5.047,2.148-9.66,7.628-8.9C631.376,285.764,634.585,289.776,636.113,294.474Z" transform="translate(1329.403 409.183)" fill="#ccc"/>
      <path id="Path_725" data-name="Path 725" d="M410.872,427.108c-9.537-.669-14.369-2.585-13.326-8.2.789-4.223,4.659-8.723,9.576-8.681,5.68.049,6.839,4.906,6.945,9.917C414.179,425.629,411.2,427.137,410.872,427.108Z" transform="translate(769.584 724.783)" fill="#ebebeb"/>
      <path id="Path_726" data-name="Path 726" d="M420.065,409.484c-.9,6.346,9.209,14.45-2.49,18.88-4.547,1.722-10.854-.257-11.108-5.371-.412-8.378,7.23-10.784,13.918-13.08Z" transform="translate(792.393 722.897)" fill="#ebebeb"/>
      <path id="Path_727" data-name="Path 727" d="M610.919,284.942c6.117,2,7.343,5.906,7.167,10.851-.2,5.592-3.9,6.318-8.156,5.916-4.853-.458-9.495-2.279-7.924-8.2C603.168,289.136,607.229,286.516,610.919,284.942Z" transform="translate(1284.744 408.836)" fill="#ccc"/>
      <path id="Path_728" data-name="Path 728" d="M406.31,386.124q6.7,5.172,13.4,10.336.032,5.209.063,10.421-6.725,1.9-13.453,3.814Q406.312,398.408,406.31,386.124Z" transform="translate(792.036 663.99)" fill="#c7c7c7"/>
      <path id="Path_729" data-name="Path 729" d="M597.464,198.811c-12.361-3.694-14.71-11.467-11.643-23.36C596.235,180.512,599.112,188.017,597.464,198.811Z" transform="translate(1241.654 132.729)" fill="#ebebeb"/>
      <path id="Path_730" data-name="Path 730" d="M384.324,270.759l-3.494,14.876-20.345-1.152C368.074,276.5,376,273.295,384.324,270.759Z" transform="translate(676.478 373.07)" fill="#ebebeb"/>
      <path id="Path_731" data-name="Path 731" d="M362.866,238.711c1.9-7.445,3.737-14.774,11.329-17.9.546-.225,3.74,3.163,3.765,4.9C378.076,235.066,368.909,235.126,362.866,238.711Z" transform="translate(682.482 247.077)" fill="#ebebeb"/>
      <path id="Path_732" data-name="Path 732" d="M408.174,386.3l-9.375,3.381c-.172-8.093-3.719-17.418,7.956-21.588C410.178,374.143,408.438,380.288,408.174,386.3Z" transform="translate(771.486 618.528)" fill="#c7c7c7"/>
      <path id="Path_733" data-name="Path 733" d="M621.428,213.774c-3.268.014-6.135.116-6.836-3.846-1.212-6.846,5.117-7.167,8.611-8.949,3.592-1.831,7.459,1.814,7.635,4.994C631.173,211.928,624.517,211.234,621.428,213.774Z" transform="translate(1316.886 195.864)" fill="#ebebeb"/>
      <path id="Path_734" data-name="Path 734" d="M142.741,241.254c54.27,10.523,79.584,74.439,49.544,116.7-5.688,8.005-7.522,7.758-13.337,1.842-16.749-17.045-33.883-33.71-50.614-50.769-2.648-2.7-9.033-5-3.508-10.843C139.709,282.444,141.977,262.469,142.741,241.254Z" transform="translate(76.702 298.667)" fill="#202020"/>
      <path id="Path_735" data-name="Path 735" d="M102.914,278.683c20.366,1.905,37.355-3.092,52.072-14.175,6.494-4.9,9.29-.944,12.956,2.7q24.786,24.643,49.477,49.385c3.874,3.9,9.35,6.638.07,12.516C173.433,356.993,112.564,331.245,102.914,278.683Z" transform="translate(26.954 351.545)" fill="#202020"/>
      <path id="Path_736" data-name="Path 736" d="M116.162,321.442c-10.85.363-14.048-5.843-13.692-15.5,1.1-29.966,37.228-64.529,67.645-65.141,8.456-.173,11.439,3.356,11.653,11.2C182.572,281.217,144.893,321.213,116.162,321.442Z" transform="translate(25.767 297.502)" fill="#c7c7c7"/>
      <path id="Path_737" data-name="Path 737" d="M542.988,161.965c0,5.821.081,11.643-.014,17.464-.352,21.433-6.962,26.793-28,23.8-9.146-1.3-12.858-6.124-13.89-14.911-2.69-22.881,11.182-48.818,32.668-61.053,6.751-3.842,8.656-.542,8.871,5.029.38,9.878.105,19.782.105,29.674Z" transform="translate(1030.197 7.019)" fill="#a5a5a5"/>
      <path id="Path_738" data-name="Path 738" d="M474.06,188.762c11.942-10.822,23.011-22.874,36.077-32.122,13.175-9.333,30.928-7.512,43.444-2.071,9.72,4.223,3.377,21.162,3.666,32.414.229,8.956-7.575,7.131-12.992,7.191-19.26.215-38.524.113-57.784.067-2.891-.007-5.779-.352-8.667-.542Q475.934,191.233,474.06,188.762Z" transform="translate(962.883 68.712)" fill="#202020"/>
      <path id="Path_739" data-name="Path 739" d="M471.058,216.005c0-22.634.416-45.279-.18-67.9-.3-11.248,6.012-12.5,14.39-11.611,8.963.947,22.969-4.61,25.825,3.733,4.458,13.013,6.684,29.671-1.352,42.092-8.938,13.819-22,24.983-33.273,37.306Z" transform="translate(954.834 32.119)" fill="#202020"/>
      <path id="Path_740" data-name="Path 740" d="M507.191,177.6c-15.929,1.884-21.437-5.952-21.38-21.25.053-14.826,6.216-20.44,20.884-20.6,15.717-.166,21.75,6.226,21.514,21.708C527.987,172.118,522.289,179.182,507.191,177.6Z" transform="translate(992.513 32.612)" fill="#a5a5a5"/>
      <path id="Path_741" data-name="Path 741" d="M475.379,151.019q12.2-13.133,24.268-26.121C505.014,153.491,502.57,155.946,475.379,151.019Z" transform="translate(966.21 5.248)" fill="#202020"/>
      <path id="Path_742" data-name="Path 742" d="M527.6,153.608c-7.586,9.34-14.474,16.8-24.518,23.905-2.057-9.262-5.054-18.827,1.469-24.356C509.773,148.723,519.166,150.3,527.6,153.608Z" transform="translate(1029.737 69.639)" fill="#202020"/>
      <path id="Path_743" data-name="Path 743" d="M193.844,153.006c1.423,8.938-2.057,12.09-10.46,11.918-7.244-.148-10.333-2.31-10.41-9.981-.085-8.065,2.4-11.671,10.907-11.185C190.671,144.142,195.76,145.163,193.844,153.006Z" transform="translate(203.622 52.699)" fill="#202020"/>
      <path id="Path_744" data-name="Path 744" d="M193.964,138.84c1.285,8.146-2.12,11.379-10.555,11.2-7.216-.155-10.364-2.257-10.435-9.956-.077-8.033,2.342-11.544,10.875-11.255C190.97,129.063,195.119,130.88,193.964,138.84Z" transform="translate(203.622 15.107)" fill="#202020"/>
      <path id="Path_745" data-name="Path 745" d="M186,138.87c1.3,8.188-2.18,11.336-10.579,11.164-7.244-.148-10.336-2.31-10.414-9.977-.081-8.068,2.405-11.505,10.907-11.234C183.073,129.052,187.141,130.95,186,138.87Z" transform="translate(183.521 15.108)" fill="#202020"/>
      <path id="Path_746" data-name="Path 746" d="M183.36,152.4c.049,5.357-2.49,8.906-7.832,9.516-5.233.6-9.142-1.94-9.889-7.3-.845-6.089,2.138-10.055,8.477-10.389C179.553,143.94,182.49,147.169,183.36,152.4Z" transform="translate(184.774 53.95)" fill="#ccc"/>
      <path id="Path_747" data-name="Path 747" d="M165.1,160.793c-4.775-.958-6.744-4.078-6.607-8.533.137-4.5,2.441-7.9,7.131-7.853,5.695.056,7.836,4.138,7.346,9.269C172.546,158.134,169.782,160.744,165.1,160.793Z" transform="translate(167.096 54.442)" fill="#ccc"/>
      <path id="Path_748" data-name="Path 748" d="M175.487,138.215c.264,6.843-.106,11.41-7.86,11.657-8.2.261-9.819-3.786-9.544-10.639.222-5.547.222-10.262,8.019-10.389C174.057,128.713,176.645,132.168,175.487,138.215Z" transform="translate(166.002 15.189)" fill="#202020"/>
      <path id="Path_749" data-name="Path 749" d="M193.81,144.685c.944,7.174-2.307,9.854-8.913,9.572-5.786-.247-11.91.912-11.889-8.234.011-6.695,2.514-9.611,9.174-9.192C187.833,137.187,194.789,135.511,193.81,144.685Z" transform="translate(203.709 35.241)" fill="#202020"/>
      <path id="Path_750" data-name="Path 750" d="M172.72,149.364c-3.6-.352-7.1-1.278-6.561-5.776.468-3.92,3.7-5.424,7.364-5.342s6.952,1.469,6.557,5.8C179.711,148.118,176.379,149.213,172.72,149.364Z" transform="translate(186.303 38.901)" fill="#ccc"/>
      <path id="Path_751" data-name="Path 751" d="M165.051,148.265c-3.085.081-5.642-.958-5.959-4.279-.317-3.3,1.94-5.1,5.008-5.483,3.092-.384,5.6.951,5.948,4.226C170.4,146.068,168.055,147.607,165.051,148.265Z" transform="translate(168.545 39.395)" fill="#ccc"/>
      <path id="Path_752" data-name="Path 752" d="M624.95,422.819c-9.231,1.514-11.478-2.532-11.615-10.47-.151-8.727,3.8-10.361,11.421-10.35,7.477.014,10.037,2.8,9.892,10.076C634.5,419.413,633.627,425.016,624.95,422.819Z" transform="translate(1314.087 704.02)" fill="#202020"/>
      <path id="Path_753" data-name="Path 753" d="M621.374,376.183c-2.507,7.646,7.727,21.433-10.812,21.416-7.536-.007-10.153-2.6-10.16-10.121-.024-18.475,13.8-8.3,21.469-10.794Z" transform="translate(1281.484 638.678)" fill="#202020"/>
      <path id="Path_754" data-name="Path 754" d="M621.243,399.155c1.613,9.769-3.451,10.924-10.921,11.178-9.283.31-9.755-4.73-9.921-11.791-.187-7.9,3.663-9.417,10.491-9.445C618.718,389.066,623.254,391.2,621.243,399.155Z" transform="translate(1281.466 671.487)" fill="#202020"/>
      <path id="Path_755" data-name="Path 755" d="M634.223,398.637c1.483,9.023-2.229,11.625-10.358,11.724-8.568.1-10.614-3.479-10.523-11.238.081-7.258,2.444-10.252,9.945-10.016C630.462,389.336,636.46,389.755,634.223,398.637Z" transform="translate(1314.111 671.48)" fill="#202020"/>
      <path id="Path_756" data-name="Path 756" d="M611.333,422.947c-8.329,1.366-10.843-2.427-10.953-10.484-.113-8.582,3.557-10.537,11.3-10.463,7.321.074,10.079,2.543,10.047,9.956C621.7,419.481,620.257,424.412,611.333,422.947Z" transform="translate(1281.421 704.018)" fill="#202020"/>
      <path id="Path_757" data-name="Path 757" d="M624.823,412.945c.873,6.91-1.454,10.407-9.326,10.227-7.466-.169-8.107-4.272-8.1-9.967.007-6.075-.042-11.178,8.607-11.2C624.3,402,625.461,406.38,624.823,412.945Z" transform="translate(1299.126 704.05)" fill="#202020"/>
      <path id="Path_758" data-name="Path 758" d="M624.32,396.237c6.931-.866,10.435,1.455,10.255,9.3-.169,7.445-4.286,8.086-9.995,8.079-6.093-.011-11.21.039-11.227-8.586C613.339,396.761,617.738,395.6,624.32,396.237Z" transform="translate(1314.143 689.059)" fill="#202020"/>
      <path id="Path_759" data-name="Path 759" d="M611.312,432.243c-7.575.951-11.079-1.37-10.9-9.22.169-7.445,4.286-8.082,9.995-8.075,6.093.007,11.262-.046,11.213,8.582C621.574,431.655,617.5,433.254,611.312,432.243Z" transform="translate(1281.492 736.676)" fill="#202020"/>
      <path id="Path_760" data-name="Path 760" d="M611.86,413.369c-7.533.824-11.523-.842-11.456-8.931.07-8.829,5.554-8.209,11.446-8.357,5.948-.148,9.723,1.085,9.745,8.308C621.615,412.13,618.3,414.775,611.86,413.369Z" transform="translate(1281.486 689.07)" fill="#202020"/>
      <path id="Path_761" data-name="Path 761" d="M637.785,399.642c.736,6.705-.933,10.685-9.047,10.622-8.854-.071-8.23-5.54-8.378-11.414-.152-5.931,1.1-9.583,8.325-9.745C636.771,388.922,638.546,392.909,637.785,399.642Z" transform="translate(1331.781 671.493)" fill="#202020"/>
      <path id="Path_762" data-name="Path 762" d="M625.162,404.211c.394,3.5-2.641,5.825-9.213,5.931-10.322.169-8.142-6.92-8.512-12.9-.451-7.357,3.965-8.082,9.812-8.11C626.595,389.085,624.5,395.763,625.162,404.211Z" transform="translate(1299.144 671.572)" fill="#202020"/>
      <path id="Path_763" data-name="Path 763" d="M628.5,408.953c3.522-.394,5.853,2.631,5.962,9.185.169,10.294-6.941,8.118-12.939,8.487-7.378.451-8.107-3.955-8.135-9.783C613.342,407.524,620.041,409.612,628.5,408.953Z" transform="translate(1314.231 721.473)" fill="#202020"/>
      <path id="Path_764" data-name="Path 764" d="M611.659,400.547c-6.448.518-11.227-.116-11.259-8.572-.032-8.431,4.716-8.942,11.009-8.8,5.49.123,10.047.19,10.2,7.857C621.763,398.625,618.783,401.519,611.659,400.547Z" transform="translate(1281.479 656.501)" fill="#202020"/>
      <path id="Path_765" data-name="Path 765" d="M611.312,426.282c-7.575.951-11.079-1.37-10.9-9.22.169-7.445,4.286-8.082,9.995-8.075,6.093.007,11.262-.046,11.213,8.586C621.574,425.7,617.5,427.293,611.312,426.282Z" transform="translate(1281.492 721.644)" fill="#202020"/>
      <path id="Path_766" data-name="Path 766" d="M640.729,414.132c-4.867-2.265-8.03-7.744-14.231-7.487-.873-6.938.993-11.59,9.206-10.417,4.148.592,10.357-2.317,11.283,4.642C647.684,406.117,649.913,413.093,640.729,414.132Z" transform="translate(1346.795 689.012)" fill="#202020"/>
      <path id="Path_767" data-name="Path 767" d="M615.354,396.233c6.068-.729,9.625,1.021,9.614,8.153-.007,6.406-2.046,9.456-8.825,9.192-5.205-.2-8.836-1.148-8.727-7.484C607.515,400.551,607.532,395.448,615.354,396.233Z" transform="translate(1299.164 689.098)" fill="#202020"/>
      <path id="Path_768" data-name="Path 768" d="M615.8,415.105c6.554-.852,9.181,1.962,9.213,8.614.031,6.776-2.892,8.9-9.294,8.734-5.61-.144-8.311-1.958-8.315-7.948S608.492,414.25,615.8,415.105Z" transform="translate(1299.131 736.698)" fill="#202020"/>
      <path id="Path_769" data-name="Path 769" d="M624.8,391.918c.835,6.857-2.67,8.741-9.037,8.8-7.191.063-8.4-3.6-8.367-9.639.028-6.019,2.764-7.794,8.346-7.917C622.116,383.022,625.638,385.043,624.8,391.918Z" transform="translate(1299.125 656.505)" fill="#202020"/>
      <path id="Path_770" data-name="Path 770" d="M616.226,426.342c-6.871.831-8.779-2.648-8.836-9.005-.067-7.167,3.606-8.375,9.66-8.35,6.029.028,7.825,2.743,7.945,8.318C625.132,423.645,623.128,427.177,616.226,426.342Z" transform="translate(1299.103 721.644)" fill="#202020"/>
      <path id="Path_771" data-name="Path 771" d="M628.415,402.063q5.51,7.084,11.02,14.175c-2.567,11.03-12.907,8.318-15.668,4.525C620.107,415.731,615.676,405.43,628.415,402.063Z" transform="translate(1330.756 704.184)" fill="#202020"/>
      <path id="Path_772" data-name="Path 772" d="M637.99,406.533c-4.867.225-9.861.257-10.442,6.913-10.062-.063-6.829-7.547-6.561-12.612.321-6.082,5.695-4.37,9.488-4.687C638.684,395.464,638.145,401.155,637.99,406.533Z" transform="translate(1331.618 689.124)" fill="#202020"/>
      <path id="Path_773" data-name="Path 773" d="M639.089,412.679q-5.5,7.094-11.009,14.186c-10.893-.465-8.209-9.738-6.05-13.478C626.013,406.5,633.13,408.316,639.089,412.679Z" transform="translate(1331.094 721.185)" fill="#202020"/>
      <path id="Path_774" data-name="Path 774" d="M618.9,210.25c-3.184-3.909-4.349-4.7-4.55-5.688-1.483-7.315-4.152-14.869.394-21.842,1.426-2.194,4.606-.754,5.705,1.454C624.549,192.412,624.077,200.375,618.9,210.25Z" transform="translate(1311.255 148.309)" fill="#ebebeb"/>
      <path id="Path_775" data-name="Path 775" d="M619.468,201.6c.409,4.906-.909,7.656-4.543,6.645-6.875-1.909-9.586-7.695-10.822-14.112-.557-2.877.042-6.973,3.574-6.41C615.932,189.037,615.781,197.775,619.468,201.6Z" transform="translate(1290.359 163.545)" fill="#ebebeb"/>
      <path id="Path_776" data-name="Path 776" d="M606.913,217.786c-4.216-.257-9.428.356-8.73-4.106,1.07-6.853,8.019-7.11,13.548-7.889,3.391-.475,7.924.151,6.79,4.835C617.083,216.571,610.818,216.377,606.913,217.786Z" transform="translate(1275.727 208.904)" fill="#ebebeb"/>
      <path id="Path_777" data-name="Path 777" d="M269.86,177.062c-4.078,0-8.241.514-12.213-.134-5.11-.835-13.136,3.631-14.5-4.694-1.021-6.233,2.641-12.622,8.8-15.682,7.959-3.955,15.112-9.681,25.768-4.585,9.752,4.666,19.091,10.252,16.851,20.891-1.87,8.889-12.791,2.564-19.475,4.149C273.434,177.4,271.606,177.066,269.86,177.062Z" transform="translate(380.146 68.435)" fill="#202020"/>
      <path id="Path_778" data-name="Path 778" d="M412.846,402.927c-9.9-1.261-18.264-3.775-13.742-16.781,4.55-5.205,9.171-5.413,13.872-.2Z" transform="translate(770.688 653.938)" fill="#ebebeb"/>
      <path id="Path_779" data-name="Path 779" d="M412.1,395.792q-6.936.1-13.872.2-.021-8.875-.042-17.757,6.962,1.574,13.921,3.145Q412.106,388.583,412.1,395.792Z" transform="translate(771.56 644.091)" fill="#c7c7c7"/>
    </g>
    <line id="Line_10" data-name="Line 10" x2="789" y2="789" transform="translate(1131)" fill="none" stroke="#000" stroke-linecap="round" stroke-width="2" opacity="0.503"/>
    <line id="Line_11" data-name="Line 11" x2="690" y2="690" transform="translate(1230)" fill="none" stroke="#000" stroke-linecap="round" stroke-width="2" opacity="0.4"/>
    <path id="Path_114" data-name="Path 114" d="M0,0,625,625" transform="translate(1295)" fill="none" stroke="#000" stroke-linecap="round" stroke-width="2" opacity="0.3"/>
    <line id="Line_12" data-name="Line 12" x2="586" y2="586" transform="translate(1334)" fill="none" stroke="#000" stroke-linecap="round" stroke-width="2" opacity="0.2"/>
  </g>
</svg>
