<svg xmlns="http://www.w3.org/2000/svg" width="1155.851" height="769.252" viewBox="0 0 1155.851 769.252">
  <g id="Group_36" data-name="Group 36" transform="translate(-94.643 -135.71)">
    <path id="Path_259" data-name="Path 259" d="M312.2,408.235c-7.75,9.522-13.145,17.348-12.607,28.852,1.1,23.434.934,46.927,1.151,70.4.023,2.539,1.417,4.117,2.512,6.061,4.218,7.49,7.6,15.037-.161,22.5-2.106,2.027-.054,4.265-.062,6.4-.01,2.254.4,4.729-2.207,5.859-2.537,1.1-4.391-.594-5.938-2.205A73.975,73.975,0,0,1,280.5,525.649c-9.976-21.82-12.145-45.724-18.732-68.414-7.837-27,.773-52.258,6.354-77.8,6.045-27.669,14.471-54.725,23.536-81.593,8.2-24.313,24.294-41.068,46.386-53.275,17.656-9.757,20.683-29.615,7.54-44.306-10.1-11.289-14.748-43.792-8.064-55.036,5.022-8.451,14.321-7.07,21.5-8.062,15.595-2.157,31.572-2.252,47.09,2.017,8.049,2.215,15.952,5.727,17.437,14.719,1.541,9.34,1.44,18.984-10.613,22.847-3.788,1.215-2.728,5.422-2.883,8.534-.513,10.27,1.1,20.64-1.9,30.8-1.444,4.886-3.021,9.279-8.942,10.04-4.03.518-5.482,3.815-5.727,6.9-.716,9.01-4.735,16.9,7.728,24.639a78,78,0,0,1,34.714,48.42,15.787,15.787,0,0,0,3.962,7.577c8.944,8.326,18.295,16.212,27.372,24.4,4.118,3.716,8.043,3.327,12.162.252.26-.194.513-.4.784-.571C506.82,321,506.818,321,506.845,289.112c0-2.9.113-5.812.047-8.715-.13-5.758,2.819-8.1,8.381-8.064,11.318.074,22.639.01,33.957-.033,8.371-.033,16.8.765,24.759-3.143a10.616,10.616,0,0,1,6.649-.573c31.626,7.651,63.737,2.332,95.592,3.586,18.928.745,18.953.138,18.953,19.021q0,104.583-.008,209.166c0,14.016-.12,14.137-13.991,14.142q-80.047.032-160.094,0c-14.115-.006-14.228-.113-14.239-13.9q-.041-53.743-.01-107.488V382.109c-7.206,0-10.658,5.432-15.216,8.326-10.7,6.793-21.112,7.928-33.031,3.2-12.978-5.152-13.247-4.564-13.215,9.786.039,16.744-.175,33.453,1.784,50.181,3.025,25.825-3.624,51.023-6.2,76.489-2,19.819-3.688,39.671-5.379,59.519q-3.847,45.162-7.488,90.343c-1.539,19.238-2.78,38.5-4.281,57.74-2.749,35.266-3.314,70.683-7.511,105.846-.724,6.069.08,12.188-1.312,18.293-2.881,12.646-.992,18.369,11.151,22.781,16.61,6.036,32.68,13.156,51.551,13.059,131.306-.674,262.618-.369,393.928-.318,6.5,0,12.456.07,17.67-5.37,2.574-2.683,7.561-3.289,11.592-4.3a68.147,68.147,0,0,0,20.389-8.716c7.985-5.15,8.187-9.4,1.751-16.346-8.429-9.1-7.2-21.09-8.837-31.993q-9.138-61.041-17.167-122.248c-5-37.605-9.485-75.278-14.2-112.92-1.8-14.346-3.786-28.673-5.346-43.047a92.432,92.432,0,0,1,2.632-34.515c4.651-17.089,9.617-34.1,13.84-51.3,2.4-9.755.631-19.759-.565-29.6-.553-4.547-3.263-5.113-6.83-2.564a8.315,8.315,0,0,1-.829.5c-33.7,18.607-66.571,9-85.194-25.319-3.733-6.876-9.559-7.014-15.573-6.849a45.393,45.393,0,0,1-18.933-3.131c-2.027-.837-4.465-1.91-3.685-4.824.61-2.283,2.887-2.178,4.779-2.512,4.213-.742,10.308,2.038,10.13-6.624-.039-1.856,5.77-1,8.907-.313,15.012,3.3,28.064,12.067,43.835,13.966,18.972,2.285,18.84,3.4,26.043-14.21,1.588-3.883,2.957-7.872,4.776-11.644,4.4-9.13,6.82-16.686-1.223-26.656-9.349-11.588-3.591-24.8,4.527-35.563,9.536-12.648,19.262-24.884,21.688-41.282,1.194-8.074.812-16.1.736-24.127-.157-16.534,5.711-30.9,15.332-43.874,6.7-9.029,16.536-13.612,27.279-15.1,23.169-3.211,43.1.907,56.76,23.146,17.194,27.99,31.371,57.074,37.172,89.479,2.007,11.221,2.355,23.181-1.994,34.414a13.157,13.157,0,0,0-.408,9.423c6.678,19.312,9.854,39.424,13.166,59.458,4.547,27.506,15.463,53.266,21.378,80.405,3.209,14.733,5.471,29.673,11.582,43.864,5.082,11.8-3.359,24.668-16.026,27.667-5.954,1.409-11.883,3.413-17.918,3.865-9.192.687-9.8,6.1-9.276,13.281,2.033,27.9,3.77,55.824,5.766,83.729,1.51,21.116,9.51,40.7,14.87,60.893,9.621,36.25,15.962,72.964,15.995,110.546.008,7.592,1.788,13.378,7.427,18.86,10.607,10.312,10.27,15.365,1.87,27.58-3.368,4.9-7.911,8.79-9.691,15.278-2.145,7.822.248,8.654,6.956,8.637q84.9-.2,169.793.12c4.97.021,14.03-2.817,13.925,3.716-.1,6.022-9.194,2.931-14.121,2.933q-563.73.262-1127.455.159a47.88,47.88,0,0,1-6.783-.078c-2.825-.41-7.724,1.483-7.482-3.31.2-3.974,4.82-3.5,7.969-3.5q58.7-.119,117.4-.132c12.6-.012,13.873-2.244,8.173-13.83a36.687,36.687,0,0,0-6.94-9.227c-9-9.3-10.46-14.931-2.11-24.232,7.249-8.074,6.092-17.274,7.284-26.047,4.682-34.478,10.169-68.784,18.021-102.7,6.719-29.021,16.5-56.422,32.5-82.213,18.11-29.19,28.564-61.91,31.69-96.535.984-10.881,1.895-21.791,3.523-32.585,1.485-9.837-2.112-19.188-1.813-28.825.637-20.6,2.873-41.14,1.868-61.788C312.07,416.235,312.2,413.125,312.2,408.235Zm288.6-112.65c-24.555,0-49.111.21-73.661-.118-8.047-.109-10.716,2.978-10.675,10.827q.347,67.712,0,135.428c-.041,7.783,2.5,10.93,10.605,10.891q73.661-.352,147.324.023c8.5.047,11.229-3.038,11.178-11.331q-.4-67.228.037-134.459c.076-9.26-3.677-11.526-12.12-11.4C649.269,295.816,625.034,295.577,600.8,295.585Zm-254.828,396.9c-7.658,17.856-17.214,34.641-26.6,51.443q-30.375,54.4-62.281,107.931c-6.546,11-4.046,21.23.008,31.249,3.83,9.476,13.884,13.465,22.665,13.768,30.655,1.064,61.369.309,92.061.509,6.416.043,7.759-2.718,8.544-8.629,1.138-8.565-4.426-14.562-6.406-21.855A826.671,826.671,0,0,1,345.977,692.485Zm623.391,31.539c-1.112,1.322-1.829,1.776-1.831,2.231-.157,39.859-3.114,79.588-6.338,119.266-1.2,14.82,1.621,29.481-.1,44.068-.786,6.672,1.2,7.837,6.87,7.765,13.877-.171,27.982,1.5,41.575-.47,15.373-2.223,26.662-8.718,26.5-25.759q-.073-7.245-.017-14.494c.019-3.083-.7-5.562-3.757-7.195-4.76-2.545-7.431-6.952-9.693-11.694C1008.3,807.82,993.91,777.953,979.705,748,976.054,740.3,972.938,732.344,969.368,724.023Zm61.611-223.3c-10.26-19.669-21.479-38.189-29.69-58.206-2.246-5.474-4.882-3.968-7.5-.359-5.465,7.526-1.109,14.286,2.473,20.454,5.818,10.021,12.591,19.535,16.606,30.482C1016,501.639,1020.539,506.191,1030.979,500.725Z" transform="translate(0 0)" fill="#e8e8e8"/>
    <path id="Path_260" data-name="Path 260" d="M343.366,268.815c-5.8,2.24-11.764-.26-16.635,3.04-1.188.8-3.355.678-3.252-.349.726-7.323-6.01-10.774-8.161-16.5-1.155-3.079.942-4.859,3.516-5.915,6.82-2.8,11.015-6.882,13.651-14.606,3.31-9.7,13.842-9.307,22.451-9.491,16.3-.346,22.065,6.055,20.632,21.8-.6,6.585-.091,12.683,4.908,17.957a22.51,22.51,0,0,1,5.75,9.936c1.805,8.208,7.123,12.912,14.179,15.911,17,7.226,24.2,20.182,23.591,38.187-.2,5.814-.831,11.92,8.124,12.318,10.04.445,16.354-2.86,18.079-10.662.344-1.549-.117-3.308.357-4.793,1.14-3.57-5.42-8.8,1.369-10.636,5.824-1.578,11.584.763,15.393,5.884,6.1,8.2,5.461,17.641,4.108,26.963-.637,4.4-4.638,4.927-8.326,4.943q-53.8.227-107.6.342c-2.836,0-6.138.134-7.1-3.576-.856-3.308.262-5.69,3.9-6.453,4.459-.936,3.549-4.086,2.364-6.742-1.968-4.4-3.836-9.029-6.731-12.811C334.8,306.4,330.072,288.754,343.366,268.815Z" transform="translate(207.417 84.029)" fill="#e8e8e8"/>
  </g>
</svg>
