<svg xmlns="http://www.w3.org/2000/svg" width="1836.976" height="1022.306" viewBox="0 0 1836.976 1022.306">
  <g id="Group_84" data-name="Group 84" transform="translate(-84.438 -59.108)">
    <g id="Group_37" data-name="Group 37" transform="translate(-58.467 -11.634)" opacity="0.404">
      <path id="Path_322" data-name="Path 322" d="M542.444,96.225c8.729,17.6,20.995,32.916,31.629,49.284,4.185,6.44,8.379,12.92,13.126,18.94,5.212,6.6,3.721,10.516-3.052,15.059-40.585,27.231-80.915,54.843-121.327,82.332-17.606,11.978-35.377,23.725-52.718,36.077-6.5,4.629-10.2,4.644-14.986-2.486-32.523-48.438-65.439-96.609-98.252-144.85-6.876-10.108-13.692-20.265-20.833-30.184-4.455-6.188-3.557-10.329,2.867-14.609,16.814-11.2,34.039-21.847,49.448-35.047H517.1c4.823,3.735,2.351,7.856.858,12.138-2.764,7.927-1.233,9.875,7.229,9.879,3.128,0,6.165-.829,9.263-1.012C538.006,91.537,541.542,91.577,542.444,96.225Z" transform="translate(182.125 0)" fill="#cacaca" opacity="0.5"/>
      <path id="Path_323" data-name="Path 323" d="M713.93,391.761q-65.275,37.65-130.549,75.3c-2.116,1.22-4.135,2.625-6.318,3.7-6.188,3.052-12.811,4.949-18.835.507-6.108-4.5-5.826-11.063-4.413-18.1q22.927-114.1,45.521-228.263c4.053-20.278,14.475-23.634,30.678-11,25.87,20.16,52.159,39.783,78.325,59.56,1.62,1.224,3.717,1.813,5.591,2.7V311.9c-5.193,4.289-9.027.73-12.946-2.265-20.267-15.495-40.477-31.065-60.79-46.5-10.947-8.318-13.747-7.4-16.4,5.752q-14.519,72.039-28.728,144.141c-.454,2.335-1.641,4.68.284,8.344,10.571-4.825,20.334-11.28,30.363-17.1,25.079-14.563,50.215-29.029,75.215-43.729,4.278-2.516,8.546-5.506,13-.3Z" transform="translate(551.099 117.602)" fill="#cacaca" opacity="0.5"/>
      <path id="Path_324" data-name="Path 324" d="M696.767,339.087c-20.772,9.21-39.344,22.351-59.131,33.328-18.6,10.316-36.717,21.493-55.106,32.193-3.8,2.215-7.864,3.992-14,7.071,3.887-19.666,7.277-37,10.737-54.315q12.32-61.662,24.718-123.306c2.03-10.049,3.454-10.59,11.738-4.278,24.133,18.385,48.15,36.927,72.268,55.337,2.753,2.1,5.843,3.765,8.777,5.63Z" transform="translate(568.262 137.775)" fill="#f8f8f8" opacity="0.5"/>
      <path id="Path_325" data-name="Path 325" d="M301.447,603.072c6.539-7.517,15.474-11.938,23.435-17.468,32.432-22.526,65.332-44.375,98.037-66.507,4.318-2.923,8.421-5.483,12.432.433,17.819,26.3,36.8,51.826,52.75,79.373,1.336,1.388,1.228,2.778,0,4.169Z" transform="translate(214.285 406.026)" fill="#cacaca" opacity="0.5"/>
      <path id="Path_326" data-name="Path 326" d="M741.815,146.51a26.245,26.245,0,0,1-2.579-1.773c-20.98-18.282-37.2-17.712-57.463,2.038-19.291,18.81-47.488,22.095-70.152,7.833a59.7,59.7,0,0,1-12.8-10.6c-13.814-15.385-34.71-16.366-50.2-2.4-5.95,5.363-12.285,7.22-18.706,2.28-4.581-3.521-1.579-14.195,4.688-19.369,23.6-19.483,57.964-18.734,78.633,4.068,15.093,16.649,40.307,18.624,57.7.021,19.319-20.667,42.789-23.005,70.884-9.423Z" transform="translate(523.214 44.027)" fill="#a8a8a8" opacity="0.5"/>
      <path id="Path_327" data-name="Path 327" d="M741.819,170.647c-7.454-5.521-13.328-13.619-23.6-14.546-13.186-1.193-24.293,2.107-34.014,12.1-24.682,25.372-58.492,25.357-83.5.8-17.476-17.169-32.794-17.731-55.747-1.676-4.884,3.416-9.648,4.924-14.05.389-4.482-4.617-4.009-10.169-.286-15.242a29.03,29.03,0,0,1,5.166-5.182c22.023-17.913,55.64-17.179,75.471,3.212,23.075,23.725,44.629,17.463,62.446-.608,15.669-15.892,35.3-18.277,56.189-12.228,3.977,1.153,7.54,3.714,11.919,3.561Z" transform="translate(523.21 70.331)" fill="#a8a8a8" opacity="0.5"/>
      <path id="Path_328" data-name="Path 328" d="M741.813,122.168c-12.319-10.63-25.319-19.07-42.536-12.01-6.842,2.8-12.561,7.336-17.836,12.552-22.635,22.387-58.774,23.149-80.5-.444-17.129-18.608-39.388-18.031-55-2.684-4.743,4.661-10.8,6.367-15.634.734-4.478-5.218-2.749-10.855,1.719-15.966,20.332-23.26,56.069-23.155,82.225.385,21.121,19.007,36.2,18.959,56.159-.36C685.8,89.5,712.271,80.788,735.912,92.842a42.08,42.08,0,0,0,5.9,2Z" transform="translate(523.215 17.929)" fill="#a8a8a8" opacity="0.5"/>
      <path id="Path_329" data-name="Path 329" d="M142.9,239.614q30.886,23.438,61.756,46.9a58,58,0,0,1,6.264,5.565c9.894,10.1,9.378,18.441-2.6,25.567-21.607,12.857-43.594,25.075-65.424,37.56V323.681c2.94-6.055,7.626-10.243,13.389-13.667,11.446-6.8,11.7-9.625.885-17.745A51.727,51.727,0,0,1,142.9,275.342Z" transform="translate(0 152.996)" fill="#cacaca" opacity="0.5"/>
      <path id="Path_330" data-name="Path 330" d="M142.9,119.123c6.179,1.948,10.657,6.211,14.91,10.849,15.263,16.639,38.851,16.54,54.2-.187,20.238-22.046,52.847-25.42,76.666-7.835a45.294,45.294,0,0,1,6.863,6.411c4.059,4.57,6.158,9.86,1.428,14.954-4.532,4.88-9.944,3.807-15.106.393-4.636-3.069-9.034-6.707-14.048-8.951-14.29-6.392-27.353-3.289-39.647,9.328-18.544,19.03-40.229,23.416-65.046,15.068-7.818-2.631-13.7-8.133-20.223-12.708Z" transform="translate(0 44.094)" fill="#a8a8a8" opacity="0.5"/>
      <path id="Path_331" data-name="Path 331" d="M142.9,141.091c5.912,4.873,12.14,9.412,17.676,14.683,14.763,14.062,34.182,14.5,48.367-.109,17.569-18.094,38.023-25.323,62.65-18.555a46,46,0,0,1,23.6,14.813c4.206,5.006,6.854,10.55,1.43,15.783-5.06,4.882-10.882,3.605-15.9-1.012-7.45-6.857-15.8-10.912-26.3-11.053-9.441-.124-17.722,2.846-23.712,9.29-25.813,27.776-57.911,28.861-87.815,5.584Z" transform="translate(0 70.462)" fill="#a8a8a8" opacity="0.5"/>
      <path id="Path_332" data-name="Path 332" d="M142.9,94.923c5.359,2.112,9.242,6.129,13.238,10.073,18.353,18.122,38.9,18.189,57.177.276,22.642-22.187,51.076-24.371,76.8-5.9.852.61,1.729,1.193,2.524,1.87,7.536,6.421,9.086,13.623,3.706,18.854-6.714,6.526-12.489,3.144-18.2-2.044-13.352-12.13-26.518-13.5-42.019-4.522a24.442,24.442,0,0,0-6.6,5.05c-22.707,27.21-62.4,27.113-86.627,3.662Z" transform="translate(0 17.853)" fill="#a8a8a8" opacity="0.5"/>
      <path id="Path_333" data-name="Path 333" d="M142.9,399.432c3.946,3.271,7.094,2.659,10.689-1.117,9.387-9.856,19.22-19.285,28.764-28.991,5.151-5.239,11.555-8.842,17.152-2.869,5.027,5.368,1.611,11.587-3.388,16.479-9.728,9.521-19.1,19.409-28.937,28.817-4.307,4.122-4.2,7.065.051,11.135,9.826,9.416,19.247,19.258,28.92,28.836,4.943,4.9,8.32,10.426,2.41,16.237s-11.362,2.225-16.206-2.692c-9.555-9.7-19.379-19.133-28.766-28.991C150,432.5,146.851,431.89,142.9,435.16Z" transform="translate(0 265.608)" fill="#a8a8a8" opacity="0.5"/>
      <path id="Path_334" data-name="Path 334" d="M656.629,435.145q-14.285,13.787-28.564,27.584c-2.759,2.677-5.395,5.5-9.128,6.84-4.537,1.63-8.9,2.131-12.148-2.486-3.163-4.5-2.143-8.306,1.655-12.045,10.691-10.527,21.041-21.4,31.883-31.768,4.6-4.394,4.789-7.443.076-11.909-10.127-9.6-19.829-19.645-29.624-29.587-4.316-4.379-8.8-9.547-3.033-15.234,5.384-5.313,11.454-3.384,16.6,1.611q16.121,15.655,32.285,31.265Z" transform="translate(608.4 265.635)" fill="#a8a8a8" opacity="0.5"/>
      <path id="Path_335" data-name="Path 335" d="M420.309,96.225c-10.411.736-20.848,1.222-31.223,2.307-5.8.606-5.925-1.634-4.023-5.87,3.281-7.315,7.959-14,9.9-21.92h50.333c1.333,6.017,6.038,9.9,9.423,14.567,3.832,5.29,3.521,8.018-3.548,8.508C440.877,94.532,430.594,95.413,420.309,96.225Z" transform="translate(318.611 0)" fill="#919191" opacity="0.5"/>
      <path id="Path_336" data-name="Path 336" d="M142.9,256.6c11.269,6.217,20.109,15.652,30.466,23.079,4.436,3.18,3.9,5.738-.8,8.327-9.967,5.5-19.787,11.271-29.667,16.933Z" transform="translate(0 170.915)" fill="#f8f8f8" opacity="0.5"/>
      <path id="Path_337" data-name="Path 337" d="M390.191,575.418q0-2.085,0-4.171c6.017-7.723,9.2-16.99,13.724-25.525,2.938-5.55,5.292-6.59,9.364-.944,7.475,10.365,15.343,20.444,23.05,30.64Z" transform="translate(325.341 433.681)" fill="#919191" opacity="0.5"/>
      <path id="Path_338" data-name="Path 338" d="M484.04,437.392c-3.1,8.188-7.879,15.446-12.542,22.77-2.7,2.171-5.092.772-7.58-.562-3.229-1.729-6.661-2.28-9.679.233-3.5,2.917-3.031,6.682-1.34,10.371,1.079,2.352,1.546,4.554-.238,6.743-16,12.024-34.115,17.373-53.976,17.247q-5.543,5.736-11.086,0c-20.951-5.014-39.912-12.969-55.343-29.311-39.92-42.276-27.469-115.112,23.885-142.252,36.9-19.5,82-11.509,108.615,16.134a42.225,42.225,0,0,0,4.913,3.822c6.514,2.833,8.838,8.678,10.651,14.887,2.389,9.4,7.376,17.958,9.019,30.125,2.2-6.356,1.342-11.736,5.519-14.6,4.665-3.2,9.78-3.859,14.735-.869,5.492,3.317,6.97,8.619,5.433,14.563-1.525,5.9-6.419,9.765-11.707,7.921-14.923-5.21-12.792,4.568-12.691,13.114.023,2.091-.177,4.185-.276,6.278-2.337,2.867-5.752,1.737-8.695,2.419-7.441,1.727-9.261,7.248-4.1,12.992C479.87,431.978,482.74,434.021,484.04,437.392Z" transform="translate(224.966 214.518)" fill="#8d8d8d" opacity="0.5"/>
      <path id="Path_339" data-name="Path 339" d="M446.947,552.454c2.076-33.19,16.694-61.821,50.363-76.965,35.9-16.151,69.532-10.211,99.266,15.787,8.6,7.515,9.574,15.636,3.5,21.857-5.313,5.443-13.558,4.612-21.4-2.156-31.33-27.025-75.248-22.41-95.547,10.926-13.2,21.678-13.938,44.288.36,66.307,1.142,1.761,2.377,3.46,3.58,5.178,6.4,9.149,6.358,17.878-.124,22.286-6.432,4.375-15.423,1.83-21.678-6.7C453.562,593.024,447.254,575.146,446.947,552.454Z" transform="translate(408.275 351.501)" fill="#dfdfdf" opacity="0.5"/>
      <path id="Path_340" data-name="Path 340" d="M278.8,196.786c38.8.015,71.3,21.1,83.054,52.354,14.191,37.739,5.771,76.2-22.326,101.6a37.817,37.817,0,0,1-7.593,5.477c-7.088,3.733-14.193,4.554-19.367-3-5.216-7.607-2.316-14.3,4.4-19,12.969-9.082,20.566-21.466,24.242-36.572,7.021-28.861-9.909-60.9-37.636-71.118-17.14-6.32-34-6.623-50.327,2.741a55.718,55.718,0,0,1-6.568,3.226c-7.267,2.978-14.456,4.131-19.253-3.921-4.329-7.263-1.22-14.47,8-19.655C249.6,200.944,264.409,195.2,278.8,196.786Z" transform="translate(110.59 112.604)" fill="#919191" opacity="0.5"/>
      <path id="Path_341" data-name="Path 341" d="M638.217,569.392c-1.84-.837-4.091-1.741-6.234-2.858-15.1-7.87-30.089-15.951-45.3-23.6-5.956-3-7.347-6.556-4.2-12.481,7.988-15.057,16.016-30.108,23.462-45.439,3.281-6.756,6.8-7.277,12.987-3.859q22.356,12.339,45.235,23.716c5.5,2.753,7.033,5.71,4.1,11.4-8.146,15.783-15.936,31.749-23.946,47.6C643.1,566.282,642.158,569.19,638.217,569.392Z" transform="translate(581.853 365.356)" fill="#919191" opacity="0.5"/>
      <path id="Path_342" data-name="Path 342" d="M197.168,542.482c4.594-7.8,8.335-14.287,12.2-20.7Q235.57,478.3,261.9,434.9c1.508-2.475,2.208-6.857,6.114-6.2,3.523.6,3.592,4.751,4.648,7.595q10.935,29.448,21.743,58.94c2.1,5.685,3.117,10.731-4.413,13.564-29.025,10.918-57.964,22.07-86.955,33.074C201.862,542.318,200.46,542.165,197.168,542.482Z" transform="translate(59.866 324.381)" fill="#dfdfdf" opacity="0.5"/>
      <path id="Path_343" data-name="Path 343" d="M536.65,323.832c-4.411,6.165-8.077,13.625-15.211,17.682-5.7,3.247-8.836-2.3-12.169-5.54-28.291-27.519-56.45-55.175-84.755-82.679-5.5-5.34-11.452-10.211-17.228-15.263-4.779-4.181-4.059-7.824.059-12.369,13.717-15.139,13.408-15.085,28.4-1.211,32.031,29.648,63.725,59.644,94.483,90.619C532.643,317.5,535.712,319.512,536.65,323.832Z" transform="translate(348.861 129.544)" fill="#dfdfdf" opacity="0.5"/>
      <path id="Path_344" data-name="Path 344" d="M450.188,187.78c12.609.036,21.7,8.148,21.483,19.184-.212,11.107-9.776,20.641-20.713,20.646-11.025,0-21.323-9.967-20.774-20.482C430.674,197.792,438.166,185.746,450.188,187.78Z" transform="translate(377.643 107.599)" fill="#8d8d8d" opacity="0.5"/>
      <path id="Path_345" data-name="Path 345" d="M412.927,449.684c-.585,7.141-4.657,12.172-12.891,12.6-8.558.442-12.685-4.865-13.486-12.7-.684-6.682,7.2-14.067,14.163-13.94C407.351,435.759,412.824,441.641,412.927,449.684Z" transform="translate(319.473 337.014)" fill="#a8a8a8" opacity="0.5"/>
      <path id="Path_346" data-name="Path 346" d="M441.152,389.942c.759-7.17,5.025-11.942,13.3-12.3,6.724-.292,13.858,6.867,13.044,13.593-.9,7.4-5.658,12.121-13.1,12.8S441.065,398.4,441.152,389.942Z" transform="translate(391.133 283.453)" fill="#a8a8a8" opacity="0.5"/>
      <path id="Path_347" data-name="Path 347" d="M388.206,416.575c7.16.534,12.09,4.606,12.7,12.908.509,6.89-6.121,14.018-13.112,13.52-7.492-.532-12.188-5.33-13.175-12.685S379.78,416.764,388.206,416.575Z" transform="translate(303.748 319.42)" fill="#a8a8a8" opacity="0.5"/>
      <path id="Path_348" data-name="Path 348" d="M431.865,333.589c-.593,7.235-4.709,12.138-12.992,12.679a12.31,12.31,0,0,1-13.389-12.929c.431-7.544,5.157-12.268,12.454-13.392C424.5,318.938,431.72,326.026,431.865,333.589Z" transform="translate(344.33 230.084)" fill="#a8a8a8" opacity="0.5"/>
      <path id="Path_349" data-name="Path 349" d="M398.713,397.532c7.746-.006,13.97,5.689,13.166,12.922-.814,7.342-4.627,12.3-12.927,12.157-8.249-.139-13.276-3.9-13.642-12.432C384.983,402.529,390.492,397.538,398.713,397.532Z" transform="translate(317.897 301.912)" fill="#a8a8a8" opacity="0.5"/>
      <path id="Path_350" data-name="Path 350" d="M421.254,393.281c-.147,5.147-3.39,10.382-11.383,11.025-7.828.633-13.6-5.536-13.673-13.583-.076-8.283,4.8-12.087,12.081-12.941C415.438,376.941,421.182,383.143,421.254,393.281Z" transform="translate(332.107 283.509)" fill="#a8a8a8" opacity="0.5"/>
      <path id="Path_351" data-name="Path 351" d="M444.909,390.746c-.633,7.565-4.24,12.6-12.033,13.349-6.873.656-15.345-7.185-14.386-13.614,1.161-7.772,6.32-12.752,14.187-12.706C440.478,377.821,444.152,383.256,444.909,390.746Z" transform="translate(361.322 283.588)" fill="#a8a8a8" opacity="0.5"/>
      <path id="Path_352" data-name="Path 352" d="M432.154,369.593c.025,9.605-4.032,15.007-12.218,15.04-7.01.029-12.662-3.142-12.777-11.823-.12-9.227,4.11-14.4,12.5-14.2C427.567,358.8,431.429,363.332,432.154,369.593Z" transform="translate(346.474 265.899)" fill="#a8a8a8" opacity="0.5"/>
      <path id="Path_353" data-name="Path 353" d="M440.3,383.611c-4.947-.061-10.19-3.218-11.036-11.152a12.531,12.531,0,0,1,12.136-13.85c7.948-.013,13.4,3.615,14.353,11.871C456.573,377.576,450.471,383.44,440.3,383.611Z" transform="translate(375.47 265.956)" fill="#a8a8a8" opacity="0.5"/>
      <path id="Path_354" data-name="Path 354" d="M430.727,364.673c-8.649.351-13.291-4.659-13.318-12.479-.025-7.8,4.526-12.683,13.217-12.647,8.22.036,12.024,4.787,12.941,12.035C444.468,358.683,438.309,364.544,430.727,364.673Z" transform="translate(359.988 248.338)" fill="#a8a8a8" opacity="0.5"/>
      <path id="Path_355" data-name="Path 355" d="M457.081,448.156c.034,8.287-5.736,14.666-13.484,13.816-7.433-.816-11.743-5.174-11.5-13.3.225-7.675,3.208-12.765,11.452-13.08A12.69,12.69,0,0,1,457.081,448.156Z" transform="translate(379.156 336.975)" fill="#a8a8a8" opacity="0.5"/>
      <path id="Path_356" data-name="Path 356" d="M454.885,416.5c9.227-.046,13.686,5.128,13.474,12.925-.213,7.824-4.983,12.5-13.629,12.226-8.236-.263-12.357-5.2-12.395-12.422C442.3,421.41,446.79,416.325,454.885,416.5Z" transform="translate(392.662 319.428)" fill="#a8a8a8" opacity="0.5"/>
      <path id="Path_357" data-name="Path 357" d="M397.261,428.282c.459-7.509,6.375-12.378,14.168-11.675,7.9.711,12.254,5.469,11.848,12.975-.425,7.835-4.8,12.685-13.654,12.01C401.215,440.95,396.764,436.4,397.261,428.282Z" transform="translate(333.507 319.471)" fill="#a8a8a8" opacity="0.5"/>
      <path id="Path_358" data-name="Path 358" d="M381.279,403.722c-6.663-5.694-11.4-12.026-4.722-20.572,4.88-6.242,13.217-6.474,19.443-.959a45.979,45.979,0,0,1,4.118,4.745C399.506,400.611,395.909,403.817,381.279,403.722Z" transform="translate(302.207 284.077)" fill="#a8a8a8" opacity="0.5"/>
      <path id="Path_359" data-name="Path 359" d="M352.322,430.052c-.055-9,5.1-13.476,12.883-13.272,7.811.2,12.479,4.98,12.216,13.646-.25,8.257-5.187,12.413-12.382,12.424C357.317,442.865,352.118,438.446,352.322,430.052Z" transform="translate(274.575 319.627)" fill="#a8a8a8" opacity="0.5"/>
      <path id="Path_360" data-name="Path 360" d="M434.206,448.543c.269,8.733-4.728,13.305-12.54,13.427-8.276.126-12.209-5.647-12.437-13.631-.25-8.9,5.63-12.561,13.206-12.668C430.332,435.559,433.8,441.026,434.206,448.543Z" transform="translate(349.182 337.066)" fill="#a8a8a8" opacity="0.5"/>
      <path id="Path_361" data-name="Path 361" d="M477.888,412.574c-.326,5.254-3.721,10.691-11.8,10.632-8.226-.061-12.937-5.161-12.924-13.373.011-7.645,4.282-12.544,12.1-13.105C472.526,396.206,478.016,402.38,477.888,412.574Z" transform="translate(406.784 301.057)" fill="#a8a8a8" opacity="0.5"/>
      <path id="Path_362" data-name="Path 362" d="M456.927,409.76c-1.174,8.314-5.633,12.912-13.919,12.956-7.446.038-13.574-6.48-12.54-13.778,1.066-7.513,5.862-12.2,13.612-11.654C451.4,397.8,456.29,401.98,456.927,409.76Z" transform="translate(376.983 301.619)" fill="#a8a8a8" opacity="0.5"/>
      <path id="Path_363" data-name="Path 363" d="M400.671,385.791c-5.439-.972-11.259-1.462-14.252-7.058-2.787-5.212-3.479-10.87,1-15.423,6-6.108,12.792-6,19.564-.907C411.684,372.042,410.048,379.965,400.671,385.791Z" transform="translate(316.383 265.883)" fill="#a8a8a8" opacity="0.5"/>
      <path id="Path_364" data-name="Path 364" d="M475.99,377.508c7.868.574,12.617,4.331,12.939,12.338.332,8.323-3.876,13.823-12.167,13.865-7.107.034-12.79-3.241-12.765-12.007C464.02,383.357,467.852,378.665,475.99,377.508Z" transform="translate(420.997 283.351)" fill="#a8a8a8" opacity="0.5"/>
      <path id="Path_365" data-name="Path 365" d="M452.682,339.631c8.575-.324,12.538,3.582,12.359,11.925-.179,8.413-4.036,13.248-12.674,13-7.852-.231-12.207-4.714-12.214-12.575C440.147,343.677,443.973,338.764,452.682,339.631Z" transform="translate(389.731 248.33)" fill="#a8a8a8" opacity="0.5"/>
      <path id="Path_366" data-name="Path 366" d="M363.346,409.961c-.757-8.926,4.423-12.458,12.554-12.355,7.8.1,12.327,4.552,12.275,12.382-.057,8.438-5.119,12.344-13.322,12.529C366.4,422.706,362.978,418.214,363.346,409.961Z" transform="translate(288.932 301.988)" fill="#a8a8a8" opacity="0.5"/>
      <path id="Path_367" data-name="Path 367" d="M421.2,397.555c8.581-.557,11.629,4.6,11.877,12.174.254,7.75-5.424,13.372-13.021,12.758-8.426-.681-11.94-5.877-11.875-14.029C408.251,399.7,413.427,397.149,421.2,397.555Z" transform="translate(347.806 301.898)" fill="#a8a8a8" opacity="0.5"/>
      <path id="Path_368" data-name="Path 368" d="M350.25,398.561h11.086c1.792,2.49,4.158,4.753,5.26,7.519,2.72,6.821,1.584,12.9-5.037,17.14-5.746,3.681-10.668,1.674-14.78-2.707-5.14-5.475-5.9-11.574-1.022-17.726A40.816,40.816,0,0,1,350.25,398.561Z" transform="translate(261.695 302.774)" fill="#a8a8a8" opacity="0.5"/>
      <path id="Path_369" data-name="Path 369" d="M430.44,441.55c-6.977.212-10.529-4.055-10.3-12.2.238-8.419,4.265-13.074,12.792-12.76,7.8.288,12.045,4.785,12.108,12.6C445.11,437.886,440.035,441.5,430.44,441.55Z" transform="translate(363.479 319.512)" fill="#a8a8a8" opacity="0.5"/>
      <path id="Path_370" data-name="Path 370" d="M395.848,346.88c-7.544-2.093-10.769-7.288-10.651-14.887,2.932-9.862,10.287-12.157,18.866-9.475,7.824,2.448,6.985,9.776,5.616,15.964C408.1,345.606,402.225,346.977,395.848,346.88Z" transform="translate(317.696 231.636)" fill="#a8a8a8" opacity="0.5"/>
      <path id="Path_371" data-name="Path 371" d="M489.846,431.632c-.335,4.827-4.213,10-12.765,9.782-7.9-.2-12.09-4.947-12.008-12.83.092-8.859,5.45-12.115,13.682-12.075C486.676,416.545,490.185,420.571,489.846,431.632Z" transform="translate(422.397 319.455)" fill="#a8a8a8" opacity="0.5"/>
      <path id="Path_372" data-name="Path 372" d="M477,370.333c-.042,8.085-3.569,12.771-11.74,13.177-8.346.414-13.251-4.225-13.175-12.5.074-8.034,4.158-12.292,12.205-12.409C472.286,358.488,476.539,362.532,477,370.333Z" transform="translate(405.377 265.952)" fill="#a8a8a8" opacity="0.5"/>
      <path id="Path_373" data-name="Path 373" d="M389.243,448.478c.33,8.121-4.078,12.155-10.99,13.11-5.431.751-14.092-8.663-13.909-14.308.255-7.774,5.239-11.728,12.079-11.391C383.743,436.248,390.019,439.6,389.243,448.478Z" transform="translate(290.336 337.285)" fill="#a8a8a8" opacity="0.5"/>
      <path id="Path_374" data-name="Path 374" d="M428.134,332.007c.845-5.62,2.1-10.992,9.475-11.33,8.642-.4,15.471,4.627,15.457,11.539-.017,7.725-3.7,12.954-11.629,13.059C433.228,345.381,429.015,340.216,428.134,332.007Z" transform="translate(373.974 230.908)" fill="#a8a8a8" opacity="0.5"/>
      <path id="Path_375" data-name="Path 375" d="M454.1,449.845c.078-8.83,5.8-14.74,13.135-14.268,4.917.318,10.106,1.119,11.057,7.309.568,3.683-12.853,16.431-16.856,15.747C456.307,457.756,454.25,453.713,454.1,449.845Z" transform="translate(407.977 337.165)" fill="#a8a8a8" opacity="0.5"/>
      <path id="Path_376" data-name="Path 376" d="M476.052,409.587c-.536-6.831,3.395-10.453,9.187-12.342,1.821-.6,4.749-.812,5.954.221,7.1,6.1.629,12.918.282,19.388-.166,3.138-1.8,7.267-6.886,5.445C478.635,420.167,475.4,416.131,476.052,409.587Z" transform="translate(436.253 301.131)" fill="#a8a8a8" opacity="0.5"/>
      <path id="Path_377" data-name="Path 377" d="M473.859,362.836c-7.99-.86-11.059-5.908-10.819-13.53.107-3.351-.5-7.448,4.295-8.161,3.512-.522,16.067,13.724,15.108,17.234C481.313,362.51,477.521,362.6,473.859,362.836Z" transform="translate(419.362 249.969)" fill="#a8a8a8" opacity="0.5"/>
      <path id="Path_378" data-name="Path 378" d="M415.5,470.227c-2.351-.488-5.744-1.087-9.08-1.92-2.741-.684-7.326.942-7.462-3.475-.137-4.44,2.949-7.929,7.467-8.8,5.511-1.056,11.231-1.39,14.9,4.274,1.462,2.255,3.418,4.7,1.781,7.628C421.692,470.479,418.939,469.882,415.5,470.227Z" transform="translate(335.712 356.092)" fill="#a8a8a8" opacity="0.5"/>
      <path id="Path_379" data-name="Path 379" d="M428.919,468.656c-3.439-.244-7.944.181-7.454-4.932.686-7.153,7.044-8.5,12.439-8.867,4.888-.334,9.854,1.9,10.626,7.856C444.891,465.506,435.91,468.747,428.919,468.656Z" transform="translate(365.077 355.611)" fill="#a8a8a8" opacity="0.5"/>
      <path id="Path_380" data-name="Path 380" d="M489.846,376.926c.217,3.376-1.228,5.555-4.726,5.206-7.675-.766-10.485-6.358-10.821-12.967-.208-4.1,1.609-8.421,6.314-9.646C483.29,358.823,489.86,371.516,489.846,376.926Z" transform="translate(433.843 266.892)" fill="#a8a8a8" opacity="0.5"/>
      <path id="Path_381" data-name="Path 381" d="M387.738,340.7c7.37.118,11.747,4.377,12.628,12.043.774,6.733-6.045,14.54-12.645,13.987-7.183-.6-12.691-4.114-13.267-12.226C373.926,347.1,379.705,341,387.738,340.7Z" transform="translate(303.6 249.362)" fill="#a8a8a8" opacity="0.5"/>
      <path id="Path_382" data-name="Path 382" d="M389.759,372.691c-.488,7.719-4.522,12.84-12.842,13.234-8.169.387-11.947-5.134-13.118-12.277-1.064-6.489,6.139-14.029,12.922-13.7C384.28,360.32,389.084,364.219,389.759,372.691Z" transform="translate(289.536 267.133)" fill="#a8a8a8" opacity="0.5"/>
      <path id="Path_383" data-name="Path 383" d="M365.687,379.6c7.936.3,12.34,4.3,12.35,12.363.013,8.016-4.223,12.365-12.245,12.382-7.984.017-12.323-4.232-12.361-12.275S357.72,379.948,365.687,379.6Z" transform="translate(276.014 285.363)" fill="#a8a8a8" opacity="0.5"/>
      <path id="Path_384" data-name="Path 384" d="M375.542,351.939c-.469,7.639-3.872,12.937-11.778,13.551-4.678.364-9.3-1.184-9.946-6.962-.541-4.884,9.963-16.883,14.363-16.466C374.043,342.619,374.629,347.507,375.542,351.939Z" transform="translate(276.37 250.732)" fill="#a8a8a8" opacity="0.5"/>
      <path id="Path_385" data-name="Path 385" d="M363.425,370.929c-.013,8.636-5.542,14.485-12.685,14.149-3.767-.177-6.741-1.159-6.745-5.923,0-7.452,6.261-18.441,11-18.263C361.791,361.149,363.168,366.117,363.425,370.929Z" transform="translate(263.428 268.105)" fill="#a8a8a8" opacity="0.5"/>
      <path id="Path_386" data-name="Path 386" d="M414.448,220.32a59.119,59.119,0,0,1,5.275,3.876c10.251,9.475,20.547,18.9,30.626,28.562q29.495,28.268,58.717,56.828c2.45,2.4,7.687,5.084,3.832,9.244-4.341,4.684-7.467-.6-10.22-3.271q-43.973-42.714-87.754-85.628c-1.885-1.842-5.067-3.216-3.6-6.724C411.779,222.116,413.2,221.428,414.448,220.32Z" transform="translate(356.188 136.002)" fill="#f8f8f8" opacity="0.5"/>
    </g>
    <g id="Group_83" data-name="Group 83">
      <g id="Group_82" data-name="Group 82">
        <line id="Line_10" data-name="Line 10" y1="789" x2="789" transform="translate(1131 291)" fill="none" stroke="#000" stroke-linecap="round" stroke-width="2" opacity="0.503"/>
        <line id="Line_11" data-name="Line 11" y1="690" x2="690" transform="translate(1230 390)" fill="none" stroke="#000" stroke-linecap="round" stroke-width="2" opacity="0.4"/>
        <path id="Path_114" data-name="Path 114" d="M0,625,625,0" transform="translate(1295 455)" fill="none" stroke="#000" stroke-linecap="round" stroke-width="2" opacity="0.3"/>
        <line id="Line_12" data-name="Line 12" y1="586" x2="586" transform="translate(1334 494)" fill="none" stroke="#000" stroke-linecap="round" stroke-width="2" opacity="0.2"/>
      </g>
      <g id="Layer_2" data-name="Layer 2" transform="translate(1379.092 134.498)">
        <g id="Objects" transform="translate(0.499 0.502)">
          <path id="Path_102" data-name="Path 102" d="M78.882,272.775c0,23.529-3.235,58.838,23.712,55.969,28.748-3.052,13.123-66.589,10.59-76.721a83.983,83.983,0,0,0-7.172-17.273c3.387,24.414.61,56.213-9.155,61.188C89.044,299.9,82.544,283.7,78.882,272.775Z" transform="translate(160.075 480.118)" fill="#231f20" stroke="#231f20" stroke-linecap="round" stroke-linejoin="round" stroke-miterlimit="10" stroke-width="2"/>
          <path id="Path_103" data-name="Path 103" d="M172.726,193.053c-5.554,38.483-41.931,117.187-37.323,130.8s22.125,34.821,23.407,51.483,5.829,78.217,11.414,88.318l.4.763c-2.441,9.155-9.155,21.606-23.59,24.963-12.451-49.53-46.57-152.893-46.967-162.475-.488-11.6-7.05-132.233-7.05-132.233s-4.059,90.851-7.568,129.181c0,0,11.078,22.705,11.6,43.915.427,17.944-5.31,63.629-.366,90.424a62.561,62.561,0,0,1-30.212-1.343c5.157-32.043-3.052-76.294-12.817-118.866-15.656-67.139-13.428-196.96,6.409-222.351,0,0,26.794,52.7,103.058,12.512h0S178.28,154.815,172.726,193.053Z" transform="translate(87.41 235.713)" fill="#231f20" stroke="#231f20" stroke-linecap="round" stroke-linejoin="round" stroke-miterlimit="10" stroke-width="2"/>
          <path id="Path_104" data-name="Path 104" d="M34.458,281.676c12.6,5.554,66.589-4.517,80.749-11.078,13.062-6.1,16.6-18.311,8.362-37.018a103.362,103.362,0,0,1-22.614,19.592c-19.44,12.878-31.952,6.714-37.689,1.953l-.549.305C24.357,276.152,34.458,281.676,34.458,281.676Z" transform="translate(66.711 477.718)" fill="#231f20" stroke="#231f20" stroke-linecap="round" stroke-linejoin="round" stroke-miterlimit="10" stroke-width="2"/>
          <path id="Path_105" data-name="Path 105" d="M43.09,267.754c5.737,4.761,18.311,10.925,37.689-1.953a103.362,103.362,0,0,0,22.614-19.623h0c-.7-1.556-1.465-3.052-2.319-4.852A47.27,47.27,0,0,1,97.2,228.813a62.257,62.257,0,0,1-30.212-1.373C64.178,245.751,56.823,260.094,43.09,267.754Z" transform="translate(86.888 465.12)" fill="#fff" stroke="#231f20" stroke-linecap="round" stroke-linejoin="round" stroke-miterlimit="10" stroke-width="2"/>
          <path id="Path_106" data-name="Path 106" d="M77.31,254.9a132.967,132.967,0,0,1,4.517,23.224c0,1.465,0,3.052,0,4.578,3.51,10.925,10.162,27.13,17.944,23.163,9.8-4.974,12.573-36.621,9.155-61.188-2.625-5.1-5.554-10.193-8.057-14.771C98.489,238.913,91.623,251.547,77.31,254.9Z" transform="translate(157.099 470.188)" fill="#fff" stroke="#231f20" stroke-linecap="round" stroke-linejoin="round" stroke-miterlimit="10" stroke-width="2"/>
          <path id="Path_107" data-name="Path 107" d="M257.956,232.424a55.847,55.847,0,0,1-32.806,11.719,80.777,80.777,0,0,0-3.662-11.871,366.7,366.7,0,0,1-13.336-39.795c-18.311,34.454-4.089,78.766-4.089,78.766h0C127.769,311.434,101,258.73,101,258.73s15.625-43.732,5.89-59.357a93.536,93.536,0,0,1-13.977-52.216,104.4,104.4,0,0,1,2.869-19.9l-1.038-.183C64.231,108.767,38.322,82.8,23.49,66.927A91.553,91.553,0,0,0,45.249,45.87c9.4,9.735,31.128,28.2,56.091,33.447a87.434,87.434,0,0,1,14.1,4.059,4.7,4.7,0,0,1,1.4-.244c4.578,0,13.824.427,23.987,1.251.458.793.977,1.587,1.5,2.38A40.893,40.893,0,0,0,154.532,87.8c2.686,9.7,5.371,19.775,5.371,19.775a38.666,38.666,0,0,0,4.73.61,32.257,32.257,0,0,0,24.9-10.284v-.214c7.629,5.035,17.7,11.841,24.994,17.4,2.533,1.923,4.73,3.693,6.409,5.188a23.59,23.59,0,0,1,7.05,12.573,38.635,38.635,0,0,1,6.836,13.123C239.8,162.05,251.731,205.538,257.956,232.424Z" transform="translate(46.674 92.583)" fill="#fff" stroke="#231f20" stroke-linecap="round" stroke-linejoin="round" stroke-miterlimit="10" stroke-width="2"/>
          <path id="Path_108" data-name="Path 108" d="M121.27,261.022c-15.9,13.336-28.076-11.6-31.464-21.912-3.052-9.43,10.1-77.82.244-120.27A55.847,55.847,0,0,0,122.857,107c.641,2.747,1.221,5.371,1.74,7.721,5.463,25.574-10.925,94.6-10.071,106.476S137.139,247.717,121.27,261.022Z" transform="translate(181.773 218.006)" fill="#fff" stroke="#231f20" stroke-linecap="round" stroke-linejoin="round" stroke-miterlimit="10" stroke-width="2"/>
          <path id="Path_109" data-name="Path 109" d="M92.208,138.985a91.552,91.552,0,0,1-21.759,21.057c-6.1-6.592-10.376-11.444-12.36-13.245-6.744-6.226-37.75-77.637-37.75-77.637S14.785,59.7,4.317,42.885,7.308,3.7,15.914.71,30.837,27.962,30.837,27.962,32.546,14.9,41.7,10.414s-3.723,41.443-3.052,47.394S82.717,128,87.935,134.346C88.82,135.414,90.255,137.032,92.208,138.985Z" transform="translate(-0.499 -0.502)" fill="#fff" stroke="#231f20" stroke-linecap="round" stroke-linejoin="round" stroke-miterlimit="10" stroke-width="2"/>
          <path id="Path_110" data-name="Path 110" d="M60.706,33.786a3.1,3.1,0,0,0-.336-.916h0a9.152,9.152,0,0,1,.336.916Z" transform="translate(122.342 65.91)" fill="#fff" stroke="#231f20" stroke-linecap="round" stroke-linejoin="round" stroke-miterlimit="10" stroke-width="2"/>
          <path id="Path_111" data-name="Path 111" d="M60.706,33.786a3.1,3.1,0,0,0-.336-.916h0a9.152,9.152,0,0,1,.336.916Z" transform="translate(122.342 65.91)" fill="#fff" stroke="#231f20" stroke-linecap="round" stroke-linejoin="round" stroke-miterlimit="10" stroke-width="2"/>
          <path id="Path_112" data-name="Path 112" d="M139.967,160.387c-7.294-5.554-17.365-12.207-24.994-17.4l-.458-31.311-.183-12.665c5.035-2.625,10.895-8.606,10.437-14.13a7.66,7.66,0,0,0-2.716-5.157,6.592,6.592,0,0,0-7.355-1.587c-4.7,1.923-8.484,8.728-10.04,11.993h0a31.553,31.553,0,0,1-4.578-.336,37.752,37.752,0,0,1-6.348-1.282C75.728,83.025,66.023,65.722,62.056,53a.58.58,0,0,0,0-.275.427.427,0,0,0,0-.183,9.157,9.157,0,0,0-.275-.977h0c-1.587-4.547-5.646-19.1,6.1-23.529,13-4.913,33.569-6.989,46.967,1.77h0c9.674-3.052,24.048-5.829,30.365,8.82C151.96,54.674,149.946,91.784,139.967,160.387Z" transform="translate(121.175 47.279)" fill="#231f20" stroke="#231f20" stroke-linecap="round" stroke-linejoin="round" stroke-miterlimit="10" stroke-width="2"/>
          <path id="Path_113" data-name="Path 113" d="M117.872,80.386l.183,12.665.458,31.311v.214a32.257,32.257,0,0,1-24.9,10.284,38.67,38.67,0,0,1-4.73-.61s-2.686-10.071-5.371-19.775A40.893,40.893,0,0,1,71.3,113.436c-.519-.793-1.038-1.587-1.5-2.38C51.191,80.538,58.79,48.281,65.107,32.87c.153.366.244.671.336.916a.427.427,0,0,1,0,.183.58.58,0,0,1,0,.275c4.12,12.726,13.763,30.029,31.83,35.645a37.75,37.75,0,0,0,6.348,1.4,31.555,31.555,0,0,0,4.547.336h0c1.556-3.265,5.341-10.071,10.04-11.993a6.592,6.592,0,0,1,7.355,1.587,7.66,7.66,0,0,1,2.716,5.157C128.767,71.78,122.907,77.761,117.872,80.386Z" transform="translate(117.636 65.91)" fill="#fff" stroke="#231f20" stroke-linecap="round" stroke-linejoin="round" stroke-miterlimit="10" stroke-width="2"/>
        </g>
      </g>
    </g>
  </g>
</svg>
