<svg xmlns="http://www.w3.org/2000/svg" width="1920" height="1080" viewBox="0 0 1920 1080">
  <g id="Group_431" data-name="Group 431" transform="translate(45.885 -686.166)">
    <path id="Path_2188" data-name="Path 2188" d="M426.412,686.254H652c1.635,2.027.787,4.125.058,6.134a99.886,99.886,0,0,0-5.257,24.763c-.861,9.046.986,17.829,2.985,26.574,3.143,13.749,8.614,26.869,10.991,40.83a59.711,59.711,0,0,1,.346,17.85,29.748,29.748,0,0,1-8.432,17.667c-7.012,6.933-14.891,12.577-24.195,16.066-2.934-.019-4.852-1.876-6.784-3.731-8.483-8.144-14.921-17.794-20.618-27.981-5.68-10.155-10.455-20.75-15.333-31.3-6.97-15.078-15.422-29.243-29.505-38.806-18.672-12.678-39.084-16.692-61.3-11.291-12.465,3.03-24.481,7.468-36.834,10.827-9.212,2.506-18.488,4.361-28.036,3.629-5.705-.437-8.945,1.828-11.123,6.959a77.992,77.992,0,0,1-27.8,34.495c-22.3,15.275-46.451,19-72.005,8.893-7.5-2.969-13.581-8.273-19.4-13.777-7.24-6.844-13.614-14.6-21.6-20.656-12.921-9.789-25.384-10.086-38.705-1.093-9.046,6.107-16.37,14.045-23.562,22.107-7.67,8.6-15.833,16.652-26.023,22.221-17.338,9.476-35.614,9.711-54.215,4.648a81.384,81.384,0,0,1-39.784-24.494,19.039,19.039,0,0,1-4-5.651,3.147,3.147,0,0,1,.151-1.566c6.409-10.008,18.95-14.837,32.355-12.5a98.486,98.486,0,0,1,18.546,5.663c7.959,3.082,16,5.32,24.709,4.869,10.169-.527,17.119-5.417,19.435-15.364,4.884-20.97,1.863-40.822-9.525-59.252-1.284-2.078-3.267-3.955-1.668-6.733H360.532a13.889,13.889,0,0,1,5.921,5.814c10.8,18.157,27.652,28.678,46.567,36.485,4.5,1.857,6.348.78,7.641-4.021A102.35,102.35,0,0,0,424,694.468C423.9,691.525,423.577,688.392,426.412,686.254Z" transform="translate(1170)" fill="#f2f2f2"/>
    <path id="Path_2189" data-name="Path 2189" d="M475.324,1185.86H223.78c-2.446-2.134-1.126-4.58-.5-6.908a90.214,90.214,0,0,0,1.869-39.885c-2.779-15.235-9.713-27.788-24.77-34.344-5.406-2.354-11.153-3.083-16.945-3.638-1.469.055-2.826-.164-3.745-1.485-.784-3.906,2.461-4.264,4.779-5.037a112.844,112.844,0,0,1,28.218-5.636c10.566-.7,21.177-.652,31.723,1.217,17.959,3.183,32.535,11.8,43.681,26.218,1.013,1.31,2.153,2.519,3.211,3.787a205.931,205.931,0,0,0,20.65,29.134,58.574,58.574,0,0,0,15.585,12.31c18.4,10.445,37.082,10.225,55.96,1.5,15.2-7.026,26.921-18.135,36.54-31.6,2.7-3.784,5.217-7.689,8.838-10.717a6.876,6.876,0,0,1,1.634-.27,59.163,59.163,0,0,1,12.363-.941c22.706.026,45.414-.033,68.12.051a21.152,21.152,0,0,0,13.412-4.175,66.975,66.975,0,0,1,19.694-10.356c13.615-6.445,28.168-9.611,42.865-12.342,23.376-4.345,46.191-.255,68.979,4.381a8.3,8.3,0,0,1,4.41,2.161c1.211,1.633.517,3.159-.3,4.641-9.748,17.614-23.335,30.378-44.12,32.955-11.551,1.432-23.157,2.525-34.706,4.023-5.506.714-10.834,2.451-16.352,3.263-1.448.213-2.709.681-4.073-.04-1.529-1.254-1.784-3.077-2.236-4.854-1.64-6.449-3.123-7.689-9.6-7.759-8.473-.091-16.948-.118-25.419.009-8.447.126-12.209,4.716-11.291,13.227.561,5.194,3.647,9.17,6.029,13.506.547,2.464-1.115,3.469-2.91,4.365a264.452,264.452,0,0,0-32.713,19.591C480.384,1183.784,477.643,1184.393,475.324,1185.86Z" transform="translate(1170 580)" fill="#eee"/>
    <path id="Path_2190" data-name="Path 2190" d="M703.908,867.747V973.452c-3.255,11.992-7.162,23.794-10.467,35.771-.873,3.166-1.538,6.4-3.3,9.245a3.112,3.112,0,0,1-1.414.81c-4.848-.12-8.152-3.563-11.939-5.8-17.343-10.235-36.369-16.237-55.325-22.453-7.613-2.5-14.932-5.568-21.468-10.34-12.769-9.324-15.923-21.835-8.7-35.882a45.588,45.588,0,0,1,12.472-15.361,89.315,89.315,0,0,1,7.121-5.452c3.208-2.019,4.464-4.749,3.3-8.493A94.27,94.27,0,0,1,610,890.01c-.453-17.945,1.359-35.53,11.934-50.978,1.44-2.1,2.89-4.155,5.922-3.692a7.409,7.409,0,0,1,5.458,1.871c19.107,15.568,40.774,25.053,65.466,27.171C701.264,864.595,702.654,865.94,703.908,867.747Z" transform="translate(1170 273.684)" fill="#f2f2f2"/>
    <path id="Path_2191" data-name="Path 2191" d="M93.018,770.02c0,.33,0,.66,0,.99a7.155,7.155,0,0,1-1.535,5.11c-8.009,10.716-11.927,23.13-15.1,35.883-2.994,12.043-5.948,24.111-12.158,35.051-2.456,4.326-5,8.577-8.641,12.051C54,860.613,52.364,861.977,50,861.958c-2.87-.577-3.062-3.216-4.051-5.25-7.855-16.16-16.776-31.739-25.772-47.278C7.333,787.243-5.469,765.056-16.2,741.7A225.047,225.047,0,0,1-31.55,696.042c-.705-3.2-2.513-6.786.793-9.788H62.074c2.678,2.059,2.814,5.214,3.218,8.1a177.866,177.866,0,0,0,14.629,50.506,133.9,133.9,0,0,0,11.47,19.219C92.643,765.907,93.817,767.672,93.018,770.02Z" fill="#f4f4f4"/>
    <path id="Path_2192" data-name="Path 2192" d="M703.908,867.747c-6.371-.931-12.81-1.539-19.1-2.852a119.6,119.6,0,0,1-56.743-29.062q-.459-.33-.306-.66t.307-.33c5.984-3.9,12.189-7.5,17.907-11.755,12.637-9.4,14.654-22.685,12.471-37.1-2.273-15.01-8.2-29.078-11.705-43.79A85.16,85.16,0,0,1,652,686.254c16.137,0,32.275.1,48.411-.087,2.983-.035,3.582.6,3.577,3.577Q703.824,778.746,703.908,867.747Z" transform="translate(1170)" fill="#ebebeb"/>
    <path id="Path_2193" data-name="Path 2193" d="M93.018,770.02c-19.585-24.5-28.2-53.053-30.944-83.766H175.867c12.151,15.1,16.28,32.779,15.835,51.631-.2,8.542-.839,17.354-6.726,24.466-8.181,9.884-19.194,8.349-29.916,6.837-6.912-.975-13.3-4.116-19.794-6.6C119.609,756.582,105.368,757.709,93.018,770.02Z" fill="#ebebeb"/>
    <path id="Path_2194" data-name="Path 2194" d="M-30.757,686.254c3.312,21.714,10.631,42.133,19.993,61.9,13.247,27.972,29.792,54.122,44.8,81.123,5.725,10.3,11.431,20.63,16.078,31.49,2.9.411,4.032,2.644,5.059,4.946,12.412,27.813,19.326,56.729,17.258,87.379a102.22,102.22,0,0,1-4.817,24.827c-.695,2.132-1.21,4.634-4.166,4.978-2.551-.83-2.619-3.606-4.126-5.254a6.512,6.512,0,0,1,.087-4.383c7.8-27.208,4.228-53.84-4.035-80.244C52.4,883.51,48.638,874.3,44.833,865.113c-14.905-31.312-33.6-60.594-49.274-91.492-4.416-8.7-8.672-17.512-12.418-26.547,12.3,29.314,29.352,56.2,43.255,84.693,5.678,11.636,11.318,23.281,15.755,35.473,12.4,28.121,18.084,57.2,12.248,87.82-.677,3.55-.532,7.782-4.577,9.916-2.785-.172-3.481-2.785-5.088-4.338-.536-5.377,1.374-10.458,2.062-15.685,2.479-18.85-.541-37.008-6.091-54.922-2.111-6.815-4.672-13.477-6.981-20.219C23.166,845.6,10.9,822.224-.873,798.6-11.647,776.98-21.339,754.866-28.1,732.946a411.418,411.418,0,0,0,16.586,42.726C1.379,804.146,15.35,832.143,26.713,861.3c1.262,3.24,2.075,6.64,3.623,9.776,7.153,18.609,11.344,37.721,10.271,57.8-.471,8.817-1.616,17.47-4.571,25.82-1.5,7.409-5.1,13.978-8.626,20.522-8.535,15.847-19.456,30-31.453,43.363-6.368,7.535-12.726,15.081-19.216,22.515-5.635,6.454-11.433,12.763-17,19.275-1.354,1.582-2.921,3.4-5.467,1.829v-5.984c2.385-9.07,9.859-14.5,15.463-21.2,13.929-16.645,28.887-32.445,41.047-50.522,6.78-10.08,12.876-20.512,16.235-32.307a18.925,18.925,0,0,1,1.551-3.1c1.137-7.347,2.863-14.582,3.132-22.072.681-18.9-3.96-36.722-10.611-54.165-4.4-12.522-9.715-24.677-15.128-36.779C-4.649,812.356-16,788.943-24.636,764.4c-4.768-13.544-9.208-27.231-11.212-38.447a260.886,260.886,0,0,0,8.534,30.208c12.882,37.367,29.059,73.464,42.586,110.581a20.825,20.825,0,0,1,1.526,4.728c4.2,12.061,7.422,24.318,8.283,37.136a85.266,85.266,0,0,1-4.748,35.539c-5.226,18.847-16.239,34.379-28.351,49.28-9.538,11.734-20.021,22.635-30.057,33.929-1.867,2.1-3.526,5.744-7.655,3.935v-5.983c2.305-8.142,9.065-13.025,14.251-18.963,12.887-14.758,25.934-29.34,35.521-46.606,3.314-5.968,5.758-12.3,8.429-18.549,1.023-6.723,2.8-13.275,3.418-20.107,1.128-12.5-1.221-24.432-4.573-36.286-1.263-4.47-3-8.8-4.327-13.25C1.856,856.272-4.386,841.416-10.35,826.463c-10.429-26.15-21.081-52.213-27.364-79.76-2.417-10.6-4.811-21.226-5.522-32.127-.088-1.348-.656-2.567-.8-3.886,1.473,9.877,2.854,19.754,4.942,29.543,3.894,18.258,9.646,35.966,15.2,53.737,7.436,23.79,16.524,47.011,24.522,70.609a22.53,22.53,0,0,1,1.483,5.266,106,106,0,0,1,7.561,40.131c-.126,9.707-2.28,18.978-5.265,28.117-9.166,24.252-25.582,43.4-43.513,61.464-1.709,1.722-3.273,4.591-6.621,2.815v-5.984c3.878-8.85,11.376-14.9,17.351-22.1A167.31,167.31,0,0,0-4.4,936.153c.634-3.936,2.113-7.638,3.09-11.48,4.02-15.811,1.363-31.134-3.154-46.344-1.081-3.637-2.572-7.149-3.344-10.881-4.214-11.309-8.424-22.619-12.428-34-8.41-23.908-16.892-47.8-22.534-72.564-1.782-7.824-1.643-15.887-2.958-23.769,0-15.955.064-31.911-.067-47.866-.02-2.5.55-3.209,3.065-3.056C-38.754,686.431-34.75,686.254-30.757,686.254Z" fill="#e3e3e3"/>
    <path id="Path_2195" data-name="Path 2195" d="M94.016,1185.86H43.109c-2.912-2.327-2.405-5.658-2.423-8.739-.107-18.072-.044-36.143-.049-54.215q-.009-40.785-.016-81.57c-.006-5.783.1-11.56.415-17.325-1.329-2.126-.759-3.931.587-5.936,6.135-9.144,12.418-18.2,16.447-28.582a4.527,4.527,0,0,1,4.523-3.184c2.783.415,3.572,2.8,4.514,4.845a86.17,86.17,0,0,1,7.66,41.054c-.648,12.792-3.55,25.255-4.8,37.946-1.079,10.965-.49,21.557,6.253,30.921a30.706,30.706,0,0,0,14.59,10.78c2.371.892,4.739,1.8,4.877,4.919a17.312,17.312,0,0,1,.723,4.895q.2,28.736,0,57.47C96.394,1181.631,96.284,1184.143,94.016,1185.86Z" transform="translate(0 580)" fill="#e7e7e7"/>
    <path id="Path_2196" data-name="Path 2196" d="M42.11,1022.315c1.227,2.668.994,5.514.994,8.325q.009,77.61.005,155.22H7.174c-1.913-1.463-2.344-3.55-2.355-5.767-.169-35.862-.244-71.724.037-107.586.009-1.157.458-2.286.251-3.448-1.315-2.545-.568-4.464,1.267-6.659,9.942-11.891,20.056-23.644,29.393-36.036C37.232,1024.419,38.139,1020.705,42.11,1022.315Z" transform="translate(0 580)" fill="#eaeaea"/>
    <path id="Path_2197" data-name="Path 2197" d="M6.174,1067.19c1.362,2.288.986,4.826.987,7.288q.027,55.69.013,111.382H-35.748a7.166,7.166,0,0,1-3.214-4.9c-4.706-24.024-.962-46.751,10.131-68.433,7.94-15.519,18.451-29.284,29.194-42.887C1.725,1067.915,3.291,1065.742,6.174,1067.19Z" transform="translate(0 580)" fill="#ececec"/>
    <path id="Path_2198" data-name="Path 2198" d="M183.861,1099.145c22.788-.146,40.148,15.324,43.82,39.25,2.472,16.106,1.535,31.983-3.9,47.465H183.853c-2.106-1.589-2.365-3.9-2.38-6.262q-.233-37.1,0-74.209C181.489,1103.037,181.7,1100.7,183.861,1099.145Z" transform="translate(378.533 580)" fill="#d6d6d6"/>
    <path id="Path_2199" data-name="Path 2199" d="M524.235,1185.86H503.273c-1.093-3.036,1.817-3.872,3.263-4.518,8.842-3.95,17.346-8.767,26.855-11.1,1.337-.329,2.213-1.386,3.4-1.927a8.323,8.323,0,0,1,3.036-.5c2.44.638,4.566,2.071,7.36,1.9,4.785-.284,7.5-2.719,8.93-7.033a3.31,3.31,0,0,1,1.946-1.142,357.721,357.721,0,0,1,41.776-10.012c11-2.045,22.088-3.512,33.125-5.319,15.835-2.592,27.814-10.946,36.692-23.992,4.862-7.145,9.71-14.341,12.069-22.825,7.121-12.912,10.53-27.178,14.955-41.07,1.339-4.2,2.316-8.523,3.8-12.681.566-1.588.759-3.818,3.433-3.382v48.864c-3.071,12.024-8.259,23.157-14.516,33.8-8.538,14.522-19.845,25.9-36.731,30.205-9.272,2.362-18.747,3.909-28.14,5.764-26.89,5.311-53.608,11.283-79.856,19.251C537.9,1182.2,531.034,1183.914,524.235,1185.86Z" transform="translate(1170 580)" fill="#efefef"/>
    <path id="Path_2200" data-name="Path 2200" d="M-39.741,1185.86c-5.12,1.126-6.2-.858-6.142-5.986.325-27.253.153-54.512.153-81.77,3.461-10.891,11.353-18.946,18.251-27.492,16.541-20.5,34.378-39.929,50.435-60.832,1.562-2.034,3.17-3.331,5.826-2.878,3.261.533,3.376,3.07,3.7,5.583.736,5.761-.985,11.466-.305,17.211-2.528,5.89-7.161,10.265-11.121,15.1C4.839,1064.6-12.266,1083.7-25.3,1105.947c-11.734,20.032-17.041,41.5-15.391,64.623a57.376,57.376,0,0,0,1.5,9.037C-38.67,1181.788-38.432,1183.873-39.741,1185.86Z" transform="translate(0 580)" fill="#ececec"/>
    <path id="Path_2201" data-name="Path 2201" d="M94.016,1185.86v-69.829c1.129-2.166,3.15-2.287,5.167-2.06,11.647,1.31,22.734-1.216,33.708-4.711,11.217-3.571,22.18-7.954,33.674-10.637,2.713-.633,5.515-1.523,8.11.464,1.988,3.182-.8,4.021-2.662,5.106-4.833,2.822-10.185,4.713-14.676,8.155-6.389,3.062-11.565,7.835-16.362,12.787-14.661,15.137-22.8,33.28-23.562,54.5-.086,2.4-.336,4.653-2.435,6.228Z" transform="translate(244.796 580)" fill="#e2e2e2"/>
    <path id="Path_2202" data-name="Path 2202" d="M155.9,1110.071c5.938-4.05,12.727-6.49,18.945-10.01,1.137-3.033,2.94-2.689,5.01-.987l4,.071q0,43.358-.008,86.715H155.9c-2.1-1.584-2.361-3.888-2.379-6.241-.161-20.526-.131-41.051-.027-61.576A15.235,15.235,0,0,1,155.9,1110.071Z" transform="translate(324.061 580)" fill="#d9d9d9"/>
    <path id="Path_2203" data-name="Path 2203" d="M155.9,1110.071v75.789H114.978C114.215,1152.833,128.659,1128,155.9,1110.071Z" transform="translate(265.394 580)" fill="#dcdcdc"/>
    <path id="Path_2204" data-name="Path 2204" d="M426.412,686.254c.3,14.107.065,28.14-3.917,41.876-1.16,4-2.873,5.792-7.057,4.148-23.45-9.217-43.8-22.115-54.906-46.024Z" transform="translate(695.16)" fill="#ebebeb"/>
    <path id="Path_2205" data-name="Path 2205" d="M-45.73,1031.291c8.7-7.457,15.695-16.536,23.338-24.975C-11.514,994.3-.919,981.988,7.226,967.851a133,133,0,0,0,10.949-23.337c4.793-1.369,9.16.816,11.937,5.972-5.466,19.982-17.135,36.435-29.846,52.286-14.713,18.347-30.538,35.741-46,53.449Z" transform="translate(0 385.7)" fill="#ececec"/>
    <path id="Path_2206" data-name="Path 2206" d="M703.908,1100.1V1134c-8.869,19.713-25.31,29.4-45.5,33.664-15.265,3.223-30.257,7.745-45.791,9.7-2.108.265-3.613,2.346-5.93,2.058-2,.165-3.979.659-6.02.659-5.628-2.661-11.669-1.263-17.515-1.705-3.443-.26-6.94-.058-9.857-2.384-1.863-4.789,2.651-4.438,4.671-4.95,8.7-2.206,17.473-4.185,26.262-6.046,14.872-3.15,29.814-5.959,44.714-8.971,17.994-3.636,30.566-14.557,39.767-30.028a240.015,240.015,0,0,0,11.284-22.392C700.743,1101.979,701.019,1099.484,703.908,1100.1Z" transform="translate(1170 580)" fill="#ececec"/>
    <path id="Path_2207" data-name="Path 2207" d="M703.908,983.425v47.866c-2.368,9.686-4.713,19.383-7.776,28.877-4.437,13.754-7.736,27.938-15.15,40.586a3.519,3.519,0,0,1-1.517.831c-5.083,2.233-10.228,2.905-15.5.636-2.211-2.408-.451-4.4.6-6.549,11.824-24.106,18.949-49.8,25.628-75.65,3.562-10.37,5.74-21.157,9.436-31.484C700.4,986.385,700.263,983.262,703.908,983.425Z" transform="translate(1170 453.95)" fill="#f6f6f6"/>
    <path id="Path_2208" data-name="Path 2208" d="M14.143,942.505c-3.859,12.91-10.662,24.283-18.562,35.038-12.5,17.012-26.852,32.437-41.311,47.765v-22.936C-26.892,984.907-10.445,965.63.235,941.966A38.782,38.782,0,0,1,2.2,938.549,8.6,8.6,0,0,1,14.143,942.505Z" transform="translate(0 353.656)" fill="#ededed"/>
    <path id="Path_2209" data-name="Path 2209" d="M691.934,1020.325c-1.919,11.336-5.658,22.191-8.982,33.139-4.976,16.388-10.653,32.534-18.945,47.622,1.869,2.589.232,4.654-.97,6.831-12.416,22.475-31.742,33.334-57.142,34.6-8.115.4-16.226,1.421-24.352,1.971-3.221.218-5.79,1.774-8.475,3.205a72.226,72.226,0,0,0-10.96,1.853,208.991,208.991,0,0,0-31.773,11.2c-2.986,1.329-6.52,1.495-8.945,4.049-9.086,3.958-17.469,9.21-25.837,14.429a55.682,55.682,0,0,1-14.24,6.635h-5.989c7.021-7.448,16.149-11.915,24.658-17.225,5.59-3.488,11.49-6.482,17.251-9.7.224-2.366,2.075-3.265,3.862-4.121a190.7,190.7,0,0,1,34.4-12.65,6.437,6.437,0,0,1,5.693.793c17.759-4.35,35.914-6.085,54.022-8.1,19.44-2.166,32.094-13.739,41.667-29.679,1.023-1.7,2.058-3.4,3.088-5.1-1.513-1.884-.81-3.727.114-5.557,11.2-22.161,17.505-46.031,24.4-69.7.757-2.6.872-5.759,4.433-6.505l.07.032C690.913,1017.6,691.574,1018.737,691.934,1020.325Z" transform="translate(1170 580)" fill="#e3e3e3"/>
    <path id="Path_2210" data-name="Path 2210" d="M-45.73,1062.2c6.912-6,12.182-13.5,18.423-20.128,7.487-7.95,14.363-16.475,21.5-24.751,2.987.629,3.146,3.021,3.332,5.373.378,4.783-.1,9.559-.137,14.329,1.057,2.306.115,4.14-1.382,5.866-12.885,14.847-25.946,29.551-37.111,45.79-1.128,1.642-2.566,2.631-4.629,1.443Z" transform="translate(0 450.161)" fill="#eee"/>
    <path id="Path_2211" data-name="Path 2211" d="M-39.741,1185.86c-5.9-23.052-3.739-45.468,5.716-67.167,9.189-21.089,23.259-38.99,37.775-56.563q12.047-14.583,24.064-29.19a13.076,13.076,0,0,0,1.321-2.646c8.617-17.358,22.015-32.058,28.252-50.744,1.13-.872,1.647-2.822,3.682-2.13a6.351,6.351,0,0,1,2.007,5.02c1.926,2.106.922,3.626-1,4.963-5.853,12.1-13,23.453-19.97,34.912-8.664,10.656-17.393,21.262-25.961,32-3.386,4.241-7.605,7.852-9.975,12.88-6.8,5.745-11.474,13.263-16.669,20.3-12.293,16.653-22.752,34.249-26.655,55.007a99.937,99.937,0,0,0,1.4,43.362Z" transform="translate(0 580)" fill="#e3e3e3"/>
    <path id="Path_2212" data-name="Path 2212" d="M-45.73,858.772V827.859c2.572-.354,3.129,1.74,3.567,3.366,4.445,16.485,11.124,32.291,14.826,49,4.248,19.178.242,36.849-9.709,53.417-2.739,4.56-4.574,4.846-8.684,1.916V916.611c2.144-9.993,5.948-19.75,4.687-30.244C-42.157,877.1-44.1,867.959-45.73,858.772Z" transform="translate(0 210.476)" fill="#fefefe"/>
    <path id="Path_2213" data-name="Path 2213" d="M641.023,1185.86h-1c-6.194-2.144-12.885-1.517-19.128-3.421-1.878-.573-3.988-.731-4.311-3.29.7-2.765,3.2-2.773,5.251-3.229,15.768-3.506,31.578-6.853,47.123-11.259,12.328-3.495,21.973-10.968,29.6-21.124,1.4-1.869,2.272-4.306,5.353-3.549v21.938c-3.171,5.71-8.629,8.448-14.343,10.648-14.67,5.647-29.64,10.272-45.307,12.27C643.1,1184.992,641.941,1185.005,641.023,1185.86Z" transform="translate(1170 580)" fill="#ececec"/>
    <path id="Path_2214" data-name="Path 2214" d="M-45.73,780.99V761.045c4.23.085,3.654,3.771,4.209,6.15,2.3,9.86,4.44,19.753,7.052,29.545,5.955,22.318,13.374,44.16,21.087,65.916-.524,2.677,1.265,4.7,1.994,7.017,6.953,22.128,8.011,44.073-2.047,65.666-3.884,10-10.022,18.652-16.5,27.063-3.237,4.2-6.923,8.046-10.321,12.127-1.376,1.653-2.9,3.415-5.47,1.915v-6.98c2.229-5.79,6.7-10.065,10.137-15.039,4.744-6.861,10.123-13.354,13.066-21.328C-12.433,913.358-13.24,893.168-20,872.73c-1.612-4.875-2.962-9.848-5.309-14.459.13-2.8-.9-5.242-1.8-7.875-7.3-21.325-15.756-42.352-18.076-65.067C-45.331,783.883-44.749,782.331-45.73,780.99Z" fill="#e3e3e3"/>
    <path id="Path_2215" data-name="Path 2215" d="M703.908,1100.1c-4.766,9.847-9,19.934-14.8,29.3-10.371,16.744-25.227,26.142-44.52,29.631-21.9,3.96-43.731,8.383-65.32,13.862-2.079.527-4.088,1.327-6.13,2-1.041,2.864-3.792,2.907-6.091,3.582a242.682,242.682,0,0,1-32.835,7.389h-9.982c1.119-2.509,3.652-2.709,5.8-3.408,32.281-10.518,65.339-17.933,98.6-24.547,7.819-1.554,15.666-3.005,23.412-4.868,19.36-4.658,30.091-19.01,38.992-35.26a194.2,194.2,0,0,0,9.9-22.289c.664-1.685,1.005-3.573,2.972-4.364Z" transform="translate(1170 580)" fill="#e3e3e3"/>
    <path id="Path_2216" data-name="Path 2216" d="M-15.82,862.76c-5.743-14.285-10.188-29.016-14.849-43.666A494.7,494.7,0,0,1-44.722,763.82a18.443,18.443,0,0,0-1.008-2.775V737.112c1.768,7.746,3.459,15.511,5.318,23.236C-32.4,793.646-20.279,825.619-8.8,857.8c1.058,2.965,1.982,5.977,2.968,8.967-2.126,2.836-4.447,1.5-6.5.07A12.76,12.76,0,0,1-15.82,862.76Z" fill="#f5f5f5"/>
    <path id="Path_2217" data-name="Path 2217" d="M-45.73,976.444A157.449,157.449,0,0,0-21.054,945.05c1.827-3.135,3.531-6.342,5.291-9.516,5.2-3.308,9.988-2.573,12.937,1.986C-8.043,951.511-16.254,963.7-25.87,974.949c-6.326,7.4-12.162,15.293-19.86,21.439Z" transform="translate(0 328.179)" fill="#ededed"/>
    <path id="Path_2218" data-name="Path 2218" d="M-45.73,1090.127c5.944-7.473,11.789-15.027,17.858-22.4,7.023-8.526,14.263-16.873,21.357-25.341a41.314,41.314,0,0,0,2.711-4.117c.557-3.628,2.865-6.252,5.081-8.948C11.492,1016.89,21.769,1004.5,30.006,990.6a29.933,29.933,0,0,0,2.873-5.782c4.2-6.983,8.67-13.827,10.843-21.817.4-1.229.95-2.311,2.417-2.513,2.1.516,2.869,2.015,2.966,4.01A3.171,3.171,0,0,1,50.8,967.08c-3.163,13.608-10.616,25.114-17.937,36.709-1.446,2.291-3.949,2.89-5.725,4.565-20.034,25.937-42.609,49.786-62.463,75.872-3.5,4.6-6.334,9.7-10.4,13.878Z" transform="translate(0 439.056)" fill="#e3e3e3"/>
    <path id="Path_2219" data-name="Path 2219" d="M-45.73,935.558c4.1.5,6.184-1.727,8.134-5.1,11.382-19.7,12.529-40.1,5.169-61.4-4.711-13.637-8.887-27.458-13.3-41.2V811.9c3.474-.437,3.51,2.52,4.133,4.509,2.284,7.285,4.289,14.656,6.369,22a44,44,0,0,0,3.313,8.845c.579,8.188,4.879,15.26,6.941,23.032,4.96,18.7,5.493,36.985-2.5,55.032-1.484,3.349-3.629,6.317-5.018,9.688a71.123,71.123,0,0,1-8.375,12.56c-1.25,1.546-2.477,3.2-4.859,1.947Z" transform="translate(0 201.444)" fill="#e3e3e3"/>
    <path id="Path_2220" data-name="Path 2220" d="M-34.726,847.829c-3.757-9.894-6.024-20.234-9.1-30.33-.575-1.883-1.263-3.731-1.9-5.6V780.99c3.381,11.974,6.607,23.995,10.184,35.912,4.1,13.67,8.516,27.248,12.8,40.866-3.981,1.5-5.684-1.576-7.82-3.846C-32.282,852.1-33.136,849.719-34.726,847.829Z" transform="translate(0 130.073)" fill="#f5f5f5"/>
    <path id="Path_2221" data-name="Path 2221" d="M703.908,1139.988c-8.8,12.432-19.307,22.662-34.621,26.654-6.089,1.587-12.147,3.309-18.276,4.724-11.292,2.6-22.625,5.029-33.941,7.528a3.52,3.52,0,0,1-1.289,1.134c-3.2.513-6.352.807-8.7-2.146,4.425-2.555,9.512-2.752,14.314-3.92,14.342-3.486,28.721-6.819,43.1-10.157,15.4-3.574,26.584-12.9,35.3-25.638,1.115-1.629,2.048-3.457,4.108-4.163Z" transform="translate(1170 580)" fill="#dcdcdc"/>
    <path id="Path_2222" data-name="Path 2222" d="M-45.73,949.519c4.6-4.3,7.29-10,10.984-14.958,5.817-3.226,10.149-3.218,13.987.025A106.938,106.938,0,0,1-45.73,969.464Z" transform="translate(0 308.352)" fill="#eee"/>
    <path id="Path_2223" data-name="Path 2223" d="M534.217,1185.86c12.676-4.718,25.553-8.724,38.926-10.971,9.26,1.553,18.776.733,27.959,3,.045,2.474-1.628,2.578-3.552,3.026-6.669,1.553-13.27,3.241-20.191,3.518-2,.08-4.367.008-6.21,1.426Z" transform="translate(1170 580)" fill="#f3f3f3"/>
    <path id="Path_2224" data-name="Path 2224" d="M694.925,1185.86H655c-.416-2.976,2.084-2.858,3.785-3.462,7.965-2.831,16.326-4.33,24.289-7.187,5.368-1.926,10.625-4.045,15.353-7.3,1.668-1.148,3.374-2.218,5.484-1v14.959C701.7,1184.956,697.624,1183.867,694.925,1185.86Z" transform="translate(1170 580)" fill="#ececec"/>
    <path id="Path_2225" data-name="Path 2225" d="M481.313,1185.86c12.285-8.817,24.992-16.921,38.93-22.939a10.75,10.75,0,0,1,11.7,4.708c.273,2.759-1.99,3.4-3.771,4.043-11.251,4.07-21.4,10.673-32.885,14.188Z" transform="translate(881.997 580)" fill="#ededed"/>
    <path id="Path_2226" data-name="Path 2226" d="M679.975,1100.111c8.806-20.549,14.756-42.034,20.863-63.469.581-2.038.752-4.308,3.07-5.351v10.969c-4.136,10.443-6.276,21.515-10.069,32.057-3.159,8.779-4.724,18.253-10.882,25.775A2.02,2.02,0,0,1,679.975,1100.111Z" transform="translate(1170 464.942)" fill="#e3e3e3"/>
    <path id="Path_2227" data-name="Path 2227" d="M703.908,1166.912c-10.919,8.117-23.745,11.627-36.582,15.114-4.156,1.129-8.412,1.938-12.329,3.834H641.023c1.022-2.211,3.257-2.02,5.108-2.519,14.065-3.8,28.266-7.079,41.952-12.228,5.851-2.2,10.224-6.7,15.825-9.187Z" transform="translate(1170 580)" fill="#dcdcdc"/>
    <path id="Path_2228" data-name="Path 2228" d="M-45.73,858.772c6.963,17.4,9.834,35.02,2.674,53.117a37.982,37.982,0,0,1-2.674,4.722V905.642a89.092,89.092,0,0,0,0-31.911Z" transform="translate(0 226.415)" fill="#e3e3e3"/>
    <path id="Path_2229" data-name="Path 2229" d="M616.078,1178.888q.5,0,.992.006c5.414,1.347,10.833,2.674,16.24,4.05,2.388.607,4.818,1.16,6.714,2.916h-52.9c-.144-2.948,2.293-2.718,4.065-3.271C599.288,1180.061,607.7,1179.552,616.078,1178.888Z" transform="translate(1170 580)" fill="#f3f3f3"/>
    <path id="Path_2230" data-name="Path 2230" d="M691.934,1020.325l-2.951-1.977c3.561-13.637,7.369-27.2,11.983-40.528.591-1.708.975-3.576,2.942-4.368v9.973C699.65,992.2,697.963,1001.808,695,1011,694,1014.117,692.958,1017.218,691.934,1020.325Z" transform="translate(1170 367.725)" fill="#dcdcdc"/>
    <path id="Path_2231" data-name="Path 2231" d="M495.287,1185.86c6.674-5.384,14.742-8.168,22.308-11.873,4.465-2.187,9.083-4.061,13.632-6.076a2.452,2.452,0,0,1,2.794-.7c1.537.357,3.1.686,3.215,2.719-6.509,2.781-13.067,5.454-19.509,8.38-4.949,2.247-10,4.347-14.454,7.55Z" transform="translate(894.246 580)" fill="#ddd"/>
    <path id="Path_2232" data-name="Path 2232" d="M616.078,1178.888c-8.032,2.779-16.58,3.3-24.708,5.654-1.425.412-2.834.877-4.25,1.318H571.149c1.827-2.359,4.649-2.325,7.182-2.928,7.563-1.8,15.374-2.485,22.771-5.042l5.98-.008Z" transform="translate(1170 580)" fill="#e3e3e3"/>
    <path id="Path_2233" data-name="Path 2233" d="M-45.73,873.731c3.795,10.637,4.11,21.274,0,31.911Z" transform="translate(0 232.409)" fill="#fefefe"/>
    <path id="Path_2234" data-name="Path 2234" d="M694.925,1185.86c2.152-3.223,5.529-3.692,8.983-3.989.755,3.413-.556,4.634-4,4.037A29.449,29.449,0,0,0,694.925,1185.86Z" transform="translate(1170 580)" fill="#dcdcdc"/>
    <path id="Path_2235" data-name="Path 2235" d="M84,1371.645q1.41-6.023,2.82-12.051c12.581-22.542,17.332-46.914,19.3-71.307,4.967-61.57-7.116-121.115-33.7-178.453-7.1-15.321-14.854-30.422-22.307-45.622,30.9-21.847,44.821-52.085,56.121-83.57,9.814-27.346,15.214-55.789,27.786-82.446,9.03-19.14,19.628-37.484,37.589-51.9,16.474,10.8,28.743,25.513,45.95,35.7,61.048,36.168,126.944,50.339,199.319,30.832,39.945-10.767,69.113-35.12,96.355-61.189,20.093-19.23,40.607-38.079,64.984-53.534,47.627-30.2,92.187-23.352,134.029,9.153,25.079,19.478,46.16,42.755,73.915,59.666,52.1,31.745,109.329,34.319,168.435,18.3,56.665-15.363,97.539-47.4,125.483-91.9,7.107-11.318,10.465-27.062,21.356-33.148,10.094-5.642,27.967-.692,42.388-1.1,36.25-1.029,70.183-11.172,104.235-20.466,34.587-9.439,69.181-19.9,105.713-20.313,86.832-.976,152.782,31.112,197.679,95.031,17.547,24.979,29.68,52.155,44.863,78.081,23.694,40.458,48.473,80.312,90.3,109.858q-.009,1.2,0,2.4c-19.869,15.666-29.536,36.188-35.712,57.841-13.334,46.756-11.836,93.373,5.7,139.214,3.429,8.966,1.571,13.615-7.841,18.514-28.174,14.671-52.488,32.852-64.271,60.363-12.363,28.875-3.749,51.733,25.226,69.979,17.272,10.879,36.561,18.028,56.642,24.022,38.6,11.52,78.077,20.83,115.3,35.795a593.348,593.348,0,0,1,77.259,37.292c-12.337,36.263-23.743,72.747-37.745,108.61-12.091,30.971-26.115,61.135-44.223,89.882-26.889-3.974-53.757-8.046-80.668-11.9-78.839-11.294-154.422.908-228.526,23.488-5.318,1.619-10.5,3.571-15.746,5.368-9.3-2.355-14.067-9.058-19.365-15.113-12.113-13.85-23.9-27.97-38.965-39.625-27.406-21.2-59.069-30.264-96.089-24.569-61.4,9.446-104.923,40.667-139.471,83.068-4.57,5.61-9.239,11.187-13.283,17.069a39.75,39.75,0,0,1-20.724,15.532l0-.007c-8.169,4.55-17.207,5.955-26.829,5.962q-171.83.109-343.663,0c-9.121,0-17.72-1.129-25.215-5.943-23.1-26.018-49.3-49.409-85.977-60.686-75.461-23.2-150.593-18.47-224.922,4.926-4.887.109-9.842-.08-14.183,2.394-16.324-.243-31.594,4.11-46.8,8.283-29.145,8-57.888,17.118-87.229,24.518-30.938,7.8-62.685,10.434-94.854,5.97-3.4-1.362-6.705-2.923-10.2-4.057-41.448-13.447-65-42.24-66.122-80.489-.966-32.9,8.254-64.782,12.7-97.141C117.086,1456.467,112.49,1412.229,84,1371.645Z" fill="#fcfcfc"/>
    <path id="Path_2236" data-name="Path 2236" d="M289.657,1122.043l139.749-.007c-9.389,15.294-20.543,28.981-36.011,38.567-15.216,9.43-31.576,13.911-49.483,10.051-14.668-3.162-26.669-11.021-36.2-22.385A191.279,191.279,0,0,1,289.657,1122.043Z" transform="translate(643.317 580)" fill="#f6f6f6"/>
    <path id="Path_2237" data-name="Path 2237" d="M429.407,1122.039c7.12-10.58,13.685-21.591,23.037-30.472,11.358-10.785,24.559-18.141,40.262-20.088,16.529-2.049,29.4,5.009,39.536,17.465,4.677,5.749,9.89,11.193,12.966,18.117-8.206,3.268-16.041,7.194-22.677,13.147-2.226,2-4.872,1.823-7.516,1.824Q472.211,1122.044,429.407,1122.039Z" transform="translate(876.842 580)" fill="#f4f4f4"/>
    <path id="Path_2238" data-name="Path 2238" d="M561.188,1142.96a306.742,306.742,0,0,0-43.955,15.978,20.951,20.951,0,0,1-5.539-25.61c1.667-3.522,4.843-3.989,7.909-4.112,7.292-.292,14.6-.161,21.9-.2,1.826-.009,3.652,0,5.478,0C559.454,1129.021,560.789,1130.331,561.188,1142.96Z" transform="translate(930.536 580)" fill="#e4e4e4"/>
    <path id="Path_2239" data-name="Path 2239" d="M49.068,967.483q.018-1.492.037-2.985c3.294-8.423,4.475-17.259,4.964-26.2,1.256-22.939-3.921-44.7-12.233-65.882-.719-1.832-1.16-3.774-1.731-5.665.736-3.535,2.645-4.731,6.018-3.016,6.687,11.073,10.137,23.432,13.814,35.645a151.846,151.846,0,0,1,6.115,51.181c-.428,9.177-2.788,18.005-4.983,26.86q-.995,1.525-1.987,3.053c-5.924.117-6.713-5.289-9.205-8.754A5.45,5.45,0,0,1,49.068,967.483Z" transform="translate(0 268.093)" fill="#fefefe"/>
    <path id="Path_2240" data-name="Path 2240" d="M35.124,986.416c-8.374,16.16-20.077,29.941-31.523,43.894-2.291,2.793-4.141,6.052-7.4,7.963-1.747-3.429-.848-7.114-.963-10.685-.11-3.454.015-6.91-1.036-10.262,12.628-15.14,24.972-30.481,33.668-48.349,2.171-4.462,4.189-9,6.278-13.5,4.414-2.106,8.247.419,10.067,6.63A106.114,106.114,0,0,1,35.124,986.416Z" transform="translate(0 374.038)" fill="#eaeaea"/>
    <path id="Path_2241" data-name="Path 2241" d="M43.121,962.47c-2.555-2.892-4.561-6.487-8.978-6.993,1.792-10.909,4.267-21.665,4.107-32.9a133.729,133.729,0,0,0-6.627-39.96c-1.281-3.923-3.024-7.719-3.5-11.883,1.456-3.738,4.03-3.6,7.017-2.017,5.42,10.189,8.523,21.211,11.231,32.315,4.828,19.8,5.592,39.658-.236,59.452L45.1,963.455C43.981,964.042,43.477,963.4,43.121,962.47Z" transform="translate(0 260.584)" fill="#fefefe"/>
    <path id="Path_2242" data-name="Path 2242" d="M.151,869.748c-3.837-10.428-7.794-20.813-11.488-31.291C-20.5,812.467-29.8,786.52-36.353,759.7a368.839,368.839,0,0,1-8.243-49.03,13.3,13.3,0,0,1,.475-6.792c4.3,41.506,19.309,79.289,34.307,117.1,6.546,16.5,13.622,32.812,18.956,49.777C5.665,874.7,2.91,872.2.151,869.748Z" fill="#f5f5f5"/>
    <path id="Path_2243" data-name="Path 2243" d="M30.112,950.486l-11.938-5.972c7.9-24.759,4.917-48.923-3.985-72.763,2.977-3.174,5.955-2.521,8.932,0C33.458,897.286,38.474,923.293,30.112,950.486Z" transform="translate(0 253.856)" fill="#fefefe"/>
    <path id="Path_2244" data-name="Path 2244" d="M23.121,871.751H14.189c-8.246-23.67-17.921-46.789-27.082-70.106-10.2-25.972-19.589-52.205-24.434-79.819a3.111,3.111,0,0,1,.523-2.645l1.86,7.15c.669,2.57,1.3,5.151,2.014,7.707,6.8,24.209,16.954,47.118,27.191,69.993,9.351,20.9,19.133,41.6,27.4,62.969C22.254,868.542,22.638,870.165,23.121,871.751Z" fill="#f4f4f4"/>
    <path id="Path_2245" data-name="Path 2245" d="M-2.826,937.52a37.671,37.671,0,0,0-12.938-1.985c4.817-12.145,7.653-24.544,7.13-37.816-.386-9.789-2.963-18.954-5.4-28.241q-.883-3.36-1.781-6.718c3.3,1.4,6.237,3.72,9.989,4,4.984,12.847,8.581,26.018,8.993,39.882A75.087,75.087,0,0,1-2.826,937.52Z" transform="translate(0 240.863)" fill="#fefefe"/>
    <path id="Path_2246" data-name="Path 2246" d="M.151,869.748l8.991,1.005c5.643,13.778,9.405,28.1,9.754,42.953a77.93,77.93,0,0,1-4.753,28.8L2.2,938.549c1.8-9.416,4.974-18.545,5.044-28.321.085-11.756-2.081-23.071-5.455-34.238C1.165,873.932.692,871.829.151,869.748Z" transform="translate(0 249.221)" fill="#fefefe"/>
    <path id="Path_2247" data-name="Path 2247" d="M35.144,868.721l-7.017,2.017c-6.24-14.476-12.41-28.982-18.736-43.42C-.4,804.969-10.99,782.962-19.684,760.146c-4.233-11.111-8-22.4-10.2-34.18,2.579,7.08,4.969,14.236,7.775,21.226C-14.564,766-5.755,784.205,3.638,802.182c10.607,20.3,21.235,40.631,30.072,61.807A47,47,0,0,1,35.144,868.721Z" fill="#f5f5f5"/>
    <path id="Path_2248" data-name="Path 2248" d="M46.123,863.735,40.1,866.751c-3.257-4.87-4.934-10.484-7.308-15.759C21.548,826,7.866,802.227-3.977,777.54c-5.578-11.628-11.213-23.256-14.689-35.859,1.316,2.846,2.6,5.7,3.953,8.535,11.882,24.891,26.4,48.327,39.865,72.349C32.678,835.994,41.137,849,46.123,863.735Z" fill="#f5f5f5"/>
    <path id="Path_2249" data-name="Path 2249" d="M679.975,1100.111l2.982-.019c.8,4.592-2.43,7.791-4.292,11.3-6.2,11.665-13.581,22.439-25.17,29.619-8.579,5.315-18.183,6.98-27.938,8.383-21.561,3.1-42.982,6.93-63.916,13.113a21.67,21.67,0,0,1-3.45.451c-1.386-1.151-.895-2.533-.483-3.905a3.465,3.465,0,0,1,1.1-1.257c11.963-5.975,25-7.818,38-9.806,3.183-.487,6.415-.655,9.192-2.545a174.038,174.038,0,0,0,33.2-5.5c14.459-4.095,23.565-14.634,31.057-26.963,2.79-4.592,4.566-10.018,9.7-12.879Z" transform="translate(1170 580)" fill="#ddd"/>
    <path id="Path_2250" data-name="Path 2250" d="M559.171,1159.933l-.98,3.02-1,1c-4.5,5.305-10.6,6.039-16.983,5.954l-2.971.027-4.014-1.023c-.914-3.011,1.042-4.264,3.32-5.124,5.406-2.039,10.895-3.84,16.433-5.494C555.4,1157.563,557.524,1157.811,559.171,1159.933Z" transform="translate(935.71 580)" fill="#d4d4d4"/>
    <path id="Path_2251" data-name="Path 2251" d="M540.206,1169.9c5.389-2.758,11.241-4.2,16.983-5.954C553.706,1173.934,551.652,1174.654,540.206,1169.9Z" transform="translate(935.486 580)" fill="#e5e5e5"/>
    <path id="Path_2252" data-name="Path 2252" d="M49.068,967.483l10.014,12.99c-2,8.147-5.976,15.419-10.33,22.449-5.916,9.554-11.677,19.252-19.617,27.372,1.7-6.126.837-12.381.909-18.587a3.082,3.082,0,0,0-2.907-3.353c3.539-5.749,7.009-11.543,10.636-17.237C42.5,983.691,45.43,975.421,49.068,967.483Z" transform="translate(0 373.212)" fill="#e7e7e7"/>
    <path id="Path_2253" data-name="Path 2253" d="M679.949,1100.1a134.842,134.842,0,0,1-15.493,25.394,48.83,48.83,0,0,1-27.469,17.665,210.457,210.457,0,0,1-29.916,4.793c-9.8-.476-19.578,1.086-29.374.357-2.3-.171-5.2.293-5.529-3.314,10.6-3.058,21.578-3.7,32.446-4.947,13.781-1.581,27.51-3.148,38.824-12.325,8.942-7.252,15.17-16.631,20.569-26.633C669.345,1101.137,674.691,1101.329,679.949,1100.1Z" transform="translate(1170 580)" fill="#efefef"/>
    <path id="Path_2254" data-name="Path 2254" d="M559.171,1159.933c-9.181,1.458-18.1,3.689-25.95,8.974l-1.994-1c-4.04-.831-7.156-3.694-10.984-4.99,10.879-6.027,22.521-10.158,34.354-13.818,2.205-.682,4.4-1.411,6.594-2.118,3.066,4.236,2.586,7.079-2.02,11.953Z" transform="translate(936.731 580)" fill="#e4e4e4"/>
    <path id="Path_2255" data-name="Path 2255" d="M559.171,1158.938c.856-3.954,1.984-7.861,2.02-11.953l10.976-1.994c6.327,2.039,12.829.679,19.244.922,5.3.2,10.6.075,15.66,2.035-8.755,1.783-17.544,3.415-26.253,5.4C573.554,1155,566.383,1157.058,559.171,1158.938Z" transform="translate(1170 580)" fill="#eee"/>
    <path id="Path_2256" data-name="Path 2256" d="M-20.759,934.586l-13.987-.025c7.11-13.229,11.894-27.049,10.982-42.364-.617-10.373-3.339-20.287-6.4-30.132-1.48-4.758-3.039-9.492-4.563-14.237l11.976,9.94c5.979,13.774,10.171,28.188,10.612,43.107A62.676,62.676,0,0,1-20.759,934.586Z" transform="translate(0 226.899)" fill="#fefefe"/>
    <path id="Path_2257" data-name="Path 2257" d="M43.121,962.47l1.976.985c-2.306,8.095-5.252,15.913-9.973,22.961Q39.122,974.443,43.121,962.47Z" transform="translate(0 336.635)" fill="#e7e7e7"/>
    <path id="Path_2258" data-name="Path 2258" d="M125.957,1076.371c-.018,14.005-8.717,22.752-22.606,22.73-12.87-.02-23.011-9.808-23.132-22.327C80.1,1064,90.926,1053.1,103.66,1053.316,116.928,1053.545,127.356,1065.426,125.957,1076.371Z" transform="translate(209.535 468.824)" fill="#f2f2f2"/>
    <path id="Path_2259" data-name="Path 2259" d="M550.187,754.067c1.462,10.747-9.295,22.811-22.659,22.823-12.475.01-23.254-11.132-23.072-23.492.185-12.591,10.3-22.269,23.28-22.268C541.658,731.131,550.186,739.844,550.187,754.067Z" transform="translate(914.453)" fill="#f4f4f4"/>
    <path id="Path_2260" data-name="Path 2260" d="M621.048,1076.074c.026,7.18-4.378,12-10.977,12.022-7.246.021-11.854-4.5-11.933-11.713-.073-6.668,4.663-11.145,11.823-11.175C617.376,1065.177,621.022,1068.75,621.048,1076.074Z" transform="translate(1170 460.782)" fill="#f2f2f2"/>
  </g>
</svg>
