<svg xmlns="http://www.w3.org/2000/svg" xmlns:xlink="http://www.w3.org/1999/xlink" width="1920" height="1080" viewBox="0 0 1920 1080">
  <defs>
    <clipPath id="clip-path">
      <path id="Path_2147" data-name="Path 2147" d="M155.986,356.237l88.669,100.152,52.271-81.31Z" transform="translate(-155.986 -356.237)" fill="#222221"/>
    </clipPath>
    <clipPath id="clip-path-2">
      <path id="Path_2151" data-name="Path 2151" d="M481.47,35.253,570.138,135.4l52.271-81.31Z" transform="translate(-481.47 -35.253)" fill="#222221"/>
    </clipPath>
    <clipPath id="clip-path-3">
      <path id="Path_2159" data-name="Path 2159" d="M455.989,344.669,383.6,411.628l-32.378-63.475Z" transform="translate(-351.226 -344.669)" fill="#222221"/>
    </clipPath>
    <clipPath id="clip-path-4">
      <path id="Path_2175" data-name="Path 2175" d="M617.527,300.526,755.3,308.29l-21.616-97.346Z" transform="translate(-617.527 -210.943)" fill="#222221"/>
    </clipPath>
    <clipPath id="clip-path-5">
      <path id="Path_2179" data-name="Path 2179" d="M106.944,96.21l137.772,7.763L223.1,6.627Z" transform="translate(-106.944 -6.627)" fill="#222221"/>
    </clipPath>
    <clipPath id="clip-path-6">
      <path id="Path_2183" data-name="Path 2183" d="M29.464,431.8,38.772,283.49-66.205,306.1Z" transform="translate(66.205 -283.49)" fill="#222221"/>
    </clipPath>
    <clipPath id="clip-path-7">
      <path id="Path_2187" data-name="Path 2187" d="M410.445,131.813l9.308-148.308L314.776,6.112Z" transform="translate(-314.776 16.495)" fill="#222221"/>
    </clipPath>
  </defs>
  <g id="Group_430" data-name="Group 430" transform="translate(66.205 50.653)">
    <g id="Group_341" data-name="Group 341" transform="translate(1645.828 664.233)" opacity="0.33">
      <path id="Path_2138" data-name="Path 2138" d="M563.357,313.484l20.218,112.793L658.061,390.1Z" transform="translate(-563.357 -308.636)" fill="#222221"/>
      <path id="Path_2139" data-name="Path 2139" d="M566.195,308.636l20.218,112.793L660.9,385.25Z" transform="translate(-563.357 -308.636)" fill="#222221"/>
    </g>
    <g id="Group_342" data-name="Group 342" transform="translate(1.05 517.446)" opacity="0.33">
      <path id="Path_2140" data-name="Path 2140" d="M1.05,228.261,28.661,382.3l101.724-49.409Z" transform="translate(-1.05 -221.64)" fill="#222221"/>
      <path id="Path_2141" data-name="Path 2141" d="M4.925,221.64,32.536,375.68l101.725-49.409Z" transform="translate(-1.05 -221.64)" fill="#222221"/>
    </g>
    <g id="Group_343" data-name="Group 343" transform="translate(1707.489 -43.847)" opacity="0.33">
      <path id="Path_2142" data-name="Path 2142" d="M625.019-37.226l27.611,154.04L754.354,67.4Z" transform="translate(-625.019 43.847)" fill="#222221"/>
      <path id="Path_2143" data-name="Path 2143" d="M628.894-43.847,656.5,110.193,758.229,60.784Z" transform="translate(-625.019 43.847)" fill="#222221"/>
    </g>
    <g id="Group_347" data-name="Group 347" transform="translate(502.381 834.931)" opacity="0.33">
      <path id="Path_2144" data-name="Path 2144" d="M158.236,362.1,246.9,462.25l52.271-81.31Z" transform="translate(-155.986 -356.237)" fill="#222221"/>
      <path id="Path_2145" data-name="Path 2145" d="M155.986,356.237l88.669,100.152,52.271-81.31Z" transform="translate(-155.986 -356.237)" fill="#222221"/>
      <g id="Group_346" data-name="Group 346">
        <path id="Path_2146" data-name="Path 2146" d="M155.986,356.237l88.669,100.152,52.271-81.31Z" transform="translate(-155.986 -356.237)" fill="#222221"/>
      </g>
    </g>
    <g id="Group_351" data-name="Group 351" transform="translate(1335.292 35.253)" opacity="0.33">
      <path id="Path_2148" data-name="Path 2148" d="M483.72,41.114l88.669,100.152L624.66,59.956Z" transform="translate(-481.47 -35.253)" fill="#222221"/>
      <path id="Path_2149" data-name="Path 2149" d="M481.47,35.253,570.138,135.4l52.271-81.31Z" transform="translate(-481.47 -35.253)" fill="#222221"/>
      <g id="Group_350" data-name="Group 350">
        <path id="Path_2150" data-name="Path 2150" d="M481.47,35.253,570.138,135.4l52.271-81.31Z" transform="translate(-481.47 -35.253)" fill="#222221"/>
      </g>
    </g>
    <g id="Group_353" data-name="Group 353" transform="translate(1705.78 919.792)" opacity="0.33">
      <g id="Group_352" data-name="Group 352" transform="translate(1.36 4.257)">
        <path id="Path_2152" data-name="Path 2152" d="M624.669,448.5l106.267,88.027,40.388-91.172Z" transform="translate(-624.669 -445.354)" fill="#222221"/>
      </g>
      <path id="Path_2153" data-name="Path 2153" d="M623.309,444.243,729.576,532.27,769.964,441.1Z" transform="translate(-623.309 -441.098)" fill="#222221"/>
    </g>
    <g id="Group_355" data-name="Group 355" transform="translate(1089.034 290.462)" opacity="0.33">
      <g id="Group_354" data-name="Group 354" transform="translate(1.36 4.257)">
        <path id="Path_2154" data-name="Path 2154" d="M384.681,132.015l106.267,88.027,40.388-91.172Z" transform="translate(-384.681 -128.87)" fill="#222221"/>
      </g>
      <path id="Path_2155" data-name="Path 2155" d="M383.321,127.758l106.267,88.027,40.388-91.172Z" transform="translate(-383.321 -124.614)" fill="#222221"/>
    </g>
    <g id="Group_359" data-name="Group 359" transform="translate(964.747 702.742)" opacity="0.33">
      <path id="Path_2156" data-name="Path 2156" d="M454.08,350.525,381.7,417.483l-32.378-63.475Z" transform="translate(-349.318 -344.669)" fill="#222221"/>
      <g id="Group_358" data-name="Group 358" transform="translate(1.909)">
        <path id="Path_2157" data-name="Path 2157" d="M455.989,344.669,383.6,411.628l-32.378-63.475Z" transform="translate(-351.226 -344.669)" fill="#222221"/>
        <g id="Group_357" data-name="Group 357" clip-path="url(#clip-path-3)">
          <path id="Path_2158" data-name="Path 2158" d="M455.989,344.669,383.6,411.628l-32.378-63.475Z" transform="translate(-351.226 -344.669)" fill="#222221"/>
        </g>
      </g>
    </g>
    <g id="Group_360" data-name="Group 360" transform="translate(775.177 887.348)" opacity="0.33">
      <path id="Path_2160" data-name="Path 2160" d="M352.347,413.619l9.12,89.688-80.325-38.138Z" transform="translate(-279.723 -408.653)" fill="#222221"/>
      <path id="Path_2161" data-name="Path 2161" d="M350.928,408.653l9.12,89.688L279.723,460.2Z" transform="translate(-279.723 -408.653)" fill="#222221"/>
    </g>
    <g id="Group_361" data-name="Group 361" transform="translate(10.982 880.655)" opacity="0.33">
      <path id="Path_2162" data-name="Path 2162" d="M125.068,409.761l14.326,140.892L13.211,490.742Z" transform="translate(-10.982 -401.96)" fill="#222221"/>
      <path id="Path_2163" data-name="Path 2163" d="M122.839,401.96l14.326,140.892L10.982,482.941Z" transform="translate(-10.982 -401.96)" fill="#222221"/>
    </g>
    <g id="Group_362" data-name="Group 362" transform="translate(-53.809 -50.653)" opacity="0.33">
      <path id="Path_2164" data-name="Path 2164" d="M67.511-42.357,82.745,107.469-51.439,43.759Z" transform="translate(53.809 50.653)" fill="#222221"/>
      <path id="Path_2165" data-name="Path 2165" d="M65.14-50.653,80.375,99.173-53.809,35.463Z" transform="translate(53.809 50.653)" fill="#222221"/>
    </g>
    <g id="Group_363" data-name="Group 363" transform="translate(523.041 462.208)" opacity="0.33">
      <path id="Path_2166" data-name="Path 2166" d="M275.163,204.745l-17.79,140.1L173.443,305Z" transform="translate(-171.961 -199.556)" fill="#222221"/>
      <path id="Path_2167" data-name="Path 2167" d="M273.681,199.556l-17.79,140.1-83.93-39.849Z" transform="translate(-171.961 -199.556)" fill="#222221"/>
    </g>
    <g id="Group_364" data-name="Group 364" transform="translate(445.163 347.124)" opacity="0.33">
      <path id="Path_2168" data-name="Path 2168" d="M272.254,238.8l-135,6.445L160.9,159.526Z" transform="translate(-134.593 -154.678)" fill="#222221"/>
      <path id="Path_2169" data-name="Path 2169" d="M269.6,233.947l-135,6.445,23.655-85.714Z" transform="translate(-134.593 -154.678)" fill="#222221"/>
    </g>
    <g id="Group_365" data-name="Group 365" transform="translate(1623.565 897.988)" opacity="0.33">
      <path id="Path_2170" data-name="Path 2170" d="M678.755,503.412l-135,6.445,23.655-85.714Z" transform="translate(-541.094 -419.294)" fill="#222221"/>
      <path id="Path_2171" data-name="Path 2171" d="M676.1,498.564l-135,6.444,23.655-85.714Z" transform="translate(-541.094 -419.294)" fill="#222221"/>
    </g>
    <g id="Group_366" data-name="Group 366" transform="translate(1080.142 357.289)" opacity="0.33">
      <circle id="Ellipse_61" data-name="Ellipse 61" cx="33.151" cy="33.151" r="33.151" transform="translate(6.351 8.259)" fill="#222221"/>
      <circle id="Ellipse_62" data-name="Ellipse 62" cx="33.151" cy="33.151" r="33.151" transform="translate(0 65.531) rotate(-81.255)" fill="#222221"/>
    </g>
    <g id="Group_367" data-name="Group 367" transform="translate(759.805 195.836)" opacity="0.33">
      <circle id="Ellipse_63" data-name="Ellipse 63" cx="33.151" cy="33.151" r="33.151" transform="translate(1.696 3.604)" fill="#222221"/>
      <circle id="Ellipse_64" data-name="Ellipse 64" cx="33.151" cy="33.151" r="33.151" fill="#222221"/>
    </g>
    <g id="Group_368" data-name="Group 368" transform="translate(1382.905 284.938)" opacity="0.33">
      <circle id="Ellipse_65" data-name="Ellipse 65" cx="33.151" cy="33.151" r="33.151" transform="translate(1.696 3.604)" fill="#222221"/>
      <circle id="Ellipse_66" data-name="Ellipse 66" cx="33.151" cy="33.151" r="33.151" fill="#222221"/>
    </g>
    <g id="Group_369" data-name="Group 369" transform="translate(1005.28 884.857)" opacity="0.33">
      <circle id="Ellipse_67" data-name="Ellipse 67" cx="33.151" cy="33.151" r="33.151" transform="translate(0 46.882) rotate(-45)" fill="#222221"/>
      <circle id="Ellipse_68" data-name="Ellipse 68" cx="33.151" cy="33.151" r="33.151" transform="translate(12.035 10.127)" fill="#222221"/>
    </g>
    <g id="Group_370" data-name="Group 370" transform="translate(-44.401 334.289)" opacity="0.33">
      <circle id="Ellipse_69" data-name="Ellipse 69" cx="33.151" cy="33.151" r="33.151" transform="translate(0 65.262) rotate(-79.838)" fill="#222221"/>
      <circle id="Ellipse_70" data-name="Ellipse 70" cx="33.151" cy="33.151" r="33.151" transform="translate(3.633 1.725)" fill="#222221"/>
    </g>
    <g id="Group_371" data-name="Group 371" transform="translate(1241.499 941.983)" opacity="0.33">
      <circle id="Ellipse_71" data-name="Ellipse 71" cx="33.151" cy="33.151" r="33.151" transform="translate(0 64.665) rotate(-77.243)" fill="#222221"/>
      <circle id="Ellipse_72" data-name="Ellipse 72" cx="33.151" cy="33.151" r="33.151" transform="translate(4.806 2.898)" fill="#222221"/>
    </g>
    <g id="Group_372" data-name="Group 372" transform="translate(1370.037 474.01)" opacity="0.33">
      <circle id="Ellipse_73" data-name="Ellipse 73" cx="23.78" cy="23.78" r="23.78" transform="translate(0 31.218) rotate(-41.026)" fill="#222221"/>
      <circle id="Ellipse_74" data-name="Ellipse 74" cx="23.78" cy="23.78" r="23.78" transform="matrix(0.232, -0.973, 0.973, 0.232, 3.682, 48.575)" fill="#222221"/>
    </g>
    <g id="Group_373" data-name="Group 373" transform="translate(1098.296 795.399)" opacity="0.33">
      <circle id="Ellipse_75" data-name="Ellipse 75" cx="22.65" cy="22.65" r="22.65" transform="translate(1.159 2.462)" fill="#222221"/>
      <circle id="Ellipse_76" data-name="Ellipse 76" cx="22.65" cy="22.65" r="22.65" fill="#222221"/>
    </g>
    <g id="Group_374" data-name="Group 374" transform="translate(-55.991 913.167)" opacity="0.33">
      <circle id="Ellipse_77" data-name="Ellipse 77" cx="29.832" cy="29.832" r="29.832" transform="translate(1.526 3.243)" fill="#222221"/>
      <circle id="Ellipse_78" data-name="Ellipse 78" cx="29.832" cy="29.832" r="29.832" fill="#222221"/>
    </g>
    <g id="Group_375" data-name="Group 375" transform="translate(1244.471 616.804)" opacity="0.33">
      <circle id="Ellipse_79" data-name="Ellipse 79" cx="22.65" cy="22.65" r="22.65" transform="translate(1.159 2.462)" fill="#222221"/>
      <circle id="Ellipse_80" data-name="Ellipse 80" cx="22.65" cy="22.65" r="22.65" fill="#222221"/>
    </g>
    <g id="Group_376" data-name="Group 376" transform="translate(1706.925 373.792)" opacity="0.33">
      <circle id="Ellipse_81" data-name="Ellipse 81" cx="22.65" cy="22.65" r="22.65" transform="translate(5.796 7.099)" fill="#222221"/>
      <circle id="Ellipse_82" data-name="Ellipse 82" cx="22.65" cy="22.65" r="22.65" transform="translate(0 44.064) rotate(-76.585)" fill="#222221"/>
    </g>
    <g id="Group_377" data-name="Group 377" transform="translate(611.361 292.142)" opacity="0.33">
      <circle id="Ellipse_83" data-name="Ellipse 83" cx="22.65" cy="22.65" r="22.65" transform="translate(8.033 9.336)" fill="#222221"/>
      <circle id="Ellipse_84" data-name="Ellipse 84" cx="22.65" cy="22.65" r="22.65" transform="translate(0 17.098) rotate(-22.176)" fill="#222221"/>
    </g>
    <g id="Group_378" data-name="Group 378" transform="translate(749.441 531.718)" opacity="0.33">
      <circle id="Ellipse_85" data-name="Ellipse 85" cx="33.151" cy="33.151" r="33.151" transform="translate(11.661 13.569)" fill="#222221"/>
      <circle id="Ellipse_86" data-name="Ellipse 86" cx="33.151" cy="33.151" r="33.151" transform="matrix(0.928, -0.373, 0.373, 0.928, 0, 24.705)" fill="#222221"/>
    </g>
    <g id="Group_379" data-name="Group 379" transform="translate(529.816 955.044)" opacity="0.33">
      <circle id="Ellipse_87" data-name="Ellipse 87" cx="33.151" cy="33.151" r="33.151" transform="translate(1.696 3.604)" fill="#222221"/>
      <circle id="Ellipse_88" data-name="Ellipse 88" cx="33.151" cy="33.151" r="33.151" fill="#222221"/>
    </g>
    <g id="Group_381" data-name="Group 381" transform="translate(1235.186 698.94)" opacity="0.33">
      <g id="Group_380" data-name="Group 380" transform="translate(3.734 2.23)">
        <rect id="Rectangle_325" data-name="Rectangle 325" width="17.283" height="81.478" transform="matrix(0.963, -0.269, 0.269, 0.963, 0, 4.653)" fill="#222221"/>
      </g>
      <rect id="Rectangle_326" data-name="Rectangle 326" width="17.283" height="81.478" transform="translate(0 4.653) rotate(-15.619)" fill="#222221"/>
    </g>
    <g id="Group_383" data-name="Group 383" transform="translate(54.465 346.173)" opacity="0.33">
      <g id="Group_382" data-name="Group 382" transform="translate(3.734 2.23)">
        <rect id="Rectangle_327" data-name="Rectangle 327" width="17.283" height="81.478" transform="translate(0 4.653) rotate(-15.619)" fill="#222221"/>
      </g>
      <rect id="Rectangle_328" data-name="Rectangle 328" width="17.283" height="81.478" transform="translate(0 4.653) rotate(-15.619)" fill="#222221"/>
    </g>
    <g id="Group_385" data-name="Group 385" transform="translate(784.443 936.617)" opacity="0.33">
      <g id="Group_384" data-name="Group 384" transform="translate(1.256 3.677)">
        <rect id="Rectangle_329" data-name="Rectangle 329" width="17.283" height="81.478" transform="translate(31.305 0) rotate(22.595)" fill="#222221"/>
      </g>
      <rect id="Rectangle_330" data-name="Rectangle 330" width="17.283" height="81.478" transform="translate(31.305 0) rotate(22.595)" fill="#222221"/>
    </g>
    <g id="Group_387" data-name="Group 387" transform="translate(1033.375 511.93)" opacity="0.33">
      <g id="Group_386" data-name="Group 386" transform="translate(0.625 3.916)">
        <rect id="Rectangle_331" data-name="Rectangle 331" width="17.283" height="81.478" transform="matrix(0.79, -0.613, 0.613, 0.79, 0, 10.594)" fill="#222221"/>
      </g>
      <rect id="Rectangle_332" data-name="Rectangle 332" width="17.283" height="81.478" transform="matrix(0.79, -0.613, 0.613, 0.79, 0, 10.594)" fill="#222221"/>
    </g>
    <g id="Group_389" data-name="Group 389" transform="translate(789.032 384.694)" opacity="0.33">
      <g id="Group_388" data-name="Group 388" transform="translate(0 3.418)">
        <rect id="Rectangle_333" data-name="Rectangle 333" width="17.283" height="81.478" transform="translate(76.495 0) rotate(69.859)" fill="#222221"/>
      </g>
      <rect id="Rectangle_334" data-name="Rectangle 334" width="17.283" height="81.478" transform="translate(78.343 0) rotate(69.859)" fill="#222221"/>
    </g>
    <g id="Group_391" data-name="Group 391" transform="translate(1688.784 909.426)" opacity="0.33">
      <g id="Group_390" data-name="Group 390" transform="translate(0 3.418)">
        <rect id="Rectangle_335" data-name="Rectangle 335" width="17.283" height="81.478" transform="translate(76.495 0) rotate(69.859)" fill="#222221"/>
      </g>
      <rect id="Rectangle_336" data-name="Rectangle 336" width="17.283" height="81.478" transform="translate(78.343 0) rotate(69.859)" fill="#222221"/>
    </g>
    <g id="Group_393" data-name="Group 393" transform="translate(1658.785 262.427)" opacity="0.33">
      <g id="Group_392" data-name="Group 392" transform="translate(0 3.418)">
        <rect id="Rectangle_337" data-name="Rectangle 337" width="17.283" height="81.478" transform="translate(76.495 0) rotate(69.859)" fill="#222221"/>
      </g>
      <rect id="Rectangle_338" data-name="Rectangle 338" width="17.283" height="81.478" transform="translate(78.343 0) rotate(69.859)" fill="#222221"/>
    </g>
    <g id="Group_395" data-name="Group 395" transform="translate(1684.527 672.359)" opacity="0.33">
      <g id="Group_394" data-name="Group 394" transform="translate(0 3.418)">
        <rect id="Rectangle_339" data-name="Rectangle 339" width="17.283" height="81.478" transform="matrix(0.344, 0.939, -0.939, 0.344, 76.495, 0)" fill="#222221"/>
      </g>
      <rect id="Rectangle_340" data-name="Rectangle 340" width="17.283" height="81.478" transform="translate(78.343 0) rotate(69.859)" fill="#222221"/>
    </g>
    <g id="Group_397" data-name="Group 397" transform="translate(469.428 199.685)" opacity="0.33">
      <g id="Group_396" data-name="Group 396" transform="translate(0 3.418)">
        <rect id="Rectangle_341" data-name="Rectangle 341" width="17.283" height="81.478" transform="matrix(0.344, 0.939, -0.939, 0.344, 76.495, 0)" fill="#222221"/>
      </g>
      <rect id="Rectangle_342" data-name="Rectangle 342" width="17.283" height="81.478" transform="translate(78.343 0) rotate(69.859)" fill="#222221"/>
    </g>
    <g id="Group_399" data-name="Group 399" transform="translate(1405.714 437.331)" opacity="0.33">
      <g id="Group_398" data-name="Group 398" transform="translate(1.576 2.709)">
        <rect id="Rectangle_343" data-name="Rectangle 343" width="17.283" height="81.478" transform="translate(83.025 10.497) rotate(97.402)" fill="#222221"/>
      </g>
      <rect id="Rectangle_344" data-name="Rectangle 344" width="17.283" height="81.478" transform="translate(83.025 10.497) rotate(97.402)" fill="#222221"/>
    </g>
    <g id="Group_401" data-name="Group 401" transform="translate(261.279 696.533)" opacity="0.33">
      <g id="Group_400" data-name="Group 400" transform="translate(1.576 2.709)">
        <rect id="Rectangle_345" data-name="Rectangle 345" width="17.283" height="81.478" transform="translate(83.025 10.496) rotate(97.402)" fill="#222221"/>
      </g>
      <rect id="Rectangle_346" data-name="Rectangle 346" width="17.283" height="81.478" transform="translate(83.025 10.497) rotate(97.402)" fill="#222221"/>
    </g>
    <g id="Group_403" data-name="Group 403" transform="translate(24.64 269.126)" opacity="0.33">
      <g id="Group_402" data-name="Group 402" transform="translate(1.576 2.709)">
        <rect id="Rectangle_347" data-name="Rectangle 347" width="17.283" height="81.478" transform="matrix(-0.129, 0.992, -0.992, -0.129, 83.025, 10.497)" fill="#222221"/>
      </g>
      <rect id="Rectangle_348" data-name="Rectangle 348" width="17.283" height="81.478" transform="translate(83.025 10.497) rotate(97.402)" fill="#222221"/>
    </g>
    <g id="Group_405" data-name="Group 405" transform="translate(1120.947 530.365)" opacity="0.33">
      <g id="Group_404" data-name="Group 404" transform="translate(1.576 2.708)">
        <rect id="Rectangle_349" data-name="Rectangle 349" width="17.283" height="81.478" transform="translate(83.025 10.497) rotate(97.402)" fill="#222221"/>
      </g>
      <rect id="Rectangle_350" data-name="Rectangle 350" width="17.283" height="81.478" transform="translate(83.025 10.496) rotate(97.402)" fill="#222221"/>
    </g>
    <g id="Group_411" data-name="Group 411" transform="translate(1699.998 460.723)" opacity="0.33">
      <g id="Group_407" data-name="Group 407">
        <g id="Group_406" data-name="Group 406" transform="translate(3.621 2.618)">
          <path id="Path_2172" data-name="Path 2172" d="M621.148,303.145l137.772,7.763L737.3,213.561Z" transform="translate(-621.148 -213.561)" fill="#222221"/>
        </g>
        <path id="Path_2173" data-name="Path 2173" d="M617.527,300.526,755.3,308.29l-21.616-97.346Z" transform="translate(-617.527 -210.943)" fill="#222221"/>
      </g>
      <g id="Group_410" data-name="Group 410">
        <path id="Path_2174" data-name="Path 2174" d="M617.527,300.526,755.3,308.29l-21.616-97.346Z" transform="translate(-617.527 -210.943)" fill="#222221"/>
      </g>
    </g>
    <g id="Group_417" data-name="Group 417" transform="translate(376.186 6.627)" opacity="0.33">
      <g id="Group_413" data-name="Group 413">
        <g id="Group_412" data-name="Group 412" transform="translate(3.621 2.618)">
          <path id="Path_2176" data-name="Path 2176" d="M110.565,98.828l137.772,7.763L226.722,9.245Z" transform="translate(-110.565 -9.245)" fill="#222221"/>
        </g>
        <path id="Path_2177" data-name="Path 2177" d="M106.944,96.21l137.772,7.763L223.1,6.627Z" transform="translate(-106.944 -6.627)" fill="#222221"/>
      </g>
      <g id="Group_416" data-name="Group 416">
        <path id="Path_2178" data-name="Path 2178" d="M106.944,96.21l137.772,7.763L223.1,6.627Z" transform="translate(-106.944 -6.627)" fill="#222221"/>
      </g>
    </g>
    <g id="Group_423" data-name="Group 423" transform="translate(-66.205 631.621)" opacity="0.33">
      <g id="Group_419" data-name="Group 419">
        <g id="Group_418" data-name="Group 418" transform="translate(2.844)">
          <path id="Path_2180" data-name="Path 2180" d="M32.308,427.917l9.308-148.308L-63.361,302.216Z" transform="translate(63.361 -279.609)" fill="#222221"/>
        </g>
        <path id="Path_2181" data-name="Path 2181" d="M29.464,431.8,38.772,283.49-66.205,306.1Z" transform="translate(66.205 -279.609)" fill="#222221"/>
      </g>
      <g id="Group_422" data-name="Group 422" transform="translate(0 3.882)">
        <path id="Path_2182" data-name="Path 2182" d="M29.464,431.8,38.772,283.49-66.205,306.1Z" transform="translate(66.205 -283.49)" fill="#222221"/>
      </g>
    </g>
    <g id="Group_429" data-name="Group 429" transform="translate(879.935 -20.376)" opacity="0.33">
      <g id="Group_425" data-name="Group 425">
        <g id="Group_424" data-name="Group 424" transform="translate(2.844)">
          <path id="Path_2184" data-name="Path 2184" d="M413.289,127.932,422.6-20.376,317.62,2.23Z" transform="translate(-317.62 20.376)" fill="#222221"/>
        </g>
        <path id="Path_2185" data-name="Path 2185" d="M410.445,131.813l9.308-148.308L314.776,6.112Z" transform="translate(-314.776 20.376)" fill="#222221"/>
      </g>
      <g id="Group_428" data-name="Group 428" transform="translate(0 3.882)">
        <path id="Path_2186" data-name="Path 2186" d="M410.445,131.813l9.308-148.308L314.776,6.112Z" transform="translate(-314.776 16.495)" fill="#222221"/>
      </g>
    </g>
  </g>
</svg>
