<svg xmlns="http://www.w3.org/2000/svg" xmlns:xlink="http://www.w3.org/1999/xlink" width="1912.146" height="1080.07" viewBox="0 0 1912.146 1080.07">
  <defs>
    <linearGradient id="linear-gradient" y1="0.5" x2="1" y2="0.5" gradientUnits="objectBoundingBox">
      <stop offset="0" stop-color="#dedede"/>
      <stop offset="1" stop-color="#d7dbd0"/>
    </linearGradient>
  </defs>
  <g id="Group_340" data-name="Group 340" transform="translate(44.965 186.927)">
    <path id="Path_2111" data-name="Path 2111" d="M482.653,491.934c-7.535-21.619-5.464-45.356-1.482-67.9s9.8-45,9.5-67.9c-.5-37.388-18.42-74.234-47.681-97.514s-69.317-32.454-105.736-23.983c-23.031,5.356-44.682,17.336-68.308,18.31-24.258,1-47.309-9.72-71.188-14.1-56.7-10.409-117.471,18.123-149.2,66.253S13.819,417.79,37.038,470.553s70.821,93.235,125.336,111.976,115.184,16.567,169.871-1.664c26.815-8.939,52.348-21.59,79.543-29.3s57.23-10.118,83.078,1.322l37.544-19.826C509.524,532.452,490.188,513.552,482.653,491.934Z" transform="translate(0 297.545)" opacity="0.2" fill="url(#linear-gradient)" style="mix-blend-mode: multiply;isolation: isolate"/>
    <path id="Path_2112" data-name="Path 2112" d="M537.809,357.019c-7.535-21.618-5.463-45.355-1.481-67.9s9.8-45,9.5-67.9c-.5-37.389-18.42-74.234-47.68-97.514S428.827,91.253,392.408,99.724c-23.031,5.357-44.683,17.336-68.308,18.31-24.258,1-47.309-9.719-71.189-14.1-56.7-10.41-117.47,18.122-149.2,66.253S68.975,282.876,92.194,335.639s70.822,93.235,125.337,111.975S332.715,464.182,387.4,445.95c26.815-8.939,52.347-21.589,79.542-29.3s57.231-10.118,83.079,1.322l37.543-19.825C564.68,397.537,545.344,378.638,537.809,357.019Z" transform="translate(542.038 46.064)" opacity="0.2" fill="url(#linear-gradient)" style="mix-blend-mode: multiply;isolation: isolate"/>
    <path id="Path_2113" data-name="Path 2113" d="M925.833,247.065c-7.536-21.618-5.464-45.355-1.482-67.9s9.8-45,9.5-67.9c-.5-37.388-18.42-74.234-47.68-97.514S816.85-18.7,780.431-10.23C757.4-4.873,735.749,7.106,712.123,8.08c-24.258,1-47.309-9.719-71.189-14.1-56.7-10.41-117.47,18.122-149.2,66.253S457,172.922,480.218,225.685,551.039,318.92,605.554,337.66,720.738,354.228,775.425,336c26.815-8.94,52.347-21.59,79.543-29.3s57.23-10.118,83.078,1.322L975.589,288.2C952.7,287.583,933.367,268.684,925.833,247.065Z" transform="translate(891.592 146.449)" opacity="0.2" fill="url(#linear-gradient)" style="mix-blend-mode: multiply;isolation: isolate"/>
    <path id="Path_2114" data-name="Path 2114" d="M495.82,0A155.908,155.908,0,0,1,465.67,69.6c-30.96,39.84-82.29,62.95-132.64,59.7-5.35-.34-10.74-.95-16.15-1.68-28.28-3.79-57.1-10.7-82.47,1.11-21.54,10.03-35.31,31.55-54.75,45.2-25.43,17.86-59.66,20.78-89.24,11.25s-54.63-30.45-72.94-55.56C11.15,120.935,5.55,111.735,0,102.5V0Z" transform="translate(0 93.927)" opacity="0.2" fill="url(#linear-gradient)" style="mix-blend-mode: multiply;isolation: isolate"/>
    <path id="Path_2115" data-name="Path 2115" d="M609.23,0a67.446,67.446,0,0,1-21.62,13.67c-14.61,5.65-31.08,6.74-44.34,15.07-17.47,10.97-25.59,32.06-29.99,52.21s-6.39,41.34-16.32,59.42c-20.58,37.51-71.75,50.41-112.32,36.81-27.01-9.06-49.57-27.32-67.76-49.57a241.566,241.566,0,0,1-24.06-35.81c-15.64-28.25-27.11-59.36-48.56-83.49A97.636,97.636,0,0,0,235.92,0Z" transform="translate(390.147 92.665)" fill="#f7f8f8" style="mix-blend-mode: overlay;isolation: isolate"/>
    <path id="Path_2116" data-name="Path 2116" d="M750,245.8v254.2H384.18a160.242,160.242,0,0,1,6.86-31.64,155.909,155.909,0,0,1,67.54-84.24,135.394,135.394,0,0,1,54.32-18.64c25.13-2.81,53.46.58,72.83-15.67,11.65-9.78,17.31-24.71,24.57-38.08,20.68-38.04,59.63-67.16,102.82-70.22A102.442,102.442,0,0,1,750,245.8Z" transform="translate(589.637 297.545)" fill="#f7f8f8" style="mix-blend-mode: overlay;isolation: isolate"/>
    <path id="Path_2117" data-name="Path 2117" d="M647.26,500.005H161.33a155.913,155.913,0,0,1,9.92-40.06c11.72-29.92,35.16-58.44,66.97-62.98,13.72-1.96,27.2.7,40.25,5.54a47.126,47.126,0,0,0,52.48-13.99A84.822,84.822,0,0,1,440,370.1a127.9,127.9,0,0,1,18.58,14.03c16.7,14.72,31.71,31.94,52.74,38.34,21.87,6.64,45.77-.03,68.18,4.45,32.85,6.57,56.99,36.54,66.53,68.65Q646.69,497.77,647.26,500.005Z" transform="translate(346.727 297.545)" fill="url(#linear-gradient)" style="mix-blend-mode: soft-light;isolation: isolate"/>
    <circle id="Ellipse_59" data-name="Ellipse 59" cx="34.082" cy="34.082" r="34.082" transform="translate(345.568 309.684) rotate(-77.258)" fill="#f7f8f8" style="mix-blend-mode: overlay;isolation: isolate"/>
    <circle id="Ellipse_60" data-name="Ellipse 60" cx="11.7" cy="11.7" r="11.7" transform="matrix(0.749, -0.663, 0.663, 0.749, 1151.322, 428.475)" fill="#f7f8f8" style="mix-blend-mode: overlay;isolation: isolate"/>
    <path id="Path_2118" data-name="Path 2118" d="M103.375,396.527a5.85,5.85,0,1,1-5.85-5.85A5.85,5.85,0,0,1,103.375,396.527Z" transform="translate(0 222.953)" fill="#f7f8f8" style="mix-blend-mode: overlay;isolation: isolate"/>
    <path id="Path_2119" data-name="Path 2119" d="M658.96,213.594a5.85,5.85,0,1,1-5.85-5.85A5.85,5.85,0,0,1,658.96,213.594Z" transform="translate(617.369 152.333)" fill="#f7f8f8" style="mix-blend-mode: overlay;isolation: isolate"/>
    <g id="Group_336" data-name="Group 336" transform="translate(88.698 42.989)">
      <path id="Path_2120" data-name="Path 2120" d="M88.7-12.16c41.564-.05,82.765,19.092,109.532,50.89,23.213,27.575,35.168,62.8,55.081,92.844s53.54,56.4,88.976,49.8c24.331-4.531,43.67-23.936,55.112-45.882s16.4-46.572,22.522-70.551,13.908-48.323,29.763-67.326c20.1-24.089,52.73-37.091,83.887-33.425" transform="translate(-88.698 36.425)" fill="none" stroke="#d8d8d8" stroke-miterlimit="10" stroke-width="1"/>
      <path id="Path_2121" data-name="Path 2121" d="M102.619-13.678A135.961,135.961,0,0,1,205.3,34.026c21.76,25.85,32.967,58.868,51.634,87.034s50.189,52.867,83.408,46.681c22.807-4.248,40.937-22.438,51.662-43.01S407.37,81.073,413.112,58.6s13.038-45.3,27.9-63.112C459.854-27.1,490.442-39.287,519.65-35.85" transform="translate(-88.698 36.425)" fill="none" stroke="#d8d8d8" stroke-miterlimit="10" stroke-width="1"/>
      <path id="Path_2122" data-name="Path 2122" d="M116.541-15.2a126.885,126.885,0,0,1,95.821,44.52c20.308,24.124,30.767,54.937,48.187,81.222s46.838,49.338,77.839,43.565c21.285-3.964,38.2-20.94,48.213-40.138s14.344-40.743,19.7-61.721,12.167-42.274,26.038-58.9a84.49,84.49,0,0,1,73.387-29.241" transform="translate(-88.698 36.425)" fill="none" stroke="#d8d8d8" stroke-miterlimit="10" stroke-width="1"/>
      <path id="Path_2123" data-name="Path 2123" d="M130.462-16.716a117.807,117.807,0,0,1,88.966,41.335c18.855,22.4,28.566,51.007,44.74,75.412s43.487,45.808,72.27,40.448c19.762-3.68,35.471-19.442,44.764-37.267s13.317-37.828,18.293-57.3,11.3-39.251,24.175-54.686a78.445,78.445,0,0,1,68.137-27.149" transform="translate(-88.698 36.425)" fill="none" stroke="#d8d8d8" stroke-miterlimit="10" stroke-width="1"/>
      <path id="Path_2124" data-name="Path 2124" d="M144.383-18.234a108.734,108.734,0,0,1,82.112,38.149c17.4,20.673,26.364,47.078,41.291,69.6s40.138,42.279,66.7,37.331c18.24-3.4,32.738-17.944,41.315-34.395s12.291-34.914,16.884-52.889S403.113,3.338,415-10.908a72.4,72.4,0,0,1,62.887-25.057" transform="translate(-88.698 36.425)" fill="none" stroke="#d8d8d8" stroke-miterlimit="10" stroke-width="1"/>
    </g>
    <g id="Group_337" data-name="Group 337" transform="translate(874.315 586.937)">
      <path id="Path_2125" data-name="Path 2125" d="M306.009,572.536c-6.876-25.1-11.894-52.452-2.28-76.635,12.6-31.685,47.548-49.428,81.4-53.493s67.941,2.654,101.94,5.239,70.413.348,98.436-19.078c38.864-26.941,51.62-79.441,86.688-111.166,29.242-26.454,73.382-35.177,110.488-21.833" transform="translate(-298.398 -289.393)" fill="none" stroke="#d8d8d8" stroke-miterlimit="10" stroke-width="1"/>
      <path id="Path_2126" data-name="Path 2126" d="M331.76,572.536c-6.505-23.744-11.253-49.618-2.157-72.5,11.916-29.973,44.979-46.758,77-50.6s64.27,2.511,96.433,4.957,66.609.328,93.118-18.048c36.765-25.485,48.832-75.15,82.006-105.161,27.662-25.025,69.418-33.276,104.519-20.653" transform="translate(-298.398 -289.393)" fill="none" stroke="#d8d8d8" stroke-miterlimit="10" stroke-width="1"/>
      <path id="Path_2127" data-name="Path 2127" d="M357.51,572.536c-6.134-22.388-10.61-46.785-2.034-68.355,11.236-28.262,42.411-44.088,72.607-47.714s60.6,2.367,90.926,4.673,62.806.31,87.8-17.017c34.665-24.03,46.043-70.858,77.323-99.155,26.082-23.6,65.453-31.376,98.55-19.474" transform="translate(-298.398 -289.393)" fill="none" stroke="#d8d8d8" stroke-miterlimit="10" stroke-width="1"/>
      <path id="Path_2128" data-name="Path 2128" d="M383.261,572.536c-5.763-21.032-9.968-43.951-1.911-64.215,10.555-26.55,39.842-41.418,68.209-44.824s56.93,2.224,85.419,4.39,59,.291,82.484-15.986c32.566-22.575,43.254-66.567,72.639-93.151,24.5-22.167,61.49-29.475,92.582-18.294" transform="translate(-298.398 -289.393)" fill="none" stroke="#d8d8d8" stroke-miterlimit="10" stroke-width="1"/>
      <path id="Path_2129" data-name="Path 2129" d="M409.011,572.536c-5.391-19.676-9.325-41.118-1.788-60.075,9.875-24.839,37.274-38.748,63.812-41.935s53.26,2.081,79.913,4.107,55.2.273,77.165-14.955c30.467-21.12,40.466-62.275,67.957-87.145,22.923-20.738,57.525-27.575,86.613-17.115" transform="translate(-298.398 -289.393)" fill="none" stroke="#d8d8d8" stroke-miterlimit="10" stroke-width="1"/>
    </g>
    <g id="Group_338" data-name="Group 338" transform="translate(-44.438 497.179)">
      <path id="Path_2130" data-name="Path 2130" d="M-7.429,199.634c-5.021,17.482,3.92,36.382,16.882,49.142s29.555,21.022,44.8,30.94,29.987,22.573,35.756,39.823C100.275,350.23,79.32,381.468,69.33,412.25c-15.116,46.573-3.336,100.868,29.722,136.99" transform="translate(44.438 -199.634)" fill="none" stroke="#d8d8d8" stroke-miterlimit="10" stroke-width="1"/>
      <path id="Path_2131" data-name="Path 2131" d="M-19.292,203.243c-5.022,17.482,3.919,36.382,16.882,49.142s29.554,21.021,44.8,30.939S72.379,305.9,78.148,323.148c10.263,30.691-10.691,61.929-20.682,92.711C42.35,462.432,54.13,516.727,87.188,552.849" transform="translate(44.438 -199.634)" fill="none" stroke="#d8d8d8" stroke-miterlimit="10" stroke-width="1"/>
      <path id="Path_2132" data-name="Path 2132" d="M-31.156,206.852c-5.021,17.482,3.92,36.382,16.882,49.142s29.555,21.021,44.8,30.939,29.987,22.574,35.756,39.824c10.264,30.691-10.691,61.929-20.681,92.711-15.116,46.573-3.336,100.868,29.722,136.99" transform="translate(44.438 -199.634)" fill="none" stroke="#d8d8d8" stroke-miterlimit="10" stroke-width="1"/>
      <path id="Path_2133" data-name="Path 2133" d="M-43.019,210.461c-5.022,17.482,3.919,36.382,16.881,49.141s29.555,21.022,44.8,30.94,29.988,22.574,35.756,39.824c10.264,30.691-10.69,61.929-20.681,92.711C18.623,469.65,30.4,523.945,63.461,560.067" transform="translate(44.438 -199.634)" fill="none" stroke="#d8d8d8" stroke-miterlimit="10" stroke-width="1"/>
    </g>
    <g id="Group_339" data-name="Group 339" transform="translate(1256.197 -186.857)">
      <path id="Path_2134" data-name="Path 2134" d="M575.834-186.857c2.536,18.012,18.4,31.629,35.437,38s35.555,7.158,53.52,10.005,36.583,8.4,48.879,21.8c21.876,23.848,15.465,60.912,18.882,93.094,5.169,48.691,38.046,93.477,82.952,113" transform="translate(-547.742 186.857)" fill="none" stroke="#d8d8d8" stroke-miterlimit="10" stroke-width="1"/>
      <path id="Path_2135" data-name="Path 2135" d="M566.47-178.728c2.536,18.012,18.4,31.629,35.437,38s35.555,7.158,53.52,10.005,36.583,8.4,48.878,21.8c21.877,23.848,15.466,60.912,18.882,93.094,5.169,48.691,38.047,93.477,82.953,113" transform="translate(-547.742 186.857)" fill="none" stroke="#d8d8d8" stroke-miterlimit="10" stroke-width="1"/>
      <path id="Path_2136" data-name="Path 2136" d="M557.106-170.6c2.536,18.011,18.4,31.629,35.437,38s35.555,7.158,53.52,10.005,36.582,8.4,48.878,21.8C716.818-76.943,710.407-39.879,713.823-7.7c5.169,48.691,38.047,93.477,82.952,113" transform="translate(-547.742 186.857)" fill="none" stroke="#d8d8d8" stroke-miterlimit="10" stroke-width="1"/>
      <path id="Path_2137" data-name="Path 2137" d="M547.742-162.47c2.536,18.011,18.4,31.629,35.437,38s35.555,7.158,53.52,10,36.582,8.4,48.878,21.8C707.454-68.814,701.043-31.75,704.459.432c5.169,48.691,38.047,93.477,82.952,113" transform="translate(-547.742 186.857)" fill="none" stroke="#d8d8d8" stroke-miterlimit="10" stroke-width="1"/>
    </g>
    <rect id="Rectangle_324" data-name="Rectangle 324" width="750" height="500" transform="translate(0 297.545)" fill="none"/>
  </g>
</svg>
