<svg xmlns="http://www.w3.org/2000/svg" width="1920" height="1080" viewBox="0 0 1920 1080">
  <g id="Group_432" data-name="Group 432" transform="translate(-21 -33.569)">
    <path id="Path_2261" data-name="Path 2261" d="M801.968,34h461.91a118.229,118.229,0,0,1,21.937,13.153c41.036,31.9,87.859,58.241,148.421,70.142,19.114,3.755,38.812,5.083,58.666,6.262,39.946,2.372,80.045-.1,119.766,1.864,60.731,3.009,115.531,19.053,165.039,43.738,19.42,9.681,37.916,20.176,56.234,30.825,5.084,2.955,10.987,5.776,10.806,11.28-6.14,7.276-14.1,11.831-27.472,10.364-11.434-1.256-22.49-1.345-30.645,6.609-4.6,4.487-12.88,4.592-17.677.364-11.478-10.12-28.143-4.333-41.92-7.283-7.421-1.587-10.828,4.631-10.975,9.668-.184,6.347-3.245,11.112-13.289,10.516-9.941-.591-11.5-5.65-10.928-11.916,1.1-12.034-10.554-17.714-27.3-12.8-18.871,5.534-37.953,5.113-57.37,3.077-5.8-.608-11.375-1.09-16.547,1.269a22.333,22.333,0,0,1-11.793,2.207c-10.856-1.267-21.063-3.14-23.961,8.1-.9,3.5-8.239,3.822-13.633,2.473a224.376,224.376,0,0,0-23.252-4.9c13.389,6.738,22.312,14.417,31.666,21.838,6.259,4.965,8.589,10.619,8.048,17-.618,7.263-9.763,10.926-16.784,5.974-11.765-8.3-29.858-11.563-36.06-22.529,19.445,16.17,34.936,36.1,61.587,49.216,2.6,1.282,4.553,3.491,4.307,5.582-1.23,10.359,8.942,14.731,19.779,18.637,16.462,5.931,31.913,13.421,50.637,15.959,4.691.637,9.685,2.529,10.4,5.876,2.779,12.98,18.321,16.875,31.828,21.6a304.551,304.551,0,0,0,46.354,12.614c6.559,1.188,13.3,2.342,15.417,7.856.128,8.818-6.949,15.715-12.468,23.063-16.881,22.481-32.06,45.456-42.313,69.9-17.159,40.912-7.436,79.341,20.757,116.376,22.915,30.1,52.145,57.51,75.413,87.472,35.258,45.4,43.013,92.044,16,140.735-8.223,2.8-15.553,5.4-9.507,13.643,2.948,4.019-1.993,7.544-7.545,9.435-30.6,10.412-59.369,23.128-91.161,32.262-15.788,4.535-29.858,13.715-45.321,20.174a835.26,835.26,0,0,0-112.763,57.525c-21.16,12.9-39.287,28.691-55.2,45.293-4.75,4.952-7.87,11.245-17.649,13.033-12.309.682-21.978,6.153-33.231,8.842-129.538,30.965-261,57.083-396.247,72.531-110.181,12.584-218.687,7.37-323.37-22.084-8.214-2.311-16.475-4.485-23.174-8.68-9.76-11.493-9.229-13.085,6.172-19.26-4.725,1.38-9.06,3.794-13.939,5.453-5.987,2.034-11.262.534-14.923-3.068s-2.333-7.361,2.683-9.435c13.789-5.7,21.1-13.569,19.792-24.96-.116-1.031,1.384-2.061,1.437-3.046.162-3.048,8.467-4.734,3.582-8.225-4.482-3.2-10.428-2.039-16.169-1-29.183,5.305-56.524,14.409-85.557,19.993-6.865,1.321-13.492,4.193-21.094,2-6.774-4.3-15.416-6.227-23.227-9.21-9.123-3.484-19.833-6.306-23.4-14.387-1.874-3.731-3.754-7.383-8.014-10.327-6.509-4.5-6.046-9.367-1.315-14.666,6.418-7.193,4.485-22.206-3.136-28.793-10.6-9.16-10.453-10.87,1.515-18.1,7.346-4.437.394-16.816-11.968-20.239-19.323-5.351-39.44-4.2-59.722-3.5-26.663.918-53.426.379-79.913,3.395a14.285,14.285,0,0,1-7.386-1.339c-105.361-65.715-176.455-146.02-211.457-241.58A285.666,285.666,0,0,1,123.7,566.972c.24-32.574,7.952-64.693,20.576-96.133,1.946-4.847,4.038-9.766,9.385-13.517,4.088-3.445,6-7.446,6.187-11.892,10.3-20.161,27.793-37.391,45.83-54.375a24.964,24.964,0,0,1,12.593-6.014c21.719-7.54,45.817-9.134,68.87-13.329,66.621-12.123,97.266-43.152,102.1-84.714,2.024-17.394,1.665-34.713,2.517-52.063,2-40.566,28.062-70.552,81.394-87.96,35.124-11.467,70.969-8.284,106.692-1.1,29.03,5.833,56.34,15.021,85.207,21.177,20.988,4.474,42.169,7.455,64.354,7.331,58.8-.325,95.5-24.45,99.093-65.395,1.936-22.04-4.947-42.384-21.613-61.215C803.28,43.694,797.021,39.715,801.968,34Z" transform="translate(0 0)" fill="#fff"/>
    <path id="Path_2262" data-name="Path 2262" d="M552.832,482.661c5.276-10.027,13.47-17.971,20.838-26.2,4.591-5.127,11.424-9.162,17.458-13.406,9.085-6.389,18.187-12.741,27.967-18.064,1.6-.869,4.364-1.355,1.958-4.365-.833-1.042-.2-2.691,1.238-3.312,1.392-.6,3.179-.976,3.974.668.843,1.743,1.56,2.246,3.351,1.265,8.85-4.844,17.743-9.61,26.764-14.481-1.4-1.859-4.416-2.614-3.226-5.588,1.282-3.2,4.1-2.078,6.459-2.2,3.137.877,5.729.041,8.285-2,3.24-2.583,7.114-4.247,10.545-6.6,2.92-2.006,4.926-4.277,4.984-8.046.06-3.895,2.435-5.414,6.176-5.612,7.152-.38,10.084-4.025,9.331-11.245-.368-3.539,1.309-5.863,4.659-6.58,3.182-.681,4.806-2.7,5.993-5.4,7.93-18.018,5.04-34.95-5.149-51.152a3.984,3.984,0,0,0-2.675-2.06c-3.866-.7-5.448-2.825-4.362-6.749.71-2.568-.978-4.409-2.161-6.379-4.957-8.253-9.9-16.47-12.144-26.028-3.156-13.424,1.359-25.3,7.435-36.69,4.6-8.626,9.852-16.962,17.068-23.772,1.535-1.449,1.61-3.649,3.167-4.985,8.275-6.841,16.3-14.009,25.854-19.142,9.04-4.857,18.061-9.742,27.841-13.012,2.025-.677,4.093-1.6,6.1.079v50.843c-1.764,4.547-5.257,7.887-8.157,11.643-9.487,12.288-15.717,25.977-17.94,41.407-2.954,20.5,2.129,39.756,8.874,58.807,3.462,9.778,7.617,19.276,11.777,28.745a116.694,116.694,0,0,1,5.446,16.912V475.639c-4.229,10.018-13.439,14.278-22.281,18.724-10.725,5.392-22.35,8.539-33.766,12.071-16.017,4.954-31.042,11.466-42.987,23.652-1.434,1.463-3.5,1.908-4.892,3.375H536.73c-3.079-2.507-2.622-5.96-2.135-9.183a107.907,107.907,0,0,1,9.765-31.633A25.6,25.6,0,0,1,552.832,482.661Z" transform="translate(1170.001 580)" fill="#a2a2a2"/>
    <path id="Path_2263" data-name="Path 2263" d="M340.868,34c12.01,15.326,14.884,32.092,6.823,49.945-5.14,11.383-14.936,16.269-27.273,16.922-12.156.645-23.379-2.734-34.449-7.03-9.159-3.555-18.31-6.972-28.109-8.55-18.93-3.048-39.011,9.713-43.813,28.175a55.916,55.916,0,0,0-2.1,16.24,149.035,149.035,0,0,1-1.067,24.34c-1.184,9.34-5.493,17.018-11.057,24.6-3.98,5.427-9,7.5-14.625,9.669a88.971,88.971,0,0,1-18.695,5.254c-2.468.375-4.962.731-6.921,2.523-1.753,1.6-3.641,1.293-5.57.387-20.546,2.62-40.491-3.849-60.858-4.035-4.18-.038-8.288.551-12.433.783-2.714.153-3.725,2.174-4.439,4.65-1.837,6.377-6.764,7.658-11.44,2.828-2.22-2.294-4.186-2.244-6.635-.965-6.257,3.267-12.631,6.3-17.828,11.293-4.862,4.672-11.273,7.2-16.5,11.407a2.33,2.33,0,0,1-2.783-.022V177.559c4.29-2.8,8.4-.047,12.487.593,26.131,4.1,50.057-.084,70.581-17.893,6.236-5.411,8.765-12.128,8.924-20.379.16-8.322-.948-16.526-1.114-24.8-.368-18.326,8.895-30.479,24.915-38,8.959-4.208,18.6-5.44,28.468-6.331,14.526-1.312,29.065.124,43.509-.976,20.7-1.577,40.922-5.33,58.192-18.251A83.266,83.266,0,0,0,279.58,39.472,24.022,24.022,0,0,1,285.907,34Z" fill="#e8e8e8"/>
    <path id="Path_2264" data-name="Path 2264" d="M21.094,222.421c10.268-7.306,19.684-15.8,30.7-22.052,2.886-1.638,5.86-3.148,8.89-4.5,2.707-1.208,5.945-3.467,5.88,2.555-.02,1.884,1.983,3.048,4.108,2.662,2.081-.378,3.658-2.089,3.09-3.872-2.39-7.5,3.34-6.161,7.09-6.624,11.786-1.456,23.5.081,35.206,1.243,10.713,1.064,21.28,3.743,32.184,2.719,2.081-.195,4.433-.45,5.764,1.929A125.789,125.789,0,0,0,137,223.434a4.821,4.821,0,0,0-1.976,4.992c-1.392,4.34-3.552,8.306-2.665,13.383.535,3.062-2.992,5.712-3.591,9.349-6.057,36.8-.476,71.968,14.268,105.912,12.254,28.21,30.14,52.54,51.9,74.147.937.93,2.024,1.71,3.041,2.561.366,2.234-1.182,3.026-2.861,3.319q-13.269,2.315-26.341,5.529c-1.292.316-2.611-.378-3.908-.646-3.6-3.336-2.777-8.08-3.729-12.206-2.706-11.727-4.93-23.546-9.791-34.691-8.733-20.019-23.834-31.272-45.517-34.133-24-3.165-46,3.158-67.221,13.475-4.182,2.033-8.378,4.064-12.418,6.375-1.74,1-3.363,1.373-5.1.131Z" transform="translate(0 366.89)" fill="#f7f7f7"/>
    <path id="Path_2265" data-name="Path 2265" d="M770.565,161.608c-14.717,5.681-29.072,12.071-42.164,21.017-5.625,3.844-10.538,8.521-15.716,12.892a22.171,22.171,0,0,1-14.449,4.411c-7.186-.2-14.269,1.015-21.393,1.43-9.585.558-19.266.874-28.827-.808-2.627-.462-5.313-1.024-6.378-4.033-12.771-2.483-23.7-8.973-34.5-16.013.718-1.793,3.14-.222,4.559-2.473a29.173,29.173,0,0,1-12.058-4.532c-3.245-2.259-7.169-3.546-10.422-5.8-2.853-1.974-7.288-3.475-4.906-8.69.479-1.05-1-1.523-1.705-2.151-3.094-2.758-6.22-5.481-9.288-8.267-.853-.774-2.121-1.659-2.222-2.6-.717-6.675-6.336-10.174-9.565-15.2-.762-1.187-2.344-2.734-.85-3.9,1.452-1.131,2.691.8,3.63,1.756a38.573,38.573,0,0,1,3.547,4.761c1.6,2.231,2.621,4.665,6.532,3.829,4.081-.873,3.335,4.078,5.342,6.15.979-6.295-.418-8.942-7.252-14.851a96.23,96.23,0,0,1-7.089-6.965c-.724-.77-1.663-2-.449-3.046.885-.763,1.877.022,2.71.536,3.968,2.449,8.456,3.376,12.552,4.858.877-1.077.635-1.648.134-2.146-1.122-1.115-3.466-1.883-2.6-3.744,1.038-2.22,3.581-1.4,5.4-1.016,3.695.775,7.291,2.5,10.728-.8.527-.5,1.984-.375,2.884-.111a27.884,27.884,0,0,0,19.186-1c2.8-1.155,6.247-.6,9.364.131,3.172.744,3.491,3.17,3.322,5.815-.1,1.486-.364,2.963-.438,4.45-.045.886.35,1.683,1.386,1.7s1.274-.718,1.4-1.64c.413-2.914-1.442-6.715,2.2-8.417,2.794-1.3,5.847.045,8.746.855a10.535,10.535,0,0,0,3.45-.121c5.883-.45,5.9-.443,7.982,5.505,2.143-8.1,8-6.769,13.272-5.841,2.887.507,4.437-2.269,7.013-1.808.861-2,3.123-1.833,4.556-2.946,3.078-1.539,6.723-.563,9.781-2.194,1.663-.418,3.567.087,4.98-1.3,2.99-1.242,6.39-.994,9.3-2.547a5.269,5.269,0,0,0,4.226-1.187c4.8-1.705,10.086-1.54,14.71-3.9,2.822.459,5.153-.678,7.342-2.281,11.559-2.307,22.884-5.694,34.546-7.522,2.547-.4,5.258-1.473,7.482.943Z" transform="translate(1170.001)" fill="#e8e8e8"/>
    <path id="Path_2266" data-name="Path 2266" d="M266.861,487.444a252.385,252.385,0,0,0,25.022-8.263c4.317-1.636,8.737-3.023,13.177-4.292.89-.254,2.73-1.378,2.618,1.855-.072,2.1,4.209,1.24,6.388,2.591-.252.394-.435,1.031-.728,1.086-5.207.977-7.312,3.9-6.707,9.268.321,2.848-1.8,4.794-4.264,6.214-1.527.881-2.907,2.014-5.211,3.64,5.841,1.178,9.712-3.172,14.871-2.682-2.047,3.816-9.673,3.115-7.207,9.593-1.244,1.882,1.646,3.577.252,5.467-.839,1.833-2.828,2.6-3.9,4.211-2.757,2.462-6.218,3.9-9.114,6.166a8.814,8.814,0,0,0-3.616,2.038,71.213,71.213,0,0,1-13.456,6.09c-1.785,1.483-4.586.939-6.063,3.035q-121.712,0-243.422.108c-3.937.007-4.542-1.095-4.494-4.675.211-15.755.091-31.515.091-47.273,2.229-1.739,4.386-.759,6.454.284a11.023,11.023,0,0,0,5.835,1.634c2.515,1.723,5.142,3.072,8.354,2.445,2.169,1,4.534,1.115,6.841,1.5,3.35,1.823,7,1.987,10.689,1.9a8.122,8.122,0,0,0,7.079.733c5.983.951,11.81,2.858,17.946,2.885,3.277,3.193,7.384,1.085,11.064,1.7a33.872,33.872,0,0,0,14.61,1.9c3.745,1.5,7.539,2.3,11.59,1.165a6.793,6.793,0,0,1,4.843.33c2.333,1.957,4.528-.8,6.823-.254a12.588,12.588,0,0,0,9.574.277,5.221,5.221,0,0,1,3.874-.128c2.432,1.549,4.785-.445,7.187-.226,4.585,2.673,9.244-.157,13.858.117,1.852.6,3.315-.937,5.054-.968,3.084,1.367,5.84.411,8.493-1.243a22.715,22.715,0,0,0,9.644-1.086c2.648.778,4.739-1.432,7.259-1.355,15.855-2.765,32.03-3.413,47.742-7C253.125,484.571,259.974,485.4,266.861,487.444Z" transform="translate(0 580)" fill="#a2a2a2"/>
    <path id="Path_2267" data-name="Path 2267" d="M21.094,173.571V124.722c1.817-2.522,4.277-1.965,6.786-1.49,10.357,1.961,20.715,2.837,31.255,1.119,14.546-2.37,25.061-9.918,31.851-22.974,5.455-10.486,9.071-21.765,14.555-32.251,5.6-10.709,12.9-20.107,20.679-29.231,2.4-2.816,5.56-4.379,8.793-5.893h145.9c1.426,3.374-1.106,5.269-2.9,7.313-12.647,14.434-29.13,21.81-47.546,25.673-18.1,3.8-36.47,2.355-54.737,3.106-12.824.528-25.628,1.236-37.828,6.623-20.469,9.039-28.519,25.559-25.293,46.877a90.555,90.555,0,0,1,.208,21.42c-.771,8.785-6.9,14.54-13.554,19.391-16.4,11.953-35.056,16.466-55.084,15.041a95.777,95.777,0,0,1-17.455-2.666A10.362,10.362,0,0,1,21.094,173.571Z" fill="#e8e8e8"/>
    <path id="Path_2268" data-name="Path 2268" d="M135.013,34c-8.584,9.469-17.272,18.846-23.736,30A205.2,205.2,0,0,0,97.824,92.856c-7.361,18.953-19.491,32.286-41.07,34.437a96.376,96.376,0,0,1-26.811-1.107c-2.942-.53-5.9-.978-8.849-1.464,0-29.172.052-58.344-.083-87.515-.013-2.819.644-3.287,3.351-3.279Q79.686,34.093,135.013,34Z" fill="#f7f7f7"/>
    <path id="Path_2269" data-name="Path 2269" d="M303.738,511.551c-.024-1.78-2.573-4.094,1.082-5.1a168.678,168.678,0,0,0,53.487,15c29.626,3.476,58.679-.6,87.415-7.477,29.422-7.038,58.673-14.743,87.378-24.358,6.613-2.215,13.156-4.635,19.732-6.961a108.735,108.735,0,0,0-15.548,40.426c-.576,3.485-.379,6.918-.554,10.374H336.871c-10.409-5.717-19.6-13.468-30.564-18.263C304.8,514.539,303.2,513.742,303.738,511.551Z" transform="translate(659.507 580)" fill="#f7f7f7"/>
    <path id="Path_2270" data-name="Path 2270" d="M182.075,498.509c-3.034.458-6.023,1.311-9.141,1.036-10.85-2.247-16.685-10.282-21.7-19.057a79.56,79.56,0,0,1-8.308-21.717c-.815-3.538-1.993-6.974-2.846-10.5-2.4-14.255-5.7-28.274-11.494-41.583A47.071,47.071,0,0,0,116.4,389.873c-13.6-11.92-29.856-14.9-47.145-13.083a156.055,156.055,0,0,0-31.444,6.719c21.627-6.667,42.62-6.534,61.878,6.966,12.419,8.706,20.093,21.048,24.415,35.473a202.429,202.429,0,0,1,5.838,23.168c2.864,9.163,5.011,18.536,9.6,27.145,5.012,9.415,12.207,15.953,22.312,19.519,2.656.937,6.486.659,7.177,4.757l-15.143-.023c-13.212-3.146-19.617-13.313-24.8-24.444a84.173,84.173,0,0,1-7.021-23.207c-3.985-12.254-5.917-25.174-12.137-36.7-9.6-17.8-24.844-26.651-44.725-27.719a95.431,95.431,0,0,0-39.031,6.385c-1.652.622-3.36,1.756-5.068.062V380.931c17.49-10.189,35.842-18.19,55.987-21.413,20.051-3.209,39.479-2.293,56.88,9.8,11.717,8.146,18.3,19.951,22.6,33.1,4.073,12.464,6.313,25.387,8.541,38.288,3.382,1.565,3.608,4.844,4.34,7.874,2.809,11.626,6.067,23.068,13.661,32.708,2.269,2.879,4.7,5.577,8.011,7.315,1.571,3.07,6.435,2.971,6.886,7.117-2.261,1.174-4.717.761-7.109.864a10.03,10.03,0,0,1-8.39-2.7c-15.225-13.631-20.146-31.963-23.414-51.052-2.737-11.283-4.348-22.82-7.7-33.966-3.839-12.762-9.121-24.694-20.139-33.041-12.131-9.189-26.232-12.221-41.022-11.171-13.939.989-27.69,3.682-38.319,7.331,11.045-4.3,25.154-6,39.657-3.6,22.557,3.726,38.141,16.325,46.873,37.321,5.132,12.339,7.968,25.32,10.225,38.435,2.689,10.751,5.2,21.574,10.606,31.4,4.244,7.726,9.963,13.995,18.256,17.572C178.431,495.424,182.536,495.056,182.075,498.509Z" transform="translate(0 580)" fill="#b1b1b1"/>
    <path id="Path_2271" data-name="Path 2271" d="M770.565,481.621c0,16.283-.063,32.566.067,48.848.02,2.495-.566,3.064-3.065,3.056-31.977-.1-63.954-.064-95.932-.064-1.447-2.612.526-4.028,2.041-5.484,8.93-8.586,19.743-14.023,31.2-18.334,14.358-5.4,29.513-8.538,43.382-15.363,6.157-3.03,12.151-6.21,17.151-10.991C766.851,481.908,768.231,480.282,770.565,481.621Z" transform="translate(1170.001 580)" fill="#a2a2a2"/>
    <path id="Path_2272" data-name="Path 2272" d="M770.565,218.433V359c-2.389.715-3.118-.936-3.886-2.645-9.188-20.429-18.327-40.942-21.879-63.235-4.136-25.956,1.795-49.545,18.662-70.069C765.311,220.8,766.227,216.942,770.565,218.433Z" transform="translate(1170.001 298.186)" fill="#a2a2a2"/>
    <path id="Path_2273" data-name="Path 2273" d="M761.572,34c3,0,7.165-1.167,8.664.329s.329,5.653.329,8.644V63.91c-1.294,3.589-3.938,5.877-7.1,7.865-9.675,6.075-20.238,9.689-31.581,8.885-13.33-.944-25.045-6.839-35.656-14.76a171.833,171.833,0,0,1-28.617-27.469c-1.154-1.374-2.01-2.652-.969-4.429h9.993c6.106,2.721,10.8,7.542,16.439,10.97,8.558,5.2,17.732,9.023,27.8,8.806,10.509-.226,20.116-3.916,28.707-10.206C753.716,40.54,756.925,36.376,761.572,34Z" transform="translate(1170.001)" fill="#f7f7f7"/>
    <path id="Path_2274" data-name="Path 2274" d="M770.565,92.821l-41.829,8.949c-6.683,1.021-11.453-3.247-16.511-6.287a108.724,108.724,0,0,1-20.293-15.816C680.475,68.379,669.268,56.842,657.764,45.6c-2.243-2.192-4.322-4.535-7.025-6.278-1.751-1.128-3.625-2.688-2.088-5.322h12.991c4.247,2.438,7.385,6.023,10.613,9.635,10.726,12,22.524,22.741,36.978,30.281,19.081,9.953,37.523,8.527,55.431-2.844,1.947-1.236,3.488-2.931,5.9-1.183Z" transform="translate(1170.001)" fill="#f7f7f7"/>
    <path id="Path_2275" data-name="Path 2275" d="M21.094,394.888c9.449-3.582,18.859-7.3,29.012-8.48,23.672-2.747,44.284,2.582,58.771,22.959,6.325,8.895,9.245,19.363,11.994,29.784,1.178,4.465,2.022,9.018,3.018,13.53-3.736,4.881-9.017,5.512-14.616,5.289-2.663-1.213-2.431-3.873-3.122-6.1-3.661-11.82-6.858-23.853-14.477-33.983-9.35-12.431-21.84-19.369-37.191-21.979-9.679-1.645-18.887-.32-28.2,1.819-1.656.38-3.721.984-5.188-.842Z" transform="translate(0 477.539)" fill="#f7f7f7"/>
    <path id="Path_2276" data-name="Path 2276" d="M21.094,173.571c10.955,2.019,21.851,4.535,33.116,3.984,19.128-.935,36.031-7.16,50.048-20.58A21.5,21.5,0,0,0,111,140.929c.089-6.967-.24-13.9-.828-20.871-2.366-28.011,13.6-43.069,38.118-49.036,12.161-2.96,24.7-3.338,37.2-3.107,17.353.322,34.588-.239,51.513-4.742C254.986,58.389,270.08,49.428,280.911,34h5c-7.414,12.62-18.355,21.331-31.394,27.445-16.408,7.693-34,10.159-51.924,10.392-15.951.207-31.925-.375-47.773,2.065-10.926,1.683-20.965,5.614-29.193,13.065-10.552,9.557-13.036,21.908-11.147,35.49a98.362,98.362,0,0,1,.282,22.356C113.51,158.7,103,165.361,92.305,171.374c-22.735,12.778-46.767,12.2-71.211,6.185Z" fill="#f7f7f7"/>
    <path id="Path_2277" data-name="Path 2277" d="M21.094,404.858V400.87a9.564,9.564,0,0,1,5.167-3.3c23.739-5.822,45-1.818,62.247,16.372,8.459,8.924,12.555,20.344,15.694,32,1.049,3.893,3.675,7.594,2.194,11.974-3.729,4.605-8.436,7.208-14.494,7.057-2.585-.4-2.91-2.523-3.65-4.5-2.92-7.812-5.058-15.928-9.334-23.214-11.305-19.269-27.592-30.235-50.441-30.426C25.856,406.806,23.021,407.5,21.094,404.858Z" transform="translate(0 580)" fill="#f7f7f7"/>
    <path id="Path_2278" data-name="Path 2278" d="M21.094,416.821v-6.979c1.061-2.565,3.144-2.906,5.672-3.04,25.349-1.34,46.955,15.983,55.418,36.922,2.321,5.743,4.167,11.643,6.236,17.47.526,1.482,1.012,3.044.057,4.58-2.972,5.894-8.579,7.041-14.328,7.94-2.414-.48-2.793-2.637-3.518-4.42-2.552-6.269-4.866-12.65-8.11-18.6C54.263,435.54,42.4,424.6,25.434,419.886,23.513,419.352,22.373,418.074,21.094,416.821Z" transform="translate(0 580)" fill="#f7f7f7"/>
    <path id="Path_2279" data-name="Path 2279" d="M721.646,103.689a54.211,54.211,0,0,1-14.9,4.065c-5.419-1.039-8.651-5.292-12.286-8.725-10.981-10.372-20.89-21.821-32.126-31.953C649.757,55.731,636.33,45.739,619.83,40.763A101.347,101.347,0,0,0,589.309,36.9c-2.025.021-4.75.7-4.613-2.9h56.96c10.572,4,17.2,12.875,24.96,20.3,14.362,13.746,27.023,29.332,44.045,40.18,2.785,1.775,5.637,3.434,8.481,5.108C720.724,100.522,722.573,101.25,721.646,103.689Z" transform="translate(1170.001)" fill="#f7f7f7"/>
    <path id="Path_2280" data-name="Path 2280" d="M21.094,434.765V420.808c2.135-2.062,4.375-1.043,6.667-.3,14.872,4.82,25.612,14.674,33.492,27.782,4.317,7.18,6.973,15.18,10.177,22.9.479,1.154.971,2.479.168,3.771-3.034,4.9-7.624,7.315-13.185,8.153-3.3.1-3.878-2.727-4.98-4.814-4.692-8.885-8.579-18.193-15.036-26.109a62.562,62.562,0,0,0-10.061-10.1C25.593,439.962,22.842,437.862,21.094,434.765Z" transform="translate(0 580)" fill="#f7f7f7"/>
    <path id="Path_2281" data-name="Path 2281" d="M678.566,114.742a9.62,9.62,0,0,1-4.92,1.006,162.169,162.169,0,0,0-30.514-23.682c-17.666-10.831-36.977-14.789-57.577-14.3-16.746.4-33.616.321-49.6-5.745-19.341-7.337-34.19-20.593-46.8-36.6A3.958,3.958,0,0,1,488.764,34h5c3.517,1.267,6.052,3.691,8.522,6.45,5.664,6.327,12.567,11.284,19.3,16.419,12.619,8.277,26.339,12.585,41.516,13.8,15.086,1.2,30.225-.467,45.24,1.737,18.839,2.767,35.464,10.448,50.271,22.225a10.283,10.283,0,0,0,3.6,2.194,123.568,123.568,0,0,1,14.656,12.4C678.331,110.7,680.186,112.239,678.566,114.742Z" transform="translate(1170.001)" fill="#b1b1b1"/>
    <path id="Path_2282" data-name="Path 2282" d="M682.627,34h73.948c1.156,2.053.03,3.523-1.364,4.8-7.873,7.205-16.772,12.119-27.512,14.1-17.5,3.225-30.887-4.968-43.956-14.528A3.135,3.135,0,0,1,682.627,34Z" transform="translate(1170.001)" fill="#f7f7f7"/>
    <path id="Path_2283" data-name="Path 2283" d="M693.555,111.754l-4.874.99c-4.752-1.1-7.981-4.573-11.37-7.612-5.75-5.153-11.2-10.653-16.528-16.232-1.859-1.948-4.511-1.821-6.082-3.75-15.69-13.8-33.693-22.018-54.743-23.891-14.731-1.31-29.622.228-44.234-2.826a64.9,64.9,0,0,1-18.241-6.509c-6.047-3.022-12.044-6.18-17.1-10.724-2.027-1.823-5.427-3.31-3.643-7.2h6a51.262,51.262,0,0,1,12.945,6.509,51.905,51.905,0,0,0,11.286,5.194c5.209,3.816,11.562,3.445,17.453,4.636,8.173,1.653,16.517.912,24.791,1.194,14.458.493,28.759,1.946,42.275,7.762A55.364,55.364,0,0,1,643.577,66a14.979,14.979,0,0,0,6.563,3.032,365.723,365.723,0,0,1,40.671,36.127C692.481,106.9,695.427,108.418,693.555,111.754Z" transform="translate(1170.001)" fill="#b1b1b1"/>
    <path id="Path_2284" data-name="Path 2284" d="M105.089,457.681c-2.9-13.532-6.875-26.7-14.956-38.148-8.79-12.451-21.312-18.868-36.124-21.716-11.374-2.188-22.04,1.062-32.915,3.053v-3.988c15.663-4.794,31.311-5.608,46.857.412,17.031,6.6,28.185,18.912,34.3,35.865,2.806,7.784,5.148,15.735,7.7,23.61,2.679,1.019,3.371,3.457,4.191,5.815,1.958,5.629,3.806,11.271,6.79,16.516a35.9,35.9,0,0,0,20.165,16.779c2.317.8,6.016.531,5.987,4.632l-14.185,0c-9.463-2.051-15.3-8.475-19.815-16.442a109.245,109.245,0,0,1-8.445-20.123C103.895,461.684,104.579,459.741,105.089,457.681Z" transform="translate(0 580)" fill="#b1b1b1"/>
    <path id="Path_2285" data-name="Path 2285" d="M48,489.673c-2.3-.2-4.714.266-6.816-1.131a17.854,17.854,0,0,1-8.226-7.524c-3.832-6.517-9.023-12.207-11.86-19.336V439.75c2.011-1.45,3.513-.547,5.3.738,8.489,6.1,14.629,14.177,19.636,23.151,3.291,5.9,5.913,12.159,9.263,18.039a3.381,3.381,0,0,1,.268,3.3C54.382,488.7,51.471,489.637,48,489.673Z" transform="translate(0 580)" fill="#f7f7f7"/>
    <path id="Path_2286" data-name="Path 2286" d="M584.7,34c1.915,1.412,4.149,1.021,6.263.971,25.253-.593,47.059,7.956,65.857,24.567,9.661,8.537,19.417,16.909,27.958,26.691,6.721,7.7,14.607,14.386,21.976,21.523-1.251.988-2.765.99-4.244,1.125-3.971-.139-6.92-2.126-9.636-4.882-9.2-9.339-18.554-18.535-27.827-27.807-9.706-9.7-20.549-17.928-31.941-25.568-5-3.356-10.587-3.87-16.018-5.378-7-2.862-14.443-3.237-21.823-3.712-4.757-.307-9.552-.189-14.334-.275-6.289-.589-12.309-2.733-18.665-3.031-2.234-.1-4.114-1.357-3.547-4.224Z" transform="translate(1170.001)" fill="#b1b1b1"/>
    <path id="Path_2287" data-name="Path 2287" d="M770.565,218.433c-10.838,10.519-17.8,23.285-21.952,37.681-6.686,23.173-1.275,45.233,6.577,66.923,4.107,11.342,9.106,22.362,13.745,33.51a15.063,15.063,0,0,0,1.63,2.452v10.966c-6.091-11.57-10.819-23.751-15.736-35.823-6.314-15.5-11.647-31.389-12.981-48.2-1.375-17.317,1.4-33.946,9.939-49.373,5-9.033,10.571-17.586,18.778-24.116Z" transform="translate(1170.001 302.937)" fill="#f7f7f7"/>
    <path id="Path_2288" data-name="Path 2288" d="M87.1,465.656c-4.594-18.693-11.351-36.2-28.287-47.465C47.421,410.615,35,406.638,21.094,409.842v-4.984c13.328-.652,26,1.007,37.83,8.1,14.721,8.827,22.72,22.275,28.288,37.753,1.565,4.35,2.473,8.946,4.8,13.017,2.557.56,3.011,2.822,3.815,4.762,2.207,5.325,4.277,10.717,7.805,15.371a36.067,36.067,0,0,0,18.3,12.88c1.854.588,4.538.6,4.164,3.771-5.371.709-10.632-1.42-16.006-.62-12.919-4.8-18.231-15.785-22.646-27.555A8.983,8.983,0,0,1,87.1,465.656Z" transform="translate(0 580)" fill="#b1b1b1"/>
    <path id="Path_2289" data-name="Path 2289" d="M770.565,69.891c-5.924,3.328-11.522,7.163-18.008,9.561-18.157,6.712-34.766,2.416-50.457-7-15.718-9.438-27.9-22.907-39.783-36.6A5.678,5.678,0,0,1,661.642,34h5c11.64,13.676,23.924,26.631,39.67,35.79,22.067,12.836,41.71,11.567,61.888-4.07.786-.609,1.579-1.208,2.368-1.812Z" transform="translate(1170.001)" fill="#b1b1b1"/>
    <path id="Path_2290" data-name="Path 2290" d="M516.744,34c5.549,7.246,13.616,11.166,21.076,15.887a2.476,2.476,0,0,1-1.061,2.6c-5.441,2.6-10.555,6.261-17.082,5.522A94.662,94.662,0,0,1,493.76,34Z" transform="translate(783.556)" fill="#f7f7f7"/>
    <path id="Path_2291" data-name="Path 2291" d="M770.565,481.621c-15.521,15.651-36.273,20.423-56.193,26.982-15.983,5.263-31.381,11.63-42.737,24.858h-5c2.489-5.256,6.948-8.734,11.383-12.114,12.34-9.4,26.729-14.4,41.394-18.77,14.306-4.263,28.555-8.733,40.722-17.8,3.694-2.754,6.963-6.074,10.427-9.135Z" transform="translate(1170.001 580)" fill="#f7f7f7"/>
    <path id="Path_2292" data-name="Path 2292" d="M721.646,103.689c-18.2-9.3-32.446-23.4-46.587-37.735C665.051,55.808,655.576,45.049,643.9,36.636A14.408,14.408,0,0,1,641.656,34h6.995c1.967,3.429,5.666,5,8.327,7.714,9.937,10.152,20.2,19.985,30.092,30.183,12.1,12.484,25.7,22.79,41.666,29.871A11,11,0,0,1,721.646,103.689Z" transform="translate(1170.001)" fill="#b1b1b1"/>
    <path id="Path_2293" data-name="Path 2293" d="M70.139,474.585c-4.917-13.388-9.6-26.847-20.024-37.359-8.17-8.24-17.629-13.968-29.021-16.418v-3.987c22.123,4.059,36.338,17.788,45.573,37.4,2.809,5.966,5.01,12.217,7.489,18.337a6.363,6.363,0,0,1,4.383,3.565c3.764,6.971,7.884,13.66,15.131,17.7,1.362.76,2.244,1.962,1.449,3.69a46.145,46.145,0,0,1-11.183-1.995,25.03,25.03,0,0,1-11.379-10.641C70.743,481.627,69.226,478.424,70.139,474.585Z" transform="translate(0 580)" fill="#b1b1b1"/>
    <path id="Path_2294" data-name="Path 2294" d="M558.715,34c5.285,3.7,11.587,2.973,17.491,3.943a39.65,39.65,0,0,0,5.416.168,2.217,2.217,0,0,1-2.048,2.815c-11.7,1.717-22.663,7.153-34.753,6.9A72.949,72.949,0,0,1,522.74,34Z" transform="translate(849.482)" fill="#f7f7f7"/>
    <path id="Path_2295" data-name="Path 2295" d="M682.627,34c10.344,10,22.506,17.267,36.927,17.6,14.722.335,27.314-6.2,37.021-17.6h5c-5.13,8.914-13.427,14.031-22.488,17.862-19.565,8.272-36.983,2.793-53.125-9.155-3.418-2.53-7.139-4.827-9.327-8.707Z" transform="translate(1170.001)" fill="#b1b1b1"/>
    <path id="Path_2296" data-name="Path 2296" d="M290.974,520.471c3.6-.984,4.154-6.533,8.851-5.867a11.185,11.185,0,0,1,7.776,1.216c7.46,3.937,14.868,7.921,21.5,13.207,1.557,1.24,2.838,2.289,1.772,4.434H307.891c-5.57-2.054-9.908-6.021-14.643-9.374A4.6,4.6,0,0,1,290.974,520.471Z" transform="translate(445.07 580)" fill="#f7f7f7"/>
    <path id="Path_2297" data-name="Path 2297" d="M54.143,484.547C47.32,471.921,42.377,458.137,31.7,447.88a46.718,46.718,0,0,0-10.6-8.13v-4.985c10.6,5.194,18.2,13.576,24.124,23.457,4.577,7.629,8.536,15.626,12.77,23.459,5.626,2.646,8.55,6.569,8.113,10.885-2.34-.07-4.724.328-6.979-.651C56.434,490.151,53.149,488.788,54.143,484.547Z" transform="translate(0 580)" fill="#b1b1b1"/>
    <path id="Path_2298" data-name="Path 2298" d="M274.056,528.51l13.823-5.946c5.605.054,8.893,4.184,12.722,7.3,1.122.912,1.082,2.321.295,3.6H277.913C276.349,532.026,272.583,532.3,274.056,528.51Z" transform="translate(409.39 580)" fill="#f7f7f7"/>
    <path id="Path_2299" data-name="Path 2299" d="M330.875,533.461c-9.043-8.428-20.078-13.592-31.05-18.857l3.913-3.053a149.575,149.575,0,0,1,30.109,18.214c1.291,1.035,2.843,1.786,3.024,3.7Z" transform="translate(457.569 580)" fill="#b1b1b1"/>
    <path id="Path_2300" data-name="Path 2300" d="M21.094,461.682c4.768,3.549,7.329,8.847,10.7,13.5,3.193,4.408,6.262,8.905,9.387,13.363-2.989-.246-5.812-.937-8.123-3.006-6.762-3.668-9.4-10.246-11.963-16.875Z" transform="translate(0 580)" fill="#b1b1b1"/>
    <path id="Path_2301" data-name="Path 2301" d="M21.094,468.661c5.157,4.8,8.253,11.054,11.963,16.876-4.292-.381-8.143-2.1-11.963-3.916Z" transform="translate(0 580)" fill="#f7f7f7"/>
    <path id="Path_2302" data-name="Path 2302" d="M300.9,533.461c-3.279-4.892-9.1-6.76-13.017-10.9l3.1-2.091c6.327,3.438,12.261,7.385,16.917,12.989Z" transform="translate(427.745 580)" fill="#b1b1b1"/>
    <path id="Path_2303" data-name="Path 2303" d="M274.056,528.51l3.857,4.951h-8.994C269.119,530.249,271.79,529.588,274.056,528.51Z" transform="translate(391.448 580)" fill="#b1b1b1"/>
    <path id="Path_2304" data-name="Path 2304" d="M641.638,196.517a100.182,100.182,0,0,0,25.571,2.315c13.255-.244,26.391-1.654,39.589-2.337a50.816,50.816,0,0,0,5.887-.978c-8.816,10.984-17.328,22.042-23.335,35.03-7.346,15.881-5.443,30.522,3.118,44.992,2.447,4.135,5.022,8.2,7.426,12.355.962,1.664,3.052,3.529-.246,5.151a1.524,1.524,0,0,0-.463,2.207,1.8,1.8,0,0,0,2.649.391c1.024-.759,1.644-2.286,2.91-.133,6.352,10.8,11.865,21.815,11.914,34.821.037,9.542-2.845,18.234-6.641,26.775-.839,1.887-2.131,2.013-3.975,2.046-4.984.087-6.055,1.93-3.467,6,.857,1.347,1.167,2.081.084,3.365-2.56,3.034-4.961,6.2-7.464,9.284-.994,1.224-1.986,1.429-3.313.182a3.764,3.764,0,0,0-5.046-.222,3.464,3.464,0,0,0-.785,4.555c1.341,2.463.228,3.528-1.684,4.773-6.522,4.245-12.925,8.671-19.446,12.919-4.668,3.041-5.094,2.748-5.308-3.03,2.829-9.935,4.552-19.942,4.142-30.4-.471-11.985-4.68-22.566-10.113-32.966-8.146-15.592-19.162-29.463-26.681-45.457-9.475-20.155-8.507-40.128-.494-60.293C630.766,217.05,636.211,206.788,641.638,196.517Z" transform="translate(1170.001 319.928)" fill="#f7f7f7"/>
    <path id="Path_2305" data-name="Path 2305" d="M189.916,490.606c-7.952-4.377-12.282-11.774-15.906-19.574-4.475-9.634-6.76-19.974-8.909-30.323l32.876-6.932c2.3-.236,4.611-.462,6.914-.711,12.6-1.357,25.224-2.158,37.781-.007,3.9.667,8.535,1.439,8.255,7.357-.056,1.183,1.322,1.8,2.247,2.505,1.052.8,2.375,1.6,1.857,3.166-.5,1.521-2.049,1.373-3.346,1.625-1.495.29-3.754-.9-4.294,1.254-.369,1.478,1.57,2.332,2.508,3.457,1.8,2.16,4.862,3.977,2.33,7.568-.656.931.212,1.909.706,2.737,1.412,2.365,1.675,4.189-1.521,5.409-2.4.915-2.495,2.383-.228,3.892,2.035,1.354,2.783,3.226,1.726,5.591-1.019,2.913-3.505,3.829-6.171,4.273-16.146,2.687-32.015,6.75-48.129,9.586C195.672,492,192.7,492.049,189.916,490.606Z" transform="translate(255.469 580)" fill="#e8e8e8"/>
    <path id="Path_2306" data-name="Path 2306" d="M189.916,490.606l63-12.986c3.906,4.326,9.579,6.155,13.949,9.824-.92.333-1.958,1.127-2.743.929-10.628-2.687-20.528,2.074-30.8,2.813-11.874.856-23.5,3.425-35.321,4.537A17.259,17.259,0,0,1,189.916,490.606Z" transform="translate(293.634 580)" fill="#f7f7f7"/>
    <path id="Path_2307" data-name="Path 2307" d="M658.467,382.9c-.091,2.041-1.277,2.887-3.225,2.888a2.164,2.164,0,0,1-2.464-2.406c-.01-1.922.77-3.218,2.862-3.242C657.426,380.12,658.349,381.115,658.467,382.9Z" transform="translate(1170.001 406.615)" fill="#a2a2a2"/>
    <path id="Path_2308" data-name="Path 2308" d="M642.48,401.038a2.57,2.57,0,0,1-2.871,2.621c-2.035-.053-2.926-1.282-2.732-3.2.179-1.758,1.38-2.517,3.069-2.379C641.7,398.224,642.475,399.332,642.48,401.038Z" transform="translate(1170.001 427.6)" fill="#a2a2a2"/>
    <path id="Path_2309" data-name="Path 2309" d="M224.751,100.374c1.9.2,2.927,1.12,2.913,2.859a2.16,2.16,0,0,1-2.554,2.289c-1.685-.084-2.821-.93-2.767-2.735C222.39,101.209,223.518,100.6,224.751,100.374Z" transform="translate(316.337)" fill="#e8e8e8"/>
    <path id="Path_2310" data-name="Path 2310" d="M224.606,119.916a2.47,2.47,0,0,1-2.519,2.479c-1.49.071-2.63-.633-2.631-2.2a2.537,2.537,0,0,1,2.74-2.762A2.337,2.337,0,0,1,224.606,119.916Z" transform="translate(311.732)" fill="#e8e8e8"/>
    <path id="Path_2311" data-name="Path 2311" d="M656.5,365.737c-.113,1.845-.82,2.944-2.355,2.906-1.829-.046-2.46-1.383-2.3-3.026.137-1.457.953-2.448,2.542-2.29A2.338,2.338,0,0,1,656.5,365.737Z" transform="translate(1170.001 386.624)" fill="#a2a2a2"/>
    <path id="Path_2312" data-name="Path 2312" d="M625.364,402.089a2.311,2.311,0,0,1-2.34,2.576c-1.649.147-2.986-.485-3.023-2.31-.031-1.53,1.066-2.26,2.559-2.3A2.465,2.465,0,0,1,625.364,402.089Z" transform="translate(1055.587 429.096)" fill="#a2a2a2"/>
    <path id="Path_2313" data-name="Path 2313" d="M637.876,386.606a2.463,2.463,0,0,1-2.037-2.8c.046-1.488.786-2.58,2.319-2.544,1.829.044,2.459,1.38,2.306,3.024A2.309,2.309,0,0,1,637.876,386.606Z" transform="translate(1170.001 407.679)" fill="#a2a2a2"/>
    <path id="Path_2314" data-name="Path 2314" d="M245.088,91.565c-1.665-.178-2.722-.82-2.608-2.426a2.036,2.036,0,0,1,2.328-1.938,2.239,2.239,0,0,1,2.406,2.435C247.2,91.062,246.077,91.4,245.088,91.565Z" transform="translate(347.694)" fill="#e8e8e8"/>
    <path id="Path_2315" data-name="Path 2315" d="M221.575,136.791c-.036,1.394-.7,2.318-2,2.407a2.2,2.2,0,0,1-2.626-2.229c-.019-1.36.995-1.981,2.281-2.029A2.015,2.015,0,0,1,221.575,136.791Z" transform="translate(307.571 118.6)" fill="#e8e8e8"/>
    <path id="Path_2316" data-name="Path 2316" d="M606.768,422.584c-1.482-.052-1.935-1-1.938-2.272,0-1.589.758-2.441,2.417-2.244a2.128,2.128,0,0,1,2.108,2.24C609.316,421.857,608.288,422.567,606.768,422.584Z" transform="translate(916.305 450.076)" fill="#a2a2a2"/>
    <path id="Path_2317" data-name="Path 2317" d="M135.023,228.426c-1.209-.765-2.9-1.385-2.471-3.154.578-2.371,2.782-1.632,4.447-1.838C137.034,225.371,136.781,227.2,135.023,228.426Z" transform="translate(0 222.465)" fill="#e8e8e8"/>
    <path id="Path_2318" data-name="Path 2318" d="M621.41,383.133a1.825,1.825,0,0,1,2.03,2.235,2.184,2.184,0,0,1-2.178,2.229A2,2,0,0,1,619,385.534C618.95,383.932,619.978,383.225,621.41,383.133Z" transform="translate(938.452 409.149)" fill="#a2a2a2"/>
    <path id="Path_2319" data-name="Path 2319" d="M637.342,369.676a2.3,2.3,0,0,1-2.458-2.484,1.689,1.689,0,0,1,1.689-1.978c1.524-.091,2.617.546,2.758,2.124A2.087,2.087,0,0,1,637.342,369.676Z" transform="translate(1170.001 388.169)" fill="#a2a2a2"/>
    <path id="Path_2320" data-name="Path 2320" d="M243.57,105.848c.009,1.34-.6,2.245-1.984,2.235a1.914,1.914,0,0,1-2.049-1.714c-.155-1.422.765-2.109,2.034-2.2A1.732,1.732,0,0,1,243.57,105.848Z" transform="translate(342.742)" fill="#e8e8e8"/>
    <path id="Path_2321" data-name="Path 2321" d="M175.615,197.646c-.046,1.318-.635,2.268-2.023,2.281a1.708,1.708,0,0,1-1.715-1.98,1.9,1.9,0,0,1,1.783-2A1.66,1.66,0,0,1,175.615,197.646Z" transform="translate(236.545 189.859)" fill="#e8e8e8"/>
    <path id="Path_2322" data-name="Path 2322" d="M655.2,348.878a2.094,2.094,0,0,1-2.361,1.946c-1.428.011-2.06-.793-1.987-2.162.056-1.057.524-2.008,1.63-2.088C654.016,346.464,654.729,347.6,655.2,348.878Z" transform="translate(1170.001 366.195)" fill="#a2a2a2"/>
    <path id="Path_2323" data-name="Path 2323" d="M156.207,211.291a1.8,1.8,0,0,1-2.085,1.768,1.547,1.547,0,0,1-1.61-1.9,1.572,1.572,0,0,1,1.737-1.326A1.836,1.836,0,0,1,156.207,211.291Z" transform="translate(0 205.792)" fill="#e8e8e8"/>
    <path id="Path_2324" data-name="Path 2324" d="M593.312,438.693a2.033,2.033,0,0,1-2.44,1.722,1.863,1.863,0,0,1-1.777-1.921c.02-1.615,1.279-1.613,2.425-1.574C592.6,436.957,593.381,437.4,593.312,438.693Z" transform="translate(891.245 580)" fill="#a2a2a2"/>
    <path id="Path_2325" data-name="Path 2325" d="M591.427,421.483c-.03,1.491-.655,2.074-1.833,2.032-1.238-.043-1.685-.826-1.609-1.936a1.49,1.49,0,0,1,1.568-1.492A1.573,1.573,0,0,1,591.427,421.483Z" transform="translate(888.572 451.457)" fill="#a2a2a2"/>
    <path id="Path_2326" data-name="Path 2326" d="M605.706,404.588a1.569,1.569,0,0,1-1.739-1.823c.044-1.235.829-1.681,1.941-1.605a1.487,1.487,0,0,1,1.495,1.565A1.57,1.57,0,0,1,605.706,404.588Z" transform="translate(913.618 429.346)" fill="#a2a2a2"/>
    <path id="Path_2327" data-name="Path 2327" d="M150.944,226.9a1.416,1.416,0,0,1,1.548,1.453,1.495,1.495,0,1,1-2.988.1C149.45,227.505,150.024,227.014,150.944,226.9Z" transform="translate(0 225.618)" fill="#e8e8e8"/>
    <path id="Path_2328" data-name="Path 2328" d="M217.474,153.446a1.46,1.46,0,0,1-1.335,1.669,1.5,1.5,0,1,1-.36-2.974C216.719,152,217.242,152.577,217.474,153.446Z" transform="translate(303.002 138.354)" fill="#e8e8e8"/>
    <path id="Path_2329" data-name="Path 2329" d="M237.4,122.6c.251-.931.782-1.5,1.722-1.36a1.5,1.5,0,1,1-.376,2.979A1.47,1.47,0,0,1,237.4,122.6Z" transform="translate(338.967)" fill="#e8e8e8"/>
    <path id="Path_2330" data-name="Path 2330" d="M262.054,90.585a1.623,1.623,0,0,1,1.427,1.741c-.051,1.136-.688,1.918-1.92,1.67a1.56,1.56,0,0,1-1.165-1.923A1.527,1.527,0,0,1,262.054,90.585Z" transform="translate(374.978)" fill="#e8e8e8"/>
    <path id="Path_2331" data-name="Path 2331" d="M636.2,351.794c-.943-.017-1.728-.472-1.73-1.379,0-.978.392-2.018,1.66-2.081A1.719,1.719,0,0,1,638.152,350C638.192,351.191,637.273,351.653,636.2,351.794Z" transform="translate(1170.001 367.67)" fill="#a2a2a2"/>
    <path id="Path_2332" data-name="Path 2332" d="M213.2,168.441a1.513,1.513,0,0,1,1.322,1.69c-.062,1.079-.665,1.853-1.838,1.664-.945-.152-1.222-.969-1.051-1.836A1.612,1.612,0,0,1,213.2,168.441Z" transform="translate(298.483 157.517)" fill="#e8e8e8"/>
    <path id="Path_2333" data-name="Path 2333" d="M237.483,139.78c-.163.92-.687,1.51-1.646,1.42s-1.519-.77-1.2-1.677a2.14,2.14,0,0,1,1.359-1.174C236.975,138.139,237.452,138.812,237.483,139.78Z" transform="translate(334.441 122.209)" fill="#e8e8e8"/>
    <path id="Path_2334" data-name="Path 2334" d="M50.72,206.642c2.285.233,3.713,1.512,3.7,3.77-.017,2.5-1.546,3.937-4.1,3.807-2.194-.111-3.879-1.227-3.741-3.63S48.164,206.745,50.72,206.642Z" transform="translate(0 203.857)" fill="#e8e8e8"/>
    <path id="Path_2335" data-name="Path 2335" d="M30.364,228.215c-2.291-.266-4.016-1.4-3.908-3.992.1-2.3,1.695-3.484,3.928-3.564,2.465-.089,3.535,1.39,3.558,3.7S32.946,228.09,30.364,228.215Z" transform="translate(0 220.352)" fill="#e8e8e8"/>
    <path id="Path_2336" data-name="Path 2336" d="M70.782,213.523c-.359,2.316-1.663,3.665-4,3.587-2.061-.069-3.517-1.17-3.463-3.4.056-2.277,1.31-3.831,3.657-3.892S70.53,211.251,70.782,213.523Z" transform="translate(0 207.475)" fill="#e8e8e8"/>
    <path id="Path_2337" data-name="Path 2337" d="M86.8,196.043c2.418.292,3.9,1.382,4.018,3.735.1,2.166-1.048,3.482-3.227,3.474-2.443-.008-4.164-1.221-4.183-3.828C83.391,197.213,85.075,196.446,86.8,196.043Z" transform="translate(0 191.227)" fill="#e8e8e8"/>
    <path id="Path_2338" data-name="Path 2338" d="M47.159,223.982c1.982.322,3.562,1.209,3.559,3.387a3.375,3.375,0,0,1-3.733,3.666,3.379,3.379,0,0,1-3.548-3.85C43.562,225.043,45.175,224.2,47.159,223.982Z" transform="translate(0 224.04)" fill="#e8e8e8"/>
    <path id="Path_2339" data-name="Path 2339" d="M103.34,199.691c1.913.057,3.356.784,3.324,2.873a3.373,3.373,0,0,1-3.435,3.543c-1.783.124-2.78-.979-2.933-2.706A3.069,3.069,0,0,1,103.34,199.691Z" transform="translate(0 195.21)" fill="#e8e8e8"/>
    <path id="Path_2340" data-name="Path 2340" d="M27.524,237.794c2.04.33,3.267,1.533,3.194,3.632-.072,2.043-1.518,2.794-3.387,2.688a2.876,2.876,0,0,1-2.986-3.2C24.38,238.969,25.6,238,27.524,237.794Z" transform="translate(0 239.939)" fill="#e8e8e8"/>
    <path id="Path_2341" data-name="Path 2341" d="M86.817,216.644c-.036,1.922-1,3.18-2.914,3.282-2.172.115-3.377-1.256-3.488-3.3-.11-2.03,1.253-2.953,3.144-2.95A2.988,2.988,0,0,1,86.817,216.644Z" transform="translate(0 211.568)" fill="#e8e8e8"/>
    <path id="Path_2342" data-name="Path 2342" d="M120.106,208.879a2.835,2.835,0,0,1-2.822-3.357,2.613,2.613,0,0,1,2.941-2.692c1.864.1,3.272,1.157,3.272,3.08C123.5,207.917,121.9,208.626,120.106,208.879Z" transform="translate(0 198.742)" fill="#e8e8e8"/>
    <path id="Path_2343" data-name="Path 2343" d="M44.2,241.59c1.9,0,3.17.886,3.348,2.807.17,1.846-1.067,2.638-2.728,2.717-1.854.089-3.262-.652-3.355-2.694C41.384,242.646,42.527,241.815,44.2,241.59Z" transform="translate(0 244.004)" fill="#e8e8e8"/>
    <path id="Path_2344" data-name="Path 2344" d="M66.866,230.579c-.153,1.773-1.14,2.708-2.9,2.535s-3.283-1.024-3.159-3.019c.125-2.029,1.716-2.614,3.529-2.484C66.131,227.74,66.869,228.872,66.866,230.579Z" transform="translate(0 227.591)" fill="#e8e8e8"/>
    <path id="Path_2345" data-name="Path 2345" d="M25.445,260.965c-1.863-.029-2.888-.9-3.063-2.615a2.212,2.212,0,0,1,2.1-2.734,2.635,2.635,0,0,1,3.212,2.267A2.533,2.533,0,0,1,25.445,260.965Z" transform="translate(0 260.344)" fill="#e8e8e8"/>
    <path id="Path_2346" data-name="Path 2346" d="M101.021,222.153c-1.533.047-2.568-.6-2.7-2.171a2.621,2.621,0,0,1,2.345-3.15,2.416,2.416,0,0,1,2.984,2.432C103.761,221.015,102.7,221.922,101.021,222.153Z" transform="translate(0 214.849)" fill="#e8e8e8"/>
    <path id="Path_2347" data-name="Path 2347" d="M81.081,236.039a2.454,2.454,0,0,1-2.653-2.351,2.634,2.634,0,1,1,5.248-.108A2.47,2.47,0,0,1,81.081,236.039Z" transform="translate(0 231.191)" fill="#e8e8e8"/>
    <path id="Path_2348" data-name="Path 2348" d="M98.122,239.052a2.529,2.529,0,0,1-2.714-2.712,2.3,2.3,0,0,1,2.363-2.54c1.767-.053,2.661,1.1,2.766,2.738C100.636,238.1,99.652,238.858,98.122,239.052Z" transform="translate(0 234.732)" fill="#e8e8e8"/>
    <path id="Path_2349" data-name="Path 2349" d="M117.795,219.758c1.754.253,2.665,1.15,2.527,2.707a2.519,2.519,0,0,1-2.681,2.431c-1.649,0-2.342-1.137-2.265-2.662A2.5,2.5,0,0,1,117.795,219.758Z" transform="translate(0 218.222)" fill="#e8e8e8"/>
    <path id="Path_2350" data-name="Path 2350" d="M63.772,247.209c-.184,1.664-.852,2.742-2.453,2.6a2.526,2.526,0,0,1-2.546-2.914,2.273,2.273,0,0,1,2.7-2.158A2.5,2.5,0,0,1,63.772,247.209Z" transform="translate(0 247.462)" fill="#e8e8e8"/>
    <path id="Path_2351" data-name="Path 2351" d="M139.659,208.569a2.377,2.377,0,0,1-2.468,2.5,2.264,2.264,0,0,1-2.494-2.418,2.292,2.292,0,0,1,2.437-2.491A2.36,2.36,0,0,1,139.659,208.569Z" transform="translate(0 202.186)" fill="#e8e8e8"/>
    <path id="Path_2352" data-name="Path 2352" d="M60.363,264.165a2.074,2.074,0,0,1-2.486,1.792c-1.307-.077-2.29-.787-2.261-2.14.034-1.64,1.2-2.323,2.717-2.114A2.289,2.289,0,0,1,60.363,264.165Z" transform="translate(0 266.887)" fill="#e8e8e8"/>
    <path id="Path_2353" data-name="Path 2353" d="M41.7,258.627a2.038,2.038,0,0,1,2.039,2.283,2.155,2.155,0,1,1-4.3-.227A2.023,2.023,0,0,1,41.7,258.627Z" transform="translate(0 263.346)" fill="#e8e8e8"/>
    <path id="Path_2354" data-name="Path 2354" d="M80.137,249.341c.043,1.683-.722,2.48-2,2.687-1.255.2-2.4-.168-2.614-1.6a2.222,2.222,0,0,1,2.2-2.705A2.122,2.122,0,0,1,80.137,249.341Z" transform="translate(0 250.587)" fill="#e8e8e8"/>
    <path id="Path_2355" data-name="Path 2355" d="M114.633,240.949c-1.234.065-2.066-.381-2.178-1.587a2.022,2.022,0,0,1,1.89-2.439,1.782,1.782,0,0,1,2.114,1.614A2.024,2.024,0,0,1,114.633,240.949Z" transform="translate(0 237.796)" fill="#e8e8e8"/>
    <path id="Path_2356" data-name="Path 2356" d="M618.661,42.893c11.344,2.807,21,8.889,30.17,15.777,13.986,10.5,25.447,23.692,37.928,35.8,5.111,4.957,9.887,10.273,15.748,14.413l-8.952,2.875A301.069,301.069,0,0,0,649.624,72c-8.913-8.6-16.99-18.14-28.005-24.349C619.879,46.674,617.4,45.858,618.661,42.893Z" transform="translate(1170.001)" fill="#f7f7f7"/>
    <path id="Path_2357" data-name="Path 2357" d="M656.658,83.731c3.125.69,4.911,3.332,7.025,5.258,8.5,7.739,16.691,15.808,25,23.755-3.362.708-6.61,2-10.114,2-4.506-6.5-11.67-10.159-16.957-15.823-1.983-3.307-4.371-6.4-5.4-10.207C655.745,87,654.87,85.243,656.658,83.731Z" transform="translate(1170.001)" fill="#f7f7f7"/>
    <path id="Path_2358" data-name="Path 2358" d="M169.023,500.537c-8.12-2.385-16.219-4.716-22.533-10.918-11.214-11.014-15.413-25.171-18.344-39.937,4.878-5.479,10.133-6.178,14.743-1.963,3.1,14.254,6.8,28.22,16.118,40.038,3.89,4.934,9.353,7.787,13.927,11.788Z" transform="translate(0 580)" fill="#e8e8e8"/>
    <path id="Path_2359" data-name="Path 2359" d="M147.08,500.511c-5.366-2.165-11.139-3.312-16.056-6.6-7.306-4.886-12.005-11.759-15.313-19.706a101.052,101.052,0,0,1-5.763-17.436,66.874,66.874,0,0,1,13.942-4.087c2.15,6.8,4.012,13.7,6.515,20.36,4.478,11.918,12.586,20.922,23.476,27.473Z" transform="translate(0 580)" fill="#e8e8e8"/>
    <path id="Path_2360" data-name="Path 2360" d="M126.094,500.511c-19.9-4.384-29.492-18.279-34.081-36.784l13.076-6.045c3.25,8.8,5.914,17.807,10.6,26.075,4.154,7.338,10.6,12.074,17.212,16.757Z" transform="translate(0 580)" fill="#e8e8e8"/>
    <path id="Path_2361" data-name="Path 2361" d="M95.119,497.52c-10.642-5.264-16.434-14.583-20.964-24.958,3.871-3.132,9.574-2.844,12.946-6.906,2.473,5.562,4.854,11.166,7.438,16.676,3.447,7.349,9.733,12.256,15.548,17.555C105.306,497.8,99.939,499.374,95.119,497.52Z" transform="translate(0 580)" fill="#e8e8e8"/>
    <path id="Path_2362" data-name="Path 2362" d="M66.1,492.566c-2.918-3.47-6.1-6.746-8.113-10.886,4.294-1.949,8.536-3.986,12.15-7.094,3.506,7.7,7.817,14.867,13.8,20.939C78.026,494.329,71.915,494.336,66.1,492.566Z" transform="translate(0 580)" fill="#e8e8e8"/>
    <path id="Path_2363" data-name="Path 2363" d="M184.058,492.528c2.224,1.443,4.16,3.368,6.833,4.059-2.764,1.442-5.866,1.335-8.816,1.922l-5.97-3.016C177.52,491.3,178.633,490.884,184.058,492.528Z" transform="translate(246.83 580)" fill="#f7f7f7"/>
    <path id="Path_2364" data-name="Path 2364" d="M54.143,484.547q2.488,3.68,4.979,7.364c-3.707-.753-7.553-.818-11.126-2.239C50.163,488.106,52.678,486.954,54.143,484.547Z" transform="translate(0 580)" fill="#e8e8e8"/>
    <path id="Path_2365" data-name="Path 2365" d="M146.909,444.79c-2.328-9.137-4.488-18.321-7.017-27.4-5.738-20.611-16.869-36.757-38.109-43.94-15.6-5.274-31.417-4.445-47.219-.808-3.966.913-7.9,1.977-11.952,2.6A115.7,115.7,0,0,1,72.9,364.51c12.646-2.563,25.233-3.6,38.033-.669,16.032,3.669,28.3,12.261,35.88,26.815,8.477,16.273,11.593,34.1,14.051,52.055C157.048,446.349,150.87,447.269,146.909,444.79Z" transform="translate(0 458.127)" fill="#f7f7f7"/>
    <path id="Path_2366" data-name="Path 2366" d="M142.889,447.719c-5.314-2.332-9.733,2.03-14.744,1.963-3.39-9.691-5.219-19.82-8.761-29.5a58.368,58.368,0,0,0-54.248-38.334c-11.717-.141-23.14.99-34.379,4.538,5.637-4.161,12.247-6.036,18.726-8.038,14.817-4.578,29.851-6.287,45.173-2.477,19.1,4.751,31.626,16.7,38.464,34.88C137.63,422.739,140.037,435.289,142.889,447.719Z" transform="translate(0 465.273)" fill="#f7f7f7"/>
    <path id="Path_2367" data-name="Path 2367" d="M146.909,444.79c4.662-.624,9.174-2.251,13.955-2.078,1.989,7.3,3.767,14.666,6.02,21.884a65.29,65.29,0,0,0,17.173,27.932c-2.717.811-5.523,1.388-7.953,2.965-9.464-4.623-15.985-12.035-20.392-21.442A94.456,94.456,0,0,1,146.909,444.79Z" transform="translate(103.327 580)" fill="#e8e8e8"/>
    <path id="Path_2368" data-name="Path 2368" d="M656.658,83.731c1.938,4.969,4.868,9.616,4.951,15.187-10.672-7.321-21.515-14.321-33.7-18.98a87.715,87.715,0,0,0-30.562-5.989c-15.254-.153-30.535.28-45.66-2.11a67.648,67.648,0,0,1-32.006-13.826c5.623-3.65,12.092-5.422,18.143-8.123,15.148,7.109,31.264,8.331,47.7,8.076,24.9-.386,47.615,6.169,67.234,21.975C654.158,81.074,655.361,82.462,656.658,83.731Z" transform="translate(1170.001)" fill="#fff"/>
    <path id="Path_2369" data-name="Path 2369" d="M618.661,42.893c5.5,3.653,11.3,6.864,16.321,11.238,5.9,5.143,11.065,10.851,14.642,17.873-12.908-8.4-26.649-14.789-42.127-16.574a312.76,312.76,0,0,0-32.218-1.6c-10.439-.122-20.781-1.613-30.459-6,10.475-4.226,21.431-6.673,32.482-8.774,1.448-.276,2.882-.626,4.321-.941,7.943,1.79,16.128.226,24.116,1.806C610.086,40.777,614.545,41.056,618.661,42.893Z" transform="translate(949.897)" fill="#fff"/>
    <path id="Path_2370" data-name="Path 2370" d="M688.321,366.858c-1.864.011-3.391-.56-3.46-2.681a3.548,3.548,0,0,1,3.569-3.95c2.045-.169,3,1.1,3.065,3.064C691.565,365.467,690.6,366.748,688.321,366.858Z" transform="translate(1170.001 384.01)" fill="#a2a2a2"/>
    <path id="Path_2371" data-name="Path 2371" d="M675.529,381.422c-.124,2.423-1.332,3.432-3.513,3.359a2.914,2.914,0,0,1-3.027-3.175c.035-2.306,1.6-3.541,3.9-3.432C674.989,378.274,675.511,379.813,675.529,381.422Z" transform="translate(1170.001 405.095)" fill="#a2a2a2"/>
    <path id="Path_2372" data-name="Path 2372" d="M707.485,345.349a3.01,3.01,0,0,1-3.374,3.332,3.314,3.314,0,0,1-3.279-3.588c-.042-2.047,1.258-2.881,3.164-2.92C706.15,342.13,707.405,343.105,707.485,345.349Z" transform="translate(1170.001 362.703)" fill="#a2a2a2"/>
    <path id="Path_2373" data-name="Path 2373" d="M671.14,361.234c2.01.442,3.248,1.619,3.283,3.728a2.5,2.5,0,0,1-2.76,2.8c-2.1-.017-3.586-1.183-3.677-3.249C667.9,362.649,669.3,361.609,671.14,361.234Z" transform="translate(1170.001 385.118)" fill="#a2a2a2"/>
    <path id="Path_2374" data-name="Path 2374" d="M690.222,346.406c-.7,1.71-1.224,3.536-3.347,3.27a3.045,3.045,0,0,1-2.906-3.382,2.731,2.731,0,0,1,2.937-2.739C688.521,343.708,690.086,344.489,690.222,346.406Z" transform="translate(1170.001 364.054)" fill="#a2a2a2"/>
    <path id="Path_2375" data-name="Path 2375" d="M705.425,327.48c.1,2.646-.8,3.521-2.638,3.454-1.7-.063-2.832-.841-2.943-2.62a2.514,2.514,0,0,1,2.512-2.982C704.387,325.186,705.313,326.366,705.425,327.48Z" transform="translate(1170.001 342.276)" fill="#a2a2a2"/>
    <path id="Path_2376" data-name="Path 2376" d="M672.459,347.89c-.009,1.475-.563,2.669-2.146,2.794a2.72,2.72,0,0,1-3.1-2.51c-.131-1.667,1.182-2.7,2.819-2.8C671.627,345.285,672.317,346.4,672.459,347.89Z" transform="translate(1170.001 365.584)" fill="#a2a2a2"/>
    <path id="Path_2377" data-name="Path 2377" d="M682.944,329.44a2.444,2.444,0,0,1,2.817-2.142c1.519.066,2.592.823,2.5,2.426s-1.27,2.214-2.769,2.157A2.357,2.357,0,0,1,682.944,329.44Z" transform="translate(1170.001 343.878)" fill="#a2a2a2"/>
    <path id="Path_2378" data-name="Path 2378" d="M701.94,313.944c-1.655-.088-2.212-1.073-2.12-2.589a1.976,1.976,0,0,1,2.222-2.015,2.07,2.07,0,0,1,2.384,2.352C704.407,313.311,703.5,314,701.94,313.944Z" transform="translate(1170.001 322.869)" fill="#a2a2a2"/>
    <path id="Path_2379" data-name="Path 2379" d="M671.387,331.038c-.108,1.513-1.108,1.9-2.4,1.867-1.4-.034-2.211-.766-2.088-2.179.134-1.533,1.005-2.494,2.639-2.228A2.209,2.209,0,0,1,671.387,331.038Z" transform="translate(1170.001 345.14)" fill="#a2a2a2"/>
    <path id="Path_2380" data-name="Path 2380" d="M684.7,310.4a2.027,2.027,0,0,1,2.171,2.213c.01,1.176-.569,2.365-2.122,2.145a2.179,2.179,0,0,1-1.891-2.5A1.694,1.694,0,0,1,684.7,310.4Z" transform="translate(1170.001 323.96)" fill="#a2a2a2"/>
  </g>
</svg>
