<svg xmlns="http://www.w3.org/2000/svg" width="1920" height="1080" viewBox="0 0 1920 1080">
  <g id="Layer_2" data-name="Layer 2" opacity="0.6">
    <g id="Layer_1" data-name="Layer 1">
      <path id="Path_2023" data-name="Path 2023" d="M0,105.115C0,71.7.193,38.311,0,4.923,0,1.183.44,0,4.675,0c17.162.33,34.351,0,51.54,0C68.757,2.53,79.758,8.663,91.2,13.586c2.75,1.183,5.8,3.245,8.636.743s0-4.73-.88-7.013C97.5,3.768,100.3,2.173,102.227.165h28.768c2.943,2.2,6.023,3.988,7.288,8.086s5.5,4.758,9.268,5.748c4.29,1.155,8.251,4.7,12.789,3.52,5.281-1.375,2.558-7.591,5.5-10.864,1.623-1.815,1.788-4.84,4.043-6.463H614.161c7.316,2.035,14.961,2.035,22.332,3.823a88.971,88.971,0,0,1,20.6,7.536c2.97,2.5,2.283,6.161,2.75,9.351,3.41,23.185.743,45.214-12.349,65.429-4.675,7.206-9.351,14.439-13.751,21.837-17.079,28.713-14.961,53.575,8.251,77.722,17.409,17.987,38.5,28.933,64.549,27.833,10.561-.44,19.939-4.565,29.51-8.251,14.989-5.858,28.6-14.466,43.042-21.37,20.985-10.038,43.454-14.8,66.006-18.894,15.071-2.75,29.648-7.591,44.719-10.231,5.5,2.75,10.424,6.408,15.786,9.378,4.758,3.108,9.653,6.051,14.411,9.186,17.327,9.158,34.9,17.767,53.96,22.772,4.373,1.155,8.526,3.19,12.871,4.18a214.522,214.522,0,0,0,45.407,3.933c5.061,2.75,10.259,4.758,16.062,2.173,12.871,1.54,26.045.825,38.5,4.95a11,11,0,0,1,4.181,5.72c2.75,6.931,7.1,7.563,12.184,1.9,1.293-1.43,2.283-3.08,4.318-3.6a85.085,85.085,0,0,1,13.916,2.75c11.166,4.208,22.662,7.591,33.223,13.339,5.033,4.758,11.276,7.893,16.5,12.321,4.373,3.108,6.133,8.856,11.3,11.194,16.5,19.912,23.57,42.547,19.692,68.316-.275,5.308-1.953,10.4-2.75,15.621a151.488,151.488,0,0,1-19.059,38.5c-17.217,23.515-40.071,40.291-64.768,54.758-29.208,16.8-59.708,31.985-89.714,48.157-33.471,18.1-67.381,35.368-100.6,53.988a78.961,78.961,0,0,0-26.375,21.755,35.452,35.452,0,0,0-6.848,14.851c-4.208,6.793-.88,13.751-.165,20.517.8,7.316,4.428,14,6.051,21.177,8.058,20.242,16.5,40.456,19.252,62.238,4.483,36.166-3.905,68.757-28.053,96.864a116.859,116.859,0,0,1-73.1,40.4c-7.178,1.073-14.6,2.75-22,0-3-2.943-2.31-6.683-1.953-10.148,2.448-25.137.55-50.165-1.375-75.22-3.053-39.384-9.571-78.327-14.879-117.436a32.128,32.128,0,0,0-2.42-9.708c-4.263,5.5-4.4,11.579-4.73,17.409a254.067,254.067,0,0,0,3.08,50.055c3.85,26.705-1.1,51.9-11.249,76.43-6.683,16.172-14.191,31.958-22,47.579-3.8,7.646-6.188,8.416-14.356,5.5-18.839-6.986-37.156-15.429-56.573-20.9a377.308,377.308,0,0,0-39.246-8.718c-36.469-6.271-68.344-22.882-98.872-42.684-12.046-7.811-24.092-15.649-35.753-24.065-3.85-4.73-9.708-6.6-14.6-9.846-20.132-13.339-39.824-27.5-61.056-39-29.648-16.2-60.891-28.905-91.914-42.079-15.869-6.738-32.068-12.541-48.047-18.949-3.575-1.43-7.343-2.035-11-3.245-2.75-3.108-6.821-3.355-10.368-4.565-54.455-18.839-108.608-38.779-164.8-52.255-25.825-6.161-51.677-12.239-77.007-19.747-5.5-1.678-11.936-2.53-14.824-8.883V402.693c5.5-5.748,3.08-11.5,0-17.244V231.627c2.7-10.2,10.231-17.107,15.951-25.357,1.623-2.365,3.493-4.538,5.005-6.986,2.5-3.96,2.228-7.178-2.283-9.406s-6.931-.715-9.516,3.988c-3.3,6.051-2.888,12.4-2.888,18.729,0,3.658.523,8.911-6.216,7.508V123.762c3.52-2.75,7.233-1.65,11-.468a23.377,23.377,0,0,0,15.429.248c3.933-1.43,6.958-3.135,6.9-7.838,0-.963,0-2.283.743-2.75,7.316-3.96,4.4-11,5.5-17,.8-4.648-1.21-6.766-5.5-7.316a29.621,29.621,0,0,0-6.436,0c-4.235.413-6.9,2.118-5.5,6.958s-.578,7.756-5.8,8.251a7.178,7.178,0,0,0-5.115,2.255C6.958,111,3.465,109.24,0,105.115Z" fill="#e0e0e0"/>
      <path id="Path_2024" data-name="Path 2024" d="M303.563,476.419c19.252-1.43,37.871-4.4,55.335-13.174A118.591,118.591,0,0,0,420.311,332.47a381.417,381.417,0,0,0-17.574-53.025,8.5,8.5,0,0,1,7.1-5.033c5.748-1.293,11.936-.55,17.3-3.685,24.12-2.173,47.58-7.921,71.012-13.751,49.092-12.156,95.929-31.078,143.261-48.4,15.044-5.5,30.115-11,45.352-15.841a30.25,30.25,0,0,1,10.589-1.623c3.548,0,4.7,3.08,6.078,5.5,19.252,32.453,48.267,53.74,80.72,71.177s68.151,29.015,102.832,42.079q25.825,9.736,50.99,21.177a18.151,18.151,0,0,1,9.791,8.938V626.005a13.751,13.751,0,0,1-9.571,5.5c-18.262,3.3-36.524,6.573-55.225,4.455a276.411,276.411,0,0,1-40.759,2.228c-46.149-1.568-88.146,11.359-127.419,35.176-30.115,18.234-58.168,39.466-87.4,58.966-8.251,5.5-16.5,10.726-26.21,12.981h-215.7c-3.52-2.5-2.558-5.693-1.54-9.021A293.1,293.1,0,0,1,423.117,655.1,341.337,341.337,0,0,1,531.779,554.278c11-6.49,22-12.458,33.306-18.4,32.261-17.162,49.257-44.362,53.96-79.978,2.613-19.692,3.328-39.521,4.565-59.323,1.568-24.917,4.593-49.5,17.107-72.029a27.5,27.5,0,0,1,7.041-9.158C610,339.043,590,376.722,569.6,414.07c-16.5,30.253-33.581,60.341-59.351,84.1-19.554,18.042-41.254,33.608-62.706,49.175A301.211,301.211,0,0,0,392.974,596c-20.1,23.762-29.538,52.255-34.158,82.508-2.943,19.252-4.1,38.5-5.72,57.755-.275,3.438-.55,6.683-3.575,8.938H320.752a13.587,13.587,0,0,1-4.84-7.756c-5.941-36.991-18.4-72.222-29.758-107.728a78.162,78.162,0,0,1-3.218-19.637c-.605-2.75,1.54-5.748-.358-8.526-3.328-14.851-.715-29.455,2.31-44,5.06-24.037,11.634-47.772,14.246-72.3C299.492,482.359,299.162,477.986,303.563,476.419Z" transform="translate(971.954 334.468)" fill="#f0f0f0"/>
      <path id="Path_2025" data-name="Path 2025" d="M67.711,631.612c-20.847,0-41.721-.165-62.568,0-4.29,0-5.143-.853-5.143-5.143Q.248,495.282,0,364.094a12.184,12.184,0,0,1,6.546-6.216c17.327-5.748,32.261-16.227,48.1-25,31.243-23.322,61.661-47.965,97.717-63.806a155.611,155.611,0,0,1,48.4-12.1c35.011-3.355,69.114,3.438,103.41,8.058q24.917,3.328,49.945,4.841c11.936.715,23.845-1.4,35.753-1.98a21.011,21.011,0,0,1,9.873.77c4.648,3.328,4.07,8.8,4.758,13.366,4.18,28.245,19.5,49.972,39.906,68.619,19.252,17.574,40.841,32.343,60.286,49.7,21.37,19.252,34.873,43.482,46.4,69.141,2.75,6.326,6.133,12.486,6.711,19.582-2.53,7.206-8.828,10.836-14.741,14.384a18.674,18.674,0,0,0-7.426,6.243,135.344,135.344,0,0,1-10.148,12.926c-.44.55-.908,1.4-1.513,1.485-8.526,1.293-11.524,10.369-18.784,13.366a4.7,4.7,0,0,0-1.788,1.21c-9.6,11-22.882,18.179-31.573,30.253-3.41,4.786-9.681,6.821-14.026,11a3.74,3.74,0,0,1-4.675,0,29.123,29.123,0,0,1-5.748-4.263c-24.56-25.193-55.72-37.431-89.108-45.214-28.52-6.656-57.755-9.763-86.661-12.734-51.842-5.281-99.009-23.24-143.481-49.67A170.192,170.192,0,0,0,100.3,454.715a48.241,48.241,0,0,0-21.865-3.19,16.5,16.5,0,0,0-15.181,12.184A49.257,49.257,0,0,0,61.716,485c1.375,11.359,4.428,22.552,2.393,34.213a96.259,96.259,0,0,1-6.353,21.2,183.939,183.939,0,0,0-8.993,24.972c-4.593,17.437,1.155,32.563,10.2,46.974,2.558,4.07,5.5,7.866,8.388,11.689C69.142,626.524,70.544,628.917,67.711,631.612Z" transform="translate(0 448.195)" fill="#f0f0f0"/>
      <path id="Path_2026" data-name="Path 2026" d="M693.163,553.885c-32.508-16.5-66.886-28.438-100.962-41.034-36.909-13.751-72.772-29.18-104.235-53.493A171.038,171.038,0,0,1,442.724,407.1a12.349,12.349,0,0,1-6.436-5.5c-9.818-21.149-13.284-42.9-5.638-65.511a48.322,48.322,0,0,1,25.467-28.823c1.925-.935,3.8-2.035,5.776-2.888,19.692-8.691,30.775-24.312,36.331-44.582,5.2-19.032,7.041-38.5,8.526-58.141,2.283-30.253,11.744-58.058,25.66-84.6,6-11.441,12.376-22.69,19.444-33.526,3.273-5.005,6.023-10.368,10.671-14.329a4.868,4.868,0,0,1,6.436,2.943c5.336,9.9,10.616,19.829,15.649,29.868,2.75,5.776,1.073,8.471-5.17,9.351-1.183.165-2.393,0-3.575.248-8.883.908-12.019,5.143-9.268,13.751,3.3,10.231,7.371,20.214,11.469,30.253,12.651,30.748,26.155,61.111,41.529,90.759A936.165,936.165,0,0,0,684.445,354.6a109.64,109.64,0,0,1,8.718,16.831Z" transform="translate(1226.547 120.506)" fill="#aaa"/>
      <path id="Path_2027" data-name="Path 2027" d="M496.525,158.2c-32.178,9.9-66.474,12.211-98.184,24.285-19.252,7.371-37.046,17.987-55.528,26.98-49.01,23.845-100.495-11-114.521-48.735-7.041-18.949-2.173-36.221,7.508-52.805,6.161-10.561,13.146-20.572,19.252-31.243,9.241-16.5,9.653-34.268,8.251-52.255-.33-3.823-.743-7.618-1.1-11.441-3.85-4.043-5.225-8.223-1.375-12.926H617.344a9.323,9.323,0,0,1,1.018,8.883,307.43,307.43,0,0,1-34.131,77.172A79.448,79.448,0,0,0,574,102.4c-14.246,18.729-29.758,36.138-50.8,47.552C514.925,154.46,506.756,159.8,496.525,158.2Z" transform="translate(677.745 0.105)" fill="#c1c1c1"/>
      <path id="Path_2028" data-name="Path 2028" d="M40.01,509.8a11.662,11.662,0,0,0-3.273-5.5c-21.562-24.752-27.86-52.007-12.211-82.15,9.681-18.647,10.368-37.844,6.161-57.755a46.424,46.424,0,0,1,1.458-24.12c3-9.378,8.553-13.559,18.344-14.411,12.706-1.1,24.175,2.75,35.148,8.5,15.759,8.058,31.353,16.5,46.974,24.752,34.708,18.564,72.057,28.08,110.891,32.811,29.428,3.575,59.021,6.161,88.008,12.954,34.021,8,66.006,20.242,90.759,46.342,1.623,1.733,3.108,3.63,4.648,5.5,3,3.658.688,6-1.98,8.388a434.788,434.788,0,0,0-38.229,38.5c-2.888,3.355-7.288,3.355-10.121,6.271Z" transform="translate(27.701 570.011)" fill="#c1c1c1"/>
      <path id="Path_2029" data-name="Path 2029" d="M503.441,234.382c-11-4.263-21.4-10.2-33-12.981-2.42-3.74.66-5.033,2.97-6.546,5.5-3.74,11.331-7.371,14.8-13.449,1.568-2.228,4.208-1.843,6.353-2.75,2.75-1.045,4.51-2.75,3.96-5.886a4.236,4.236,0,0,0-4.318-3.713,5.5,5.5,0,0,0-5.775,5.17c-.55,2.75,1.43,5.666-.825,8.251-7.453,9.488-16.8,15.071-29.29,14.164-5.83.743-8.5-5.033-13.311-6.436-2.31-5.005,0-8.251,4.18-10.616a37.349,37.349,0,0,0,11.414-11.414A144.886,144.886,0,0,1,497.225,151.3c3.713-.66,8.251.908,10.313-4.07,1.733-4.4-.495-7.646-3.383-10.671a3.933,3.933,0,0,1-.935-2.585,117.513,117.513,0,0,1,14.439-13.064,7.426,7.426,0,0,0,3.218-6.3c-.275,1.293.248,3.548-1.018,3.933-7.536,2.42-9.488,11.606-18.344,13.339-7.646,1.458-11.469,9.873-16.777,15.484-5.666,6.023-9.984,13.146-18.344,16.914-5.5,2.448-8.856,9.021-13.751,13.119-.908.743-1.485,2.31-2.558,2.42-6.958.66-10.341,6.188-14.549,10.478a17.546,17.546,0,0,1-14.026,5.5,26.045,26.045,0,0,0-10.341,2.558c-4.4,1.678-8.966,3.025-11.854-2.42-1.76-3.273,1.045-9.681,5.225-12.156a46.316,46.316,0,0,0,4.978-2.75c2.53-2.063,5.5-.385,8.251-1.128s4.483-1.87,4.62-4.675a4.235,4.235,0,0,0-3.575-4.62,5.033,5.033,0,0,0-5.8,3.025c-1.238,2.255-.6,5.308-3.108,6.986-5.5,3.383-10.533,6.216-17.9,3.768-3.245-1.073-8.691.688-13.009,2.228-5.336,1.9-8.5-.935-7.481-6.491,1.733-9.406,8.553-15.181,15.842-20.159,5.06-3.438,8.608-7.343,9.048-13.559,0-.963,0-2.365.605-2.75,6.491-3.245,4.84-9.461,5.5-14.8-2.888,1.65-5.886,3.135-8.883,4.62-4.84,2.365-8.856-.578-7.921-5.886a13.751,13.751,0,0,1,5.8-10.286,171.876,171.876,0,0,0,14.8-11.139c6.078-4.813,8.856-12.321,12.624-18.784,4.758-8.251,11.909-12.954,19.252-17.244s12.6-9.461,14.356-17.877a20.569,20.569,0,0,1,2.75-5.748,20.132,20.132,0,0,0,8.663-6.216c4.731-1.375,6.051-5.28,6.051-9.378,0-4.9.522-8.883,6.051-10.616,2.75-.853,2.75-4.235,4.263-6.353A33,33,0,0,1,500.663.06H602.753c5.5,3.108,7.838,8.636,10.121,14.081.99,2.365,1.43,4.813-1.1,6.436s-4.923.193-6.656-2.118c-.578-.77-1.21-1.485-1.843-2.2-2.75-3.08-5.8-5.5-9.983-3.218s-4.4,6.161-3.3,10.038a294.741,294.741,0,0,0,11,28.8c8.251,20.187,17.327,39.961,25.825,60.011a13.75,13.75,0,0,1,1.925,7.563c-13.889,18.729-30.858,34.681-47.607,50.962-6.023,5.831-9.818,14.026-18.207,17.354a1.622,1.622,0,0,1-.687.193c-12.816-1.513-12.954-1.348-10.726,11.689a4.07,4.07,0,0,1-.633,2.75,80.418,80.418,0,0,0-12.1,11.8c-7.316,8.471-17.464,13.751-25.935,21.122C510.537,237.16,506.466,236.417,503.441,234.382Z" transform="translate(1129.994 0.105)" fill="#f0f0f0"/>
      <path id="Path_2030" data-name="Path 2030" d="M54.77,464.062a170.519,170.519,0,0,1-47.332,26.21c-2.448.963-4.923,1.815-7.4,2.75V182.49c26.182,9.543,53.273,15.732,80.308,22,25.687,6,51.182,12.569,76.21,20.82,35.478,11.716,71.094,23.02,106.05,36.221,2.228.853,4.318,1.98,6.491,3,1.375,5.226-3.108,6.573-6.051,8.443a157.152,157.152,0,0,1-48.487,19.252c-20.049,4.758-40.484,7.206-60.781,10.423a250.275,250.275,0,0,0-44.609,10.506c-35.258,12.514-55.858,40.924-56.6,78.272-.44,20.82-.468,41.611,3.355,62.211a13.751,13.751,0,0,1-1.155,10.424Z" transform="translate(0.07 319.405)" fill="#fff"/>
      <path id="Path_2031" data-name="Path 2031" d="M305.93,670c.935-30.253,3.355-60.148,10.121-89.659,8.526-37.156,29.978-65.649,58.443-89.8,23.377-19.829,48.872-36.909,73.019-55.8,29.125-22.8,49.862-51.952,67.574-83.746,15.374-27.5,29.29-56.078,49.5-80.555A145.519,145.519,0,0,1,605.378,235.7c1.375-.77,2.75-2.035,4.566-1.375.66,1.705-.578,2.75-1.375,3.8-15.924,20.792-21.425,44.994-23.9,70.407-2.888,29.455-1.843,59.3-8.828,88.366-7.151,29.813-24.752,51.4-51.292,66.006-27.5,15.071-55.005,30.253-79.235,50.412-48.9,40.7-84.13,90.621-102.585,151.842a48.742,48.742,0,0,0-.99,4.923Z" transform="translate(891.126 409.811)" fill="#fff"/>
      <path id="Path_2032" data-name="Path 2032" d="M489.579,119.256c-11.634-27.5-23.322-55.005-34.818-82.508-2.365-5.693-5.363-11.194-5.5-17.684a9.983,9.983,0,0,1,7.288-11,10.451,10.451,0,0,1,12.541,4.373A21.505,21.505,0,0,0,474.4,18.1L466.5.06h24.45A17.106,17.106,0,0,1,498.9,7.816c9.488,19.692,20.654,38.5,29.9,58.416.743,1.128,1.568,2.255,2.393,3.355,4.923,8.443,9.1,17.272,13.889,25.8,7.563,12.844,14.741,25.88,22,38.889,12.211,20.874,25.3,41.254,36.908,62.458,4.208,7.728,2.475,13.916-4.18,18.977a14,14,0,0,1-20.655-3.63c-11-15.621-22.662-30.913-33-46.974a21.011,21.011,0,0,0-2.75-3.218,331.466,331.466,0,0,1-23.844-37.128,274.7,274.7,0,0,1,21.452,41.721,8.254,8.254,0,0,0,1.76,2.228c10.836,21.617,22,43.124,33.635,64.274a38.035,38.035,0,0,0,7.948,10.066c21.562,19.527,37.128,43.729,52.585,67.959,6.326,9.956,14.329,19.114,16.722,31.188v64.741c-4.318,3.878-6.353.248-8.416-2.75-10.479-14.879-20.1-30.253-29.84-45.654q-29.675-46.617-56.325-95.022a12.542,12.542,0,0,0-2.75-3.41c6.106,16.2,12.816,31.435,19.637,46.589A1026.141,1026.141,0,0,0,647.8,438.974c2.75,4.345,3.328,9.461,5.748,13.751v38.834c-7.563-5.253-11.221-13.751-16.062-20.847a1017.877,1017.877,0,0,1-87.019-157.287q-13.2-29.868-24.945-60.341a92.358,92.358,0,0,1-3.108-8.773c-2.53-9.021,1.815-15.016,11.249-15.649,10.506-.715,10.506-.963,5.2-10.286s-9.736-18.1-14.576-27.173c-3.988,0-5.033-3.163-6.381-5.831a277.761,277.761,0,0,1-16.172-34.681,89.132,89.132,0,0,1-12.074-27.5C489.3,121.9,490.432,120.576,489.579,119.256Z" transform="translate(1266.243 0.105)" fill="#9f9f9f"/>
      <path id="Path_2033" data-name="Path 2033" d="M493.439,182.457c-.633,3.493-4.29,4.318-6,6.848-1.182,1.788-2.75,3.768-1.1,5.886s3.41.633,5.143,0a27.5,27.5,0,0,1,13.146-2.943c7.343.633,11-5.143,15.346-9.186,2.31-2.09,4.29-5.5,7.151-5.5,6.023-.138,6.436-2.97,4.565-7.866,2.585,0,4.1,3.3,6.793,0a35.368,35.368,0,0,1,15.291-12.074c3.273-1.183,6.793-6.3,9.461-10.011,5.363-7.481,12.734-12.541,19.252-18.509a3.163,3.163,0,0,1,3.19-.99c5.171,1.375,6.051-.853,4.62-5.281-.633-1.953-.413-4.9,1.65-4.7,8.636.908,10.589-6.408,14.741-11,.963-1.073,1.815-2.5,3.493-1.458a2.393,2.393,0,0,1,.33,3.768,12.486,12.486,0,0,0-2.75,9.736,3.19,3.19,0,0,1-2.283,3.3c-.908.33-2.31.413-2.613,1.018-3.025,6.078-9.1,7.563-14.549,10.011a3.878,3.878,0,0,1-1.623,3.053c-5.776,3.218-6.931,8.086-5.171,14.054a7.041,7.041,0,0,1-.412,3.52c-11.551,9.983-23.1,20.379-31.3,33-5.666,8.746-14.824,13.009-20.462,21.067a7.233,7.233,0,0,1-8.856,5.968c-12.761-2.75-25.825-2.75-38.724-4.318a21.48,21.48,0,0,0-16.969-1.43c-40.621-1.513-78.74-11.689-113.723-32.811a54.676,54.676,0,0,1,1.568-6.161,5.913,5.913,0,0,0-2.338-6.876,5.8,5.8,0,0,0-7.178.935c-1.623,1.293-2.75,3.273-5.253,3.218-5.308-1.9-9.406-5.776-14.164-8.581,12.541-5.638,25.412-10.506,36.688-18.729a183.744,183.744,0,0,0,34.9-35.313c1.018-1.293,2.255-2.393,3.383-3.6,6.848-2.888,9.6-8.388,9.763-15.484A362.432,362.432,0,0,0,444.484.06h67.574c8.086,7.756,10.616,7.756,18.7,0h53.218C576.139,7.4,568.026,14.5,562.883,24.207c-7.068-.55-5.5,4.428-5.5,8.471,0,5.5-4.95,7.151-7.783,10.478a3.631,3.631,0,0,1-2.888-1.788c-2.035-3.878-4.4-8.828-9.433-4.978s-1.018,7.508,2.53,10.258a3.465,3.465,0,0,1,.99,2.585c-.523,1.045-1.733,2.75-1.485,3.053,5.143,4.978-1.128,6.491-2.585,9.6-4.84,10.451-16.5,12.074-23.955,19.087-3.025,2.75-6.6,4.868-5.913,9.791.275,1.953-.825,2.943-2.75,3.685a8.966,8.966,0,0,0-6.243,9.213c.165,2.448-1.568,3.218-3.108,4.318-5.941,4.345-11.8,8.773-17.767,13.064a8.444,8.444,0,0,0-3.575,4.318c-.523,1.76-2.118,3.823-.22,5.281s2.97-.825,4.4-1.513a26.292,26.292,0,0,0,5.776-2.75c5.638-4.758,9.3-1.98,13.531,3.493-6.408-.165-11.221,0-5.8,7.673,1.843,2.585,2.75,8.471-4.62,7.068-1.21-.22-4.043.22-2.97,1.678,4.84,6.656-5.171,8.938-3.906,14.411,0,.33-1.843,1.21-2.888,1.678A41.721,41.721,0,0,0,459.446,177.4a9.488,9.488,0,0,0-1.183,7.041c5.5-6.821,14.191-5.308,19.087-4.345s9.736-3.438,14.246-.165C493.274,180.037,493.906,180.89,493.439,182.457Z" transform="translate(937.513 0.105)" fill="#fff"/>
      <path id="Path_2034" data-name="Path 2034" d="M397.43,463.926c22.91-15.567,45.984-30.858,68.619-46.755A498.268,498.268,0,0,1,537.556,373.8,199.447,199.447,0,0,1,609.7,354.383c22.635-1.622,45.352.193,67.931-2.5a11.881,11.881,0,0,1,5.143,10.2,775.825,775.825,0,0,0,11.166,87.238c.99,4.923,3.411,10.368-1.815,14.659Z" transform="translate(1175.692 615.882)" fill="#aaa"/>
      <path id="Path_2035" data-name="Path 2035" d="M595.768,339.656c-7.343-9.158-13.229-19.252-19.609-29.1-13.421-20.654-25.66-42.6-44-59.048-16.5-14.686-24.065-34.158-34.378-52.255a199.481,199.481,0,0,1-15.567-32.288c-.3-4.7,0-9.1,6-9.928l35.148,48.79c4.841,6.738,9.818,8.251,15.677,5.06s7.728-9.131,3.465-16.5c-10.864-18.812-22-37.431-33-56.133-1.073-1.843-1.843-3.85-2.75-5.776a11.8,11.8,0,0,1,1.623-8.608c23.212-30.61,39.329-65.594,60.2-97.634a118.264,118.264,0,0,1,19.417-22c2.365-2.173,4.84-4.345,7.948-.99Z" transform="translate(1323.942 2.642)" fill="#aaa"/>
      <path id="Path_2036" data-name="Path 2036" d="M263.556,534.323H161.466c-1.76-3.053.825-4.648,2.393-6.216,7.893-7.921,15.319-16.309,23.46-23.955,4.813-2.75,6.188-8.5,10.231-11.909,10.644-9.048,20.82-18.592,30.775-28.383,2.035-2.008,4.455-3.493,5.115-6.6a6.353,6.353,0,0,1,3.025-3.905c14.521-8.251,23.762-22.222,35.478-33.5a44,44,0,0,1,11.441-7.233c7.893-8.251,16.942-15.209,25.33-22.882a80.8,80.8,0,0,1,23.515-15.9,10.066,10.066,0,0,0,6.078-5.363c2.42-5.2,6.546-8.691,12.926-7.838a5.609,5.609,0,0,0,2.118-.248c8.828-6.876,21.232-8.691,27.255-19.664a14.136,14.136,0,0,1,7.866-5.968c11.991-3.988,21.2-12.129,30.253-20.3a8.058,8.058,0,0,1,11.469-.77c3.685,2.75,7.316,6.051,3.548,11.3-1.65,2.31-1.925,5.5-4.62,7.123-2.338.66-4.675,1.375-4.95,4.345-.468,5.17-4.153,7.508-8.031,10.148A244.5,244.5,0,0,0,393.4,364.851c-5.638,4.923-11.524,9.1-13.174,16.914a2.31,2.31,0,0,1-1.293,1.65c-6.271,1.843-10.313,7.261-16.007,10.011a162.733,162.733,0,0,0-20.874,19c-2.75,2.915-7.151,4.4-8.526,8.718,1.87-4.263,6.381-5.858,9.131-9.131,3.768-4.483,8.251-8.031,12.486-12.074a13.944,13.944,0,0,1,8.828-4.7c8.251-5.693,15.346-12.981,24.752-17.134,3.053-1.375,6.161-3.465,9.1,0s.77,5.748-1.293,8.251a34.458,34.458,0,0,0-3.025,5.72,26.684,26.684,0,0,1-1.788,2.558c-14.164,3.74-22.277,15.814-33.388,23.79a35.752,35.752,0,0,1,5.253-4.483c2.448-1.568,3.74-6.051,7.426-4.345s4.125,5.5,4.1,9.076a84.159,84.159,0,0,1-19.884,22.167c-11,8.251-19.252,18.977-29.538,27.833-7.178,7.261-15.732,12.981-22.58,20.627a54.271,54.271,0,0,0-7.536,10.231c-3.768,6.793-9.736,12.019-15.126,17.574a15.787,15.787,0,0,0-5.336,8.966C274.172,532.618,267.516,531.682,263.556,534.323Z" transform="translate(463.831 545.485)" fill="#636363"/>
      <path id="Path_2037" data-name="Path 2037" d="M422.329,347.157c3.163-.3,2.5-5.308,6.656-4.95-.385,4.841-3.575,7.783-6.683,10.754-1.265,6.766-3.85,12.431-11.194,14.576a6.325,6.325,0,0,0-4.235,3.658,8.251,8.251,0,0,1-4.923,4.95c-10.534,3.19-16.5,11.881-23.652,19.059a16.227,16.227,0,0,0-5.858,10.341c-.22,3.025-1.1,5.693-4.675,6.3-3.548,1.265-7.646,1.54-10.176,4.7s-.385,6.876-.66,10.286c-.468,5.776-6.491,7.893-8.251,11,3.768-5.253,10.506-9.516,17.464-13.5,2.035-1.183,3.85-3,6.518-1.65,2.75,1.87,2.475,4.758,2.558,7.536-3.63,9.268-12.156,13.586-19.444,19.252a26.566,26.566,0,0,0-8.856,8.086,16.5,16.5,0,0,1-6.931,5.858A35.755,35.755,0,0,0,324.8,476.886c-.5,7.481-8.031,8.471-11.854,12.926H281.323c-1.183-1.76-4.318-2.475-3-5.5.66-.688,1.513-1.568,2.31-1.6,12.376-.523,18.784-11,27.915-16.777a7.784,7.784,0,0,0,2.338-4.318,9.6,9.6,0,0,1,11-8.663,5.005,5.005,0,0,0,5.5-3.548c-6.958,3.163-14.136,4.015-17.272,11.469-1.238,2.75-4.9,2.75-6.848,4.841a48.487,48.487,0,0,0-11,8.828c-4.208,3.85-8.058,7.646-13.586,9.378a23.538,23.538,0,0,1-4.593,5.941H203.766c-3.6-5.83.88-9.021,4.428-11.854,9.681-7.673,19.637-15.291,27.063-25.082,6.9-9.1,17.244-14.329,23.762-23.542a13.174,13.174,0,0,1,10.231-9.708,27.5,27.5,0,0,0,15.319-11.469,27.778,27.778,0,0,1,13.5-10.286,11.606,11.606,0,0,0,7.838-9.956,17.684,17.684,0,0,1,10.369-6.986,22.58,22.58,0,0,0,8.911-5.776c7.371-5.968,12.679-14.109,20.489-19.719,2.75-2.035,5.005-5.033,8.581-6.078,8.471-4.263,18.262-5.5,26.155-11,3.19-2.255,6.436-.88,9.681-.22a3.8,3.8,0,0,1,2.365,1.788c2.943,6.491,2.75,7.178-7.921,15.429,9.1-2.75,17.519-4.758,24.752-9.736C414.106,342.481,418.506,342.206,422.329,347.157Z" transform="translate(574.605 590.132)" fill="#636363"/>
      <path id="Path_2038" data-name="Path 2038" d="M269.27,420.715c-.853-2.283.88-5.171-1.65-7.1-6.573-3.108-8.058-8.113-4.318-14.741,2.393.33,3.328-1.348,2.75-3-3.8-9.461,5.5-11,9.543-15.264,1.54-1.65,4.235-1.485,2.118-4.868-.825-1.348-.99-3.6,2.75-4.483,4.813-1.183,8.856-5.088,14.164-5.913,1.375-.22,3.52-2.118,3.52-3.245,0-9.516,8.911-7.371,13.531-10.781,3.08-2.31,3.988-6.656,7.728-8.416,8.251,38.009,24.752,73.68,31.656,112.1,1.458,8.251,2.888,16.5,4.345,24.615H299.22c-8.746-6.161-12.239-16.117-17.629-24.752-4.813-7.646-7.7-16.337-11.634-24.477C268.39,427.233,269.133,423.988,269.27,420.715Z" transform="translate(713.671 600.182)" fill="#fff"/>
      <path id="Path_2039" data-name="Path 2039" d="M513.844,468.564c-.578-13.586-4.758-26.6-6.436-40.016-2.558-20.242-4.978-40.484-6.546-60.836-.275-3.768-.99-7.508-1.513-11.249,22.415.633,44.389-2.75,66.281-7.233V464.246c0,3.6-.8,4.455-4.4,4.4C545.5,468.426,529.658,468.564,513.844,468.564Z" transform="translate(1354.079 611.244)" fill="#fff"/>
      <path id="Path_2040" data-name="Path 2040" d="M594.013,5.913c-8.058,3.8-13.311,10.726-18.647,17.327-15.1,18.674-24.945,40.621-37.018,61.166-10.313,17.492-22,33.993-33.526,50.742a262.151,262.151,0,0,1-21.672-38.5c-.33-7.371,4.676-12.349,8.251-17.794A516.526,516.526,0,0,0,520.5,29.7C526,19.169,531,7.921,540.8.165c15.814,0,31.628.248,47.442-.165C593.188,0,595.086.99,594.013,5.913Z" transform="translate(1325.697 0)" fill="#fff"/>
      <path id="Path_2041" data-name="Path 2041" d="M573.6.06a94.4,94.4,0,0,1-3.988,9.186c-12.074,21.2-23.817,42.629-36.661,63.393a139.438,139.438,0,0,1-17,23.79A128.761,128.761,0,0,1,501.629,70.6c.193-3.823,3.163-6.078,5.115-8.828,6.738-9.516,12.156-19.857,16.887-26.65-5.638,8.608-12.211,20.627-20.462,31.573-.687.935-1.65,1.788-3.025.963C486.97,45.8,475.776,22.832,464.39.06Z" transform="translate(1292.89 0.105)" fill="#f0f0f0"/>
      <path id="Path_2042" data-name="Path 2042" d="M147,523.513c.743-4.95,5.5-7.453,8.251-10.2,12.376-12.019,23.212-25.632,36.743-36.469a17.958,17.958,0,0,0,5.5-6.436c12.4-8.663,21.562-20.764,32.756-30.693,5.281-4.675,10.423-9.956,15.621-14.164A127.5,127.5,0,0,0,256.1,414.878c.22-.247,3.465-7.783,6.051-.3.633,1.87,2.75-.853,3.575-1.925,3.8-5.2,7.343-10.589,11-15.869,2.008-2.75,3.74-6.353,8.251-5.06a3.08,3.08,0,0,0,3.493-1.9,23.351,23.351,0,0,1,9.543-8.5c3.19-13.311,13.311-20.434,24.147-26.815a12.155,12.155,0,0,0,4.538-3.383c4.675-7.4,12.074-10.2,20.049-12.1,1.4-.33,3.108-.468,3.96-1.568,3.74-4.923,9.626-6.683,14.411-10.094a22.662,22.662,0,0,1,10.836-8.718c2.585-.935,5.115-1.6,6.986,1.155a5.17,5.17,0,0,1-1.018,7.041c-3.493,3.52-6.958,7.041-10.616,10.369A336.46,336.46,0,0,0,343.4,361.055c-6.023,5.831-12.4,11.551-17.987,17.959a28.108,28.108,0,0,1-11,8.911c-3.658,1.348-5.225,4.7-6.986,7.811a24.34,24.34,0,0,0-10.589,10.038c-3.273,5.693-9.048,9.3-14.219,13.5-6.628,5.363-15.924,8.251-19.252,17.272l-1.485,1.348a27.5,27.5,0,0,1-4.786,4.318c-.66.358-2.2.743-1.183,1.925,4.483,5.253-.77,6.9-3.383,9.516-13.366,13.366-28.383,25.027-40.429,39.741a224.7,224.7,0,0,0-20.352,20.269A57.264,57.264,0,0,1,180,523.513Z" transform="translate(418.626 556.294)" fill="#636363"/>
      <path id="Path_2043" data-name="Path 2043" d="M589.557,292.059c-10.231-11.854-17.437-25.687-25.467-38.944A1038.522,1038.522,0,0,1,487.8,98.138c-.715-1.733-1.238-3.576-2.118-6.188a15.924,15.924,0,0,1,12.816,9.461c25.99,47.47,54.483,93.509,84.488,138.393,1.705,2.558,3.163,5.5,6.573,6.271Z" transform="translate(1330.153 160.936)" fill="#aaa"/>
      <path id="Path_2044" data-name="Path 2044" d="M246.557,405.6c-1.265-1.073-1.815-2.75-.55-3.63,5.115-3.685,9.076-9.3,15.291-11,7.591-2.063,8.966-10.754,15.7-13.394l1.293-.55c11,5.226,17.657,15.869,27.2,22.992,4.95,3.685,8.746,8.8,13.614,12.706,2.558,2.09,3.74,4.4.908,7.206H275.434c-5.363-1.65-11-1.98-16.282-4.263a29.154,29.154,0,0,1-12.6-10.066Z" transform="translate(666.841 659.883)" fill="#fff"/>
      <path id="Path_2045" data-name="Path 2045" d="M0,51.032c3.135,0,6.408,2.75,8.636-2.75,1.485-3.685,6.683-3.493,10.506-1.4.413-.8.908-1.32.8-1.54-1.815-3.493-5.968-6.023-2.75-11.249s7.178-2.365,10.836-2.75a52.558,52.558,0,0,1,8.581,0c7.288.165,10.286,4.84,6.9,11.386-1.1,2.118-2.365,3.493-.165,5.5a2.338,2.338,0,0,1,.8,1.155c.468,2.338,1.265,6.078-.77,6.573-9.1,2.31-3.19,14.439-12.9,17.382C19.252,76.252,10.066,72.429,0,69.679Z" transform="translate(0 54.083)" fill="#171717"/>
      <path id="Path_2046" data-name="Path 2046" d="M269.882,376.99c-2.53,7.756-10.533,10.2-15.649,15.374-3.933,3.96-7.233,8.553-11.249,12.459-8.086,7.783-15.649,16.061-25.165,22.167a21.094,21.094,0,0,0-6.656,8.993H198.21c1.073-4.318,7.261-3.575,8.031-8.251-.743-1.678-3.3.8-3.96-1.43,5.638-5.005,12.349-10.148,15.484-16.2,2.75-4.95,6.793-8.251,9.708-12.4A97.8,97.8,0,0,1,258.5,368.272C266.389,366.017,266.747,373.25,269.882,376.99Z" transform="translate(538.193 643.824)" fill="#f0f0f0"/>
      <path id="Path_2047" data-name="Path 2047" d="M299.012,430.111c-5.5-7.811-13.2-13.751-20.132-20.132-7.673-7.151-16.089-13.559-21.59-22.772,4.84-7.1,14.576-8.251,18.977-16.006,8.251,20.462,19.994,39.246,29.95,58.911Z" transform="translate(694.551 649.697)" fill="#f0f0f0"/>
      <path id="Path_2048" data-name="Path 2048" d="M0,103.064c4.62-4.208,3.438-9.488,2.145-14.411-.99-3.823-.88-7.206,2.063-9.681,1.65-1.375,1.458-2.75,1.65-4.318.8-6.6,3.96-9.158,9.983-7.178a70.543,70.543,0,0,1,12.074,5.8c3.465,1.925.8,4.043-.33,5.721A276.135,276.135,0,0,1,3.548,110.352C2.31,111.7,1.183,113.1,0,114.588Z" transform="translate(0 116.957)" fill="#171717"/>
      <path id="Path_2049" data-name="Path 2049" d="M86.454.078c.66,3.52,2.613,7.316-1.65,9.983A2.31,2.31,0,0,0,83.786,12.4c0,11-3.3,12.761-12.844,7.893a44.5,44.5,0,0,0-12.569-4.318c-5.033-.88-8-3.135-7.646-8.251.22-3.3-3.465-4.593-3.08-7.673Z" transform="translate(83.347 0.088)" fill="#171717"/>
      <path id="Path_2050" data-name="Path 2050" d="M66.452.06c.22,2.75-2.42,5.886,2.42,8.086,3.273,1.485,2.75,6.326.88,8.883a8.086,8.086,0,0,1-10.286,2.393C46.43,13.014,32.734,7.926,20.44.17Z" transform="translate(35.775 0.105)" fill="#171717"/>
      <path id="Path_2051" data-name="Path 2051" d="M263.711.06a33,33,0,0,1,1.32,12.816A328.576,328.576,0,0,1,223.31.06Z" transform="translate(601.752 0.105)" fill="#fff"/>
      <path id="Path_2052" data-name="Path 2052" d="M251.169,387.41c10.176,3.658,19,10.038,28.878,14.329H242.671a8.251,8.251,0,0,1,4.923-8.086C250.152,392.113,251.664,390.463,251.169,387.41Z" transform="translate(653.147 678.069)" fill="#f0f0f0"/>
      <path id="Path_2053" data-name="Path 2053" d="M159,412.853c10.011-11,18.674-23.515,31.491-31.793,1.6.5,1.623,1.87,1.733,3.19l-27.5,28.6Z" transform="translate(427.534 666.955)" fill="#c1c1c1"/>
      <path id="Path_2054" data-name="Path 2054" d="M410.945.06c.468,6.683-2.228,10.148-9.351,10.148s-9.9-3.465-9.351-10.148Z" transform="translate(1050.786 0.105)" fill="#171717"/>
      <path id="Path_2055" data-name="Path 2055" d="M0,140.15c4.153,2.75,7.7,6.023,6.958,11.414A6.683,6.683,0,0,1,0,157.394Z" transform="translate(0 245.299)" fill="#171717"/>
      <path id="Path_2056" data-name="Path 2056" d="M228.749,396.278c-1.073-3.768.523-5.5,4.263-5.748h0c1.788,1.54,4.648,2.53,3.053,5.858Z" transform="translate(610.438 683.529)" fill="#f0f0f0"/>
      <path id="Path_2057" data-name="Path 2057" d="M724.893,55l20.214,41.776c-9.213,15.621-18.894,31-27.5,46.947a203.9,203.9,0,0,0-24.56,72.167c-2.97,23.652-3.6,47.635-9.983,70.819-5.5,20.3-15.842,37.541-36,45.627-32.811,13.174-39.521,42.684-33.773,72A115.985,115.985,0,0,0,623.9,433.157c-40.291,12.514-79.428,28.163-119.031,42.6a778.165,778.165,0,0,1-142.051,37.9c-2.585.413-5.171.963-7.756,1.458-7.371-1.21-11.991-6.106-16.282-11.716-5.968-7.811-13.476-14.631-15.4-24.917-.22-1.183-.77-2.255,0-3.383,3.108-15.044,13.971-23.982,25.495-32.453,12.019-8.828,25.66-14.906,38.7-22,50.8-27.5,101.76-54.29,152.694-81.573a247.521,247.521,0,0,0,53.823-38.009c16.887-16.034,30.253-34.653,35.753-57.755a11.3,11.3,0,0,1,6.271,0c3.273.66,6.436.22,7.508-3.465s-1.21-5.8-4.428-6.9a7.1,7.1,0,0,1-5.033-3.548c0-14.961.413-29.9-5.72-44a112.762,112.762,0,0,0-14.494-23.625c-3-4.785-3.025-8.608,3.41-10.258.935-.247,2.31-.5,2.53-1.183,2.915-8.883,13.751-10.148,17.437-18.289,2.338-5.17,7.453-7.7,11.826-9.791,9.681-4.62,15.4-13.366,23.322-19.747,16.116-12.926,28.52-29.62,43.4-43.784C718.265,56.206,720.383,52.163,724.893,55Z" transform="translate(1045.395 94.563)" fill="#fff"/>
      <path id="Path_2058" data-name="Path 2058" d="M369.339,516.489l13.229-13.5c-6.271.523-10.561,4.1-14.769,7.783-3.19,2.008-4.813-.22-6.463-2.393-26.953-35.341-64.136-57.755-101.43-79.923-22.69-13.559-47.8-22.167-70.957-34.763-17.437-9.488-32.041-22-40.154-40.539-1.705-3.905-4.593-8.388.22-12.431a24.258,24.258,0,0,1,8.856-2.75A576.665,576.665,0,0,0,223.6,322.705a23.542,23.542,0,0,1,14.879-.275c15.071,9.763,30.253,19.389,45.242,29.263A253.024,253.024,0,0,0,384,390.829c29.153,4.62,56.27,15.594,83.2,26.953,6.9,2.915,10.368,1.623,13.311-5.115,8.251-19.059,18.014-37.541,25-57.233,8.251-22.937,9.021-46.177,5.8-70.049-2.75-20.132-5.143-40.456.8-60.506,1.238-4.235,2.118-11,6.6-10.671,3.6.22,2.75,7.233,3.355,11.331,5.5,37.624,11.634,75.192,15.181,113.063,2.75,30.253,5.5,60.506,2.145,90.924a63.306,63.306,0,0,0,0,6.463,345.922,345.922,0,0,1-9.681,58.553c-5.5,22.277-10.561,44.609-9.1,67.849-1.513-.3-2.393,4.648-4.648.33-1.6-3.025-4.4-.193-5.171.743-3.63,4.428-8.828,4.978-13.751,6.6a65.241,65.241,0,0,0-13.971,5.858c-3.685,2.338-5.858-.715-8.718-.935a8.058,8.058,0,0,1,3.823-6.243c2.75-1.32,4.455-4.043,7.591-5.115a5.2,5.2,0,0,0,3.273-6.738,1.54,1.54,0,0,0-1.6-1.6c-3.08.44-7.536-1.183-6.986,4.758,0,.495-1.458,1.678-2.118,1.6a22,22,0,0,0-19.857,6.3c-2.42,2.558-3.41-2.035-5.5-.853-3.96-1.705-4.648-5.5-4.7-8.938-.247-16.5-1.54-33,1.155-49.312a16.007,16.007,0,0,1,3.438-8.251c1.76-1.32-.688-3.713,1.54-5.281,1.155-.825,4.235-1.54,2.475-4.7a15.072,15.072,0,0,0-6.848-5.336c-.715-.412-2.228-.275-2.365.825-1.155,8.086-8.251,8.828-13.751,11.3-3.465,1.513-5.5,4.51-8.251,6.848s-4.263,7.453-10.2,4.373c-1.953-1.018-5.5,2.75-6.821,5.281-3.493,6.023-6.986,11-14.934,11.826-2.75.248-5.281,3.713-7.536,6.078-2.75,2.943-5.748,4.153-9.543,2.2C371.319,529.36,368.129,523.859,369.339,516.489Z" transform="translate(441.054 374.899)" fill="#f4f4f4"/>
      <path id="Path_2059" data-name="Path 2059" d="M463.746,325.713a668.559,668.559,0,0,1-81.875,19.5c-2.338.358-4.731.358-7.068.55s-3.8,1.513-5.913,1.43c-13.091.99-26.182,2.75-39.274,2.75-25.825,0-51.4-3.685-77.007-7.728a476.939,476.939,0,0,0-60.506-6.243C154.974,334.982,121.091,346.2,90.1,366.5c-19.829,12.954-38.669,27.31-58.031,40.924a18.729,18.729,0,0,1-8.058,4.428,107.261,107.261,0,0,1-5.418-32.288c-.88-19.472-2.145-39.109,1.705-58.553,6.381-32.1,26.182-52.09,56.023-63.256,20.957-7.811,42.987-10.643,64.906-14,28.548-4.373,57.205-8.553,83.085-22.662,4.785-2.613,9.268-5.831,13.889-8.773,15.952,4.263,31,11,46.259,17.079,31.105,12.321,61.936,25.33,91.749,40.456C407.228,285.7,435.8,305.2,463.746,325.713Z" transform="translate(30.916 371.615)" fill="#aaa"/>
      <path id="Path_2060" data-name="Path 2060" d="M546.259,71.7c-13.889,12.486-25.77,26.925-38.834,40.209-3.52,3.548-7.371,6.766-11,10.2l-26.045,24.45c-9.131-2.063-6.381,9.461-12.019,10.726-6.986,1.6-9.681,7.123-13.339,12.019-1.265,1.678-2.75,3.8-5.143,3.548-4.7-.55-4.235,2.75-4.455,5.5a50.439,50.439,0,0,1-10.066-10.038c-1.788-8.251,4.51-12.541,9.516-16.969a41.392,41.392,0,0,0,11.551-17.189,15.484,15.484,0,0,1,11-10.121c1.705-.413,3.218-.605,4.07-2.31,4.015-2.448,4.593-6.931,6.408-10.7,10.836-6.793,17.959-17.492,27.118-26.045a434.56,434.56,0,0,0,33.223-36.441c1.348-1.6,1.953-4.648,5.2-3.96Z" transform="translate(1224.029 77.858)" fill="#f0f0f0"/>
      <path id="Path_2061" data-name="Path 2061" d="M101.476,43.317c2.943,4.263,3.575,8.581.165,11.991s-7.838,2.75-11.826.248a22.332,22.332,0,0,0-8.388-2.97,39.411,39.411,0,0,1,.715,6.408c-.193,4.07-3.575,8.251-6.381,6.683-7.7-4.538-16.144-.33-23.845-3.74-8.993-4.015-18.509-6.848-27.75-10.313-5.5-2.008-7.343-9.488-2.75-12.459,3.6-2.255,4.125-5.5,6.188-8.251A15.071,15.071,0,0,1,44.3,26.485c8.251,2.75,15.484-.908,23.1-.8,8.663.138,14.274-6.793,22.222-7.866a86.5,86.5,0,0,1,39.714,5.143c4.95,1.705,5.5,6.023,4.263,10.066-1.293,4.538-5.171,5.06-9.323,3.85-2.475-.743-4.923-1.6-7.453-2.2s-4.62-.22-5.005,2.5C111.047,43.4,106.536,43.455,101.476,43.317Z" transform="translate(32.929 30.362)" fill="#171717"/>
      <path id="Path_2062" data-name="Path 2062" d="M474.073,75.129c.853,4.345-1.073,5.693-4.676,3.658-6.051-3.438-7.646,2.448-9.873,5.06s2.063,2.558,3.218,3.355c-7.536,12.239-18.7,21.26-27.5,32.316a89.359,89.359,0,0,1-15.869-11.551,15.017,15.017,0,0,0,9.6-4.153c10.368-9.048,22.47-16.061,31.683-26.485a7.838,7.838,0,0,1,5.005-2.5C468.572,71.5,471.378,71.279,474.073,75.129Z" transform="translate(1214.093 126.52)" fill="#fff"/>
      <path id="Path_2063" data-name="Path 2063" d="M324.18,207.13a146.286,146.286,0,0,0,31.6,40.016l-25.742,4.235c-3.658-11.964-8.636-23.68-7.233-36.661A15.321,15.321,0,0,1,324.18,207.13Z" transform="translate(867.332 362.532)" fill="#aaa"/>
      <path id="Path_2064" data-name="Path 2064" d="M32.136,21.352c.523,6.821-2.915,9.873-9.818,8.581A114.16,114.16,0,0,0,8.566,27.32a6.271,6.271,0,0,1-6.3-7.013,6.738,6.738,0,0,1,7.151-7.178c4.95,0,9.488,1.705,14.246-2.558C26.553,7.986,31.586,14.174,32.136,21.352Z" transform="translate(3.892 17.454)" fill="#171717"/>
      <path id="Path_2065" data-name="Path 2065" d="M395.25,81.783c2.31-2.943,4.455-6.133,8.856-5.968A10.424,10.424,0,0,1,415.464,83.3c1.073.193,1.21.66.412,1.375-1.265,4.923-2.53,9.653-8.993,10.121C399.073,95.342,395.8,91.822,395.25,81.783Z" transform="translate(1059.624 132.545)" fill="#171717"/>
      <path id="Path_2066" data-name="Path 2066" d="M417.766,92.59c8.966,0,12.046,3.108,12.019,9.571s-3.135,9.131-9.268,9.1S411,108.1,411,101.638,414.438,92.755,417.766,92.59Z" transform="translate(1101.214 162.057)" fill="#171717"/>
      <path id="Path_2067" data-name="Path 2067" d="M438.888,117.823c11.854-.605,14.356,1.018,14.356,9.213,0,3.438-.193,6.793-4.015,8.251s-7.783,2.145-11.414-.715c-1.1-.853-2.145-1.815-3.245-2.75Q436.77,124.836,438.888,117.823Z" transform="translate(1240.697 206.021)" fill="#171717"/>
      <path id="Path_2068" data-name="Path 2068" d="M328.85,66.952c0-6.821,4.373-9.763,10.341-9.846a8.691,8.691,0,0,1,9.076,8.251c.742,5.115-.66,9.1-6.216,10.589C337.513,73.085,332.343,71.27,328.85,66.952Z" transform="translate(881.281 99.934)" fill="#171717"/>
      <path id="Path_2069" data-name="Path 2069" d="M403.013,89.193a11.341,11.341,0,0,1-.412-1.375,75.853,75.853,0,0,0,29.1-14.494c1.6-.467,2.448.193,2.75,1.76-3.355,8.251-8.416,14.466-17.409,16.777-.523,0-.88,1.073-1.293,1.623Z" transform="translate(1082.178 128.078)" fill="#fff"/>
      <path id="Path_2070" data-name="Path 2070" d="M10.565,73.176c0-5.941,2.255-8.966,7.233-9.763,1.678-.275,3.3.248,3.438,2.42s-6.9,12.541-8.031,12.129a4.455,4.455,0,0,1-2.64-4.785Z" transform="translate(18.396 110.871)" fill="#171717"/>
      <path id="Path_2071" data-name="Path 2071" d="M375,77.844c6.9-4.675,13.614-4.1,16.969,1.43C386.194,80.181,380.666,78.091,375,77.844Z" transform="translate(1004.313 130.736)" fill="#171717"/>
      <path id="Path_2072" data-name="Path 2072" d="M145.37,269.289c.825-3.74,1.623-7.453,2.75-12.459,2.5,4.263.935,8.251,3.19,11,3.3,18.592,15.566,30.83,30.005,41.254,14.906,10.616,32.013,17.162,48.542,24.752a489.96,489.96,0,0,1,105.61,66.006,206.569,206.569,0,0,1,34.1,36.578c.165,2.118.44,5.5-2.283,4.758-5.5-1.54-7.151,2.035-9.516,5.2s-5.308,3.383-8.856,4.208a39.468,39.468,0,0,0-14.329,7.426c-3.52,2.75-3.658,9.763-11,7.646-1.018-.3-3,2.008-4.29,3.355-6.216,6.408-12.349,12.9-18.509,19.252-13.119-33.911-28.658-66.006-57.425-90.264-18.1-15.236-37.321-29.1-54.84-45.022C163.742,330.317,146.69,303.887,145.37,269.289Z" transform="translate(412.331 449.52)" fill="#fff"/>
      <path id="Path_2073" data-name="Path 2073" d="M360.723,31c4.758,11.579,2.118,15.786-9.763,15.484A68.372,68.372,0,0,1,360.723,31Z" transform="translate(938.797 54.258)" fill="#171717"/>
      <path id="Path_2074" data-name="Path 2074" d="M409.974,46.4c0,10.754-2.2,13.751-10.066,14.274-6.078.33-10.2-1.925-11-8.086a8.773,8.773,0,0,1,7.288-11,9.873,9.873,0,0,0,2.42-1.4C404.445,38.343,408.956,39.333,409.974,46.4Z" transform="translate(1041.85 68.917)" fill="#171717"/>
      <path id="Path_2075" data-name="Path 2075" d="M420.25,69.154c-6.023-3.273-4.841-8.938-3.823-13.751,1.155-5.5,5.941-6.766,11-6.793,4.345,2.173,7.7,4.455,7.371,10.534C434.277,69.319,430.591,72.235,420.25,69.154Z" transform="translate(1113.655 85.08)" fill="#171717"/>
      <path id="Path_2076" data-name="Path 2076" d="M505.922,46.343Q482.627,74.7,457.1,101.073c-4.455,4.593-9.543,8.608-14.329,12.871-2.035-.908-2.75-2.228-1.43-4.29,5.5-1.87,7.4-7.261,11-10.864,18.124-17.712,36.524-35.176,51.98-55.39Z" transform="translate(1251.385 75.961)" fill="#fff"/>
      <path id="Path_2077" data-name="Path 2077" d="M448.342,24.26a8.8,8.8,0,0,1-9.9,9.543A10.809,10.809,0,0,1,428.32,23.765,11,11,0,0,1,439.844,13.7C445.757,13.727,448.48,17.3,448.342,24.26Z" transform="translate(1229.758 23.952)" fill="#171717"/>
      <path id="Path_2078" data-name="Path 2078" d="M441.51,42.9c6.931,0,11,3.3,11,9.268A9.131,9.131,0,0,1,442.5,61.629c-6.518,0-10.148-3.63-10.038-10.121C432.6,45.65,435.927,43.175,441.51,42.9Z" transform="translate(1237.002 75.086)" fill="#171717"/>
      <path id="Path_2079" data-name="Path 2079" d="M417.438,85.964l-2.75-1.76c-4.318-7.7-2.75-13.751,4.208-16.5a9.131,9.131,0,0,1,10.4,2.173,9.681,9.681,0,0,1,2.035,10.561,7.81,7.81,0,0,1-8.251,5.5A39.022,39.022,0,0,0,417.438,85.964Z" transform="translate(1104.937 117.142)" fill="#171717"/>
      <path id="Path_2080" data-name="Path 2080" d="M409.259,29.948c-3.905-.385-8.966.55-9.791-4.868-.605-4.208-1.87-9.186,3.218-12.266a10.7,10.7,0,0,1,12.569.578c4.043,2.75,2.118,6.986,2.888,10.533a8.994,8.994,0,0,1-8.883,6.023Z" transform="translate(1068.851 19.337)" fill="#171717"/>
      <path id="Path_2081" data-name="Path 2081" d="M452.088,69.51c.468,1.43.963,2.75,1.43,4.29,0,4.9-.385,9.681-6,11.744l-8.443-.3c-1.1-2.558-4.455-3.493-4.538-6.876,0-4.125-.247-8.251,4.015-10.478a11.249,11.249,0,0,1,13.531,1.623Z" transform="translate(1240.643 116.105)" fill="#171717"/>
      <path id="Path_2082" data-name="Path 2082" d="M420.113,50.136q-9.406-.193-9.076-10.038c.22-6.216,3.63-8.828,9.626-8.663s9.3,3.493,9.048,9.983S426.026,50.246,420.113,50.136Z" transform="translate(1101.261 55.006)" fill="#171717"/>
      <path id="Path_2083" data-name="Path 2083" d="M386.533,77.129l-1.733-2.75c0-1.87.247-3.768.22-5.666-.137-6.216,4.1-8.581,9.048-8.471,5.5,0,9.763,2.888,9.681,9.571,0,5.721-2.5,8.883-8.388,8.856C392.336,78.834,389.146,79.439,386.533,77.129Z" transform="translate(1031.057 105.433)" fill="#171717"/>
      <path id="Path_2084" data-name="Path 2084" d="M416.037,31.86c-1.375,5.776-6.683,7.013-8.471,11.386-.77,1.9-3.08,0-3.63-1.513-.8-2.228-3.19-6.023,0-6.628C407.9,34.418,411.417,32.438,416.037,31.86Z" transform="translate(1076.639 55.763)" fill="#fff"/>
      <path id="Path_2085" data-name="Path 2085" d="M403.634,48.117a22,22,0,0,0-11.414-6.133c3.465-2.75,6.848-5.5,11.386-1.788,2.75,2.2,3.768-2.31,6.463-1.733C410.344,43.359,404.376,44.074,403.634,48.117Z" transform="translate(1050.659 67.202)" fill="#fff"/>
      <path id="Path_2086" data-name="Path 2086" d="M504.508,85.269a41.524,41.524,0,0,1-6,9.928c-10.451-16.282-16.5-34.653-25.742-51.595l1.65-1.073Z" transform="translate(1307.557 74.439)" fill="#fff"/>
      <path id="Path_2087" data-name="Path 2087" d="M477.39,51.594c9.213-10.148,15.346-22.415,22.772-33.8a57,57,0,0,1,6.216-8.553,218.186,218.186,0,0,1-27.5,45.3Z" transform="translate(1315.643 16.172)" fill="#fff"/>
      <path id="Path_2088" data-name="Path 2088" d="M395.047,12.5c0,6.931-3.3,10.754-9.323,10.754a11,11,0,0,1-10.754-11A11,11,0,0,1,385.008,1.58C391.692,1.718,395.047,5.293,395.047,12.5Z" transform="translate(1004.994 2.765)" fill="#171717"/>
      <path id="Path_2089" data-name="Path 2089" d="M364.038,28.328c-.468-6.133,1.788-10.2,8.443-10.478s10.176,3.383,10.231,10.534c0,6.628-3.108,10.781-8.388,11C367.365,39.631,364.038,35.918,364.038,28.328Z" transform="translate(975.215 31.215)" fill="#171717"/>
      <path id="Path_2090" data-name="Path 2090" d="M385.627,53.983a10.2,10.2,0,0,1-9.6,9.983,11.249,11.249,0,0,1-10.478-9.653A11,11,0,0,1,376.083,44a10.176,10.176,0,0,1,9.543,9.983Z" transform="translate(979.747 77.011)" fill="#171717"/>
      <path id="Path_2091" data-name="Path 2091" d="M378.325,75.9c0,5.776-3.933,9.268-10.148,9.241s-10.011-3.658-9.956-9.461,3.933-9.268,10.148-9.241S378.38,70.1,378.325,75.9Z" transform="translate(960.107 116.287)" fill="#171717"/>
      <path id="Path_2092" data-name="Path 2092" d="M362.792,58.321c0,6.463-3,9.571-9.406,9.571-6.931,0-9.186-2.393-9.3-9.378,0-6.023,2.338-9.378,8.663-9.323S362.737,52.518,362.792,58.321Z" transform="translate(921.92 86.095)" fill="#171717"/>
      <path id="Path_2093" data-name="Path 2093" d="M389.076,30.966c6.078-.715,8.663,2.283,8.251,8.718s-3.41,9.9-9.3,9.956-9.433-3.74-9.461-9.956S381.238,30.966,389.076,30.966Z" transform="translate(1014.326 54.017)" fill="#171717"/>
      <path id="Path_2094" data-name="Path 2094" d="M307.56,318.33c0,13.751-2.008,27.5-1.485,41.5a189.758,189.758,0,0,0,1.6,25c-6.051,4.07-6.738,14.6-16.777,13.751-1.9,9.076-11,11-16.281,16.969-3.658,4.18-9.846,2.2-13.256,6.326-6.876-1.045-10.423-7.756-8.416-15.924-1.265-7.371-4.868-5.748-9.131-2.448s-7.673,8.856-14.439,8.938c10.534-4.29,14.191-15.814,23.707-21.479,5.693-3.41,9.6-9.763,17-10.671,2.97,6.573-4.758,6.738-5.281,9.791-1.843,1.375-1.678,0-1.32.853,0,.22.412.247.66-.165,2.558-4.015,9.351-5.5,7.618-12.129,3.713-2.365-1.788-9.268,5.5-10.368-6.546-.358-10.836,3.85-15.566,6.546a44.94,44.94,0,0,0-10.836,8.883,7.783,7.783,0,0,1-6.271,2.338c-5.776-.577-5.5-3.548-2.915-7.426h1.375c2.31-6.353,6.188-10.231,13.559-8.773a17.657,17.657,0,0,1,3.52-9.708c.88-1.128.935-3.108,2.475-4.043,12.706-7.481,22-19.472,35.286-26.238a4.208,4.208,0,0,0,2.613-3.933C300.244,321,303.215,319.045,307.56,318.33Z" transform="translate(623.878 557.161)" fill="#f0f0f0"/>
      <path id="Path_2095" data-name="Path 2095" d="M268.633,324.11a38.751,38.751,0,0,1,7.288,17.519c-5.143,1.485-11.551,1.6-8.526,10.286,1.1,3.163-3.878,5.143-4.813,4.675-7.921-4.015-11.991,3.108-16.281,6.271-12.679,9.406-24.34,20.214-36.414,30.473-6.683-2.75-7.123-3.85-4.455-10.368-.358-4.593,3.08-7.013,6.078-9.048,5.005-3.383,11.221-5.143,12.816-12.239.715-3.163,4.7-1.348,6.463-3.3a113.387,113.387,0,0,0,13.751-16.749,3.053,3.053,0,0,1,1.65-1.293C255.761,337.779,260.492,328.62,268.633,324.11Z" transform="translate(553.706 567.277)" fill="#fff"/>
      <path id="Path_2096" data-name="Path 2096" d="M269.112,350.22c1.705,5.886,5.5,10.7,8.416,15.924,4.153,7.371-1.265,9.406-6.463,11.5-6.463,2.613-12.074,5.5-15.209,12.789-1.733,4.125-8.251,5.5-12.486,8.251-1.733,1.21-3.438,5.5-7.893,2.75-1.6-1.018-3.823,3.383-3.96,6.408-4.923-1.4-7.178-6.3-11.386-8.636a106.928,106.928,0,0,1,28.74-28.053c4.455-2.75,8.251-8.691,12.046-13.531A32.729,32.729,0,0,1,269.112,350.22Z" transform="translate(595.743 612.976)" fill="#fff"/>
      <path id="Path_2097" data-name="Path 2097" d="M263.986,345.51c.193,4.015,2.943,6.931,4.455,10.368-11.139,5.005-17.657,15.374-26.485,23.02-14.246,12.376-27.5,25.852-40.649,39.411a153.236,153.236,0,0,1-18.317,16.034c-4.455,3.3-5.831,9.323-10.809,12.129l-1.733-3.19c6.106-9.378,15.346-15.677,23.047-23.487,1.65-1.678,5.5-3.218.743-6-.66-.385-.66-2.75-.165-3.988.908-2.118,2.118-.55,3.273.138,5.088,3,7.563-1.953,11-3.8,1.155-.633,1.87-2.035,2.75-3.025,1.375-1.43,4.62-2.53,3.025-4.73-1.925-2.75-3.713,1.238-6.326,1.54,1.65-6.6,6.821-9.378,11.606-12.541,4.125,2.2,6.848-.55,9.241-3.08,1.815-1.87,3.465-3.905,4.923-5.253-2.393,1.485-3.823,4.813-6.518,6.848s-4.7,3.328-7.756,1.623c.578-4.235,3.988-6.3,6.9-8.581a233.53,233.53,0,0,0,24.972-21.094,6.6,6.6,0,0,0,2.75-5.5c-.413-4.373,2.365-6.051,6.243-5.693A7.261,7.261,0,0,0,263.986,345.51Z" transform="translate(466.043 604.733)" fill="#f0f0f0"/>
      <path id="Path_2098" data-name="Path 2098" d="M254.383,341.05a16.172,16.172,0,0,0,2.915,7.426c-13.091,7.948-23.872,18.729-35.258,28.8,3.878-9.846,12.679-15.566,18.454-23.542,3.905-5.5,10.038-8.251,13.229-13.889a2.146,2.146,0,0,1,.44.55,4.649,4.649,0,0,1,.22.66Z" transform="translate(597.343 594.809)" fill="#fff"/>
      <path id="Path_2099" data-name="Path 2099" d="M255.7,340.29c3.905,3.163,3.438,5.5-.248,9.076-4.29,4.208-11.469,4.978-13.586,11.689-.358,1.1-2.283.99-2.888-.247-.908-1.843-.385-3.218,1.348-4.841a86.965,86.965,0,0,0,13.751-14.026Z" transform="translate(639.306 595.596)" fill="#636363"/>
      <path id="Path_2100" data-name="Path 2100" d="M280.587,363.421a53.8,53.8,0,0,0,4.318,14.741c-2.2,3.383-3.878,6.546-8.856,7.7-3.96.88-7.426,4.923-10.589,8.113a9.048,9.048,0,0,1-10.093,2.42c-2.283-.743-5.253-2.255-3.41-5.281,1.265-2.09,4.455-4.923,6.683-2.283,2.75,3.19,3.823,1.265,4.455-.633,1.183-3.52,8.251-5.5,1.953-11.331-3.135-2.915,4.345-12.679,9.158-11.854C276.956,365.457,278.166,362.266,280.587,363.421Z" transform="translate(675.985 635.638)" fill="#f0f0f0"/>
      <path id="Path_2101" data-name="Path 2101" d="M261.816,388.341c-5.693,7.178-13.751,11.854-20.242,18.069a3.328,3.328,0,0,1-5.06-.853c-1.87-2.53-4.235-1.292-6.463-1.265h0c2.97-5.253,10.781-7.288,9.983-15.016a.77.77,0,0,1,.495-.468c5.5.605,7.591-5.5,12.431-6.133C257.2,382.73,262.146,381.383,261.816,388.341Z" transform="translate(618.358 669.657)" fill="#f0f0f0"/>
      <path id="Path_2102" data-name="Path 2102" d="M247.166,400.379a18.564,18.564,0,0,0-8.746-5.5c8.773-5.5,16.5-12.624,25.467-17.987,5.968-3.575,7.371,2.063,8.966,3.685,2.613,2.75-2.255,2.943-3.768,4.043a76.342,76.342,0,0,0-10.644,9.1c1.65-3.6.358-5.638-2.53-5.5s-4.318,1.513-3.905,5.088C252.364,396.226,252.859,400.764,247.166,400.379Z" transform="translate(641.399 657.619)" fill="#fff"/>
      <path id="Path_2103" data-name="Path 2103" d="M270.35,341.669c.468-7.893,4.73-5.5,9.571-3.135-2.943,1.788-4.785,4.263-7.976,4.73Z" transform="translate(722.745 588.524)" fill="#636363"/>
      <path id="Path_2104" data-name="Path 2104" d="M259.153,351c4.62,6.106.578,8.251-3.933,9.983Z" transform="translate(681.707 614.342)" fill="#f0f0f0"/>
      <path id="Path_2105" data-name="Path 2105" d="M442.976,108.644c-6.9,0-10.506-3.218-10.506-9.323S436.238,90,443.141,89.97,453.922,93.188,454,99.128C454.115,105.537,450.429,108.672,442.976,108.644Z" transform="translate(1237.021 157.471)" fill="#171717"/>
      <path id="Path_2106" data-name="Path 2106" d="M471.534,84.789a8.773,8.773,0,0,1-9.653,9.488c-5.968-.248-9.048-3.713-9.021-10.093s3.41-9.846,9.3-9.873S471.644,78.023,471.534,84.789Z" transform="translate(1272.709 130.062)" fill="#171717"/>
      <path id="Path_2107" data-name="Path 2107" d="M272.167,321.831c-1.513-4.4-2.585-7.068,2.008-9.378a47.772,47.772,0,0,0,11.386-8.388c1.32-1.238,1.265-3.108,3.713-1.513s1.678,3.025.688,4.813a13.036,13.036,0,0,1-7.7,5.913,18.619,18.619,0,0,0-10.094,8.553Z" transform="translate(725.972 528.468)" fill="#636363"/>
      <path id="Path_2108" data-name="Path 2108" d="M234.47,320.822c3.19-2.5,6.848-2.75,8.443-6.051a1.87,1.87,0,0,1,3-.468,3.685,3.685,0,0,1,.55,2.393C242.8,318.182,240.851,324.095,234.47,320.822Z" transform="translate(627.195 549.141)" fill="#636363"/>
      <path id="Path_2109" data-name="Path 2109" d="M249.51,353.869a24.4,24.4,0,0,1-2.585-2.448,2.063,2.063,0,0,1,.55-3.108q8.5-6.573,17.052-12.954c.743-.55,1.733-1.045,2.475,0a1.815,1.815,0,0,1-.193,2.558c-5.308,4.675-11.414,8.5-15.456,14.549C251,353.044,250.281,353.319,249.51,353.869Z" transform="translate(660.672 585.896)" fill="#636363"/>
      <path id="Path_2110" data-name="Path 2110" d="M188.24,370c7.068-1.458,10.7-7.371,15.429-11.854,1.513-1.4,3.383-3.988,5.28-1.733s-.44,4.29-2.75,5.115c-5.005,1.76-7.591,6.353-11,9.818-3.85,3.905-5.225,2.118-6.848-1.485Z" transform="translate(504.685 622.265)" fill="#636363"/>
    </g>
  </g>
</svg>
