<svg xmlns="http://www.w3.org/2000/svg" width="1900.105" height="1076.385" viewBox="0 0 1900.105 1076.385">
  <g id="Group_86" data-name="Group 86" transform="translate(-21.309 1.414)">
    <g id="Group_85" data-name="Group 85">
      <path id="Path_263" data-name="Path 263" d="M270.836,359.431c9.031.007,18.067.133,27.094-.036,6.21-.116,8.84,2.464,9.166,8.829,1.005,19.677,1.193,19.667,20.953,19.671,17.8,0,17.8,0,17.8,17.643,0,12.128-.242,24.262.075,36.38.184,7.058-2.282,10.2-9.7,10.035q-22.416-.5-44.846,0c-7.419.167-9.718-2.992-9.722-10.035,0-11.963-.329-11.967-12.7-11.989-8.1-.015-16.2-.242-24.292.047-6.663.238-10-2.687-10.031-9.2q-.118-26.117,0-52.24c.03-6.517,3.387-9.408,10.042-9.187C253.387,359.643,262.115,359.424,270.836,359.431Zm42.953,88.227v-.039c6.841,0,13.682-.066,20.521.022,5.083.066,7.333-2.335,7.305-7.365-.075-13.659-.043-27.319-.021-40.978.007-4.426-1.822-6.6-6.536-7.2-26.278-3.344-27.929-2.033-28.03,23.786a14.69,14.69,0,0,0,.007,1.861c1.187,9.348-2.915,13.334-12.244,12.2-6.319-.77-8.9,1.91-8.936,8.449-.034,6.777,2.393,9.7,9.28,9.335C301.338,447.4,307.57,447.658,313.789,447.658Zm-42.175-75.634c-5.274,0-10.565.281-15.814-.071-6.379-.429-9.046,1.966-8.728,8.524.388,8.032.079,16.1.088,24.151.015,12.663.021,12.663,12.77,12.686,20.792.036,20.817.036,21.846-20.551.21-4.179.217-8.509,5.9-8.709,7.668-.27,6.775-5.615,6.643-10.595-.165-6.2-4.8-5.347-8.749-5.416C280.921,371.96,276.267,372.023,271.615,372.023Z" transform="translate(38.433 306.879)" fill="#f0f0f0"/>
      <path id="Path_264" data-name="Path 264" d="M630.173,512.076c8.408-.008,16.82.11,25.226-.043,7.714-.14,11.272,3.245,11.538,11.128.648,19.242.831,19.235,20.442,19.25,2.8,0,5.607.118,8.408.034,5.4-.161,8.039,2.224,8.005,7.77q-.138,23.32-.006,46.643c.03,5.637-2.846,7.67-8.142,7.642-15.26-.084-30.524-.125-45.782.021-6.017.058-8.882-2.739-8.146-8.5,1.264-9.878-3.359-12.463-12.426-11.718-8.043.661-16.185.058-24.282.125-7.139.058-10.879-2.651-10.728-10.5q.5-25.645,0-51.305c-.152-7.8,3.486-10.619,10.666-10.559C613.353,512.14,621.763,512.083,630.173,512.076Zm69.4,61.774c0-6.51.047-13.019-.021-19.527-.034-3.149-.124-6.871-4.173-7.212-8.623-.726-18.115-2.906-25.671.878-6.384,3.2-1.76,11.928-2.8,18.1a33.959,33.959,0,0,0-.056,4.643c-.286,10.913-2.254,13.358-12.832,13.577-6,.124-8.363,2.239-8.249,8.236.107,5.54,2.412,7.827,7.882,7.771q19.091-.2,38.185,0c5.538.056,7.9-2.419,7.77-7.869C699.458,586.254,699.574,580.051,699.571,573.851ZM607,547.726c0,2.492-.015,4.982,0,7.472.133,18.432-1.9,16.623,16.426,16.6,20.014-.028,17.992,2.232,18.25-17.855.058-4.654-1.629-10.825,6.043-11.392,8.56-.631,6.236-6.907,6.437-11.8.279-6.8-4.772-6.027-9.114-6.066-4.989-.045-9.977-.015-14.966-.015C607,524.663,607,524.663,607,547.726Z" transform="translate(352.157 440.051)" fill="#f0f0f0"/>
      <path id="Path_267" data-name="Path 267" d="M240.32,549.1c-7.648,13.04-10.123,13.4-19.853,3.729C205.245,537.7,190.014,522.57,174.932,507.3c-8.505-8.61-7.324-13.86,4.093-17.05q32.219-9,64.647-17.256c11.2-2.861,14.644.666,11.954,11.6-1.623,6.6-3.662,13.1-5.354,19.692-1.337,5.2-1.267,8.59,6.085,6.2,10.04-3.261,20.422-5.456,30.576-8.382,6.755-1.947,9.578-.833,7.421,6.942-5.976,21.539-11.66,43.159-17.365,64.774-1.827,6.923-4.6,8.082-9.838,2.559C258.606,567.362,249.743,558.645,240.32,549.1Zm31.855,24.434c5.757-21.736,10.975-41.388,16.163-61.048,1.18-4.469-.549-5.678-4.855-4.43-6.858,1.988-13.787,3.729-20.673,5.622-16.382,4.5-18.879,7.5-21.137,24.048-.322,2.353-.5,4.287,1.163,5.987C252.117,553.185,261.433,562.623,272.175,573.532Zm-46.49-33.344c.987-5.613-2.5-7.536-4.95-10.192-6.3-6.818-5.972-8.183,2.8-10.759,4.641-1.363,10.007-1.578,11.491-7.773a181.124,181.124,0,0,1,4.819-17.836c1.7-4.849-.4-5.88-4.235-4.909-14.055,3.563-28.043,7.39-42.04,11.175-3.686,1-4.428,2.816-1.518,5.779Q208.932,522.871,225.685,540.189Z" transform="translate(-18.432 405.174)" fill="#f0f0f0"/>
      <path id="Path_272" data-name="Path 272" d="M566.368,91.445c0-11.192-.1-22.384.028-33.574.125-10.593,4.557-13.6,14.193-8.578,14.837,7.73,29.275,16.23,43.805,24.539,20.263,11.587,36.24,29.526,57.963,39.011,4.265,1.861,3.668,4.415-.144,6.613q-30.287,17.467-60.537,35.006c-6.193,3.593-8.286,1.445-8.123-5.186.228-9.322-.019-18.653.062-27.978.049-5.547-1.477-6.611-6.485-3.42q-13.314,8.484-27.287,15.929c-9.372,4.986-13.306,2.563-13.44-7.852C566.253,114.452,566.368,102.948,566.368,91.445Zm111.719,24.64c-8.357-4.954-15.453-8.79-22.15-13.229-7.824-5.186-14.139-4.327-22.964-.18-13.613,6.394-17,15.59-15.236,28.908.487,3.671.169,7.464.073,11.2-.146,5.746,1.522,7.371,7.047,4.1C641.968,136.754,659.265,126.942,678.086,116.085ZM579,91.271c0,6.83.1,13.661-.034,20.489-.1,4.971,1.634,6.261,6.064,3.664,7.743-4.538,15.6-8.885,23.3-13.482,7.24-4.319,7.738-16.479.648-20.972-7.835-4.965-16.219-9.071-24.015-14.09-5.828-3.754-6.045-.661-6,3.9C579.052,77.609,579,84.441,579,91.271Z" transform="translate(327.781 34.394)" fill="#f0f0f0"/>
      <path id="Path_275" data-name="Path 275" d="M381.84,528.01c11.14.577,23.178,6.21,29.275,20.907,2.224,5.358,5.047,7.693,11.476,8.058,15.329.869,26.475,11.166,29.6,25.349,2.752,12.5-2.894,26.75-13.3,33.557-10.683,6.991-29.822,7.4-38.183-2.593-8.372-10.016-16.6-13.111-29.4-14.1-18.158-1.4-31.275-20.319-29.7-37.071C343.453,542.512,358.895,527.984,381.84,528.01Zm66.68,61.016c-.18-13.839-12.763-27.094-26.538-27.882-4.2-.242-7.406,1.121-7.886,5.879-1.142,11.327-5.632,20.708-15.421,27.156-3.166,2.082-3.282,4.793-1.509,8.048,5.457,10.013,19.24,16.106,30.361,13.255C439.434,612.431,448.675,600.784,448.52,589.026Zm-69.7-1.367c7.4-.1,23.846-22.9,21.7-30.088-3.164-10.623-15.822-18.772-25.874-16.661-10.681,2.243-20.909,14.515-19.9,23.878C356.092,577.318,367.142,587.815,378.818,587.66Z" transform="translate(131.673 453.99)" fill="#f0f0f0"/>
      <path id="Path_276" data-name="Path 276" d="M412.484,272.47c.039-17.525,11.029-31.823,27.1-35.261,18.125-3.875,34.873,5.062,41.8,22.723,1.777,4.531,4.357,5.532,9.009,5.693,21.474.743,33.967,16.309,31.395,38.458-1.87,16.127-19.591,28.184-37.644,24.96-9.183-1.64-16.79-6.644-21.412-15.022-2.582-4.677-5.237-5.912-11-5.165C432.432,311.359,410.741,296.818,412.484,272.47Zm105.2,24.906c-.043-13.659-13.051-26.959-26.761-27.345-5.465-.154-7.738,2.58-7.859,7.966a27.5,27.5,0,0,1-12.942,23.365c-5.622,3.634-4.873,7-2.056,11.477,5.953,9.449,18.57,14.363,29.238,11.349A27.513,27.513,0,0,0,517.684,297.376Zm-92.559-25.424c-.509,16.732,12.832,24.217,24.674,24.288,7.695.045,22.444-24.26,19.84-31.662-3.055-8.685-15.539-16.237-24.651-14.912C434.117,251.247,425.176,261.28,425.125,271.951Z" transform="translate(193.517 199.578)" fill="#f0f0f0"/>
      <path id="Path_277" data-name="Path 277" d="M331.5,94.854c.144-17.374,12.448-31.267,31.226-35.255,14.056-2.986,33.078,7.127,38.7,21.528,2.284,5.851,5.074,8.256,11.4,8.367,15.249.266,24.638,8.457,28.9,24.157,3.407,12.544-2.4,26.77-13.817,33.84-11.46,7.1-28.965,7.29-37.127-2.735-8.526-10.475-17.409-13.628-30.608-14.3C342.965,129.582,331.35,112.915,331.5,94.854Zm78.654,52.4c15.876.007,27.263-10.675,28.182-25.894.749-12.413-11.422-26.284-24.228-27.633-5.91-.623-9.82.077-10.539,7.8a32.394,32.394,0,0,1-11.422,21.706c-7.878,6.815-7.9,9.924-.118,17.207C397.241,145.306,403.47,147.8,410.154,147.251ZM368.4,118.738c7.037.06,23.853-22.283,21.8-28.966-3.179-10.357-15.685-19.27-24.722-17.619-11.941,2.183-22,14.013-21.21,24.939C345.082,108.364,356.533,118.635,368.4,118.738Z" transform="translate(195.949 145.415)" fill="#f0f0f0"/>
      <path id="Path_278" data-name="Path 278" d="M152.745,361.448c16.623-1.043,26.845,7.859,33.14,22.019,2.119,4.768,4.9,6.515,9.88,6.551,14,.1,23.8,7.141,28.848,19.817,5.081,12.765,2.138,25.057-7.225,34.555-9.157,9.288-21,11.4-33.739,7.352a25.041,25.041,0,0,1-14.88-12.13c-4.2-8.4-10.565-7.742-17.709-7.687-16.941.125-29.071-9.533-33.7-25.1C110.829,384.883,127.022,358.841,152.745,361.448Zm69.668,59.811c.1-13.236-13.749-27.147-26.871-27.062-4.044.026-7.635.491-7.612,5.774.045,10.827-5.2,19.149-13.506,25.19-6.326,4.606-4.106,8.666-.889,13.184,6.023,8.458,19.428,12.5,29.981,9.2C213.93,444.287,222.331,432.6,222.413,421.259Zm-69.432-1.9c5.864.968,9.812-1.861,11.755-8.285,1.348-4.459,3.248-8.919,6.845-12.042,4.6-3.992,3.3-8.391,1.282-12.652-4.589-9.7-17.411-14.882-27.785-11.551-9.1,2.922-17.591,15.12-16.372,23.524A24.215,24.215,0,0,0,152.981,419.363Z" transform="translate(-65.067 308.559)" fill="#f0f0f0"/>
      <path id="Path_279" data-name="Path 279" d="M278.559,231.854c-9.149,4.321-11.744,13.791-17.552,20.669-6.077,7.2-13.908,6.687-19.557-1.011-2.567-3.5-4.4-7.547-7.06-10.967-5.987-7.712-14.481-7.521-20.175.367-2.361,3.269-4.1,6.983-6.422,10.278-5.362,7.6-14.287,8.809-19.772,1.9-5.781-7.277-8.5-17.007-18.527-20.972,7.408-2.365,11.081,1.966,14.635,6.128,1.792,2.1,2.846,4.808,4.424,7.111,6.534,9.544,12.287,9.191,17.7-1.041,1.155-2.181,2.23-4.407,3.8-7.521-10.653-.67-15.633-7.751-20.141-15.756-5.5-9.773-10.894-9.541-16.79.461-4.313,7.316-8.382,14.142-18.611,14.629-9.977.476-13.594-6.463-17.5-12.969-2.67-4.443-5.163-8.357-10.5-9.743-4.061-1.054-5.4-4.057-4.508-7.906,1-4.327,4.617-5,8.1-4.345,7.7,1.445,13.3,5.506,17.166,12.795,6.3,11.866,7.854,11.675,14.485.322,10.389-17.8,27.911-18.452,39.267-1.475.689,1.032,1.47,2.007,2.112,3.065,5.579,9.174,6.7,9.206,12.218-.545,3.638-6.427,8.007-12.136,15.421-13.944,4.016-.977,9.344-1.855,11.177,3.69,1.79,5.4-1.524,7.551-6.622,8.84-6.045,1.53-7.843,7.483-10.576,12.31-1.462,2.582.309,3.581,2.1,3.924,9.176,1.752,12.472,9.584,17.136,16.061,6.047,8.4,10.4,8.1,16-.614C264.308,238.878,267.433,230.38,278.559,231.854Z" transform="translate(-59.973 168.335)" fill="#f0f0f0"/>
      <path id="Path_281" data-name="Path 281" d="M643.9,575.469c-8.1,3.9-12,11.645-17.089,18.5-6.16,8.3-16.075,7.55-21.6-.99-.676-1.045-1.189-2.19-1.831-3.256-9.876-16.385-16.9-16.578-27.744-.775-10.117,14.743-18.963,14.781-27.708-.594-3.153-5.545-7.713-9.323-12.984-13.721,5.064-2.745,7.964.054,10.357,2.436a64.837,64.837,0,0,1,7.375,9.565c2.391,3.492,3.488,8.275,9.159,8.054,5.77-.227,7.429-4.86,9.827-8.831,2.237-3.707,3.851-6.173-2.756-7.217-6.214-.985-9.266-6.732-12.259-11.905-7.448-12.866-12.559-12.909-19.991-.253-.629,1.071-1.125,2.226-1.8,3.267-8.185,12.693-23.065,12.647-30.876-.367-3.568-5.944-6.719-11.72-14.146-13.828a5.331,5.331,0,0,1-3.857-6.607c.955-3.424,3.314-4.956,6.959-4.875,9.492.206,15.275,5.545,19.707,13.323,6.206,10.889,8.127,11.2,13.272.5,9.928-20.645,33.883-16.561,41.473.135,4.759,10.469,7.225,10.181,12.8.039,4.3-7.82,9.838-13.495,19.289-13.961,3.308-.165,5.938.389,7,4.437,1.037,3.963-.813,6.21-3.763,7.421-3.512,1.442-6.672,2.829-9.043,6.083-3.8,5.22-7.275,9.408,2.329,12.6,5.7,1.893,8.633,7.657,11.756,12.8,5.762,9.483,11.1,9.421,17.37.24,3.628-5.31,5.974-11.815,13.184-13.731C640.062,573.488,641.775,572.333,643.9,575.469Z" transform="translate(257.513 467.865)" fill="#f0f0f0"/>
      <path id="Path_282" data-name="Path 282" d="M572.566,244.257C561.82,254.5,551,253.436,543.31,241.106c-3.6-5.77-6.047-12.25-14.189-13.437-3.125-.457-3.943-3.692-3.5-6.74.472-3.263,2.64-4.669,5.781-5.023a16.383,16.383,0,0,1,12.948,3.978c3.87,3.267,6.4,7.425,8.97,11.741,4.433,7.461,7.172,7.251,11.154-.444,4-7.727,8.9-14.206,18.368-15.363,11.143-1.363,18.164,4.25,23.376,13.356,5.892,10.291,7.142,10.209,13.468.436,4.587-7.084,9.192-14.326,19.332-13.783,3.366.18,6.276,1,6.936,4.815.68,3.924-.74,6.856-4.933,7.526-3.743.6-5.817,2.872-7.972,5.751-4.076,5.446-6.8,9.569,2.792,12.28,6.437,1.82,8.417,8.724,11.834,13.845,6.019,9.024,10.681,8.968,16.741-.169,1.715-2.585,2.928-5.54,4.851-7.942,3.5-4.368,7.461-8.2,14.728-5.624-10.009,3.845-12.712,13.648-18.75,20.643-5.491,6.358-14.882,5.3-20.175-1.741-2.415-3.215-4.134-6.946-6.5-10.207-6.124-8.459-14.565-8.217-20.422.436-14.461,21.363-17.554,21.6-32.786.678-3.578-4.916-11.007-5.077-12.634-11.673,7.313.219,13.307,2.823,17.029,9.464,1.365,2.438,2.576,4.963,3.963,7.386,2.228,3.889,5.6,6.313,10.031,4.768,5.456-1.9,7.987-7.148,9.309-12.057,1.4-5.2-4.386-2.43-6.538-4.066-3.216-2.449-6.781-4.572-8.548-8.3-9.4-19.883-17.263-15.444-24.926,1.827A7.085,7.085,0,0,1,572.566,244.257Z" transform="translate(292.18 181.524)" fill="#f0f0f0"/>
      <path id="Path_283" data-name="Path 283" d="M443.767,38.178c-.743,8.642-5.656,13.944-12.942,18-12.682,7.064-12.774,13.06.221,19.875,13.5,7.082,19.708,24.207.1,33.986-5.268,2.629-9.477,5.851-11.081,11.735-.944,3.467-3.125,5.761-6.757,4.645-3.9-1.2-6.2-4.27-5.607-8.575,1.161-8.4,6.307-13.8,13.57-17.681,3.1-1.657,8.058-2.043,7.946-6.725-.107-4.332-4.632-5.4-7.77-7.247-18.828-11.093-18.628-29.3.466-40.516,9.848-5.785,9.87-7.511.208-13.291-6.56-3.924-11.982-8.844-13.981-16.582-1.009-3.9-1.005-7.755,3.69-9.129,3.853-1.125,7.2-.616,8.749,4.237,1.79,5.615,6.159,9.059,11.34,11.729C438.295,25.928,442.64,30.972,443.767,38.178Z" transform="translate(189.221 -1.146)" fill="#f0f0f0"/>
      <path id="Path_284" data-name="Path 284" d="M595.609,430.823c.225,8.593-3.6,13.281-8.895,17.024-2.013,1.423-4.433,2.265-6.481,3.647-9.265,6.259-9.076,11.473.485,17.095,2.134,1.256,4.222,2.6,6.262,4.006,11.327,7.781,11.931,20.222,1,28.463-6.324,4.77-14.077,7.749-16.644,16.46-.644,2.185-3.368,3.709-6.214,3.083-3.319-.728-4.109-3.263-4.439-6.264-.788-7.176,2.052-12.729,7.68-16.833,3.494-2.546,7.494-4.388,11.044-6.865,3.142-2.19,4.1-4.667-.153-7.021a91.572,91.572,0,0,1-10.3-6.305c-12.137-8.992-11.8-25.96.56-34.744,13.689-9.728,13.641-9.657-.159-19.158-5.675-3.907-9.258-9.144-8.683-16.455.219-2.778-.021-5.86,3.845-6.4,3.649-.505,7.541-.12,8.189,4.07.974,6.309,5.607,8.307,10.232,10.975C592.766,421.273,595.546,425.259,595.609,430.823Z" transform="translate(186.101 332.938)" fill="#f0f0f0"/>
      <path id="Path_286" data-name="Path 286" d="M295.629,455.842c.878,7.889-4.411,11.759-9.913,15.507a93.234,93.234,0,0,0-8.326,5.854c-5.991,5.126-4.186,9.616,1.619,13.369,3.374,2.181,7.249,3.7,10.312,6.223,8.964,7.4,9.1,17.8.637,25.582-6.4,5.89-16.191,8.361-18.243,18.767-.343,1.736-3.746,3.11-6.521,1.99-2.445-.987-4.184-2.378-4.456-5.332a16.251,16.251,0,0,1,3.553-12.154c2.945-3.688,6.689-6.4,10.583-9.007,10.018-6.7,9.895-7.953-.949-13.656-17.19-9.039-18.106-28.925-1.816-39.372,12.328-7.908,12.366-7.964-.41-16.2-4.287-2.761-7.786-5.944-9.541-10.941-1.618-4.606-3.362-9.606,1.973-12.278,5.667-2.838,8.1,1.369,10,6.279,1.911,4.948,7,6.738,11.2,9.325C291.336,443.5,296.655,447.71,295.629,455.842Z" transform="translate(60.995 362.646)" fill="#f0f0f0"/>
      <path id="Path_288" data-name="Path 288" d="M396.46,321.373c-2.488-13.59-9.4-22.992-23.093-26.413a27.087,27.087,0,0,0-6.384-1c-6.9-.017-6.959,10.583-16.691,9.151-7.14-1.052-8.236,9.14-9.587,15.769-.168.831-.809,1.565-1.87,3.529-3.993-7.936-1.354-14.275,2.872-19.2,5.575-6.5,8.054-12.285,2.041-19.671-7.337-9.011-16.979-12.1-26.267-8.438-8.618,3.4-13.5,9.814-15.155,18.578-.878,4.634-1.923,9.29-7.386,8.822-5.787-.494-5.5-5.718-5.394-10.16.344-14.144,8.606-23.473,20.433-28.667,12.111-5.319,25.054-4.832,36.232,3.561,7.049,5.293,9.831,14.553,15.256,20.369,4.746,5.087,16.35,2.527,23.992,7.33C395.475,301.227,400.223,311.284,396.46,321.373Z" transform="translate(86.343 220.408)" fill="#f0f0f0"/>
      <path id="Path_289" data-name="Path 289" d="M230.966,193.557c-4.4-9.885-7.163-17.441-13.832-22.689-9.524-7.491-16.048-7.719-24.754-.208a5.819,5.819,0,0,1-3.194,1.687c-9.441.015-12.594,6.528-15.047,13.995-.539,1.642-.837,3.7-4.823,5.014-.257-7.841,2.763-13.918,6.59-19.5,7.082-10.34,1.14-24.335-11.7-26.931-13.4-2.711-24.657,4.306-28.35,17.645-.412,1.492-1.219,2.919-1.385,4.426-.47,4.257-2.728,5.952-6.914,5.51-4.27-.451-5.69-3.076-5.867-6.987-.663-14.494,13.957-31.591,28.564-33.319,21.483-2.539,32.447,3.177,41.632,22.981,2.707,5.837,6.961,5.137,11.5,5.435a31.191,31.191,0,0,1,29.023,26.858C232.544,188.525,231.915,189.68,230.966,193.557Z" transform="translate(-60.042 108.272)" fill="#f0f0f0"/>
      <path id="Path_291" data-name="Path 291" d="M157.654,512.081c4.008-.022,7.695.588,8.161,5.562.386,4.111-1.737,6.41-5.811,6.944a5.41,5.41,0,0,0-.919.17c-14.6,4.563-22.96,13.353-22.629,23.8.33,10.477,8.254,18.836,22.457,22.936,3.984,1.151,7.249,2.2,6.916,7.053-.343,4.978-3.9,5.7-7.966,5.778-16.936.311-33.724-17.117-34.2-35.558C123.179,530.4,140.274,511.958,157.654,512.081Z" transform="translate(312.922 -438.81)" fill="#f0f0f0"/>
      <path id="Path_292" data-name="Path 292" d="M507.545,176.808c-3.3-17.555,16.868-35.646,31.2-34.937,4.143.2,8.578-.026,9.127,5.579.532,5.418-3.181,6.277-7.622,7.206-12.208,2.554-19.774,10.89-20.061,21.189-.382,13.807,4.585,19.892,19.516,24.123,4.456,1.262,9.99,2.219,8.08,8.8-1.707,5.879-6.276,5.3-11.355,4.108C516.264,208.149,507.532,197.468,507.545,176.808Z" transform="translate(276.2 117.188)" fill="#f0f0f0"/>
      <path id="Path_293" data-name="Path 293" d="M287.508,142.38c-2.359.054-4.355-.756-5.388-2.936-1.29-2.72-1.485-5.918.964-7.728,8.492-6.277,6.163-11.54-.5-17.494-2.645-2.366-4.4-6.156-.558-9.743,4.072-3.8,7.56-2.243,10.3,1.279,4.877,6.259,9.2,7.273,14.382.247,2.773-3.759,7.15-5.987,11.181-2.05s1.917,8.277-1.829,11.171c-6.583,5.087-4.1,8.91.835,13.214,3.54,3.087,7.26,6.661,2.3,11.624s-8.706,1.38-11.6-2.3c-4.523-5.766-8.14-5.246-12.366.193C293.392,140.222,291.108,142.631,287.508,142.38Z" transform="translate(77.876 82.328)" fill="#f0f0f0"/>
      <path id="Path_294" data-name="Path 294" d="M147.127,483.519c-3.889.032-6.064-2.926-8.161-5.448-3.636-4.373-6.772-4.855-10.342-.082a22.529,22.529,0,0,1-4.046,3.83c-3.024,2.423-6.4,2.9-9.232.071s-2.844-6.875.15-9.1c8.934-6.644,5.542-11.795-1.05-17.344-3.346-2.818-3.686-6.264-.268-9.634,3.447-3.394,6.983-2.937,9.623.479,5.287,6.843,10.055,8.075,15.736.4,2.649-3.582,6.865-5.021,10.52-1.573,3.669,3.465,2.5,7.755-1.069,10.5-7.112,5.474-5.145,9.769.646,14.635,2.5,2.1,4.853,5.194,3.252,8.951A6.964,6.964,0,0,1,147.127,483.519Z" transform="translate(-70.816 441.096)" fill="#f0f0f0"/>
      <path id="Path_295" data-name="Path 295" d="M332.257,360.716c-4,.414-6.306-2.378-8.494-4.888-3.486-3.993-6.457-3.909-9.893.036a14.873,14.873,0,0,1-5.791,4.448c-3.216,1.108-6.916,1.361-9.243-2.069-2.25-3.318-.365-6.1,2.138-8.062,6.347-4.984,7.65-9.567.36-15.007-3.821-2.849-5.648-7.251-1.571-11.134,3.615-3.443,7.773-1.85,10.514,1.655,5.143,6.583,9.267,5.021,13.884-.614,3.052-3.724,6.826-6.9,11.623-1.919,4.377,4.549,1.574,8.243-2,10.915-6.787,5.075-5.263,9.161.487,13.624,3.127,2.428,4.873,5.719,3.185,9.8A5.221,5.221,0,0,1,332.257,360.716Z" transform="translate(93.276 273.086)" fill="#f0f0f0"/>
      <path id="Path_296" data-name="Path 296" d="M569.033,494.933c-11.156,7.713-5.188,15.872,1.616,24.4,1.389,1.739-.243,4.911-2.829,6.107-2.713,1.254-5.628,1.243-7.773-1.013-6.055-6.365-11.426-6.993-17.385.459-2.162,2.705-6.088,4.454-9.709.665-3.817-4-2.391-7.494,1.136-10.284,6.575-5.2,6.081-9.807-.148-14.867-3.436-2.793-5.173-6.863-1.781-10.522,3.827-4.126,8.163-2.336,11.16,1.415,4.813,6.023,8.743,5.171,13.264-.326,2.3-2.8,5.463-5.478,9.593-4.051C568.855,487.837,569.171,490.61,569.033,494.933Z" transform="translate(296.383 417.8)" fill="#f0f0f0"/>
      <path id="Path_297" data-name="Path 297" d="M687.642,107.083c0,3.733-2.9,5.555-4.686,7.983-3.02,4.115-4.746,7.777.447,11.748,3.948,3.022,6.955,7.985,3.269,11.989-4.272,4.643-9.335,1.352-12.641-2.72-4.8-5.918-8.054-2.87-11.885,1.069-2.835,2.917-6.083,8-10.681,3.6-4.306-4.119-2.889-9.376,1.511-12.937,5.718-4.628,3.585-7.916-.839-11.7-3.653-3.128-7.234-7.346-2.956-11.843,4.778-5.025,9.254-1.194,12.48,2.756,4.684,5.736,7.961,5.465,11.536-1.06,2.217-4.046,6.468-4.546,10.688-3.443A4.937,4.937,0,0,1,687.642,107.083Z" transform="translate(398.348 82.318)" fill="#f0f0f0"/>
      <path id="Path_298" data-name="Path 298" d="M144.136,89.555c-9.543,7.715-5.632,15.968,1.835,24.432,1.49,1.691-.258,4.51-2.836,6a6.476,6.476,0,0,1-8.479-1.447c-6.285-7.919-11.5-6.865-17.267.483-2.327,2.966-6.071,3.34-9.217.96-3.628-2.741-2.441-6.738-.142-9.056,5.989-6.036,7.858-11.16-.127-17.1a6.378,6.378,0,0,1-.814-9.264c2.829-3.128,7.268-2.617,9.958.4,5.987,6.721,10.649,7,15.745-1.026a6.909,6.909,0,0,1,8.429-2.211C143.794,82.9,144.6,85.211,144.136,89.555Z" transform="translate(57.019 14.411)" fill="#f0f0f0"/>
      <path id="Path_299" data-name="Path 299" d="M582.813,381.681c-.006,2.844-1.848,4.613-3.932,5.976-3.258,2.132-6.251.715-8.187-1.934-5.388-7.384-10.239-7.294-15.762-.041-2.732,3.587-7.026,4.8-10.531,1.155s-1.981-7.728,1.513-10.546c5.667-4.57,6.109-8.608.167-13.313-3.853-3.05-5.478-7.895-1.809-11.321,3.649-3.4,8.247-1.286,11.413,2.376,4.377,5.062,7.876,6.3,11.954-.723,2.144-3.69,6.67-6.618,11.125-3.462,4.154,2.947,2.872,7.3-.1,10.612-5.165,5.753-6.094,10.838,1.035,15.741A6.525,6.525,0,0,1,582.813,381.681Z" transform="translate(306.75 297.429)" fill="#f0f0f0"/>
      <path id="Path_300" data-name="Path 300" d="M475.619,180.772c7.809,9.726,16.277,5.525,25.059-1.29,2.176-1.687,4.49,1.327,5.933,3.3,1.668,2.284,1.591,5.01-.56,6.757-7.566,6.135-8.558,11.907-.309,18.439,2.954,2.34,3.143,6.289.352,9.138-3.175,3.239-7.285,2.728-9.863-.5-5.444-6.809-10.012-6.65-15.395.043-2.57,3.2-7.062,3.855-10.024,1.05-3.014-2.853-2.391-7.367.732-9.973,7.013-5.856,7.165-10.359-1-15.284a7.146,7.146,0,0,1-2.526-8.4C469,181.444,471.34,180.521,475.619,180.772Z" transform="translate(241.636 149.578)" fill="#f0f0f0"/>
      <path id="Path_301" data-name="Path 301" d="M242.361,136.5c-.193,9.408-9.477,18.389-18.752,18.136-9.333-.253-18.259-9.638-17.977-18.9a17.938,17.938,0,0,1,18.744-17.767C234.819,118.216,242.57,126.2,242.361,136.5Z" transform="translate(13.184 96.351)" fill="#f0f0f0"/>
      <path id="Path_302" data-name="Path 302" d="M550.372,133.009c.125-10,7.852-18.012,17.423-18.065,10.269-.056,19.476,8.928,19.173,18.707-.277,8.852-10.583,18.338-19.484,17.934A18.237,18.237,0,0,1,550.372,133.009Z" transform="translate(313.865 93.72)" fill="#f0f0f0"/>
      <path id="Path_303" data-name="Path 303" d="M159.828,350.924c-10.434-.1-18.119-7.785-18.2-18.209-.084-10.606,7.36-17.784,18.43-17.771,9.033.011,18.331,9.1,18.181,17.784C178.055,343.193,170.138,351.021,159.828,350.924Z" transform="translate(-42.637 268.157)" fill="#f0f0f0"/>
      <path id="Path_304" data-name="Path 304" d="M639.3,356.254c-.067-10.437,7.489-18.593,17.353-18.729,9.524-.133,17.469,7.824,17.683,17.707.225,10.421-7.494,18.847-17.349,18.935C645.739,374.268,639.377,367.826,639.3,356.254Z" transform="translate(306.037 419.653)" fill="#f0f0f0"/>
      <path id="Path_305" data-name="Path 305" d="M434.389,469.213c-9.314,1.973-17.6-8.618-17.823-17.462-.24-9.6,7.977-17.428,18-17.522,10.5-.1,18.83,7.856,18.653,17.821C453.026,462.666,445.743,469.3,434.389,469.213Z" transform="translate(197.158 372.195)" fill="#f0f0f0"/>
      <path id="Path_306" data-name="Path 306" d="M402.524,279.654c.047,12.252-5.662,18.57-16.726,18.516-10.415-.051-18.136-7.633-18.312-17.98-.176-10.4,7.85-18.945,17.937-18.235C397.018,262.769,404.239,271.27,402.524,279.654Z" transform="translate(154.354 221.904)" fill="#f0f0f0"/>
      <path id="Path_307" data-name="Path 307" d="M341.056,507.531c-2.2-.11-4.484-.18-5.134-2.93-.749-3.173-.474-6.174,1.964-8.64,5.452-5.517,10.892-11.044,16.382-16.526,8.565-8.548,17.187-17.042,25.741-25.6,3.43-3.434,7.9-5.48,11.4-1.85,3.467,3.6,1.253,8-2.175,11.4q-20.481,20.329-40.86,40.759C346.341,506.177,344.169,507.849,341.056,507.531Z" transform="translate(146.331 278.357)" fill="#f0f0f0"/>
      <path id="Path_308" data-name="Path 308" d="M183.25,18.91c.167,1.6-2.2,3.769-4.383,5.955Q159.134,44.63,139.349,64.342c-3.563,3.57-8.075,6.437-12.087,2.441-3.516-3.5-1.236-7.99,2.192-11.392q20.484-20.329,40.842-40.78c2.906-2.924,6.115-4.123,10.084-2.964C183.1,12.443,182.922,14.808,183.25,18.91Z" transform="translate(-56.699 3.245)" fill="#f0f0f0"/>
      <path id="Path_309" data-name="Path 309" d="M621.214,327.92c-2.142-.144-4.529.064-5.354-2.621-1.211-3.945-.06-7.178,2.876-10.085,10.8-10.7,21.495-21.511,32.244-32.263,3.291-3.291,6.568-6.6,9.975-9.767,3.048-2.836,7.107-3.825,10.1-1.093,3.072,2.808,2.314,7.079-.569,10-14.371,14.586-28.9,29.019-43.4,43.481A7.336,7.336,0,0,1,621.214,327.92Z" transform="translate(315.794 270.977)" fill="#f0f0f0"/>
      <path id="Path_310" data-name="Path 310" d="M635.819,22.712c-10.278-.009-20.556.007-30.833-.017-4.33-.009-8.44-.629-8.46-6.236s4.072-6.281,8.412-6.285c20.557-.011,41.113-.079,61.668.084,4.42.036,9.323.784,9.067,6.837-.238,5.633-4.9,5.585-9.018,5.605C656.376,22.755,646.1,22.719,635.819,22.712Z" transform="translate(354.121 2.321)" fill="#f0f0f0"/>
      <path id="Path_311" data-name="Path 311" d="M139.186,270.18c-9.958-.006-19.918.024-29.876-.019-4.763-.021-9.3-1.457-9.174-6.9.118-5.158,4.647-5.682,9-5.667,20.229.069,40.458.024,60.685.047,4.607,0,9.213.406,8.966,6.65-.223,5.624-4.585,5.871-8.8,5.886C159.726,270.208,149.457,270.185,139.186,270.18Z" transform="translate(-78.824 218.134)" fill="#f0f0f0"/>
      <path id="Path_313" data-name="Path 313" d="M492.325,361.4c10.567,0,21.135-.021,31.7.013,3.591.011,7.212.53,7.64,4.978.419,4.36-3.314,5.763-6.476,6.774-2.586.826-5.514.76-8.29.769q-25.642.09-51.285.013a31.011,31.011,0,0,1-6.5-.331c-3.421-.747-6.762-1.99-6.493-6.478.262-4.385,3.28-5.663,7.068-5.68,10.877-.054,21.755-.019,32.634-.019Z" transform="translate(228.598 308.669)" fill="#f0f0f0"/>
      <path id="Path_314" data-name="Path 314" d="M494.265,103.522q-15.353,0-30.708-.006c-4.508-.007-8.21-1.219-7.94-6.7.243-4.956,3.9-5.791,7.912-5.8,20.472-.024,40.945.036,61.417-.06,5.128-.024,8.945,2.028,8.955,7.182.008,5.538-4.785,5.431-8.926,5.422q-15.356-.031-30.71-.006Z" transform="translate(231.211 72.804)" fill="#f0f0f0"/>
      <path id="Path_315" data-name="Path 315" d="M587.492,416.605c3.636,7.871,10.353,11.93,17.235,16.2,10.432,6.47,9.962,16.127-.558,22.635-1.848,1.144-3.707,2.273-5.508,3.49-11.8,7.976-11.752,16.741.144,24.49,2.08,1.355,4.407,2.366,6.362,3.87,9.565,7.358,9.3,15.558-.715,22.427-3.323,2.278-6.781,4.366-10.211,6.487-3.325,2.058-3.542,6.336-7.118,9.788-2.4-6.008-.5-10.151,3.336-13.448,2.8-2.4,6.2-4.106,9.376-6.06,10.245-6.311,10.282-11.467-.363-17.233-6.746-3.653-12.976-7.015-13.837-15.936-.959-9.938,4.02-15.421,12.055-19.924,13.276-7.438,13.072-11.585-.131-19.534C591.223,430.04,584.266,426.5,587.492,416.605Z" transform="translate(208.317 347.084)" fill="#f0f0f0"/>
      <path id="Path_316" data-name="Path 316" d="M287.694,548.8c-3.087-8.412,3.319-12.3,8.264-15.985,15.389-11.463,15.552-11.244.067-22.1-14.227-9.977-13.914-23.683.766-32.814,1.318-.82,2.769-1.43,4.078-2.262,8.97-5.7,9.134-9.807.717-16.02-3.988-2.945-8.093-5.761-11.842-8.988-3.168-2.726-4.785-6.154-1.528-11.973,2.722,9.574,9.949,12.667,16.29,16.87,11.025,7.3,10.67,17.065-.607,24a77.784,77.784,0,0,0-8.547,5.645c-7.361,6-7.017,13.781.788,19.379,2.262,1.623,4.868,2.758,7.214,4.276,12.156,7.861,12.448,17.784.32,25.284C297.368,538.007,291.143,541.643,287.694,548.8Z" transform="translate(124.761 376.127)" fill="#f0f0f0"/>
      <path id="Path_318" data-name="Path 318" d="M435.45,132.7c-3.748-5.124-1.3-8.011.419-10.756a18.073,18.073,0,0,1,7.691-6.605c14.8-7.066,15.116-13.534.813-22.167-16.251-9.806-15.543-23.2.779-32.907,13.916-8.277,13.862-12.673-.384-21.055-6.27-3.688-11.888-7.689-10.151-17.02,3.932,9.333,12.851,12.33,20.023,17.589s6.607,15.2-.607,20.751c-3.183,2.447-6.919,4.164-10.2,6.5-8.938,6.375-8.62,14.76.7,20.847,1.558,1.017,3.282,1.777,4.862,2.761,14.2,8.852,14.1,18.712-.461,27.177C443.2,121.155,438.172,125,435.45,132.7Z" transform="translate(211.096 12.822)" fill="#f0f0f0"/>
      <path id="Path_319" data-name="Path 319" d="M182.012,529.309c-15.6,3.666-26.753,11.808-28.68,28.3-1.445,12.371,8.251,22.6,27.248,29.7-6.161,3.641-14.717,1.4-22.311-5.851-9.333-8.9-12.089-25.22-6.274-37.129C157.46,533.141,169.515,526.611,182.012,529.309Z" transform="translate(-36.245 454.593)" fill="#f0f0f0"/>
      <path id="Path_320" data-name="Path 320" d="M349.885,84.327C339.5,86.888,332.244,81.6,326.153,74.308c-13.667-16.359-4.855-44.5,15.659-49.961,2.642-.7,7.047-3.638,8.26-.007,1.361,4.068-3.859,3.6-6.452,4.581-19.383,7.375-25.6,28.633-12.652,43.727C336,78.512,343.752,79.828,349.885,84.327Z" transform="translate(1.858 36.497)" fill="#f0f0f0"/>
      <path id="Path_321" data-name="Path 321" d="M564.118,158.456c-15.065,4.909-27.984,13.072-27.564,29.829.4,15.871,11.169,25.647,28.349,28.506-7.865,3.879-14.59,1.949-22.092-5.2-11.638-11.093-13.927-22.206-7.65-37.124C539.862,163.3,550.475,156.812,564.118,158.456Z" transform="translate(297.623 131.45)" fill="#f0f0f0"/>
    </g>
    <line id="Line_12" data-name="Line 12" x2="586" y2="586" transform="translate(1334)" fill="none" stroke="#000" stroke-linecap="round" stroke-width="2" opacity="0.2"/>
    <g id="Group_31" data-name="Group 31">
      <line id="Line_10" data-name="Line 10" x2="789" y2="789" transform="translate(1131)" fill="none" stroke="#000" stroke-linecap="round" stroke-width="2" opacity="0.503"/>
      <line id="Line_11" data-name="Line 11" x2="690" y2="690" transform="translate(1230)" fill="none" stroke="#000" stroke-linecap="round" stroke-width="2" opacity="0.4"/>
      <path id="Path_114" data-name="Path 114" d="M0,0,625,625" transform="translate(1295)" fill="none" stroke="#000" stroke-linecap="round" stroke-width="2" opacity="0.3"/>
      <g id="Layer_2" data-name="Layer 2" transform="translate(1226.501 148.502)">
        <g id="Objects" transform="translate(0.499 0.498)">
          <path id="Path_86" data-name="Path 86" d="M133.73,254.863c-2.362,5.053-16.011,14.009-31.365,12.664a79.368,79.368,0,0,1-22.113-6.89c.722-7.644-4.823-24.672-6.365-29.2l.853-.755s-.525-3.9-1.28-9.843h7.021c16.4,14.075,43.964,5.742,49.968,3.707C131.761,230.814,135.7,250.63,133.73,254.863Z" transform="translate(165.916 502.077)" fill="#fff" stroke="#231f20" stroke-miterlimit="10" stroke-width="2" opacity="0.1"/>
          <path id="Path_87" data-name="Path 87" d="M133.73,254.863c-2.362,5.053-16.011,14.009-31.365,12.664a79.368,79.368,0,0,1-22.113-6.89c.722-7.644-4.823-24.672-6.365-29.2l.853-.755s-.525-3.9-1.28-9.843h7.021c16.4,14.075,43.964,5.742,49.968,3.707C131.761,230.814,135.7,250.63,133.73,254.863Z" transform="translate(165.916 502.077)" fill="#fff" stroke="#231f20" stroke-miterlimit="10" stroke-width="2"/>
          <path id="Path_88" data-name="Path 88" d="M136.921,291.73s13.813,28.675,10.368,45.309-14.37,95.146-12.664,111.78c1.181,11.319,3.281,22.343,4.3,28.248.525,2.789.886,4.429.886,4.429l-1.148.394c-6,2.034-33.728,10.368-49.968-3.707h0l-1.378-8.137-8.563-51.018c3.871-20.538,13.124-72.18-8.891-94.26,0,0,19.39-84.548,23.622-96.327s29.331-53.413,21.982-96.589A92.98,92.98,0,0,0,150.537,108a206.072,206.072,0,0,1,7.021,49.607C158.706,194.878,136.921,291.73,136.921,291.73Z" transform="translate(157.704 244.701)" fill="#231f20" stroke="#231f20" stroke-miterlimit="10" stroke-width="2"/>
          <path id="Path_89" data-name="Path 89" d="M155.825,253.528a8.7,8.7,0,0,1-.2,1.378c-1.87,7.776-10.958,16.7-23.688,17.29s-20.932-7.776-27.527-7.612-55.02,11.91-64.076-26.608c0,0-.755-8.465,9.843-10.236,8.235-1.345,33.6-.623,47.606-3.018l.492,2.067a60.36,60.36,0,0,0,10.138,3.773c10.663,3.281,27.789,5.413,41.044-6.562C151,228.757,156.547,245.785,155.825,253.528Z" transform="translate(90.342 509.284)" fill="#fff" stroke="#231f20" stroke-miterlimit="10" stroke-width="2"/>
          <path id="Path_90" data-name="Path 90" d="M143.808,218.066c-4.232,11.778-23.622,96.327-23.622,96.327,21.982,21.949,12.763,73.722,8.891,94.26-.623,3.281-1.115,5.807-1.312,7.251-.853,6.267,1.378,27.625,3.281,43.472.361,3.281.722,6.07,1.05,8.6.755,5.873,1.28,9.843,1.28,9.843l-.853.755c-13.124,11.877-30.381,9.646-41.044,6.562a60.365,60.365,0,0,1-10.007-4.068L80.979,479c-1.444-5.774-2.756-11.483-4-17.126A841.274,841.274,0,0,1,57.882,312.95c-14.534-137.8-10.072-185.666-7.218-200.43,6.332,9.121,26.8,19.915,62.14,19a177.98,177.98,0,0,0,17.881-1.345,139.273,139.273,0,0,0,35.171-8.694C173.336,164.653,148.139,206.255,143.808,218.066Z" transform="translate(107.182 255.011)" fill="#231f20" stroke="#231f20" stroke-miterlimit="10" stroke-width="2"/>
          <path id="Path_91" data-name="Path 91" d="M84.714,56.542a65.848,65.848,0,0,0-15.748,21.49,18.274,18.274,0,0,0-6.332,4.889L46,65.663h0A68.407,68.407,0,0,1,56.893,48.57a23.327,23.327,0,0,1,5.184-4.2h0Z" transform="translate(103.282 99.569)" fill="#231f20" stroke="#231f20" stroke-miterlimit="10" stroke-width="2"/>
          <path id="Path_92" data-name="Path 92" d="M117.957,15.216a4,4,0,0,0-5.709-2.067L2.5,75.879A3.97,3.97,0,0,0,.8,80.834l27.264,66.208a55.773,55.773,0,0,1,4.331-5.643L7.424,80.571a2.165,2.165,0,0,1,.919-2.658L110.575,18.858a2.133,2.133,0,0,1,3.051,1.116l23.491,64.01h5.84Z" transform="translate(-0.499 27.179)" fill="#231f20" stroke="#231f20" stroke-miterlimit="10" stroke-width="2"/>
          <path id="Path_93" data-name="Path 93" d="M96.388,38.8s-.623,1.772-1.345,4.364a69.161,69.161,0,0,0-2.2,10.827L74.5,65.57,22.864,97.69A44.716,44.716,0,0,0,22.47,92.8L71.913,61.9l21.1-13.124a2.067,2.067,0,0,0,.853-2.526l-1.214-3.281L90.614,37.42C92.419,37.847,94.387,38.339,96.388,38.8Z" transform="translate(49.613 83.716)" fill="#231f20" stroke="#231f20" stroke-miterlimit="10" stroke-width="2"/>
          <path id="Path_94" data-name="Path 94" d="M138.51,101.108l-21.1,13.124L67.873,145.2a21.588,21.588,0,0,0-.82-3.773c-2.789-8.235-8.366-10.433-10.564-16.4s-5.348-33.3-11.155-33.1-2.2,28.38-4.856,31.792c-1.542,1.969-7.841,7.874-12.8,13.55L2.714,76.436a2.165,2.165,0,0,1,.919-2.658L105.865,14.723a2.133,2.133,0,0,1,3.051,1.116l23.491,64.01c-5.184,0-9.843.558-9.843,2.067.23,2.231,5.085,5.315,13.419,7.776l2.034,5.545,1.214,3.281A2.067,2.067,0,0,1,138.51,101.108Z" transform="translate(4.211 31.314)" fill="#fff" stroke="#231f20" stroke-miterlimit="10" stroke-width="2"/>
          <path id="Path_95" data-name="Path 95" d="M79.6,67h0a23.328,23.328,0,0,0-5.184,4.2A68.407,68.407,0,0,0,63.494,88.328h0A51.9,51.9,0,0,1,38.33,72.481L56.933,60.9a69.159,69.159,0,0,1,2.2-10.827c.722-2.592,1.345-4.364,1.345-4.364-2.1-.459-4.068-.951-5.873-1.476-8.333-2.461-13.124-5.545-13.419-7.776-.2-1.509,4.626-2,9.843-2.067h5.84a43.623,43.623,0,0,1,4.856.361c5.249.623,12.566,9.843,12.566,9.843Z" transform="translate(85.788 76.805)" fill="#fff" stroke="#231f20" stroke-miterlimit="10" stroke-width="2"/>
          <path id="Path_96" data-name="Path 96" d="M229.068,107.2c-4.692,30.545-25.328,73.2-24.738,88.289s5.709,73.951.558,79.1c-.886.886-2.133,2.362-3.871,4.232a92.98,92.98,0,0,1-35.2,23.786,139.273,139.273,0,0,1-35.171,8.694,177.976,177.976,0,0,1-17.815,1.345c-35.335.919-55.775-9.843-62.14-19a12.271,12.271,0,0,1-1.739-3.281c-3.74-10.893,2-36.976,5.446-44.718,2.3-5.184,7.284-25.394,8.694-48.524h0a479.791,479.791,0,0,0,30.479-49.213A34.646,34.646,0,0,0,91.5,112.84a34.023,34.023,0,0,0-12.763-9.351,17.389,17.389,0,0,0-13.747.2A65.848,65.848,0,0,1,80.772,82.2,98.428,98.428,0,0,1,97.6,69.893h.23a37.4,37.4,0,0,1,9.843-1.444c3.773.3,55.775,5.151,72.18-22.015l-5.118-7.513c8.662-3.642,17.881-6.562,24.41-5.643C215.223,35.247,233.563,76.521,229.068,107.2Z" transform="translate(107.225 73.881)" fill="#fff" stroke="#231f20" stroke-miterlimit="10" stroke-width="2"/>
          <path id="Path_97" data-name="Path 97" d="M147.172,103.032a7.349,7.349,0,0,1-3.707,2.1,174.313,174.313,0,0,1-39.9,6.135c-4.265,0-8.038-5.184-11.122-11.877a92.564,92.564,0,0,1-3.609-8.858C87.3,86.267,86.016,82,85,78.524c6.857-5.774,10.761-17.782,2.592-20.768-6.562-2.4-9.482,2.362-10.63,5.774-3.445-4.068-6.3-8.5-2.428-13.977,6.562-9.252,4.823-15.781,4.823-15.781a59.549,59.549,0,0,1-13.681-7.644c-9.187-7.251-4.856-12.271-4.856-12.271C79.586-6.254,118.956.275,138.117,8.083a25.493,25.493,0,0,1,17.061,25.689C181.064,49.98,149.272,99.259,147.172,103.032Z" transform="translate(134.757 -0.498)" fill="#231f20" stroke="#231f20" stroke-miterlimit="10" stroke-width="2"/>
          <path id="Path_98" data-name="Path 98" d="M143.716,87.245l-.558,8.268c-4.757,4.528-18.57,13.124-56.923,15.715a55.085,55.085,0,0,0-1.8-10.86,76.807,76.807,0,0,0-4.889-11.122A20.211,20.211,0,0,1,69.4,91.707c-8.137-1.476-10.236-55.775-9.613-68.9A23.229,23.229,0,0,1,65.927,8.34a59.548,59.548,0,0,0,13.681,7.644s1.706,6.562-4.823,15.781c-3.871,5.479-1.017,9.843,2.428,13.977,1.148-3.281,4-8.169,10.63-5.774,8.169,2.986,4.265,14.994-2.592,20.768,1.017,3.478,2.3,7.743,3.839,12.008A92.562,92.562,0,0,0,92.7,81.6c3.084,6.562,6.857,11.877,11.122,11.877A174.315,174.315,0,0,0,143.716,87.245Z" transform="translate(134.505 17.388)" fill="#fff" stroke="#231f20" stroke-miterlimit="10" stroke-width="2"/>
          <path id="Path_99" data-name="Path 99" d="M147.9,44.254c-16.4,27.166-68.242,22.31-72.18,22.015a37.4,37.4,0,0,0-9.843,1.444h-.23s-2.592-6.562-3.773-9.58a4.167,4.167,0,0,1,1.739-4.56c6.562,0,12.467-.427,17.946-.82C119.918,50,133.73,41.563,138.487,37.036a9.842,9.842,0,0,0,2.329-2.986l1.969,2.854Z" transform="translate(139.176 76.03)" fill="#231f20" stroke="#231f20" stroke-miterlimit="10" stroke-width="2"/>
          <path id="Path_100" data-name="Path 100" d="M53.787,114.9h0c-1.247.361-21.424,6.562-23.393,16.4v.2c-3.281-4.265-11.483-14.731-14.731-16.733C11.53,112.275,9.1,99.086,8.38,93.738a8.333,8.333,0,0,1,1.706-4.692A55.773,55.773,0,0,1,14.417,83.4c4.954-5.676,11.253-11.581,12.8-13.55,2.658-3.281-.984-31.562,4.856-31.792S41.025,65,43.223,71.067,51,79.335,53.787,87.471a21.589,21.589,0,0,1,.82,3.773A44.723,44.723,0,0,1,55,96.133,124.835,124.835,0,0,1,53.787,114.9Z" transform="translate(17.475 85.175)" fill="#fff" stroke="#231f20" stroke-miterlimit="10" stroke-width="2"/>
          <path id="Path_101" data-name="Path 101" d="M168.1,99.911a479.789,479.789,0,0,1-30.479,49.213h0a216.835,216.835,0,0,1-27.789,33.662c-19.981,17.946-27.822,12.73-39.371,13.124S13.7,106.112,15.081,94.924h0v-.2c1.969-9.843,22.146-16.142,23.393-16.4h0c19.685,15.355,44.883,63.157,44.883,63.157s42.652-70.67,48.688-79.365a15.193,15.193,0,0,1,1.05-1.378,18.275,18.275,0,0,1,6.463-5.053,17.389,17.389,0,0,1,13.747-.2,34.023,34.023,0,0,1,12.763,9.35A34.646,34.646,0,0,1,168.1,99.911Z" transform="translate(32.69 121.916)" fill="#231f20" stroke="#231f20" stroke-miterlimit="10" stroke-width="2"/>
        </g>
      </g>
    </g>
  </g>
</svg>
