<svg xmlns="http://www.w3.org/2000/svg" width="1714.516" height="870.096" viewBox="0 0 1714.516 870.096">
  <g id="Group_329" data-name="Group 329" transform="translate(-87.618 -80.5)">
    <g id="Group_75" data-name="Group 75">
      <text id="Lost_It" data-name="Lost
It" transform="translate(1475 701)" font-size="137" font-family="Menlo-Bold, Menlo" font-weight="700"><tspan x="-329.924" y="0">Lost</tspan><tspan x="-164.962" y="159">It</tspan></text>
      <text id="Lost_It-2" data-name="Lost
It" transform="translate(1464 692)" fill="#fff" stroke="#000" stroke-width="2" font-size="137" font-family="Menlo-Bold, Menlo" font-weight="700"><tspan x="-329.924" y="0">Lost</tspan><tspan x="-164.962" y="159">It</tspan></text>
    </g>
    <g id="Group_74" data-name="Group 74">
      <g id="Layer_2" data-name="Layer 2" transform="translate(1424.47 190.457)">
        <g id="Layer_1" data-name="Layer 1" transform="translate(1.53 -0.001)">
          <path id="Path_1" data-name="Path 1" d="M208.665,514.491H121.217c-1.468-88.937-6.6-151.813,66.744-216.758,21.821-22.627,69.557-64.593,80.664-88.358C305.647,138.8,246.411,70.633,169.139,75c-57.726.765-110.944,27.508-162.9,63.042V51.522c122.03-84.3,366.937-76.775,366.317,110.447,2.585,73.694-61.573,124.532-114.6,177.171-66.186,57.54-46.247,99.4-49.226,175.35m-90.674,67.633h93.425V699.087H117.99Z" transform="translate(3.502 0.001)" fill="#231f20"/>
          <path id="Path_2" data-name="Path 2" d="M188.877,485.61H107.985c-1.365-82.3-6.081-140.458,61.759-200.625,20.187-20.931,64.366-59.774,74.728-81.76,34.148-65.317-20.683-128.379-92.2-124.346-53.4.724-102.65,25.44-150.738,58.347V57.245C114.4-20.751,341.041-13.8,340.462,159.377c2.4,68.254-56.982,115.225-106.021,163.933-61.284,53.238-42.793,91.977-45.5,162.237m-83.952,62.669h86.455V656.369H104.986Z" transform="translate(-1.53 10.225)" fill="#fff"/>
          <path id="Path_3" data-name="Path 3" d="M188.877,485.61H107.985c-1.365-82.3-6.081-140.458,61.759-200.625,20.187-20.931,64.366-59.774,74.728-81.76,34.148-65.317-20.683-128.379-92.2-124.346-53.4.724-102.65,25.44-150.738,58.347V57.245C114.4-20.751,341.041-13.8,340.462,159.377c2.4,68.254-56.982,115.225-106.021,163.933C173.158,376.549,191.648,415.35,188.877,485.61Zm-83.89,62.607h86.455V656.369H104.986Z" transform="translate(-1.53 10.225)" fill="none" stroke="#231f20" stroke-miterlimit="10" stroke-width="3.05"/>
        </g>
      </g>
      <g id="Group_73" data-name="Group 73">
        <g id="Layer_2-2" data-name="Layer 2" transform="translate(104.5 664.5)">
          <g id="Layer_1-2" data-name="Layer 1" transform="translate(0.5 0.5)">
            <path id="Path_37" data-name="Path 37" d="M521.441,90.719C470.35,51.544,416.349,28.994,384.1,22.969,269.1,1.7,195.276,65.2,75.589,32.738A295.138,295.138,0,0,1,.5.5" transform="translate(-0.5 -0.5)" fill="none" stroke="#231f20" stroke-linecap="round" stroke-miterlimit="10" stroke-width="2" stroke-dasharray="10"/>
          </g>
        </g>
        <g id="Layer_2-3" data-name="Layer 2" transform="translate(406.874 451.753)">
          <g id="Layer_1-3" data-name="Layer 1" transform="translate(0.5 0.5)">
            <path id="Path_38" data-name="Path 38" d="M.5,181.73c2.307,1.661,6.137,4.292,11.536,7.591" transform="translate(-0.5 236.419)" fill="none" stroke="#231f20" stroke-linecap="round" stroke-miterlimit="10" stroke-width="2"/>
            <path id="Path_39" data-name="Path 39" d="M16.24,435.867c63.8,33.063,197.434,84.7,327.819,40.839,84.17-28.31,191.735-105.651,186.89-185.529s-119.287-106.3-114.926-167.509C418.515,88.736,459.377,46.4,606.374,3.69" transform="translate(20.077 3.67)" fill="none" stroke="#231f20" stroke-linecap="round" stroke-miterlimit="10" stroke-width="2" stroke-dasharray="12.29 12.29"/>
            <path id="Path_40" data-name="Path 40" d="M277.94,4.146C282.3,2.923,286.754,1.838,291.3.5" transform="translate(362.193 -0.5)" fill="none" stroke="#231f20" stroke-linecap="round" stroke-miterlimit="10" stroke-width="2"/>
          </g>
        </g>
        <g id="Group_6" data-name="Group 6">
          <path id="Path_6" data-name="Path 6" d="M20.8,39.656A34.046,34.046,0,0,1,3.821,45.584c-.454-3.445-.721-5.527-.721-5.527,13.725-1.015,16.4-7.317,16.4-7.317Z" transform="translate(548.503 343.703)" fill="#fff" stroke="#231f20" stroke-linecap="round" stroke-linejoin="round" stroke-width="2"/>
          <g id="Group_5" data-name="Group 5">
            <g id="Group_4" data-name="Group 4">
              <path id="Path_4" data-name="Path 4" d="M64.514,204.173a47.9,47.9,0,0,0,5.608,8.011c3.2,3.578,20.935,15.461,19.653,21.148s-9.079,15.461-22.671,9.8S53.752,228.74,45.581,222.892s-9.693-7.049-10.281-10.681A57.624,57.624,0,0,1,36.716,199.1Z" transform="translate(602.284 621.568)" fill="#231f20" stroke="#231f20" stroke-linecap="round" stroke-linejoin="round" stroke-width="2"/>
              <path id="Path_5" data-name="Path 5" d="M86.335,188.56s18.158,14.179,26.2,17.6,17.49,7.61,18.425,11.028,2.67,12.684-16.022,10.254-26.7-14.553-35.942-15.114-17.49-2.19-19.2-7.4,2.35-13.779,2.35-13.779Z" transform="translate(642.493 603.963)" fill="#231f20" stroke="#231f20" stroke-linecap="round" stroke-linejoin="round" stroke-width="2"/>
              <path id="Path_7" data-name="Path 7" d="M91.61,29.089c9.693,0,16.582,8.572,16.582,8.572,8.732-3.712,19.386-23.578,9.933-32.47S96.6,3.695,94.761,7.86,91.61,29.089,91.61,29.089Z" transform="translate(696.338 290.691)" fill="#fff" stroke="#231f20" stroke-linecap="round" stroke-linejoin="round" stroke-width="2"/>
              <path id="Path_41" data-name="Path 41" d="M169.7,128.792c-8.385,55.595,14.419,90.789-.881,112.391-4.433,6.382-12.176,11.509-24.994,15.7-40.722,13.351-56.076,6.756-62.19,0a16.422,16.422,0,0,1-3.685-6.676c-1.6-5.554.854-72.364-1.335-84.514-.641-3.845-2-10.227-3.284-17.49-33.645,4.646-51.3,4.166-56.076.908S5.61,95.147,3.42,78.137A34.286,34.286,0,0,0,20.4,72.209c2.51,12.791,8.011,39.573,11.562,46.81a4.459,4.459,0,0,0,4.433,2.056c7.824,0,23.605-8.2,35.114-15.034,4.059-2.43,7.584-4.726,10.04-6.409,8.011-8.011,19.653-19.306,30.6-25.848-1.709,5.18,6.142,12.684,15.14,12.684a16.021,16.021,0,0,0,3.765-.347,12.1,12.1,0,0,0,8.358-5.554l2.19-7.049A19.6,19.6,0,0,0,154.717,72.5a13.886,13.886,0,0,0,2.377-1.335,12.176,12.176,0,0,0,2.67-2.67,14.954,14.954,0,0,0,1.122-1.656c10.254.187,28.091-.854,36.342-8.865,9.346-9.239,29.88-34.446,38.185-44.727,2.67.507,9.025,2.43,16.876,9.88-7.557,13.351-26.3,45.955-33.912,53.565-7.183,7.156-33.672,26.355-46.783,35.675C171.166,117.177,170.525,122.571,169.7,128.792Z" transform="translate(549.037 311.15)" stroke="#231f20" stroke-linecap="round" stroke-linejoin="round" stroke-width="2"/>
              <path id="Path_9" data-name="Path 9" d="M141.973,224.3c0,29.373-6.275,114.634-6.275,114.634-8.171,9.96-24.032,2.67-24.032,2.67,1.095-16.636-2.67-61.016-4.806-72.845s3.311-28.412,3.311-28.412L89.422,168.414s1.522,60.108-.32,81.55S73.641,372.235,73.641,372.235c-18.1,10.441-27.8-5.341-27.8-5.341s1.095-85.448,2.67-111.3S35.937,172.42,31.05,149.135s6.542-34.954,6.542-34.954c6.008,6.756,21.362,13.351,62.19,0,12.71-4.192,20.454-9.346,24.914-15.7C125.07,100.429,141.973,195.464,141.973,224.3Z" transform="translate(593.157 453.506)" fill="#fff" stroke="#231f20" stroke-linecap="round" stroke-linejoin="round" stroke-width="2"/>
              <path id="Path_11" data-name="Path 11" d="M93.066,60.942A16.428,16.428,0,0,1,91.944,62.7a12.07,12.07,0,0,1-2.67,2.67,16.209,16.209,0,0,1-2.4,1.335,19.52,19.52,0,0,1-13.084.988L71.6,74.774a12.2,12.2,0,0,1-8.385,5.554,17.571,17.571,0,0,1-3.738.347c-9,0-16.876-7.53-15.167-12.71h0l1.816-6.008c.988-3.365,2.19-7.61,3.445-11.589l2.67-9.052-.694-.507c-3.5-2.911-4.833-7.13-2.937-9.426a3.418,3.418,0,0,1,1.308-.988,5.34,5.34,0,0,1,3.017-.4,11.8,11.8,0,0,1,6.515,3.338,16.582,16.582,0,0,0,3.124-4.3,46.489,46.489,0,0,1,5.581-9.239,6.542,6.542,0,0,1,8.6-2.19C81.5,20.06,89.862,22.276,95.9,19.526,97.285,29.112,99.314,50.5,93.066,60.942Z" transform="translate(616.937 317.103)" fill="#fff" stroke="#231f20" stroke-linecap="round" stroke-linejoin="round" stroke-width="2"/>
              <path id="Path_12" data-name="Path 12" d="M104.749,31.333a11.082,11.082,0,0,1-4.967,4.353c-6.061,2.67-14.366.534-19.146-1.923a6.355,6.355,0,0,0-8.572,2.19,47.906,47.906,0,0,0-5.608,9.239,16.475,16.475,0,0,1-3.151,4.326,11.589,11.589,0,0,0-6.569-3.551,5.127,5.127,0,0,0-3.017.374,3.418,3.418,0,0,0-1.308.988c-1.9,2.19-.561,6.569,2.964,9.426a6.621,6.621,0,0,0,.694.507L53.4,66.313C42.1,60.732,43.12,42.6,41.918,33.843c-1.041-7.717,2.83-10.921,6.248-12.39a12.9,12.9,0,0,1,4.806-9.933c11.963-8.732,26.7-2.323,37.891,1.041s20.695-8.358,24.86,2.457S110.036,22.814,104.749,31.333Z" transform="translate(613.051 300.918)" fill="#231f20" stroke="#231f20" stroke-linecap="round" stroke-linejoin="round" stroke-width="2"/>
              <path id="Path_13" data-name="Path 13" d="M4.121,56.136A35.541,35.541,0,0,0,6.6,60.675c13.7-1.015,16.369-7.29,16.369-7.29s1.068-1.736,2.323-4.379c3.365-7.049,8.011-20.748-2.323-26.89C9.649,14.213-5.705,34.907,4.121,56.136Z" transform="translate(544.998 323.084)" fill="#fff" stroke="#231f20" stroke-linecap="round" stroke-linejoin="round" stroke-width="2"/>
            </g>
            <path id="Path_14" data-name="Path 14" d="M20.8,39.656A34.046,34.046,0,0,1,3.821,45.584c-.454-3.445-.721-5.527-.721-5.527,13.725-1.015,16.4-7.317,16.4-7.317Z" transform="translate(548.503 343.703)" fill="#231f20" stroke="#231f20" stroke-linecap="round" stroke-linejoin="round" stroke-width="2"/>
            <path id="Path_15" data-name="Path 15" d="M110.424,20.011c0,.16-1.282,2.323-3.258,5.794-7.824-7.45-14.072-9.4-16.876-9.907l3.551-4.379h.214C103.668,11.52,110.424,20.011,110.424,20.011Z" transform="translate(694.133 308.26)" fill="#231f20" stroke="#231f20" stroke-linecap="round" stroke-linejoin="round" stroke-width="2"/>
          </g>
        </g>
        <g id="Layer_2-4" data-name="Layer 2" transform="translate(228.898 301.086)">
          <g id="Layer_1-4" data-name="Layer 1" transform="translate(1.004 1.012)">
            <path id="Path_42" data-name="Path 42" d="M50.819,199.63a43.723,43.723,0,0,1-.159,4.72C50.713,202.945,50.74,201.433,50.819,199.63Z" transform="translate(81.015 327.053)" fill="#fff" stroke="#231f20" stroke-linecap="round" stroke-linejoin="round" stroke-width="2" opacity="0.1" style="isolation: isolate"/>
            <path id="Path_43" data-name="Path 43" d="M69.777,217.331a1.166,1.166,0,0,1,0-.239s-37.92,17.4-39.378,18.748a3.262,3.262,0,0,0-.849,1.3,2.386,2.386,0,0,1,.822-1.405c1.485-1.352,39.4-18.748,39.4-18.748-.265-2.519-.636-6.1-1.114-10.474s-1.034-9.493-1.644-15.141h0c1.22,11.27,2.227,20.578,2.652,25.616A1.293,1.293,0,0,1,69.777,217.331Z" transform="translate(46.146 313.41)" fill="#fff" stroke="#231f20" stroke-linecap="round" stroke-linejoin="round" stroke-width="2" opacity="0.1" style="isolation: isolate"/>
            <path id="Path_44" data-name="Path 44" d="M89.542,211.745a3.345,3.345,0,0,1-.53.53l-.61.53a11.4,11.4,0,0,1-5.675,1.936c-9.334.955-23.68-4.667-32.007-9.308,0-2.413.318-5.091.318-7.955l4-.424a145.12,145.12,0,0,1,15.91-.955c6.735,5.3,18.35,2.652,18.35,2.652h0a10.29,10.29,0,0,1,.5,1.193c.133.371.318.822.477,1.326a19.811,19.811,0,0,1,.875,3.819A8.7,8.7,0,0,1,89.542,211.745Z" transform="translate(81.114 321.223)" fill="#fff" stroke="#231f20" stroke-linecap="round" stroke-linejoin="round" stroke-width="2" opacity="0.1" style="isolation: isolate"/>
            <path id="Path_45" data-name="Path 45" d="M14.283,41.587h-.212a.424.424,0,0,0-.239,0,2.2,2.2,0,0,0-.928,0l-.5.212.5-.239h0a2.068,2.068,0,0,1,.9,0h.239Z" transform="translate(17.819 65.882)" fill="#fff" stroke="#231f20" stroke-linecap="round" stroke-linejoin="round" stroke-width="2"/>
            <path id="Path_46" data-name="Path 46" d="M13.2,41.64h.133A.207.207,0,0,1,13.2,41.64Z" transform="translate(19.14 66.095)" fill="#fff" stroke="#231f20" stroke-linecap="round" stroke-linejoin="round" stroke-width="2"/>
            <path id="Path_47" data-name="Path 47" d="M13.54,42.947v0Z" transform="translate(19.702 67.466)" fill="#fff" stroke="#231f20" stroke-linecap="round" stroke-linejoin="round" stroke-width="2"/>
            <path id="Path_48" data-name="Path 48" d="M13.729,44.745v1.379a27.56,27.56,0,0,1-.159,3.58h0a2.651,2.651,0,0,0,0-.451,9.255,9.255,0,0,1,.133-1.909V43.6C13.7,43.763,13.7,44.32,13.729,44.745Z" transform="translate(19.752 68.638)" fill="#fff" stroke="#231f20" stroke-linecap="round" stroke-linejoin="round" stroke-width="2"/>
            <path id="Path_20" data-name="Path 20" d="M55.918,76.622c-3.129,5.7-6.682,12.092-10.13,17.979A203.389,203.389,0,0,1,24.575,69.594a59.744,59.744,0,0,1-9.387-5.3l-1.008-.769,8.751-5.463a2.837,2.837,0,0,0,1.061-3.9h0l-5.648-9.122h0a9.785,9.785,0,0,1,0-1.962c.371-3.341,1.3-7.955,3.712-7.4,3.686.9,3.686,16.335,7.955,22.328C32.8,61.692,44.41,69.435,55.918,76.622Z" transform="translate(20.759 56.172)" fill="#fff" stroke="#231f20" stroke-linecap="round" stroke-linejoin="round" stroke-width="2"/>
            <path id="Path_21" data-name="Path 21" d="M34.95,65.2a1.512,1.512,0,0,1-.345.371l-.186-.689Z" transform="translate(54.19 104.481)" fill="#fff" stroke="#231f20" stroke-linecap="round" stroke-linejoin="round" stroke-width="2"/>
            <path id="Path_49" data-name="Path 49" d="M89.542,211.745a3.345,3.345,0,0,1-.53.53l-.61.53a11.4,11.4,0,0,1-5.675,1.936c-9.334.955-23.68-4.667-32.007-9.308,0-2.413.318-5.091.318-7.955l4-.424a145.12,145.12,0,0,1,15.91-.955c6.735,5.3,18.35,2.652,18.35,2.652s.212.4.5,1.087a10.568,10.568,0,0,1,.477,1.326,19.811,19.811,0,0,1,.875,3.819,8.7,8.7,0,0,1-1.618,6.762Z" transform="translate(81.114 321.223)" fill="#231f20" stroke="#231f20" stroke-linecap="round" stroke-linejoin="round" stroke-width="2"/>
            <path id="Path_50" data-name="Path 50" d="M76.594,195.161c0,4.588-1.432,44.841-2.652,75.6v.133c-.212,5.3-.4,10.342-.557,14.876,0,2.89-.212,5.569-.318,7.955a42.985,42.985,0,0,1-.159,4.72v1.379h0a23.865,23.865,0,0,1-7.955,1.565,8.565,8.565,0,0,1-7.77-3.5v-.212c-.53-5.038-1.538-14.346-2.652-25.616-3.5-31.821-8.83-79.181-10.978-90.292-3.315-17.024-6.444-39.14-6.444-39.14h0a110.021,110.021,0,0,0,34.1,2.333l-.8,21.718S76.594,187.683,76.594,195.161Z" transform="translate(58.634 232.904)" fill="#fff" stroke="#231f20" stroke-linecap="round" stroke-linejoin="round" stroke-width="2"/>
            <path id="Path_51" data-name="Path 51" d="M71.241,144.894h0a110.02,110.02,0,0,1-34.1-2.334h0a110.951,110.951,0,0,0,34.1,2.334Z" transform="translate(58.683 232.788)" fill="#fff" stroke="#231f20" stroke-linecap="round" stroke-linejoin="round" stroke-width="2"/>
            <path id="Path_52" data-name="Path 52" d="M88.708,289.838h0s-11.615,2.652-18.35-2.652l-1.883-12.543v-.159L53.52,175.044l-2.44-27.525h0a27.309,27.309,0,0,0,3.606-.424A116.886,116.886,0,0,0,80.17,140.89l-1.83,19.968a87.879,87.879,0,0,1,4.773,25.4c0,12.331-.451,25.138,0,36.276.345,7.955,3,38.4,4.534,55.527v.133l.212,2.387v2.44l.318,3.553v2.943C88.178,289.785,88.682,289.679,88.708,289.838Z" transform="translate(81.708 230.03)" fill="#fff" stroke="#231f20" stroke-linecap="round" stroke-linejoin="round" stroke-width="2"/>
            <path id="Path_53" data-name="Path 53" d="M78.013,140.46v1.14a116.89,116.89,0,0,1-25.483,6.205,118.4,118.4,0,0,0,25.43-6.232A7.507,7.507,0,0,1,78.013,140.46Z" transform="translate(84.104 229.32)" fill="#fff" stroke="#231f20" stroke-linecap="round" stroke-linejoin="round" stroke-width="2"/>
            <path id="Path_54" data-name="Path 54" d="M65.187,196.712v-.9a.345.345,0,0,1,0,.159A6.855,6.855,0,0,0,65.187,196.712Z" transform="translate(104.991 320.744)" fill="#fff" stroke="#231f20" stroke-linecap="round" stroke-linejoin="round" stroke-width="2"/>
            <path id="Path_55" data-name="Path 55" d="M138.688,119.97c-4.322,16.839-2.413,65.816-2.413,65.816v.159l-.133.159c-.451.663-.9,1.3-1.405,1.936-.53.61-1.061,1.22-1.671,1.8l-.345.318c-.4.371-.849.742-1.3,1.114a4.878,4.878,0,0,1-.583.451c-.61.477-1.246.9-1.909,1.326s-1.114.689-1.7,1.008l-1.777.9h0c-1.061.5-2.174.955-3.315,1.379l-1.75.61c-23.123,7.637-59.16.265-63.642-.716H56.3s4.641-39.193,2.89-56.4a158.786,158.786,0,0,0-4.428-21.4,2.122,2.122,0,0,0,.345-.345l-.53-.371h0l.186.689C49.988,123.39,45,128.3,40.017,132.7a40.147,40.147,0,0,1-6.762-4.216c-.583-.451-1.14-.9-1.671-1.379a38.185,38.185,0,0,1-9.255-11.959h0c2.811-3.925,6.338-9.626,9.971-15.91s7-12.278,10.156-17.979c4.747-8.618,8.618-15.91,9.467-17.687l.212-.424a56.3,56.3,0,0,1,23.68-25.112h0c.477-.292.981-.557,1.485-.822l1.485-.769c.822-.424,1.644-.822,2.493-1.167a48.925,48.925,0,0,1,6.948-2.413,6.814,6.814,0,0,1,.875.875A4.879,4.879,0,0,1,89.79,34.8c.159.292.318.583.451.875a10.2,10.2,0,0,1,.371.955,24.741,24.741,0,0,1,1.061,6.895v6.47a76.161,76.161,0,0,0,.318,10.766h0a18.218,18.218,0,0,0,3.792,9.918c1.909,2.28,4.11,4.747,6.576,7.186A67.249,67.249,0,0,0,114.4,87.8l2.174,1.246.371.186c.583.318,1.193.61,1.777.875a22.382,22.382,0,0,0,2.334.9,18.881,18.881,0,0,0,13.047,0h0a7.955,7.955,0,0,0,2.413-2.174,7.291,7.291,0,0,0,.5-.742,13.047,13.047,0,0,0,.292-11.641,20.264,20.264,0,0,0-1.034-2.44c-.239-.5-.477-1.008-.769-1.512-1.989-3.739-3.845-7.451-5.33-10.634-.318-.689-.636-1.326-.928-1.989a63.646,63.646,0,0,1-3.182-8.433,24.766,24.766,0,0,1-1.193-7.16h0C143.435,61.737,142.56,104.324,138.688,119.97Z" transform="translate(34.221 51.592)" fill="#fff" stroke="#231f20" stroke-linecap="round" stroke-linejoin="round" stroke-width="2"/>
            <path id="Path_56" data-name="Path 56" d="M122.164,143.734c-5.3,19.7-12.039,67.991-13.444,78.332v.849l-.159,1.114h0a116.889,116.889,0,0,1-25.483,6.205c-1.193.159-2.387.318-3.606.424h0l-2.811.212h0a110.021,110.021,0,0,1-34.1-2.334h0c-15.115-51.948-5.675-124.632-5.3-127.469h.451c4.773,1.061,46.034,9.467,68.574-1.193h0l1.777-.9c.583-.318,1.14-.663,1.7-1.008a22.88,22.88,0,0,0,1.909-1.326,4.879,4.879,0,0,0,.583-.451c.451-.371.9-.742,1.3-1.114l.345-.318a22.592,22.592,0,0,0,3.235-3.872V90.54S128.21,121.7,122.164,143.734Z" transform="translate(53.503 146.865)" fill="#231f20" stroke="#231f20" stroke-linecap="round" stroke-linejoin="round" stroke-width="2"/>
            <path id="Path_57" data-name="Path 57" d="M87.788,216.321a14.188,14.188,0,0,1,0,1.538v.477a2.812,2.812,0,0,1,0,.5,4.4,4.4,0,0,1-.159.557,2.652,2.652,0,0,1-.769,1.14c-3.156,2.652-16.494,3.712-20.79,2.652s-23.176,1.458-30.389,1.087c-4.534-.265-5.993-1.511-6.1-2.652h0a1.511,1.511,0,0,1,0-.477,3.262,3.262,0,0,1,.849-1.3C31.889,218.5,69.809,201.1,69.809,201.1a1.167,1.167,0,0,0,0,.239,8.565,8.565,0,0,0,7.77,3.5,23.866,23.866,0,0,0,7.955-1.564h0l.4,1.458c.769,3.182,1.326,5.728,1.644,7.955Z" transform="translate(46.168 329.481)" fill="#231f20" stroke="#231f20" stroke-linecap="round" stroke-linejoin="round" stroke-width="2"/>
            <path id="Path_58" data-name="Path 58" d="M52.434,210.405c-.318-2.148-.875-4.694-1.644-7.955A59.5,59.5,0,0,1,52.434,210.405Z" transform="translate(81.229 331.711)" fill="#fff" stroke="#231f20" stroke-linecap="round" stroke-linejoin="round" stroke-width="2"/>
            <path id="Path_59" data-name="Path 59" d="M86.748,209.14a2.652,2.652,0,0,0,.769-1.14,2.652,2.652,0,0,1-.769,1.246c-3.209,2.837-16.494,3.712-20.79,2.652s-23.176,1.458-30.389,1.087c-4.694-.265-6.1-1.591-6.1-2.864,0,1.246,1.565,2.493,6.1,2.652,7.213.371,26.067-2.068,30.389-1.087S83.592,211.845,86.748,209.14Z" transform="translate(46.014 340.878)" fill="#fff" stroke="#231f20" stroke-linecap="round" stroke-linejoin="round" stroke-width="2"/>
            <path id="Path_28" data-name="Path 28" d="M121.308,143.8c-14.213,5.516-29.355-9.864-38.318-20.418-5.648-6.656-3.765-18.3-4.137-27.339-.186-4.508-.9-8.406-3.421-10.607a6.232,6.232,0,0,0-1.379-.981A29.01,29.01,0,0,1,63.129,73.107a31.475,31.475,0,0,1-2.148-4.72,33.253,33.253,0,0,1-2.068-9.228,11.827,11.827,0,0,0-1.8-4.879C58.356,47.067,58.2,36.831,52.5,38.37c-2.917.8-3.951,4.3-4.3,7.955-9.52-5.3-14.638-10.872-16.786-16.308C26.641,17.925,36.373,6.92,44.965,3.5c18.986-7.664,31.37,4.057,40.306,12.543s8.963,25.324,18.562,36.09,9.387,35.295,8.247,42.428a14.479,14.479,0,0,0-.186,2.387c0,6.841,4,15.91,10.766,28.347C130.271,139.215,121.308,143.8,121.308,143.8Z" transform="translate(47.146 -1.012)" fill="#231f20" stroke="#231f20" stroke-linecap="round" stroke-linejoin="round" stroke-width="2"/>
            <path id="Path_29" data-name="Path 29" d="M74.82,67.351a48.076,48.076,0,0,0-12.463,5.3A26.173,26.173,0,0,0,55.887,61.7a21,21,0,0,1-7.16,1.856S27.911,41.285,30.8,11.93c2.148,5.463,7.266,11.084,16.786,16.335.292-3.606,1.326-7.186,4.322-7.955,5.675-1.511,5.86,8.724,4.614,15.91A11.694,11.694,0,0,1,58.3,41.126,34,34,0,0,0,60.448,50.3a37.869,37.869,0,0,0,2.148,4.72A28.9,28.9,0,0,0,73.6,66.4a7.955,7.955,0,0,1,1.352.955Z" transform="translate(47.759 17.021)" fill="#fff" stroke="#231f20" stroke-linecap="round" stroke-linejoin="round" stroke-width="2"/>
            <path id="Path_60" data-name="Path 60" d="M14.869,47.188v-1.8a4.348,4.348,0,0,1,0-.61V43.741h0a1.83,1.83,0,0,1,0-.345h0l-.133-.4h0a2.333,2.333,0,0,1,0-.4l-.133-.318c0-.133-.133-.265-.212-.371s0-.133-.133-.159h-.212a.424.424,0,0,0-.239,0,2.2,2.2,0,0,0-.928,0H13.2C14.445,41.3,14.869,43.847,14.869,47.188Z" transform="translate(18.612 66.194)" fill="#fff" stroke="#231f20" stroke-linecap="round" stroke-linejoin="round" stroke-width="2"/>
            <path id="Path_61" data-name="Path 61" d="M18.6,43.807l-6.232-10a36.674,36.674,0,0,1,3.5,4.826A41.819,41.819,0,0,1,18.6,43.807Z" transform="translate(17.77 53.161)" fill="#fff" stroke="#231f20" stroke-linecap="round" stroke-linejoin="round" stroke-width="2"/>
            <path id="Path_62" data-name="Path 62" d="M14.869,47.188v-1.8a4.348,4.348,0,0,1,0-.61V43.741h0a1.83,1.83,0,0,1,0-.345h0l-.133-.4h0a2.333,2.333,0,0,1,0-.4l-.133-.318c0-.133-.133-.265-.212-.371s0-.133-.133-.159h-.212a.424.424,0,0,0-.239,0,2.2,2.2,0,0,0-.928,0H13.2C14.445,41.3,14.869,43.847,14.869,47.188Z" transform="translate(18.612 66.194)" fill="#fff" stroke="#231f20" stroke-linecap="round" stroke-linejoin="round" stroke-width="2"/>
            <path id="Path_63" data-name="Path 63" d="M46.073,68.118h0a2.652,2.652,0,0,1-.292,1.193,1.034,1.034,0,0,1-.265.424h0a1.06,1.06,0,0,1-.265.318,3.182,3.182,0,0,1-.557.451h0l-8.751,5.463L34.22,77.054h0V74.668a2.652,2.652,0,0,0,0-.451,9.255,9.255,0,0,1,.133-1.909V67.985a4.349,4.349,0,0,1,0-.61V66.341h0a1.83,1.83,0,0,1,0-.345h0l-.133-.4h0a1.75,1.75,0,0,0,0-.4l-.133-.318c0-.133-.133-.265-.212-.371h-1.14a.53.53,0,0,0-.292,0h0c-1.538.318-2.652,2.148-3.686,4.216a45.08,45.08,0,0,0-2.652,7.133v.186L24.17,72.334c-.186-.292-.345-.636-.53-.981L22.207,69.47h0l-1.034-1.883c-.424-.769-.849-1.538-1.3-2.307l-.9-1.485c-.849-1.432-1.7-2.864-2.652-4.163h0v-.159c-.265-.4-.5-.8-.769-1.14L15.1,57.7l-.424-.583h0l-.424-.636h0l-.424-.557-.742-.822-.4-.53h0c-.8-.8-1.458-1.14-1.856-.822h0a1.856,1.856,0,0,0-.5.689,7.133,7.133,0,0,0-.451,1.458L1.444,42.316a2.864,2.864,0,0,1,.9-3.951h0l15.91-9.971a2.917,2.917,0,0,1,3.978.928l8.777,14.134h0l6.232,10h0l2.44,3.925,5.834,9.228a1.432,1.432,0,0,1,0,.292,2.307,2.307,0,0,1,.186.451A2.068,2.068,0,0,1,46.073,68.118Z" transform="translate(-1.004 43.515)" fill="#231f20" stroke="#231f20" stroke-linecap="round" stroke-linejoin="round" stroke-width="2"/>
            <path id="Path_64" data-name="Path 64" d="M69.906,124.713c-8.618,7.77-17.236,13.869-23.07,15.062-17.714,3.288-29.965-63.3-29.965-63.3C5.575,66.03,3.613,49.271,4.382,41.608a13.259,13.259,0,0,1,.265-1.75h0a7.133,7.133,0,0,1,.345-1.352,1.856,1.856,0,0,1,.5-.689c.4-.318,1.061,0,1.856.822l.477.5c.477.53.981,1.193,1.565,1.936h0c.557.769,1.14,1.618,1.75,2.652.849,1.326,1.724,2.652,2.652,4.216l.9,1.485c.451.769.875,1.538,1.3,2.307l1.034,1.883h-.159l.663,1.22L20,59.533h0a40.412,40.412,0,0,1,2.652-7.213h0a14.107,14.107,0,0,1,2.174-3.209h0a4.057,4.057,0,0,1,.477-.477,4.985,4.985,0,0,1,.636-.477l.5-.212a2.2,2.2,0,0,1,.928,0,.424.424,0,0,1,.239,0h.212l.133.159a1.845,1.845,0,0,1,.212.371l.133.318a2.333,2.333,0,0,0,0,.4h0l.133.4h0a1.829,1.829,0,0,0,0,.345h0v1.034a4.348,4.348,0,0,0,0,.61V55.9A9.255,9.255,0,0,1,28.3,57.81a2.652,2.652,0,0,1,0,.451V61.1h0a4.64,4.64,0,0,1-.159,1.485c-.557,4.534-1.22,8.3-1.22,8.3s14.9,39.272,19.384,41.42c.9.424,2.864-1.644,5.463-5.3a38.185,38.185,0,0,0,9.255,11.959c.53.477,1.087.928,1.671,1.379A40.148,40.148,0,0,0,69.906,124.713Z" transform="translate(4.332 59.577)" fill="#fff" stroke="#231f20" stroke-linecap="round" stroke-linejoin="round" stroke-width="2"/>
            <path id="Path_65" data-name="Path 65" d="M13.812,44.778v1.379a27.56,27.56,0,0,1-.159,3.58v.955L13.52,52.07h0V49.683a2.651,2.651,0,0,0,0-.451,9.255,9.255,0,0,1,.133-1.909V43.584C13.653,43.743,13.785,44.353,13.812,44.778Z" transform="translate(19.669 68.605)" fill="#fff" stroke="#231f20" stroke-linecap="round" stroke-linejoin="round" stroke-width="2"/>
            <path id="Path_66" data-name="Path 66" d="M31.615,75.849A38.185,38.185,0,0,1,22.36,63.89h0a38.53,38.53,0,0,0,9.255,11.959Z" transform="translate(34.27 102.846)" fill="#fff" stroke="#231f20" stroke-linecap="round" stroke-linejoin="round" stroke-width="2"/>
            <path id="Path_35" data-name="Path 35" d="M34.95,65.2a1.512,1.512,0,0,1-.345.371l-.186-.689Z" transform="translate(54.19 104.481)" fill="#fff" stroke="#231f20" stroke-linecap="round" stroke-linejoin="round" stroke-width="2"/>
            <path id="Path_36" data-name="Path 36" d="M34.95,65.2a1.512,1.512,0,0,1-.345.371l-.186-.689Z" transform="translate(54.19 104.481)" fill="#fff" stroke="#231f20" stroke-linecap="round" stroke-linejoin="round" stroke-width="2"/>
          </g>
        </g>
        <path id="Path_67" data-name="Path 67" d="M.25,86.167c0,47.446,49.811,85.917,111.26,85.917A140.011,140.011,0,0,0,152.03,166.2l70.76,47.148-29.4-68.9c18.249-15.288,29.4-35.734,29.4-58.191C222.641,38.721,172.848.25,111.51.25S.25,38.721.25,86.167Z" transform="translate(87.868 80.75)" fill="none" stroke="#231f20" stroke-linecap="round" stroke-linejoin="round" stroke-width="1"/>
        <g id="Layer_2-5" data-name="Layer 2" transform="translate(745.75 81.328)">
          <g id="Layer_1-5" data-name="Layer 1" transform="translate(0.25 0.25)">
            <path id="Path_71" data-name="Path 71" d="M210.557,81.5c0,44.868-47.087,81.249-105.162,81.249a132.4,132.4,0,0,1-38.318-5.565L.25,201.77l27.735-65.242C10.8,122.071.25,102.736.25,81.5.25,36.631,47.355.25,105.465.25S210.557,36.631,210.557,81.5Z" transform="translate(-0.25 -0.25)" fill="none" stroke="#231f20" stroke-linecap="round" stroke-linejoin="round" stroke-width="1"/>
            <line id="Line_1" data-name="Line 1" y1="13.911" x2="13.559" transform="translate(63.358 78.766)" fill="none" stroke="#000" stroke-linecap="round" stroke-linejoin="round" stroke-width="1"/>
            <circle id="Ellipse_1" data-name="Ellipse 1" cx="5.283" cy="5.283" r="5.283" transform="translate(107.205 46.189)" fill="none" stroke="#000" stroke-miterlimit="10" stroke-width="1"/>
            <line id="Line_2" data-name="Line 2" y1="33.458" transform="translate(108.79 93.734)" fill="none" stroke="#000" stroke-linecap="round" stroke-linejoin="round" stroke-width="1"/>
            <path id="Path_72" data-name="Path 72" d="M76.655,95.447l5.283-5.283-5.283-5.283L81.938,79.6l-5.283-5.283,5.283-5.283v-7.22A20.99,20.99,0,0,0,94.265,42.619,22.663,22.663,0,0,0,92.5,34.167,21.131,21.131,0,1,0,64.329,61.813v45.96l8.8,6.2,8.8-6.163v-7.044Z" transform="translate(39.126 15.897)" fill="none" stroke="#000" stroke-linecap="round" stroke-miterlimit="10" stroke-width="1"/>
            <path id="Path_73" data-name="Path 73" d="M93.5,25.311a17.61,17.61,0,0,0-1.761-1.937A20.233,20.233,0,0,0,69.905,18.8a22.012,22.012,0,0,0-7.044,4.578A20.62,20.62,0,0,0,57.579,43.1l-5.811,5.987v7.4h-7.22v7.4h-7.22l-3.7,4.05V80.111H45.252l23.6-23.6" transform="translate(25.15 12.778)" fill="none" stroke="#000" stroke-linecap="round" stroke-miterlimit="10" stroke-width="1"/>
            <path id="Path_74" data-name="Path 74" d="M54.83,22.582A15.144,15.144,0,1,1,69.217,42.269a15.514,15.514,0,0,1-2.994-.352" transform="translate(41.281 8.675)" fill="none" stroke="#000" stroke-linecap="round" stroke-miterlimit="10" stroke-width="1"/>
          </g>
        </g>
        <g id="Layer_2-6" data-name="Layer 2" transform="translate(150.999 95.684)">
          <g id="Layer_1-6" data-name="Layer 1" transform="translate(0.5 0.5)">
            <path id="Path_75" data-name="Path 75" d="M3.828,63.46a9.49,9.49,0,0,0,6.985,1.708,13.477,13.477,0,0,1,9.7,2.505,13.5,13.5,0,0,1,5.523,8.352A9.7,9.7,0,0,0,36.893,83.77,13.951,13.951,0,0,1,52.078,94.646a9.7,9.7,0,0,0,10.857,7.744A13.951,13.951,0,0,1,78.12,113.266a9.7,9.7,0,0,0,10.99,7.763h1.9l1.9-25.264a8.067,8.067,0,0,1-3.227-1.594,8.674,8.674,0,0,1-3.265-5.22,4.271,4.271,0,0,0-1.67-2.847,4.366,4.366,0,0,0-3.17-.93,8.731,8.731,0,0,1-9.016-7,4.517,4.517,0,0,0-4.84-3.8,8.56,8.56,0,0,1-5.808-1.9,8.655,8.655,0,0,1-3.227-5.182,4.233,4.233,0,0,0-1.67-2.828,4.366,4.366,0,0,0-3.17-.93,8.56,8.56,0,0,1-5.808-1.9A9.775,9.775,0,0,1,46.554,60.2H23.227c2.449-25.321,12.395-43.656,23.764-43.656,10.99,0,21.031,18.639,23.688,43.656H58.645a11.045,11.045,0,0,1,1.12.721A8.617,8.617,0,0,1,62.973,66.1a4.309,4.309,0,0,0,1.67,2.828,4.366,4.366,0,0,0,3.17.93,8.731,8.731,0,0,1,9.111,7.194,4.517,4.517,0,0,0,4.859,3.8,8.826,8.826,0,0,1,9.035,7,4.271,4.271,0,0,0,1.67,2.847,4.745,4.745,0,0,0,.892.55l2.449-30.825H75.747C75.671,26.77,63.068.5,46.991.5S18.9,26.124,18.785,60.29H1a8.5,8.5,0,0,0,2.828,3.17ZM46.991,4.885c8.5,0,15.982,10,20.443,25.036-5.2-11.028-12.395-17.614-20.348-17.614-7.232,0-13.837,5.315-18.867,14.35C32.489,13.464,39.323,4.885,46.991,4.885Z" transform="translate(-0.051 -0.5)" fill="#fff" stroke="#231f20" stroke-linecap="round" stroke-linejoin="round" stroke-width="1"/>
            <path id="Path_76" data-name="Path 76" d="M80.03,91.943a13.685,13.685,0,0,1-5.542-8.371,9.7,9.7,0,0,0-10.857-7.744A13.989,13.989,0,0,1,48.446,64.952a9.68,9.68,0,0,0-10.933-7.8A13.989,13.989,0,0,1,22.328,46.389a9.534,9.534,0,0,0-10.762-7.744,13.609,13.609,0,0,1-9.718-2.505A13.287,13.287,0,0,1,.5,35L1.924,60.169a4.8,4.8,0,0,0,.437.494,3.8,3.8,0,0,0,2.543,1.1A8.257,8.257,0,0,1,9.82,64.041a8.048,8.048,0,0,1,2.505,4.783,3.967,3.967,0,0,0,1.253,2.505,3.8,3.8,0,0,0,2.543,1.1,8.257,8.257,0,0,1,4.916,2.43,8.048,8.048,0,0,1,2.505,4.783,4.119,4.119,0,0,0,3.8,3.625,8.1,8.1,0,0,1,4.916,2.259,8.238,8.238,0,0,1,2.524,4.8,3.948,3.948,0,0,0,1.234,2.506,3.455,3.455,0,0,0,1.9.987h45.63a13.667,13.667,0,0,1-3.511-1.879Z" transform="translate(-0.5 30.484)" fill="#fff" stroke="#231f20" stroke-linecap="round" stroke-linejoin="round" stroke-width="1"/>
            <path id="Path_77" data-name="Path 77" d="M29.673,76.586a4.113,4.113,0,0,0-3.815-3.606,8.466,8.466,0,0,1-7.422-7.061,4.024,4.024,0,0,0-3.8-3.606,8.466,8.466,0,0,1-7.422-7.061,3.8,3.8,0,0,0-1.234-2.505,3.967,3.967,0,0,0-2.562-1.12A9.87,9.87,0,0,1,1.41,51.17L3,79.2H30.527a9.263,9.263,0,0,1-.854-2.619Z" transform="translate(0.317 45.007)" fill="#fff" stroke="#231f20" stroke-linecap="round" stroke-linejoin="round" stroke-width="1"/>
          </g>
        </g>
      </g>
    </g>
  </g>
</svg>
