<svg xmlns="http://www.w3.org/2000/svg" width="1879.414" height="1058.414" viewBox="0 0 1879.414 1058.414">
  <g id="Group_89" data-name="Group 89" transform="translate(-42 -23)">
    <g id="Group_72" data-name="Group 72" transform="translate(-138.478 -121.306)" opacity="0.25">
      <path id="Path_913" data-name="Path 913" d="M444.423,280.373c-2.7,11.179-9.1,15.944-18.67,10.749-24.342-13.21-48.243-27.247-72.137-41.272-5.285-3.1-10.054-7.575-6.137-14.8,3.262-6.014,8.871-6.17,14.153-3.793,26.974,12.14,52.276,27.4,77.587,42.6C441.536,275.248,442.839,278.328,444.423,280.373Z" transform="translate(511.861 225.8)" fill="#d1d1d1"/>
      <path id="Path_914" data-name="Path 914" d="M397.148,289.387c-11.63-2.559-12.974-11.346-8.576-17.964,15.9-23.949,33.06-47.071,50.187-70.179,3.433-4.63,9.406-5.719,14.666-2.33,5.813,3.742,5.213,9.6,1.969,14.291q-24.555,35.481-49.9,70.415C403.573,286.29,399.8,287.618,397.148,289.387Z" transform="translate(633.559 138.955)" fill="#d1d1d1"/>
      <path id="Path_915" data-name="Path 915" d="M452.845,235.3c.08,5.176-1.707,8.842-6.148,10.549-4.277,1.642-8.98,1.136-11.6-2.5-17.236-23.861-34.531-47.734-48.32-73.823-2.665-5.042-1.42-10.968,4.441-13.975,5.653-2.9,11-1.085,14.281,3.9,15.536,23.6,30.778,47.4,46.026,71.18C452.441,232.077,452.514,234.064,452.845,235.3Z" transform="translate(630.645 26.048)" fill="#d1d1d1"/>
      <path id="Path_916" data-name="Path 916" d="M423.972,461.871c-25.161-10.968-52.531-21.888-78.064-36.773-4.641-2.7-6.538-7.317-3.764-12.424,2.934-5.406,7.619-7.8,13.636-5.111,25.8,11.558,51.6,23.137,77.274,34.964,5.358,2.468,8.5,7.131,6.574,13.3C437.535,462.53,431.634,462.039,423.972,461.871Z" transform="translate(495.901 692.114)" fill="#d1d1d1"/>
      <path id="Path_917" data-name="Path 917" d="M382.955,436.014c-.069,6.516-2.781,11.062-8.667,12.773-6.753,1.966-10.382-2.6-11.794-8.234q-10.549-42.082-20.429-84.332c-1.445-6.2,2.053-10.567,8.092-12.2,6.6-1.776,10.757,1.947,12.213,7.724C369.442,379.784,376.129,407.916,382.955,436.014Z" transform="translate(494.3 526.112)" fill="#d1d1d1"/>
      <path id="Path_918" data-name="Path 918" d="M243.78,212.317c-.848,2.4-1.6,6.05-3.331,9.148-11.5,20.531-23.039,41.039-34.917,61.344-4.623,7.9-11.594,14.011-20.771,7.83-8.842-5.955-1.795-12.894,1.594-18.838q18.363-32.237,37.188-64.205c3.232-5.464,8.063-9.33,15.089-6.862C243.507,202.441,243.951,206.78,243.78,212.317Z" transform="translate(0 146.972)" fill="#d1d1d1"/>
      <path id="Path_919" data-name="Path 919" d="M399.875,435.5c-4.75-1.485-11.121-3.276-17.353-5.464q-30.648-10.757-61.2-21.765c-7.743-2.781-12.588-7.965-9.726-16.519,3.134-9.373,10.6-5.948,16.643-3.888,23.909,8.158,47.694,16.661,71.518,25.059,7.532,2.657,12.784,7,10.888,15.995C409.638,433.69,406.565,436.088,399.875,435.5Z" transform="translate(402.917 636.852)" fill="#d1d1d1"/>
      <path id="Path_920" data-name="Path 920" d="M382.8,316.25c-6.345,26.508-12.5,52.819-19.009,79.043-1.736,7.007-5.879,12.26-14.222,10.2-8.849-2.177-8.383-8.722-6.658-15.747,6.29-25.652,12.373-51.359,18.787-76.979,1.58-6.319,5.471-11.139,12.828-9.956C382.167,304.044,383.39,309.854,382.8,316.25Z" transform="translate(494.8 418.016)" fill="#d1d1d1"/>
      <path id="Path_921" data-name="Path 921" d="M352.7,434.9c-13.822,0-27.64.12-41.458-.058-5.893-.076-11.179-2.5-11.823-8.856-.75-7.4,4.8-11.481,11.121-11.594q42.317-.732,84.649-.058c6.76.1,11.2,5.074,10.771,12.064-.419,6.8-6.061,8.456-11.8,8.532-13.818.178-27.64.058-41.458.058Z" transform="translate(367.996 712.104)" fill="#d1d1d1"/>
      <path id="Path_922" data-name="Path 922" d="M477.068,414.862c7.612.9,18.5-1.347,18.459,11.146-.04,11.081-9.967,9.843-17.655,10.582-21.543,2.068-43.078,4.248-64.624,6.33a76.3,76.3,0,0,1-10.808.586c-6.461-.295-12.351-2.177-12.773-9.9-.419-7.677,4.882-10.415,11.543-11.1C426.346,419.936,451.485,417.436,477.068,414.862Z" transform="translate(666.17 714.316)" fill="#d1d1d1"/>
      <path id="Path_923" data-name="Path 923" d="M283.815,427.772c-10.877-1.835-13.338-8.751-7.95-16.839,11.62-17.458,23.363-34.989,39.3-49.051,3.709-3.273,7.885-6.09,12.948-2.985a9.329,9.329,0,0,1,3.607,12.7c-11.066,20.723-27.891,37.1-42.779,54.934C288.03,427.615,285.558,427.39,283.815,427.772Z" transform="translate(284.709 563.01)" fill="#efefef"/>
      <path id="Path_924" data-name="Path 924" d="M220.06,398.264c-7.6.757-11.67-1.136-13.2-6.687-1.627-5.915-.051-11.521,5.58-13.767,20.094-8.016,40.388-15.536,60.762-22.82,4.35-1.554,8.46.761,10.163,5.315a10.306,10.306,0,0,1-3.975,12.8C260.743,385.942,238.509,390.23,220.06,398.264Z" transform="translate(68.054 554.969)" fill="#efefef"/>
      <path id="Path_925" data-name="Path 925" d="M250.619,328.622c-1.915,10.444-7.342,15.168-16.126,8.067-16.916-13.672-29.97-30.971-41.844-49.088-2.788-4.259-3.436-9.159.513-13.283,3.971-4.142,9.2-4.467,12.843-.513,14.6,15.813,28.779,32.012,42.889,48.261C250.281,323.664,250.128,326.594,250.619,328.622Z" transform="translate(26.141 334.541)" fill="#efefef"/>
      <path id="Path_926" data-name="Path 926" d="M431.181,222.4c-7.539-.186-11.172-4.823-9.413-10.658,6.651-22.067,19.679-41.025,31.626-60.409,2.3-3.739,7.382-3.793,11.594-1.769,3.589,1.726,5.016,4.914,5.373,8.769.815,8.769-26.515,58.345-34.567,62.429A33.413,33.413,0,0,1,431.181,222.4Z" transform="translate(749.828 10.362)" fill="#efefef"/>
      <path id="Path_927" data-name="Path 927" d="M248.047,302.246c-1.474,19.038-2.606,34.622-3.921,50.187-.539,6.378-2.464,12.449-10.16,12.6-8.853.171-11.179-6.651-10.866-13.611.892-19.8,2.33-39.58,3.964-59.331.491-5.955,4.059-10.313,10.662-9.963,6.56.342,9.191,5.082,9.843,10.975C248.032,297.28,248.014,301.51,248.047,302.246Z" transform="translate(112.459 363.819)" fill="#efefef"/>
      <path id="Path_928" data-name="Path 928" d="M203.437,181.782c-8.5,0-13.873-1-15.533-7.477-1.7-6.625,2.592-10.269,7.968-12.224,19.238-7.007,39.245-11.1,59.36-14.564,5.835-1,11,.786,12.54,7.317,1.511,6.4-1.856,10.706-7.7,12.289C240.392,172.448,220.6,177.37,203.437,181.782Z" transform="translate(18.615 7.791)" fill="#efefef"/>
      <path id="Path_929" data-name="Path 929" d="M248.393,408.71c-8.078,20.174-19.722,40.319-37.847,55.837-3.76,3.218-10.589,3-14.677-2.144-3.6-4.525-2.071-9.377.957-13.337a416.674,416.674,0,0,0,31.986-47.916c2.763-4.889,7.761-7.448,13.913-4.55C247.09,398.656,249.026,401.95,248.393,408.71Z" transform="translate(35.116 662.876)" fill="#aaa"/>
      <path id="Path_930" data-name="Path 930" d="M199.587,327.359c20.582,4.375,41.021,9.2,60.536,17.251,5.69,2.348,8.547,6.792,6.458,13-2.082,6.181-7.259,8.2-13.021,6.643q-29.54-7.972-58.847-16.8c-5.744-1.726-9.068-6.221-7.823-12.457C188.244,328.2,193.988,327.8,199.587,327.359Z" transform="translate(16.241 483.293)" fill="#efefef"/>
      <path id="Path_931" data-name="Path 931" d="M353.775,217.372c-1.107,11.463-8.776,15.6-14.845,10.069-17.305-15.769-29.635-35.794-40.4-56.554-1.682-3.247.051-7.255,3.134-9.646a7.908,7.908,0,0,1,10.069-.138C331.355,176.2,341.733,198.028,353.775,217.372Z" transform="translate(360.598 39.748)" fill="#efefef"/>
      <path id="Path_932" data-name="Path 932" d="M483.882,337.989c-4.3-2.352-9.3-5.65-14.728-7.957q-19.8-8.414-39.944-16.017c-6.108-2.315-11.721-4.976-9.057-12.62,2.129-6.119,7.328-10.385,14.069-8.241,19.912,6.327,40.158,12.064,57.442,24.6,4.241,3.076,7.007,6.858,4.485,12.2C494.009,334.487,490.5,337.64,483.882,337.989Z" transform="translate(744.923 391.501)" fill="#aaa"/>
      <path id="Path_933" data-name="Path 933" d="M229.718,443.143c1.354-14.386,2.737-28.776,4.051-43.169.579-6.327,1.591-12.631,9.723-12.668,8.536-.036,11.914,6.148,11.408,13.323-1.31,18.59-3.251,37.155-5.6,55.647-.856,6.745-3.786,13.763-12.712,11.805-8.449-1.853-8.624-8.871-7.623-15.922.422-2.981.677-5.992,1-8.988Z" transform="translate(126.915 641.563)" fill="#efefef"/>
      <path id="Path_934" data-name="Path 934" d="M215.211,390.442c-3.76,17.316-7.714,36.165-12.016,54.937-1.2,5.249-5.1,8.329-10.662,7.728-6.571-.706-9.839-5.544-9.071-11.4,2.745-20.895,6.487-41.647,13-61.759,1.584-4.892,5.184-8.638,10.9-7.3C216.3,374.738,214.523,382.427,215.211,390.442Z" transform="translate(7.584 602.145)" fill="#efefef"/>
      <path id="Path_935" data-name="Path 935" d="M411.392,342.1c0-4.787-.3-9.6.076-14.357.488-6.086,3.651-10.142,10.222-10.222,6.523-.076,10.385,3.746,10.44,9.894.186,19.8,1.907,39.336,6.909,58.578,1.627,6.261-2.119,10.367-7.9,12.2-7.532,2.4-11.226-1.918-13.046-8.456C413.762,374.159,410.86,358.35,411.392,342.1Z" transform="translate(723.285 457.307)" fill="#aaa"/>
      <path id="Path_936" data-name="Path 936" d="M259.968,152.182c19.635,4.729,38.258,9.854,55.771,18.066,5.981,2.8,12.074,7.593,8.234,15.609-3.225,6.727-10.549,6.589-16,4.4A426.949,426.949,0,0,0,254.631,173.2c-6.887-1.762-8.332-6.374-7.331-12.322C248.592,153.224,254.154,151.767,259.968,152.182Z" transform="translate(205.061 20.627)" fill="#aaa"/>
      <path id="Path_937" data-name="Path 937" d="M244.252,342.885c-7.779,0-15.569.259-23.334-.084-6.017-.262-10.331-3.254-10.626-9.836-.288-6.436,3.207-10.287,9.464-10.837,20.192-1.769,40.6.823,60.733-3.513,6.246-1.343,9.719,4.015,10.8,9.727,1.154,6.134-3.884,8.18-8.212,10.163C270.665,344.189,257.415,343.45,244.252,342.885Z" transform="translate(78.673 459.659)" fill="#aaa"/>
      <path id="Path_938" data-name="Path 938" d="M448.644,385.249c-7.717.342-12.1-1.249-13.727-6.734-1.507-5.082-.561-10.276,4.5-12.449,17.8-7.641,33.348-19.042,49.892-28.779,4.714-2.777,11.168-3.44,14.775,1.828,3.222,4.7,2.97,11.234-1.511,15.034C485.927,368.26,466.335,377.346,448.644,385.249Z" transform="translate(783.975 503.907)" fill="#aaa"/>
      <path id="Path_939" data-name="Path 939" d="M417.307,354.329c1.078.488,3.6,1.03,5.318,2.5,16.152,13.844,29.751,29.762,37.814,49.677,1.98,4.892,2.934,11.266-3.28,14.306-6.323,3.094-11.3.262-15.362-5.358-10.9-15.07-22.052-29.958-33.271-44.8-2.825-3.735-3.924-7.116-1.372-11.488C409.244,355.581,412.109,354.15,417.307,354.329Z" transform="translate(708.615 554.458)" fill="#aaa"/>
      <path id="Path_940" data-name="Path 940" d="M434.176,397.55c-.946,8.369-5.751,12.034-14.524,7.521-19.387-9.978-30.825-28.117-43.049-44.865-5.125-7.026.455-13.895,9.6-14.386C393.785,345.415,434.03,388.493,434.176,397.55Z" transform="translate(596.757 532.023)" fill="#efefef"/>
      <path id="Path_941" data-name="Path 941" d="M213.852,244.576c15.314,3.513,32.226,4.47,48.327,10,8,2.745,13.214,6.949,10.942,15.664-2.432,9.326-10.007,6.538-16.4,5.289-15.34-3-30.6-6.483-46-9.09-7.324-1.241-15.594-.881-15.347-11.081C195.648,243.862,204.915,245.049,213.852,244.576Z" transform="translate(39.305 264.731)" fill="#aaa"/>
      <path id="Path_942" data-name="Path 942" d="M377.622,196.443c14.135,2.563,28.339,4.8,42.375,7.823,7.932,1.711,16.435,5.489,13.785,15.362-2.457,9.162-11.27,6.76-18.43,5.635-14.816-2.333-29.584-5.118-44.479-6.756-8.245-.906-17.24-1.285-17.007-11.507.266-11.569,10.837-8.493,18.128-9.326a47.2,47.2,0,0,1,5.42-.033Z" transform="translate(534.541 137.652)" fill="#aaa"/>
      <path id="Path_943" data-name="Path 943" d="M349.747,185.535c-8.962-.459-13.807-.437-18.576-1.019-6.334-.772-9.7-4.612-9.333-11.07.32-5.635,3.793-9.242,9.2-9.322,19.923-.3,39.489-3.174,59.036-6.734,5.562-1.012,9.119,2.7,9.789,8.3.87,7.309-3.6,11.965-9.789,13.236C375.421,181.932,360.544,183.824,349.747,185.535Z" transform="translate(435.577 34.105)" fill="#aaa"/>
      <path id="Path_944" data-name="Path 944" d="M317.781,242.683c9.2.521,12.715,4.2,9.847,11.882-7.255,19.4-19.57,35.746-32.234,51.781-3.229,4.084-8.23,5.02-13.072,2.333-4.994-2.77-6.756-8.045-4.23-12.373,9.93-17.018,20.429-33.719,31.3-50.151C310.974,243.764,315.724,243.473,317.781,242.683Z" transform="translate(296.142 259.733)" fill="#efefef"/>
      <path id="Path_945" data-name="Path 945" d="M288.715,358.29c.058,9.086-1.66,14.142-7.524,16.272-5.66,2.06-9.086-1.875-11.74-5.977-10.524-16.29-16.672-34.451-21.856-52.943-1.412-5.031.393-9.73,5.515-11.969,4.972-2.173,10.214-1,12.733,3.553C275.381,324.487,278.915,344.337,288.715,358.29Z" transform="translate(204.317 417.962)" fill="#efefef"/>
      <path id="Path_946" data-name="Path 946" d="M313.754,444.1c-14.277-5.726-31.265-5.8-47.406-9.894-7.171-1.82-13.578-7.553-11.31-15.849,2.293-8.391,10.371-6.516,16.756-5.289,15.795,3.032,31.5,6.52,47.264,9.687,6.469,1.3,11.885,3.92,11.117,11.456C329.29,442.883,322.232,443.472,313.754,444.1Z" transform="translate(228.27 706.72)" fill="#efefef"/>
      <path id="Path_947" data-name="Path 947" d="M460.526,425.567c-21.554-3.385-39.743-11.212-56.787-21.834-3.775-2.352-6.1-6.17-4.638-10.833,1.507-4.823,5.893-6.192,10.2-5.744,20.625,2.151,38.174,13.5,57.387,19.945,4.357,1.463,6.207,7.539,4.284,12.642C468.935,425.145,464.108,425.935,460.526,425.567Z" transform="translate(689.975 640.956)" fill="#efefef"/>
      <path id="Path_948" data-name="Path 948" d="M316.952,355.922c6.716.673,10.018,5.187,12.853,9.792,7.575,12.3,15.1,24.648,22.089,37.286,3.571,6.461,6.25,14.528-1.223,19.58-7.08,4.787-12.464-1.5-16.737-6.52-11.481-13.49-18.237-29.875-26.308-45.36C303.079,361.976,308.845,357.345,316.952,355.922Z" transform="translate(385.276 558.704)" fill="#efefef"/>
      <path id="Path_949" data-name="Path 949" d="M420.583,233.5c-.5-6.057.557-10.8,5.919-12.733,6.388-2.3,10.968,1.234,12.733,6.829,5.588,17.739,10.979,35.565,15.463,53.6,1.5,6.043-1.456,12.464-8.343,14.189-6.6,1.656-9.446-3.753-11.94-8.726C425.883,269.659,424.442,250.828,420.583,233.5Z" transform="translate(747.558 199.993)" fill="#efefef"/>
      <path id="Path_950" data-name="Path 950" d="M371.471,191.379c-8.165,1.216-16.494,2.373-18.394-7.233-2.137-10.8,6.946-13.618,14.725-14.069,14.615-.841,28.393-5.333,42.619-7.688,7.346-1.216,15.915-.095,17.651,8.605,1.725,8.649-6.985,10.236-12.992,12.246C400.719,188.049,385.806,190.36,371.471,191.379Z" transform="translate(530.749 46.666)" fill="#efefef"/>
      <path id="Path_951" data-name="Path 951" d="M288,389.9c2.752,1.434,8.114,3.171,12.115,6.527,9.69,8.121,19.024,16.33,31,21.364,7.244,3.043,11.255,10.171,7.051,17.888-4.161,7.637-11.608,4.9-17.647,2.224-15.635-6.927-28.251-18.179-40.584-29.693a11.314,11.314,0,0,1-3.01-13.221C278.42,391.322,281.467,389.513,288,389.9Z" transform="translate(293.631 648.281)" fill="#efefef"/>
      <path id="Path_952" data-name="Path 952" d="M334.71,280.641c6.381-.182,12.65.677,13.84,8.245,1.194,7.612-4.67,10.513-10.735,12.056-15.067,3.84-30.148,7.717-45.382,10.793-7.218,1.46-15.82.819-18.27-7.455-2.978-10.076,6.909-11.062,13.123-13.461C302.505,284.937,318.784,283.557,334.71,280.641Z" transform="translate(286.914 359.894)" fill="#efefef"/>
      <path id="Path_953" data-name="Path 953" d="M311.846,360.859c-8.358-2.37-13.327-7.717-7.539-16.879a151.767,151.767,0,0,1,33.581-37.5c5.875-4.707,12.489-4.881,17.775,1.056,5.428,6.1,1.3,11.11-2.963,15.7-10.214,11.026-20.516,21.968-30.7,33.024C319.45,359.028,316.807,361.292,311.846,360.859Z" transform="translate(372.704 419.001)" fill="#b8b8b8"/>
      <path id="Path_954" data-name="Path 954" d="M275.582,167.067c.353,5.347-2.541,9.279-6.185,12.457-10.378,9.039-20.709,18.183-31.633,26.53-6.1,4.663-13.516,6.33-19.024-1.354-5.286-7.371-.415-12.57,5.278-16.406,11.521-7.764,21.561-17.145,31.418-26.821,4.153-4.077,9.21-5.693,14.83-3.116C273.872,160.009,275.444,163.168,275.582,167.067Z" transform="translate(95.036 33.812)" fill="#b8b8b8"/>
      <path id="Path_955" data-name="Path 955" d="M277.428,397.935a9.213,9.213,0,0,1-6.8,9.6c-6.021,1.82-11.11-.237-13.287-6.141a182.578,182.578,0,0,1-11.3-52.7c-.346-5.984,2.77-10.575,9.37-11.186,5.482-.506,9.577,2.057,10.786,7.5C269.987,362.028,273.464,379.119,277.428,397.935Z" transform="translate(200.622 509.931)" fill="#b8b8b8"/>
      <path id="Path_956" data-name="Path 956" d="M329.375,193.551c-1.07,12.155-8.067,15.758-15.9,9.541a121.009,121.009,0,0,1-33.3-41.953c-2.6-5.315-2.119-12.427,4.543-15.795,6.094-3.083,10.247,1.267,13.734,5.573,9.068,11.2,18.1,22.438,26.85,33.89C327.38,187.538,328.294,191.16,329.375,193.551Z" transform="translate(301.491)" fill="#b8b8b8"/>
      <path id="Path_957" data-name="Path 957" d="M267.748,208.133c-3.378,15.784-6.651,31.593-10.181,47.34-1.38,6.137-6.1,9.115-11.933,8.762-6.756-.4-8.995-5.861-8.558-11.608a200.933,200.933,0,0,1,10.88-50.689c2.352-6.763,7.524-9.446,14.219-7.124C268.4,196.972,268.953,202.505,267.748,208.133Z" transform="translate(173.08 131.185)" fill="#b8b8b8"/>
      <path id="Path_958" data-name="Path 958" d="M322.137,385.565c-1.791-1.114-5.449-2.373-7.51-4.922a8.818,8.818,0,0,1,.43-11.685q18.019-18.876,36.788-37.035c4.062-3.946,8.824-3,12.937.663,3.251,2.894,5.733,6.152,4.823,10.935C368.291,350.426,330.513,385.055,322.137,385.565Z" transform="translate(405.982 488.604)" fill="#949494"/>
      <path id="Path_959" data-name="Path 959" d="M370.579,297.224c-.9,8.161-5.06,13.167-12.034,10.021a153.656,153.656,0,0,1-46.871-32.8c-2.938-3.007-2.45-8.22-.055-11.965a8.769,8.769,0,0,1,11.339-3c16.887,8.026,31.415,19.62,45.353,31.91C369.862,292.762,370.025,295.706,370.579,297.224Z" transform="translate(397.05 301.628)" fill="#b8b8b8"/>
      <path id="Path_960" data-name="Path 960" d="M377.223,318.5c17.822,4.339,34.8,13.148,49.939,25.507,3.56,2.9,4.532,6.822,2.017,11.335-2.861,5.133-8.074,7.051-12.289,5.02-16.213-7.819-32.063-16.421-47.766-25.241a8.65,8.65,0,0,1-3.666-11.139C367.322,319.524,371.341,318.257,377.223,318.5Z" transform="translate(566.72 459.822)" fill="#b8b8b8"/>
      <path id="Path_961" data-name="Path 961" d="M289.032,297.522c-15.6-3.84-31.993-7.615-48.214-12.012-5.249-1.423-7.025-6.232-6.647-11.547.426-6.032,4.474-8.66,9.778-8.343,18.113,1.088,35.659,4.841,51.934,13.221,4.867,2.5,6.574,6.913,5.333,12.2C299.774,297.172,294.714,297.285,289.032,297.522Z" transform="translate(165.059 320.223)" fill="#b8b8b8"/>
      <path id="Path_962" data-name="Path 962" d="M262.126,195.665c-1.194,2.544-1.911,5.624-3.746,7.739q-15.862,18.292-32.216,36.162c-3.283,3.593-7.095,6.894-12.311,2.472-4.517-3.833-7.757-8.664-4.15-14.058,9.9-14.83,18.918-30.7,34.749-40.3C252.956,182.528,259.167,185.309,262.126,195.665Z" transform="translate(73.073 107.856)" fill="#949494"/>
      <path id="Path_963" data-name="Path 963" d="M268.81,249.754c-.619,8.642-6.214,11.536-13.6,9.741-17.025-4.128-32.259-12.373-46.285-22.733-5.715-4.223-6.086-10.9-2.941-16.181,3.207-5.384,9.8-4.456,14.63-2.057,13.887,6.9,27.465,14.43,41.1,21.819C265.4,242.339,269.174,244.5,268.81,249.754Z" transform="translate(62.131 190.921)" fill="#949494"/>
      <path id="Path_964" data-name="Path 964" d="M319.951,336a152.958,152.958,0,0,1-40.923-7.426c-6.556-2.075-10.374-6.4-8.562-13.523,1.915-7.532,8.016-8.4,14.324-6.993,11.678,2.613,23.1,6.035,35.291,6.334,9.053.222,20.476,1.889,19.839,13.341C339.222,340.32,326.78,333.782,319.951,336Z" transform="translate(275.607 430.843)" fill="#b8b8b8"/>
      <path id="Path_965" data-name="Path 965" d="M318.255,219.441c-3.171,6.257-7.484,11.51-15.3,8.387-16.344-6.531-30.559-16.374-41.651-30.2-4.092-5.1-5.125-11.681-.47-16.41,4.488-4.561,9.828-1.492,14.488,1.849,11.63,8.343,23.552,16.275,35.044,24.8C314.051,210.6,318.04,213.791,318.255,219.441Z" transform="translate(237.552 91.368)" fill="#949494"/>
      <path id="Path_966" data-name="Path 966" d="M360.339,242.9a144.831,144.831,0,0,1-16.777,45.036c-3.527,6.217-8.707,8.605-14.965,6.156-7.233-2.832-6.523-8.5-4.019-14.918,5.4-13.865,10.254-27.946,15.132-42,2.253-6.5,6.541-10.706,13.206-8.492C358.949,230.679,362.258,235.94,360.339,242.9Z" transform="translate(436.133 221.175)" fill="#949494"/>
      <path id="Path_967" data-name="Path 967" d="M298.729,213.157c-.291-13.953,2-22.882,12.562-22.995,10.276-.109,8.088,9.617,9.071,16.483,1.853,12.984,4.153,25.9,6.214,38.859,1.136,7.127.612,13.731-8.252,15.067-7.171,1.085-11.15-2.737-12.442-9.825C303.308,236.665,300.538,222.617,298.729,213.157Z" transform="translate(361.735 121.066)" fill="#949494"/>
      <path id="Path_968" data-name="Path 968" d="M375.972,299.269a115.405,115.405,0,0,1-27.083,46.063c-3.509,3.6-7.229,3.2-11.416.724-5.34-3.156-5.912-8.165-3.724-12.5,7.59-15.019,15.875-29.689,23.974-44.45,2.9-5.289,7.925-5.169,12.682-3.9C376.708,286.889,375.335,292.575,375.972,299.269Z" transform="translate(466.288 370.078)" fill="#949494"/>
      <path id="Path_969" data-name="Path 969" d="M404.669,430.11c-6.188.855-9.745-4.077-14.393-6.574-12.759-6.862-19.471-19.446-27.421-30.53-3.717-5.18-3.964-13.228,2.585-17.888,6.683-4.754,11.827.182,14.968,5.264,8.059,13.046,20.465,21.939,30.29,33.257,2.93,3.371,4.983,6.938,2.814,11.4C411.771,428.614,408.615,430.175,404.669,430.11Z" transform="translate(552.055 604.303)" fill="#949494"/>
      <path id="Path_970" data-name="Path 970" d="M419.265,234.623c4.157-11.9,2.068-25.907,4.324-39.4,1.281-7.663,3.979-16.071,14.8-13.876,10.178,2.06,8.158,9.406,6.931,16.934-2.108,12.934-3.473,26.005-4.714,39.059-.692,7.248-2.592,13.956-11,13.279C421.828,249.985,419.469,243.3,419.265,234.623Z" transform="translate(744.373 96.847)" fill="#b8b8b8"/>
      <path id="Path_971" data-name="Path 971" d="M381.843,209.937c-1.154,2.832-1.747,7.641-4.452,10.331-10.538,10.476-21.259,20.9-34.123,28.6-5.544,3.32-11.838,4.226-16.344-1.365-5.122-6.356-.317-11.3,4.161-15.387,11.474-10.495,23.184-20.731,34.836-31.025,3.4-3.007,7.164-4.35,11.456-1.707C380.871,201.536,381.6,204.969,381.843,209.937Z" transform="translate(443.137 141.685)" fill="#949494"/>
      <path id="Path_972" data-name="Path 972" d="M480.042,208.681c-2.716,15.449-9.541,30.858-16.268,46.23-2.242,5.122-7.582,5.715-12.57,4.288-5.515-1.583-8.194-6.389-6.64-11.252,5.482-17.145,11.787-34.028,17.837-50.988,1.816-5.085,5.981-5.744,10.345-4.445C480.286,194.758,479.835,201.277,480.042,208.681Z" transform="translate(810.016 125.759)" fill="#949494"/>
      <path id="Path_973" data-name="Path 973" d="M491.818,447.684c-1.245,10.018-7.36,12.959-14.306,10.48-17.385-6.2-30.552-18.507-41.516-32.969-2.916-3.848-2.475-9.257,1.332-13.272,3.422-3.6,7.553-3.673,11.358-.914,13.509,9.785,26.985,19.624,40.162,29.842C490.825,442.384,491.152,446.046,491.818,447.684Z" transform="translate(783.533 699.013)" fill="#949494"/>
      <path id="Path_974" data-name="Path 974" d="M185.356,378.727c0-10.2-.189-16.792.051-23.37.258-7.022,3.749-11.3,11.215-11,6.556.258,9.45,4.379,9.916,10.5,1.121,14.834-.885,29.784,2.821,44.6,1.438,5.744-3.822,10.152-9.144,11.776-6.418,1.958-9.519-2.723-12.205-7.885C183.27,394.238,186,384.519,185.356,378.727Z" transform="translate(12.322 528.141)" fill="#949494"/>
      <path id="Path_975" data-name="Path 975" d="M434.821,233.866c5.136-.575,8.332,1.15,10.691,5.5,3.353,6.185.608,11.339-3.691,14.317-14.022,9.716-30.082,15.1-46.613,18.79-5.1,1.136-9.614-1.329-11.157-6.905-1.19-4.314-1.041-9.494,3.116-11.4C403,246.927,419.172,240.454,434.821,233.866Z" transform="translate(624.044 236.171)" fill="#949494"/>
      <path id="Path_976" data-name="Path 976" d="M298.379,238.658c-.164,3.069-.757,5.864-3.567,7.812C282.02,255.326,268.722,263.422,257.1,274c-3.465,3.156-9.457,2.333-13.119-1.878-4.1-4.707-3.975-10.214-.2-14.877,10.88-13.425,25.015-22.54,41.3-27.738C291.757,227.377,298.779,228.6,298.379,238.658Z" transform="translate(185.741 222.614)" fill="#949494"/>
      <path id="Path_977" data-name="Path 977" d="M483.523,424.276c.153,6.716-1.656,10.542-6.13,12.056-5.023,1.7-9.41.63-12.231-4.608-7.127-13.247-14.408-26.406-21.648-39.591-2.5-4.568-3.753-9.246.808-13.112,4.769-4.052,10.349-3.88,14.9.029C473.661,391.452,478.729,408.863,483.523,424.276Z" transform="translate(802.458 611.845)" fill="#949494"/>
      <path id="Path_978" data-name="Path 978" d="M404.8,296.4c13.283,2.861,28.033,7.448,41.567,15.336,4.641,2.7,6.953,7.073,4.015,12.133-2.716,4.685-6.086,8.605-12.974,6.523-14.768-4.466-28.368-12.522-44.359-13.432-6.341-.36-6.006-6.691-5.3-11.423C389.059,296.806,395.885,296.394,404.8,296.4Z" transform="translate(636.344 401.55)" fill="#949494"/>
      <path id="Path_979" data-name="Path 979" d="M491.226,292.271c.4,8.085-21.248,46.15-28.306,49.168-3.946,1.693-8.434,2.089-11.918-.99-3.607-3.189-3.644-8.38-1.9-11.8,7.583-14.874,15.715-29.489,24.193-43.879,2.384-4.044,7.484-3.731,11.59-2.37C489.34,283.88,491.3,287.575,491.226,292.271Z" transform="translate(820.181 362.174)" fill="#949494"/>
      <path id="Path_980" data-name="Path 980" d="M475.427,302.885c.5,7.674-3.091,13.567-10.222,14.987-9.29,1.849-9.949-5.672-11.259-12.555-2.242-11.772-4.576-23.628-8.292-34.982-2.792-8.529-1.34-15.227,6.6-17.749,8.62-2.734,13.469,4.335,15.314,11.536C470.837,276.876,472.872,289.944,475.427,302.885Z" transform="translate(810.597 284.289)" fill="#949494"/>
      <path id="Path_981" data-name="Path 981" d="M307.673,350.532c.186,12.165-3.757,23.472-7.146,34.927-2.363,7.979-7.979,10.349-15.234,8.693-8.5-1.936-6.763-9.137-5.482-14.652,2.7-11.627,6.694-22.933,6.345-35.139-.2-7.066,1.3-13.687,10.211-13.942,10.1-.288,11.2,6.982,11.3,14.714C307.691,346.932,307.673,348.734,307.673,350.532Z" transform="translate(300.673 491.352)" fill="#949494"/>
      <path id="Path_982" data-name="Path 982" d="M218.176,169.953c11.532.622,11.579,8.882,8.321,15.34-6.694,13.279-16.363,24.939-21.59,39.19-1.416,3.859-6.327,6.3-10.546,5.165A12.058,12.058,0,0,1,185.4,219.4c-1.3-8.733,19.712-45.7,27.734-48.64A25.081,25.081,0,0,1,218.176,169.953Z" transform="translate(12.842 67.714)" fill="#949494"/>
      <path id="Path_983" data-name="Path 983" d="M427.217,424.322c-.8,9.727-7.575,13.021-15.995,8.809-9.577-4.79-18.791-10.192-28.823-14.211-4.692-1.882-9.428-5.693-6.975-12.606,2.195-6.185,6.767-7.594,12.744-7.284C402.355,399.758,426.638,414.748,427.217,424.322Z" transform="translate(596.462 672.411)" fill="#919191"/>
      <path id="Path_984" data-name="Path 984" d="M463.964,279.462c-.633,9.275-4.343,14.277-12.8,11.634-10.364-3.24-20.622-6.1-31.6-6.29-5.5-.091-8.718-3.717-9.151-9.286-.422-5.409,1.689-9.847,7.149-11,15.478-3.28,29.755,1.362,43.347,8.165C462.872,273.663,463.262,277.784,463.964,279.462Z" transform="translate(720.867 314.534)" fill="#919191"/>
      <path id="Path_985" data-name="Path 985" d="M462.065,159.947c9.239,2.18,19.941,3.546,29.569,8.882,5.329,2.956,8.478,6.829,6.381,13.079-1.809,5.395-6.534,7.5-11.492,6.509a354.454,354.454,0,0,1-36.405-8.937c-5.205-1.634-5.752-7.491-4.2-12.4C448.247,159.7,454.741,160.1,462.065,159.947Z" transform="translate(812.73 41.296)" fill="#919191"/>
      <path id="Path_986" data-name="Path 986" d="M218.4,333.954c.248,7.444-1.623,12.286-8.252,13.29-5.446.823-11.219,1.194-12.661-6.294-1.958-10.174-6.858-19.034-11.983-27.836-3.076-5.282-3.469-10.618,2.5-14.007,5.213-2.963,10.582-2.009,14.8,2.4C211.873,310.97,214.723,323.376,218.4,333.954Z" transform="translate(7.489 404.196)" fill="#919191"/>
      <path id="Path_987" data-name="Path 987" d="M385.937,301.922c-6.545.066-10.535-.5-12.209-5.566-1.795-5.435.153-9.341,4.707-12.173,11.5-7.146,24.214-10.214,37.585-10.64,7.572-.24,10.789,5.056,11.386,11.441.637,6.847-4.3,9.814-10.349,9.654C405.285,294.321,395.2,300.993,385.937,301.922Z" transform="translate(591.443 341.188)" fill="#919191"/>
      <path id="Path_988" data-name="Path 988" d="M462.326,227.693c9.843,1.358,20.25,6.621,28.608,15.82,4.547,5,5.726,10.738,1.452,16.246s-9.6,3.273-14.51.524c-7.8-4.372-15.474-8.977-23.323-13.265-5.453-2.981-11.332-5.966-8.565-13.465C448.242,227.431,454.328,227.646,462.326,227.693Z" transform="translate(813.062 220.124)" fill="#919191"/>
      <path id="Path_989" data-name="Path 989" d="M477.121,341.052a108.58,108.58,0,0,0-2.949,11.113c-1.161,6.945-2.77,14.273-11.754,11.965-6.745-1.733-10.666-6.836-7.874-15.249,2.726-8.22-.091-16.432-1.835-24.68-1.351-6.4-1.514-14.415,7.5-15.489,7.717-.921,11.674,4.889,13.17,11.976C474.729,327.1,475.759,333.568,477.121,341.052Z" transform="translate(830.876 433.809)" fill="#919191"/>
      <path id="Path_990" data-name="Path 990" d="M276.645,393.711c1.1,11.266-2.086,19.7-5.646,28-2.126,4.958-5.868,7.528-11.507,6.159s-7.917-5.58-7.477-10.786c.6-7.12,2.257-14.149,3.08-21.259,1.085-9.355-.539-21.63,13.709-20.5C282.142,376.388,274.4,388.688,276.645,393.711Z" transform="translate(218.615 609.757)" fill="#919191"/>
      <path id="Path_991" data-name="Path 991" d="M366.675,263.515a48.892,48.892,0,0,1,27.451,6.41c4.146,2.315,7.626,6.188,6.312,11.769-1.329,5.66-5.937,7.808-10.92,6.953-12.843-2.2-25.6-4.962-38.294-7.906-3.982-.925-5.278-5.064-5.009-8.525s1.948-7.208,6.192-7.768C357.12,263.828,361.914,263.8,366.675,263.515Z" transform="translate(508.884 314.446)" fill="#919191"/>
      <path id="Path_992" data-name="Path 992" d="M278.81,246.025a58.787,58.787,0,0,1,3.116-21.044c2.752-8.685,8.278-11.758,16.257-9.515,8.1,2.275,5.853,9.377,4.761,15-1.587,8.15-4.31,16.086-5.846,24.247-1.128,6-1.139,13.054-9.14,12.97-9.261-.095-8.864-7.9-9.141-14.5C278.715,250.8,278.8,248.405,278.81,246.025Z" transform="translate(300.544 186.009)" fill="#919191"/>
    </g>
    <g id="Group_88" data-name="Group 88">
      <g id="Group_87" data-name="Group 87">
        <line id="Line_10" data-name="Line 10" y1="789" x2="789" transform="translate(1131 291)" fill="none" stroke="#000" stroke-linecap="round" stroke-width="2" opacity="0.503"/>
        <line id="Line_11" data-name="Line 11" y1="690" x2="690" transform="translate(1230 390)" fill="none" stroke="#000" stroke-linecap="round" stroke-width="2" opacity="0.4"/>
        <path id="Path_114" data-name="Path 114" d="M0,625,625,0" transform="translate(1295 455)" fill="none" stroke="#000" stroke-linecap="round" stroke-width="2" opacity="0.3"/>
        <line id="Line_12" data-name="Line 12" y1="586" x2="586" transform="translate(1334 494)" fill="none" stroke="#000" stroke-linecap="round" stroke-width="2" opacity="0.2"/>
      </g>
      <g id="Layer_2" data-name="Layer 2" transform="translate(1366.292 174.669)">
        <g id="Objects" transform="translate(0.249 0.245)">
          <path id="Path_115" data-name="Path 115" d="M159.662,250.763s-12.741,16.129-38.861,9.585c0,0-2.9-15.087-7.181-36.718a220.221,220.221,0,0,1,41.7,8.687,122.838,122.838,0,0,0,4.344,18.446Z" transform="translate(214.674 423.235)" fill="#fff" stroke="#231f20" stroke-miterlimit="10" stroke-width="2" opacity="0.1"/>
          <path id="Path_116" data-name="Path 116" d="M146.789,127.456h0c-1.014.811-1.911,1.593-2.635,2.288h0a9.121,9.121,0,0,0-2.635,3.272c-2.722,8.687-18.388,13.871-20.27,15.956s4.575,12.973-5.936,14.8-20.27-17.374-18.127-28.06,14.8-23.832,21.429-28.06c.869-.55,2.461-1.708,4.575-3.359h20.27l1.1,7.587C145.168,115.844,145.921,121.172,146.789,127.456Z" transform="translate(182.953 196.997)" fill="#fff" stroke="#231f20" stroke-miterlimit="10" stroke-width="2"/>
          <path id="Path_117" data-name="Path 117" d="M239.379,476.945s-12.741,16.129-38.861,9.585c0,0-2.9-15.087-7.181-36.718-9.122-45.232-24.817-118.957-34.749-142.152-14.739-34.315-31.853-126.139-31.853-126.139v111.37s12.683,19,13.378,30.579-4.054,41.033-5.183,55.4-3.33,57.915-3.33,57.915-21.081.811-36.139-10.309C96.213,410.951,81.445,305.14,80,293.267c-.782-6.284-4.807-59.479-8.427-107.809,8.687-1.737,22.934-9.99,23.571-15.29.84-6.6-1.361-59.247-1.361-59.247s-.2-2.346-.521-6.6h33.62v2.375c0,3.243-.174,5.039-.174,5.039s-.579,61.766,11.844,67.818c11.293,5.5,48.851,12.683,64.228,7.963,2.635,21.921,4.807,42.741,5.125,54.5.985,33.1,0,49.662,0,49.662s18.417,31.129,20.878,63.272c2.027,26.467,1.014,71.293,6.371,103.494a122.835,122.835,0,0,0,4.228,18.5Z" transform="translate(134.958 197.054)" fill="#231f20" stroke="#231f20" stroke-miterlimit="10" stroke-width="2"/>
          <path id="Path_118" data-name="Path 118" d="M164.894,273.667l-.637.347a4.336,4.336,0,0,0-.666.434,6.924,6.924,0,0,0-.637.463,30.289,30.289,0,0,0-2.49,2.2l-.927.9-1.071,1.071-1.158,1.129c-1.853,1.882-3.909,3.938-6.2,5.994l-1.737,1.535-2.9,2.259c-.956.753-1.969,1.448-2.9,2.114l-1.042.666-1.042.637c-.666.405-1.332.782-2.027,1.129a4.6,4.6,0,0,1-.84.434l-1.622.753-1.651.666a27.061,27.061,0,0,1-3.069.985l-.811.2a19.7,19.7,0,0,1-2.9.55l-1.651.174h-.84a16.648,16.648,0,0,1-2.693,0h-.753a26.994,26.994,0,0,1-2.9-.319,10.911,10.911,0,0,1-2.461-.492h-.608a32.757,32.757,0,0,1-3.3-1.014l-1.68-.637c-6.718-2.751-9.035-6.052-8.687-9.788v-.492a9.758,9.758,0,0,1,.666-2.172,10.439,10.439,0,0,1,.579-1.129,9.757,9.757,0,0,1,.753-1.274,29.971,29.971,0,0,1,2.375-3.156c.434-.492.869-1.014,1.361-1.535l1.477-1.535,3.214-3.127c1.737-1.622,3.62-3.272,5.531-4.923l1.911-1.651c3.156-2.9,6.4-5.589,9.324-8.4l1.274-1.245,2-2.056c.637-.666,1.245-1.361,1.824-2.027a18.75,18.75,0,0,0,1.245-1.477,29.419,29.419,0,0,0,3.33-5.1c.2-.376.376-.724.521-1.071a10.366,10.366,0,0,0,.434-1.071c26.062,6.544,38.861-9.585,38.861-9.585C190.116,263.648,172.8,270.019,164.894,273.667Z" transform="translate(194.501 441.074)" fill="#231f20" stroke="#231f20" stroke-miterlimit="10" stroke-width="2"/>
          <path id="Path_119" data-name="Path 119" d="M146.845,249.439c-11.322,2.577-21.66,0-36.023,2.23-10.425,1.593-24.5,7.239-35.82,6.313a18.388,18.388,0,0,1-11.409-4.488c-11.583-10.338,49.054-22.5,49.778-37.963,15.058,11.12,36.139,10.309,36.139,10.309a47.607,47.607,0,0,1,2.9,11.93C153.071,242.953,152.144,248.252,146.845,249.439Z" transform="translate(117.048 407.88)" fill="#231f20" stroke="#231f20" stroke-miterlimit="10" stroke-width="2"/>
          <path id="Path_120" data-name="Path 120" d="M89.8,38.232,89.05,34.12h0Z" transform="translate(168.096 63.972)" fill="#fff" stroke="#231f20" stroke-miterlimit="10" stroke-width="2"/>
          <path id="Path_121" data-name="Path 121" d="M88.078,73.871C74.381,135.058,78.7,213.678,80.346,236.7c.319,4.257.521,6.6.521,6.6l32.809.811s0-1.8.174-5.039V236.7h0v-1.911c0-2.9.29-6.4.521-10.4a14.211,14.211,0,0,1,.145-2.461c0-1.824.2-3.736.319-5.792l.174-2.577c.174-2.9.376-5.792.579-8.687l.261-3.475v-3.88c0-.608.145-1.911.232-2.9s.145-1.94.232-2.9c.2-2.693.434-5.473.695-8.282l.811-3.909c.29-3.127.608-6.342.927-9.585,0-.956.2-1.911.29-2.9.261-2.259.492-4.488.753-6.747s.405-3.678.637-5.5.434-3.678.666-5.531l.174-1.361c.319-2.519.637-5.01.985-7.529s.869-5.907,1.361-8.8c.608-4.054,1.245-8.108,1.94-12.075.232-1.535.492-2.9.782-4.546l.608-3.388c.2-1.1.405-2.23.637-3.33.405-2.23.869-4.43,1.3-6.573v-.376c.29-1.39.608-2.9.9-4.112s.608-2.722.927-4.054c.608-2.664,1.274-5.3,1.94-7.847l1.042-3.793c.319-1.245.695-2.461,1.042-3.678s.666-2.317,1.042-3.417.782-2.461,1.187-3.649c.753-2.259,1.535-4.459,2.375-6.544a.463.463,0,0,0,0-.261c1.187-3.041,2.432-5.792,3.765-8.514l1.332-2.606a49.228,49.228,0,0,1-19.373,13.291l-1.651-4.025-5.039,3.069-10.512-1.419-1.622-4.778-1.593,2.288A108.243,108.243,0,0,1,106.9,34.46a17.056,17.056,0,0,1-5.792,1.332,1.419,1.419,0,0,1-.55-.145,153.475,153.475,0,0,0-7.876,20.647" transform="translate(147.871 64.617)" fill="#fff" stroke="#231f20" stroke-miterlimit="10" stroke-width="2"/>
          <path id="Path_122" data-name="Path 122" d="M124.632,97.49c-5.618,4.894-11.264,9.672-16.042,13.581,2.027,1.68,4.344,3.764,6.776,6.139a95.185,95.185,0,0,1,7.066,7.587A72.134,72.134,0,0,1,130.337,136l1.274-.927" transform="translate(205.139 184.106)" fill="#fff" stroke="#231f20" stroke-miterlimit="10" stroke-width="2"/>
          <path id="Path_123" data-name="Path 123" d="M204.882,38.169a153.481,153.481,0,0,0-7.761,20.647c-1.737,5.792-3.272,11.583-4.6,17.635-13.7,61.129-9.382,139.749-7.732,162.77.319,4.257.521,6.6.521,6.6s2.2,52.645,1.361,59.247c-.637,5.3-15,13.552-23.571,15.29a8.687,8.687,0,0,1-5.1,0c-5.5-2.751-7.442-54.845-7.181-69.179.2-10.917.434-86.872.261-133.61-20.444,19.43-41.525,38.89-47.548,44.16-11.583,10.164-62.49,33.851-62.49,33.851S32.354,179.8,23.29,171.257c19.4-10.83,56.38-41.033,68.079-48.359s53.6-57.51,70.077-77.114a28.958,28.958,0,0,1,6.313-7.471,8.687,8.687,0,0,1,8.514-2.432h0a214.781,214.781,0,0,1,24.064-2.751A13,13,0,0,0,204.882,38.169Z" transform="translate(43.432 62.095)" fill="#231f20" stroke="#231f20" stroke-miterlimit="10" stroke-width="2"/>
          <path id="Path_124" data-name="Path 124" d="M.252,112.065c-.319,3.938,20.734,28.291,48.04,16.766a165.814,165.814,0,0,0,29.421-15.492c-2.9-8.687-14.479-21.718-18.764-26.235a7.529,7.529,0,0,1-1.448.29C45.339,88.378,21.97,74.218,14.065,81.6S31.44,98.4,31.44,98.4.6,108.1.252,112.065Z" transform="translate(-0.249 149.926)" fill="#fff" stroke="#231f20" stroke-miterlimit="10" stroke-width="2"/>
          <path id="Path_125" data-name="Path 125" d="M46.379,105.154h0a52.469,52.469,0,0,1-7.095,5.56c-2.9-8.687-14.479-21.689-18.764-26.207a37.384,37.384,0,0,0,8.108-3.678C37.663,89.372,46.379,105.154,46.379,105.154Z" transform="translate(38.18 152.523)" fill="#fff" stroke="#231f20" stroke-miterlimit="10" stroke-width="2"/>
          <path id="Path_126" data-name="Path 126" d="M165.756,250.376l-6.979-37.645c13.147-11.438,26.207-23.687,28.2-28.176s-11.207-28.436-24.064-49.43c-3.649,19.4-4.4,61.535-4.141,77.606-5.618,4.894-11.264,9.672-16.042,13.581-2.9,2.4-5.531,4.517-7.616,6.139a47.8,47.8,0,0,1-4.575,3.359c-6.631,4.228-19.257,17.374-21.429,28.06s7.587,29.884,18.127,28.06,4.054-12.654,5.936-14.8,17.548-7.21,20.27-15.956a9.122,9.122,0,0,1,2.635-3.272h0c.724-.695,1.622-1.477,2.635-2.288h0a71.572,71.572,0,0,1,5.791-4.344l1.274-.927c5.792,26.062,11.988,58.639,4.72,63.706a13.148,13.148,0,0,1-3.851,1.737c-15.376,4.72-52.934-2.461-64.228-7.963C90,301.776,90.583,240.009,90.583,240.009s0-1.8.174-5.039V232.6h0v-1.911c0-2.9.29-6.4.521-10.4a14.211,14.211,0,0,1,.145-2.461c0-1.824.2-3.736.319-5.792l.174-2.577c.174-2.9.376-5.792.579-8.687l.261-3.475v-3.88c0-.608.145-1.911.232-2.9s.145-1.94.232-2.9c.2-2.693.434-5.473.695-8.282l.782-4c.29-3.127.608-6.342.927-9.585,0-.956.2-1.911.29-2.9.261-2.259.492-4.488.753-6.747s.405-3.678.637-5.5.434-3.678.666-5.531l.174-1.361c.319-2.519.637-5.01.985-7.529s.869-5.907,1.361-8.8c.608-4.054,1.245-8.108,1.94-12.075.232-1.535.492-2.9.782-4.546l.608-3.388c.2-1.1.405-2.23.637-3.33l1.3-6.573V97.1c.29-1.39.608-2.9.9-4.112s.608-2.722.927-4.054c.608-2.664,1.274-5.3,1.94-7.847l1.042-3.793c.319-1.245.695-2.461,1.042-3.678l1.042-3.417c.376-1.245.782-2.461,1.187-3.649.782-2.259,1.564-4.459,2.375-6.544a.463.463,0,0,0,0-.261c1.216-3.041,2.461-5.792,3.765-8.514l1.332-2.606h0a67.905,67.905,0,0,0,9.035-11.959c17.925,7.558,41.235,18.475,46.332,26.062h0a40.54,40.54,0,0,1,10.28,13.7c5.791,12.1,52.123,101.033,52.123,115.83C239.135,203.581,189.472,233.407,165.756,250.376Z" transform="translate(170.994 68.806)" fill="#231f20" stroke="#231f20" stroke-miterlimit="10" stroke-width="2"/>
          <path id="Path_127" data-name="Path 127" d="M146.842,97.49c-5.618,4.894-11.264,9.672-16.042,13.581-2.9,2.4-5.531,4.517-7.616,6.139a47.809,47.809,0,0,1-4.575,3.359c-6.631,4.228-19.257,17.374-21.429,28.06s7.587,29.884,18.127,28.06,4.054-12.654,5.936-14.8,17.548-7.21,20.27-15.956a9.122,9.122,0,0,1,2.635-3.272h0c.724-.695,1.622-1.477,2.635-2.288h0a71.568,71.568,0,0,1,5.791-4.344l1.274-.927" transform="translate(182.929 184.106)" fill="#fff" stroke="#231f20" stroke-miterlimit="10" stroke-width="2"/>
          <path id="Path_128" data-name="Path 128" d="M100.123,173.875,88.308,198.026,80.2,171.761S94.5,69.425,104.5,44.58L115.007,46S96.416,122.968,100.123,173.875Z" transform="translate(151.318 83.802)" fill="#231f20" stroke="#231f20" stroke-miterlimit="10" stroke-width="2"/>
          <path id="Path_129" data-name="Path 129" d="M147.815,59.371l.666,15.521a32.431,32.431,0,0,1-4.807,7.037,48.185,48.185,0,0,1-24.932,14.1l-6.023-.666L110.4,82.972l-.695-4.141h0c-.869.376-1.68.695-2.461.985a17.056,17.056,0,0,1-5.792,1.332A1.419,1.419,0,0,1,100.9,81a13,13,0,0,1-4.6-5.039A178.35,178.35,0,0,1,81.821,43.647c-1.593-5.618-5.183-20.907-2.9-31.68A5.089,5.089,0,0,1,79.3,10.52c7.732,8.137,43.06,3.041,43.06,3.041,0,7.963,7.413,18.243,11.583,23.34a32.49,32.49,0,0,1,4.373-7.037c2.751-3.3,6.342-5.415,10.135-2.143s2.23,8.919-1.361,13.552Z" transform="translate(147.497 19.233)" fill="#fff" stroke="#231f20" stroke-miterlimit="10" stroke-width="2"/>
          <path id="Path_130" data-name="Path 130" d="M147.045,78.849l-.666-18.069c3.591-4.633,5.473-10.019,1.361-13.552s-7.384-1.158-10.135,2.143a32.49,32.49,0,0,0-4.373,7.037c-4.17-5.1-11.583-15.376-11.583-23.34,0,0-35.328,5.1-43.06-3.041h0S79.285,5.992,122.374.548,159.034,64.66,147.045,78.849Z" transform="translate(148.266 -0.245)" fill="#231f20" stroke="#231f20" stroke-miterlimit="10" stroke-width="2"/>
          <path id="Path_131" data-name="Path 131" d="M95.173,50.683v.2h0L89.12,59.573,87.528,61.86a108.243,108.243,0,0,1,2.259-26.786c.782-.29,1.593-.608,2.461-.985L93,38.2Z" transform="translate(165.043 63.915)" fill="#fff" stroke="#231f20" stroke-miterlimit="10" stroke-width="2"/>
          <path id="Path_132" data-name="Path 132" d="M127.431,44.4A67.906,67.906,0,0,1,118.4,56.363h0A49.228,49.228,0,0,1,99.024,69.655l-1.8-3.967-3.041-6.921-2-4.546a48.185,48.185,0,0,0,24.932-14.1,32.432,32.432,0,0,0,4.807-7.037,4.693,4.693,0,0,0,.29-.521Z" transform="translate(174.048 61.015)" fill="#fff" stroke="#231f20" stroke-miterlimit="10" stroke-width="2"/>
          <path id="Path_133" data-name="Path 133" d="M105.229,51.963l-5.039,3.069L89.678,53.614,87.97,48.778l6.052-8.716v-.029l.145-.2,6.023.637,2,4.575Z" transform="translate(166.048 74.797)" fill="#231f20" stroke="#231f20" stroke-miterlimit="10" stroke-width="2"/>
          <path id="Path_134" data-name="Path 134" d="M144.144,129.754a9.121,9.121,0,0,0-2.635,3.272c-2.722,8.687-18.388,13.871-20.27,15.956s4.575,12.973-5.936,14.8-20.27-17.374-18.127-28.06,14.8-23.832,21.429-28.06c.869-.55,2.461-1.708,4.575-3.359A97.646,97.646,0,0,1,144.144,129.754Z" transform="translate(182.934 197.016)" fill="#fff" stroke="#231f20" stroke-miterlimit="10" stroke-width="2"/>
          <path id="Path_135" data-name="Path 135" d="M135.247,127.112c-2.2,1.593-4.112,3.069-5.791,4.344h0c-1.014.811-1.911,1.593-2.635,2.288h0A97.644,97.644,0,0,0,106,108.319c2.085-1.622,4.691-3.736,7.616-6.139,2.027,1.68,4.344,3.764,6.776,6.139a95.189,95.189,0,0,1,7.066,7.587,72.134,72.134,0,0,1,7.79,11.207Z" transform="translate(200.229 192.997)" fill="#fff" stroke="#231f20" stroke-miterlimit="10" stroke-width="2"/>
          <path id="Path_136" data-name="Path 136" d="M109.03,110.164,124.58,97.77l7.847,35.618-2.114,1.506Z" transform="translate(205.973 184.637)" fill="#231f20" stroke="#231f20" stroke-miterlimit="10" stroke-width="2"/>
        </g>
      </g>
    </g>
  </g>
</svg>
