<svg xmlns="http://www.w3.org/2000/svg" width="1888.844" height="1082.906" viewBox="0 0 1888.844 1082.906">
  <g id="Group_79" data-name="Group 79" transform="translate(-32.57 1.492)">
    <g id="Group_76" data-name="Group 76">
      <line id="Line_6" data-name="Line 6" y1="789" x2="789" transform="translate(1131 291)" fill="none" stroke="#fff" stroke-linecap="round" stroke-width="2" opacity="0.503"/>
      <line id="Line_7" data-name="Line 7" y1="690" x2="690" transform="translate(1230 390)" fill="none" stroke="#fff" stroke-linecap="round" stroke-width="2" opacity="0.4"/>
      <path id="Path_85" data-name="Path 85" d="M0,625,625,0" transform="translate(1295 455)" fill="none" stroke="#fff" stroke-linecap="round" stroke-width="2" opacity="0.3"/>
      <line id="Line_9" data-name="Line 9" y1="586" x2="586" transform="translate(1334 494)" fill="none" stroke="#fff" stroke-linecap="round" stroke-width="2" opacity="0.2"/>
    </g>
    <g id="Group_78" data-name="Group 78">
      <path id="Path_81" data-name="Path 81" d="M45.72,124.85A45.22,45.22,0,1,1,90.93,79.633,45.222,45.222,0,0,1,45.72,124.85Zm0-3.77A41.45,41.45,0,1,0,4.27,79.63a41.45,41.45,0,0,0,41.45,41.45Zm-.29-98.79a1.885,1.885,0,1,1-3.11-2.13A45.22,45.22,0,1,1,105.19,83a1.881,1.881,0,1,1-2.13-3.1A41.45,41.45,0,1,0,45.43,22.29Zm54.93,31a9.4,9.4,0,1,0,0-.04Zm0-3.76a5.64,5.64,0,1,1,0-.04ZM30.64,77.75a9.42,9.42,0,1,1,6.667-2.756A9.42,9.42,0,0,1,30.64,77.75Zm0-3.77a2.341,2.341,0,1,0,0,.02ZM64.56,89.05A9.42,9.42,0,1,1,71.234,86.3,9.42,9.42,0,0,1,64.56,89.05Zm0-3.77a5.65,5.65,0,1,0-5.65-5.65,5.65,5.65,0,0,0,5.65,5.65ZM88.11,23.11a2.83,2.83,0,1,1,2.82-2.83,2.83,2.83,0,0,1-2.82,2.83Zm-37.68,81a2.832,2.832,0,1,1,0,.01ZM27.82,94.7a2.83,2.83,0,1,1,2.82-2.82,2.83,2.83,0,0,1-2.82,2.82ZM67.38,26.88a2.83,2.83,0,1,1,2.83-2.83A2.83,2.83,0,0,1,67.38,26.88Zm-15.07,32a1.175,1.175,0,1,1,0,.03Z" transform="translate(54.326 700.927) rotate(-45)" fill="none" stroke="#b5b5b5" stroke-linecap="round" stroke-linejoin="round" stroke-miterlimit="10" stroke-width="1"/>
      <path id="Path_82" data-name="Path 82" d="M30,42h73.8a5.66,5.66,0,0,1,5.43,4l16.62,56.52a5.66,5.66,0,0,1-5.42,7.25H106.62v18.84a1.88,1.88,0,1,1-3.76,0V109.78H23.72v18.84a1.88,1.88,0,1,1-3.76,0V109.78H6.15a5.65,5.65,0,0,1-5.42-7.25L17.35,46a5.66,5.66,0,0,1,5.43-4h3.28l7.5-27a9.43,9.43,0,0,1,9.08-7h5.58V6.15A5.65,5.65,0,0,1,53.87.5H72.71a5.65,5.65,0,0,1,5.65,5.65v7.54a5.65,5.65,0,0,1-5.65,5.65H53.87a5.65,5.65,0,0,1-5.65-5.65V11.8H42.64a5.65,5.65,0,0,0-5.44,4.14Zm-7.19,3.77A1.88,1.88,0,0,0,21,47.07L4.34,103.59A1.91,1.91,0,0,0,6.15,106H120.43a1.9,1.9,0,0,0,1.81-2.42L105.61,47.07a1.88,1.88,0,0,0-1.81-1.35ZM53.87,4.27A1.88,1.88,0,0,0,52,6.15v7.54a1.88,1.88,0,0,0,1.88,1.88H72.71a1.88,1.88,0,0,0,1.88-1.88V6.15a1.88,1.88,0,0,0-1.88-1.88ZM25,88.52l8.87-30.15A1.87,1.87,0,0,1,35.69,57h55.2a1.87,1.87,0,0,1,1.8,1.35l8.87,30.15a1.88,1.88,0,0,1-1.81,2.41H26.83A1.88,1.88,0,0,1,25,88.52ZM61.41,60.79H37.1L29.35,87.17H61.41Zm3.76,0V87.17H97.23L89.48,60.79Z" transform="translate(245.394 508.807) rotate(-45)" fill="none" stroke="#b5b5b5" stroke-linecap="round" stroke-linejoin="round" stroke-miterlimit="10" stroke-width="1"/>
      <path id="Path_83" data-name="Path 83" d="M97.86,97.89c-14.09,14-33,22.83-52.7,25.88-17,2.63-32.42.45-38.21-5.35S-1,97.19,1.61,80.21c3-19.65,11.83-38.61,25.87-52.7s33-22.89,52.66-25.92C97.12-1,112.6,1.17,118.4,7s8,21.28,5.38,38.26C120.75,64.91,112,83.85,97.86,97.89ZM41.71,120.44c.95-.12,1.91-.25,2.88-.4,18.9-2.93,37.12-11.37,50.61-24.82s21.94-31.63,24.86-50.56c.15-1,.28-1.95.4-2.91A41.48,41.48,0,0,1,83.63,4.91c-1,.12-1.94.26-2.92.41C61.79,8.23,43.58,16.69,30.15,30.17S8.26,61.88,5.33,80.79c-.15,1-.28,1.92-.4,2.87a41.46,41.46,0,0,1,36.78,36.78Zm-37.16-33c-1.07,13.19,1,24.34,5.06,28.35S24.77,121.9,38,120.83A37.68,37.68,0,0,0,4.55,87.41ZM120.84,38c1-13.2-1.1-24.35-5.11-28.36S100.57,3.49,87.38,4.53A37.7,37.7,0,0,0,120.84,38Zm-67,18.5a1.89,1.89,0,0,1,2.67-2.67L71.54,68.9a1.884,1.884,0,0,1-2.66,2.67ZM68.88,41.42a1.881,1.881,0,1,1,2.66-2.66L86.61,53.83A1.88,1.88,0,0,1,84,56.5ZM38.73,71.57A1.89,1.89,0,0,1,41.4,68.9L56.47,84a1.884,1.884,0,1,1-2.67,2.66Z" transform="translate(453.324 301.863) rotate(-45)" fill="none" stroke="#b5b5b5" stroke-linecap="round" stroke-linejoin="round" stroke-miterlimit="10" stroke-width="1"/>
      <path id="Path_84" data-name="Path 84" d="M23.11,98.47H9.92A9.42,9.42,0,0,1,.5,89.05V43.83A39.551,39.551,0,0,1,16.332,12.178,58.4,58.4,0,0,1,51.37.5H66.44a58.43,58.43,0,0,1,35.05,11.68,39.57,39.57,0,0,1,15.82,31.65V89.05a9.42,9.42,0,0,1-9.42,9.42H94.7v17a9.42,9.42,0,0,1-9.42,9.42H32.53a9.42,9.42,0,0,1-9.42-9.42ZM94.7,70.2V94.7h13.19a5.65,5.65,0,0,0,5.65-5.65V43.83A35.78,35.78,0,0,0,99.22,15.2a54.47,54.47,0,0,0-17.8-8.84,22.61,22.61,0,0,1-45,0,54.57,54.57,0,0,0-17.8,8.84A35.78,35.78,0,0,0,4.27,43.83V89.05A5.65,5.65,0,0,0,9.92,94.7H23.11V47.6a1.89,1.89,0,0,1,3.77,0V66L40.7,53.73a1.87,1.87,0,0,1,2.5,0l15.71,14,15.7-14a1.87,1.87,0,0,1,2.5,0L90.93,66V47.6a1.89,1.89,0,0,1,3.77,0Zm-3.77.86L75.86,57.66l-15.7,14a1.9,1.9,0,0,1-2.51,0L42,57.66,26.88,71.06v44.37a5.65,5.65,0,0,0,5.65,5.65H85.28a5.65,5.65,0,0,0,5.65-5.65ZM40.1,5.44a18.84,18.84,0,0,0,37.61,0A55.06,55.06,0,0,0,66.44,4.27H51.37A55.13,55.13,0,0,0,40.1,5.44Z" transform="translate(627.427 127.774) rotate(-45)" fill="none" stroke="#b5b5b5" stroke-linecap="round" stroke-linejoin="round" stroke-miterlimit="10" stroke-width="1"/>
    </g>
    <g id="Group_77" data-name="Group 77">
      <g id="Layer_2" data-name="Layer 2" transform="translate(32.57 427.02) rotate(-45)" opacity="0.5">
        <g id="Layer_1" data-name="Layer 1">
          <path id="Path_78" data-name="Path 78" d="M10.35.5h67a9.85,9.85,0,0,1,9.85,9.85v110.3a9.85,9.85,0,0,1-9.85,9.85h-67A9.85,9.85,0,0,1,.5,120.65V10.35A9.85,9.85,0,0,1,10.35.5Zm0,3.94a5.92,5.92,0,0,0-5.91,5.91v110.3a5.91,5.91,0,0,0,5.91,5.91h67a5.91,5.91,0,0,0,5.91-5.91V10.35a5.92,5.92,0,0,0-5.91-5.91ZM130.5,14.29V116.71a9.85,9.85,0,0,1-9.85,9.85h-2a9.85,9.85,0,0,1-9.85-9.85V87.17H101a2,2,0,0,1-2-2V41.86a29.54,29.54,0,0,1,29.54-29.54A2,2,0,0,1,130.5,14.29ZM102.92,41.86V83.23h23.64V16.33a25.61,25.61,0,0,0-23.64,25.53Zm9.85,45.31v29.54a5.91,5.91,0,0,0,5.91,5.91h2a5.9,5.9,0,0,0,5.91-5.91V87.17ZM32,16.26H55.65a9.85,9.85,0,1,1,0,19.69H32a9.85,9.85,0,1,1,0-19.69Zm0,3.94A5.91,5.91,0,1,0,32,32H55.65a5.91,5.91,0,1,0,0-11.82Z" fill="none" stroke="#fff" stroke-linecap="round" stroke-linejoin="round" stroke-miterlimit="10" stroke-width="1"/>
        </g>
      </g>
      <path id="Path_79" data-name="Path 79" d="M141.33,74.17a2.17,2.17,0,1,1,0,4.33h-4.92a77.82,77.82,0,0,0,0,47.67h4.92a2.17,2.17,0,1,1,0,4.33H15.67A15.17,15.17,0,0,1,.5,115.33v-26A15.17,15.17,0,0,1,15.67,74.17H54.08A31,31,0,0,1,37.33,46c0-13.77,7.25-19.1,19.05-18.18a56.94,56.94,0,0,1,8.83,1.51l4.36,1.07.26.06V21.84a15.93,15.93,0,0,1-3.25.33A16.26,16.26,0,0,1,50.33,5.92a15.879,15.879,0,0,1,.21-2.59,2.17,2.17,0,0,1,1.33-1.67A16.27,16.27,0,0,1,72.4,9.38,15.16,15.16,0,0,1,85,2.67,2.17,2.17,0,1,1,85,7,10.83,10.83,0,0,0,74.17,17.83V30.46l.26-.06,4.36-1.07a56.939,56.939,0,0,1,8.83-1.51c11.8-.92,19,4.41,19,18.18a31,31,0,0,1-16.7,28.17Zm-13,28.16q0-3.24.27-6.5H95.83a2.17,2.17,0,0,1,0-4.33h33.24a84.842,84.842,0,0,1,2.81-13H15.67A10.83,10.83,0,0,0,4.83,89.33v26a10.84,10.84,0,0,0,10.84,10.84H131.88a85.091,85.091,0,0,1-2.81-13H108.83a2.17,2.17,0,0,1,0-4.34H128.6Q128.33,105.59,128.33,102.33ZM72,74.17c16.35,0,30.33-10.8,30.33-28.17,0-11-4.9-14.6-14.38-13.86a52.65,52.65,0,0,0-8.16,1.41l-4.37,1.07a15.809,15.809,0,0,1-3.42.55,15.81,15.81,0,0,1-3.42-.55l-4.37-1.07a52.651,52.651,0,0,0-8.16-1.41C46.57,31.4,41.67,35,41.67,46,41.67,63.37,55.65,74.17,72,74.17ZM54.67,5.92A11.91,11.91,0,0,0,66.58,17.83a12.06,12.06,0,0,0,3.24-.44v-.64A11.92,11.92,0,0,0,57.92,4.83a11.68,11.68,0,0,0-3.24.45C54.67,5.49,54.67,5.7,54.67,5.92Z" transform="translate(206.722 262.873) rotate(-45)" fill="none" stroke="#fff" stroke-linecap="round" stroke-linejoin="round" stroke-miterlimit="10" stroke-width="1" opacity="0.5"/>
      <path id="Path_80" data-name="Path 80" d="M25.72,86.86,56.63,1.92a2.15,2.15,0,0,1,4,1.47L29.76,88.33,41.9,92.75A6.45,6.45,0,0,1,45.76,101l-4.42,12.14A6.46,6.46,0,0,1,33.06,117L4.75,106.71A6.45,6.45,0,0,1,.89,98.44L5.31,86.3a6.45,6.45,0,0,1,8.27-3.86l12.14,4.42Zm-13.61-.37a2.15,2.15,0,0,0-2.76,1.28L4.94,99.91a2.15,2.15,0,0,0,1.28,2.76L34.54,113a2.16,2.16,0,0,0,2.76-1.28l4.41-12.14a2.15,2.15,0,0,0-1.28-2.76ZM108,128.35a2.15,2.15,0,0,1-4.3,0V106.83a19.37,19.37,0,1,1,38.74,0v21.52a2.16,2.16,0,0,1-4.31,0V106.83a15.07,15.07,0,1,0-30.13,0ZM73.59,130.5A12.92,12.92,0,1,1,86.5,117.59,12.92,12.92,0,0,1,73.59,130.5Zm0-4.3A8.61,8.61,0,1,0,65,117.59,8.61,8.61,0,0,0,73.59,126.2Z" transform="translate(380.171 99.431) rotate(-45)" fill="none" stroke="#fff" stroke-linecap="round" stroke-linejoin="round" stroke-miterlimit="10" stroke-width="1" opacity="0.5"/>
    </g>
  </g>
</svg>
