<svg xmlns="http://www.w3.org/2000/svg" width="573.876" height="357.001" viewBox="0 0 573.876 357.001">
  <path id="Path_78" data-name="Path 78" d="M10.35.5h67a9.85,9.85,0,0,1,9.85,9.85v110.3a9.85,9.85,0,0,1-9.85,9.85h-67A9.85,9.85,0,0,1,.5,120.65V10.35A9.85,9.85,0,0,1,10.35.5Zm0,3.94a5.92,5.92,0,0,0-5.91,5.91v110.3a5.91,5.91,0,0,0,5.91,5.91h67a5.91,5.91,0,0,0,5.91-5.91V10.35a5.92,5.92,0,0,0-5.91-5.91ZM130.5,14.29V116.71a9.85,9.85,0,0,1-9.85,9.85h-2a9.85,9.85,0,0,1-9.85-9.85V87.17H101a2,2,0,0,1-2-2V41.86a29.54,29.54,0,0,1,29.54-29.54A2,2,0,0,1,130.5,14.29ZM102.92,41.86V83.23h23.64V16.33a25.61,25.61,0,0,0-23.64,25.53Zm9.85,45.31v29.54a5.91,5.91,0,0,0,5.91,5.91h2a5.9,5.9,0,0,0,5.91-5.91V87.17ZM32,16.26H55.65a9.85,9.85,0,1,1,0,19.69H32a9.85,9.85,0,1,1,0-19.69Zm0,3.94A5.91,5.91,0,1,0,32,32H55.65a5.91,5.91,0,1,0,0-11.82Z" transform="translate(0 1.492)" fill="none" stroke="#fff" stroke-linecap="round" stroke-linejoin="round" stroke-miterlimit="10" stroke-width="1"/>
  <g id="Layer_2" data-name="Layer 2" transform="translate(206.015 265.072) rotate(-45)">
    <g id="Layer_2-2" data-name="Layer 2">
      <path id="Path_79" data-name="Path 79" d="M141.33,74.17a2.17,2.17,0,1,1,0,4.33h-4.92a77.82,77.82,0,0,0,0,47.67h4.92a2.17,2.17,0,1,1,0,4.33H15.67A15.17,15.17,0,0,1,.5,115.33v-26A15.17,15.17,0,0,1,15.67,74.17H54.08A31,31,0,0,1,37.33,46c0-13.77,7.25-19.1,19.05-18.18a56.94,56.94,0,0,1,8.83,1.51l4.36,1.07.26.06V21.84a15.93,15.93,0,0,1-3.25.33A16.26,16.26,0,0,1,50.33,5.92a15.879,15.879,0,0,1,.21-2.59,2.17,2.17,0,0,1,1.33-1.67A16.27,16.27,0,0,1,72.4,9.38,15.16,15.16,0,0,1,85,2.67,2.17,2.17,0,1,1,85,7,10.83,10.83,0,0,0,74.17,17.83V30.46l.26-.06,4.36-1.07a56.939,56.939,0,0,1,8.83-1.51c11.8-.92,19,4.41,19,18.18a31,31,0,0,1-16.7,28.17Zm-13,28.16q0-3.24.27-6.5H95.83a2.17,2.17,0,0,1,0-4.33h33.24a84.842,84.842,0,0,1,2.81-13H15.67A10.83,10.83,0,0,0,4.83,89.33v26a10.84,10.84,0,0,0,10.84,10.84H131.88a85.091,85.091,0,0,1-2.81-13H108.83a2.17,2.17,0,0,1,0-4.34H128.6Q128.33,105.59,128.33,102.33ZM72,74.17c16.35,0,30.33-10.8,30.33-28.17,0-11-4.9-14.6-14.38-13.86a52.65,52.65,0,0,0-8.16,1.41l-4.37,1.07a15.809,15.809,0,0,1-3.42.55,15.81,15.81,0,0,1-3.42-.55l-4.37-1.07a52.651,52.651,0,0,0-8.16-1.41C46.57,31.4,41.67,35,41.67,46,41.67,63.37,55.65,74.17,72,74.17ZM54.67,5.92A11.91,11.91,0,0,0,66.58,17.83a12.06,12.06,0,0,0,3.24-.44v-.64A11.92,11.92,0,0,0,57.92,4.83a11.68,11.68,0,0,0-3.24.45C54.67,5.49,54.67,5.7,54.67,5.92Z" transform="translate(1)" fill="none" stroke="#fff" stroke-linecap="round" stroke-linejoin="round" stroke-miterlimit="10" stroke-width="1" opacity="0.5"/>
    </g>
  </g>
  <g id="Layer_2-3" data-name="Layer 2" transform="translate(379.464 101.631) rotate(-45)">
    <g id="Layer_2-4" data-name="Layer 2">
      <path id="Path_80" data-name="Path 80" d="M25.72,86.86,56.63,1.92a2.15,2.15,0,0,1,4,1.47L29.76,88.33,41.9,92.75A6.45,6.45,0,0,1,45.76,101l-4.42,12.14A6.46,6.46,0,0,1,33.06,117L4.75,106.71A6.45,6.45,0,0,1,.89,98.44L5.31,86.3a6.45,6.45,0,0,1,8.27-3.86l12.14,4.42Zm-13.61-.37a2.15,2.15,0,0,0-2.76,1.28L4.94,99.91a2.15,2.15,0,0,0,1.28,2.76L34.54,113a2.16,2.16,0,0,0,2.76-1.28l4.41-12.14a2.15,2.15,0,0,0-1.28-2.76ZM108,128.35a2.15,2.15,0,0,1-4.3,0V106.83a19.37,19.37,0,1,1,38.74,0v21.52a2.16,2.16,0,0,1-4.31,0V106.83a15.07,15.07,0,1,0-30.13,0ZM73.59,130.5A12.92,12.92,0,1,1,86.5,117.59,12.92,12.92,0,0,1,73.59,130.5Zm0-4.3A8.61,8.61,0,1,0,65,117.59,8.61,8.61,0,0,0,73.59,126.2Z" transform="translate(1)" fill="none" stroke="#fff" stroke-linecap="round" stroke-linejoin="round" stroke-miterlimit="10" stroke-width="1" opacity="0.5"/>
    </g>
  </g>
</svg>
